<svg xmlns="http://www.w3.org/2000/svg" xmlns:xlink="http://www.w3.org/1999/xlink" width="36" height="36" viewBox="0 0 36 36"><defs><clipPath id="a"><circle cx="18" cy="18" r="18" fill="none"/></clipPath></defs><g clip-path="url(#a)"><g transform="translate(-18)"><rect width="72" height="36" fill="#002395"/><path d="M9,0H45V36Z" transform="translate(10.08)" fill="#fecb00"/><path d="M-57.731,2.362-59.742.9l-2.01,1.461L-60.982,0H-58.5Z" transform="translate(72.342)" fill="#fff"/><path d="M-28.1,7.988l-2.01,1.461.768,2.363-2.01-1.461-2.01,1.461.768-2.363-2.01-1.461h2.485l.768-2.363.768,2.363Z" transform="translate(48.453 -4.95)" fill="#fff"/><path d="M9.4,45.488,7.39,46.949l.768,2.363-2.01-1.461-2.01,1.461L4.9,46.949l-2.01-1.461H5.379l.768-2.363.768,2.363Z" transform="translate(15.453 -37.95)" fill="#fff"/><path d="M46.9,83.007l-2.01,1.461.768,2.363-2.01-1.461-2.01,1.461.768-2.363-2.01-1.461h2.485l.768-2.363.768,2.363Z" transform="translate(-17.547 -70.967)" fill="#fff"/><path d="M84.4,120.5l-2.01,1.461.768,2.363-2.01-1.461-2.01,1.461.768-2.363L77.9,120.5h2.485l.768-2.363.768,2.363Z" transform="translate(-50.551 -103.963)" fill="#fff"/><path d="M121.892,158l-2.01,1.461.768,2.363-2.01-1.461-2.01,1.461.768-2.363L115.387,158h2.485l.768-2.363.768,2.363Z" transform="translate(-83.541 -136.964)" fill="#fff"/><path d="M159.41,195.516l-2.01,1.461.768,2.363-2.01-1.461-2.01,1.461.768-2.363-2.01-1.461h2.485l.768-2.363.768,2.363Z" transform="translate(-116.556 -169.975)" fill="#fff"/><path d="M196.907,233l-2.01,1.461.768,2.363-2.01-1.461-2.01,1.461.768-2.363L190.4,233h2.485l.768-2.363.768,2.363Z" transform="translate(-149.554 -202.959)" fill="#fff"/><path d="M234.4,270.488h-2.485l-.768-2.363-.768,2.363h-2.485l2.01,1.461h2.485Z" transform="translate(-182.547 -235.95)" fill="#fff"/></g></g></svg>