<svg xmlns="http://www.w3.org/2000/svg" xmlns:xlink="http://www.w3.org/1999/xlink" width="36" height="36" viewBox="0 0 36 36"><defs><clipPath id="a"><circle cx="18" cy="18" r="18" fill="none"/></clipPath></defs><g clip-path="url(#a)"><g transform="translate(-9)"><rect width="54" height="36" fill="#00267f"/><rect width="18" height="36" transform="translate(18)" fill="#ffc726"/><path d="M148.35,77.325a11.754,11.754,0,0,0,2.457,4.527,5.471,5.471,0,0,0-1.534-.236v6.71l1.894.281c.068-.007.09-.112.09-.256A25.716,25.716,0,0,1,152.5,82.7c.04-.247.758-1.192.2-1.026-.067.009-.808.311-.691.167a7.167,7.167,0,0,1,3.913-2.018c.126-.032.2.031.088.178a18.947,18.947,0,0,0-3.474,10.465c-.738,0-2.527-.436-3.267-.436v4.734h-.934l-.214-13.221Z" transform="translate(-121.35 -68.046)"/><path d="M93.4,77.325a11.754,11.754,0,0,1-2.457,4.527,5.471,5.471,0,0,1,1.534-.236v6.71l-1.894.281c-.068-.007-.09-.112-.09-.256A25.716,25.716,0,0,0,89.247,82.7c-.04-.247-.758-1.192-.2-1.026.067.009.808.311.691.167a7.167,7.167,0,0,0-3.913-2.018c-.126-.032-.2.031-.088.178a18.947,18.947,0,0,1,3.474,10.465c.738,0,2.527-.436,3.267-.436v4.734h.934l.214-13.221Z" transform="translate(-66.396 -68.046)"/></g></g></svg>