<svg xmlns="http://www.w3.org/2000/svg" xmlns:xlink="http://www.w3.org/1999/xlink" width="36" height="36" viewBox="0 0 36 36"><defs><clipPath id="a"><circle cx="18" cy="18" r="18" transform="translate(2669 827)" fill="#fff" stroke="#707070" stroke-width="1"/></clipPath><clipPath id="b"><rect width="61.714" height="36" fill="none"/></clipPath></defs><g transform="translate(-2669 -827)" clip-path="url(#a)"><g transform="translate(2226.748 470.166)"><g transform="translate(429.252 356.834)" clip-path="url(#b)"><path d="M437,400.263h50.214l-25.108-14.645Z" transform="translate(-431.252 -364.262)" fill="#488a30"/><path d="M487.216,356.834H437l25.106,14.646Z" transform="translate(-431.252 -356.834)" fill="#488a30"/><path d="M429.252,390.647,454.358,376l-25.106-14.645Z" transform="translate(-429.252 -358.001)"/><path d="M503.7,390.647V361.356L478.594,376Z" transform="translate(-441.986 -358.001)"/><path d="M429.252,399.1H435l25.106-14.645L485.216,399.1h5.75l-30.858-18Z" transform="translate(-429.252 -363.095)" fill="#f1da28"/><path d="M485.216,356.834,460.108,371.48,435,356.834h-5.75l30.858,18,30.856-18Z" transform="translate(-429.252 -356.834)" fill="#f1da28"/><path d="M501.7,356.834l-30.856,18,30.856,18V389.48l-25.106-14.646L501.7,360.188Z" transform="translate(-439.986 -356.834)" fill="#f1da28"/><path d="M429.252,360.188l25.106,14.645L429.252,389.48v3.354l30.856-18-30.856-18Z" transform="translate(-429.252 -356.834)" fill="#f1da28"/></g></g></g></svg>