<svg xmlns="http://www.w3.org/2000/svg" xmlns:xlink="http://www.w3.org/1999/xlink" width="36" height="36" viewBox="0 0 36 36"><defs><clipPath id="a"><circle cx="18" cy="18" r="18" transform="translate(2416 246)" fill="#fff" stroke="#707070" stroke-width="1"/></clipPath><clipPath id="b"><rect width="61.713" height="36" fill="none"/></clipPath></defs><g transform="translate(-2416 -246)" clip-path="url(#a)"><g transform="translate(1873.956 -189.625)"><g transform="translate(529.044 435.625)" clip-path="url(#b)"><rect width="61.713" height="35.999" transform="translate(0 0.001)" fill="#d03633"/><rect width="61.713" height="24" fill="#f2dd30"/><rect width="61.713" height="12" fill="#2d6c41"/><path d="M576.505,456.756a9,9,0,1,1-9-9,9,9,0,0,1,9,9" transform="translate(-536.648 -438.756)" fill="#4ba2d7"/><path d="M561.406,455.12h5.23l1.183-3.641.316.97-1.719,5.29-.511-.371.536-1.649h-4.21Zm2.615,8.05,1.616-4.974-3.1-2.251h1.022l4.5,3.27-.51.371-1.4-1.02-1.3,4Zm8.464,0-4.231-3.074-3.1,2.249.315-.97,4.5-3.27.194.6-1.4,1.02,3.405,2.474Zm2.616-8.05-4.232,3.075,1.183,3.64-.826-.6-1.719-5.29h.631l.536,1.651,3.407-2.475Zm-6.847-4.975,1.616,4.975H573.7l-.826.6h-5.563l.2-.6h1.735l-1.3-4Z" transform="translate(-537.397 -439.373)" fill="#f2dd30"/><path d="M568.253,461.161v0Zm-3.138-2.28-3.709,1.2Zm1.2-3.69-2.292-3.155Zm3.879,0,2.292-3.155Zm1.2,3.69,3.709,1.2Z" transform="translate(-537.396 -439.861)"/><path d="M568.386,465.031h-.3v-3.9h.3Zm6.65-4.833-3.709-1.2.093-.286,3.709,1.2Zm-13.6,0-.093-.286,3.709-1.2.093.286Zm8.862-4.949-.242-.177,2.292-3.155.243.177Zm-4.121,0-2.292-3.155.242-.177,2.292,3.155Z" transform="translate(-537.38 -439.83)" fill="#f2dd30"/></g></g></g></svg>