<svg xmlns="http://www.w3.org/2000/svg" xmlns:xlink="http://www.w3.org/1999/xlink" width="36" height="36" viewBox="0 0 36 36"><defs><clipPath id="a"><circle cx="18" cy="18" r="18" transform="translate(2735 549)" fill="#fff" stroke="#707070" stroke-width="1"/></clipPath><clipPath id="b"><rect width="61.714" height="36" fill="none"/></clipPath></defs><g transform="translate(-2735 -549)" clip-path="url(#a)"><g transform="translate(2302.75 349.753)"><g transform="translate(429.25 199.247)" clip-path="url(#b)"><rect width="61.714" height="35.999" transform="translate(0 0.001)" fill="#f4c533"/><rect width="61.714" height="27" transform="translate(0 9)" fill="#fff"/><rect width="61.714" height="18" transform="translate(0 18)" fill="#bc0030"/><rect width="61.714" height="9" transform="translate(0 27)" fill="#4d72c0"/><path d="M429.25,199.247v36l30-18Z" transform="translate(-429.25 -199.247)" fill="#508e38"/><path d="M448.28,220.69a8.1,8.1,0,0,1-16.2.005v-.005a8.1,8.1,0,0,1,16.2,0Z" transform="translate(-429.98 -202.69)" fill="#fff"/><path d="M453.134,220.69a8.1,8.1,0,0,1-16.2.005v-.005a8.1,8.1,0,0,1,16.2,0Z" transform="translate(-431.233 -202.69)" fill="#508e38"/><path d="M443.5,230.338h1.09l.336-1.036.338,1.036h1.09l-.883.64.338,1.037-.882-.641-.881.641.336-1.037Z" transform="translate(-432.928 -207.004)" fill="#fff"/><path d="M443.5,214.71h1.09l.336-1.036.338,1.036h1.09l-.883.64.338,1.036-.882-.641-.881.641.336-1.036Z" transform="translate(-432.928 -202.971)" fill="#fff"/><path d="M443.5,219.919h1.09l.336-1.036.338,1.036h1.09l-.883.64.338,1.037-.882-.641-.881.641.336-1.037Z" transform="translate(-432.928 -204.315)" fill="#fff"/><path d="M443.5,225.129h1.09l.336-1.036.338,1.036h1.09l-.883.64.338,1.036-.882-.641-.881.641.336-1.036Z" transform="translate(-432.928 -205.66)" fill="#fff"/></g></g></g></svg>