<svg xmlns="http://www.w3.org/2000/svg" xmlns:xlink="http://www.w3.org/1999/xlink" width="36" height="36" viewBox="0 0 36 36"><defs><clipPath id="a"><circle cx="18" cy="18" r="18" transform="translate(2523 434)" fill="#fff" stroke="#707070" stroke-width="1"/></clipPath><clipPath id="b"><rect width="61.714" height="36" fill="none"/></clipPath></defs><g transform="translate(-2523 -434)" clip-path="url(#a)"><g transform="translate(1980.956 77.166)"><g transform="translate(529.044 356.834)" clip-path="url(#b)"><rect width="61.714" height="36"/><rect width="61.714" height="5.999" transform="translate(0 6.001)" fill="#f8e82a"/><rect width="61.714" height="6.001" transform="translate(0 11.999)" fill="#cc3220"/><rect width="61.714" height="5.999" transform="translate(0 24)" fill="#f8e82a"/><rect width="61.714" height="6.001" transform="translate(0 29.999)" fill="#cc3220"/><path d="M574.289,379.145a5.6,5.6,0,1,1-5.6-5.605,5.6,5.6,0,0,1,5.6,5.605" transform="translate(-537.828 -361.146)" fill="#fffcff"/><path d="M568.676,384.77a5.634,5.634,0,1,1,5.633-5.634,5.641,5.641,0,0,1-5.633,5.634m0-11.21a5.575,5.575,0,1,0,5.574,5.576,5.582,5.582,0,0,0-5.574-5.576" transform="translate(-537.818 -361.136)"/><path d="M569.176,374.984l-.364-.671a1.024,1.024,0,0,1,.753-.249c0,.025-.039.734-.039.734Z" transform="translate(-539.307 -361.281)" fill="#cc2920"/><path d="M569.154,375.015l-.378-.7a.973.973,0,0,1,.78-.292,6.414,6.414,0,0,1-.01.765Zm.372-.96a1.158,1.158,0,0,0-.7.269l.354.611.324-.172c-.013-.009.024-.682.025-.708" transform="translate(-539.298 -361.271)"/><path d="M569.774,374.805l.052-.74a1.541,1.541,0,0,1,1.161.447c.007-.006-.4.574-.4.574Z" transform="translate(-539.556 -361.281)" fill="#f8e82a"/><path d="M570.594,375.111l-.833-.288.033-.8h.077a1.529,1.529,0,0,1,1.135.459c.013.023.013.023-.4.61Zm-.723-1.028-.071.714.77.243c.066-.094.373-.53.387-.553a1.544,1.544,0,0,0-1.086-.4" transform="translate(-539.552 -361.27)"/><path d="M570.886,375.233l.37-.574a1.194,1.194,0,0,1,.39.728c.006.006-.587.146-.587.14s-.166-.288-.172-.294" transform="translate(-539.843 -361.434)" fill="#cc2920"/><path d="M571.051,375.552l-.028-.019c-.01-.022-.157-.269-.169-.287l.368-.608a1.077,1.077,0,0,1,.444.74,2.871,2.871,0,0,1-.616.174m-.146-.311a1.488,1.488,0,0,1,.162.248c.095-.018.527-.122.558-.134a1.334,1.334,0,0,0-.4-.68Z" transform="translate(-539.834 -361.429)"/><path d="M569.046,384.813a2.365,2.365,0,0,1,2.049-.626c-.2-.332-.862-.293-.862-.293s-.2-1.551-.045-1.629a2.954,2.954,0,0,1,.836.007.274.274,0,0,0,.122-.4c-.122-.153-.478-.74-.332-.855s.944.064.944.064L569.5,378.2a2.228,2.228,0,0,1,.231-1.608,1.049,1.049,0,0,0,.478-.95.831.831,0,0,0-1.359-.4.528.528,0,0,0-.1.651s-.8.217-.836.357.907-.024.907-.024l-.09.644s-1.826,1.66-.427,3.1a.286.286,0,0,0,.045-.064,2.447,2.447,0,0,0,1.008.74c.484.5.441.421.441.421a3.184,3.184,0,0,1,.005.939,7.418,7.418,0,0,0-1.545-.013c-.165.052-.8.02-.645,1.06.122-.28.231-.53.231-.53s-.019.377.133.511a1.181,1.181,0,0,1,.148-.665s.032.435.128.5.1-.7.624-.639a5.845,5.845,0,0,0,.913.045,13.21,13.21,0,0,1,.122,1.64c-.383-.089-1.3.039-1.353.269a2.856,2.856,0,0,1,.785.032s-.435.383-.3.607" transform="translate(-538.992 -361.528)"/><path d="M569.043,384.86l-.021-.036c-.128-.211.185-.531.28-.621-.056.007-.208-.012-.453-.012-.084,0-.18,0-.286.008.029-.319,1.006-.41,1.358-.326.005-.079-.085-.987-.156-1.588a3.534,3.534,0,0,1-.89-.039h-.005c-.346,0-.446.3-.505.483-.034.1-.053.16-.1.16-.108-.065-.149-.341-.163-.473a1.753,1.753,0,0,0-.094.6c-.211-.118-.193-.494-.192-.51l-.174.542c-.2-.948.294-1.039.532-1.083a.662.662,0,0,0,.077-.017,2.615,2.615,0,0,1,.558-.038,7.479,7.479,0,0,1,1,.051,4.83,4.83,0,0,0-.043-.892h0a3.273,3.273,0,0,1-.433-.418,2.364,2.364,0,0,1-1-.733l.039-.047a2.426,2.426,0,0,0,.992.731,4.945,4.945,0,0,0,.443.426,2.554,2.554,0,0,1,.022.977,12.425,12.425,0,0,0-1.56,0,.793.793,0,0,1-.085.019c-.237.043-.676.125-.541,1.008l.174-.538c.057.018.041.378.18.5a.947.947,0,0,1,.1-.658,2.237,2.237,0,0,0,.17.49,1.155,1.155,0,0,1,.036-.12c.065-.2.174-.528.51-.528a6.345,6.345,0,0,0,.973.049,9.035,9.035,0,0,1,.151,1.682c-.112,0-.217-.01-.338-.01-.437,0-.975.119-1.013.274a.521.521,0,0,1,.258-.046,2.287,2.287,0,0,1,.505.042c-.1.143-.342.413-.3.582a2.463,2.463,0,0,1,2.042-.6,1.234,1.234,0,0,0-.8-.235l-.092-.025c-.048-.369-.194-1.579-.028-1.658a3.6,3.6,0,0,1,.853,0c.022,0,.07-.042.1-.111a.23.23,0,0,0-.008-.237,1.806,1.806,0,0,1-.372-.809.128.128,0,0,1,.044-.089c.142-.108.944.053.97.059l-2.284-2.838a2.208,2.208,0,0,1,.231-1.646,1.078,1.078,0,0,0,.477-.916.827.827,0,0,0-1.315-.4.494.494,0,0,0-.1.611,2.717,2.717,0,0,0-.832.381s.022.02.152.02a5.811,5.811,0,0,0,.721-.081l-.055.678a3.118,3.118,0,0,0-.953,1.838,1.655,1.655,0,0,0,.518,1.232l0-.006c.007.045-.006.051-.011.054a1.65,1.65,0,0,1-.57-1.283,3.107,3.107,0,0,1,.964-1.863l.079-.62a2.162,2.162,0,0,1-.7.11c-.145,0-.182-.024-.2-.045.022-.194.677-.381.835-.425-.045-.021-.188-.3.1-.644a.883.883,0,0,1,1.412.417,1.091,1.091,0,0,1-.489.979c-.441.5-.223,1.568-.22,1.579l2.247,2.873a6.661,6.661,0,0,1-.767-.054c-.124,0-.167.02-.182.033a1.49,1.49,0,0,0,.336.812.28.28,0,0,1,.016.3c-.034.071-.1.143-.161.143,0,0-.319-.039-.568-.039a.7.7,0,0,0-.255.029,4.913,4.913,0,0,0,.062,1.6.94.94,0,0,1,.858.28,1.976,1.976,0,0,1-.4.022,2.283,2.283,0,0,0-1.65.64Z" transform="translate(-538.994 -361.524)"/><path d="M569.529,377.185s-1.327,1.465-.755,2.585c.03-.157.018-.254.036-.248-.032-.019.165.135.151.1a.944.944,0,0,0-.061-.254l.18.045-.1-.2.255.03s-.09-.24-.061-.24.21.016.21.016c-.378-.678-.021-1.241.149-1.843" transform="translate(-539.261 -362.086)" fill="#9ba49a"/><path d="M568.777,379.855l-.04-.078c-.575-1.125.746-2.6.76-2.619a.868.868,0,0,1-.07.395,1.609,1.609,0,0,0-.031,1.454c-.028.045-.206.028-.236.028.022,0,.056.113.089.2l-.287.01.134.151-.153.013,0-.008a1.135,1.135,0,0,1,.041.22c-.063.033-.2-.084-.2-.085a.358.358,0,0,1,.017.233Zm.707-2.663c-.1.181-1.154,1.456-.734,2.469,0-.034.006-.062.007-.085l.035-.089c.043.024.146.1.165.109a1.128,1.128,0,0,1-.095-.219l-.02-.053.235.059-.138-.152.285-.013c-.117-.189-.1-.214-.093-.226a1.242,1.242,0,0,1,.242,0,1.508,1.508,0,0,1,0-1.459c.039-.114.08-.228.114-.342" transform="translate(-539.251 -362.079)" fill="#9ba49a"/><path d="M570.326,375.494s.07.5-.2.651c-.045.032-.217.09-.191.191.032.14.108.115.216.09.288-.051.62-.664.18-.932" transform="translate(-539.595 -361.65)" fill="#9ba49a"/><path d="M570.024,376.477c-.07,0-.114-.042-.134-.133s.092-.163.162-.2c.3-.159.233-.64.232-.644a.38.38,0,0,1,.263.469.622.622,0,0,1-.408.488.531.531,0,0,1-.116.02m.287-.949c.044.062.079.5-.186.645-.119.063-.19.105-.177.157.018.08.047.087.076.087a.438.438,0,0,0,.09-.016.567.567,0,0,0,.375-.444.4.4,0,0,0-.178-.43" transform="translate(-539.585 -361.651)" fill="#9ba49a"/><path d="M569.726,376.04a.109.109,0,1,1-.108-.108.108.108,0,0,1,.108.108" transform="translate(-539.487 -361.763)" fill="#fff"/><path d="M569.143,376.646c-.07.058-.439.441-.076.581.377-.1.275-.172.357-.255,0-.172-.187-.217-.281-.326" transform="translate(-539.333 -361.947)" fill="#cc2920"/><path d="M569.055,377.252l-.01,0a.243.243,0,0,1-.174-.183c-.03-.182.183-.4.24-.45a1.212,1.212,0,0,1,.151.093c.085.059.181.126.179.257l-.042.078c-.029.074-.07.133-.337.206Zm.054-.594c-.025.059-.2.256-.178.4a.178.178,0,0,0,.127.133c.249-.069.268-.119.286-.168a.211.211,0,0,1,.047-.076c-.007-.079-.079-.128-.162-.186a.6.6,0,0,1-.12-.1" transform="translate(-539.322 -361.939)"/><path d="M570.292,381.525a.991.991,0,0,0,.013.625c.32-.134.466-.1.575-.024a2.665,2.665,0,0,1-.588-.6" transform="translate(-539.677 -363.206)" fill="#9ba49a"/><path d="M570.28,382.192l-.013-.025a.986.986,0,0,1-.019-.628l.01.009a2.029,2.029,0,0,0,.052.568.628.628,0,0,1,.515-.044,1.53,1.53,0,0,1-.566-.522,7.567,7.567,0,0,0,.63.558c-.1.006-.159-.011-.235-.011a.943.943,0,0,0-.347.086Z" transform="translate(-539.667 -363.21)" fill="#9ba49a"/><path d="M571.048,383.477l.02.715a.945.945,0,0,0,.364,0c.114-.045-.007-.5-.384-.715" transform="translate(-539.885 -363.71)" fill="#fff"/><path d="M571.276,384.243a1.406,1.406,0,0,1-.223-.021l-.044-.743a.76.76,0,0,1,.484.64c-.006.071-.04.095-.06.1a.464.464,0,0,1-.157.022m-.158-.067a1.093,1.093,0,0,0,.293-.012.725.725,0,0,0-.389-.66l.065.677a.058.058,0,0,1,.031-.005" transform="translate(-539.874 -363.711)" fill="#fff"/><path d="M572.57,382.491a2.542,2.542,0,0,0-1.634-1.391,1.249,1.249,0,0,1-.924-1.608c.05-.108.088-.275.427-.114s1.9.944,2.118.982.032,2.158.013,2.132" transform="translate(-539.6 -362.635)" fill="#9ba49a"/><path d="M572.561,382.513l-.029-.019a2.525,2.525,0,0,0-1.614-1.374,1.225,1.225,0,0,1-.977-.968,1.012,1.012,0,0,1,.041-.692c.052-.131.154-.264.459-.118l.39.189c.581.284,1.553.761,1.721.79.207.036.123,1.284.077,1.82-.032.372-.036.372-.068.372m-2.364-3.181c-.1,0-.126.066-.157.137a1.062,1.062,0,0,0-.032.706,1.169,1.169,0,0,0,.924.887,2.566,2.566,0,0,1,1.614,1.321,7.59,7.59,0,0,0,.013-1.986c-.18-.045-.964-.426-1.755-.812l-.389-.19a.543.543,0,0,0-.218-.063" transform="translate(-539.59 -362.626)"/><path d="M571.977,381.439c-.019.013,1.571.939,1.091,1.737a.771.771,0,0,0,.307-.824,1.155,1.155,0,0,1-.531,1.437c.1.082.16.063.16.063l-.152.154s-.071.115.536-.179c-.166.134-.18.23-.18.23s.045.128.441-.217a2.225,2.225,0,0,0-.39.518c.862-.077,2.738-2.879-.593-3.71l.154.16Z" transform="translate(-540.124 -362.98)" fill="#cc2920"/><path d="M573.2,384.4l.028-.05.025.015-.023-.019a1.992,1.992,0,0,1,.229-.332.347.347,0,0,1-.209.106h-.021l-.055-.043c0-.025.018-.126.188-.264a1.123,1.123,0,0,1-.495.255l-.047-.068.131-.131c-.033.017-.079,0-.132-.047a1.126,1.126,0,0,0,.586-1.14.705.705,0,0,1-.326.53c.141-.346.114-.88-1.057-1.687-.08-.055-.082-.056-.082-.075l.856-.656-.157-.115c1.8.39,1.991,1.365,1.95,1.906a2.126,2.126,0,0,1-1.332,1.813Zm.424-.574c-.121.208-.241.373-.315.5a2.129,2.129,0,0,0,1.22-1.749c.069-.9-.6-1.574-1.876-1.893.2.125.2.125.19.143l-.827.622a.158.158,0,0,1,.039.022c.97.67,1.318,1.251,1.031,1.726a.847.847,0,0,0,.253-.831h0a.013.013,0,0,1,.009,0,.092.092,0,0,1,.03.047,1.087,1.087,0,0,1-.527,1.4c.064,0,.106.008.127.008l-.005.01,0,0-.007.008-.1.187c.036-.029.147-.054.5-.226a.767.767,0,0,0-.137.261.871.871,0,0,0,.391-.244" transform="translate(-540.114 -362.987)"/><path d="M571.691,381.023c.216.154.293.2.319.281a1.421,1.421,0,0,0-.377-.032,5.548,5.548,0,0,0-.5-.441,2.365,2.365,0,0,1-.39-.21c-.165-.083-.319-.658.294-.492.632.3.722.325.722.325l.752.237.435.485a8.9,8.9,0,0,0-.868-.389,1.464,1.464,0,0,1,.332.408,5.449,5.449,0,0,0-.714-.172" transform="translate(-539.767 -362.839)" fill="#fff"/><path d="M572.045,381.336l-.052-.013a1.458,1.458,0,0,0-.306-.033l-.086-.006a4.9,4.9,0,0,0-.495-.435h0a2.139,2.139,0,0,1-.393-.212.406.406,0,0,1-.154-.4c.022-.088.146-.236.473-.149.618.294.717.325.721.326l.753.236.448.494c-.333-.1-.828-.335-.893-.34a.949.949,0,0,1,.361.365l.031.062-.114-.033a5.052,5.052,0,0,0-.642-.154l-.013-.063a4.917,4.917,0,0,1,.658.156,1.886,1.886,0,0,0-.3-.339,3.354,3.354,0,0,1,.9.34l-.253-.2-.217-.243-.731-.226c-.01,0-.107-.032-.734-.33-.21-.052-.361-.022-.391.108a.347.347,0,0,0,.124.331,2.267,2.267,0,0,0,.376.208,4.3,4.3,0,0,1,.525.448,1.136,1.136,0,0,1,.3.012,1.41,1.41,0,0,0-.237-.188l0-.012c.234.1.3.153.329.232Z" transform="translate(-539.756 -362.829)"/><path d="M568.021,376.67a5.652,5.652,0,0,1,.828-.154Z" transform="translate(-539.103 -361.913)"/><path d="M568.025,376.688l-.015-.058a4.708,4.708,0,0,1,.845-.154c-.073.042-.526.137-.83.211" transform="translate(-539.101 -361.903)" fill="#fff"/></g></g></g></svg>