<svg xmlns="http://www.w3.org/2000/svg" xmlns:xlink="http://www.w3.org/1999/xlink" width="36" height="36" viewBox="0 0 36 36"><defs><clipPath id="a"><circle cx="18" cy="18" r="18" transform="translate(2346 714)" fill="#fff" stroke="#707070" stroke-width="1"/></clipPath><clipPath id="b"><rect width="61.713" height="36" fill="none"/></clipPath></defs><g transform="translate(-2346 -714)" clip-path="url(#a)"><g transform="translate(2109.335 514.753)"><g transform="translate(229.665 199.247)" clip-path="url(#b)"><rect width="21.384" height="35.999" transform="translate(0 0.001)" fill="#bc0030"/><rect width="40.329" height="18" transform="translate(21.384)" fill="#f3d02f"/><rect width="40.329" height="18" transform="translate(21.384 18)" fill="#419e4b"/><path d="M243.5,216.3l-1.652,5.084,2.542.826Z" transform="translate(-232.81 -203.649)"/><path d="M243.766,216.3l1.652,5.084-2.542.826Z" transform="translate(-233.075 -203.649)"/><path d="M249.07,221.282h-5.346v2.674Z" transform="translate(-233.294 -204.934)"/><path d="M248.879,221.282l-4.325,3.142-1.571-2.163Z" transform="translate(-233.102 -204.934)"/><path d="M237.224,221.282l4.325,3.142,1.571-2.163Z" transform="translate(-231.616 -204.934)"/><path d="M237.224,221.282h5.345v2.674Z" transform="translate(-231.616 -204.934)"/><path d="M246.852,227.57l-1.652-5.085-2.542.826Z" transform="translate(-233.019 -205.245)"/><path d="M246.807,227.494l-4.325-3.142,1.571-2.163Z" transform="translate(-232.973 -205.168)"/><path d="M239.841,227.494l4.325-3.142-1.571-2.163Z" transform="translate(-232.291 -205.168)"/><path d="M239.841,227.57l1.652-5.085,2.542.826Z" transform="translate(-232.291 -205.245)"/></g></g></g></svg>