<svg xmlns="http://www.w3.org/2000/svg" xmlns:xlink="http://www.w3.org/1999/xlink" width="36" height="36" viewBox="0 0 36 36"><defs><clipPath id="a"><circle cx="18" cy="18" r="18" transform="translate(2776 778)" fill="#fff" stroke="#707070" stroke-width="1"/></clipPath><clipPath id="b"><rect width="61.716" height="36" fill="none"/></clipPath><clipPath id="c"><rect width="1.918" height="2.127" fill="none"/></clipPath><clipPath id="e"><rect width="2.145" height="1.369" fill="none"/></clipPath><clipPath id="g"><rect width="3.795" height="1.577" fill="none"/></clipPath><clipPath id="m"><rect width="3.797" height="1.579" fill="none"/></clipPath><clipPath id="o"><rect width="3.568" height="1.247" fill="none"/></clipPath><clipPath id="q"><rect width="2.07" height="1.115" fill="none"/></clipPath><clipPath id="s"><rect width="2.281" height="0.854" fill="none"/></clipPath><clipPath id="y"><rect width="7.564" height="1.521" fill="none"/></clipPath></defs><g transform="translate(-2776 -778)" clip-path="url(#a)"><g transform="translate(2433.542 421.166)"><g transform="translate(329.458 356.834)"><g clip-path="url(#b)"><rect width="61.716" height="36" fill="#fff"/><rect width="26.449" height="13.831" transform="translate(0 -0.001)" fill="#223e84"/><rect width="26.449" height="13.891" transform="translate(0 22.109)" fill="#bc0030"/><rect width="26.449" height="13.891" transform="translate(35.265 22.109)" fill="#223e84"/><rect width="26.449" height="13.831" transform="translate(35.265)" fill="#bc0030"/><path d="M376.7,377.34a.443.443,0,0,0-.188-.387c.039-.05.234.058.249.384Z" transform="translate(-341.602 -362.024)"/><path d="M376.572,377.37a.445.445,0,0,0-.186-.387c.039-.047.233.058.248.384Z" transform="translate(-341.569 -362.031)"/><path d="M376.435,377.378a.443.443,0,0,0-.188-.387c.037-.053.234.058.249.384Z" transform="translate(-341.534 -362.033)"/><path d="M376.308,377.426a.446.446,0,0,0-.188-.387c.036-.052.234.056.249.384Z" transform="translate(-341.501 -362.046)"/><path d="M376.17,377.484a.443.443,0,0,0-.188-.387c.037-.053.234.058.249.384Z" transform="translate(-341.465 -362.061)"/><path d="M376.043,377.551a.443.443,0,0,0-.188-.387c.039-.05.234.058.249.384Z" transform="translate(-341.432 -362.078)"/></g></g><g transform="translate(362.75 370.119)"><g clip-path="url(#c)"><path d="M376.62,376.94a4.309,4.309,0,0,0-.75-1.545,5.744,5.744,0,0,0-.932-.365l-.236.528s.723.353.877.678a4.985,4.985,0,0,1,.264.921s.318-.136.429-.176.348-.014.348-.041" transform="translate(-374.702 -375.03)" fill="#223e84"/></g></g><g transform="translate(329.458 356.834)"><g clip-path="url(#b)"><path d="M375.521,376.647l-.007-.038a3.653,3.653,0,0,0-.193-.676c-.109-.229-.631-.486-.636-.489l.16-.432a2.615,2.615,0,0,1,.743.263,3.326,3.326,0,0,1,.562,1.156c0,.05-.039.051-.113.053a.622.622,0,0,0-.164.017c-.082.03-.318.13-.318.13Zm-.789-1.22a1.369,1.369,0,0,1,.645.479,3.378,3.378,0,0,1,.191.653c.069-.029.223-.093.286-.116a.657.657,0,0,1,.183-.021,2.839,2.839,0,0,0-.485-1.1,3.2,3.2,0,0,0-.687-.272l-.137.375.005,0" transform="translate(-341.13 -361.526)"/></g></g><g transform="translate(362.274 369.929)"><g clip-path="url(#e)"><path d="M376.245,376.033a3.152,3.152,0,0,0-1.25-.218c-.266-.067-.834-.216-.891-.351s.487-.8.487-.8l.379.4c.246.257.838.027,1.046.478Z" transform="translate(-374.1 -374.664)" fill="#223e84"/></g></g><g transform="translate(329.458 356.834)"><g clip-path="url(#b)"><path d="M375.679,375.71a.035.035,0,0,1-.015,0,1.566,1.566,0,0,0-.64-.147h-.076a.706.706,0,0,1-.207-.013c-.445-.113-.651-.2-.686-.283-.044-.111.241-.479.367-.633l.339.292a.506.506,0,0,0,.3.1.527.527,0,0,1,.48.263l.17.367a.04.04,0,0,1-.007.043.038.038,0,0,1-.028.012m-.654-.227a1.562,1.562,0,0,1,.579.116l-.13-.28c-.08-.174-.245-.2-.419-.219a.571.571,0,0,1-.35-.125l-.281-.294a2.866,2.866,0,0,0-.3.553c.013.031.114.105.634.237a.477.477,0,0,0,.125.013Z" transform="translate(-340.967 -361.427)"/><path d="M375.035,375.694a1.569,1.569,0,0,1-.5-.185,1.863,1.863,0,0,0-.229-.1c-.133-.039-.182.026-.184.029-.048-.039.023-.139.2-.088a1.676,1.676,0,0,1,.24.1c.153.072.47.222.51.169l.05.036a.1.1,0,0,1-.085.035" transform="translate(-340.981 -361.609)"/></g></g><g transform="translate(360.388 369.556)"><g clip-path="url(#g)"><path d="M372.061,374.217a8.707,8.707,0,0,1,2.057.068c.961.166,1.521.515,1.529.732a1.08,1.08,0,0,1-.223.745c-.027-.014,0-.19-.236-.258a14.22,14.22,0,0,0-1.625-.433c-.293-.014-1.141.027-1.266.013s-.445-.081-.445-.23a2.882,2.882,0,0,1,.209-.637" transform="translate(-371.852 -374.184)" fill="#223e84"/></g></g><g transform="translate(329.458 356.834)"><g clip-path="url(#b)"><path d="M374.48,375.371l-.028-.047a.179.179,0,0,0-.144-.142l-.169-.052a7.879,7.879,0,0,0-1.029-.269l-.117,0c-.122,0-.282,0-.43.008-.126,0-.243.006-.318.006l-.076,0c-.015,0-.358-.041-.358-.2a2.176,2.176,0,0,1,.158-.486,3.994,3.994,0,0,1,.635-.042,5.025,5.025,0,0,1,.924.076c.717.124,1.153.388,1.16.571a.94.94,0,0,1-.162.568Zm-1.488-.573.12,0a7.88,7.88,0,0,1,1.044.272l.168.05a.235.235,0,0,1,.18.162.947.947,0,0,0,.122-.493c-.005-.135-.393-.389-1.109-.513a4.978,4.978,0,0,0-.913-.075c-.266,0-.478.016-.564.022a1.27,1.27,0,0,0-.168.444c0,.073.18.127.3.141.144,0,.26,0,.385,0,.148,0,.31-.008.432-.008" transform="translate(-340.389 -361.301)"/><path d="M372.389,374.912l-.033,0a.462.462,0,0,1-.165-.051.274.274,0,0,0-.154-.039c-.092.01-.106.065-.107.067-.059-.017-.038-.113.1-.128a.305.305,0,0,1,.187.044.414.414,0,0,0,.145.046l.088.016-.007-.062.047-.008.015.013-.035.08a.121.121,0,0,1-.08.023" transform="translate(-340.411 -361.459)"/><path d="M365.326,377.306l-.062,0a.506.506,0,0,1,.22-.438c.022.059-.145.152-.159.441" transform="translate(-338.699 -362.004)"/><path d="M365.453,377.335l-.062,0a.506.506,0,0,1,.22-.438c.022.059-.144.151-.159.441" transform="translate(-338.732 -362.011)"/><path d="M365.592,377.345l-.062,0a.5.5,0,0,1,.221-.438c.022.059-.146.151-.16.441" transform="translate(-338.768 -362.014)"/><path d="M365.719,377.393l-.062,0a.5.5,0,0,1,.221-.438c.022.059-.146.151-.16.441" transform="translate(-338.8 -362.026)"/><path d="M365.857,377.449l-.062,0a.506.506,0,0,1,.22-.438c.022.059-.145.152-.159.441" transform="translate(-338.836 -362.041)"/><path d="M365.984,377.517l-.062,0a.5.5,0,0,1,.221-.438c.022.059-.146.151-.16.441" transform="translate(-338.869 -362.058)"/></g></g><g transform="translate(355.974 370.104)"><g clip-path="url(#c)"><path d="M365.493,376.921a4.294,4.294,0,0,1,.75-1.544,5.759,5.759,0,0,1,.932-.366l.236.528s-.723.353-.877.678a5,5,0,0,0-.264.921s-.32-.135-.429-.176-.348-.014-.348-.041" transform="translate(-365.494 -375.01)" fill="#223e84"/></g></g><g transform="translate(329.458 356.834)"><g clip-path="url(#b)"><path d="M366.083,376.622l-.035-.015s-.237-.1-.318-.13a.583.583,0,0,0-.163-.018c-.073,0-.114,0-.114-.042a3.389,3.389,0,0,1,.554-1.156,3.485,3.485,0,0,1,.714-.292l.213.41c-.019.043-.542.3-.651.528a3.687,3.687,0,0,0-.193.676Zm-.417-.216a.234.234,0,0,1,.085.013c.062.023.216.088.286.116a3.367,3.367,0,0,1,.191-.654c.118-.249.643-.507.665-.517l-.19-.352a6.075,6.075,0,0,0-.64.28,3.3,3.3,0,0,0-.551,1.136.656.656,0,0,1,.154-.022" transform="translate(-338.747 -361.515)"/></g></g><g transform="translate(356.222 369.914)"><g clip-path="url(#e)"><path d="M365.868,376.013a3.124,3.124,0,0,1,1.25-.217c.266-.068.834-.217.891-.352s-.487-.8-.487-.8l-.379.4c-.246.258-.838.027-1.046.478Z" transform="translate(-365.868 -374.644)" fill="#223e84"/></g></g><g transform="translate(329.458 356.834)"><g clip-path="url(#b)"><path d="M365.855,375.689a.037.037,0,0,1-.027-.012.039.039,0,0,1-.007-.043l.169-.367a.524.524,0,0,1,.479-.263.506.506,0,0,0,.3-.1l.281-.294c.183.156.469.525.424.634-.036.085-.234.168-.687.285a.589.589,0,0,1-.142.014h-.14a1.565,1.565,0,0,0-.64.146.034.034,0,0,1-.015,0m1.2-1.03-.223.3a.565.565,0,0,1-.35.125c-.174.023-.338.044-.419.218l-.129.28a1.56,1.56,0,0,1,.579-.116h.078a.557.557,0,0,0,.185-.012c.495-.128.618-.2.634-.239a1.818,1.818,0,0,0-.355-.553" transform="translate(-338.841 -361.421)"/><path d="M366.725,375.675a.1.1,0,0,1-.084-.035l.05-.036c.039.055.356-.1.507-.168a1.55,1.55,0,0,1,.245-.1.21.21,0,0,1,.248.052c-.039.027-.077,0-.148-.005a.291.291,0,0,0-.084.013,1.735,1.735,0,0,0-.234.1,1.558,1.558,0,0,1-.5.184" transform="translate(-339.054 -361.604)"/></g></g><g transform="translate(356.457 369.541)"><g clip-path="url(#m)"><path d="M370.052,374.2a8.682,8.682,0,0,0-2.057.067c-.961.167-1.521.515-1.529.732a1.069,1.069,0,0,0,.223.745c.027-.014,0-.19.236-.257a14.018,14.018,0,0,1,1.625-.433c.293-.014,1.141.027,1.266.013s.445-.082.445-.23a2.847,2.847,0,0,0-.209-.637" transform="translate(-366.464 -374.164)" fill="#223e84"/></g></g><g transform="translate(329.458 356.834)"><g clip-path="url(#b)"><path d="M366.618,375.356l-.034-.017a.946.946,0,0,1-.16-.568c.007-.183.442-.447,1.16-.572a4.973,4.973,0,0,1,.919-.075c.269,0,.484.016.573.022a1.009,1.009,0,0,1,.225.506c0,.161-.343.2-.358.2l-.076,0c-.075,0-.191,0-.318-.005-.148,0-.309-.008-.43-.008l-.117,0a8.044,8.044,0,0,0-1.046.274l-.153.046a.175.175,0,0,0-.142.142Zm1.885-1.17a4.915,4.915,0,0,0-.908.074c-.717.125-1.1.378-1.11.513a.945.945,0,0,0,.122.493.239.239,0,0,1,.18-.162l.151-.045a7.765,7.765,0,0,1,1.061-.277h.12c.122,0,.283,0,.432.008.125,0,.242.005.316.005.2-.015.372-.071.372-.142a2.126,2.126,0,0,0-.151-.458c-.1.007-.318-.008-.585-.008" transform="translate(-338.998 -361.296)"/><path d="M369.511,374.892a.1.1,0,0,1-.114-.1l.056-.037.006.03c0,.035.008.054.08.045a.408.408,0,0,0,.146-.046.3.3,0,0,1,.187-.044.165.165,0,0,1,.16.114c-.057.016-.074-.043-.167-.053a.3.3,0,0,0-.154.039.461.461,0,0,1-.167.051l-.033,0" transform="translate(-339.766 -361.454)"/></g></g><g transform="translate(358.541 369.129)"><g clip-path="url(#o)"><path d="M371.024,373.561c-1.322.017-1.678.207-1.736.434a2.31,2.31,0,0,0,.152.812s.223-.42,1.6-.406,1.644.379,1.644.379a3.977,3.977,0,0,0,.162-.8c-.013-.2-.572-.424-1.822-.42" transform="translate(-369.278 -373.56)" fill="#223e84"/></g></g><g transform="translate(329.458 356.834)"><g clip-path="url(#b)"><path d="M369.382,374.55l-.022-.065a1.7,1.7,0,0,1-.114-.622c.04-.152.226-.33,1.318-.344.836,0,1.37.134,1.384.341a2.938,2.938,0,0,1-.122.6h0a2.29,2.29,0,0,0-1.248-.259h0c-.987,0-1.157.282-1.158.285Zm1.145-.407c.953.01,1.227.226,1.282.281-.016-.073.085-.432.076-.559s-.36-.283-1.3-.283c-.822.01-1.234.108-1.283.3a1.428,1.428,0,0,0,.094.533c.091-.089.368-.27,1.127-.27" transform="translate(-339.724 -361.14)"/><path d="M372.858,374.731l.038-.407.04,0-.034.358.149.014,0,.047Z" transform="translate(-340.659 -361.348)" fill="#f5cd28"/><rect width="0.409" height="0.041" transform="translate(32.441 13.405) rotate(-84.693)" fill="#f5cd28"/><path d="M373.7,374.8l.065-.4.216.034-.007.047-.177-.027-.02.123.165.026-.007.047-.165-.026-.024.137.185.028-.009.048Z" transform="translate(-340.875 -361.366)" fill="#f5cd28"/><path d="M374.544,374.994l.125-.339-.094-.033.016-.045.226.078-.016.045-.094-.032-.125.339Z" transform="translate(-341.094 -361.413)" fill="#f5cd28"/><path d="M373.376,374.729l.073.007a.116.116,0,0,0,.027,0,.056.056,0,0,0,.024-.009.079.079,0,0,0,.018-.022.109.109,0,0,0,.009-.034.083.083,0,0,0,0-.039.057.057,0,0,0-.022-.027.152.152,0,0,0-.043-.01l-.07-.006Zm.017-.187.065.005a.115.115,0,0,0,.038,0,.04.04,0,0,0,.025-.018.059.059,0,0,0,.011-.035.082.082,0,0,0,0-.036.035.035,0,0,0-.018-.023.146.146,0,0,0-.046-.01l-.059-.005Zm-.062.231.038-.407.113.01a.117.117,0,0,1,.055.017.078.078,0,0,1,.029.041.139.139,0,0,1,.007.055.119.119,0,0,1-.016.048.1.1,0,0,1-.035.034.088.088,0,0,1,.039.041.155.155,0,0,1,.008.063.162.162,0,0,1-.014.052.092.092,0,0,1-.026.036.082.082,0,0,1-.035.018.131.131,0,0,1-.05,0Z" transform="translate(-340.781 -361.359)" fill="#f5cd28"/><path d="M374.176,374.654l.082.023a.1.1,0,0,0,.044,0,.051.051,0,0,0,.029-.017.11.11,0,0,0,.019-.033.083.083,0,0,0,0-.05.063.063,0,0,0-.044-.031l-.091-.025Zm-.1.208.114-.392.129.036a.125.125,0,0,1,.056.027.071.071,0,0,1,.022.045.168.168,0,0,1-.006.063.123.123,0,0,1-.041.065.092.092,0,0,1-.073.019.083.083,0,0,1,.018.027.271.271,0,0,1,.017.061l.019.121-.048-.013-.014-.093a.51.51,0,0,0-.013-.062.118.118,0,0,0-.011-.032.047.047,0,0,0-.015-.015l-.02-.008-.045-.013-.05.175Z" transform="translate(-340.972 -361.386)" fill="#f5cd28"/><path d="M375.159,375.2l.061.021a.122.122,0,0,0,.047.009.076.076,0,0,0,.033-.012.126.126,0,0,0,.037-.041.26.26,0,0,0,.035-.072.225.225,0,0,0,.019-.1.087.087,0,0,0-.019-.056.116.116,0,0,0-.046-.024l-.059-.02Zm-.055.033.14-.385.1.034a.2.2,0,0,1,.05.024.1.1,0,0,1,.03.042.156.156,0,0,1,.01.078.353.353,0,0,1-.022.095.442.442,0,0,1-.036.075.2.2,0,0,1-.04.05.194.194,0,0,1-.038.026.11.11,0,0,1-.042.007.151.151,0,0,1-.047-.01Z" transform="translate(-341.238 -361.484)" fill="#f5cd28"/><path d="M374.844,374.954l.1.033.009-.117q0-.053.009-.087a.643.643,0,0,1-.042.068Zm-.14.13.251-.347.041.015-.025.425-.042-.016.008-.128-.119-.042-.073.106Z" transform="translate(-341.135 -361.454)" fill="#f5cd28"/><path d="M370.843,374.151v-.36h-.111v-.049H371v.049h-.111v.36Z" transform="translate(-340.11 -361.198)" fill="#f5cd28"/><path d="M371.64,374.149l.017-.408.045,0-.017.408Z" transform="translate(-340.344 -361.197)" fill="#f5cd28"/><path d="M369.936,374l.085-.015a.086.086,0,0,0,.058-.03.082.082,0,0,0,.007-.058.094.094,0,0,0-.019-.041.051.051,0,0,0-.032-.019.138.138,0,0,0-.042,0l-.085.016Zm0,.219-.076-.4.125-.022a.221.221,0,0,1,.053-.005.081.081,0,0,1,.043.011.094.094,0,0,1,.035.033.161.161,0,0,1,.021.053.157.157,0,0,1-.01.092.123.123,0,0,1-.091.053l-.085.016.032.162Z" transform="translate(-339.884 -361.211)" fill="#f5cd28"/><path d="M370.384,373.974l.115-.008-.044-.111c-.013-.033-.023-.062-.03-.082a.767.767,0,0,1-.013.079Zm-.084.174.1-.417.047,0,.17.4-.051,0-.049-.12-.14.01-.028.126Z" transform="translate(-339.999 -361.194)" fill="#f5cd28"/><path d="M371.2,373.922h.095a.137.137,0,0,0,.048-.007.052.052,0,0,0,.026-.025.077.077,0,0,0,.009-.036.067.067,0,0,0-.018-.048.072.072,0,0,0-.055-.019H371.2Zm-.045.229v-.409h.149a.148.148,0,0,1,.068.012.077.077,0,0,1,.038.039.13.13,0,0,1,.014.062.1.1,0,0,1-.1.111.105.105,0,0,1,.027.02.246.246,0,0,1,.038.055l.058.111H371.4l-.043-.085c-.013-.024-.025-.043-.033-.056a.109.109,0,0,0-.022-.028l-.02-.01a.122.122,0,0,0-.026,0h-.05v.181Z" transform="translate(-340.219 -361.198)" fill="#f5cd28"/><path d="M371.945,374.027l.113.019-.014-.117c0-.036-.007-.065-.009-.088a.639.639,0,0,1-.032.073Zm-.126.148.2-.38.047.008.064.425-.05-.008-.016-.128-.139-.024-.06.116Z" transform="translate(-340.391 -361.212)" fill="#f5cd28"/><path d="M367.734,374.916l-.061-.4.045-.007.061.4Z" transform="translate(-339.321 -361.395)" fill="#f5cd28"/><path d="M368.391,374.655l.044-.008a.107.107,0,0,0,.017.05.088.088,0,0,0,.038.028.116.116,0,0,0,.053.007.107.107,0,0,0,.045-.013.057.057,0,0,0,.026-.027.066.066,0,0,0,.007-.036.072.072,0,0,0-.012-.033.075.075,0,0,0-.033-.022c-.01,0-.03-.008-.062-.014a.255.255,0,0,1-.068-.02.114.114,0,0,1-.04-.034.122.122,0,0,1-.007-.109.1.1,0,0,1,.039-.045.133.133,0,0,1,.062-.019.142.142,0,0,1,.068.008.1.1,0,0,1,.05.039.174.174,0,0,1,.023.062l-.044.008a.084.084,0,0,0-.029-.056.1.1,0,0,0-.119.008.06.06,0,0,0-.016.045.051.051,0,0,0,.017.035.17.17,0,0,0,.071.023.372.372,0,0,1,.076.019.1.1,0,0,1,.048.039.122.122,0,0,1,.02.056.129.129,0,0,1-.01.062.107.107,0,0,1-.04.049.148.148,0,0,1-.065.021.175.175,0,0,1-.079-.01.113.113,0,0,1-.053-.044.174.174,0,0,1-.026-.072" transform="translate(-339.505 -361.357)" fill="#f5cd28"/><path d="M367.863,374.649a.246.246,0,0,1,.022-.164.143.143,0,0,1,.108-.073.141.141,0,0,1,.088.015.164.164,0,0,1,.068.067.3.3,0,0,1,.032.218.165.165,0,0,1-.047.082.157.157,0,0,1-.08.037.135.135,0,0,1-.088-.016.172.172,0,0,1-.07-.067.247.247,0,0,1-.033-.1m.046-.006a.189.189,0,0,0,.049.111.1.1,0,0,0,.09.03.1.1,0,0,0,.077-.053.207.207,0,0,0,.015-.125.229.229,0,0,0-.028-.084.113.113,0,0,0-.049-.051.1.1,0,0,0-.062-.012.1.1,0,0,0-.076.05.2.2,0,0,0-.015.135" transform="translate(-339.369 -361.37)" fill="#f5cd28"/><path d="M367.3,374.986l.07-.021a.151.151,0,0,0,.049-.024.065.065,0,0,0,.022-.029.119.119,0,0,0,.008-.056.309.309,0,0,0-.016-.077.207.207,0,0,0-.048-.088.084.084,0,0,0-.055-.032.15.15,0,0,0-.058.009l-.068.022Zm-.027.059-.128-.39.113-.035a.3.3,0,0,1,.06-.013.116.116,0,0,1,.058.013.186.186,0,0,1,.059.055.315.315,0,0,1,.043.088.486.486,0,0,1,.018.081.212.212,0,0,1,0,.064.136.136,0,0,1-.019.045.119.119,0,0,1-.032.032.2.2,0,0,1-.051.022Z" transform="translate(-339.185 -361.421)" fill="#f5cd28"/><path d="M367.231,376.133l.519.506v4.042a.749.749,0,0,0,.691.674h.864a.961.961,0,0,1,.778.421.936.936,0,0,1,.777-.421l.937.013a.739.739,0,0,0,.617-.686v-4.042l.519-.506Z" transform="translate(-339.207 -361.815)" fill="#fff"/><path d="M370.075,381.823l-.026-.043a.94.94,0,0,0-.752-.406h-.864a.784.784,0,0,1-.722-.7v-4.042l-.51-.484,5.724-.053-.5.559.01,4.02a.745.745,0,0,1-.213.49.63.63,0,0,1-.431.228l-.942-.013a.921.921,0,0,0-.749.406ZM372.9,376.1l-5.681.053.54.453.01,4.063a.716.716,0,0,0,.66.642h.864a.978.978,0,0,1,.778.4.953.953,0,0,1,.763-.4l.951.013a.571.571,0,0,0,.39-.207.688.688,0,0,0,.2-.448v-4.042Z" transform="translate(-339.199 -361.804)"/><path d="M371.657,376.133v2.359h1.9v-1.853l.519-.506Z" transform="translate(-340.349 -361.815)" fill="#bc0030"/><path d="M373.57,378.5H371.65l-.019-2.378,2.438-.02-.505.539Zm.486-2.392-2.405.033.019,2.339,1.861-.019v-1.834Z" transform="translate(-340.342 -361.808)"/><path d="M367.231,376.133h2.419v2.359h-1.9v-1.853Z" transform="translate(-339.207 -361.815)" fill="#223e84"/><path d="M369.664,378.5h-1.919l-.019-1.872-.513-.492,2.432-.033Zm-.039-2.378-2.4.019.532.473.006,1.867,1.861-.019Z" transform="translate(-339.202 -361.808)"/><path d="M367.931,380.446h1.9v2.106l-.173-.084h-1.036a.734.734,0,0,1-.691-.674Z" transform="translate(-339.387 -362.928)" fill="#bc0030"/><path d="M369.843,382.576l-.2-.1-1.028,0a.75.75,0,0,1-.711-.694v-1.347l1.919-.019Zm-.039-2.137-1.881.019.019,1.328a.718.718,0,0,0,.672.654h1.036l.154.073Z" transform="translate(-339.38 -362.921)"/><path d="M373.557,380.446h-1.9v2.106l.173-.084h1.036a.734.734,0,0,0,.691-.674Z" transform="translate(-340.349 -362.928)" fill="#223e84"/><path d="M371.631,382.576v-2.137l1.919-.019.019,1.367a.75.75,0,0,1-.711.694h-1.036Zm1.9-2.137-1.881.019.019,2.056.145-.071,1.044,0a.718.718,0,0,0,.672-.654Z" transform="translate(-340.342 -362.921)"/><path d="M370.075,381.823l-.026-.043a.94.94,0,0,0-.752-.406h-.864a.784.784,0,0,1-.722-.7v-4.042l-.51-.484,5.724-.053-.5.559.01,4.02a.745.745,0,0,1-.213.49.63.63,0,0,1-.431.228l-.942-.013a.921.921,0,0,0-.749.406ZM372.9,376.1l-5.681.053.54.453.01,4.063a.716.716,0,0,0,.66.642h.864a.978.978,0,0,1,.778.4.953.953,0,0,1,.763-.4l.951.013a.571.571,0,0,0,.39-.207.688.688,0,0,0,.2-.448v-4.042Z" transform="translate(-339.199 -361.804)"/><path d="M370.9,377.832v.674h.172v-.674h.173v-.168h-.173v-.168H370.9v.168h-.172v.168Z" transform="translate(-340.109 -362.166)" fill="#f5cd28"/><path d="M371.091,378.526h-.2l-.031-.7-.141.031-.031-.2.2-.031-.031-.137.2-.031.031.2.142-.031.03.2-.2.031Zm-.2-.736.031.7.111-.024v-.65l.2-.031-.031-.137-.142.031-.03-.2-.142.031.031.137-.2.031.03.137Z" transform="translate(-340.098 -362.155)"/><rect width="0.116" height="2.279" transform="translate(29.559 14.721) rotate(-37.127)" fill="#272015"/><path d="M369.236,376.57l-.145-.308.277.23Z" transform="translate(-339.687 -361.848)" fill="#f5cd28"/><path d="M370.27,378.452c-.012.02-.175.694-.175.694a3.292,3.292,0,0,0,.536.05,4.146,4.146,0,0,0-.1-.493,1.889,1.889,0,0,1-.258-.252" transform="translate(-339.946 -362.413)" fill="#bc0030"/><path d="M369.686,377.829l-.093.915s.619.543.608.473-.05-.925-.05-.925Z" transform="translate(-339.816 -362.253)" fill="#fff"/><path d="M369.011,377.084l-.03,1.005a4.754,4.754,0,0,0,.546.4c0-.04.053-.814.053-.814Z" transform="translate(-339.658 -362.06)" fill="#223e84"/><path d="M369,377.926l-.031-.858.062,0Z" transform="translate(-339.655 -362.056)"/><path d="M370.493,378.616,368.875,377l.082-.081,1.617,1.616Z" transform="translate(-339.631 -362.018)" fill="#272015"/><path d="M368.8,376.932l-.187-.285.307.19Z" transform="translate(-339.562 -361.947)" fill="#f5cd28"/><path d="M368.628,377.495v2.526a.891.891,0,0,0,.865.842,5.594,5.594,0,0,0,.864-.168v-1.853Z" transform="translate(-339.567 -362.166)" fill="#fff"/><path d="M369.446,380.9a.929.929,0,0,1-.86-.874v-2.526l1.778,1.323.012,1.877a3.433,3.433,0,0,1-.893.2Zm-.847-3.376.049,2.5a.863.863,0,0,0,.8.812v.031l.033-.032a5.7,5.7,0,0,0,.858-.168l-.022-1.823Z" transform="translate(-339.556 -362.166)"/><path d="M368.628,380.219v.505a.89.89,0,0,0,.865.841,5.634,5.634,0,0,0,.864-.168c-.346-.169-1.21.337-1.21-1.01a.647.647,0,0,1-.519-.168" transform="translate(-339.567 -362.869)" fill="#bc0030"/><path d="M369.166,377.89l-.02,1.458a1.978,1.978,0,0,1-.519-.168v-1.684Z" transform="translate(-339.567 -362.166)" fill="#223e84"/><path d="M370,378.588v1.126a.68.68,0,0,1,.329.06c.208.08.393.16.393.16v-.814Z" transform="translate(-339.92 -362.448)" fill="#bc0030"/><path d="M370.654,380.834a3.184,3.184,0,0,0-.474-.2.983.983,0,0,0-.217.01,1.633,1.633,0,0,0-.01.272c.01.1.165.151.217.151s.484-.051.484-.051Z" transform="translate(-339.908 -362.975)" fill="#223e84"/><path d="M369.446,380.9a.929.929,0,0,1-.86-.874v-2.526l1.778,1.323.012,1.877a3.433,3.433,0,0,1-.893.2Zm-.847-3.376.049,2.5a.863.863,0,0,0,.8.812v.031l.033-.032a5.7,5.7,0,0,0,.858-.168l-.022-1.823Z" transform="translate(-339.556 -362.166)"/><path d="M370.311,378.838l-1.794-1.427.072-.09,1.794,1.427Z" transform="translate(-339.539 -362.121)" fill="#272015"/><path d="M368.426,377.357l-.22-.263.328.154Z" transform="translate(-339.458 -362.063)" fill="#f5cd28"/><rect width="2.279" height="0.116" transform="translate(30.75 16.437) rotate(-52.842)" fill="#272015"/><path d="M372.853,376.529l.145-.308-.277.23Z" transform="translate(-340.624 -361.838)" fill="#f5cd28"/><path d="M371.729,378.412c.01.02.175.694.175.694a3.383,3.383,0,0,1-.536.05,4.121,4.121,0,0,1,.1-.493,2.025,2.025,0,0,0,.258-.252" transform="translate(-340.274 -362.403)" fill="#bc0030"/><path d="M372.287,377.789l.093.914s-.619.544-.608.473.052-.924.052-.924Z" transform="translate(-340.378 -362.242)" fill="#fff"/><path d="M372.964,377.044l.03,1a4.672,4.672,0,0,1-.546.4c0-.039-.051-.814-.051-.814Z" transform="translate(-340.54 -362.05)" fill="#223e84"/><path d="M373.225,377.882l-.092-.851.062,0Z" transform="translate(-340.73 -362.046)"/><path d="M371.1,378.575l-.082-.081,1.618-1.617.082.081Z" transform="translate(-340.184 -362.007)" fill="#272015"/><path d="M373.282,376.892l.188-.286-.307.191Z" transform="translate(-340.738 -361.937)" fill="#f5cd28"/><path d="M372.955,377.455v2.526a.891.891,0,0,1-.864.842,5.657,5.657,0,0,1-.864-.169V378.8Z" transform="translate(-340.238 -362.156)" fill="#fff"/><path d="M372.116,380.846h-.038a5.694,5.694,0,0,1-.87-.169l-.022-1.882,1.739-1.372.05,2.551a.928.928,0,0,1-.859.873m-.861-.2c.066,0,.516.118.827.142l.033.032v-.031a.862.862,0,0,0,.8-.812v-2.527l-1.677,1.372.012,1.826h.007" transform="translate(-340.227 -362.147)"/><path d="M372.955,380.178v.506a.891.891,0,0,1-.864.841,5.691,5.691,0,0,1-.864-.168c.345-.168,1.209.337,1.209-1.01a.643.643,0,0,0,.519-.169" transform="translate(-340.238 -362.859)" fill="#bc0030"/><path d="M372.829,377.85l.02,1.458a1.917,1.917,0,0,0,.519-.169v-1.683Z" transform="translate(-340.651 -362.156)" fill="#223e84"/><path d="M371.937,378.548v1.126a.687.687,0,0,0-.331.06c-.206.08-.393.16-.393.16v-.814Z" transform="translate(-340.235 -362.438)" fill="#bc0030"/><path d="M371.284,380.793a3.268,3.268,0,0,1,.474-.2,1,1,0,0,1,.217.01,1.626,1.626,0,0,1,.01.271c-.01.1-.165.151-.216.151s-.485-.05-.485-.05Z" transform="translate(-340.253 -362.965)" fill="#223e84"/><path d="M372.116,380.846h-.038a5.694,5.694,0,0,1-.87-.169l-.022-1.882,1.739-1.372.05,2.551a.928.928,0,0,1-.859.873m-.861-.2c.066,0,.516.118.827.142l.033.032v-.031a.862.862,0,0,0,.8-.812v-2.527l-1.677,1.372.012,1.826h.007" transform="translate(-340.227 -362.147)"/><rect width="2.294" height="0.116" transform="translate(30.933 16.597) rotate(-38.493)" fill="#272015"/><path d="M373.645,377.316l.219-.263-.326.154Z" transform="translate(-340.834 -362.052)" fill="#f5cd28"/><path d="M371.392,381.279c.038.045.184.232.223.188s-.093-.39-.139-.571a2.517,2.517,0,0,1-.161-.66c-.008-.277-.178.03-.178.03Z" transform="translate(-340.215 -362.844)" fill="#bc0030"/><path d="M371.59,381.493c-.052,0-.122-.073-.218-.19l-.275-1.042c.03-.071.1-.185.163-.185s.075.11.076.146a1.562,1.562,0,0,0,.107.485c.02.059.039.115.053.168s.036.125.059.2c.08.254.109.361.074.4Zm-.332-1.355a.379.379,0,0,0-.1.132l.258.991a.687.687,0,0,0,.171.169,1.818,1.818,0,0,0-.087-.338c-.023-.073-.045-.144-.059-.2s-.033-.108-.053-.165a1.606,1.606,0,0,1-.11-.5c0-.074-.016-.086-.016-.087" transform="translate(-340.204 -362.833)"/><path d="M371.244,381.831l.33.016s-.107-.435-.137-.691a8.462,8.462,0,0,0-.309-1.022Z" transform="translate(-340.212 -362.847)" fill="#bc0030"/><path d="M371.6,381.879l-.372-.017-.145-1.726a3.276,3.276,0,0,1,.369,1.016c.03.254.137.686.137.687Zm-.515-1.735.176,1.685.26-.012c-.026-.111-.1-.447-.129-.658a8.5,8.5,0,0,0-.307-1.015" transform="translate(-340.202 -362.848)"/><path d="M370.8,379.931a3.19,3.19,0,0,0-.47,1.111,1.191,1.191,0,0,0,.293.721c.076.12.26.5.26.5a3,3,0,0,0,.248-.585c.022-.165-.085-.863-.055-1.134a7.417,7.417,0,0,1,.239-.908Z" transform="translate(-340.006 -362.719)" fill="#fff"/><path d="M370.871,382.325l-.027-.056s-.183-.379-.259-.5l-.046-.065a1.1,1.1,0,0,1-.252-.672,2.892,2.892,0,0,1,.462-1.108l.539-.322c.042.042-.162.674-.193.938a4.256,4.256,0,0,0,.03.669,3.136,3.136,0,0,1,.024.466,2.95,2.95,0,0,1-.251.6Zm.4-2.705-.471.329a2.715,2.715,0,0,0-.454,1.084,1.038,1.038,0,0,0,.24.636l.048.069c.059.093.182.34.236.45a2.473,2.473,0,0,0,.216-.521,3.166,3.166,0,0,0-.025-.452,4.388,4.388,0,0,1-.03-.682,7.312,7.312,0,0,1,.24-.913" transform="translate(-339.996 -362.71)"/><path d="M370.8,379.963a3.19,3.19,0,0,0-.47,1.111,1.192,1.192,0,0,0,.293.721,5.984,5.984,0,0,1-.024-.766,1.933,1.933,0,0,1,.554-1.269Z" transform="translate(-340.006 -362.751)" fill="#223e84"/><path d="M371.147,379.721a5.905,5.905,0,0,0-.185.916c0,.188.076.625.1.986a4.053,4.053,0,0,1-.012.643,3.025,3.025,0,0,0,.248-.585c.024-.165-.085-.863-.055-1.134a7.393,7.393,0,0,1,.239-.907Z" transform="translate(-340.17 -362.72)" fill="#bc0030"/><path d="M370.871,382.325l-.027-.056s-.183-.379-.259-.5l-.046-.065a1.1,1.1,0,0,1-.252-.672,2.892,2.892,0,0,1,.462-1.108l.539-.322c.042.042-.162.674-.193.938a4.256,4.256,0,0,0,.03.669,3.136,3.136,0,0,1,.024.466,2.95,2.95,0,0,1-.251.6Zm.4-2.705-.471.329a2.715,2.715,0,0,0-.454,1.084,1.038,1.038,0,0,0,.24.636l.048.069c.059.093.182.34.236.45a2.473,2.473,0,0,0,.216-.521,3.166,3.166,0,0,0-.025-.452,4.388,4.388,0,0,1-.03-.682,7.312,7.312,0,0,1,.24-.913" transform="translate(-339.996 -362.71)"/><path d="M370.848,379.8c-.108.09-.03.3-.03.3a.283.283,0,0,1,.223-.082c.146.008.239.226.239.226a.308.308,0,0,0,.108-.211c.016-.142-.293-.3-.539-.232" transform="translate(-340.125 -362.758)" fill="#bc0030"/><path d="M371.257,380.283l-.015-.036s-.088-.2-.213-.206h0a.266.266,0,0,0-.2.072.248.248,0,0,1-.013-.344.512.512,0,0,1,.539.131.168.168,0,0,1,.05.129.336.336,0,0,1-.12.231Zm-.243-.3a.359.359,0,0,1,.264.2.282.282,0,0,0,.068-.161.114.114,0,0,0-.035-.082.536.536,0,0,0-.465-.118c-.059.051-.035.172-.019.228a.23.23,0,0,1,.187-.072" transform="translate(-340.116 -362.746)"/><path d="M370.427,379.021l.3.773s.134-.058.219-.086a.407.407,0,0,1,.19-.012s.139-.075.207-.1a.969.969,0,0,1,.216-.026l.022-.03a7.911,7.911,0,0,0-1.142-.568Z" transform="translate(-340.031 -362.547)"/><path d="M370.7,379.826l-.312-.8.03-.091h0a7.169,7.169,0,0,1,1.166.571l.03.017-.042.059c-.026.013-.16.015-.232.038s-.2.1-.2.1l-.091,0a.293.293,0,0,0-.1.016c-.085.028-.217.085-.217.085Zm-.263-.836.3.755c.044-.019.131-.055.192-.075a.556.556,0,0,1,.2-.013,1.127,1.127,0,0,1,.192-.1,1.046,1.046,0,0,1,.227-.028,10.09,10.09,0,0,0-1.111-.539" transform="translate(-340.021 -362.537)"/><path d="M370.456,378.841l.3.773s.134-.058.219-.086a.408.408,0,0,1,.19-.012s.139-.075.207-.1a.969.969,0,0,1,.216-.026l-.3-.848a1.1,1.1,0,0,0-.211.045.79.79,0,0,0-.181.128.615.615,0,0,0-.239.016.583.583,0,0,0-.2.113" transform="translate(-340.039 -362.436)" fill="#fff"/><path d="M370.729,379.646l-.312-.8a.448.448,0,0,1,.217-.153.477.477,0,0,1,.154-.022l.081,0a.864.864,0,0,1,.186-.125,1.088,1.088,0,0,1,.219-.046l.332.869c-.03.041-.164.042-.235.065s-.2.1-.2.1l-.091,0a.292.292,0,0,0-.1.016c-.085.028-.217.085-.217.085Zm.524-1.1a1.173,1.173,0,0,1-.177.053.761.761,0,0,0-.17.121l-.118,0a.406.406,0,0,0-.133.019.555.555,0,0,0-.187.1l.294.712c.045-.019.131-.054.193-.074a.555.555,0,0,1,.2-.013,1.111,1.111,0,0,1,.192-.1,1.044,1.044,0,0,1,.226-.028Z" transform="translate(-340.029 -362.426)"/><path d="M371.344,379.568l-.32-.79.036-.013Z" transform="translate(-340.185 -362.494)" fill="#999396"/><path d="M370.526,378.985l-.024-.03a.6.6,0,0,1,.43-.116.885.885,0,0,0-.406.146" transform="translate(-340.051 -362.512)" fill="#999396"/><path d="M370.567,379.111l-.024-.03a.609.609,0,0,1,.43-.116.883.883,0,0,0-.406.147" transform="translate(-340.061 -362.544)" fill="#999396"/><path d="M370.608,379.249l-.024-.03a.594.594,0,0,1,.43-.116.883.883,0,0,0-.406.147" transform="translate(-340.072 -362.58)" fill="#999396"/><path d="M370.649,379.394l-.024-.03a.607.607,0,0,1,.43-.116.883.883,0,0,0-.406.147" transform="translate(-340.083 -362.617)" fill="#999396"/><path d="M370.727,379.542l-.024-.03a.608.608,0,0,1,.43-.116.879.879,0,0,0-.406.146" transform="translate(-340.103 -362.656)" fill="#999396"/><path d="M370.764,379.683l-.025-.03a.606.606,0,0,1,.43-.116.879.879,0,0,0-.406.146" transform="translate(-340.112 -362.692)" fill="#999396"/><path d="M370.827,379.82l-.024-.03a.611.611,0,0,1,.43-.116.885.885,0,0,0-.406.146" transform="translate(-340.128 -362.728)" fill="#999396"/><path d="M371.1,378.817l-.028-.026a.567.567,0,0,1,.4-.166.828.828,0,0,0-.37.192" transform="translate(-340.198 -362.458)" fill="#999396"/><path d="M371.137,378.979l-.028-.026a.572.572,0,0,1,.4-.166.839.839,0,0,0-.371.192" transform="translate(-340.207 -362.5)" fill="#999396"/><path d="M371.174,379.09l-.028-.026a.57.57,0,0,1,.4-.167.828.828,0,0,0-.37.193" transform="translate(-340.217 -362.528)" fill="#999396"/><path d="M371.24,379.236l-.028-.026a.574.574,0,0,1,.4-.166.847.847,0,0,0-.371.192" transform="translate(-340.234 -362.566)" fill="#999396"/><path d="M371.272,379.383l-.028-.026a.578.578,0,0,1,.4-.166.853.853,0,0,0-.371.192" transform="translate(-340.242 -362.604)" fill="#999396"/><path d="M371.34,379.51l-.028-.026a.57.57,0,0,1,.4-.167.829.829,0,0,0-.37.193" transform="translate(-340.26 -362.637)" fill="#999396"/><path d="M371.393,379.647l-.028-.026a.57.57,0,0,1,.4-.167.829.829,0,0,0-.37.193" transform="translate(-340.274 -362.672)" fill="#999396"/><path d="M370.729,379.646l-.312-.8a.448.448,0,0,1,.217-.153.477.477,0,0,1,.154-.022l.081,0a.864.864,0,0,1,.186-.125,1.088,1.088,0,0,1,.219-.046l.332.869c-.03.041-.164.042-.235.065s-.2.1-.2.1l-.091,0a.292.292,0,0,0-.1.016c-.085.028-.217.085-.217.085Zm.524-1.1a1.173,1.173,0,0,1-.177.053.761.761,0,0,0-.17.121l-.118,0a.406.406,0,0,0-.133.019.555.555,0,0,0-.187.1l.294.712c.045-.019.131-.054.193-.074a.555.555,0,0,1,.2-.013,1.111,1.111,0,0,1,.192-.1,1.044,1.044,0,0,1,.226-.028Z" transform="translate(-340.029 -362.426)"/><path d="M369.718,383.784a5.072,5.072,0,0,0,.7-.482c.228-.2.433-.462.681-.7s.371-.181.5-.462a1.285,1.285,0,0,0,.061-.679c.086,0,.119.089.168.188.023.049.131-.338.128-.225a3.385,3.385,0,0,0,0,.4c.04-.061.216-.453.216-.453s-.083.542-.061.482a3.376,3.376,0,0,1,.226-.342v.342a1.646,1.646,0,0,0,.185-.422c.042-.019.125.241.165.181s.082-.422.145-.381.1.22.1.22a7.153,7.153,0,0,1,.02-1.145c.062.019.208.06.208.06v-.443s.165.523.185.583a2.3,2.3,0,0,0-.062-.542,3.425,3.425,0,0,1-.083-.363s.213.3.249.363a2.181,2.181,0,0,0-.207-.584c-.042,0-.228.221-.187.2s.145-.463.207-.463.184.32.162.285l-.122-.687.165.3a.6.6,0,0,0,0-.282,1.335,1.335,0,0,1-.062-.261s.125.161.1.121a2.021,2.021,0,0,1,0-.362s.087.188.108.229.1.154.1.154v-.141l.107.09s-.23-.492-.335-.512-.246.161-.246.161.185-.321.246-.321h.082l-.061-.342s.412.562.392.482-.185-.462-.206-.6-.082-.382-.082-.382l.185.261c.041.06.165.3.165.262s-.021-.5-.021-.5l.206.443.185-.523.1.5s.083-.242.1-.342.082-.1.082-.1-.02.422-.02.463-.041.26-.041.26.185-.381.226-.462.205-.14.205-.14-.081.181-.1.241a2.96,2.96,0,0,0-.206.522c.041,0,.206-.241.309-.241s.29.262.248.282-.206-.08-.268-.08-.556.542-.474.522a2.076,2.076,0,0,0,.371-.327s-.1.246-.062.226.351-.2.351-.2-.453.4-.392.4a1.608,1.608,0,0,0,.31-.121l-.31.383a1.256,1.256,0,0,1,.341-.166,1.043,1.043,0,0,1,.258.065,2.84,2.84,0,0,0-.351.04c-.042.02-.35.463-.268.422a1.366,1.366,0,0,0,.246-.221l-.1.262.433-.262-.6.623s.413-.321.475-.3a2.731,2.731,0,0,1,.351.342,3.985,3.985,0,0,0-.413-.181,3.249,3.249,0,0,0-.516.663,2.234,2.234,0,0,1,.455-.2c.082,0,.226.362.185.362s-.227-.1-.269-.1a5.838,5.838,0,0,0-.514.281s.35-.06.453-.08a2.258,2.258,0,0,0,.391-.04c.083-.041.31-.121.31-.121s-.237.151-.361.252a.823.823,0,0,1-.341.131l.391.039s-.536.166-.669.216-.21.1-.294.142c.062,0,.365-.016.447-.016s.476.06.476.06-.516.081-.578.081a.321.321,0,0,0-.144.06l.556.06-.371.061s.268.1.33.115a2.036,2.036,0,0,1,.246.145s-.473-.1-.576-.1a2.234,2.234,0,0,0-.263.025.839.839,0,0,1,.274.061.172.172,0,0,1,.093.076l-.269-.021a1.656,1.656,0,0,0,.248.161.39.39,0,0,1,.123.08l-.413-.04.351.261s-.371-.08-.433-.08H374.4a1.663,1.663,0,0,1,.226.2,1.334,1.334,0,0,1,.083.141,1.684,1.684,0,0,1-.248-.081.966.966,0,0,0-.226-.06l.185.2-.31-.06.165.241-.309-.1s.143.081.143.141-.061.342-.1.3-.061-.2-.1-.262a.408.408,0,0,0-.1-.1.7.7,0,0,0-.211-.06c.02.039.242.181.274.226l-.392-.045s.371.18.31.18-2.043-.161-2.166-.161-.722.684-.847.744-.412.4-.536.422a1.337,1.337,0,0,0-.288.1Z" transform="translate(-339.848 -362.036)" fill="#347c63"/><path d="M369.939,383.936l-.241-.128c.047-.077.479-.34.7-.533a5,5,0,0,0,.372-.378c.1-.108.2-.217.309-.324a1.311,1.311,0,0,1,.25-.189.489.489,0,0,0,.239-.263.831.831,0,0,0,.068-.464c0-.059-.01-.125-.01-.2.125-.027.167.054.21.141a.71.71,0,0,1,.034-.1c.04-.1.049-.128.079-.128.031.215.03.423.036.447a2.2,2.2,0,0,1,.16-.456v.009c.008.007.01.024.006.047a2.057,2.057,0,0,1-.007.366,1.429,1.429,0,0,1,.168-.288l.047.307c.021-.083.107-.247.133-.375.071-.025.1.02.132.083a.376.376,0,0,0,.056.084.656.656,0,0,1,.027-.15c.037-.157.061-.246.116-.246a.415.415,0,0,1,.142.249,3.634,3.634,0,0,1-.038-1.159l.243.05-.039-.413c.025-.029.135.248.194.421-.025-.13-.047-.306-.07-.37a3.371,3.371,0,0,1-.084-.367c.044-.02.193.177.268.284-.069-.136-.177-.452-.21-.484,0,.01-.061.068-.116.137a.168.168,0,0,1-.007-.162c.071-.209.1-.294.157-.294.085,0,.181.269.188.288v.005c-.093-.083-.165-.22-.192-.231a1.767,1.767,0,0,0-.1.251v0a.138.138,0,0,1,.079-.053c.089,0,.238.608.238.614a1.15,1.15,0,0,1-.239-.254c.026.075.048.178.071.244a2.272,2.272,0,0,1,.062.575,3,3,0,0,1-.243-.6l.06.433-.247-.03c0,.045,0,.611.019,1.115-.077-.062-.115-.171-.151-.194-.006.015-.033.131-.049.2a.613.613,0,0,1-.053.174c-.077.024-.1-.019-.142-.092a.359.359,0,0,0-.051-.079,1.069,1.069,0,0,1-.157.41l0-.022a.038.038,0,0,1,0-.025l-.05-.311a1.746,1.746,0,0,1-.165.352c-.057,0-.07-.005-.026-.319a2.09,2.09,0,0,1-.133.3c-.051,0-.067-.015-.063-.3-.044.113-.059.139-.09.139-.09-.139-.118-.191-.174-.192a.339.339,0,0,1,.042.168.887.887,0,0,1-.073.493.547.547,0,0,1-.263.291,1.2,1.2,0,0,0-.239.182c-.108.1-.208.214-.306.32a4.734,4.734,0,0,1-.376.384,5.16,5.16,0,0,1-.708.487l.21.061a1.336,1.336,0,0,1,.287-.1,1.031,1.031,0,0,0,.3-.228,1.326,1.326,0,0,1,.232-.191,2.768,2.768,0,0,0,.329-.3c.278-.277.453-.445.531-.445s.761.053,1.368.1l.736.056a2.256,2.256,0,0,1-.261-.118l.344-.011a.451.451,0,0,1-.09-.056.608.608,0,0,1-.149-.128.393.393,0,0,1,.252.019.441.441,0,0,1,.116.111.529.529,0,0,1,.053.141.417.417,0,0,0,.045.116c0-.026.05-.225.05-.28,0-.024-.068-.08-.128-.114h.008a.121.121,0,0,1,.109.015l.216.029-.2-.2.341.013-.214-.149c.033-.05.176-.03.263.011a1.147,1.147,0,0,0,.179.062c-.018-.022-.035-.05-.053-.076a1.519,1.519,0,0,0-.22-.194l-.073-.056h.152c.064,0,.4.073.44.081l-.376-.206.349-.012a.518.518,0,0,0-.05-.024,1.6,1.6,0,0,1-.257-.165l.228-.028a.493.493,0,0,0-.045-.024.825.825,0,0,0-.264-.058c0-.062.161-.087.266-.087a4.036,4.036,0,0,1,.442.073c-.05-.023-.1-.05-.122-.059-.062-.019-.331-.115-.331-.115l.017-.006c.005-.008.019-.012.039-.012l.321-.1h-.555c-.005-.062.078-.122.147-.122.039,0,.251-.03.406-.054-.116-.006-.257-.024-.3-.024s-.151,0-.25.009-.169.007-.2.007l.016-.031-.016-.031h.03l.012-.024c.069-.036.145-.074.24-.115.135-.05.673-.217.673-.217l-.26.013.272-.014c.006.06-.528.225-.662.275-.062.027-.117.053-.166.077l.056,0c.1,0,.208-.01.253-.01.083,0,.48.062.48.062,0,.061-.52.142-.583.142a.3.3,0,0,0-.125.053l.542.005-.313.1a1.66,1.66,0,0,1,.278.073,2.017,2.017,0,0,1,.254.15,3.955,3.955,0,0,1-.594-.043h-.041a.326.326,0,0,1,.065.027.19.19,0,0,1,.106.09l-.3.022a.821.821,0,0,1,.26.1.431.431,0,0,1,.135.087h-.024c-.014.021-.037.016-.064,0l-.35.01.372.206a1.929,1.929,0,0,1-.432-.023.766.766,0,0,1,.171.151,1.392,1.392,0,0,1,.085.144c-.042.041-.2,0-.289-.039a.92.92,0,0,0-.217-.058l.212.15-.338-.009.2.194-.223-.035a.122.122,0,0,1,.063.092s-.037.337-.125.337a.248.248,0,0,1-.091-.156.507.507,0,0,0-.046-.123.384.384,0,0,0-.094-.092s-.043-.019-.095-.036c.021.013.041.028.058.041a.823.823,0,0,1,.141.116l-.421,0c.361.108.357.128.35.154a4.794,4.794,0,0,1-.839-.034c-.576-.045-1.293-.1-1.364-.1a2.483,2.483,0,0,0-.488.427,2.263,2.263,0,0,1-.344.314,1.324,1.324,0,0,0-.217.181.941.941,0,0,1-.327.244,1.353,1.353,0,0,0-.28.1Zm4.989-3.362c0-.062.208-.091.324-.185.04-.032.09-.069.141-.1l-.056.025a.685.685,0,0,1-.246.032,1.071,1.071,0,0,0-.154.011c-.1.02-.455.08-.455.08l.01-.008c0-.012.015-.024.039-.035a1.615,1.615,0,0,1,.461-.3.51.51,0,0,1,.147.053.735.735,0,0,0,.122.047c-.018-.033-.14-.294-.185-.3a1.7,1.7,0,0,0-.373.163l-.068.035c-.053-.076.428-.723.5-.723a3,3,0,0,1,.427.185c-.175-.107-.339-.273-.374-.286a2.249,2.249,0,0,0-.447.3l0-.005a.54.54,0,0,1,.116-.141l.436-.523-.395.309.043-.221a.591.591,0,0,1-.189.182c-.072-.088.2-.458.241-.477a1.092,1.092,0,0,1,.211-.032.634.634,0,0,0-.105-.015,1.136,1.136,0,0,0-.324.161l.007-.01c0-.019.016-.042.042-.068l.188-.3a.547.547,0,0,1-.254.122c-.034-.036-.049-.065.166-.27-.053.033-.1.058-.113.065-.047-.021-.065-.042-.01-.188a.882.882,0,0,1-.3.291c-.047-.112.395-.583.467-.583a.454.454,0,0,1,.14.044.461.461,0,0,0,.114.039c-.011-.027-.16-.223-.234-.223-.05,0-.137.091-.194.151s-.087.09-.114.09c-.047-.044-.03-.1.119-.432.028-.064.052-.114.058-.131.016-.044.062-.151.088-.208-.034.044-.111.087-.134.131-.04.08-.226.461-.226.461-.058-.019-.018-.235-.018-.275s.012-.292.018-.409a.205.205,0,0,0-.019.053c-.02.1-.1.345-.1.345l-.006-.018c-.01-.005-.015-.022-.014-.045l-.142-.443-.127.527-.227-.38a2.72,2.72,0,0,1,.044.43c-.057.034-.066.026-.159-.137-.025-.045-.049-.088-.063-.108l-.1-.148a1.65,1.65,0,0,1,.058.247,2.906,2.906,0,0,0,.139.418c.032.084.058.152.066.182-.05.044-.079.046-.447-.457l.116.319-.114.036a.457.457,0,0,0-.105.125.17.17,0,0,1,.089-.028c.134.023.323.412.379.53l-.155-.053.006.012-.016-.036.157.066c-.155-.193-.3-.447-.36-.457h0c-.081,0-.182.108-.215.149v-.006c-.013-.022,0-.061.027-.1.052-.146.14-.267.193-.267h.083l-.091-.306a4.506,4.506,0,0,1,.352.372c-.007-.019-.016-.039-.024-.062a2.732,2.732,0,0,1-.143-.432c-.022-.139-.082-.378-.082-.379l.009.009c.019-.013.033.016.05.049l.183.179c.014.022.039.065.065.112s.058.1.077.13a2.644,2.644,0,0,1-.054-.464l.007.012c.011,0,.02.018.028.045l.23.372.128-.52.142.444a2.754,2.754,0,0,1,.063-.278c.027-.125.109-.126.113-.126a2.667,2.667,0,0,1,.01.494.881.881,0,0,1-.012.093c.046-.119.116-.262.139-.308a.473.473,0,0,1,.223-.156c.039.042-.042.221-.064.28-.006.017-.03.071-.059.137s-.1.216-.13.3l.024-.026c.076-.08.163-.171.24-.171.109,0,.266.208.283.283l-.049.063a.426.426,0,0,1-.137-.044.491.491,0,0,0-.117-.039,2.563,2.563,0,0,0-.452.49c.022-.042.21-.222.326-.346a.77.77,0,0,1-.018.237,1.822,1.822,0,0,1,.313-.218l0,.006c.009.018-.019.049-.062.085-.131.17-.275.309-.286.34a1.153,1.153,0,0,1,.272-.15l-.014.022a.171.171,0,0,1-.013.02l-.2.308a.566.566,0,0,1,.266-.137,1.03,1.03,0,0,1,.269.068l-.016.007c-.006.011-.022.016-.042.016a2.6,2.6,0,0,1-.29.073,1.976,1.976,0,0,0-.265.392,2.826,2.826,0,0,1,.207-.239l0,.014c.008.012,0,.034-.011.06l-.038.22.389-.3-.438.524a.852.852,0,0,1,.323-.208,1.85,1.85,0,0,1,.38.354,3.322,3.322,0,0,1-.436-.13,5.932,5.932,0,0,0-.451.565,1.384,1.384,0,0,1,.391-.165c.1,0,.223.312.223.379-.065.045-.111.026-.185-.008a.758.758,0,0,0-.122-.047c-.027.006-.214.111-.384.209.106-.031.255-.057.317-.07a1.219,1.219,0,0,1,.163-.012.687.687,0,0,0,.22-.025c.083-.041.313-.122.313-.122.027.055-.208.206-.331.3a.847.847,0,0,1-.353.138Zm-1.49-1.241-.168-.614.193.243a1.04,1.04,0,0,0-.025-.217,1.327,1.327,0,0,1-.065-.269c.035-.013.085.026.118.06a.946.946,0,0,1-.014-.307c.057,0,.145.176.165.217s.073.115.091.142l.011.025c-.06.022-.137-.1-.157-.139s-.108-.229-.108-.229a1.786,1.786,0,0,1,.056.335c-.031.036-.043.048-.088,0,.016.047.03.1.047.147a.62.62,0,0,1,0,.3l-.223-.295Z" transform="translate(-339.843 -362.032)" fill="#1a4104"/><path d="M372.318,383.983l-.045-.044a2.371,2.371,0,0,0,.286-.331.97.97,0,0,0,.042-.124c.06.015.045.074.015.147a2.531,2.531,0,0,1-.3.352" transform="translate(-340.508 -363.712)" fill="#1a4104"/><path d="M372.492,384.031l-.034-.052a1.191,1.191,0,0,0,.344-.489c.052.037-.085.394-.309.541" transform="translate(-340.556 -363.714)" fill="#1a4104"/><path d="M373,383.894l-.036-.05a.884.884,0,0,0,.185-.328c.053.032-.041.3-.149.378" transform="translate(-340.688 -363.72)" fill="#1a4104"/><path d="M373.083,383.952l-.035-.05a1,1,0,0,0,.381-.769.769.769,0,0,1-.346.82" transform="translate(-340.708 -363.621)" fill="#1a4104"/><path d="M373.42,383.88l-.046-.042a1.665,1.665,0,0,0,.379-1.023,1.223,1.223,0,0,1-.333,1.065" transform="translate(-340.792 -363.539)" fill="#1a4104"/><path d="M373.593,383.946l-.029-.055c.309-.164.318-.924.318-1.01l.062-.056c0,.2-.018.944-.351,1.122" transform="translate(-340.841 -363.542)" fill="#1a4104"/><path d="M374.226,383.317a2.522,2.522,0,0,0-.15-.814,1.2,1.2,0,0,1,.211.812Z" transform="translate(-340.973 -363.459)" fill="#1a4104"/><path d="M374.423,383.072h-.062a1.727,1.727,0,0,0-.185-.858c.059-.027.262.322.247.859" transform="translate(-340.999 -363.383)" fill="#1a4104"/><path d="M374.5,382.875l-.062-.006c.117-1.151-.125-1.282-.128-1.284.052-.044.311.094.189,1.289" transform="translate(-341.034 -363.22)" fill="#1a4104"/><path d="M374.749,382.4l-.062-.006a1.043,1.043,0,0,0-.1-.674c.053-.033.2.163.158.68" transform="translate(-341.106 -363.255)" fill="#1a4104"/><path d="M374.945,381.879l-.061-.009a1.857,1.857,0,0,0-.179-.849h0a1.167,1.167,0,0,1,.238.858" transform="translate(-341.136 -363.076)" fill="#1a4104"/><path d="M375.03,382.941l-.035-.052c.461-.3.772-.435.9-.391a3.3,3.3,0,0,0-.861.443" transform="translate(-341.21 -363.455)" fill="#1a4104"/><path d="M374.745,383.479l-.035-.05c.928-.637,1.122-.5,1.14-.481a2.323,2.323,0,0,0-1.1.531" transform="translate(-341.137 -363.567)" fill="#1a4104"/><path d="M376.018,383.371a2.849,2.849,0,0,0-.615-.014l0-.061c.378-.024.6,0,.653.064a.048.048,0,0,1-.034.011" transform="translate(-341.315 -363.661)" fill="#1a4104"/><path d="M375.593,383.839a1.394,1.394,0,0,0-.494-.039l0-.061a.773.773,0,0,1,.523.079c-.007.015-.013.021-.024.021" transform="translate(-341.236 -363.776)" fill="#1a4104"/><path d="M375.436,381.252l-.046-.041c.629-.717.764-.779.778-.783.016.06-.119.125-.732.824" transform="translate(-341.312 -362.923)" fill="#1a4104"/><path d="M375.4,381.6l-.034-.052c.637-.418.717-.48.72-.482.038.05-.035.106-.686.534" transform="translate(-341.307 -363.088)" fill="#1a4104"/><path d="M375.317,382.063l-.043-.045c.476-.463.688-.49.7-.491.005.062-.2.092-.654.536" transform="translate(-341.282 -363.207)" fill="#1a4104"/><path d="M375.317,382.319l-.039-.047c.821-.645,1.174-.522,1.189-.517a2.36,2.36,0,0,0-1.151.565" transform="translate(-341.283 -363.262)" fill="#1a4104"/><path d="M375.156,382.661l-.033-.052a2,2,0,0,1,.614-.3l.085.037a2.129,2.129,0,0,0-.665.311" transform="translate(-341.243 -363.41)" fill="#1a4104"/><path d="M375.638,378.867c-.151-.75-.246-1.067-.247-1.071.082.014.156.309.307,1.059Z" transform="translate(-341.313 -362.244)" fill="#1a4104"/><path d="M375.806,378.849c-.059-.016.028-.346.035-.416a1.646,1.646,0,0,0-.2-.733l.051-.035a1.694,1.694,0,0,1,.209.774c-.007.072-.1.41-.1.41" transform="translate(-341.377 -362.21)" fill="#1a4104"/><path d="M376.035,377.972c-.055,0-.1-.118-.069-.488l.062,0a1.2,1.2,0,0,0,.019.482l-.012,0" transform="translate(-341.459 -362.163)" fill="#1a4104"/><path d="M376.008,378.525l-.053-.03a3.721,3.721,0,0,0,.216-.542c.054.034-.061.394-.162.572" transform="translate(-341.458 -362.285)" fill="#1a4104"/><path d="M375.714,379.444a2.5,2.5,0,0,1,.158-.411c.1-.247.243-.569.332-.8l.058.022c-.09.234-.228.559-.332.806-.08.188-.142.332-.147.355Z" transform="translate(-341.396 -362.356)" fill="#1a4104"/><path d="M375.714,380.075l-.055-.027a4.251,4.251,0,0,1,.636-1.07,9.915,9.915,0,0,1-.581,1.1" transform="translate(-341.382 -362.549)" fill="#1a4104"/><path d="M375.742,380.317l-.05-.036a7.284,7.284,0,0,0,.617-.933c.053.032-.025.214-.567.969" transform="translate(-341.39 -362.645)" fill="#1a4104"/><path d="M375.614,380.8l-.048-.038c.617-.787.856-.874.867-.877.017.059-.219.151-.818.915" transform="translate(-341.358 -362.782)" fill="#1a4104"/><path d="M375.014,381.3a2.333,2.333,0,0,0-.344-1.058c.068-.024.332.356.405,1.052Z" transform="translate(-341.126 -362.875)" fill="#1a4104"/><path d="M375.144,380.795a7.279,7.279,0,0,0-.406-1.054l.052-.033a2.685,2.685,0,0,1,.354,1.088" transform="translate(-341.144 -362.737)" fill="#1a4104"/><path d="M375.225,380.375a3.284,3.284,0,0,0-.429-1.22l.052-.031a1.86,1.86,0,0,1,.377,1.252" transform="translate(-341.159 -362.586)" fill="#1a4104"/><path d="M375.374,380.615a3.059,3.059,0,0,0-.3-1.422l.055-.029a2.049,2.049,0,0,1,.25,1.451" transform="translate(-341.229 -362.597)" fill="#1a4104"/><path d="M375.529,380.028c-.062-.006-.05-.291-.286-.886l.057-.024a2.453,2.453,0,0,1,.229.91" transform="translate(-341.274 -362.585)" fill="#1a4104"/><path d="M375.483,379.23a1.574,1.574,0,0,0-.612-1.02l.042-.045c.722.675.576,1.05.57,1.065" transform="translate(-341.178 -362.339)" fill="#1a4104"/><path d="M374.793,383.144c-.057-.024.035-.275.042-.369,0-.033.011-.092.021-.156-.039.1-.095.231-.173.413l-.057-.025c.244-.565.277-.663.277-.665a.02.02,0,0,1,.013.01c.009.007.013.02.011.043a2.826,2.826,0,0,1-.031.384,2.182,2.182,0,0,1-.1.364" transform="translate(-341.115 -363.417)" fill="#1a4104"/><path d="M375,384.153a2.389,2.389,0,0,0-1.016-.176l-.012-.061a1.682,1.682,0,0,1,1.043.231s-.008.005-.016.005" transform="translate(-340.948 -363.819)" fill="#1a4104"/><path d="M374.631,384.28c-.117,0-.369-.046-.737-.076l.005-.061a5.56,5.56,0,0,1,.806.115c-.005.016-.03.022-.074.022" transform="translate(-340.926 -363.882)" fill="#1a4104"/><path d="M375.236,383.963c-.134,0-.815-.254-1.055-.266l0-.062a6.206,6.206,0,0,1,1.074.321c0,.005-.01.007-.022.007" transform="translate(-341 -363.751)" fill="#1a4104"/><path d="M372.5,383.651c-.05-.037-.031-.068.007-.159a.786.786,0,0,0,.03-.269l.062,0a.837.837,0,0,1-.034.295.951.951,0,0,1-.064.137" transform="translate(-340.558 -363.644)" fill="#1a4204"/><path d="M370.207,383.949c-.678-.336-1.4-1.266-1.557-1.307s-1.8.24-1.786.2a1.58,1.58,0,0,1,.123-.406c.077-.119.277-.24.246-.24s-.446.015-.446.015a1.369,1.369,0,0,1-.263.255c-.076.03-.415.06-.493.105a1.587,1.587,0,0,0-.216.18s-.03-.165-.03-.21a.379.379,0,0,1,.061-.136,2.44,2.44,0,0,1-.339,0c.047-.015.062-.12.123-.2a.538.538,0,0,1,.246-.2l.216-.06-.184-.09a1.182,1.182,0,0,1,.231-.091,2.024,2.024,0,0,0,.23-.045s-.137-.15-.137-.21-.139.225-.246.255a2.18,2.18,0,0,1-.432.06c-.108,0-.263.165-.263.165a.714.714,0,0,1-.03-.226.159.159,0,0,1,.077-.09l-.17.016a2.6,2.6,0,0,1,.062-.255c.015-.03.093-.165.093-.165a.722.722,0,0,1-.155-.15,2.022,2.022,0,0,1-.077-.211h.323a1.158,1.158,0,0,1,.278.091.574.574,0,0,1-.076-.165c0-.045-.062-.151-.032-.151a1.705,1.705,0,0,1,.246.136s-.061-.286-.154-.346-.509-.134-.586-.24a3.39,3.39,0,0,1-.216-.571.261.261,0,0,0-.123-.134H365s-.03-.15-.046-.24a.585.585,0,0,1,.032-.226s.107.18.169.18.154.105.154.105l.016-.105.184.24a.591.591,0,0,1,.047-.2.43.43,0,0,1,.107-.06.764.764,0,0,0,.032.135,1.783,1.783,0,0,1,.108.3c0,.046-.03.541-.03.586a3.2,3.2,0,0,0,.184.39v-.36c0-.091-.108-.286-.091-.361s.03-.2.03-.2a.967.967,0,0,0,.123.18.943.943,0,0,1,.123.18l.107-.2s-.26-.21-.292-.3a2.45,2.45,0,0,1-.061-.286,1.344,1.344,0,0,1-.246-.15,5.374,5.374,0,0,1-.309-.481h.093a1.034,1.034,0,0,1-.093-.285c0-.091.016-.271.016-.271a.654.654,0,0,1,.108.105c.016.03.139.045.139.045a2.273,2.273,0,0,1-.185-.571,1.246,1.246,0,0,1,.246-.48l.125.2.246-.361a.9.9,0,0,1,.108.211v.2s.154.015.185.015.107.059.107.059a.662.662,0,0,0-.169.09c-.047.045-.093.24-.14.255a1.642,1.642,0,0,0-.292.2,1.141,1.141,0,0,0-.091.315,1.436,1.436,0,0,1,.169.285c.015.075.03.271.03.271s.077.09.138.074a.159.159,0,0,0,.108-.165c-.016-.06-.185-.211-.2-.286S366,378,366,378l.246.135a.992.992,0,0,0,.17-.21,2.538,2.538,0,0,0,.078-.285l.108.315s.076-.136.154-.165a2.6,2.6,0,0,0,.232-.12,1.877,1.877,0,0,0-.062.21,4.256,4.256,0,0,1-.014.616c-.032.06-.432.436-.462.465s-.032.256-.032.256l.292-.256s.032.136.047.21a.856.856,0,0,1,.016.151,1.239,1.239,0,0,0,.2-.076c.046-.03.139.03.139.03a.688.688,0,0,1-.076.15c-.032.03-.139.315-.185.361s-.323.15-.354.194-.262.3-.324.391a.607.607,0,0,0-.061.27,1.1,1.1,0,0,1,.169-.33,3.287,3.287,0,0,0,.261-.271l.046.226a1.313,1.313,0,0,1,.232-.135l.385-.09s-.216.18-.216.226-.032.286-.108.346-.447.286-.477.3-.062.136-.062.18a.228.228,0,0,0,.047.105.613.613,0,0,1,.108-.165.279.279,0,0,0,.045-.194.813.813,0,0,1,.155.194,2.2,2.2,0,0,1,.014.451.678.678,0,0,0,0,.3c.032.045.17.2.2.2s-.185-.391-.155-.571a1.663,1.663,0,0,1,.185-.39.885.885,0,0,0,.039-.18,1.234,1.234,0,0,1,.162.227.437.437,0,0,1,.149-.139,2.659,2.659,0,0,1,.155.392,1.335,1.335,0,0,1,.179-.228.769.769,0,0,1,.122.414.567.567,0,0,1-.2.31,1.044,1.044,0,0,1-.169.09,1.63,1.63,0,0,0,.277.076.47.47,0,0,1,.154.044l-.339.105a1.945,1.945,0,0,0,.415.015.757.757,0,0,0-.046-.285.744.744,0,0,1-.061-.2,1,1,0,0,0,.2.044c.062,0,.17.015.17-.015s-.123-.27-.093-.27.432.36.432.3a2.293,2.293,0,0,1,.172-.376s.147.275.162.32a1.206,1.206,0,0,1,.02.267.589.589,0,0,1-.108.255,2.994,2.994,0,0,0,.355.45,5.554,5.554,0,0,0,.909.871c.2.122.216.119.386.21Z" transform="translate(-338.567 -362.053)" fill="#347c63"/><path d="M370.21,383.97l-.014-.007a5.13,5.13,0,0,1-1.187-.976,1.88,1.88,0,0,0-.366-.329c-.2,0-.668.06-1.073.116-.319.045-.6.084-.686.084l-.023-.024,0-.067a1.149,1.149,0,0,1,.111-.349.923.923,0,0,1,.2-.2c.03-.013-.385,0-.385,0a1.054,1.054,0,0,1-.256.254,1.59,1.59,0,0,1-.2.04,1.315,1.315,0,0,0-.288.063,1.613,1.613,0,0,0-.213.178c-.032-.01-.063-.179-.063-.224a.32.32,0,0,1,.055-.131.938.938,0,0,1-.246.022l-.051-.009a2.586,2.586,0,0,1,.322-.036c-.005.063-.041.126-.041.155a1.847,1.847,0,0,0,.028.194.593.593,0,0,1,.189-.18,1.2,1.2,0,0,1,.3-.068,1.5,1.5,0,0,0,.194-.039,1.255,1.255,0,0,0,.255-.249c.014-.007.43-.022.461-.022l0,.013-.041.07a.918.918,0,0,0-.194.187,1.132,1.132,0,0,0-.106.337,1.883,1.883,0,0,0,.671-.039c.405-.056.864-.12,1.031-.12.12.021.247.149.441.344a5.141,5.141,0,0,0,1.161.962l.16-.212-.12-.037c-.071-.036-.121-.062-.26-.145a3.583,3.583,0,0,1-.736-.684,2.483,2.483,0,0,0-.175-.189,2.991,2.991,0,0,1-.359-.454c0-.024.106-.168.106-.266a1.175,1.175,0,0,0-.02-.261c-.016-.044-.16-.316-.16-.316-.032.12-.137.326-.137.367-.058.028-.134-.03-.3-.164a1.536,1.536,0,0,0-.154-.117.5.5,0,0,1,.073.139.462.462,0,0,1,.042.113v.02l-.082.019-.107,0a.856.856,0,0,1-.188-.041c.017.024.034.1.067.162a.749.749,0,0,1,.048.295v.019l-.083.01c-.118,0-.354-.027-.354-.027l.008,0c0-.008.015-.013.036-.016l.26-.111c-.032,0-.081-.021-.116-.021a1.629,1.629,0,0,1-.283-.076c0-.036.076-.066.165-.124a.545.545,0,0,0,.2-.3.751.751,0,0,0-.119-.4c-.027.058-.1.146-.145.227-.066-.1-.158-.355-.186-.39a1.174,1.174,0,0,0-.119.138c-.045-.055-.133-.157-.173-.2a.385.385,0,0,1-.027.15.537.537,0,0,1-.063.116.765.765,0,0,0-.122.272,1.1,1.1,0,0,0,.116.442c.042.1.048.12.038.135-.068.023-.219-.171-.235-.194a.672.672,0,0,1,0-.315,2.179,2.179,0,0,0-.014-.443.672.672,0,0,0-.127-.162.191.191,0,0,1-.042.172.575.575,0,0,0-.1.16.123.123,0,0,1-.083-.113c0-.042.028-.177.073-.2s.4-.238.473-.3a.644.644,0,0,0,.1-.331c0-.048.156-.184.223-.24l-.369.124a1.192,1.192,0,0,0-.225.132l-.073-.227a1.094,1.094,0,0,1-.234.271,1.021,1.021,0,0,0-.163.322c-.037-.014-.036-.194.027-.288.037-.053.133-.163.211-.254.054-.063.1-.118.114-.136a.654.654,0,0,1,.2-.112.928.928,0,0,0,.161-.086,1.115,1.115,0,0,0,.1-.2.737.737,0,0,1,.082-.16.648.648,0,0,0,.072-.143c-.008.014-.055-.013-.089-.013a1.684,1.684,0,0,1-.226.083c-.024-.019-.025-.094-.04-.165s-.047-.211-.047-.211l-.261.266a.407.407,0,0,1,.006-.284,5.431,5.431,0,0,0,.458-.46,2.579,2.579,0,0,0,.013-.574.954.954,0,0,1,.053-.221.787.787,0,0,1-.2.116.417.417,0,0,0-.145.157l-.128-.289a.874.874,0,0,1-.056.256,1,1,0,0,1-.174.217l-.269-.132c.02.122,0,.49.013.549a.513.513,0,0,0,.108.154.479.479,0,0,1,.092.131.142.142,0,0,1-.022.108.175.175,0,0,1-.1.082.231.231,0,0,1-.157-.081c-.005-.011-.021-.206-.035-.279a1.386,1.386,0,0,0-.166-.277.963.963,0,0,1,.093-.341,1.643,1.643,0,0,1,.3-.2c.017-.006.047-.077.065-.121a.44.44,0,0,1,.068-.13.681.681,0,0,1,.176-.095c-.038.006-.087-.022-.1-.022-.033,0-.188-.015-.188-.015l-.017-.215a.8.8,0,0,0-.1-.2l-.214.361-.154-.194c0,.033-.214.319-.214.467a2.255,2.255,0,0,0,.184.563c-.059.024-.154.007-.174-.027a.5.5,0,0,0-.09-.089,1.439,1.439,0,0,1,0,.245,1.045,1.045,0,0,0,.091.277l-.11.027c.1.115.274.4.322.447a1.338,1.338,0,0,0,.241.146c.011.014.041.207.07.3a1.327,1.327,0,0,0,.287.291l-.1.22c-.076-.076-.133-.164-.149-.173a.56.56,0,0,1-.11-.151.7.7,0,0,1-.016.153.485.485,0,0,0,.045.18.623.623,0,0,1,.047.177v.36a1.189,1.189,0,0,1-.223-.39c0-.023.007-.159.015-.295s.016-.269.016-.292a1.813,1.813,0,0,0-.105-.292.663.663,0,0,1-.033-.139c0,.022-.053.047-.075.068a.538.538,0,0,0-.041.184l-.218-.231.019.1c-.068-.028-.135-.088-.173-.088-.059,0-.139-.116-.173-.169a1.312,1.312,0,0,0-.01.191l.046.24-.219.019a.2.2,0,0,1,.095.113l.03.092a2.474,2.474,0,0,0,.184.474.946.946,0,0,0,.364.157,1.1,1.1,0,0,1,.216.078c.1.064.159.346.162.357-.129-.042-.245-.109-.266-.111a.346.346,0,0,1,.052.131.536.536,0,0,0,.073.155c-.084,0-.235-.061-.295-.061H365.1a1.376,1.376,0,0,1,.084.183.679.679,0,0,0,.149.143.936.936,0,0,1-.087.188,2.47,2.47,0,0,0-.061.251l.148-.039c.01.037-.042.065-.056.116a.625.625,0,0,0,.028.206.361.361,0,0,1,.246-.171,2.184,2.184,0,0,0,.427-.059c.056-.016.132-.124.177-.188s.054-.076.071-.076a.89.89,0,0,0,.155.225.557.557,0,0,1-.244.078,1.071,1.071,0,0,0-.222.088l.184.055-.22.1a.523.523,0,0,0-.237.189.5.5,0,0,0-.059.1c-.02.042-.037.079-.066.093l-.036-.01a.262.262,0,0,0,.066-.1.6.6,0,0,1,.32-.315l.216-.06-.187-.054a.476.476,0,0,1,.239-.127,1.972,1.972,0,0,0,.226-.044c-.035.006-.128-.1-.148-.168a.215.215,0,0,1-.027.047c-.054.077-.128.184-.2.2a2.177,2.177,0,0,1-.437.06c-.082,0-.207.115-.249.16a.35.35,0,0,1-.063-.243.18.18,0,0,1,.087-.1l-.159.053a.815.815,0,0,1,.043-.284c.013-.027.08-.143.091-.162a.408.408,0,0,1-.154-.134,1.99,1.99,0,0,1-.078-.214l.341-.025a.921.921,0,0,1,.253.079.239.239,0,0,1-.07-.134l-.035-.159c.062-.016.212.085.279.127-.046-.056-.1-.267-.174-.313a1.248,1.248,0,0,0-.206-.073.924.924,0,0,1-.384-.171,2.437,2.437,0,0,1-.189-.485l-.03-.091a.245.245,0,0,0-.114-.124h.01c.005-.009.019-.011.034-.005l.211-.03-.065-.217a.6.6,0,0,1,.033-.236c.076.066.152.168.188.168.068,0,.158.1.168.111l-.018-.095.211.224a.244.244,0,0,1,.024-.19.458.458,0,0,1,.114-.065.987.987,0,0,1,.056.145,1.76,1.76,0,0,1,.11.309c0,.023-.008.159-.016.294s-.015.27-.015.292a2.749,2.749,0,0,0,.182.38l-.036-.35a.625.625,0,0,0-.045-.165.462.462,0,0,1-.046-.2c.014-.074.03-.194.03-.194.079.07.135.157.151.166a.807.807,0,0,1,.131.188l.073-.2s-.26-.191-.294-.284a2.458,2.458,0,0,1-.062-.289.723.723,0,0,1-.24-.139,5.1,5.1,0,0,1-.312-.485l.1-.027a.486.486,0,0,1-.107-.267c0-.091.016-.272.016-.272h0a.229.229,0,0,1,.143.1.332.332,0,0,0,.12.033,1.363,1.363,0,0,1-.2-.552,1.244,1.244,0,0,1,.251-.492l.156.2.214-.361a.446.446,0,0,1,.142.221v.19a.779.779,0,0,1,.166,0,.313.313,0,0,1,.119.064c-.007.034-.125.079-.168.119a.459.459,0,0,0-.059.117c-.034.082-.056.132-.088.142a1.654,1.654,0,0,0-.286.191,1.053,1.053,0,0,0-.086.3h0a1.086,1.086,0,0,1,.169.278c.015.076.03.273.03.273s.064.059.1.059a.134.134,0,0,0,.087-.066.1.1,0,0,0,.018-.076.5.5,0,0,0-.085-.116.513.513,0,0,1-.116-.171c-.016-.076.013-.555.014-.575l.273.118c0-.012.117-.133.145-.2a2.562,2.562,0,0,0,.077-.282l.005.012a.024.024,0,0,1,.008.017l.124.269a.264.264,0,0,1,.136-.162,2.439,2.439,0,0,0,.229-.119,1.419,1.419,0,0,1-.033.227,2.77,2.77,0,0,1-.016.624,4.877,4.877,0,0,1-.434.44.449.449,0,0,0-.058.272l.26-.27c.032.01.064.146.078.221a.817.817,0,0,1,.016.154c.018-.03.134-.068.171-.091a.234.234,0,0,1,.16.03.383.383,0,0,1-.074.18,1.168,1.168,0,0,0-.074.148.886.886,0,0,1-.111.212.8.8,0,0,1-.171.093.928.928,0,0,0-.18.1c-.013.02-.061.075-.116.139-.078.09-.172.2-.208.252a.4.4,0,0,0-.05.159.587.587,0,0,1,.131-.246,3.1,3.1,0,0,0,.258-.268l.078.229a.512.512,0,0,1,.211-.144l.386-.091c-.082.115-.189.22-.193.245,0,.045-.031.295-.116.361-.049.038-.218.145-.342.22a.41.41,0,0,1,.165.18,2.454,2.454,0,0,1,.021.4l0-.022a.772.772,0,0,1,.127-.285.644.644,0,0,0,.06-.108.9.9,0,0,0,.038-.176c.042-.013.172.148.2.223a.209.209,0,0,1,.122-.15,1.484,1.484,0,0,1,.182.4.5.5,0,0,1,.147-.236.63.63,0,0,1,.154.431.576.576,0,0,1-.212.323,1.032,1.032,0,0,1-.174.092c.061-.019.222.038.27.038a.469.469,0,0,1,.162.047l-.017.007a.022.022,0,0,1-.013.006l-.266.109c.071-.008.217.006.3.006a.33.33,0,0,0,0-.267.771.771,0,0,1-.063-.2c.027-.022.162.022.22.022l.107,0c.042-.01.021-.058,0-.1-.054-.125-.067-.162-.054-.181.033-.01.061.007.194.114a1.714,1.714,0,0,0,.251.182,1.526,1.526,0,0,1,.162-.373,1.26,1.26,0,0,1,.2.322,1.329,1.329,0,0,1,.022.274.593.593,0,0,1-.112.266,5.212,5.212,0,0,0,.352.425,2.426,2.426,0,0,1,.179.193,3.568,3.568,0,0,0,.726.676c.138.082.188.108.258.143l.127.067Zm-3.48-2.533a.356.356,0,0,1-.005.05.679.679,0,0,0,0,.285,1.206,1.206,0,0,0,.17.178.449.449,0,0,1-.04-.082,1.291,1.291,0,0,1-.122-.431m-.211-.574c-.058.036-.1.062-.111.066a.312.312,0,0,0-.052.163.181.181,0,0,0,.033.079.311.311,0,0,1,.09-.154.223.223,0,0,0,.041-.155" transform="translate(-338.564 -362.05)" fill="#1a4104"/><path d="M365.489,383.068l-.029-.026a.32.32,0,0,1,.226-.1.322.322,0,0,0,.1-.024c.091-.045.26-.135.26-.135.019.035-.151.125-.243.17a.365.365,0,0,1-.117.027.284.284,0,0,0-.2.088" transform="translate(-338.75 -363.531)" fill="#1a4104"/><path d="M365.694,383.1c-.007-.039.189-.083.263-.126a.706.706,0,0,0,.122-.139,1.268,1.268,0,0,1,.294-.31l.021.032a1.294,1.294,0,0,0-.284.3.678.678,0,0,1-.133.149,1.444,1.444,0,0,1-.282.093" transform="translate(-338.81 -363.464)" fill="#1a4104"/><path d="M365.749,383.313l0-.039a.763.763,0,0,0,.312-.069,1.615,1.615,0,0,1,.172-.137c.022.032-.085.106-.145.165a.793.793,0,0,1-.337.08" transform="translate(-338.824 -363.604)" fill="#1a4104"/><path d="M366.125,384.072l0-.038a3.9,3.9,0,0,0,.594-.117c.031.061-.507.146-.59.155" transform="translate(-338.92 -363.824)" fill="#1a4104"/><path d="M366.478,384.233h-.023l0-.039a.9.9,0,0,0,.586-.293.713.713,0,0,1-.565.332" transform="translate(-339.006 -363.82)" fill="#1a4104"/><path d="M367.213,383.845a1.353,1.353,0,0,1-.625-.118l.019-.033a2.608,2.608,0,0,0,1.22.073,1.823,1.823,0,0,1-.615.079" transform="translate(-339.041 -363.766)" fill="#1a4104"/><path d="M367.867,383.389c-.012-.037.016-.1.042-.605h.039c-.031.6-.061.6-.08.6" transform="translate(-339.37 -363.531)" fill="#1a4104"/><path d="M368.17,383.342l-.034-.017a.686.686,0,0,0,.075-.277c.038.006.037.142-.041.294" transform="translate(-339.44 -363.599)" fill="#1a4104"/><path d="M369.368,383.709c-.049,0-.322-.262-.494-.346l.018-.035a2.7,2.7,0,0,1,.482.379h-.005" transform="translate(-339.631 -363.672)" fill="#1a4104"/><path d="M369.662,383.6c-.042,0-.171-.177-.313-.26l.019-.033a1.166,1.166,0,0,1,.3.292h-.006" transform="translate(-339.753 -363.667)" fill="#1a4104"/><path d="M369.836,383.883c-.027-.03.11-.265-.077-.462l.028-.026a.419.419,0,0,1,.049.488" transform="translate(-339.859 -363.689)" fill="#1a4104"/><path d="M365.387,381.108c-.039,0-.128-.077-.182-.143a.265.265,0,0,1-.05-.137.183.183,0,0,0-.028-.089.466.466,0,0,0-.3-.248l.01-.038a.457.457,0,0,1,.295.227.275.275,0,0,1,.058.142.23.23,0,0,0,.042.118,1.448,1.448,0,0,0,.166.163.019.019,0,0,1-.014.005" transform="translate(-338.587 -362.93)" fill="#1a4104"/><path d="M365.79,381.339c-.036,0-.093-.121-.136-.176h0l-.113-.055c-.044-.022-.082-.1-.125-.2a.593.593,0,0,0-.037-.077l-.008-.074c0-.107.009-.286-.286-.307l0-.039c.332.025.325.243.321.348a.486.486,0,0,0,.042.134c.028.065.07.164.105.181.079.019.1.025.13.065a1.364,1.364,0,0,1,.111.2h-.006" transform="translate(-338.652 -362.919)" fill="#1a4104"/><path d="M365.264,380.349c-.036-.016-.011-.094-.093-.189a.564.564,0,0,0-.118-.115l.018-.035a.621.621,0,0,1,.129.125.23.23,0,0,1,.065.214" transform="translate(-338.645 -362.815)" fill="#1a4104"/><path d="M365.687,380.693a.428.428,0,0,1-.093-.447l.036.013a.6.6,0,0,0,.059.434Z" transform="translate(-338.778 -362.876)" fill="#1a4104"/><path d="M365.851,380.766c-.033-.02.093-.274-.075-.4l.023-.03c.2.143.053.427.052.43" transform="translate(-338.831 -362.9)" fill="#1a4104"/><path d="M366.805,381.693c-.039-.009-.039-.025.042-.136a2.449,2.449,0,0,0,.183-.4l.037.013a2.512,2.512,0,0,1-.188.411.5.5,0,0,0-.073.112" transform="translate(-339.09 -363.111)" fill="#1a4104"/><path d="M366.759,382.152l-.037-.012c.109-.366.3-.43.306-.432a1.132,1.132,0,0,0-.269.444" transform="translate(-339.075 -363.254)" fill="#1a4104"/><path d="M367,381.752l-.014-.036a1.4,1.4,0,0,0,.562-.5,1.006,1.006,0,0,1-.548.539" transform="translate(-339.143 -363.126)" fill="#1a4104"/><path d="M365.529,382.739l-.019-.033a.626.626,0,0,1,.382-.127.271.271,0,0,0,.115-.01.436.436,0,0,0,.22-.143c.028.027-.051.134-.209.18a.359.359,0,0,1-.128.013c-.07-.005-.14-.007-.361.121" transform="translate(-338.762 -363.439)" fill="#1a4104"/><path d="M365.808,382.514c-.063,0-.346-.142-.533-.1l-.008-.037a1.036,1.036,0,0,1,.553.137.016.016,0,0,1-.012,0" transform="translate(-338.7 -363.423)" fill="#1a4104"/><path d="M366.272,382.341c-.039,0-.1-.2-.358-.231l0-.037A.4.4,0,0,1,366.272,382.341Z" transform="translate(-338.867 -363.348)" fill="#1a4104"/><path d="M366.96,383.625a1.341,1.341,0,0,0-.565-.022l0-.039c.516-.042.571.036.575.061h-.007" transform="translate(-338.99 -363.73)" fill="#1a4104"/><path d="M366.777,381.108l-.033-.019a3.27,3.27,0,0,1,.482-.65c.024.03-.22.271-.448.668" transform="translate(-339.081 -362.926)" fill="#1a4104"/><path d="M367.377,380.515l-.022-.032a2.819,2.819,0,0,0,.364-.445,1.3,1.3,0,0,1-.342.477" transform="translate(-339.239 -362.823)" fill="#1a4104"/><path d="M366.849,379.984c-.01-.175-.024-.3-.034-.391a.514.514,0,0,1,.036-.371,1.049,1.049,0,0,1,.2-.232.494.494,0,0,0,.122-.14,1.139,1.139,0,0,0,.106-.414.548.548,0,0,1,.16-.344c.025.029-.121.174-.121.344a.972.972,0,0,1-.085.364.5.5,0,0,1-.155.218,1.018,1.018,0,0,0-.194.223c-.059.1-.052.161-.031.348.01.093.024.217.034.392Z" transform="translate(-339.095 -362.32)" fill="#1a4104"/><path d="M366.839,379.712a.839.839,0,0,1-.1-.48.367.367,0,0,1,.1-.127.8.8,0,0,0,.271-.809l.038-.009a.834.834,0,0,1-.281.846.369.369,0,0,0-.09.109,1.67,1.67,0,0,0,.062.47" transform="translate(-339.078 -362.371)" fill="#1a4104"/><path d="M366.059,379.672a5.9,5.9,0,0,1-.51-.378l.022-.032a4.561,4.561,0,0,1,.495.408l-.007,0" transform="translate(-338.773 -362.622)" fill="#1a4104"/><path d="M366.171,379.5a1.137,1.137,0,0,1-.207-.065.967.967,0,0,1-.144-.068.385.385,0,0,0-.113-.05v-.039a.356.356,0,0,1,.131.056.918.918,0,0,0,.137.066,2,2,0,0,1,.218.091.023.023,0,0,1-.023.011" transform="translate(-338.813 -362.626)" fill="#1a4104"/><path d="M365.981,379.165c-.037-.011-.024-.077-.081-.159a.6.6,0,0,0-.1-.092.594.594,0,0,1-.246-.336l.039-.006a.557.557,0,0,0,.231.312.574.574,0,0,1,.1.1.247.247,0,0,1,.049.18" transform="translate(-338.775 -362.444)" fill="#1a4104"/><path d="M366.7,379.07a3.428,3.428,0,0,1,.03-.559,3.47,3.47,0,0,1,.008.556Z" transform="translate(-339.069 -362.429)" fill="#1a4104"/><path d="M366.934,378.958c-.033-.019.087-.272.087-.565h.038a1.44,1.44,0,0,1-.125.565" transform="translate(-339.128 -362.398)" fill="#1a4104"/><path d="M366.65,378.964a.965.965,0,0,1-.073-.237.893.893,0,0,0-.02-.1.372.372,0,0,0-.056-.142c.03-.027.062.009.093.131.01.04.016.07.021.1a.878.878,0,0,0,.07.229Z" transform="translate(-339.018 -362.421)" fill="#1a4104"/><path d="M366.074,378.412h-.039a1.073,1.073,0,0,1,.107-.467.208.208,0,0,0,.033-.143,1.652,1.652,0,0,0-.061-.207c.036-.018.067.062.1.2a.241.241,0,0,1-.036.168,1.036,1.036,0,0,0-.1.453" transform="translate(-338.898 -362.191)" fill="#1a4104"/><path d="M366.27,377.879c-.027-.028.1-.222.269-.3l.016.035a.784.784,0,0,0-.284.263" transform="translate(-338.958 -362.189)" fill="#1a4104"/><path d="M366.177,378.251l-.036-.016a1.171,1.171,0,0,1,.283-.428.285.285,0,0,1,.232-.049c-.01.038-.124.012-.208.079a1.121,1.121,0,0,0-.272.413" transform="translate(-338.925 -362.233)" fill="#1a4104"/><path d="M366.239,377.643l-.033-.02a1.354,1.354,0,0,0,.151-.488.739.739,0,0,1-.118.508" transform="translate(-338.942 -362.073)" fill="#1a4104"/><path d="M367.113,380.419l-.039,0a2.461,2.461,0,0,1,.217-.7c.033.021-.148.393-.178.7" transform="translate(-339.166 -362.74)" fill="#1a4104"/><path d="M366,378.614a.1.1,0,1,0-.1.111.105.105,0,0,0,.1-.111" transform="translate(-338.838 -362.426)" fill="#c0003b"/><path d="M365.894,378.747a.125.125,0,0,1-.116-.131.118.118,0,0,1,.234,0,.125.125,0,0,1-.118.131" transform="translate(-338.832 -362.427)" fill="#1a4104"/><path d="M366.22,378.829a.1.1,0,1,0-.1.111.105.105,0,0,0,.1-.111" transform="translate(-338.895 -362.482)" fill="#c0003b"/><path d="M366.115,378.962a.125.125,0,0,1-.117-.131.118.118,0,0,1,.234,0,.125.125,0,0,1-.118.131" transform="translate(-338.888 -362.483)" fill="#1a4104"/><path d="M366.718,379.9a.1.1,0,1,0-.1.111.105.105,0,0,0,.1-.111" transform="translate(-339.024 -362.759)" fill="#c0003b"/><path d="M366.614,380.035a.125.125,0,0,1-.118-.131.118.118,0,0,1,.234,0,.125.125,0,0,1-.117.131" transform="translate(-339.017 -362.76)" fill="#1a4104"/><path d="M366.983,380.059a.1.1,0,1,0-.1.111.106.106,0,0,0,.1-.111" transform="translate(-339.092 -362.799)" fill="#c0003b"/><path d="M366.878,380.192a.125.125,0,0,1-.118-.131.118.118,0,0,1,.236,0,.125.125,0,0,1-.118.131" transform="translate(-339.085 -362.8)" fill="#1a4104"/><path d="M366.014,381.634a.1.1,0,1,0-.1.111.106.106,0,0,0,.1-.111" transform="translate(-338.842 -363.206)" fill="#c0003b"/><path d="M365.909,381.766a.125.125,0,0,1-.118-.131.118.118,0,0,1,.236,0,.125.125,0,0,1-.118.131" transform="translate(-338.835 -363.207)" fill="#1a4104"/><path d="M366.66,381.963a.1.1,0,1,0-.1.111.106.106,0,0,0,.1-.111" transform="translate(-339.009 -363.291)" fill="#c0003b"/><path d="M366.556,382.095a.126.126,0,0,1-.118-.131.118.118,0,0,1,.234,0,.125.125,0,0,1-.116.131" transform="translate(-339.002 -363.291)" fill="#1a4104"/><path d="M367.041,383.251a.1.1,0,1,0-.1.111.106.106,0,0,0,.1-.111" transform="translate(-339.107 -363.623)" fill="#c0003b"/><path d="M366.937,383.384a.126.126,0,0,1-.119-.131.119.119,0,0,1,.237,0,.126.126,0,0,1-.118.131" transform="translate(-339.1 -363.624)" fill="#1a4104"/><path d="M367.732,383.608a.1.1,0,1,0-.1.111.105.105,0,0,0,.1-.111" transform="translate(-339.285 -363.715)" fill="#c0003b"/><path d="M367.628,383.741a.125.125,0,0,1-.118-.131.118.118,0,0,1,.234,0,.125.125,0,0,1-.116.131" transform="translate(-339.279 -363.716)" fill="#1a4104"/><path d="M368.084,383.6a.1.1,0,1,0-.1.111.106.106,0,0,0,.1-.111" transform="translate(-339.376 -363.712)" fill="#c0003b"/><path d="M367.98,383.727a.126.126,0,0,1-.119-.131.119.119,0,0,1,.237,0,.126.126,0,0,1-.118.131" transform="translate(-339.369 -363.713)" fill="#1a4104"/><path d="M369.171,383.838a.1.1,0,1,0-.1.111.105.105,0,0,0,.1-.111" transform="translate(-339.657 -363.775)" fill="#c0003b"/><path d="M369.065,383.97a.125.125,0,0,1-.116-.131.118.118,0,0,1,.234,0,.125.125,0,0,1-.118.131" transform="translate(-339.65 -363.775)" fill="#1a4104"/></g></g><g transform="translate(362.713 377.734)"><g clip-path="url(#q)"><path d="M376.753,385.728a1.46,1.46,0,0,0-1.125-.285.664.664,0,0,0-.617-.181c-.207.086-.328.527-.328.588,0,.121.222.217.4.23s.6.013.736.027.334.244.334.244a3.74,3.74,0,0,1,.6-.623" transform="translate(-374.683 -385.236)" fill="#bc0030"/></g></g><g transform="translate(329.458 356.834)"><g clip-path="url(#b)"><path d="M375.765,386.1l-.024-.03c-.038-.045-.152-.163-.227-.171-.053-.005-.158-.007-.267-.01s-.213,0-.278-.01c-.137-.01-.327-.085-.327-.2,0-.056.094-.395.262-.464a.541.541,0,0,1,.491.14l.226-.01a.817.817,0,0,1,.609.222,5.525,5.525,0,0,0-.441.5Zm-.747-.846a.256.256,0,0,0-.091.016c-.136.058-.224.368-.224.408,0,.061.134.13.269.14.066,0,.172.007.276.009s.218.005.272.011a.494.494,0,0,1,.243.164,2.478,2.478,0,0,1,.43-.441.986.986,0,0,0-.572-.155l-.186,0-.082-.012a.558.558,0,0,0-.334-.145" transform="translate(-341.119 -364.154)"/></g></g><g transform="translate(361.854 377.538)"><g clip-path="url(#s)"><path d="M375.585,385.7c0-.2-.135-.312-.264-.284a9.4,9.4,0,0,1-1.127.351c-.234.014-.638-.23-.638-.379s.584-.352.584-.352l.4.122a2.631,2.631,0,0,1,.818-.244c.307,0,.489.189.473.339a1.136,1.136,0,0,1-.25.447" transform="translate(-373.556 -384.915)" fill="#bc0030"/></g></g><g transform="translate(329.458 356.834)"><g clip-path="url(#b)"><path d="M374,385.568a.654.654,0,0,1-.312-.1c-.053-.033-.178-.119-.178-.208,0-.123.347-.253.454-.29l.319.09a1.628,1.628,0,0,1,.6-.182.426.426,0,0,1,.321.126.207.207,0,0,1,.061.159c-.009.094-.168.361-.216.361-.031-.151-.1-.215-.166-.215a2,2,0,0,0-.277.089,2.775,2.775,0,0,1-.588.174Zm-.035-.544c-.18.069-.393.179-.393.232,0,.031.047.093.149.155a.59.59,0,0,0,.279.1v.031l.013-.031a2.826,2.826,0,0,0,.571-.171,2.6,2.6,0,0,1,.261-.089.215.215,0,0,1,.232.217c.013-.071.118-.233.125-.31a.151.151,0,0,0-.045-.113.366.366,0,0,0-.275-.1,1.93,1.93,0,0,0-.594.177Z" transform="translate(-340.828 -364.07)"/><path d="M375.173,385.8h-.034a1.62,1.62,0,0,1-.266-.045c-.086-.018-.119,0-.162.045-.035-.054.027-.122.079-.122a.624.624,0,0,1,.1.017,1.707,1.707,0,0,0,.257.044c.188,0,.2-.09.2-.124l.062.007c-.008.068-.05.179-.237.179" transform="translate(-341.134 -364.262)"/><path d="M365.217,385.886l-.052-.032c.128-.206.214-.232.224-.234.015.059-.059.085-.172.266" transform="translate(-338.673 -364.263)"/><path d="M365.274,385.982l-.053-.032c.127-.206.216-.233.226-.235.014.059-.061.085-.172.267" transform="translate(-338.688 -364.288)"/><path d="M365.356,386.063l-.052-.032c.128-.206.217-.232.226-.234.015.059-.06.084-.174.266" transform="translate(-338.709 -364.309)"/><path d="M365.413,386.158l-.053-.032c.126-.206.215-.232.225-.234.014.059-.061.084-.172.266" transform="translate(-338.724 -364.333)"/><path d="M365.495,386.225l-.052-.032c.128-.206.216-.232.226-.234.015.059-.06.085-.174.266" transform="translate(-338.745 -364.351)"/><path d="M365.552,386.321l-.053-.032c.126-.206.215-.233.225-.235.015.059-.06.085-.172.267" transform="translate(-338.76 -364.375)"/><path d="M365.636,386.388l-.053-.032c.126-.206.215-.232.225-.234.014.059-.061.084-.172.266" transform="translate(-338.781 -364.393)"/><path d="M365.69,386.483l-.052-.032c.128-.206.215-.232.224-.234.015.059-.059.084-.172.266" transform="translate(-338.795 -364.417)"/><path d="M365.761,386.55l-.053-.032c.126-.206.215-.232.225-.234.015.059-.06.084-.172.266" transform="translate(-338.814 -364.435)"/></g></g><g transform="translate(355.874 377.734)"><g clip-path="url(#q)"><path d="M365.382,385.728a1.46,1.46,0,0,1,1.125-.285.664.664,0,0,1,.617-.181c.207.086.328.527.328.588,0,.121-.222.217-.4.23s-.6.013-.736.027-.334.244-.334.244a3.739,3.739,0,0,0-.6-.623" transform="translate(-365.382 -385.236)" fill="#bc0030"/></g></g><g transform="translate(329.458 356.834)"><g clip-path="url(#b)"><path d="M365.82,386.1l-.024-.03a2.794,2.794,0,0,0-.434-.455.7.7,0,0,1,.6-.27l.185,0a.688.688,0,0,1,.531-.135c.168.07.263.409.263.464,0,.116-.19.191-.327.2-.066.005-.174.007-.278.01s-.215.005-.267.01c-.076.007-.19.125-.228.171Zm.145-.694a.761.761,0,0,0-.566.2c.119.029.349.3.423.393a.5.5,0,0,1,.244-.164c.053-.006.161-.008.272-.011s.21,0,.275-.009c.137-.01.27-.079.27-.14,0-.041-.088-.35-.225-.408a.5.5,0,0,0-.425.128l-.009.009-.073,0Z" transform="translate(-338.724 -364.154)"/></g></g><g transform="translate(356.522 377.538)"><g clip-path="url(#s)"><path d="M366.55,385.7c0-.2.135-.312.264-.284a9.471,9.471,0,0,0,1.125.351c.236.014.64-.23.64-.379s-.584-.352-.584-.352l-.4.122a2.63,2.63,0,0,0-.82-.244c-.3,0-.487.189-.473.339a1.158,1.158,0,0,0,.252.447" transform="translate(-366.298 -384.915)" fill="#bc0030"/></g></g><g transform="translate(329.458 356.834)"><g clip-path="url(#b)"><path d="M367.519,385.568H367.5a2.768,2.768,0,0,1-.585-.174c-.112-.042-.208-.076-.254-.086a.162.162,0,0,0-.159.18c-.078.035-.239-.239-.249-.329a.214.214,0,0,1,.063-.161.427.427,0,0,1,.319-.125,1.93,1.93,0,0,1,.622.185l.277-.093c.125.038.473.168.473.292s-.309.312-.492.312m-.879-.326a1.861,1.861,0,0,1,.3.093,2.808,2.808,0,0,0,.568.171l.013.031v-.031c.169,0,.43-.166.43-.25,0-.053-.214-.163-.413-.233l-.28.091a2.317,2.317,0,0,0-.617-.18.369.369,0,0,0-.274.1.157.157,0,0,0-.047.114.934.934,0,0,0,.172.31.157.157,0,0,1,.15-.22" transform="translate(-338.955 -364.07)"/><path d="M366.715,385.8c-.188,0-.228-.111-.236-.18l.062-.006c.01.091.08.133.2.123A1.708,1.708,0,0,0,367,385.7a.625.625,0,0,1,.1-.017c.05,0,.109.062.126.081a.223.223,0,0,1-.126-.019.724.724,0,0,0-.082.015,1.627,1.627,0,0,1-.266.045h-.035" transform="translate(-339.013 -364.262)"/></g></g><g transform="translate(356.535 376.775)"><g clip-path="url(#y)"><path d="M371.122,384.021c-2.723-.062-3.836.46-3.85.84a.685.685,0,0,0,.514.677c.182,0,.635-.233.619-.328-.072-.042-.082-.093-.035-.119a12.125,12.125,0,0,1,2.766-.23,9.61,9.61,0,0,1,2.711.23c.017.07-.127.11-.217.207.385-.038.482.2.662.213a.652.652,0,0,0,.543-.623c.014-.394-1.141-.809-3.713-.867" transform="translate(-367.27 -384.017)" fill="#bc0030"/></g></g><g transform="translate(329.458 356.834)"><g clip-path="url(#b)"><path d="M367.643,385.165a.391.391,0,0,1-.249-.136.554.554,0,0,1-.163-.4c.011-.316.819-.657,2.566-.657l.321,0a5.1,5.1,0,0,1,2.712.511.232.232,0,0,1,.072.164.523.523,0,0,1-.423.493.326.326,0,0,1-.166-.068.46.46,0,0,0-.275-.094h-.07l-.013-.048a.525.525,0,0,1,.1-.076c.022-.015.059-.039.057-.049a9.235,9.235,0,0,0-1.982-.147,9.332,9.332,0,0,0-2.037.166l.032.019-.013.1a.893.893,0,0,1-.467.217m2.155-1.129c-1.809,0-2.5.367-2.5.6a.489.489,0,0,0,.145.352.338.338,0,0,0,.2.116.776.776,0,0,0,.429-.208c-.026,0-.048-.03-.048-.062a5.781,5.781,0,0,1,2.1-.232,6.056,6.056,0,0,1,2.042.2c.013.05-.036.083-.084.114a.419.419,0,0,0-.085.067.36.36,0,0,1,.347.049.286.286,0,0,0,.123.057h0a.461.461,0,0,0,.369-.433.167.167,0,0,0-.055-.119c-.1-.1-.579-.446-2.669-.492Z" transform="translate(-339.207 -363.838)"/><path d="M368.133,384.8l-.11-.317.187-.062.013.038-.152.05.033.1.143-.047.013.037-.143.047.037.108.158-.053.013.037Z" transform="translate(-339.411 -363.955)" fill="#f5cd28"/><path d="M368.973,384.3l.039,0,.019.2a.289.289,0,0,1,0,.083.1.1,0,0,1-.032.053.107.107,0,0,1-.068.024.126.126,0,0,1-.069-.011.089.089,0,0,1-.041-.046.268.268,0,0,1-.02-.085l-.018-.2.039,0,.017.2a.239.239,0,0,0,.013.065.071.071,0,0,0,.027.031.079.079,0,0,0,.044.008.074.074,0,0,0,.059-.027.152.152,0,0,0,.011-.089Z" transform="translate(-339.606 -363.923)" fill="#f5cd28"/><path d="M369.589,384.586v-.33h.038v.291h.136v.039Z" transform="translate(-339.815 -363.911)" fill="#f5cd28"/><rect width="0.042" height="0.345" transform="translate(30.019 20.33)" fill="#f5cd28"/><path d="M370.262,384.463l.033.012a.176.176,0,0,1-.038.088.085.085,0,0,1-.065.03.1.1,0,0,1-.065-.023.15.15,0,0,1-.037-.068.322.322,0,0,1-.013-.095.268.268,0,0,1,.015-.1.142.142,0,0,1,.042-.063.1.1,0,0,1,.061-.021.08.08,0,0,1,.062.027.163.163,0,0,1,.035.076l-.032.011a.114.114,0,0,0-.026-.056.052.052,0,0,0-.041-.018.063.063,0,0,0-.047.02.1.1,0,0,0-.026.053.282.282,0,0,0,0,.146.088.088,0,0,0,.027.05.067.067,0,0,0,.042.016.059.059,0,0,0,.047-.022.139.139,0,0,0,.026-.068" transform="translate(-339.941 -363.904)" fill="#f5cd28"/><path d="M371.841,384.579v-.324h.059l.071.229c.007.022.011.038.014.048,0-.012.009-.03.016-.052l.07-.226h.054v.324h-.039v-.272l-.085.272h-.036l-.085-.276v.276Z" transform="translate(-340.396 -363.911)" fill="#f5cd28"/><rect width="0.041" height="0.331" transform="translate(31.79 20.351)" fill="#f5cd28"/><path d="M372.46,384.605v-.331h.033l.131.26v-.26h.032v.331h-.035l-.131-.26v.26Z" transform="translate(-340.556 -363.916)" fill="#f5cd28"/><rect width="0.041" height="0.317" transform="translate(32.191 20.373)" fill="#f5cd28"/><path d="M373.172,384.549l.035.016a.175.175,0,0,1-.05.083.1.1,0,0,1-.075.022.106.106,0,0,1-.068-.03.137.137,0,0,1-.035-.072.292.292,0,0,1,0-.1.287.287,0,0,1,.027-.093.148.148,0,0,1,.052-.058.111.111,0,0,1,.068-.014.092.092,0,0,1,.065.033.137.137,0,0,1,.03.079l-.036.007a.113.113,0,0,0-.021-.059.058.058,0,0,0-.043-.022.073.073,0,0,0-.055.013.114.114,0,0,0-.035.05.321.321,0,0,0-.016.066.28.28,0,0,0,0,.08.1.1,0,0,0,.026.053.071.071,0,0,0,.044.021.068.068,0,0,0,.053-.017.12.12,0,0,0,.035-.064" transform="translate(-340.688 -363.924)" fill="#f5cd28"/><path d="M373.689,384.775l.074-.348.036.009.086.3.056-.272.035.008-.073.346-.036-.007-.085-.3-.058.272Z" transform="translate(-340.873 -363.955)" fill="#f5cd28"/><path d="M367.774,384.954l-.134-.321.111-.048a.133.133,0,0,1,.056-.014.067.067,0,0,1,.04.019.113.113,0,0,1,.03.043.1.1,0,0,1,.006.065.087.087,0,0,1-.041.053.068.068,0,0,1,.027.007.246.246,0,0,1,.046.03l.079.068-.042.019-.061-.053-.042-.033a.1.1,0,0,0-.026-.014.056.056,0,0,0-.019,0l-.019.006-.039.017.06.142Zm-.042-.194.073-.031a.145.145,0,0,0,.033-.021.055.055,0,0,0,.011-.028.073.073,0,0,0-.006-.031.05.05,0,0,0-.029-.032.051.051,0,0,0-.046,0l-.08.034Z" transform="translate(-339.312 -363.992)" fill="#f5cd28"/><path d="M368.491,384.707l-.076-.332.106-.022a.234.234,0,0,1,.044-.005.082.082,0,0,1,.039.007.086.086,0,0,1,.029.028.127.127,0,0,1,.019.043.114.114,0,0,1-.007.077.1.1,0,0,1-.076.045l-.07.016.03.134Zm0-.182.073-.016a.065.065,0,0,0,.046-.026.057.057,0,0,0,.006-.047.071.071,0,0,0-.017-.034.044.044,0,0,0-.028-.015.118.118,0,0,0-.034,0l-.073.015Z" transform="translate(-339.512 -363.935)" fill="#f5cd28"/><path d="M369.22,384.619l-.022-.338.1-.006a.093.093,0,0,1,.05.007.071.071,0,0,1,.032.03.1.1,0,0,1,.006.085.088.088,0,0,1-.026.033.07.07,0,0,1,.039.028.09.09,0,0,1,.016.05.113.113,0,0,1,0,.045.092.092,0,0,1-.019.033.069.069,0,0,1-.027.019.135.135,0,0,1-.043.008Zm.023-.2.058,0a.089.089,0,0,0,.033-.006.033.033,0,0,0,.019-.018.061.061,0,0,0,.006-.03.088.088,0,0,0-.009-.03.034.034,0,0,0-.019-.016.122.122,0,0,0-.04,0l-.053,0Zm.01.156.067,0,.023,0a.046.046,0,0,0,.02-.01.038.038,0,0,0,.012-.02.06.06,0,0,0,0-.029.073.073,0,0,0-.01-.032.038.038,0,0,0-.022-.018.109.109,0,0,0-.041,0l-.061,0Z" transform="translate(-339.714 -363.916)" fill="#f5cd28"/><path d="M370.423,384.579l.105-.352h.039l.113.352h-.042l-.032-.106h-.115l-.03.106Zm.079-.144h.093l-.027-.1a.539.539,0,0,1-.02-.073.547.547,0,0,1-.015.067Z" transform="translate(-340.03 -363.904)" fill="#f5cd28"/><path d="M371.057,384.581v-.345h.1a.166.166,0,0,1,.049.005.08.08,0,0,1,.041.024.141.141,0,0,1,.033.059.277.277,0,0,1,.01.082.251.251,0,0,1-.007.07.155.155,0,0,1-.019.05.1.1,0,0,1-.025.032.1.1,0,0,1-.033.017.141.141,0,0,1-.045.006Zm.036-.041h.059a.115.115,0,0,0,.044-.007.059.059,0,0,0,.025-.017.108.108,0,0,0,.02-.045.275.275,0,0,0,.007-.066.179.179,0,0,0-.015-.083.073.073,0,0,0-.034-.039.117.117,0,0,0-.048-.007h-.058Z" transform="translate(-340.194 -363.906)" fill="#f5cd28"/><path d="M371.446,384.4a.251.251,0,0,1,.033-.138.1.1,0,0,1,.084-.05.089.089,0,0,1,.061.023.148.148,0,0,1,.042.065.313.313,0,0,1,.013.095.28.28,0,0,1-.015.1.146.146,0,0,1-.042.064.1.1,0,0,1-.059.022.092.092,0,0,1-.062-.024.143.143,0,0,1-.04-.066.247.247,0,0,1-.015-.088m.033,0a.188.188,0,0,0,.024.1.069.069,0,0,0,.059.036.07.07,0,0,0,.059-.037.191.191,0,0,0,.024-.105.225.225,0,0,0-.01-.075.1.1,0,0,0-.029-.05.067.067,0,0,0-.044-.018.072.072,0,0,0-.059.035.2.2,0,0,0-.024.113" transform="translate(-340.294 -363.901)" fill="#f5cd28"/><path d="M373.29,384.679l.18-.329.039.008.038.378-.042-.01-.009-.113-.114-.026-.054.1Zm.108-.127.094.021-.009-.1c0-.032,0-.057,0-.078a.287.287,0,0,1-.029.064Z" transform="translate(-340.77 -363.936)" fill="#f5cd28"/><path d="M374.018,384.872l.235-.282.034.017-.039.378-.038-.019.014-.113-.1-.05-.07.086Zm.129-.1.082.042.013-.1c0-.031.009-.057.012-.076-.012.019-.025.038-.039.056Z" transform="translate(-340.958 -363.997)" fill="#f5cd28"/><path d="M372.19,385.33a.568.568,0,0,0-.5-.03l.01.221a.706.706,0,0,1,.216.03l.207.1Z" transform="translate(-340.356 -364.17)" fill="#bc0030"/><path d="M372.131,385.69l-.242-.119a.66.66,0,0,0-.2-.027l-.042-.251a.575.575,0,0,1,.548,0Zm-.35-.2a.345.345,0,0,1,.135.025l.172.083.062-.283a2.388,2.388,0,0,0-.458,0l.024.188c0-.01.03-.016.065-.016" transform="translate(-340.346 -364.162)"/><path d="M369.774,385.351a.568.568,0,0,1,.506-.03l-.01.221a.713.713,0,0,0-.217.03l-.206.1Z" transform="translate(-339.863 -364.175)" fill="#bc0030"/><path d="M369.816,385.707l-.082-.36a.562.562,0,0,1,.553-.063l0,.249c-.072.03-.188.034-.234.057Zm.263-.407a.777.777,0,0,0-.3.07l.079.249.174-.085a.7.7,0,0,1,.231-.033l-.02-.183c-.01.005-.068-.018-.162-.018" transform="translate(-339.853 -364.165)"/><path d="M370.817,385.257v.322a.242.242,0,0,0,.175.045.361.361,0,0,0,.176-.045v-.337a.553.553,0,0,0-.2-.03.309.309,0,0,0-.154.045" transform="translate(-340.132 -364.157)" fill="#bc0030"/><path d="M370.982,385.645a.263.263,0,0,1-.2-.059l-.006-.34a.239.239,0,0,1,.181-.075,1.388,1.388,0,0,1,.211.032l.021.365a.269.269,0,0,1-.206.076m-.141-.079c.025,0,.3-.023.3-.023l-.014-.3c-.012.01-.08-.012-.138-.012-.126.013-.154.031-.161.039l.01.3,0,0" transform="translate(-340.122 -364.148)"/><path d="M371.29,385.659c.05.091.417.06.427-.02a1.46,1.46,0,0,0,.006-.2h-.433Z" transform="translate(-340.254 -364.218)" fill="#bc0030"/><path d="M371.465,385.734h0c-.065,0-.178-.009-.213-.07l0-.232.464-.031a.39.39,0,0,1,.025.231c-.01.081-.183.1-.272.1m.217-.3-.4.03.03.185a1.083,1.083,0,0,0,.367-.025,1.45,1.45,0,0,0,.005-.19" transform="translate(-340.243 -364.207)"/><path d="M371.29,385.232a.724.724,0,0,1,.289-.061.247.247,0,0,1,.155.071l-.022.291a.211.211,0,0,0-.154-.07.569.569,0,0,0-.268.09Z" transform="translate(-340.254 -364.147)" fill="#bc0030"/><path d="M371.249,385.595v-.374a.572.572,0,0,1,.292-.093.309.309,0,0,1,.206.083l-.015.314c-.07-.007-.134-.042-.18-.042a.563.563,0,0,0-.257.087Zm.3-.174a.247.247,0,0,1,.181.085l-.035-.275c0,.015-.046-.033-.128-.042a.777.777,0,0,0-.274.06l.016.243A.551.551,0,0,1,371.547,385.421Z" transform="translate(-340.244 -364.136)"/><path d="M370.666,385.666c-.052.091-.418.06-.429-.02a1.356,1.356,0,0,1,0-.2h.433Z" transform="translate(-339.981 -364.219)" fill="#bc0030"/><path d="M370.468,385.741c-.09,0-.263-.022-.272-.1a1.482,1.482,0,0,1-.005-.2l.464-.03.03.247c-.039.076-.153.086-.217.086m-.231-.272a.715.715,0,0,1,.02.163.651.651,0,0,0,.372.008l0-.2Z" transform="translate(-339.97 -364.209)"/><path d="M370.663,385.239a.733.733,0,0,0-.29-.061.242.242,0,0,0-.154.07l.021.292a.212.212,0,0,1,.155-.07.574.574,0,0,1,.268.091Z" transform="translate(-339.978 -364.149)" fill="#bc0030"/><path d="M370.683,385.6l-.046-.025a.559.559,0,0,0-.254-.086.193.193,0,0,0-.128.055l-.077-.306a.223.223,0,0,1,.182-.1,1.082,1.082,0,0,1,.3.062Zm-.3-.174a.563.563,0,0,1,.243.07v-.271a2.324,2.324,0,0,0-.232-.031.234.234,0,0,0-.157.062l.024.231a.138.138,0,0,1,.122-.062" transform="translate(-339.967 -364.139)"/></g></g></g></g></svg>