<svg xmlns="http://www.w3.org/2000/svg" xmlns:xlink="http://www.w3.org/1999/xlink" width="36" height="36" viewBox="0 0 36 36"><defs><clipPath id="a"><circle cx="18" cy="18" r="18" transform="translate(2414 194)" fill="#fff" stroke="#707070" stroke-width="1"/></clipPath><clipPath id="b"><rect width="61.714" height="36" fill="none"/></clipPath></defs><g transform="translate(-2414 -194)" clip-path="url(#a)"><g transform="translate(1672.373 -162.834)"><g transform="translate(728.628 356.834)" clip-path="url(#b)"><rect width="61.714" height="12" transform="translate(0 24)"/><path d="M790.383,401.224h-61.84V389.1h61.84Zm-61.714-.126h61.588V389.224H728.669Z" transform="translate(-728.606 -365.161)"/><rect width="61.714" height="12" transform="translate(0 12)" fill="#fff"/><path d="M790.383,385.05h-61.84V372.923h61.84Zm-61.714-.126h61.588V373.049H728.669Z" transform="translate(-728.606 -360.986)" fill="#fff"/><rect width="61.714" height="12" fill="#bc0030"/><path d="M790.383,368.875h-61.84V356.748h61.84Zm-61.714-.125h61.588V356.875H728.669Z" transform="translate(-728.606 -356.812)" fill="#bc0030"/><path d="M768.512,388.177a12.536,12.536,0,0,0,2.971-.28c.28-.05.28-.2.28-.382.28-.093.136-.424.33-.424-.194.051-.237-.33-.475-.28,0-.331-.331-.373-.611-.28a9.392,9.392,0,0,1-2.5.23,11.683,11.683,0,0,1-2.5-.23c-.28-.093-.611-.05-.611.28-.237-.05-.279.331-.475.28.2,0,.05.331.33.424,0,.186,0,.332.289.382a12.4,12.4,0,0,0,2.962.28" transform="translate(-737.997 -364.487)" fill="#fff"/><path d="M768.471,388.255a12.343,12.343,0,0,1-2.994-.283.384.384,0,0,1-.373-.419.445.445,0,0,1-.2-.315c-.006-.021-.013-.051-.02-.067l-.025,0a.118.118,0,0,1,.03-.231l.018.007h.012c.019,0,.067-.057.092-.089a.45.45,0,0,1,.249-.194c.062-.278.395-.394.752-.277a8.364,8.364,0,0,0,1.953.2l.51.02a8.878,8.878,0,0,0,2.453-.224c.363-.12.7,0,.755.289a.43.43,0,0,1,.246.181.442.442,0,0,0,.083.088l.038,0a.118.118,0,0,1,.03.231h-.019l-.011,0h0a.207.207,0,0,1-.011.068.448.448,0,0,1-.2.315.387.387,0,0,1-.375.421,12.458,12.458,0,0,1-2.991.281m-3.362-1.16a.767.767,0,0,1,.024.087c.024.1.041.155.124.183a.118.118,0,0,1,.081.112c0,.183,0,.232.191.266a12.3,12.3,0,0,0,2.942.278,12.449,12.449,0,0,0,2.939-.275c.194-.036.194-.085.194-.269a.118.118,0,0,1,.08-.112c.085-.027.1-.082.125-.183.007-.027.014-.056.025-.086a.974.974,0,0,1-.088-.1c-.052-.067-.089-.11-.127-.11a.148.148,0,0,1-.108-.022.128.128,0,0,1-.052-.091c0-.05,0-.206-.243-.206a.69.69,0,0,0-.214.037,9.063,9.063,0,0,1-2.532.235l-.513-.02a8.434,8.434,0,0,1-2.019-.215.682.682,0,0,0-.214-.037c-.242,0-.242.155-.242.206a.12.12,0,0,1-.044.092.11.11,0,0,1-.1.023c-.062,0-.092.042-.144.108a.776.776,0,0,1-.088.1" transform="translate(-737.956 -364.448)" fill="#f0c727"/><path d="M766.119,387.176c-.094,0-.094.051,0,.051.042,0,.042-.051,0-.051" transform="translate(-738.286 -364.665)" fill="#f4d134"/><path d="M766.1,387.268c-.127,0-.134-.074-.134-.089,0-.053.08-.088.134-.088a.089.089,0,1,1,0,.177" transform="translate(-738.264 -364.643)" fill="#f0c727"/><path d="M766.13,386.925c-.052,0-.052.094,0,.094.093,0,.093-.094,0-.094" transform="translate(-738.297 -364.6)" fill="#f4d134"/><path d="M766.108,387.06c-.035,0-.1-.076-.1-.11s.068-.11.1-.11a.112.112,0,1,1,0,.22" transform="translate(-738.275 -364.578)" fill="#f0c727"/><path d="M766.13,387.874c-.052,0-.052.093,0,.093s.042-.093,0-.093" transform="translate(-738.297 -364.845)" fill="#f4d134"/><path d="M766.108,388.009c-.035,0-.1-.076-.1-.11s.068-.11.1-.11.094.076.094.11-.059.11-.094.11" transform="translate(-738.275 -364.823)" fill="#f0c727"/><path d="M766.37,387.942c-.093,0-.093.093,0,.093.052,0,.052-.093,0-.093" transform="translate(-738.351 -364.863)" fill="#f4d134"/><path d="M766.348,388.077a.118.118,0,0,1-.133-.11c0-.058.076-.11.133-.11.035,0,.1.076.1.11a.12.12,0,0,1-.1.11" transform="translate(-738.329 -364.841)" fill="#f0c727"/><path d="M766.635,388c-.042,0-.042.093,0,.093.093,0,.093-.093,0-.093" transform="translate(-738.429 -364.877)" fill="#f4d134"/><path d="M766.613,388.134c-.036,0-.095-.075-.095-.109s.059-.11.095-.11a.112.112,0,1,1,0,.219" transform="translate(-738.407 -364.856)" fill="#f0c727"/><path d="M770.57,387.371c-.044,0-.044.093,0,.093s.05-.093,0-.093" transform="translate(-739.444 -364.715)" fill="#f4d134"/><path d="M770.548,387.5c-.035,0-.1-.075-.1-.109s.061-.11.1-.11.1.075.1.11-.066.109-.1.109" transform="translate(-739.422 -364.693)" fill="#f0c727"/><path d="M770.625,387.622c-.093,0-.093.043,0,.043.042,0,.042-.043,0-.043" transform="translate(-739.449 -364.78)" fill="#f4d134"/><path d="M770.822,388.251c-.044,0-.044.1,0,.1s.05-.1,0-.1" transform="translate(-739.509 -364.942)" fill="#f4d134"/><path d="M770.8,388.394c-.035,0-.1-.079-.1-.114s.061-.114.1-.114.1.08.1.114-.066.114-.1.114" transform="translate(-739.487 -364.92)" fill="#f0c727"/><path d="M771.068,388.251c-.1,0-.1.1,0,.1.044,0,.044-.1,0-.1" transform="translate(-739.562 -364.942)" fill="#f4d134"/><path d="M771.047,388.394a.116.116,0,1,1,0-.229c.035,0,.1.08.1.114,0,.05-.047.114-.1.114" transform="translate(-739.54 -364.92)" fill="#f0c727"/><path d="M773.667,387.748c-.094,0-.094.05,0,.05.05,0,.05-.05,0-.05" transform="translate(-740.234 -364.812)" fill="#f4d134"/><path d="M773.646,387.84c-.127,0-.134-.074-.134-.088,0-.053.08-.088.134-.088.035,0,.1.053.1.088s-.066.088-.1.088" transform="translate(-740.212 -364.79)" fill="#f0c727"/><path d="M766.643,387.688a.319.319,0,0,1-.106-.022.283.283,0,0,1-.14-.062.38.38,0,0,1-.148-.03c-.043.005-.135-.073-.135-.2a2.347,2.347,0,0,0,.114-.365l.031-.118a.063.063,0,0,1,.078-.044.064.064,0,0,1,.044.078l-.031.116a1.821,1.821,0,0,1-.118.363.1.1,0,0,0,.039.053l.092.027a.606.606,0,0,1,.028-.088c.011-.09.03-.134.065-.149a.38.38,0,0,1,.041.068l.035.024s0,.024-.01.044a.034.034,0,0,1,0,.018,1.048,1.048,0,0,1-.036.122.356.356,0,0,0,.085.029c.036.012.072.024.09.012s.045-.063.065-.152l.019.014-.066-.075a.115.115,0,0,1,.1-.041.188.188,0,0,1,.073.116.347.347,0,0,1-.129.249.165.165,0,0,1-.079.019" transform="translate(-738.303 -364.578)" fill="#f0c727"/><path d="M766.239,387.707l-.016,0c-.142-.039-.233-.119-.231-.2,0-.053.036-.122.192-.156a.065.065,0,0,1,.074.048.063.063,0,0,1-.048.075c-.079.016-.093.039-.093.039a.237.237,0,0,0,.138.076.063.063,0,0,1-.016.124" transform="translate(-738.271 -364.708)" fill="#f0c727"/><path d="M767.86,388.075a.131.131,0,0,1-.083-.03c-.012.022-.109,0-.109-.175a.223.223,0,0,1-.106-.039.515.515,0,0,1-.342.032.289.289,0,0,1-.123.106.065.065,0,0,1-.084-.031.063.063,0,0,1,.031-.083.183.183,0,0,0,.079-.07.2.2,0,0,1-.023-.1.125.125,0,0,1,0-.129c.108-.019.141.022.171.108a.378.378,0,0,1-.007.084.321.321,0,0,0,.188-.008.192.192,0,0,1,.2-.309.2.2,0,0,1,.114.189.19.19,0,0,1-.082.153.641.641,0,0,0,.073.045c.033.128.047.128.064.128h0c.027,0,.073-.081.073-.165v-.424c0-.069.126-.069.126,0v.424c0,.115-.063.266-.148.3l-.017,0" transform="translate(-738.533 -364.697)" fill="#f0c727"/><path d="M768.465,387.933a.063.063,0,0,1-.063-.063,2.456,2.456,0,0,1,.027-.275,1.958,1.958,0,0,0,.024-.243c0-.07.126-.07.126,0a2.262,2.262,0,0,1-.025.259,2.144,2.144,0,0,0-.025.258.063.063,0,0,1-.063.063" transform="translate(-738.893 -364.697)" fill="#f0c727"/><path d="M768.661,388.311a.063.063,0,0,1-.039-.112.4.4,0,0,0,.149-.177.392.392,0,0,1-.067-.064.14.14,0,0,1-.012-.15.149.149,0,0,1,.088-.039c.051.007.1.053.125.128,0,.016,0,.033,0,.049l.035,0s.02-.013.027-.094a.08.08,0,0,1-.04-.072c0-.035.049-.1.084-.1s.067.044.079.079h.087a.515.515,0,0,0,.329.019c.114-.022.159.056.159.188a.687.687,0,0,1-.033.1c-.031.082-.059.145-.12.158a.2.2,0,0,1-.15-.076c-.019-.062-.019-.075-.091-.075h-.33a.312.312,0,0,1-.054,0,.5.5,0,0,1-.188.229.061.061,0,0,1-.038.013m.418-.364h.191c.173,0,.2.1.2.156l.053-.1a.345.345,0,0,0,.01-.1.6.6,0,0,1-.384-.025.413.413,0,0,1-.056,0,.4.4,0,0,1-.012.065" transform="translate(-738.944 -364.795)" fill="#f0c727"/><path d="M770.128,388.1a.063.063,0,0,1-.038-.013.2.2,0,0,0-.088,0c-.035,0-.093-.023-.093-.058s0-.059.033-.059v.063l.034-.069a.54.54,0,0,1,.069-.011.158.158,0,0,1,.042-.128.14.14,0,0,1,.155-.028.152.152,0,0,1,.094.144c0,.1-.143.154-.2.156Z" transform="translate(-739.282 -364.823)" fill="#f0c727"/><path d="M770.676,387.96a.119.119,0,0,1-.053-.01.125.125,0,0,1-.059-.083.254.254,0,0,1,.169-.129,1.036,1.036,0,0,0-.031-.372.063.063,0,0,1,.044-.077.062.062,0,0,1,.077.044,1.182,1.182,0,0,1,.032.436c.014,0,.093.036.1.036.045-.005.066-.021.072-.105-.029-.039-.061-.1-.053-.12a.1.1,0,0,1,.1-.042.145.145,0,0,1,.081.093v.042a.068.068,0,0,1,0,.021c-.007.185-.056.237-.2.237a.151.151,0,0,1-.151-.005l-.009-.009a.2.2,0,0,1-.122.044" transform="translate(-739.451 -364.693)" fill="#f0c727"/><path d="M771.452,388.2a.066.066,0,0,1-.044-.019.063.063,0,0,1,0-.089.526.526,0,0,0,.105-.161c-.107-.062-.124-.131-.124-.168s0-.108.064-.134.125.03.18.091c.078.139-.031.355-.137.461a.065.065,0,0,1-.044.019" transform="translate(-739.664 -364.782)" fill="#f0c727"/><path d="M771.888,388.1a.063.063,0,0,1-.022-.122.129.129,0,0,0,.082-.066c-.1.007-.136-.042-.147-.087a.164.164,0,0,1,.1-.174.237.237,0,0,1,.106-.021.161.161,0,0,1,.081.154,1.6,1.6,0,0,0,.565-.183.061.061,0,0,1,.086.021.063.063,0,0,1-.021.087,1.6,1.6,0,0,1-.637.2.24.24,0,0,1-.171.191.057.057,0,0,1-.022,0" transform="translate(-739.769 -364.773)" fill="#f0c727"/><path d="M772.578,387.814a.194.194,0,0,1-.074-.016.7.7,0,0,1-.082-.181.16.16,0,0,0-.016.073c0,.07-.126.07-.126,0a.253.253,0,0,1,.1-.222c0-.012-.005-.025-.008-.038l-.048-.19a.064.064,0,0,1,.044-.078.062.062,0,0,1,.077.045l.048.194.005.021a.21.21,0,0,1,.111.014.176.176,0,0,1,.117.16.141.141,0,0,1-.03.165.164.164,0,0,1-.122.053" transform="translate(-739.894 -364.661)" fill="#f0c727"/><path d="M773.086,387.747a.174.174,0,0,1-.174-.113.265.265,0,0,1,.006-.111.27.27,0,0,1,.378-.048.162.162,0,0,1-.007.174.257.257,0,0,1-.2.1" transform="translate(-740.056 -364.727)" fill="#f0c727"/><path d="M773.5,387.416a.176.176,0,0,1-.076-.019c-.105-.056-.162-.2-.162-.424,0-.046-.014-.075-.041-.086a.131.131,0,0,0-.132.037.062.062,0,0,1-.088-.088.248.248,0,0,1,.268-.065.2.2,0,0,1,.119.2c0,.194.048.289.095.312a.085.085,0,0,0,.061,0,.047.047,0,0,1,.005-.016c.014-.025.082-.1.114-.085s.056.087.056.116a.341.341,0,0,1-.218.111" transform="translate(-740.074 -364.556)" fill="#f0c727"/><path d="M768.379,380.152l4.05,3.76-.287-6.829c-.043-1.035-.943-.8-1.6-.424a17.113,17.113,0,0,1-4.43,0c-.654-.373-1.554-.611-1.6.424l-.289,6.829Z" transform="translate(-737.817 -361.868)" fill="#fff"/><path d="M764.212,383.954a.057.057,0,0,1-.027-.007.062.062,0,0,1-.036-.059l.289-6.829c.027-.663.393-.8.7-.8a2.241,2.241,0,0,1,.993.326,2.371,2.371,0,0,0,2.162.139,2.432,2.432,0,0,0,2.2-.138,2.244,2.244,0,0,1,.995-.328c.3,0,.669.139.7.8l.287,6.829a.065.065,0,0,1-.037.06.063.063,0,0,1-.069-.011l-4.008-3.721-4.1,3.721a.062.062,0,0,1-.042.016m.922-7.573c-.365,0-.552.224-.571.683l-.282,6.679,4.035-3.66a.062.062,0,0,1,.085,0l3.939,3.656-.281-6.677c-.032-.773-.641-.865-1.5-.373a2.5,2.5,0,0,1-2.268.149,2.439,2.439,0,0,1-2.227-.151,2.021,2.021,0,0,0-.928-.309" transform="translate(-737.795 -361.847)" fill="#f0c727"/><path d="M769.976,376.313a1.147,1.147,0,0,0,.611.136,2,2,0,0,1-.569-1.6q.141-1.133-.559-1.273a2.6,2.6,0,0,0-.332-.05c-.143-.042-.252.093-.3.187-.143-.094-.265-.043-.4-.137-.143-.05-.381,0-.381.332l.091-.039a.979.979,0,0,1,.216.105.644.644,0,0,1,.353.494,2.078,2.078,0,0,1-.66,1.976,1.144,1.144,0,0,0,.61-.136,1.531,1.531,0,0,1-.229.28.873.873,0,0,0,.654-.373c.05.093.187.229.237.323.051-.093.187-.229.238-.323a.875.875,0,0,0,.654.373,1.6,1.6,0,0,1-.229-.28" transform="translate(-738.8 -361.141)" fill="#fff"/><path d="M768.194,376.664l.136-.134a1.278,1.278,0,0,0,.091-.094,1.433,1.433,0,0,1-.43.051h-.15l.11-.1a2,2,0,0,0,.643-1.926.52.52,0,0,0-.265-.407l-.067-.048a1.142,1.142,0,0,0-.188-.093l-.141.07v-.089c0-.378.276-.453.459-.387a.413.413,0,0,0,.188.065.632.632,0,0,1,.172.047.349.349,0,0,1,.27-.175,1.124,1.124,0,0,1,.294.042.334.334,0,0,0,.092.016c.511.1.716.552.617,1.339a1.919,1.919,0,0,0,.545,1.539l.154.108h-.187a1.438,1.438,0,0,1-.431-.051c.027.03.055.06.09.095l.134.133-.185-.033a1.007,1.007,0,0,1-.642-.326c-.022.03-.049.062-.074.093a1.1,1.1,0,0,0-.113.152l-.051.095-.052-.095a1.048,1.048,0,0,0-.113-.152l-.074-.093a1,1,0,0,1-.643.326Zm1.3-.584.053.089a.684.684,0,0,0,.433.3c-.032-.039-.065-.084-.107-.146l.078-.084a.958.958,0,0,0,.417.122,2.2,2.2,0,0,1-.462-1.537c.09-.727-.078-1.122-.513-1.209-.036.019-.073-.01-.111-.02a1.039,1.039,0,0,0-.223-.03.277.277,0,0,0-.237.157l-.03.056-.053-.034a.429.429,0,0,0-.18-.06.5.5,0,0,1-.222-.077.206.206,0,0,0-.281.191h0a.515.515,0,0,1,.231.087l.105.07a.637.637,0,0,1,.315.487,2.15,2.15,0,0,1-.571,1.923.962.962,0,0,0,.432-.124l.078.084c-.042.062-.075.108-.106.146a.679.679,0,0,0,.432-.3l.053-.09.05.091a1.043,1.043,0,0,0,.113.152l.073.093c.022-.03.047-.061.073-.093a1.122,1.122,0,0,0,.114-.152Z" transform="translate(-738.748 -361.121)" fill="#f0c727"/><path d="M770.573,377.059a.063.063,0,0,1-.056-.035,2.021,2.021,0,0,1-.274-.97c0-.07.126-.07.126,0a1.9,1.9,0,0,0,.259.913.061.061,0,0,1-.027.084.055.055,0,0,1-.028.007" transform="translate(-739.368 -361.781)" fill="#f0c727"/><path d="M770.005,376.923a.063.063,0,0,1-.053-.029,1.689,1.689,0,0,1-.154-.84c0-.07.126-.07.126,0a1.609,1.609,0,0,0,.133.772.062.062,0,0,1-.019.087.066.066,0,0,1-.034.01" transform="translate(-739.254 -361.781)" fill="#f0c727"/><path d="M768.8,377.059a.06.06,0,0,1-.029-.007.062.062,0,0,1-.027-.085,1.9,1.9,0,0,0,.259-.913c0-.07.126-.07.126,0a2,2,0,0,1-.274.97.063.063,0,0,1-.056.034" transform="translate(-738.98 -361.781)" fill="#f0c727"/><path d="M769.415,376.923a.063.063,0,0,1-.034-.01.063.063,0,0,1-.019-.087,1.6,1.6,0,0,0,.135-.772c0-.07.125-.07.125,0a1.687,1.687,0,0,1-.154.84.063.063,0,0,1-.053.029" transform="translate(-739.138 -361.781)" fill="#f0c727"/><path d="M768.083,373.976a.645.645,0,0,1,.277.11.622.622,0,0,1,.354.452c-.051-.145.043-.289.145-.237a.648.648,0,0,0-.775-.324" transform="translate(-738.811 -361.249)" fill="#f0c727"/><path d="M768.713,374.557a.029.029,0,0,1-.027-.02l0,0c0-.012-.01-.042-.013-.056h0a.594.594,0,0,0-.323-.372l-.054-.062-.013.026a.427.427,0,0,0-.2-.073.174.174,0,0,1,.181-.094.688.688,0,0,1,.623.377c0,.009-.017.014-.023.022s-.033.008-.044.008h0a.163.163,0,0,0-.088.157.033.033,0,0,1,0,.019.124.124,0,0,1,.017.037.029.029,0,0,1-.022.033l-.007,0m-.529-.591a.33.33,0,0,1,.125.05l.068.036a.692.692,0,0,1,.312.3.18.18,0,0,1,.035-.057.126.126,0,0,1,.094-.045.659.659,0,0,0-.632-.284" transform="translate(-738.81 -361.239)" fill="#f0c727"/><path d="M769.681,382.487l.568,2.588-.187.187-.194-.144-.323-2.308.136,2.308-.187.237-.187-.237.136-2.308-.323,2.308-.194.144-.187-.187.568-2.588Z" transform="translate(-738.98 -363.455)" fill="#f0c727"/><path d="M769.48,385.422l-.228-.29.059-1.111-.152,1.085-.214.18-.257-.192.554-2.637.426-.042.62,2.629-.2.236-.264-.139-.166-1.135.065,1.089Zm0-2.591-.133,2.272.131.151.148-.187Zm.135-.35-.322.042-.516,2.546.173.138.124-.149.3-2.273.1.01.1-.01.324,2.309.173.108.117-.182Z" transform="translate(-738.967 -363.436)" fill="#f0c727"/><path d="M764.988,377.021l-.28,6.643-.476.424.289-6.829a1.4,1.4,0,0,1,.467-.237" transform="translate(-737.817 -362.044)" fill="#f0c727"/><path d="M765.769,377.531l-.237,5.558-.476.486.289-6.417c.094.093.374.323.424.373" transform="translate(-738.029 -362.079)" fill="#f0c727"/><path d="M766.516,378.135l-.185,4.635-.383.373.238-5.288c.093.093.28.23.33.28" transform="translate(-738.26 -362.259)" fill="#f0c727"/><path d="M767.275,378.5l-.187,3.95-.374.3.187-4.4a1.386,1.386,0,0,0,.374.144" transform="translate(-738.457 -362.389)" fill="#f0c727"/><path d="M767.987,378.553l-.136,3.292-.381.373.143-3.623a.987.987,0,0,0,.374-.042" transform="translate(-738.652 -362.439)" fill="#f0c727"/><path d="M774.263,377.021l.281,6.643.474.424-.289-6.829a1.4,1.4,0,0,0-.467-.237" transform="translate(-740.406 -362.044)" fill="#f0c727"/><path d="M773.5,377.531l.237,5.558.475.416-.289-6.347c-.094.093-.374.323-.424.373" transform="translate(-740.208 -362.079)" fill="#f0c727"/><path d="M772.8,378.136l.2,4.635.372.3-.238-5.217c-.093.093-.28.229-.33.28" transform="translate(-740.028 -362.259)" fill="#f0c727"/><path d="M772.044,378.5l.187,3.88.374.3-.187-4.327a1.367,1.367,0,0,1-.374.144" transform="translate(-739.833 -362.389)" fill="#f0c727"/><path d="M771.347,378.553l.137,3.292.381.373-.143-3.623a.988.988,0,0,1-.374-.042" transform="translate(-739.653 -362.439)" fill="#f0c727"/><path d="M767.649,380.955l-1.128,4,1.553.238.661-3.012Z" transform="translate(-738.408 -363.059)" fill="#fff"/><path d="M768.053,385.236h-.009L766.491,385a.058.058,0,0,1-.041-.027.057.057,0,0,1-.007-.047l1.129-4a.058.058,0,0,1,.043-.042.064.064,0,0,1,.057.018l1.085,1.23-.648,3.063a.058.058,0,0,1-.057.047m-1.479-.344,1.433.219.649-2.957-1-1.1Z" transform="translate(-738.387 -363.039)" fill="#f0c727"/><path d="M771.1,380.955l1.128,4-1.552.238-.663-3.012Z" transform="translate(-739.308 -363.059)" fill="#fff"/><path d="M770.651,385.236a.06.06,0,0,1-.057-.047l-.662-3.011,1.1-1.282a.064.064,0,0,1,.058-.018.059.059,0,0,1,.042.041l1.128,4a.058.058,0,0,1-.048.073l-1.551.238h-.01m.4-4.181-1.016,1.15.663,2.907,1.433-.22Z" transform="translate(-739.288 -363.039)" fill="#f0c727"/><path d="M767.653,383.121h-.011a.062.062,0,0,1-.047-.038l-.136-.33a.063.063,0,0,1,.034-.082.061.061,0,0,1,.082.034l.1.239.358-.394a.06.06,0,0,1,.088,0,.062.062,0,0,1,0,.088l-.425.467a.065.065,0,0,1-.046.021" transform="translate(-738.648 -363.465)" fill="#f0c727"/><path d="M768.359,383.2a.037.037,0,0,1-.016,0,.062.062,0,0,1-.046-.053l-.145-1.315a.061.061,0,0,1,.056-.068.064.064,0,0,1,.069.056l.128,1.159.372-.487a.063.063,0,1,1,.1.077l-.467.611a.065.065,0,0,1-.05.024" transform="translate(-738.828 -363.268)" fill="#f0c727"/><path d="M769.066,383.861a.063.063,0,0,1-.058-.04l-.28-.7a.062.062,0,0,1,.035-.081.059.059,0,0,1,.081.035l.28.7a.062.062,0,0,1-.035.081.05.05,0,0,1-.023.005" transform="translate(-738.976 -363.595)" fill="#f0c727"/><path d="M768.217,384.6l-.016,0a.062.062,0,0,1-.044-.042l-.193-.614-.16.294c-.011.021-.036.047-.058.033a.062.062,0,0,1-.055-.039l-.16-.385-.349.314a.063.063,0,1,1-.085-.093l.416-.373a.052.052,0,0,1,.056-.014.064.064,0,0,1,.044.037l.143.345.168-.309a.077.077,0,0,1,.062-.033.064.064,0,0,1,.054.044l.206.657.308-.309a.062.062,0,0,1,.088.088l-.381.382a.064.064,0,0,1-.044.019" transform="translate(-738.551 -363.76)" fill="#f0c727"/><path d="M768.326,385.638a.063.063,0,0,1-.062-.05l-.116-.58-.29.369a.057.057,0,0,1-.06.023.062.062,0,0,1-.048-.042l-.151-.457-.258.332a.072.072,0,0,1-.058.024.063.063,0,0,1-.05-.038l-.289-.7a.063.063,0,0,1,.034-.082.061.061,0,0,1,.082.034l.248.6.264-.339a.07.07,0,0,1,.06-.023.062.062,0,0,1,.049.042l.151.457.3-.384a.058.058,0,0,1,.064-.021.064.064,0,0,1,.047.049l.143.712a.064.064,0,0,1-.049.074h-.013" transform="translate(-738.515 -363.955)" fill="#f0c727"/><path d="M767.929,386.467a.066.066,0,0,1-.059-.044l-.144-.436-.211.355c-.012.021-.036.044-.059.03a.062.062,0,0,1-.053-.04l-.2-.511-.211.289a.064.064,0,0,1-.088.013.062.062,0,0,1-.013-.088l.279-.382a.073.073,0,0,1,.059-.025.064.064,0,0,1,.05.04l.191.5.214-.364a.061.061,0,0,1,.061-.03.064.064,0,0,1,.053.043l.159.481.217-.18a.063.063,0,1,1,.079.1l-.288.237a.062.062,0,0,1-.04.015" transform="translate(-738.501 -364.266)" fill="#f0c727"/><path d="M771.623,383.121a.064.064,0,0,1-.046-.021l-.424-.467a.062.062,0,0,1,0-.088.06.06,0,0,1,.088,0l.357.393.1-.238a.061.061,0,0,1,.082-.034.063.063,0,0,1,.034.082l-.137.33a.062.062,0,0,1-.047.038h-.011" transform="translate(-739.599 -363.465)" fill="#f0c727"/><path d="M770.908,383.2a.061.061,0,0,1-.049-.024l-.476-.611a.063.063,0,0,1,.011-.088.061.061,0,0,1,.088.011l.38.487.12-1.16a.063.063,0,0,1,.068-.056.063.063,0,0,1,.056.068l-.136,1.315a.062.062,0,0,1-.045.053.042.042,0,0,1-.017,0" transform="translate(-739.401 -363.268)" fill="#f0c727"/><path d="M770.307,383.861a.049.049,0,0,1-.023-.005.061.061,0,0,1-.035-.081l.28-.7a.059.059,0,0,1,.081-.035.062.062,0,0,1,.035.081l-.28.7a.063.063,0,0,1-.058.04" transform="translate(-739.369 -363.595)" fill="#f0c727"/><path d="M770.749,384.6a.07.07,0,0,1-.045-.019l-.373-.382a.062.062,0,0,1,0-.089.065.065,0,0,1,.089,0l.295.3.16-.645a.062.062,0,0,1,.05-.047.063.063,0,0,1,.063.027l.215.325.148-.357a.063.063,0,0,1,.044-.037.06.06,0,0,1,.056.013l.425.373a.062.062,0,0,1,.005.088.061.061,0,0,1-.088.006l-.358-.315-.161.386a.063.063,0,0,1-.052.039.067.067,0,0,1-.058-.027l-.2-.3-.153.617a.064.064,0,0,1-.045.045l-.016,0" transform="translate(-739.386 -363.761)" fill="#f0c727"/><path d="M770.684,385.638h-.013a.064.064,0,0,1-.049-.074l.145-.712a.063.063,0,0,1,.047-.049.058.058,0,0,1,.064.022l.3.383.151-.457a.062.062,0,0,1,.049-.042.065.065,0,0,1,.06.023l.265.339.248-.6a.061.061,0,0,1,.082-.034.062.062,0,0,1,.034.082l-.288.7a.065.065,0,0,1-.05.038.069.069,0,0,1-.058-.024l-.26-.332-.151.457a.062.062,0,0,1-.048.042.058.058,0,0,1-.06-.024l-.289-.368-.118.58a.063.063,0,0,1-.062.05" transform="translate(-739.466 -363.955)" fill="#f0c727"/><path d="M771.1,386.467a.062.062,0,0,1-.04-.015l-.288-.237a.063.063,0,1,1,.079-.1l.217.18.159-.481a.064.064,0,0,1,.053-.043.067.067,0,0,1,.061.03l.213.363.191-.5a.064.064,0,0,1,.05-.04.073.073,0,0,1,.059.025l.28.382a.063.063,0,0,1-.014.088.064.064,0,0,1-.088-.013l-.211-.289-.2.511a.062.062,0,0,1-.053.04c-.022.013-.047-.01-.059-.03l-.21-.355-.143.435a.066.066,0,0,1-.059.044" transform="translate(-739.499 -364.266)" fill="#f0c727"/><path d="M769.134,377.855a2.584,2.584,0,0,0,1.791.518,2.254,2.254,0,1,1-3.582,0,2.568,2.568,0,0,0,1.791-.518" transform="translate(-738.62 -362.259)" fill="#fff"/><path d="M769.119,382.028a.047.047,0,0,1-.024-.007,4.073,4.073,0,0,1-1.811-3.658.554.554,0,0,1,.239-.039,2.475,2.475,0,0,0,1.569-.514,2.751,2.751,0,0,0,1.815.508,3.969,3.969,0,0,1-1.764,3.7.049.049,0,0,1-.024.007m-1.794-3.623a4.106,4.106,0,0,0,1.794,3.526,3.987,3.987,0,0,0,1.746-3.572c-.019.05-.085.052-.149.052a2.6,2.6,0,0,1-1.625-.533,2.307,2.307,0,0,1-1.569.533c-.065,0-.131,0-.2-.006" transform="translate(-738.604 -362.247)" fill="#f0c727"/><path d="M769.184,381.874a3.9,3.9,0,0,0,1.6-3.3,2.486,2.486,0,0,1-1.6-.467,2.609,2.609,0,0,1-1.646.467,4.059,4.059,0,0,0,1.646,3.3" transform="translate(-738.67 -362.324)" fill="#f0c727"/><path d="M769.164,381.913a.063.063,0,0,1-.033-.01,4.132,4.132,0,0,1-1.672-3.346.065.065,0,0,1,.016-.044.063.063,0,0,1,.043-.018,2.53,2.53,0,0,0,1.61-.455.062.062,0,0,1,.076,0,2.412,2.412,0,0,0,1.565.453.061.061,0,0,1,.042.018.06.06,0,0,1,.016.043,3.965,3.965,0,0,1-1.63,3.348.067.067,0,0,1-.033.01m-1.584-3.3a4.009,4.009,0,0,0,1.584,3.172,3.843,3.843,0,0,0,1.543-3.172,2.593,2.593,0,0,1-1.545-.449,2.639,2.639,0,0,1-1.582.449" transform="translate(-738.65 -362.304)" fill="#f0c727"/><path d="M767.145,386.268a4.758,4.758,0,0,0,1.137.051c.187,0,.322.323-.05.373a4.5,4.5,0,0,1-1.129-.05c-.237-.043-.755-.137-1.086-.23-.331-.144-.093-.424.094-.381a6.187,6.187,0,0,0,1.035.237" transform="translate(-738.235 -364.368)" fill="#fff"/><path d="M767.889,386.751a5.028,5.028,0,0,1-.818-.069c-.226-.041-.755-.135-1.093-.231-.223-.1-.218-.237-.206-.292a.292.292,0,0,1,.278-.217,7.805,7.805,0,0,0,1.082.242,4.885,4.885,0,0,0,1.12.052h0a.258.258,0,0,1,.255.234c.007.108-.065.233-.29.263a2.635,2.635,0,0,1-.329.018m-1.823-.683a.171.171,0,0,0-.171.116c-.016.076.071.125.125.149.324.091.848.185,1.072.226a4.489,4.489,0,0,0,1.11.05c.119-.016.185-.064.181-.131a.131.131,0,0,0-.122-.117,5.226,5.226,0,0,1-1.146-.053,6.244,6.244,0,0,1-1.045-.24Z" transform="translate(-738.213 -364.346)" fill="#f0c727"/><path d="M771.459,386.268a4.7,4.7,0,0,1-1.128.051c-.2,0-.331.323.042.373a4.5,4.5,0,0,0,1.129-.05c.237-.043.755-.137,1.086-.23.331-.144.093-.424-.094-.381a6.156,6.156,0,0,1-1.035.237" transform="translate(-739.341 -364.368)" fill="#fff"/><path d="M770.672,386.752a2.645,2.645,0,0,1-.329-.017c-.225-.03-.3-.155-.29-.262a.263.263,0,0,1,.256-.237,4.712,4.712,0,0,0,1.12-.05,6.064,6.064,0,0,0,1.023-.235.3.3,0,0,1,.337.21c.012.056.016.2-.2.289-.347.1-.875.194-1.1.234a5.131,5.131,0,0,1-.818.068m-.372-.39a.137.137,0,0,0-.122.119c0,.066.062.113.181.129a4.524,4.524,0,0,0,1.109-.05c.224-.041.748-.135,1.081-.228.045-.021.133-.071.116-.146a.168.168,0,0,0-.155-.117,6.978,6.978,0,0,1-1.065.242,4.952,4.952,0,0,1-1.146.051" transform="translate(-739.319 -364.348)" fill="#f0c727"/><path d="M765.892,386.1a.326.326,0,0,0-.33.467c.042-.093.237-.093.28-.187.05-.144-.042-.144.05-.28" transform="translate(-738.152 -364.386)" fill="#fff"/><path d="M765.539,386.607a.062.062,0,0,1-.056-.035.417.417,0,0,1,.028-.39.349.349,0,0,1,.3-.173c.021,0,.073.021.081.041s.041.046.028.063c-.037.054-.034.07-.029.1a.287.287,0,0,1-.014.162.283.283,0,0,1-.176.131c-.044.018-.095.037-.105.061a.051.051,0,0,1-.058.037m.229-.461a.218.218,0,0,0-.15.1.311.311,0,0,0-.045.181.741.741,0,0,1,.083-.037c.045-.017.095-.037.105-.061a.157.157,0,0,0,.007-.1.224.224,0,0,1,0-.089" transform="translate(-738.13 -364.364)" fill="#f0c727"/><path d="M767.486,387.066c0-.186.187-.163.187-.35,0-.093-.05-.237-.145-.237a.2.2,0,0,0-.187.187c-.042.186.145.214.145.4" transform="translate(-738.618 -364.485)" fill="#fff"/><path d="M767.464,387.107a.063.063,0,0,1-.063-.063.227.227,0,0,0-.066-.151.285.285,0,0,1-.076-.263.258.258,0,0,1,.248-.236c.142,0,.208.18.208.3a.273.273,0,0,1-.115.223.149.149,0,0,0-.072.128.063.063,0,0,1-.063.063m.042-.588a.14.14,0,0,0-.124.124.176.176,0,0,0,.051.171c.012.016.025.032.037.05a.585.585,0,0,1,.046-.043.151.151,0,0,0,.071-.128c0-.082-.043-.174-.082-.174" transform="translate(-738.596 -364.463)" fill="#f0c727"/><path d="M769.307,386.547c.28,0,.252.374.116.56,0-.136-.237-.186-.237-.28,0-.144.214-.144.122-.28" transform="translate(-739.095 -364.502)" fill="#fff"/><path d="M769.4,387.148a.055.055,0,0,1-.019,0,.062.062,0,0,1-.044-.059c0-.042-.054-.079-.108-.116s-.13-.089-.13-.164a.232.232,0,0,1,.106-.182.138.138,0,0,1,.01-.1c.011-.021.045-.065.069-.065a.256.256,0,0,1,.241.14.55.55,0,0,1-.075.519.062.062,0,0,1-.05.027m-.032-.54a.2.2,0,0,1-.082.112c-.039.032-.06.051-.06.085a.334.334,0,0,0,.074.061.585.585,0,0,1,.1.082.394.394,0,0,0,.011-.289.131.131,0,0,0-.046-.05" transform="translate(-739.073 -364.481)" fill="#f0c727"/><path d="M773.5,386.1a.326.326,0,0,1,.33.467c-.042-.093-.237-.093-.28-.187-.05-.144.042-.144-.05-.28" transform="translate(-740.208 -364.386)" fill="#fff"/><path d="M773.806,386.609c-.03-.007-.047-.015-.058-.037s-.061-.044-.105-.061a.288.288,0,0,1-.174-.126.3.3,0,0,1-.016-.168c.005-.032.008-.048-.029-.1a.062.062,0,0,1,.041-.1.35.35,0,0,1,.369.166.417.417,0,0,1,.028.39.063.063,0,0,1-.056.035m-.231-.468a.213.213,0,0,1,0,.1.162.162,0,0,0,.009.1c.008.019.059.038.1.056a.621.621,0,0,1,.083.037.315.315,0,0,0-.045-.182.231.231,0,0,0-.151-.108" transform="translate(-740.186 -364.365)" fill="#f0c727"/><path d="M771.911,387.066c0-.186-.187-.163-.187-.35,0-.093.05-.237.145-.237a.2.2,0,0,1,.187.187c.042.186-.145.214-.145.4" transform="translate(-739.75 -364.485)" fill="#fff"/><path d="M771.889,387.107a.063.063,0,0,1-.063-.063.149.149,0,0,0-.072-.128.273.273,0,0,1-.115-.223c0-.121.066-.3.208-.3a.264.264,0,0,1,.25.25.276.276,0,0,1-.079.249.227.227,0,0,0-.066.151.063.063,0,0,1-.063.063m-.042-.588c-.039,0-.082.093-.082.174a.151.151,0,0,0,.071.128.6.6,0,0,1,.046.043c.012-.019.025-.034.037-.05a.167.167,0,0,0,.053-.157.146.146,0,0,0-.126-.138" transform="translate(-739.728 -364.463)" fill="#f0c727"/><path d="M770.09,386.547c-.28,0-.252.374-.116.56,0-.136.237-.186.237-.28,0-.144-.214-.144-.122-.28" transform="translate(-739.273 -364.502)" fill="#fff"/><path d="M769.953,387.148a.062.062,0,0,1-.051-.027.55.55,0,0,1-.075-.519.256.256,0,0,1,.241-.14.061.061,0,0,1,.056.034.063.063,0,0,1,0,.065c.068.1.132.15.132.245,0,.075-.066.121-.13.164s-.108.074-.108.116a.062.062,0,0,1-.044.059.056.056,0,0,1-.019,0m.032-.54a.131.131,0,0,0-.046.05.394.394,0,0,0,.011.289.592.592,0,0,1,.1-.082.317.317,0,0,0,.075-.062c0-.033-.022-.052-.061-.084a.2.2,0,0,1-.082-.112" transform="translate(-739.251 -364.481)" fill="#f0c727"/><path d="M766.144,386.227a.463.463,0,0,1,.28.093Z" transform="translate(-738.31 -364.42)" fill="#fff"/><path d="M766.408,386.349l-.015,0-.28-.093a.046.046,0,0,1-.03-.049.045.045,0,0,1,.044-.037.5.5,0,0,1,.314.108.047.047,0,0,1,0,.053.044.044,0,0,1-.036.019" transform="translate(-738.295 -364.405)" fill="#f0c727"/><path d="M766.773,386.422a1.045,1.045,0,0,1,.329.093Z" transform="translate(-738.473 -364.47)" fill="#fff"/><path d="M767.088,386.544h-.012l-.33-.093a.044.044,0,0,1-.032-.048c.01-.08.26-.014.395.06a.044.044,0,0,1,.02.055.045.045,0,0,1-.041.027" transform="translate(-738.457 -364.455)" fill="#f0c727"/><path d="M768.945,386.673a.768.768,0,0,0-.33.043Z" transform="translate(-738.948 -364.535)" fill="#fff"/><path d="M768.6,386.744a.045.045,0,0,1-.041-.027.043.043,0,0,1,.013-.05.651.651,0,0,1,.358-.054.045.045,0,0,1,.045.042.043.043,0,0,1-.039.046l-.33.043H768.6" transform="translate(-738.932 -364.52)" fill="#f0c727"/><path d="M768.247,386.66a.379.379,0,0,0-.332,0Z" transform="translate(-738.767 -364.522)" fill="#fff"/><path d="M768.231,386.683H767.9a.044.044,0,0,1-.021-.083c.084-.044.272-.106.384.007a.044.044,0,0,1-.031.076" transform="translate(-738.752 -364.501)" fill="#f0c727"/><path d="M773.274,386.227a.488.488,0,0,0-.281.093Z" transform="translate(-740.078 -364.42)" fill="#fff"/><path d="M772.978,386.349a.044.044,0,0,1-.03-.076.528.528,0,0,1,.312-.1.043.043,0,0,1,.043.037.044.044,0,0,1-.03.049l-.28.093-.014,0" transform="translate(-740.063 -364.405)" fill="#f0c727"/><path d="M772.628,386.422a1.055,1.055,0,0,0-.332.093Z" transform="translate(-739.898 -364.47)" fill="#fff"/><path d="M772.281,386.544a.045.045,0,0,1-.041-.027.044.044,0,0,1,.02-.056c.143-.076.384-.139.4-.059a.044.044,0,0,1-.032.048l-.332.093h-.012" transform="translate(-739.883 -364.455)" fill="#f0c727"/><path d="M770.454,386.673a.776.776,0,0,1,.332.043Z" transform="translate(-739.423 -364.535)" fill="#fff"/><path d="M770.77,386.744h-.006l-.332-.043a.043.043,0,0,1-.039-.046.045.045,0,0,1,.044-.042.656.656,0,0,1,.36.054.043.043,0,0,1,.013.05.045.045,0,0,1-.041.027" transform="translate(-739.407 -364.52)" fill="#f0c727"/><path d="M771.151,386.66a.38.38,0,0,1,.332,0Z" transform="translate(-739.602 -364.522)" fill="#fff"/><path d="M771.468,386.683h-.332a.044.044,0,0,1-.03-.076.34.34,0,0,1,.383-.006.043.043,0,0,1,.022.049.045.045,0,0,1-.043.033" transform="translate(-739.587 -364.501)" fill="#f0c727"/><path d="M770.239,374a.7.7,0,0,0-.491-.468,1.287,1.287,0,0,0-.375-.025c-.145-.042-.262.111-.313.2.144.1.177.206.251.237.143.051.216,0,.361-.136a.358.358,0,0,1,.568.187" transform="translate(-739.063 -361.135)" fill="#f0c727"/><path d="M769.4,373.987a.333.333,0,0,1-.108-.021.31.31,0,0,1-.106-.094.755.755,0,0,0-.151-.146c.02-.092.126-.266.28-.266l.123.007a.816.816,0,0,1,.31.027.691.691,0,0,1,.473.4c-.185-.129-.42-.193-.538-.072-.106.1-.182.164-.283.164m-.051-.462a.315.315,0,0,0-.272.19.312.312,0,0,1,.154.119.27.27,0,0,0,.082.078c.122.042.179.01.329-.131a.379.379,0,0,1,.449-.024.72.72,0,0,0-.357-.207.787.787,0,0,0-.227-.026h-.158" transform="translate(-739.057 -361.125)" fill="#f0c727"/><path d="M769.413,373.681a.072.072,0,0,0,0,.145.072.072,0,0,0,0-.145" transform="translate(-739.136 -361.182)" fill="#fff"/><path d="M769.391,373.875a.131.131,0,0,1-.133-.136c0-.154.265-.154.265,0a.131.131,0,0,1-.132.136" transform="translate(-739.114 -361.167)" fill="#fff"/><path d="M770.133,378.421v2.961a3.2,3.2,0,0,1-.576.493,3.256,3.256,0,0,1-.577-.493v-2.969a2.212,2.212,0,0,0,.577-.306,1.776,1.776,0,0,0,.576.314" transform="translate(-739.042 -362.324)" fill="#fff"/></g></g></g></svg>