<svg xmlns="http://www.w3.org/2000/svg" xmlns:xlink="http://www.w3.org/1999/xlink" width="36" height="36" viewBox="0 0 36 36"><defs><clipPath id="a"><circle cx="18" cy="18" r="18" transform="translate(3258 779)" fill="#fff" stroke="#707070" stroke-width="1"/></clipPath><clipPath id="b"><rect width="61.713" height="36" fill="none"/></clipPath></defs><g transform="translate(-3258 -779)" clip-path="url(#a)"><g transform="translate(2824.748 500.96)"><g transform="translate(429.252 278.04)" clip-path="url(#b)"><rect width="61.713" height="36" fill="#22368f"/><path d="M443.085,303.034l-.461-7.662-1.607,4.222.717-4.46L439.09,298.8l1.847-4.123-3.5,2.852,2.853-3.5-4.123,1.847,3.661-2.646-4.46.718,4.221-1.608-7.661-.461,7.661-.461-4.221-1.608,4.46.719-3.661-2.646,4.123,1.848-2.853-3.5,3.5,2.852-1.847-4.123,2.645,3.662-.717-4.46,1.607,4.223.461-7.662.461,7.662,1.608-4.223-.719,4.46,2.646-3.662-1.849,4.123,3.5-2.852-2.852,3.5,4.123-1.848-3.661,2.646,4.46-.719-4.222,1.608,7.662.461-7.662.461,4.222,1.608-4.46-.718,3.661,2.646-4.123-1.847,2.852,3.5-3.5-2.852,1.849,4.123-2.646-3.661.719,4.46-1.608-4.222Z" transform="translate(-429.942 -278.73)" fill="#fff"/><path d="M429.252,312.514v1.152l61.713-20.737V278.817Z" transform="translate(-429.252 -278.241)" fill="#fff"/><path d="M429.252,312.514v.575l61.713-27.216v-7.055Z" transform="translate(-429.252 -278.241)" fill="#ce731e"/></g></g></g></svg>