<svg xmlns="http://www.w3.org/2000/svg" xmlns:xlink="http://www.w3.org/1999/xlink" width="36" height="36" viewBox="0 0 36 36"><defs><clipPath id="a"><circle cx="18" cy="18" r="18" transform="translate(1787 365)" fill="#fff" stroke="#707070" stroke-width="1"/></clipPath><clipPath id="b"><rect width="61.713" height="36" fill="none"/></clipPath></defs><g transform="translate(-1787 -365)" clip-path="url(#a)"><g transform="translate(1653.128 -70.625)"><g transform="translate(129.872 435.625)" clip-path="url(#b)"><rect width="61.714" height="35.999" transform="translate(0 0.001)" fill="#c8242a"/><rect width="28.062" height="17.858" transform="translate(0 0.001)" fill="#323f9d"/><path d="M149.355,446.075A2.352,2.352,0,1,1,147,443.752a2.338,2.338,0,0,1,2.352,2.323m-7.334-.52.277-1.075.76.313.415-.868-.657-.416.657-.9.623.625.691-.625-.415-.694,1-.52.243.868.933-.278-.1-.8,1.072-.035-.07.832.969.311.242-.866.969.485-.45.729.761.59.588-.625.657.832-.691.486.45.868.761-.278.243,1.075-.8.07-.034.97.8.07-.242,1.11-.8-.348-.346.9.657.416-.657.867-.553-.625-.762.625.45.729-1,.485-.276-.833-.935.243.1.832-1.106.034.1-.832-.9-.243-.311.8-.935-.485.45-.694-.8-.589-.588.589-.692-.832.727-.52-.45-.833-.726.278-.311-1.075.864-.07v-.97Z" transform="translate(-133.008 -437.051)" fill="#fff" fill-rule="evenodd"/><path d="M149.109,439.614l-.752-.514-.754.51.268-.858-.729-.544.917-.016.3-.847.3.848.918.02-.732.541Z" transform="translate(-134.329 -436.069)" fill="#fff" fill-rule="evenodd"/><path d="M148.97,457.188l-.752-.514-.754.51.268-.858-.729-.544.917-.016.3-.847.3.848.918.021-.732.539Z" transform="translate(-134.293 -440.605)" fill="#fff" fill-rule="evenodd"/><path d="M153.213,440.455l-.752-.514-.754.51.268-.858-.729-.545.917-.016.3-.846.3.849.918.02-.732.541Z" transform="translate(-135.388 -436.286)" fill="#fff" fill-rule="evenodd"/><path d="M153.073,456.44l-.752-.514-.754.51.268-.858-.73-.544.918-.016.3-.846.3.848.918.021-.732.539Z" transform="translate(-135.352 -440.412)" fill="#fff" fill-rule="evenodd"/><path d="M145.193,440.455l-.752-.514-.755.51.268-.858-.729-.545.918-.016.3-.846.3.849.918.02-.733.541Z" transform="translate(-133.318 -436.286)" fill="#fff" fill-rule="evenodd"/><path d="M145.053,456.253l-.752-.514-.754.511.268-.858-.729-.545.917-.016.3-.846.3.849.918.02-.732.539Z" transform="translate(-133.282 -440.364)" fill="#fff" fill-rule="evenodd"/><path d="M142.022,442.7l-.752-.514-.755.51.268-.858-.729-.544.918-.016.3-.846.3.848.918.022-.733.539Z" transform="translate(-132.5 -436.865)" fill="#fff" fill-rule="evenodd"/><path d="M142.022,453.542l-.752-.514-.755.511.268-.858-.729-.545.918-.016.3-.847.3.848.918.021-.733.539Z" transform="translate(-132.5 -439.664)" fill="#fff" fill-rule="evenodd"/><path d="M140.437,446.063l-.752-.514-.754.511.268-.858-.729-.545.917-.016.3-.846.3.848.918.022-.732.539Z" transform="translate(-132.091 -437.734)" fill="#fff" fill-rule="evenodd"/><path d="M140.437,449.8l-.752-.514-.754.51.268-.858-.729-.544.917-.016.3-.847.3.848.918.02-.732.541Z" transform="translate(-132.091 -438.699)" fill="#fff" fill-rule="evenodd"/><path d="M154.326,442.886l.752-.514.754.51-.268-.858.729-.544-.917-.016-.3-.846-.3.848-.918.02.732.541Z" transform="translate(-136.062 -436.914)" fill="#fff" fill-rule="evenodd"/><path d="M154.605,453.729l.752-.514.755.51-.268-.858.729-.544-.918-.016-.3-.847-.3.848-.918.022.733.539Z" transform="translate(-136.134 -439.712)" fill="#fff" fill-rule="evenodd"/><path d="M156,446.345l.752-.514.755.51-.268-.858.729-.544-.917-.016-.3-.846-.3.848-.918.02.733.541Z" transform="translate(-136.495 -437.806)" fill="#fff" fill-rule="evenodd"/><path d="M156.284,449.991l.752-.514.755.51-.269-.858.73-.545-.918-.016-.3-.846-.3.849-.918.02.733.541Z" transform="translate(-136.568 -438.747)" fill="#fff" fill-rule="evenodd"/><path d="M152.79,444.462c.473,1.665.144,2.566.019,2.582-.16-.069-.172-1.767-.856-2.2-.645-.4-.26-.783-.085-.933a.679.679,0,0,1,.922.552" transform="translate(-135.478 -437.751)" fill="#fff" fill-rule="evenodd"/><path d="M152.794,447.065l-.008,0c-.065-.028-.095-.18-.158-.522-.1-.557-.256-1.4-.7-1.682a.661.661,0,0,1-.372-.47.633.633,0,0,1,.284-.511.646.646,0,0,1,.268-.054c.2,0,.547.08.7.621A3.789,3.789,0,0,1,152.88,447c-.026.04-.051.061-.078.064Zm-.688-3.183a.617.617,0,0,0-.237.045.575.575,0,0,0-.255.455c.012.148.128.291.344.424.469.3.626,1.155.729,1.722a2.022,2.022,0,0,0,.115.47.149.149,0,0,0,.033-.041,3.75,3.75,0,0,0-.085-2.5c-.145-.5-.466-.577-.645-.577" transform="translate(-135.468 -437.741)" fill="#323f9d"/><path d="M150.235,446.568c-1.211,2.749-.744,4.612-1.2,4.6-.475,0-.6-1.711.277-4.582,1.1-3.608,2.512-3.307,2.682-2.3-.93.44-1.056.549-1.754,2.279" transform="translate(-134.721 -437.689)" fill="#fff" fill-rule="evenodd"/><path d="M149.024,451.188h-.005a.255.255,0,0,1-.207-.118c-.314-.424-.3-2.013.456-4.5.573-1.87,1.343-2.987,2.06-2.987a.732.732,0,0,1,.681.694c-.936.467-1.061.574-1.755,2.3a11.539,11.539,0,0,0-.923,3.715c-.059.582-.091.9-.306.9m2.3-7.547c-.258,0-1.165.212-2,2.944-.72,2.359-.779,4.025-.464,4.449a.2.2,0,0,0,.157.093h.006c.16,0,.191-.319.246-.849a11.575,11.575,0,0,1,.927-3.732c.7-1.743.829-1.85,1.769-2.295a.7.7,0,0,0-.639-.611" transform="translate(-134.71 -437.678)" fill="#323f9d"/><path d="M152.416,448.654c.2,1.779-.392,2.554-.545,2.531-.177-.12.5-1.217-.535-2.427-.592-.683.051-.432.292-.522.231-.021.7-.331.788.417" transform="translate(-135.349 -438.859)" fill="#fff" fill-rule="evenodd"/><path d="M151.868,451.205h-.011c-.079-.05-.06-.165-.028-.355a2.323,2.323,0,0,0-.525-2.082c-.2-.236-.279-.379-.24-.464s.16-.088.291-.084a.845.845,0,0,0,.255-.021,1.123,1.123,0,0,0,.156-.035,1.049,1.049,0,0,1,.266-.048c.232,0,.365.172.406.525a3.207,3.207,0,0,1-.415,2.468.256.256,0,0,1-.154.1m-.474-2.925c-.159,0-.256,0-.276.048s.007.142.231.4a2.38,2.38,0,0,1,.539,2.131c-.023.134-.042.252-.016.285a.227.227,0,0,0,.1-.078,3.366,3.366,0,0,0,.4-2.419c-.049-.422-.22-.472-.346-.472a1,1,0,0,0-.251.047,1.071,1.071,0,0,1-.159.035.694.694,0,0,1-.219.023h-.009Z" transform="translate(-135.339 -438.849)" fill="#323f9d"/><path d="M149.71,450.319c-.467,1.074-.671,2.381-1.217,2.22-.565-.148-.025-1.984.7-3.264.893-1.567,2.494-1.964,2.466-.836a2.6,2.6,0,0,0-1.947,1.881" transform="translate(-134.617 -438.766)" fill="#fff" fill-rule="evenodd"/><path d="M148.571,452.575a.356.356,0,0,1-.1-.014.308.308,0,0,1-.2-.189c-.225-.533.275-2.043.883-3.12.747-1.31,1.949-1.756,2.358-1.335a.682.682,0,0,1,.165.514,2.651,2.651,0,0,0-1.95,1.892c-.134.31-.247.639-.352.946-.251.73-.448,1.306-.8,1.306m2.51-4.759a2.609,2.609,0,0,0-1.875,1.466c-.588,1.042-1.094,2.557-.879,3.065a.241.241,0,0,0,.162.155c.372.105.576-.517.828-1.252.105-.309.219-.639.354-.95a2.624,2.624,0,0,1,1.97-1.9.74.74,0,0,0-.174-.442.524.524,0,0,0-.387-.142" transform="translate(-134.607 -438.758)" fill="#323f9d"/><path d="M144.638,447.129c-.467,2.025-.369,3.272-.241,3.238.174.021.122-1.931.936-2.729.753-.768.33-.613.158-.9-.349-.142-.618-.558-.852.389" transform="translate(-133.594 -438.438)" fill="#fff" fill-rule="evenodd"/><path d="M144.381,450.4l-.046-.025a7.327,7.327,0,0,1,.263-3.251c.167-.677.41-.682.7-.511a1.441,1.441,0,0,0,.19.1.636.636,0,0,0,.166.162c.062.044.12.087.126.162.009.1-.064.24-.441.625a4.114,4.114,0,0,0-.787,2.184c-.062.411-.088.554-.168.554Zm.625-3.843c-.088,0-.22.06-.349.58a7.306,7.306,0,0,0-.275,3.2,1.606,1.606,0,0,0,.114-.5,4.152,4.152,0,0,1,.8-2.217c.3-.306.432-.485.424-.578,0-.044-.039-.073-.1-.118a.577.577,0,0,1-.168-.167.947.947,0,0,1-.183-.091.6.6,0,0,0-.266-.108" transform="translate(-133.583 -438.436)" fill="#323f9d"/><path d="M146.723,449.312c.559,1.367.917,3.042,1.377,2.818.479-.208-.289-2.533-1.062-4.178-.66-1.3-1.148-1.461-1.878-1.419.851.339,1.128,1.674,1.564,2.778" transform="translate(-133.818 -438.439)" fill="#fff" fill-rule="evenodd"/><path d="M148.013,452.17h0c-.313,0-.564-.728-.881-1.649-.135-.393-.28-.813-.441-1.208-.091-.229-.174-.467-.257-.7-.323-.922-.628-1.793-1.291-2.057a.262.262,0,0,1,.2-.065c.642,0,1.106.23,1.721,1.441.625,1.329,1.4,3.469,1.175,4.072a.246.246,0,0,1-.127.147.218.218,0,0,1-.095.023m-2.675-5.622c-.059,0-.12,0-.183.006.7.216,1.008,1.1,1.335,2.035.082.236.165.474.255.7.162.4.307.818.443,1.212.285.826.553,1.608.824,1.608a.163.163,0,0,0,.07-.017.188.188,0,0,0,.095-.114c.2-.525-.455-2.5-1.172-4.023-.6-1.183-1.049-1.407-1.667-1.407" transform="translate(-133.813 -438.428)" fill="#323f9d"/><path d="M146.836,448.112c.416,1.735.6,3.818,1.084,3.609.506-.188-.016-3.117-.617-5.218-.524-1.668-1.332-1.642-2.074-1.689,1.189.593,1.287,1.9,1.607,3.3" transform="translate(-133.836 -437.997)" fill="#fff" fill-rule="evenodd"/><path d="M147.849,451.757c-.332,0-.509-.936-.732-2.119-.094-.5-.194-1.027-.315-1.528-.045-.2-.085-.389-.125-.579-.245-1.178-.457-2.2-1.467-2.7l.113-.05c.7.042,1.5.089,2,1.7.571,2,1.157,5.046.6,5.255Zm-2.626-6.922c1.051.459,1.266,1.49,1.514,2.683.039.189.079.383.124.578.121.5.221,1.033.315,1.531.2,1.065.392,2.069.673,2.069v.03l.054-.042c.453-.168.028-2.866-.634-5.182-.494-1.574-1.234-1.619-1.949-1.661Z" transform="translate(-133.831 -437.988)" fill="#323f9d"/><path d="M144.719,444.812c-1.089.893-1.083,2.7-.876,2.732s.333-1.43,1-1.981c.7-.559.807-.255,1.6-.2-.213-.468-.833-1.323-1.725-.555" transform="translate(-133.45 -437.917)" fill="#fff" fill-rule="evenodd"/><path d="M143.84,447.564h-.013c-.042-.006-.074-.05-.1-.131a3.107,3.107,0,0,1,.958-2.653,1.122,1.122,0,0,1,.72-.315,1.323,1.323,0,0,1,1.053.88,1.688,1.688,0,0,1-.574-.042c-.331-.07-.489-.162-1.038.275a3.09,3.09,0,0,0-.733,1.436c-.106.344-.171.553-.276.553m1.568-3.04a1.066,1.066,0,0,0-.68.3,3.051,3.051,0,0,0-.938,2.591c.019.067.039.087.047.088h0c.061,0,.141-.26.218-.51a3.138,3.138,0,0,1,.752-1.464,1.074,1.074,0,0,1,1.089-.286,3.666,3.666,0,0,0,.536.083c-.093-.1-.444-.8-1.028-.8" transform="translate(-133.439 -437.906)" fill="#323f9d"/><path d="M147.928,442.361c.148.29.127.59-.047.669s-.434-.093-.582-.384-.127-.59.047-.67.435.093.582.384" transform="translate(-134.344 -437.259)" fill="#fff" fill-rule="evenodd"/><path d="M147.779,443.07a.688.688,0,0,1-.517-.42.735.735,0,0,1-.077-.548.264.264,0,0,1,.137-.162c.187-.084.47.1.622.4a.739.739,0,0,1,.077.549.267.267,0,0,1-.139.162.244.244,0,0,1-.1.022m-.352-1.091a.2.2,0,0,0-.079.016.211.211,0,0,0-.106.128.688.688,0,0,0,.074.5c.137.268.387.441.543.37a.211.211,0,0,0,.106-.128.684.684,0,0,0-.074-.5.629.629,0,0,0-.464-.387" transform="translate(-134.334 -437.249)" fill="#323f9d"/><path d="M147.934,443.424c.121.3.073.6-.107.662s-.424-.131-.545-.433-.073-.6.107-.663.424.131.545.433" transform="translate(-134.348 -437.523)" fill="#fff" fill-rule="evenodd"/><path d="M147.744,444.118c-.186,0-.392-.191-.5-.464a.739.739,0,0,1-.027-.554.259.259,0,0,1,.152-.147l.082-.014c.186,0,.392.191.5.464a.732.732,0,0,1,.027.554.26.26,0,0,1-.151.147Zm-.295-1.12a.224.224,0,0,0-.179.125.69.69,0,0,0,.028.508c.1.247.286.426.445.426v.03l.062-.041a.2.2,0,0,0,.116-.115.69.69,0,0,0-.028-.508c-.1-.247-.286-.426-.445-.426" transform="translate(-134.337 -437.513)" fill="#323f9d"/><path d="M148.7,443.2c.042.323-.079.6-.269.614s-.378-.233-.42-.556.079-.6.269-.614.378.233.419.556" transform="translate(-134.552 -437.437)" fill="#fff" fill-rule="evenodd"/><path d="M148.4,443.838c-.2,0-.39-.257-.432-.584a.732.732,0,0,1,.113-.542.265.265,0,0,1,.183-.106h0c.22,0,.409.257.451.583a.741.741,0,0,1-.113.543.27.27,0,0,1-.184.105Zm-.116-1.172a.21.21,0,0,0-.157.083.686.686,0,0,0-.1.5c.037.293.2.53.372.53v.03l.015-.031a.208.208,0,0,0,.142-.082.689.689,0,0,0,.1-.5c-.037-.293-.2-.53-.372-.53" transform="translate(-134.541 -437.427)" fill="#323f9d"/><path d="M148.171,444.439c.065.32-.036.6-.224.634s-.393-.206-.459-.526.036-.6.225-.632.393.206.458.525" transform="translate(-134.414 -437.764)" fill="#fff" fill-rule="evenodd"/><path d="M147.9,445.095c-.2,0-.392-.237-.456-.553a.746.746,0,0,1,.073-.55.263.263,0,0,1,.176-.117c.24-.007.429.234.493.548a.736.736,0,0,1-.072.549.264.264,0,0,1-.177.119Zm-.169-1.163a.217.217,0,0,0-.164.095.684.684,0,0,0-.064.5c.058.282.231.5.4.5v.03l.027-.032a.208.208,0,0,0,.137-.094.687.687,0,0,0,.062-.5c-.057-.282-.231-.5-.4-.5" transform="translate(-134.403 -437.754)" fill="#323f9d"/><path d="M148.171,445.42c.065.319-.036.6-.224.632s-.393-.206-.459-.525.036-.6.225-.634.393.206.458.526" transform="translate(-134.414 -438.017)" fill="#fff" fill-rule="evenodd"/><path d="M147.9,446.075c-.2,0-.391-.237-.456-.551a.743.743,0,0,1,.073-.549.266.266,0,0,1,.177-.119h0c.231,0,.425.236.488.55a.74.74,0,0,1-.073.549.259.259,0,0,1-.176.118Zm-.169-1.163a.218.218,0,0,0-.163.1.688.688,0,0,0-.064.5c.058.281.231.5.4.5v.03l.028-.033a.2.2,0,0,0,.136-.094.68.68,0,0,0,.063-.5c-.056-.283-.231-.5-.4-.5" transform="translate(-134.403 -438.007)" fill="#323f9d"/><path d="M148.956,444.364c-.017.326-.185.575-.375.556s-.329-.3-.313-.625.185-.573.375-.555.329.3.313.623" transform="translate(-134.62 -437.719)" fill="#fff" fill-rule="evenodd"/><path d="M148.591,444.941h-.024c-.208-.021-.358-.309-.34-.657.017-.328.186-.585.385-.585.232.022.381.309.364.656-.018.329-.187.586-.385.586m.038-1.18c-.18,0-.326.236-.341.526-.016.31.113.576.286.593l.018.031v-.03c.163,0,.309-.238.325-.529.016-.309-.113-.575-.286-.591Z" transform="translate(-134.609 -437.709)" fill="#323f9d"/><path d="M148.956,445.345c-.017.324-.185.574-.375.555s-.329-.3-.313-.623.185-.575.375-.556.329.3.313.625" transform="translate(-134.62 -437.972)" fill="#fff" fill-rule="evenodd"/><path d="M148.591,445.921h-.024c-.208-.021-.358-.309-.34-.655.017-.329.186-.586.385-.586.232.022.381.31.364.657-.018.328-.187.585-.385.585m.038-1.18c-.18,0-.326.236-.341.527-.016.309.113.574.286.591l.018.031v-.03c.163,0,.309-.237.325-.527.016-.31-.113-.576-.286-.593Z" transform="translate(-134.609 -437.962)" fill="#323f9d"/><path d="M147.659,446.524c0,.326-.157.582-.348.574s-.344-.28-.343-.607.157-.584.348-.574.344.281.343.607" transform="translate(-134.284 -438.281)" fill="#fff" fill-rule="evenodd"/><path d="M147.31,447.118h-.01c-.207-.01-.373-.3-.372-.638s.162-.6.367-.6.385.3.384.637-.163.6-.369.6m-.006-1.181c-.177,0-.315.243-.316.543s.142.57.315.577l.007.03v-.03c.168,0,.307-.244.309-.545S147.476,445.944,147.3,445.937Z" transform="translate(-134.274 -438.271)" fill="#323f9d"/><path d="M148.359,446.526c0,.326-.157.584-.348.574s-.343-.28-.343-.607.157-.582.348-.573.344.281.343.607" transform="translate(-134.465 -438.282)" fill="#fff" fill-rule="evenodd"/><path d="M148.012,447.12H148c-.209-.01-.372-.29-.371-.638s.164-.6.368-.6.384.3.382.637-.162.6-.367.6M148,445.939c-.176,0-.314.243-.316.543s.14.569.314.577l.01.03v-.03c.168,0,.3-.244.306-.545s-.142-.569-.314-.576" transform="translate(-134.455 -438.271)" fill="#323f9d"/><path d="M149.13,446.618c-.083.316-.3.525-.48.468s-.263-.36-.18-.674.3-.526.48-.468.262.358.18.674" transform="translate(-134.664 -438.286)" fill="#fff" fill-rule="evenodd"/><path d="M148.7,447.115l-.07-.01c-.2-.062-.286-.381-.2-.711.076-.29.264-.5.447-.5.271.073.358.386.271.722-.076.289-.265.5-.448.5m.217-1.152c-.2,0-.362.193-.429.447-.078.294-.005.586.159.637l.053.008c.154,0,.321-.2.389-.456.079-.3.007-.585-.16-.637Z" transform="translate(-134.654 -438.275)" fill="#323f9d"/><path d="M147.612,447.6c0,.326-.157.582-.348.572s-.344-.28-.342-.607.157-.582.347-.574.344.283.343.608" transform="translate(-134.273 -438.559)" fill="#fff" fill-rule="evenodd"/><path d="M147.265,448.192h-.012c-.21-.01-.372-.29-.371-.638s.163-.6.368-.6c.22.012.384.292.382.639s-.162.6-.367.6m-.007-1.181c-.176,0-.314.243-.315.543s.139.569.314.577l.009.03v-.03c.168,0,.306-.243.307-.543S147.432,447.02,147.257,447.011Z" transform="translate(-134.262 -438.548)" fill="#323f9d"/><path d="M148.312,447.321c0,.326-.157.582-.348.573s-.343-.28-.342-.607.157-.584.348-.573.344.281.342.607" transform="translate(-134.453 -438.487)" fill="#fff" fill-rule="evenodd"/><path d="M147.962,447.915h-.01c-.21-.012-.372-.292-.371-.638s.162-.6.367-.6.384.3.383.637-.163.6-.369.6m-.005-1.181c-.177,0-.315.243-.316.543s.139.568.314.577l.007.03v-.03c.168,0,.307-.244.309-.545S148.129,446.742,147.957,446.734Z" transform="translate(-134.443 -438.477)" fill="#323f9d"/><path d="M149.083,447.6c-.082.315-.3.525-.479.467s-.263-.358-.18-.674.3-.525.48-.468.263.359.18.675" transform="translate(-134.652 -438.539)" fill="#fff" fill-rule="evenodd"/><path d="M148.656,448.1l-.071-.011c-.2-.062-.287-.381-.2-.711.076-.289.265-.5.448-.5.271.074.358.387.27.723-.076.288-.264.5-.447.5m.217-1.154c-.2,0-.363.194-.43.448-.078.294,0,.586.16.637l.053.009c.154,0,.32-.2.388-.455.079-.3.007-.585-.16-.638h-.012" transform="translate(-134.642 -438.529)" fill="#323f9d"/><path d="M149.117,453.082c.05.41-.109.757-.355.775s-.487-.3-.537-.71.109-.757.355-.774.487.3.537.709" transform="translate(-134.606 -439.948)" fill="#fff" fill-rule="evenodd"/><path d="M148.731,453.878c-.257,0-.5-.324-.548-.737a.912.912,0,0,1,.147-.676.339.339,0,0,1,.237-.132h0c.278,0,.517.323.568.735a.914.914,0,0,1-.147.677.339.339,0,0,1-.237.132Zm-.141-1.485a.286.286,0,0,0-.213.111.867.867,0,0,0-.134.63c.046.378.265.684.487.684v.03l.017-.031a.281.281,0,0,0,.2-.11.867.867,0,0,0,.133-.631c-.046-.377-.264-.683-.486-.683" transform="translate(-134.596 -439.937)" fill="#323f9d"/><path d="M147.286,448.675c0,.326-.157.582-.348.574s-.344-.28-.343-.607.157-.584.348-.573.344.281.343.607" transform="translate(-134.188 -438.836)" fill="#fff" fill-rule="evenodd"/><path d="M146.937,449.268h-.01c-.21-.012-.373-.292-.372-.638s.162-.6.367-.6.385.3.384.637-.163.6-.369.6m-.006-1.181c-.177,0-.315.243-.316.543s.14.568.315.577l.007.03v-.03c.168,0,.307-.244.309-.545S147.1,448.094,146.931,448.087Z" transform="translate(-134.178 -438.826)" fill="#323f9d"/><path d="M148.125,448.442c0,.326-.157.584-.348.573s-.344-.28-.342-.607.157-.582.347-.574.344.281.343.607" transform="translate(-134.405 -438.776)" fill="#fff" fill-rule="evenodd"/><path d="M147.778,449.036h-.012c-.206-.01-.372-.3-.371-.638s.163-.6.368-.6c.22.012.384.292.382.637s-.162.6-.367.6m-.007-1.181c-.176,0-.314.243-.315.543s.142.569.314.577l.009.03v-.03c.168,0,.306-.244.307-.545S147.945,447.864,147.77,447.855Z" transform="translate(-134.395 -438.766)" fill="#323f9d"/><path d="M148.757,448.675c-.083.316-.3.525-.48.468s-.263-.36-.18-.674.3-.526.48-.468.262.358.18.674" transform="translate(-134.568 -438.817)" fill="#fff" fill-rule="evenodd"/><path d="M148.328,449.172l-.07-.01c-.2-.062-.286-.381-.2-.711.076-.29.264-.5.447-.5.271.073.358.386.271.722-.076.289-.265.5-.448.5m.217-1.152c-.2,0-.362.193-.429.447-.078.294-.005.586.159.637l.053.008c.154,0,.321-.2.389-.456.079-.3.007-.585-.16-.637Z" transform="translate(-134.557 -438.806)" fill="#323f9d"/><path d="M147.65,449.685c-.05.322-.244.552-.43.514s-.3-.33-.246-.653.243-.553.43-.513.3.33.246.652" transform="translate(-134.283 -439.084)" fill="#fff" fill-rule="evenodd"/><path d="M147.249,450.222l-.047,0c-.205-.042-.323-.345-.269-.687.048-.31.228-.544.418-.544.25.046.371.354.318.692-.049.31-.229.543-.42.543m.133-1.171c-.191,0-.346.214-.389.488-.048.3.052.583.223.619l.034,0c.158,0,.317-.217.361-.493.047-.3-.055-.583-.223-.617Z" transform="translate(-134.272 -439.074)" fill="#323f9d"/><path d="M148.34,449.793c-.05.322-.243.552-.43.514s-.3-.332-.246-.653.244-.553.43-.515.3.332.246.654" transform="translate(-134.461 -439.112)" fill="#fff" fill-rule="evenodd"/><path d="M147.94,450.331l-.047,0c-.206-.042-.324-.345-.27-.688.049-.309.229-.543.42-.543.249.047.37.356.316.693-.049.31-.229.543-.419.543m.133-1.172c-.191,0-.346.215-.39.49-.048.3.052.583.223.619l.035,0c.158,0,.316-.217.36-.493.048-.3-.054-.583-.223-.619Z" transform="translate(-134.45 -439.102)" fill="#323f9d"/><path d="M149.1,449.916c-.13.3-.374.473-.545.389s-.2-.4-.075-.694.374-.474.545-.39.206.4.076.694" transform="translate(-134.653 -439.129)" fill="#fff" fill-rule="evenodd"/><path d="M148.633,450.346a.241.241,0,0,1-.105-.024c-.185-.091-.226-.42-.089-.734s.4-.5.586-.4.226.42.09.733a.626.626,0,0,1-.482.429m.286-1.125c-.15,0-.324.162-.424.393-.122.279-.094.579.06.655s.385-.1.5-.375.094-.579-.061-.655a.185.185,0,0,0-.079-.017" transform="translate(-134.643 -439.118)" fill="#323f9d"/><path d="M148.446,452.046c.038.323-.085.6-.275.611s-.376-.236-.415-.561.085-.6.275-.611.375.237.415.561" transform="translate(-134.486 -439.718)" fill="#fff" fill-rule="evenodd"/><path d="M148.144,452.678c-.2,0-.389-.259-.429-.588a.733.733,0,0,1,.117-.541.267.267,0,0,1,.185-.1h0c.218,0,.406.258.446.588a.735.735,0,0,1-.117.541.267.267,0,0,1-.185.1Zm-.108-1.174a.211.211,0,0,0-.157.082.69.69,0,0,0-.1.5c.035.3.2.535.369.535v.03l.014-.031a.206.206,0,0,0,.142-.082.683.683,0,0,0,.1-.5c-.036-.3-.2-.535-.369-.535" transform="translate(-134.475 -439.708)" fill="#323f9d"/><path d="M149.722,452.2c-.1.31-.328.506-.507.439s-.24-.374-.139-.684.328-.506.507-.439.24.374.139.684" transform="translate(-134.816 -439.722)" fill="#fff" fill-rule="evenodd"/><path d="M149.278,452.669l-.084-.015c-.2-.075-.265-.392-.158-.722.091-.278.282-.473.463-.473l.084.016c.2.074.265.392.157.721-.091.278-.28.473-.462.473m.265-1.139c-.206,0-.37.178-.449.421-.1.295-.041.584.122.646l.062.011c.154,0,.323-.181.4-.431.1-.294.042-.584-.121-.646h-.019" transform="translate(-134.805 -439.712)" fill="#323f9d"/><path d="M149.1,451.946c0,.326-.155.582-.346.573s-.345-.28-.344-.605.155-.584.346-.575.344.281.344.607" transform="translate(-134.657 -439.681)" fill="#fff" fill-rule="evenodd"/><path d="M148.755,452.54h-.011c-.21-.01-.374-.289-.372-.637s.16-.605.366-.605.384.29.384.637-.16.6-.366.6m-.01-1.181c-.177,0-.314.244-.314.545s.141.568.315.576l.008.03v-.03c.168,0,.306-.244.306-.545s-.142-.568-.315-.576" transform="translate(-134.647 -439.67)" fill="#323f9d"/><path d="M148.168,450.823c0,.326-.155.584-.346.575s-.345-.281-.344-.607.155-.582.346-.574.345.28.344.605" transform="translate(-134.416 -439.391)" fill="#fff" fill-rule="evenodd"/><path d="M147.822,451.419h-.011c-.206-.01-.374-.3-.372-.638s.16-.6.366-.6c.221.01.385.289.384.636s-.161.606-.366.606m-.01-1.181c-.177,0-.314.243-.314.543s.144.57.315.577l.008.03v-.03c.168,0,.3-.245.306-.546s-.141-.567-.315-.575" transform="translate(-134.406 -439.381)" fill="#323f9d"/><path d="M148.867,450.823c0,.326-.155.584-.346.575s-.345-.281-.344-.607.155-.582.346-.574.345.28.344.605" transform="translate(-134.597 -439.391)" fill="#fff" fill-rule="evenodd"/><path d="M148.522,451.419h-.011c-.206-.01-.374-.3-.372-.638s.161-.6.366-.6c.221.01.385.289.384.636s-.16.606-.366.606m-.01-1.181c-.176,0-.313.243-.314.543s.144.57.315.577l.008.03v-.03c.168,0,.306-.245.306-.546s-.141-.567-.315-.575" transform="translate(-134.586 -439.381)" fill="#323f9d"/><path d="M149.452,449.838c-.082.316-.3.526-.479.47s-.263-.358-.182-.674.3-.525.479-.47.263.359.181.674" transform="translate(-134.747 -439.117)" fill="#fff" fill-rule="evenodd"/><path d="M149.025,450.336l-.07-.01c-.2-.062-.289-.375-.2-.71.076-.291.264-.5.449-.5.266.072.356.39.27.721-.076.29-.263.5-.447.5m.216-1.154c-.2,0-.363.194-.43.448-.078.3-.005.586.162.637l.052.008c.154,0,.32-.2.388-.456.076-.295,0-.587-.161-.637Z" transform="translate(-134.736 -439.107)" fill="#323f9d"/><path d="M149.639,450.819c-.082.316-.3.526-.479.47s-.263-.358-.182-.674.3-.526.479-.47.263.358.181.674" transform="translate(-134.795 -439.37)" fill="#fff" fill-rule="evenodd"/><path d="M149.211,451.318l-.07-.01c-.2-.062-.289-.375-.2-.71.076-.291.263-.5.447-.5.27.073.358.385.272.72-.076.291-.263.5-.447.5m.215-1.154c-.2,0-.363.194-.429.448-.078.3-.005.586.162.637l.052.008c.154,0,.32-.2.388-.456.078-.3.005-.586-.161-.637Z" transform="translate(-134.784 -439.36)" fill="#323f9d"/><path d="M150.2,451.007c-.082.315-.3.525-.479.47s-.263-.36-.182-.674.3-.526.479-.47.263.358.182.674" transform="translate(-134.94 -439.419)" fill="#fff" fill-rule="evenodd"/><path d="M149.769,451.506l-.068-.01c-.2-.062-.288-.381-.2-.711.075-.29.263-.5.447-.5.27.073.358.384.272.72-.076.291-.264.5-.449.5m.217-1.154c-.2,0-.363.194-.429.448-.077.295,0,.587.162.637l.05.007c.155,0,.323-.2.39-.456.079-.3.007-.585-.161-.637Z" transform="translate(-134.929 -439.409)" fill="#323f9d"/><path d="M149.872,448.716c-.082.316-.3.526-.479.47s-.263-.358-.182-.674.3-.526.479-.47.263.358.182.674" transform="translate(-134.855 -438.828)" fill="#fff" fill-rule="evenodd"/><path d="M149.444,449.215l-.07-.01c-.2-.062-.289-.374-.2-.71.075-.291.263-.5.447-.5.27.073.359.384.272.72-.075.291-.263.5-.447.5m.215-1.154c-.2,0-.362.194-.428.448-.078.3-.005.586.162.637l.051.008c.154,0,.321-.2.388-.456.078-.3.006-.586-.161-.637Z" transform="translate(-134.845 -438.817)" fill="#323f9d"/><path d="M150.639,444.289c-.009.326-.17.579-.36.565s-.338-.289-.329-.614.171-.58.361-.567.338.29.329.616" transform="translate(-135.054 -437.702)" fill="#fff" fill-rule="evenodd"/><path d="M150.285,444.875h-.018c-.209-.015-.367-.3-.357-.645s.174-.6.376-.6c.226.016.382.3.373.647s-.174.6-.375.6m.013-1.182c-.177,0-.319.24-.327.537s.127.571.3.583l.013.031v-.03c.165,0,.306-.24.315-.536s-.127-.571-.3-.585Z" transform="translate(-135.044 -437.692)" fill="#323f9d"/><path d="M150.106,449.744c-.082.316-.3.526-.479.47s-.263-.358-.182-.672.3-.526.479-.47.263.358.182.672" transform="translate(-134.916 -439.093)" fill="#fff" fill-rule="evenodd"/><path d="M149.678,450.242l-.07-.01c-.2-.059-.288-.378-.2-.709.075-.29.263-.5.447-.5.267.07.358.389.272.72-.075.29-.263.5-.447.5m.215-1.152c-.2,0-.362.194-.428.448-.077.3,0,.587.161.636l.052.008c.154,0,.321-.2.388-.456.077-.3,0-.586-.161-.636Z" transform="translate(-134.905 -439.083)" fill="#323f9d"/><path d="M150.665,449.885c-.082.316-.3.526-.479.47s-.263-.358-.181-.674.3-.525.479-.47.263.358.182.674" transform="translate(-135.06 -439.129)" fill="#fff" fill-rule="evenodd"/><path d="M150.237,450.383l-.07-.01c-.2-.062-.289-.375-.2-.71.076-.291.264-.5.448-.5.269.073.358.385.271.72-.076.291-.263.5-.447.5m.216-1.154c-.2,0-.362.194-.429.448-.078.3-.005.586.161.637l.052.008c.154,0,.321-.2.389-.456.078-.3.005-.586-.162-.637Z" transform="translate(-135.049 -439.119)" fill="#323f9d"/><path d="M150.173,445.269c-.009.326-.17.579-.361.567s-.337-.29-.329-.616.17-.579.361-.565.338.29.329.614" transform="translate(-134.934 -437.955)" fill="#fff" fill-rule="evenodd"/><path d="M149.816,445.856H149.8c-.209-.016-.366-.3-.356-.647s.174-.6.375-.6c.223.015.383.3.373.645s-.174.6-.377.6m.016-1.181c-.178,0-.32.24-.327.536s.126.571.3.585l.012.031v-.03c.167,0,.309-.241.317-.538S150,444.687,149.831,444.675Z" transform="translate(-134.923 -437.945)" fill="#323f9d"/><path d="M150.963,445.287c-.024.324-.2.571-.387.548s-.323-.306-.3-.63.2-.571.388-.548.323.306.3.631" transform="translate(-135.138 -437.956)" fill="#fff" fill-rule="evenodd"/><path d="M150.591,445.856l-.028,0c-.2-.024-.351-.322-.326-.663s.194-.577.393-.577c.233.027.379.324.353.664-.024.324-.2.578-.392.578m.059-1.18c-.185,0-.33.229-.352.52s.1.577.273.6h.021c.165,0,.31-.229.332-.521s-.1-.578-.272-.6Z" transform="translate(-135.127 -437.945)" fill="#323f9d"/><path d="M150.079,446.158c-.009.326-.17.579-.36.565s-.338-.289-.329-.614.171-.58.361-.565.338.289.329.614" transform="translate(-134.909 -438.185)" fill="#fff" fill-rule="evenodd"/><path d="M149.725,446.744h-.018c-.209-.015-.366-.3-.356-.645s.173-.6.374-.6c.228.016.384.3.375.646s-.174.6-.375.6m.013-1.18c-.179,0-.32.24-.327.536s.126.571.3.583l.013.031v-.03c.165,0,.307-.24.315-.536S149.912,445.575,149.738,445.564Z" transform="translate(-134.899 -438.174)" fill="#323f9d"/><path d="M150.87,446.268c-.024.326-.2.571-.387.548s-.324-.3-.3-.628.2-.571.387-.548.323.3.3.629" transform="translate(-135.114 -438.209)" fill="#fff" fill-rule="evenodd"/><path d="M150.5,446.836l-.028,0c-.205-.023-.352-.32-.326-.661s.194-.577.392-.577c.233.025.379.322.354.663s-.194.577-.392.577m.058-1.179c-.185,0-.329.229-.352.52s.1.577.273.6h.021c.164,0,.31-.229.332-.521s-.1-.578-.273-.6Z" transform="translate(-135.103 -438.199)" fill="#323f9d"/><path d="M150.173,447.326c-.009.326-.17.579-.361.567s-.337-.29-.329-.616.17-.579.361-.565.338.29.329.614" transform="translate(-134.934 -438.486)" fill="#fff" fill-rule="evenodd"/><path d="M149.816,447.913H149.8c-.209-.016-.366-.3-.356-.647s.174-.6.375-.6c.223.015.383.3.373.645s-.174.6-.377.6m.016-1.181c-.178,0-.32.24-.327.536s.126.571.3.585l.012.031v-.03c.167,0,.309-.241.317-.538S150,446.744,149.831,446.732Z" transform="translate(-134.923 -438.476)" fill="#323f9d"/><path d="M150.526,448.529c-.082.316-.3.526-.479.47s-.263-.358-.182-.674.3-.525.479-.47.263.358.182.674" transform="translate(-135.024 -438.779)" fill="#fff" fill-rule="evenodd"/><path d="M150.1,449.027l-.07-.01c-.2-.062-.289-.374-.2-.71.076-.291.265-.5.449-.5.269.073.358.385.271.72-.076.291-.263.5-.447.5m.216-1.154c-.2,0-.362.194-.43.448-.077.3,0,.586.162.637l.052.008c.154,0,.321-.2.389-.456.078-.3.005-.586-.162-.637Z" transform="translate(-135.013 -438.769)" fill="#323f9d"/><path d="M151.131,448.716c-.082.316-.3.526-.479.47s-.263-.358-.182-.674.3-.526.479-.47.263.358.181.674" transform="translate(-135.18 -438.828)" fill="#fff" fill-rule="evenodd"/><path d="M150.7,449.215l-.07-.01c-.2-.062-.289-.375-.2-.71.076-.291.263-.5.447-.5.27.073.358.385.272.72-.076.291-.263.5-.447.5m.215-1.154c-.2,0-.363.194-.429.448-.078.3-.005.586.162.637l.052.008c.154,0,.32-.2.388-.456.078-.3.005-.586-.161-.637Z" transform="translate(-135.17 -438.817)" fill="#323f9d"/><path d="M151.057,447.343c-.024.324-.2.571-.387.548s-.323-.306-.3-.63.2-.571.387-.548.323.306.3.631" transform="translate(-135.162 -438.486)" fill="#fff" fill-rule="evenodd"/><path d="M150.684,447.913l-.028,0c-.206-.025-.351-.323-.325-.663s.194-.577.392-.577c.233.027.379.324.353.664s-.193.578-.392.578m.059-1.18c-.185,0-.329.229-.352.52s.1.577.272.6h.021c.165,0,.31-.229.332-.521s-.1-.578-.272-.6Z" transform="translate(-135.152 -438.476)" fill="#323f9d"/></g></g></g></svg>