<svg xmlns="http://www.w3.org/2000/svg" xmlns:xlink="http://www.w3.org/1999/xlink" width="36" height="36" viewBox="0 0 36 36"><defs><clipPath id="a"><circle cx="18" cy="18" r="18" transform="translate(3394 162)" fill="#fff" stroke="#707070" stroke-width="1"/></clipPath><clipPath id="b"><rect width="61.713" height="36" fill="none"/></clipPath></defs><g transform="translate(-3394 -162)" clip-path="url(#a)"><g transform="translate(3155.334 -115.813)"><g transform="translate(229.666 277.813)" clip-path="url(#b)"><rect width="61.713" height="36" transform="translate(0 0.001)" fill="#180087"/><path d="M249.9,307.542l.941,2.922,2.868-1.086-1.7,2.554,2.638,1.565-3.056.267.421,3.037-2.114-2.221-2.113,2.221.421-3.037-3.056-.267,2.637-1.565-1.7-2.554,2.869,1.086Z" transform="translate(-233.663 -285.486)" fill="#fff"/><path d="M294.53,314.63l.448,1.39,1.365-.516-.807,1.215,1.256.746-1.456.126.2,1.446-1.007-1.059-1.005,1.059.2-1.446-1.455-.126,1.256-.746-.809-1.215,1.367.516Z" transform="translate(-245.825 -287.316)" fill="#fff"/><path d="M283.59,297.305l.448,1.391,1.365-.519-.809,1.218,1.256.743-1.455.128.2,1.445-1.006-1.056-1.007,1.056.2-1.445-1.455-.128,1.255-.743-.808-1.218,1.365.519Z" transform="translate(-243.001 -282.844)" fill="#fff"/><path d="M294.53,285.45l.448,1.391,1.365-.516-.807,1.215,1.256.746-1.456.126.2,1.446L294.53,288.8l-1.005,1.057.2-1.446-1.455-.126,1.256-.746-.809-1.215,1.367.516Z" transform="translate(-245.825 -279.784)" fill="#fff"/><path d="M304.257,294.387l.447,1.39,1.367-.516-.809,1.215,1.256.745-1.456.128.2,1.447-1.006-1.059-1.007,1.059.2-1.447L302,297.221l1.257-.745-.809-1.215,1.367.516Z" transform="translate(-248.335 -282.091)" fill="#fff"/><path d="M299.247,303.166l.354.867.932.068-.714.6.223.909-.795-.493-.8.493.224-.909-.715-.6.933-.068Z" transform="translate(-247.294 -284.357)" fill="#fff"/><path d="M243.195,277.813v5.411H229.666v5.414h13.529v5.414h5.412v-5.414h13.531v-5.414H248.607v-5.411Z" transform="translate(-229.666 -277.813)" fill="#fff"/><path d="M229.665,277.813v1.814l28.841,14.424h3.63v-1.818L233.3,277.813Z" transform="translate(-229.666 -277.813)" fill="#fff"/><path d="M258.506,277.813l-28.841,14.42v1.818H233.3l28.839-14.424v-1.814Z" transform="translate(-229.666 -277.813)" fill="#fff"/><path d="M244.277,277.813v6.495H229.665v3.246h14.612v6.5h3.248v-6.5h14.611v-3.246H247.525v-6.495Z" transform="translate(-229.666 -277.813)" fill="#ea0020"/><path d="M229.666,277.813v1.212l8.4,4.2h2.421Zm30.051,0-10.823,5.411h2.42l10.823-5.411Z" transform="translate(-229.666 -277.813)" fill="#ea0020"/><path d="M240.49,292.4l-10.824,5.414h2.421l10.823-5.414Zm10.823,0,10.824,5.414v-1.212l-8.4-4.2Z" transform="translate(-229.666 -281.579)" fill="#ea0020"/></g></g></g></svg>