<svg xmlns="http://www.w3.org/2000/svg" xmlns:xlink="http://www.w3.org/1999/xlink" width="36" height="36" viewBox="0 0 36 36"><defs><clipPath id="a"><circle cx="18" cy="18" r="18" transform="translate(3244 678)" fill="#fff" stroke="#707070" stroke-width="1"/></clipPath><clipPath id="b"><rect width="61.714" height="36" fill="none"/></clipPath></defs><g transform="translate(-3244 -678)" clip-path="url(#a)"><g transform="translate(3200.921 321.166)"><g transform="translate(30.079 356.834)" clip-path="url(#b)"><rect width="61.715" height="36" fill="#81afda"/><path d="M71.284,361.686l-1.113,3.424,1.712.556Z" transform="translate(-40.426 -358.086)" fill="#fff"/><path d="M71.462,361.686l1.112,3.424-1.712.556Z" transform="translate(-40.604 -358.086)" fill="#fff"/><path d="M75.033,365.039h-3.6v1.8Z" transform="translate(-40.752 -358.952)" fill="#fff"/><path d="M74.9,365.039l-2.913,2.117L70.933,365.7Z" transform="translate(-40.623 -358.952)" fill="#fff"/><path d="M67.056,365.039l2.913,2.117,1.058-1.456Z" transform="translate(-39.622 -358.952)" fill="#fff"/><path d="M67.056,365.039h3.6v1.8Z" transform="translate(-39.622 -358.952)" fill="#fff"/><path d="M73.54,369.274l-1.112-3.424-1.712.556Z" transform="translate(-40.567 -359.161)" fill="#fff"/><path d="M73.509,369.222,70.6,367.105l1.059-1.456Z" transform="translate(-40.536 -359.109)" fill="#fff"/><path d="M68.818,369.222l2.913-2.117-1.059-1.456Z" transform="translate(-40.077 -359.109)" fill="#fff"/><path d="M68.818,369.274l1.112-3.424,1.712.556Z" transform="translate(-40.077 -359.161)" fill="#fff"/><path d="M89.7,380.709,86.272,379.6l-.556,1.712Z" transform="translate(-44.438 -362.709)" fill="#fff"/><path d="M89.7,380.887,86.272,382l-.556-1.712Z" transform="translate(-44.438 -362.887)" fill="#fff"/><path d="M87.1,384.458v-3.6H85.3Z" transform="translate(-44.331 -363.034)" fill="#fff"/><path d="M86.991,384.329l-2.116-2.913,1.456-1.058Z" transform="translate(-44.221 -362.905)" fill="#fff"/><path d="M86.991,376.481l-2.116,2.912,1.456,1.059Z" transform="translate(-44.221 -361.905)" fill="#fff"/><path d="M87.1,376.481v3.6H85.3Z" transform="translate(-44.331 -361.905)" fill="#fff"/><path d="M82.3,382.965l3.424-1.112-.556-1.713Z" transform="translate(-43.557 -362.849)" fill="#fff"/><path d="M82.3,382.935l2.117-2.913,1.455,1.058Z" transform="translate(-43.557 -362.818)" fill="#fff"/><path d="M82.3,378.244l2.117,2.913,1.455-1.059Z" transform="translate(-43.557 -362.36)" fill="#fff"/><path d="M82.3,378.244l3.424,1.112-.556,1.712Z" transform="translate(-43.557 -362.36)" fill="#fff"/><path d="M52.261,380.887,55.685,382l.556-1.712Z" transform="translate(-35.804 -362.887)" fill="#fff"/><path d="M52.261,380.709l3.424-1.112.556,1.712Z" transform="translate(-35.804 -362.709)" fill="#fff"/><path d="M55.614,376.481v3.6h1.8Z" transform="translate(-36.669 -361.905)" fill="#fff"/><path d="M55.614,376.481l2.116,2.912-1.456,1.059Z" transform="translate(-36.669 -361.905)" fill="#fff"/><path d="M55.614,384.329l2.116-2.913-1.456-1.058Z" transform="translate(-36.669 -362.905)" fill="#fff"/><path d="M55.614,384.458v-3.6h1.8Z" transform="translate(-36.669 -363.034)" fill="#fff"/><path d="M59.848,378.244l-3.424,1.112.556,1.712Z" transform="translate(-36.878 -362.36)" fill="#fff"/><path d="M59.8,378.244l-2.117,2.913L56.224,380.1Z" transform="translate(-36.827 -362.36)" fill="#fff"/><path d="M59.8,382.935l-2.117-2.913-1.456,1.058Z" transform="translate(-36.827 -362.818)" fill="#fff"/><path d="M59.848,382.965l-3.424-1.112.556-1.713Z" transform="translate(-36.878 -362.849)" fill="#fff"/><path d="M71.462,399.121l1.112-3.424-1.712-.556Z" transform="translate(-40.604 -366.72)" fill="#fff"/><path d="M71.284,399.121,70.171,395.7l1.712-.556Z" transform="translate(-40.426 -366.72)" fill="#fff"/><path d="M67.056,396.526h3.6v-1.8Z" transform="translate(-39.622 -366.613)" fill="#fff"/><path d="M67.056,396.416l2.913-2.116,1.058,1.456Z" transform="translate(-39.622 -366.503)" fill="#fff"/><path d="M74.9,396.416,71.991,394.3l-1.058,1.456Z" transform="translate(-40.623 -366.503)" fill="#fff"/><path d="M75.033,396.526h-3.6v-1.8Z" transform="translate(-40.752 -366.613)" fill="#fff"/><path d="M68.818,391.727l1.112,3.423,1.712-.556Z" transform="translate(-40.077 -365.839)" fill="#fff"/><path d="M68.818,391.727l2.913,2.117L70.672,395.3Z" transform="translate(-40.077 -365.839)" fill="#fff"/><path d="M73.509,391.727,70.6,393.844l1.059,1.456Z" transform="translate(-40.536 -365.839)" fill="#fff"/><path d="M73.54,391.727l-1.112,3.423-1.712-.556Z" transform="translate(-40.567 -365.839)" fill="#fff"/></g></g></g></svg>