<svg xmlns="http://www.w3.org/2000/svg" xmlns:xlink="http://www.w3.org/1999/xlink" width="36" height="36" viewBox="0 0 36 36"><defs><clipPath id="a"><circle cx="18" cy="18" r="18" transform="translate(2913 274)" fill="#fff" stroke="#707070" stroke-width="1"/></clipPath><clipPath id="b"><rect width="61.713" height="36" fill="none"/></clipPath></defs><g transform="translate(-2913 -274)" clip-path="url(#a)"><g transform="translate(2172.372 74.753)"><g transform="translate(728.628 199.247)" clip-path="url(#b)"><rect width="61.713" height="35.999" transform="translate(0 0.001)" fill="#fff"/><path d="M770,220.814l-.617,1.9.95.309Z" transform="translate(-739.148 -204.813)" fill="#2a43b6"/><path d="M770.1,220.814l.619,1.9-.95.309Z" transform="translate(-739.247 -204.813)" fill="#2a43b6"/><path d="M772.087,222.676h-2v1Z" transform="translate(-739.329 -205.294)" fill="#2a43b6"/><path d="M772.015,222.676l-1.617,1.176-.588-.809Z" transform="translate(-739.257 -205.294)" fill="#2a43b6"/><path d="M767.655,222.676l1.617,1.176.588-.809Z" transform="translate(-738.701 -205.294)" fill="#2a43b6"/><path d="M767.655,222.676h2v1Z" transform="translate(-738.701 -205.294)" fill="#2a43b6"/><path d="M771.258,225.029l-.619-1.9-.95.309Z" transform="translate(-739.226 -205.41)" fill="#2a43b6"/><path d="M771.241,225l-1.619-1.176.588-.809Z" transform="translate(-739.208 -205.381)" fill="#2a43b6"/><path d="M768.634,225l1.619-1.176-.588-.809Z" transform="translate(-738.953 -205.381)" fill="#2a43b6"/><path d="M768.634,225.029l.619-1.9.95.309Z" transform="translate(-738.953 -205.41)" fill="#2a43b6"/><path d="M783.483,224.857l-.619,1.9.95.309Z" transform="translate(-742.626 -205.857)" fill="#2a43b6"/><path d="M783.582,224.857l.617,1.9-.95.309Z" transform="translate(-742.726 -205.857)" fill="#2a43b6"/><path d="M785.565,226.72h-2v1Z" transform="translate(-742.807 -206.338)" fill="#2a43b6"/><path d="M785.493,226.72l-1.617,1.175-.588-.809Z" transform="translate(-742.736 -206.338)" fill="#2a43b6"/><path d="M781.134,226.72l1.619,1.175.587-.809Z" transform="translate(-742.18 -206.338)" fill="#2a43b6"/><path d="M781.134,226.72h2v1Z" transform="translate(-742.18 -206.338)" fill="#2a43b6"/><path d="M784.736,229.072l-.619-1.9-.95.309Z" transform="translate(-742.704 -206.454)" fill="#2a43b6"/><path d="M784.719,229.043l-1.619-1.175.588-.809Z" transform="translate(-742.687 -206.425)" fill="#2a43b6"/><path d="M782.112,229.043l1.619-1.175-.588-.809Z" transform="translate(-742.432 -206.425)" fill="#2a43b6"/><path d="M782.112,229.072l.619-1.9.95.309Z" transform="translate(-742.432 -206.454)" fill="#2a43b6"/><path d="M783.483,216.77l-.619,1.9.95.309Z" transform="translate(-742.626 -203.77)" fill="#2a43b6"/><path d="M783.582,216.77l.617,1.9-.95.309Z" transform="translate(-742.726 -203.77)" fill="#2a43b6"/><path d="M785.565,218.632h-2v1Z" transform="translate(-742.807 -204.25)" fill="#2a43b6"/><path d="M785.493,218.632l-1.617,1.176-.588-.809Z" transform="translate(-742.736 -204.25)" fill="#2a43b6"/><path d="M781.134,218.632l1.619,1.176.587-.809Z" transform="translate(-742.18 -204.25)" fill="#2a43b6"/><path d="M781.134,218.632h2v1Z" transform="translate(-742.18 -204.25)" fill="#2a43b6"/><path d="M784.736,220.985l-.619-1.9-.95.309Z" transform="translate(-742.704 -204.367)" fill="#2a43b6"/><path d="M784.719,220.956,783.1,219.78l.588-.809Z" transform="translate(-742.687 -204.338)" fill="#2a43b6"/><path d="M782.112,220.956l1.619-1.176-.588-.809Z" transform="translate(-742.432 -204.338)" fill="#2a43b6"/><path d="M782.112,220.985l.619-1.9.95.309Z" transform="translate(-742.432 -204.367)" fill="#2a43b6"/><path d="M756.525,224.857l-.617,1.9.95.309Z" transform="translate(-735.669 -205.857)" fill="#2a43b6"/><path d="M756.624,224.857l.619,1.9-.95.309Z" transform="translate(-735.768 -205.857)" fill="#2a43b6"/><path d="M758.608,226.72h-2v1Z" transform="translate(-735.85 -206.338)" fill="#2a43b6"/><path d="M758.536,226.72l-1.619,1.175-.587-.809Z" transform="translate(-735.778 -206.338)" fill="#2a43b6"/><path d="M754.177,226.72l1.617,1.175.588-.809Z" transform="translate(-735.222 -206.338)" fill="#2a43b6"/><path d="M754.177,226.72h2v1Z" transform="translate(-735.222 -206.338)" fill="#2a43b6"/><path d="M757.779,229.072l-.619-1.9-.95.309Z" transform="translate(-735.747 -206.454)" fill="#2a43b6"/><path d="M757.762,229.043l-1.619-1.175.588-.809Z" transform="translate(-735.73 -206.425)" fill="#2a43b6"/><path d="M755.155,229.043l1.619-1.175-.588-.809Z" transform="translate(-735.475 -206.425)" fill="#2a43b6"/><path d="M755.155,229.072l.619-1.9.95.309Z" transform="translate(-735.475 -206.454)" fill="#2a43b6"/><path d="M756.525,216.77l-.617,1.9.95.309Z" transform="translate(-735.669 -203.77)" fill="#2a43b6"/><path d="M756.624,216.77l.619,1.9-.95.309Z" transform="translate(-735.768 -203.77)" fill="#2a43b6"/><path d="M758.608,218.632h-2v1Z" transform="translate(-735.85 -204.25)" fill="#2a43b6"/><path d="M758.536,218.632l-1.619,1.176-.587-.809Z" transform="translate(-735.778 -204.25)" fill="#2a43b6"/><path d="M754.177,218.632l1.617,1.176.588-.809Z" transform="translate(-735.222 -204.25)" fill="#2a43b6"/><path d="M754.177,218.632h2v1Z" transform="translate(-735.222 -204.25)" fill="#2a43b6"/><path d="M757.779,220.985l-.619-1.9-.95.309Z" transform="translate(-735.747 -204.367)" fill="#2a43b6"/><path d="M757.762,220.956l-1.619-1.176.588-.809Z" transform="translate(-735.73 -204.338)" fill="#2a43b6"/><path d="M755.155,220.956l1.619-1.176-.588-.809Z" transform="translate(-735.475 -204.338)" fill="#2a43b6"/><path d="M755.155,220.985l.619-1.9.95.309Z" transform="translate(-735.475 -204.367)" fill="#2a43b6"/><rect width="61.713" height="12" fill="#2a43b6"/><rect width="61.713" height="12" transform="translate(0 24)" fill="#2a43b6"/></g></g></g></svg>