<svg xmlns="http://www.w3.org/2000/svg" xmlns:xlink="http://www.w3.org/1999/xlink" width="36" height="36" viewBox="0 0 36 36"><defs><clipPath id="a"><circle cx="18" cy="18" r="18" transform="translate(3232 271)" fill="#fff" stroke="#707070" stroke-width="1"/></clipPath><clipPath id="b"><rect width="61.714" height="36" fill="none"/></clipPath></defs><g transform="translate(-3232 -271)" clip-path="url(#a)"><g transform="translate(3188.921 -243.419)"><g transform="translate(30.079 514.419)" clip-path="url(#b)"><path d="M60.95,514.419v1.718L54.1,519.562H60.95V524.7H54.1l6.849,3.425v1.821H57.691l-9.612-4.805v4.805H42.935v-4.805l-9.612,4.805H30.079v20.469H91.793v-36Z" transform="translate(-30.079 -514.419)" fill="#1a237b"/><path d="M30.079,528.282V531.7l6.835-3.418Z" transform="translate(-30.079 -517.997)" fill="#1a237b"/><path d="M54.341,514.419v4.7l9.407-4.7Z" transform="translate(-36.341 -514.419)" fill="#1a237b"/><path d="M44.135,514.419H34.727l9.407,4.7Z" transform="translate(-31.279 -514.419)" fill="#1a237b"/><path d="M30.079,520.162h6.835l-6.835-3.417Z" transform="translate(-30.079 -515.019)" fill="#1a237b"/><path d="M66.839,514.419l-10.285,5.143h-2.3l10.285-5.143H63.39l-9.407,4.7v-4.7H52.954v6.171h13.9v-1.028H60l6.85-3.425v-1.718Z" transform="translate(-35.983 -514.419)" fill="#fff"/><path d="M42.935,514.419v4.7l-9.407-4.7H30.079l10.285,5.143h-2.3l-7.986-3.992v.575l6.835,3.417H30.079v1.028H43.964v-6.171Z" transform="translate(-30.079 -514.419)" fill="#fff"/><path d="M56.8,526.9H52.954v6.273h1.029v-4.8l9.612,4.8h3.259v-.094l-10.3-5.151h2.3l8,4v-.575L60,527.925h6.85V526.9H56.8Z" transform="translate(-35.983 -517.639)" fill="#fff"/><path d="M42.421,526.9H30.079v1.029h6.835l-6.835,3.417v1.726l10.286-5.142h2.3l-10.49,5.244h1.149l9.612-4.8v4.8h1.029V526.9Z" transform="translate(-30.079 -517.639)" fill="#fff"/><path d="M40.365,528.282l-10.285,5.144v.1h2.1l10.49-5.245Z" transform="translate(-30.079 -517.997)" fill="#bd0034"/><path d="M30.079,515.569l7.986,3.992h2.3l-10.285-5.143Z" transform="translate(-30.079 -514.419)" fill="#bd0034"/><path d="M67.291,514.419h-2.3l-10.285,5.143h2.3Z" transform="translate(-36.435 -514.419)" fill="#bd0034"/><path d="M57.806,528.282l10.3,5.151v-1.15l-8-4Z" transform="translate(-37.235 -517.997)" fill="#bd0034"/><path d="M43.964,514.419v6.171H30.079v3.087H43.964v6.273H47.05v-6.273h13.9V520.59H47.05v-6.171Z" transform="translate(-30.079 -514.419)" fill="#bd0034"/><path d="M87.819,528.024H89.5l.519-1.6.517,1.6H92.21l-1.356.985.517,1.6-1.356-.986-1.358.986.519-1.6Z" transform="translate(-44.981 -517.519)" fill="#fff"/><path d="M88.821,528.54H89.93l.344-1.055.342,1.055h1.108l-.9.652.344,1.055-.9-.652-.9.652.342-1.055Z" transform="translate(-45.239 -517.791)" fill="#bd0034"/><path d="M78.778,537.12h1.677l.519-1.6.517,1.6h1.678l-1.356.985.517,1.6-1.356-.986-1.356.986.517-1.6Z" transform="translate(-42.648 -519.866)" fill="#fff"/><path d="M79.78,537.636h1.108l.344-1.055.342,1.055h1.11l-.9.652.342,1.055-.9-.652-.9.652.342-1.055Z" transform="translate(-42.906 -520.139)" fill="#bd0034"/><path d="M95.9,534.925h1.493l.461-1.419.462,1.419H99.8L98.6,535.8l.462,1.42-1.209-.878-1.207.878.461-1.42Z" transform="translate(-47.065 -519.345)" fill="#fff"/><path d="M96.788,535.383h.987l.3-.938.306.938h.987l-.8.581.3.938-.8-.579-.8.579.3-.938Z" transform="translate(-47.296 -519.588)" fill="#bd0034"/><path d="M87.493,551.335h1.862l.575-1.774.576,1.774h1.863l-1.507,1.1.575,1.773-1.507-1.1-1.505,1.1L89,552.432Z" transform="translate(-44.897 -523.489)" fill="#fff"/><path d="M88.606,551.909h1.232l.38-1.174.381,1.174h1.23l-1,.725.381,1.174-1-.726-1,.726.381-1.174Z" transform="translate(-45.184 -523.792)" fill="#bd0034"/></g></g></g></svg>