<svg xmlns="http://www.w3.org/2000/svg" xmlns:xlink="http://www.w3.org/1999/xlink" width="36" height="36" viewBox="0 0 36 36"><defs><clipPath id="a"><circle cx="18" cy="18" r="18" transform="translate(1300 701)" fill="#fff" stroke="#707070" stroke-width="1"/></clipPath></defs><g transform="translate(-1300 -701)" clip-path="url(#a)"><g transform="translate(33 -1)"><g transform="translate(-27 72)"><rect width="39" height="36" transform="translate(1293 630)" fill="#c9002a"/><rect width="13" height="36" transform="translate(1306 630)" fill="#63accc"/></g><g transform="translate(-28 74.319)"><path d="M341.441,370.7a1.933,1.933,0,1,1-1.933,1.933,1.934,1.934,0,0,1,1.933-1.933" transform="translate(960.053 268.13)" fill="#f5eb2e"/><path d="M341.271,368.619a2.109,2.109,0,1,1-2.108,2.108,2.109,2.109,0,0,1,2.108-2.108" transform="translate(960.223 269.155)" fill="#c9002a"/><path d="M341.955,370.7a1.406,1.406,0,1,1-1.405,1.406,1.406,1.406,0,0,1,1.405-1.406" transform="translate(959.539 268.13)" fill="#f5eb2e"/><path d="M342.434,364.492c-.267.194-.067.507-.087.673s-.111.217-.151.363a.742.742,0,0,0,.012.455.832.832,0,0,1,.072.184l0,.012v.007l0,0a.019.019,0,0,1,0,.008v.006a.131.131,0,0,1,0,.028.176.176,0,1,1-.353,0v-.008l0,0V366.2l0-.008v-.006l0,0v0l0-.007v0l0,0v-.006c.029-.091.112-.173.111-.293a.485.485,0,0,0-.131-.286.3.3,0,0,1,0-.23c-.074.092-.157.161-.157.262a2.547,2.547,0,0,1,.039.26c-.005.127-.21.208-.218.526a.879.879,0,1,0,1.758,0c-.008-.317-.213-.4-.218-.526a2.293,2.293,0,0,1,.039-.26c0-.1-.083-.17-.157-.262a.3.3,0,0,1,0,.23.485.485,0,0,0-.132.286c0,.12.083.2.111.293v0h0v0l0,0a.027.027,0,0,1,0,.009.034.034,0,0,1,0,.01l0,.006a.072.072,0,0,0,0,.011.02.02,0,0,0,0,.006l0,0v.008a.175.175,0,0,1-.341.06v0a.171.171,0,0,1-.013-.058.306.306,0,0,1,0-.03v0l0-.006,0-.006v-.007l0,0,0-.006v0a1.633,1.633,0,0,1,.068-.164.938.938,0,0,0,.086-.362,1.115,1.115,0,0,0-.177-.6,1.821,1.821,0,0,1-.236-.348.243.243,0,0,1,.036-.2" transform="translate(959.027 271.19)" fill="#f5eb2e"/><rect width="1.758" height="8.436" transform="translate(1297.628 643.046)" fill="#f5eb2e"/><rect width="1.757" height="8.436" transform="translate(1303.604 643.046)" fill="#f5eb2e"/><path d="M339.856,379.016h3.515l-1.758,1.054" transform="translate(959.881 264.03)" fill="#f5eb2e"/><rect width="3.515" height="0.703" transform="translate(1299.737 644.452)" fill="#f5eb2e"/><rect width="3.515" height="0.703" transform="translate(1299.737 649.373)" fill="#f5eb2e"/><path d="M339.856,393.573h3.515l-1.758,1.055" transform="translate(959.881 256.854)" fill="#f5eb2e"/><path d="M341.613,383.869a1.757,1.757,0,1,1-1.757,1.757,1.758,1.758,0,0,1,1.757-1.757" transform="translate(959.881 261.638)" fill="#f5eb2e"/></g></g></g></svg>