<svg xmlns="http://www.w3.org/2000/svg" xmlns:xlink="http://www.w3.org/1999/xlink" width="36" height="36" viewBox="0 0 36 36"><defs><clipPath id="a"><circle cx="18" cy="18" r="18" transform="translate(616 408)" fill="none" stroke="#707070" stroke-width="1"/></clipPath><clipPath id="b"><rect width="67.655" height="39.467" fill="none"/></clipPath></defs><g transform="translate(-616 -408)" clip-path="url(#a)"><g transform="translate(-29.971 -29.358)"><g transform="translate(628.836 435.625)" clip-path="url(#b)"><rect width="67.655" height="39.466" transform="translate(0 0.001)" fill="#4eaec4"/><path d="M634.292,469.568a1.236,1.236,0,0,1,1.27-1.195,1.025,1.025,0,0,1,1.152,1.036,1.743,1.743,0,0,1-.215.86s-1.241,2.573-1.723,3.57a1.043,1.043,0,0,0-.08.472.63.63,0,0,0,1.258-.011c0-.393-.2-.568-.413-.568-.259,0-.362.106-.362.287,0,.126.062.18.149.18.221,0,.159-.3.159-.3a.2.2,0,0,1,.149.276.142.142,0,1,1,0,.245.2.2,0,0,1-.168.289.305.305,0,0,0,.023-.182.452.452,0,0,1-.6-.446.64.64,0,0,1,.807-.659.373.373,0,0,1-.2-.319.694.694,0,0,0,.2.042.665.665,0,0,1-.142-.414c.1.044.187.127.312.074a.762.762,0,0,1,.658-1.04,1.272,1.272,0,0,0-.333.829c0,.915.254,1.068.254,1.7a.938.938,0,0,1-.408.749v-.011a.548.548,0,0,1,.361.256,2.458,2.458,0,0,1-1.328-.012.978.978,0,0,1-.7-.467,1.409,1.409,0,0,1,0-1.127c.244-.51,1.394-2.942,1.752-3.706a1.205,1.205,0,0,0,.122-.521.649.649,0,0,0-.673-.632.572.572,0,0,0-.591.5c0,.176.1.282.235.282.329,0,.31-.281.243-.457a.413.413,0,0,1,.292.43.525.525,0,0,1,.33.186.418.418,0,0,1-.33.181c.067.269-.115.382-.292.446.057-.2.094-.425-.243-.425a.626.626,0,0,1-.553-.2c-.006.212-.027,1.052-.027,1.052-.015.315.424.306.7.212a.656.656,0,0,1-.817.51.39.39,0,0,1,.25.381,1,1,0,0,1-.4.721Z" transform="translate(-629.847 -441.738)" fill="#f5c832"/><path d="M633.94,469.568a1.235,1.235,0,0,0-1.27-1.195,1.025,1.025,0,0,0-1.152,1.036,1.743,1.743,0,0,0,.215.86s1.241,2.573,1.723,3.57a1.043,1.043,0,0,1,.08.472.63.63,0,0,1-1.258-.011c0-.393.2-.568.413-.568.259,0,.362.106.362.287,0,.126-.062.18-.149.18-.221,0-.159-.3-.159-.3a.2.2,0,0,0-.149.276.142.142,0,1,0,0,.245.2.2,0,0,0,.168.289.305.305,0,0,1-.023-.182.452.452,0,0,0,.6-.446.64.64,0,0,0-.807-.659.373.373,0,0,0,.2-.319.7.7,0,0,1-.2.042.665.665,0,0,0,.142-.414c-.1.044-.187.127-.312.074a.762.762,0,0,0-.658-1.04,1.272,1.272,0,0,1,.334.829c0,.915-.254,1.068-.254,1.7a.938.938,0,0,0,.408.749v-.011a.548.548,0,0,0-.361.256,2.458,2.458,0,0,0,1.328-.012.978.978,0,0,0,.7-.467,1.409,1.409,0,0,0,0-1.127c-.244-.51-1.394-2.942-1.752-3.706a1.205,1.205,0,0,1-.122-.521.649.649,0,0,1,.673-.632.572.572,0,0,1,.591.5c0,.176-.1.282-.235.282-.329,0-.31-.281-.243-.457a.413.413,0,0,0-.292.43.529.529,0,0,0-.33.186.418.418,0,0,0,.33.181c-.067.269.115.382.292.446-.057-.2-.093-.425.243-.425a.625.625,0,0,0,.553-.2c.007.212.027,1.052.027,1.052.015.315-.424.306-.7.212a.656.656,0,0,0,.817.51.39.39,0,0,0-.25.381,1,1,0,0,0,.4.721Z" transform="translate(-629.337 -441.738)" fill="#f5c832"/><path d="M634.349,479.681s.375.315.5.156c.2-.254-.629-1.517-.629-1.963,0-.73.487-.929,1.091-1.033a4.3,4.3,0,0,1,1.064.029.459.459,0,0,1-.415.229.87.87,0,0,1,.471.791c0,.628-.259.887-.259,1.595a2.084,2.084,0,0,0,.323.893.764.764,0,0,1-.693-1.005.28.28,0,0,0-.245.074.418.418,0,0,1,.113-.368c-.072-.038-.124-.016-.237.008a.512.512,0,0,1,.26-.369.62.62,0,0,1-.829-.6.453.453,0,0,1,.39-.485.412.412,0,0,1,.208.064.315.315,0,0,0-.02-.259c.141.037.232.122.168.3a.364.364,0,0,1,.254.117.3.3,0,0,1-.254.117c.079.164-.01.255-.138.329,0,0,.081-.329-.127-.329-.1,0-.181.031-.181.168a.3.3,0,0,0,.351.277c.243-.01.442-.168.442-.556,0-.359-.29-.538-.672-.549a.524.524,0,0,0-.605.53c0,.473.683,1.549.683,1.97a.522.522,0,0,1-.564.492,1.043,1.043,0,0,1-.666-.357Z" transform="translate(-629.825 -443.314)" fill="#f5c832"/><path d="M633.905,479.681s-.375.315-.5.156c-.2-.254.629-1.517.629-1.963,0-.73-.487-.929-1.092-1.033a4.3,4.3,0,0,0-1.064.029.459.459,0,0,0,.415.229.87.87,0,0,0-.471.791c0,.628.259.887.259,1.595a2.084,2.084,0,0,1-.323.893.764.764,0,0,0,.693-1.005.28.28,0,0,1,.245.074.418.418,0,0,0-.113-.368c.072-.038.124-.016.237.008a.512.512,0,0,0-.26-.369.62.62,0,0,0,.829-.6.451.451,0,0,0-.39-.485.411.411,0,0,0-.208.064.315.315,0,0,1,.02-.259c-.141.037-.232.122-.168.3a.364.364,0,0,0-.254.117.3.3,0,0,0,.254.117c-.079.164.01.255.138.329,0,0-.081-.329.127-.329.1,0,.181.031.181.168a.3.3,0,0,1-.351.277c-.243-.01-.442-.168-.442-.556,0-.359.29-.538.672-.549a.524.524,0,0,1,.605.53c0,.473-.683,1.549-.683,1.97a.522.522,0,0,0,.564.492,1.044,1.044,0,0,0,.666-.357Z" transform="translate(-629.381 -443.314)" fill="#f5c832"/><path d="M634.292,452.574a1.236,1.236,0,0,1,1.27-1.195,1.025,1.025,0,0,1,1.152,1.036,1.742,1.742,0,0,1-.215.86s-1.241,2.573-1.723,3.569a1.05,1.05,0,0,0-.08.473.63.63,0,0,0,1.258-.011c0-.392-.2-.568-.413-.568-.259,0-.362.106-.362.287,0,.126.062.18.149.18.221,0,.159-.3.159-.3a.2.2,0,0,1,.149.276.142.142,0,1,1,0,.245.2.2,0,0,1-.168.289.3.3,0,0,0,.023-.182.452.452,0,0,1-.6-.447.64.64,0,0,1,.807-.659.373.373,0,0,1-.2-.318.726.726,0,0,0,.2.042.667.667,0,0,1-.142-.414c.1.044.187.126.312.074a.762.762,0,0,1,.658-1.041,1.274,1.274,0,0,0-.333.829c0,.915.254,1.069.254,1.7a.938.938,0,0,1-.408.749v-.01a.544.544,0,0,1,.361.255,2.45,2.45,0,0,1-1.328-.012.978.978,0,0,1-.7-.467,1.407,1.407,0,0,1,0-1.126c.244-.51,1.394-2.943,1.752-3.707a1.206,1.206,0,0,0,.122-.521.649.649,0,0,0-.673-.632.572.572,0,0,0-.591.5c0,.176.1.281.235.281.329,0,.31-.281.243-.457a.413.413,0,0,1,.292.431.526.526,0,0,1,.33.185.417.417,0,0,1-.33.181c.067.269-.115.382-.292.446.057-.2.094-.425-.243-.425a.624.624,0,0,1-.553-.2c-.006.213-.027,1.052-.027,1.052-.015.316.424.307.7.213a.656.656,0,0,1-.817.51.391.391,0,0,1,.25.382,1,1,0,0,1-.4.72Z" transform="translate(-629.847 -438.566)" fill="#f5c832"/><path d="M633.94,452.574a1.235,1.235,0,0,0-1.27-1.195,1.025,1.025,0,0,0-1.152,1.036,1.742,1.742,0,0,0,.215.86s1.241,2.573,1.723,3.569a1.05,1.05,0,0,1,.08.473.63.63,0,0,1-1.258-.011c0-.392.2-.568.413-.568.259,0,.362.106.362.287,0,.126-.062.18-.149.18-.221,0-.159-.3-.159-.3a.2.2,0,0,0-.149.276.142.142,0,1,0,0,.245.2.2,0,0,0,.168.289.3.3,0,0,1-.023-.182.452.452,0,0,0,.6-.447.64.64,0,0,0-.807-.659.373.373,0,0,0,.2-.318.726.726,0,0,1-.2.042.667.667,0,0,0,.142-.414c-.1.044-.187.126-.312.074a.762.762,0,0,0-.658-1.041,1.274,1.274,0,0,1,.334.829c0,.915-.254,1.069-.254,1.7a.938.938,0,0,0,.408.749v-.01a.544.544,0,0,0-.361.255,2.451,2.451,0,0,0,1.328-.012.978.978,0,0,0,.7-.467,1.407,1.407,0,0,0,0-1.126c-.244-.51-1.394-2.943-1.752-3.707a1.206,1.206,0,0,1-.122-.521.649.649,0,0,1,.673-.632.572.572,0,0,1,.591.5c0,.176-.1.281-.235.281-.329,0-.31-.281-.243-.457a.413.413,0,0,0-.292.431.53.53,0,0,0-.33.185.417.417,0,0,0,.33.181c-.067.269.115.382.292.446-.057-.2-.093-.425.243-.425a.624.624,0,0,0,.553-.2c.007.213.027,1.052.027,1.052.015.316-.424.307-.7.213a.656.656,0,0,0,.817.51.391.391,0,0,0-.25.382,1,1,0,0,0,.4.72Z" transform="translate(-629.337 -438.566)" fill="#f5c832"/><path d="M633.94,448.6a1.235,1.235,0,0,1-1.27,1.2,1.025,1.025,0,0,1-1.152-1.036,1.743,1.743,0,0,1,.215-.86s1.241-2.574,1.723-3.57a1.045,1.045,0,0,0,.08-.473.63.63,0,0,0-1.258.011c0,.392.2.568.413.568.259,0,.362-.106.362-.287,0-.126-.062-.181-.149-.181-.221,0-.159.3-.159.3a.2.2,0,0,1-.149-.277.4.4,0,0,1-.215-.127.389.389,0,0,1,.215-.117.2.2,0,0,1,.168-.29.307.307,0,0,0-.023.183.452.452,0,0,1,.6.447.64.64,0,0,1-.807.658.375.375,0,0,1,.2.319.725.725,0,0,0-.2-.042.667.667,0,0,1,.142.414c-.1-.044-.187-.126-.312-.074a.762.762,0,0,1-.658,1.041,1.275,1.275,0,0,0,.334-.829c0-.915-.254-1.069-.254-1.7a.938.938,0,0,1,.408-.75v.011a.547.547,0,0,1-.361-.255,2.451,2.451,0,0,1,1.328.011.981.981,0,0,1,.7.468,1.407,1.407,0,0,1,0,1.126c-.244.51-1.394,2.943-1.752,3.707a1.2,1.2,0,0,0-.122.521.649.649,0,0,0,.673.631.572.572,0,0,0,.591-.5c0-.176-.1-.281-.235-.281-.329,0-.31.28-.243.457a.414.414,0,0,1-.292-.431.528.528,0,0,1-.33-.185.416.416,0,0,1,.33-.181c-.067-.269.115-.382.292-.447-.057.2-.093.425.243.425a.623.623,0,0,1,.553.2c.007-.212.027-1.052.027-1.052.015-.316-.424-.306-.7-.212a.655.655,0,0,1,.817-.51.391.391,0,0,1-.25-.382,1,1,0,0,1,.4-.72Z" transform="translate(-629.337 -436.963)" fill="#f5c832"/><path d="M634.292,448.6a1.236,1.236,0,0,0,1.27,1.2,1.025,1.025,0,0,0,1.152-1.036,1.743,1.743,0,0,0-.215-.86s-1.241-2.574-1.723-3.57a1.045,1.045,0,0,1-.08-.473.63.63,0,0,1,1.258.011c0,.392-.2.568-.413.568-.259,0-.362-.106-.362-.287,0-.126.062-.181.149-.181.221,0,.159.3.159.3a.2.2,0,0,0,.149-.277.4.4,0,0,0,.215-.127.389.389,0,0,0-.215-.117.2.2,0,0,0-.168-.29.307.307,0,0,1,.023.183.452.452,0,0,0-.6.447.64.64,0,0,0,.807.658.375.375,0,0,0-.2.319.725.725,0,0,1,.2-.042.667.667,0,0,0-.142.414c.1-.044.187-.126.312-.074a.762.762,0,0,0,.658,1.041,1.275,1.275,0,0,1-.333-.829c0-.915.254-1.069.254-1.7a.938.938,0,0,0-.408-.75v.011a.547.547,0,0,0,.361-.255,2.451,2.451,0,0,0-1.328.011.981.981,0,0,0-.7.468,1.407,1.407,0,0,0,0,1.126c.244.51,1.394,2.943,1.752,3.707a1.2,1.2,0,0,1,.122.521.649.649,0,0,1-.673.631.572.572,0,0,1-.591-.5c0-.176.1-.281.235-.281.329,0,.31.28.243.457a.414.414,0,0,0,.292-.431.524.524,0,0,0,.33-.185.416.416,0,0,0-.33-.181c.067-.269-.115-.382-.292-.447.057.2.094.425-.243.425a.624.624,0,0,0-.553.2c-.006-.212-.027-1.052-.027-1.052-.015-.316.424-.306.7-.212a.655.655,0,0,0-.817-.51.391.391,0,0,0,.25-.382,1,1,0,0,0-.4-.72Z" transform="translate(-629.847 -436.963)" fill="#f5c832"/><path d="M633.94,465.6a1.234,1.234,0,0,1-1.27,1.195,1.024,1.024,0,0,1-1.152-1.036,1.745,1.745,0,0,1,.215-.86s1.241-2.573,1.723-3.569a1.044,1.044,0,0,0,.08-.473.63.63,0,0,0-1.258.011c0,.393.2.569.413.569.259,0,.362-.107.362-.288,0-.125-.062-.18-.149-.18-.221,0-.159.3-.159.3a.2.2,0,0,1-.149-.277.142.142,0,1,1,0-.245.2.2,0,0,1,.168-.289.307.307,0,0,0-.023.183.451.451,0,0,1,.6.446.641.641,0,0,1-.807.66.371.371,0,0,1,.2.317.743.743,0,0,0-.2-.041.665.665,0,0,1,.142.414c-.1-.044-.187-.126-.312-.074a.762.762,0,0,1-.658,1.041,1.276,1.276,0,0,0,.334-.83c0-.915-.254-1.068-.254-1.7a.938.938,0,0,1,.408-.749v.011a.548.548,0,0,1-.361-.256,2.458,2.458,0,0,1,1.328.012.979.979,0,0,1,.7.468,1.407,1.407,0,0,1,0,1.126c-.244.51-1.394,2.943-1.752,3.706a1.206,1.206,0,0,0-.122.521.649.649,0,0,0,.673.631.572.572,0,0,0,.591-.5c0-.176-.1-.282-.235-.282-.329,0-.31.281-.243.458a.415.415,0,0,1-.292-.431.532.532,0,0,1-.33-.185.417.417,0,0,1,.33-.181c-.067-.268.115-.382.292-.446-.057.2-.093.425.243.425a.623.623,0,0,1,.553.2c.007-.213.027-1.052.027-1.052.015-.316-.424-.307-.7-.213a.656.656,0,0,1,.817-.51.39.39,0,0,1-.25-.381,1,1,0,0,1,.4-.721Z" transform="translate(-629.337 -440.135)" fill="#f5c832"/><path d="M634.292,465.6a1.235,1.235,0,0,0,1.27,1.195,1.024,1.024,0,0,0,1.152-1.036,1.745,1.745,0,0,0-.215-.86s-1.241-2.573-1.723-3.569a1.044,1.044,0,0,1-.08-.473.63.63,0,0,1,1.258.011c0,.393-.2.569-.413.569-.259,0-.362-.107-.362-.288,0-.125.062-.18.149-.18.221,0,.159.3.159.3a.2.2,0,0,0,.149-.277.142.142,0,1,0,0-.245.2.2,0,0,0-.168-.289.307.307,0,0,1,.023.183.451.451,0,0,0-.6.446.641.641,0,0,0,.807.66.371.371,0,0,0-.2.317.743.743,0,0,1,.2-.041.665.665,0,0,0-.142.414c.1-.044.187-.126.312-.074a.762.762,0,0,0,.658,1.041,1.276,1.276,0,0,1-.333-.83c0-.915.254-1.068.254-1.7a.938.938,0,0,0-.408-.749v.011a.548.548,0,0,0,.361-.256,2.458,2.458,0,0,0-1.328.012.979.979,0,0,0-.7.468,1.407,1.407,0,0,0,0,1.126c.244.51,1.394,2.943,1.752,3.706a1.206,1.206,0,0,1,.122.521.649.649,0,0,1-.673.631.572.572,0,0,1-.591-.5c0-.176.1-.282.235-.282.329,0,.31.281.243.458a.414.414,0,0,0,.292-.431.528.528,0,0,0,.33-.185.417.417,0,0,0-.33-.181c.067-.268-.115-.382-.292-.446.057.2.094.425-.243.425a.624.624,0,0,0-.553.2c-.006-.213-.027-1.052-.027-1.052-.015-.316.424-.307.7-.213a.656.656,0,0,0-.817-.51.39.39,0,0,0,.25-.381,1,1,0,0,0-.4-.721Z" transform="translate(-629.847 -440.135)" fill="#f5c832"/><path d="M634.349,439.282s.375-.315.5-.157c.2.254-.629,1.518-.629,1.963,0,.73.487.929,1.091,1.033a4.317,4.317,0,0,0,1.064-.028.456.456,0,0,0-.415-.229.871.871,0,0,0,.471-.791c0-.628-.259-.887-.259-1.6a2.089,2.089,0,0,1,.323-.893.765.765,0,0,0-.693,1.006.283.283,0,0,1-.245-.075.42.42,0,0,0,.113.369c-.072.038-.124.015-.237-.008a.515.515,0,0,0,.26.369.62.62,0,0,0-.829.6.452.452,0,0,0,.39.485.4.4,0,0,0,.208-.064.317.317,0,0,1-.02.259c.141-.037.232-.122.168-.3a.364.364,0,0,0,.254-.117.3.3,0,0,0-.254-.116c.079-.164-.01-.255-.138-.33,0,0,.081.33-.127.33-.1,0-.181-.032-.181-.169a.3.3,0,0,1,.351-.277c.243.01.442.168.442.556,0,.36-.29.538-.672.55a.524.524,0,0,1-.605-.53c0-.473.683-1.549.683-1.97a.522.522,0,0,0-.564-.493,1.043,1.043,0,0,0-.666.358Z" transform="translate(-629.825 -436.177)" fill="#f5c832"/><path d="M633.905,439.282s-.375-.315-.5-.157c-.2.254.629,1.518.629,1.963,0,.73-.487.929-1.092,1.033a4.317,4.317,0,0,1-1.064-.028.456.456,0,0,1,.415-.229.871.871,0,0,1-.471-.791c0-.628.259-.887.259-1.6a2.089,2.089,0,0,0-.323-.893.765.765,0,0,1,.693,1.006.283.283,0,0,0,.245-.075.42.42,0,0,1-.113.369c.072.038.124.015.237-.008a.515.515,0,0,1-.26.369.62.62,0,0,1,.829.6.451.451,0,0,1-.39.485.4.4,0,0,1-.208-.064.317.317,0,0,0,.02.259c-.141-.037-.232-.122-.168-.3a.363.363,0,0,1-.254-.117.3.3,0,0,1,.254-.116c-.079-.164.01-.255.138-.33,0,0-.081.33.127.33.1,0,.181-.032.181-.169a.3.3,0,0,0-.351-.277c-.243.01-.442.168-.442.556,0,.36.29.538.672.55a.524.524,0,0,0,.605-.53c0-.473-.683-1.549-.683-1.97a.522.522,0,0,1,.564-.493,1.043,1.043,0,0,1,.666.358Z" transform="translate(-629.381 -436.177)" fill="#f5c832"/><path d="M633.4,466.842c0-.065-.143-.026-.246,0s-.167.073-.16.138.137.033.242.01.17-.081.165-.146" transform="translate(-629.612 -441.445)" fill="#4eaec4"/><path d="M633.049,467.047h-.036l-.07-.075c-.008-.084.063-.151.191-.18a.968.968,0,0,1,.194-.034h.036l.064.072c.006.085-.071.159-.2.187a.988.988,0,0,1-.184.03" transform="translate(-629.602 -441.436)" fill="#4eaec4"/><path d="M669.559,466.5a9.387,9.387,0,0,1-9.36-8.476s-.21-.08-.237.108c-.065.45.123,1.83.053,1.737-.129-.175-1.1-2.765-1.273-2.486-.235.377,1.083,3.326,1.009,3.413-.267.316-1.779-2.878-1.9-2.643-.461.895,1.871,3.8,1.854,3.917-.053.386-1.773-1.56-1.918-1.352-.324.469,1.856,2.183,1.97,2.315.337.391-1.194-.691-1.242-.317-.038.306.743.922,1.209,1.189s.617.184.75.412c.1.172-.875-.111-.848.106.053.425,1.071.334,1.225.525s-.695.045-.66.2c.059.277.922.317.935.435s-.543.038-.507.264c.03.194.875.154,1.082.292s-.758.018-.007.393a10.3,10.3,0,0,0,2.782,1.023c1.175.229,1.773-.028,1.815-.1s-.555.062-1.388-.09a9.076,9.076,0,0,1-2.4-.943c-.142-.082.443-.251.321-.412s-.594.023-.777-.207c-.118-.149.222-.152.214-.245s-.651-.238-.765-.4.29-.135.3-.245c.011-.078-.4-.216-.433-.323s.465-.076.233-.207c-.248-.139-.918-.311-1.044-.551s.512.034.345-.193c-.111-.152-.728-.416-.856-.773-.089-.243.434-.031.442-.184.012-.242-.31-.088-.412-.786-.033-.229.41-.076.41-.076l.06-.122a5.062,5.062,0,0,1,1.195,1.071c.673.781.864,1.52,1.5,2.052.3.253.307-.1,1,.326a11.987,11.987,0,0,1,1.692,1.344,14.579,14.579,0,0,1,1.955.2c.744.154.9.548.9.548a1.972,1.972,0,0,0,.613-.551c.078-.118.155,0,.178-.026.081-.07-.011-.163-.011-.163" transform="translate(-634.234 -439.682)" fill="#f5c832"/><path d="M665.356,467.692a4.778,4.778,0,0,1-.9-.094,10.434,10.434,0,0,1-2.791-1.027c-.232-.115-.322-.192-.311-.265s.119-.1.224-.116a.473.473,0,0,0,.109-.028,2.62,2.62,0,0,0-.513-.092c-.313-.039-.583-.073-.6-.212l0-.016.026-.092c.056-.077.194-.1.315-.117a.456.456,0,0,0,.168-.043,1.341,1.341,0,0,0-.285-.088c-.271-.067-.608-.151-.649-.342.059-.121.183-.128.381-.136a.816.816,0,0,0,.3-.038.9.9,0,0,0-.447-.139c-.357-.06-.761-.129-.8-.419.1-.2.3-.133.542-.108.09.008.178.017.242.017,0-.117-.071-.142-.212-.192a2.533,2.533,0,0,1-.455-.206c-.436-.25-1.271-.887-1.228-1.228.006-.043.032-.114.15-.114a2.587,2.587,0,0,1,.823.326,2,2,0,0,0,.341.157,1.7,1.7,0,0,1-.285-.216c-1.008-.867-2-1.8-1.751-2.168.194-.039.494.229.969.66a3.823,3.823,0,0,0,.928.725,2.149,2.149,0,0,0-.288-.472c-.621-.9-1.911-2.769-1.548-3.475.159-.037.335.263.792,1.052.368.634.925,1.592,1.1,1.592a5.438,5.438,0,0,0-.294-.87,6.28,6.28,0,0,1-.7-2.546c.205-.048.52.585,1.042,1.819.112.266.212.5.266.611a2.746,2.746,0,0,1-.055-.451,7.463,7.463,0,0,1-.038-1.215.171.171,0,0,1,.181-.159.321.321,0,0,1,.108.02,9.343,9.343,0,0,0,9.312,8.473.147.147,0,0,1,.118.141v.017l-.046.076-.061-.039-.063.02a2.158,2.158,0,0,1-.692.606,1.284,1.284,0,0,0-.907-.548,7.253,7.253,0,0,0-1.529-.176l-.251,0c-.1,0-.156-.006-.192-.037l-.412-.359a8.648,8.648,0,0,0-1.275-.982,1.112,1.112,0,0,0-.6-.223l-.134,0a.389.389,0,0,1-.271-.111,3.9,3.9,0,0,1-.813-1.057,6.735,6.735,0,0,0-.691-1,5.119,5.119,0,0,0-1.183-1.063l-.006.106a2.08,2.08,0,0,1-.3-.028.137.137,0,0,0-.1.027c.05.464.185.565.282.638a.223.223,0,0,1,.12.21c-.006.1-.129.1-.181.1l-.154,0c-.081,0-.107.012-.114.023a1.339,1.339,0,0,0,.586.605,1.158,1.158,0,0,1,.269.209l.015.02.014.1c-.02.041-.072.046-.116.046l-.2-.011c.021.2.357.328.627.434a2.9,2.9,0,0,1,.343.149c.041.023.088.055.082.1s-.077.071-.165.09a.384.384,0,0,0-.133.045.8.8,0,0,0,.22.146c.136.072.225.122.216.187s-.1.1-.189.123c-.05.015-.129.037-.137.062a1.051,1.051,0,0,0,.459.259c.223.086.321.127.328.19s-.069.1-.135.126c-.039.015-.1.04-.1.062a.488.488,0,0,0,.438.151c.148,0,.288,0,.355.094l.024.089c-.015.085-.124.153-.229.22a.506.506,0,0,0-.13.1,9.355,9.355,0,0,0,2.392.933,4.709,4.709,0,0,0,.859.075c.119,0,.221,0,.3-.007l.137,0c.068,0,.1,0,.119.033-.044.126-.368.268-.96.268m-5.544-3.314c-.118,0-.148.02-.155.028.025.246.416.311.729.364.232.039.416.069.485.155l.015.019.006.076c-.032.068-.159.076-.365.085-.1,0-.288.01-.307.041.031.142.355.222.591.281s.337.087.343.158c.011.09-.108.108-.234.128-.1.015-.225.035-.263.085,0,.13.306.168.527.2a1.532,1.532,0,0,1,.529.12l.046.078c-.011.049-.072.061-.166.078-.045.009-.15.028-.161.051,0,0,0,.05.269.183a10.348,10.348,0,0,0,2.772,1.019,4.685,4.685,0,0,0,.884.094,1.573,1.573,0,0,0,.89-.178l-.182.038c-.083,0-.186.006-.306.006a4.887,4.887,0,0,1-.874-.075,9.193,9.193,0,0,1-2.414-.948c-.044-.121.027-.165.124-.228.077-.049.183-.116.193-.167-.053-.086-.174-.088-.3-.089a.6.6,0,0,1-.483-.146l-.03-.1c.015-.059.084-.088.15-.115.028-.012.081-.034.086-.047a1.568,1.568,0,0,0-.278-.122,1.257,1.257,0,0,1-.481-.256l-.024-.1c.022-.062.1-.085.19-.11.042-.012.129-.037.133-.059a.951.951,0,0,0-.176-.107c-.144-.078-.239-.134-.257-.2.034-.1.109-.119.189-.137a.376.376,0,0,0,.109-.033c-.123-.056-.246-.1-.379-.156-.3-.116-.634-.248-.726-.423l-.01-.02v-.093c.044-.074.15-.051.242-.045l.091.006c-.011-.084-.11-.15-.225-.225a1.494,1.494,0,0,1-.612-.594.127.127,0,0,1,0-.122.213.213,0,0,1,.179-.058l.154,0c.046,0,.1,0,.1-.024,0-.073-.028-.1-.089-.142a.8.8,0,0,1-.322-.636.141.141,0,0,1,.028-.117c.086-.1.424,0,.433,0l.012-.1h0a3.527,3.527,0,0,1,1.258,1.063,6.872,6.872,0,0,1,.7,1.009,3.866,3.866,0,0,0,.8,1.038.314.314,0,0,0,.22.093l.134-.006a1.172,1.172,0,0,1,.638.236,8.655,8.655,0,0,1,1.285.989l.412.359a.341.341,0,0,0,.142.018l.251,0a7.356,7.356,0,0,1,1.545.176c.756.157.92.555.926.573a5.9,5.9,0,0,0,.544-.559.136.136,0,0,1,.112-.072l.081.024.006-.12-.034.04a9.376,9.376,0,0,1-9.363-8.49c-.013,0-.033,0-.057,0a.091.091,0,0,0-.1.09,7.5,7.5,0,0,0,.039,1.2c.036.466.037.535.011.563-.109-.06-.206-.288-.374-.686a8.038,8.038,0,0,0-.9-1.81,7.746,7.746,0,0,0,.709,2.479c.3.785.333.9.3.941l-.076.036c-.2,0-.594-.646-1.165-1.631a5.9,5.9,0,0,0-.674-1.046c-.322.655.951,2.5,1.562,3.384.27.39.321.47.316.511l0,.034-.087.05c-.149,0-.469-.281-.981-.747a3.715,3.715,0,0,0-.849-.672c-.249.357,1.245,1.641,1.736,2.063.124.107.209.18.229.2.046.054.068.09.053.124-.1.025-.214-.028-.426-.137a2.665,2.665,0,0,0-.787-.319c-.067,0-.071.029-.073.046-.033.267.682.86,1.19,1.15a2.412,2.412,0,0,0,.442.2.5.5,0,0,1,.323.228c-.038.237-.209.12-.388.1-.1-.01-.209-.02-.3-.02" transform="translate(-634.224 -439.682)" fill="#f5c832"/><path d="M675.482,470.538c-.192-.036-.167.116-.167.116a.439.439,0,0,1-.283.436c-.122.032-.062.122-.1.207l-.513-.027a5.138,5.138,0,0,1-3.072.464s-.257.2-.487.4-.39.248-.438.412.123.25.334.256a1.032,1.032,0,0,0,.489-.192.246.246,0,0,0,.23.18,1.819,1.819,0,0,0,.553-.115,1.216,1.216,0,0,0,.527.106,1.022,1.022,0,0,0,.421-.173s.06.263.285.273.578-.283.578-.283a.482.482,0,0,0,.373.167,1.087,1.087,0,0,0,.462-.27.846.846,0,0,0,.5.039,1.29,1.29,0,0,0,.475-.321.509.509,0,0,0,.412.115c.2-.064.324-.337.324-.337a1.314,1.314,0,0,0,.871.042c.246-.118.179-.5.179-.5s1.44.209,1.376-.733c-.007-.1-2.31-.066-3.328-.257" transform="translate(-636.596 -442.141)" fill="#f5c832"/><path d="M673.261,472.908h-.013a.369.369,0,0,1-.315-.281.589.589,0,0,1-.384.18A1.966,1.966,0,0,1,672,472.7a1.425,1.425,0,0,1-.5.12.309.309,0,0,1-.3-.194.634.634,0,0,1-.445.206.443.443,0,0,1-.357-.133.192.192,0,0,1-.025-.174c.035-.12.121-.181.241-.268.059-.043.129-.094.208-.162.231-.2.49-.4.49-.4.316.024.592.04.857.04a4.587,4.587,0,0,0,2.22-.507l.535.022c-.021-.1-.016-.177.091-.205a.4.4,0,0,0,.252-.394.158.158,0,0,1,.032-.116.152.152,0,0,1,.121-.049,19.482,19.482,0,0,0,2.326.179c1.022.04,1.091.053,1.1.121a.646.646,0,0,1-.161.5,1.307,1.307,0,0,1-.932.29,2.816,2.816,0,0,1-.316-.019.4.4,0,0,1-.17.5,1.558,1.558,0,0,1-.894-.037.506.506,0,0,1-.3.334.583.583,0,0,1-.444-.119.817.817,0,0,1-.444.325,1.037,1.037,0,0,1-.526-.04.78.78,0,0,1-.444.272H674.2a.561.561,0,0,1-.4-.177.856.856,0,0,1-.54.294m-.32-.345c.064.032.119.257.31.265l.01.04v-.039a1.251,1.251,0,0,0,.542-.274c.056.006.191.16.36.16a1.045,1.045,0,0,0,.473-.262,2.091,2.091,0,0,0,.352.052.576.576,0,0,0,.166-.023,1.27,1.27,0,0,0,.457-.31.941.941,0,0,0,.351.117.665.665,0,0,0,.378-.328c.058-.02.314.082.582.082a.7.7,0,0,0,.307-.06c.216-.1.159-.455.158-.458.045-.047.179-.028.361-.028a1.234,1.234,0,0,0,.874-.264.564.564,0,0,0,.14-.446c-.042-.009-.539-.029-1.019-.047a18.912,18.912,0,0,1-2.276-.173l-.107.016a.53.53,0,0,1-.324.536c-.051.013-.053.032-.055.081a.3.3,0,0,1-.022.1l-.551,0a5.165,5.165,0,0,1-3.073.464c0,.01-.24.2-.459.387a2.493,2.493,0,0,1-.215.167c-.114.083-.183.132-.21.227a.112.112,0,0,0,.012.1.368.368,0,0,0,.284.1h0a1.023,1.023,0,0,0,.464-.184c.063.028.094.159.257.172h0a1.931,1.931,0,0,0,.534-.113,1.808,1.808,0,0,0,.473.107,1.038,1.038,0,0,0,.464-.169" transform="translate(-636.587 -442.132)" fill="#f5c832"/><path d="M672.028,467.1a8.012,8.012,0,0,1,1.155-.313c1.387-.286,1.867-.194,1.967-.28a5.323,5.323,0,0,1,2.7-1.632c.635-.533.842-1.293,1.515-2.074s1.07-.843,1.07-.843l.09.175s.361-.272.343-.043c-.028.346-.315.677-.3.92.008.154.494-.067.45.074-.113.362-.5.584-.613.736-.167.226.442-.08.317.156s-.74.479-.98.632c-.146.093.161.114.13.22s-.665.342-.656.42c.015.109.173.12.1.2-.133.145-.658.166-.665.255s.109.185-.008.333c-.183.232-.327,0-.4.188-.043.108.3.325.068.368a2.248,2.248,0,0,0-.831.366,6.519,6.519,0,0,1-.84.222c-.178.046-1.16.168-1.118.246a5,5,0,0,0,1.968-.158,11.252,11.252,0,0,0,1.778-.448c1.01-.32-.259-.342-.053-.48s1.088-.071,1.118-.265c.035-.226-.488-.158-.473-.281s1.068-.115,1.128-.393c.033-.157-.6-.046-.45-.237s1-.232,1.023-.595c.017-.218-.686.044-.595-.132.037-.072.321-.15.6-.346.44-.307,1.14-.839,1.1-1.144-.048-.374-1.457.871-1.336.394.043-.169,2.3-1.955,1.931-2.39-.251-.294-1.861,1.627-1.913,1.241-.016-.123,2.51-2.979,2.048-3.875-.121-.235-2.021,3.41-2.288,3.095-.075-.088,1.62-3.6,1.352-3.951-.13-.172-.4.412-.686,1.059s-.607,1.361-.672,1.448.075-1.372.01-1.822c-.027-.187-.237-.108-.237-.108-.292,4.571-4.688,7.967-8.189,8.468-.911.13-1.2.557-2.193,1.118-.335.19-.85.279-1.295.527a2.708,2.708,0,0,0-.91.859.5.5,0,0,0,.126.483c.093.04.087-.246.192-.3s.1.1.227.1a.563.563,0,0,0,.262-.122s2.471,0,3.528-.035a1.071,1.071,0,0,0,.64-.224c-.041-.118-.327-.053-.507-.044-.747-.054-1.724-.006-2.421-.049a.109.109,0,0,1-.1-.12,5.544,5.544,0,0,1,.445-.525h-.35a1.211,1.211,0,0,1-.315.131c-.1.011-.144-.055-.1-.087a16.841,16.841,0,0,1,2.119-1.119" transform="translate(-636.196 -439.695)" fill="#f5c832"/><path d="M668.423,469.526l-.032-.006c-.073-.031-.121-.157-.137-.209a.451.451,0,0,1-.006-.332,2.738,2.738,0,0,1,.925-.873,4.424,4.424,0,0,1,.735-.3,3.482,3.482,0,0,0,.559-.224c.317-.181.564-.346.781-.494a3.041,3.041,0,0,1,1.425-.63c3.711-.53,7.874-4.045,8.155-8.43a.191.191,0,0,1,.316.1,9.022,9.022,0,0,1-.01,1.213,5.467,5.467,0,0,0-.014.6,11.142,11.142,0,0,1,.519-1.243l.092-.2c.339-.756.516-1.113.67-1.113h.019l.065.046c.177.233-.328,1.484-.955,2.97a9.139,9.139,0,0,0-.391.994,7.76,7.76,0,0,0,1.341-1.872c.565-.916.789-1.261.892-1.261.417.738-.986,2.582-1.659,3.467a4.587,4.587,0,0,0-.333.461,3.189,3.189,0,0,0,.756-.565c.41-.368.834-.749,1.043-.749h.018l.085.044c.266.311-.574,1.14-1.457,1.963a4.312,4.312,0,0,0-.465.463c.1.059.329-.074.548-.2.4-.24.764-.409.789-.206.031.246-.346.643-1.119,1.182a2.768,2.768,0,0,1-.411.229.657.657,0,0,0-.181.1,1,1,0,0,0,.2,0c.165-.015.32-.02.373.037l.028.084c-.02.249-.354.353-.648.447a.977.977,0,0,0-.384.17c0,.05.116.063.18.071.12.013.224.025.264.081-.029.263-.421.329-.766.385a1.263,1.263,0,0,0-.35.081.829.829,0,0,0,.16.04c.145.028.342.068.316.236-.022.139-.3.165-.62.2a1.533,1.533,0,0,0-.516.1c.007.007.1.034.167.053.154.045.3.087.3.179,0,.061-.051.135-.424.252a11.143,11.143,0,0,1-1.782.45,10.848,10.848,0,0,1-1.711.2c-.233,0-.282-.031-.3-.064.028-.1.193-.142.8-.242.154-.025.285-.046.339-.06.085-.022.19-.046.3-.07a2.914,2.914,0,0,0,.533-.147,2.294,2.294,0,0,1,.845-.372c.056-.039.01-.1-.019-.138-.051-.069-.1-.141-.079-.2a.142.142,0,0,1,.144-.106l.093.044V466.1a.205.205,0,0,0,.172-.1.173.173,0,0,0,.021-.2.245.245,0,0,1-.021-.112c0-.07.111-.094.285-.134a.923.923,0,0,0,.391-.144c-.053-.07-.1-.107-.107-.171s.072-.107.321-.233a1.324,1.324,0,0,0,.335-.2c.006-.019-.042-.045-.074-.062-.047-.025-.1-.051-.1-.1v-.023l.059-.06c.072-.046.176-.1.29-.157a1.821,1.821,0,0,0,.676-.46.174.174,0,0,0-.141-.024.807.807,0,0,1-.119.014l-.085-.039c-.019-.037.006-.08.031-.112a1.323,1.323,0,0,1,.173-.172,1.311,1.311,0,0,0,.434-.554,1.285,1.285,0,0,0-.149.017c-.186.032-.3-.015-.3-.076a1.011,1.011,0,0,1,.137-.434,1.477,1.477,0,0,0,.165-.492c-.086-.048-.215.028-.28.078l-.146-.185a3.254,3.254,0,0,0-1.007.847,6.9,6.9,0,0,0-.7,1.009,4,4,0,0,1-.823,1.07c-.152.062-.294.111-.437.16a4.654,4.654,0,0,0-2.263,1.469c-.053.046-.145.052-.347.065a11.084,11.084,0,0,0-1.641.227,8.04,8.04,0,0,0-1.149.311,16.937,16.937,0,0,0-2.109,1.114.809.809,0,0,0,.376-.109l.369-.006c-.172.284-.391.533-.407.573l.067.111,0-.04c.7.042,1.674,0,2.421.048l.126-.011c.153-.018.361-.074.415.081a.98.98,0,0,1-.677.277c-1.043.03-3.462.035-3.527.035a.46.46,0,0,1-.261.122h0a.185.185,0,0,1-.148-.073c-.086-.013-.122.064-.14.122-.026.081-.049.155-.116.155m12.538-11.475a.242.242,0,0,0-.081.015c-.257,4.389-4.454,7.933-8.2,8.469a2.99,2.99,0,0,0-1.392.616c-.218.148-.466.316-.786.5a3.436,3.436,0,0,1-.573.231,4.39,4.39,0,0,0-.722.3,2.676,2.676,0,0,0-.9.846.391.391,0,0,0,.015.265.3.3,0,0,0,.093.161h0a.328.328,0,0,0,.042-.1c.024-.077.052-.164.117-.2.106-.013.133.019.158.045s.045.049.079.049a.532.532,0,0,0,.245-.114c.025-.01,2.495-.014,3.553-.045a1.031,1.031,0,0,0,.612-.211.8.8,0,0,1-.15,0c-.059,0-.127.007-.192.014l-.135.012c-.754-.054-1.728-.006-2.425-.049a.169.169,0,0,1-.111-.055.138.138,0,0,1-.03-.109,2.926,2.926,0,0,1,.455-.547l-.321.067a.956.956,0,0,1-.311.131c-.086.007-.144-.028-.159-.072l-.01-.027.035-.059A16.572,16.572,0,0,1,672,467.053a8.062,8.062,0,0,1,1.163-.316,10.945,10.945,0,0,1,1.652-.229.847.847,0,0,0,.3-.042,4.705,4.705,0,0,1,2.291-1.487c.142-.05.283-.1.423-.153a4.014,4.014,0,0,0,.8-1.045,6.98,6.98,0,0,1,.7-1.017c.675-.783,1.076-.855,1.093-.857l.126.188c-.008-.039.148-.149.249-.149l.077.031a.135.135,0,0,1,.028.1,1.584,1.584,0,0,1-.173.519.95.95,0,0,0-.128.4.511.511,0,0,0,.211,0,1.021,1.021,0,0,1,.139-.016l.089.033a1.218,1.218,0,0,1-.449.657,1.279,1.279,0,0,0-.163.158c.019.027.057.022.1.014a.928.928,0,0,1,.133-.015h.022l.079.041a.117.117,0,0,1-.01.111,1.784,1.784,0,0,1-.71.493c-.111.058-.214.109-.283.154.087.075.169.119.146.2-.018.064-.134.129-.377.251a1.377,1.377,0,0,0-.28.163c.006.022.033.044.06.066l.059.084a.7.7,0,0,1-.461.241.827.827,0,0,0-.228.071c.045.14.078.232-.014.348a.281.281,0,0,1-.234.127l-.093-.006c-.028,0-.05,0-.071.057-.009.023.037.085.07.128.051.069.1.135.077.2-.013.036-.049.058-.108.069a2.219,2.219,0,0,0-.816.36,2.791,2.791,0,0,1-.558.158c-.106.024-.21.047-.294.069-.056.014-.19.037-.346.062a6.318,6.318,0,0,0-.716.142,6.525,6.525,0,0,0,1.9-.193,11.228,11.228,0,0,0,1.772-.446c.364-.116.368-.175.368-.177,0-.033-.176-.085-.242-.1-.145-.042-.22-.067-.229-.122l0-.025.044-.046a1.492,1.492,0,0,1,.552-.109c.214-.021.536-.051.549-.13s-.1-.115-.254-.146c-.119-.023-.23-.046-.22-.134.009-.073.125-.1.412-.142s.686-.112.716-.254c-.02-.033-.133-.046-.209-.055-.125-.014-.233-.026-.26-.092l-.009-.021.036-.085a.958.958,0,0,1,.421-.2c.271-.086.578-.183.593-.378-.024-.056-.16-.05-.312-.036-.121.014-.237.042-.281-.03.028-.127.1-.162.22-.22a2.7,2.7,0,0,0,.4-.222c.979-.682,1.1-.987,1.086-1.107a1.288,1.288,0,0,0-.67.264,1.752,1.752,0,0,1-.575.276l-.079-.034a.144.144,0,0,1-.011-.126c.014-.055.137-.174.488-.5.59-.551,1.688-1.574,1.45-1.854-.213,0-.673.387-1.034.712-.409.368-.668.594-.8.594h-.034l-.056-.085c-.006-.042.048-.116.348-.511.664-.873,2.045-2.69,1.7-3.351a12.482,12.482,0,0,0-.807,1.235c-.708,1.148-1.189,1.9-1.4,1.9-.107-.073-.081-.156.314-1.094.422-1,1.128-2.676.965-2.891-.132-.007-.416.6-.619,1.051l-.091.206c-.269.6-.524,1.168-.585,1.25-.1-.023-.1-.107-.072-.643a8.93,8.93,0,0,0,.011-1.2.092.092,0,0,0-.1-.09" transform="translate(-636.187 -439.686)" fill="#f5c832"/><path d="M669.8,471.148c0-.055-.119-.022-.207,0s-.138.062-.133.116.115.028.2.007.143-.067.138-.12" transform="translate(-636.419 -442.25)" fill="#4eaec4"/><path d="M669.506,471.325h-.037l-.059-.069c-.007-.074.055-.133.164-.157a.8.8,0,0,1,.164-.028h.037l.053.068c.007.072-.06.137-.169.161a.768.768,0,0,1-.154.026" transform="translate(-636.409 -442.241)" fill="#4eaec4"/><path d="M673.69,448.629a.383.383,0,0,0,.491-.331,14.869,14.869,0,0,0-.068-1.8,14.9,14.9,0,0,0-.75,1.634.381.381,0,0,0,.327.494" transform="translate(-637.145 -437.655)" fill="#f5c832"/><path d="M675.045,449.063a.383.383,0,0,0,.547-.229,15.421,15.421,0,0,0,.284-1.776,14.812,14.812,0,0,0-1.054,1.456.38.38,0,0,0,.224.549" transform="translate(-637.411 -437.759)" fill="#f5c832"/><path d="M676.292,449.768a.384.384,0,0,0,.581-.119,15.067,15.067,0,0,0,.624-1.686,15.08,15.08,0,0,0-1.318,1.222.382.382,0,0,0,.113.582" transform="translate(-637.657 -437.928)" fill="#f5c832"/><path d="M677.388,450.717a.383.383,0,0,0,.593,0,15.246,15.246,0,0,0,.942-1.532,15.068,15.068,0,0,0-1.533.942.381.381,0,0,0,0,.593" transform="translate(-637.872 -438.156)" fill="#f5c832"/><path d="M678.287,451.873a.382.382,0,0,0,.581.114,15.175,15.175,0,0,0,1.222-1.318,15.075,15.075,0,0,0-1.685.624.38.38,0,0,0-.118.581" transform="translate(-638.05 -438.433)" fill="#f5c832"/><path d="M678.955,453.192a.384.384,0,0,0,.55.224,15,15,0,0,0,1.455-1.055,15.023,15.023,0,0,0-1.775.284.381.381,0,0,0-.23.547" transform="translate(-638.183 -438.749)" fill="#f5c832"/><path d="M679.368,454.6a.382.382,0,0,0,.494.327,15.138,15.138,0,0,0,1.635-.751,15.075,15.075,0,0,0-1.8-.068.381.381,0,0,0-.332.491" transform="translate(-638.266 -439.073)" fill="#f5c832"/><path d="M679.508,456.016a.383.383,0,0,0,.421.417,15.083,15.083,0,0,0,1.749-.417,15.059,15.059,0,0,0-1.749-.418.382.382,0,0,0-.421.418" transform="translate(-638.294 -439.353)" fill="#f5c832"/><path d="M679.369,457.425a.383.383,0,0,0,.332.491,14.9,14.9,0,0,0,1.8-.068,15.131,15.131,0,0,0-1.635-.751.382.382,0,0,0-.494.327" transform="translate(-638.266 -439.631)" fill="#f5c832"/><path d="M678.956,458.78a.383.383,0,0,0,.23.547,15.171,15.171,0,0,0,1.775.283,15.022,15.022,0,0,0-1.455-1.054.382.382,0,0,0-.55.224" transform="translate(-638.184 -439.897)" fill="#f5c832"/><path d="M678.287,460.028a.382.382,0,0,0,.118.581,15.1,15.1,0,0,0,1.685.625,15.159,15.159,0,0,0-1.222-1.319.381.381,0,0,0-.582.114" transform="translate(-638.05 -440.142)" fill="#f5c832"/><path d="M677.388,461.123a.383.383,0,0,0,0,.593,15.177,15.177,0,0,0,1.533.941,15.224,15.224,0,0,0-.942-1.532.381.381,0,0,0-.593,0" transform="translate(-637.873 -440.358)" fill="#f5c832"/><path d="M676.292,462.022a.384.384,0,0,0-.113.582,15.1,15.1,0,0,0,1.318,1.222,15.028,15.028,0,0,0-.624-1.685.382.382,0,0,0-.582-.119" transform="translate(-637.657 -440.536)" fill="#f5c832"/><path d="M675.045,462.691a.381.381,0,0,0-.224.549,14.884,14.884,0,0,0,1.054,1.455,15.422,15.422,0,0,0-.284-1.776.381.381,0,0,0-.547-.229" transform="translate(-637.411 -440.669)" fill="#f5c832"/><path d="M668.137,462.022a.383.383,0,0,0-.582.119,15.028,15.028,0,0,0-.624,1.685,15.082,15.082,0,0,0,1.318-1.222.38.38,0,0,0-.113-.582" transform="translate(-635.947 -440.536)" fill="#f5c832"/><path d="M666.982,461.123a.383.383,0,0,0-.593,0,14.947,14.947,0,0,0-.942,1.532,15.2,15.2,0,0,0,1.531-.941.382.382,0,0,0,0-.593" transform="translate(-635.67 -440.358)" fill="#f5c832"/><path d="M666.033,460.028a.385.385,0,0,0-.583-.114,15.167,15.167,0,0,0-1.222,1.319,15.162,15.162,0,0,0,1.686-.625.382.382,0,0,0,.119-.581" transform="translate(-635.442 -440.143)" fill="#f5c832"/><path d="M665.327,458.78a.382.382,0,0,0-.548-.224,14.878,14.878,0,0,0-1.457,1.054,15.237,15.237,0,0,0,1.776-.283.382.382,0,0,0,.229-.547" transform="translate(-635.273 -439.897)" fill="#f5c832"/><path d="M664.893,457.425a.382.382,0,0,0-.494-.327,15.081,15.081,0,0,0-1.633.751,14.88,14.88,0,0,0,1.8.068.38.38,0,0,0,.33-.491" transform="translate(-635.169 -439.631)" fill="#f5c832"/><path d="M664.746,456.016a.384.384,0,0,0-.421-.418,15.057,15.057,0,0,0-1.749.418,15.081,15.081,0,0,0,1.749.417.382.382,0,0,0,.421-.417" transform="translate(-635.134 -439.353)" fill="#f5c832"/><path d="M664.893,454.6a.383.383,0,0,0-.33-.491,15.059,15.059,0,0,0-1.8.068,15.086,15.086,0,0,0,1.633.751.38.38,0,0,0,.494-.327" transform="translate(-635.169 -439.073)" fill="#f5c832"/><path d="M665.327,453.192a.382.382,0,0,0-.229-.547,15.092,15.092,0,0,0-1.776-.284,14.868,14.868,0,0,0,1.457,1.055.381.381,0,0,0,.548-.224" transform="translate(-635.273 -438.749)" fill="#f5c832"/><path d="M666.033,451.873a.383.383,0,0,0-.119-.581,15.141,15.141,0,0,0-1.686-.624,15.18,15.18,0,0,0,1.222,1.318.383.383,0,0,0,.583-.114" transform="translate(-635.442 -438.433)" fill="#f5c832"/><path d="M666.982,450.717a.384.384,0,0,0,0-.593,15.081,15.081,0,0,0-1.531-.942,14.95,14.95,0,0,0,.942,1.532.381.381,0,0,0,.593,0" transform="translate(-635.67 -438.156)" fill="#f5c832"/><path d="M671.2,449.841a5.107,5.107,0,1,1-5.107,5.107,5.106,5.106,0,0,1,5.107-5.107" transform="translate(-635.79 -438.279)" fill="#f5c832"/><path d="M672.281,448.482a.382.382,0,0,0,.416-.421,15.108,15.108,0,0,0-.416-1.749,15.056,15.056,0,0,0-.418,1.749.382.382,0,0,0,.418.421" transform="translate(-636.867 -437.62)" fill="#f5c832"/><path d="M673.69,463.1a.383.383,0,0,0-.327.495,14.9,14.9,0,0,0,.75,1.634,14.877,14.877,0,0,0,.068-1.8.382.382,0,0,0-.491-.332" transform="translate(-637.145 -440.752)" fill="#f5c832"/><path d="M672.281,463.243a.384.384,0,0,0-.418.422,15.037,15.037,0,0,0,.418,1.748,15.088,15.088,0,0,0,.416-1.748.381.381,0,0,0-.416-.422" transform="translate(-636.867 -440.78)" fill="#f5c832"/><path d="M670.868,463.1a.383.383,0,0,0-.491.332,15.2,15.2,0,0,0,.068,1.8,14.9,14.9,0,0,0,.75-1.634.381.381,0,0,0-.327-.495" transform="translate(-636.587 -440.752)" fill="#f5c832"/><path d="M669.456,462.691a.383.383,0,0,0-.547.229,15.2,15.2,0,0,0-.283,1.776,15.286,15.286,0,0,0,1.055-1.455.382.382,0,0,0-.225-.549" transform="translate(-636.263 -440.669)" fill="#f5c832"/><path d="M668.137,449.768a.382.382,0,0,0,.113-.582,15.082,15.082,0,0,0-1.318-1.222,15.086,15.086,0,0,0,.624,1.686.382.382,0,0,0,.582.119" transform="translate(-635.947 -437.928)" fill="#f5c832"/><path d="M669.456,449.063a.384.384,0,0,0,.225-.549,15.2,15.2,0,0,0-1.055-1.456,15.2,15.2,0,0,0,.283,1.776.381.381,0,0,0,.547.229" transform="translate(-636.263 -437.759)" fill="#f5c832"/><path d="M670.868,448.629a.382.382,0,0,0,.327-.494,14.9,14.9,0,0,0-.75-1.634,15.193,15.193,0,0,0-.068,1.8.381.381,0,0,0,.491.331" transform="translate(-636.587 -437.655)" fill="#f5c832"/></g></g></g></svg>