<svg xmlns="http://www.w3.org/2000/svg" xmlns:xlink="http://www.w3.org/1999/xlink" width="36" height="36" viewBox="0 0 36 36"><defs><clipPath id="a"><circle cx="18" cy="18" r="18" transform="translate(1335 148)" fill="#fff" stroke="#707070" stroke-width="1"/></clipPath><clipPath id="b"><rect width="61.715" height="36" fill="none"/></clipPath></defs><g transform="translate(-1335 -148)" clip-path="url(#a)"><g transform="translate(1291.92 -287.633)"><g transform="translate(30.079 435.633)" clip-path="url(#b)"><rect width="61.716" height="36" fill="#3d9635"/><path d="M53.607,448.929c-.062.841-.138,2.32.578,2.472.864.084.387-1.462.7-1.744.059-.137.168-.139.177.036v1.312a.627.627,0,0,0,.491.639c.226-.017.378-.009.467.211.035.757.071,1.511.106,2.268,0,0,.526.151.55-1.275a13.49,13.49,0,0,1-.054-1.7c0-.161.208-.171.349-.093.226.16.328.357.678.278.535-.148.855-.407.864-.817a3.594,3.594,0,0,0-.243-1.171c.023-.07-.1-.254-.079-.325.1.151.242.138.275,0a1.174,1.174,0,0,0-.461-.711c-.19-.167-.467-.132-.568.216a1.893,1.893,0,0,0,.436,1.262,1.226,1.226,0,0,1,.11.631.336.336,0,0,1-.438-.085s-.427-.319-.427-.39a1.514,1.514,0,0,0-.037-1.005,1.367,1.367,0,0,0-.281-.553c-.106-.114-.251-.114-.319,0a1.9,1.9,0,0,0,.035,1.337c.1.289.248.47.178.47-.059.164-.18.126-.266-.062a4.64,4.64,0,0,1-.151-1.229c-.038-.325-.08-1.014-.293-1.19-.129-.177-.321-.091-.39.071a5.843,5.843,0,0,0,.022.938,10.314,10.314,0,0,1,.263,1.508c.02.711-.412.309-.392-.045a3.222,3.222,0,0,0-.016-1.363c-.07-.183-.152-.228-.323-.2-.134-.009-.484.371-.581,1a5.53,5.53,0,0,0-.119.613c-.048.326-.263.555-.413-.047-.131-.438-.21-1.513-.427-1.261" transform="translate(-36.141 -438.724)" fill="#fff"/><path d="M56,453.913c-.762.372-1.5.72-2.25,1.081a2.289,2.289,0,0,1,1.781-1.444c.462.013.346.18.47.364" transform="translate(-36.189 -440.257)" fill="#fff"/><path d="M59.257,447.619c-.043.006-.09.03-.145.043a.428.428,0,0,0-.3.526c.217,1.321.359,2.326.576,3.646.033.155-.1.36-.263.339-.284-.192-.354-.582-.839-.565a.946.946,0,0,0-.8.753,1.835,1.835,0,0,0,0,.864.707.707,0,0,0,.8.2c.213-.088.388-.3.464-.251h0v0c.046.081-.006.769-1,1.3-.614.275-1.1.341-1.364-.161-.164-.315.013-1.505-.389-1.23-1.186,3.057,2.778,3.483,3.22.125.029-.094.117-.188.18-.165.027.012.05.048.059.116-.093,3.042-3.066,3.249-3.572,2.293a2.932,2.932,0,0,1-.176-1.027.52.52,0,0,0-.122-.329c-.12-.09-.282.146-.317.556a3.623,3.623,0,0,0-.036.739c.158,2.4,3.988,1.37,4.61-.614a6.65,6.65,0,0,0,.1-1.9h0l0,0h0l.01,0c.384.41.916.053,1.033-.088a.173.173,0,0,1,.264-.025.614.614,0,0,0,.924-.263,8.478,8.478,0,0,0,.128-1.137,1.135,1.135,0,0,0-.412.169.113.113,0,0,0-.029.055c-.016.109-.033.217-.049.326a.072.072,0,0,1-.01.024.1.1,0,0,1-.036.035c-.068.036-.185.015-.193-.084-.091-.418-.47-.474-.7.174-.155.126-.436.149-.465-.038.038-.435-.137-.493-.488-.288-.112-.861-.225-1.683-.338-2.542.146,0,.28.1.413-.064a4.841,4.841,0,0,0-.621-1.452h0a.21.21,0,0,0-.025-.026.14.14,0,0,0-.011-.009.051.051,0,0,1-.012-.007l-.022-.008a.107.107,0,0,0-.048,0m-1.068,4.721a.192.192,0,0,1,.21.132.23.23,0,0,1-.04.228v0l0,0c-.029.039-.134.023-.209.023a.2.2,0,0,1-.187-.094c-.026-.081.051-.16.086-.221h0a.064.064,0,0,1,.014-.019.258.258,0,0,1,.126-.055" transform="translate(-36.569 -438.726)" fill="#fff"/><path d="M63.647,447.525a.636.636,0,0,0-.269.074.51.51,0,0,0-.087.677c.149.07.3.223.2.306-.426.455-1.533,1.214-1.589,1.353v.009h0v0l0,0h0v0h0a3.141,3.141,0,0,0,.826,0v0h0a11.624,11.624,0,0,0,1.367-1.379c-.058-.05-.111-.087-.171-.138s-.056-.107,0-.162a.448.448,0,0,0,.045-.684.727.727,0,0,0-.338-.067m-.053.4a.225.225,0,0,1,.194.146c.043.1.022.187-.05.2s-.163-.047-.207-.142-.022-.188.049-.206l.013,0" transform="translate(-38.291 -438.702)" fill="#fff"/><path d="M53.728,456.917A2.234,2.234,0,0,0,53.5,458.9a.492.492,0,0,0,.479.16.879.879,0,0,0,.319-.851c-.089-.139-.158-.161-.247-.043-.186.379-.265.12-.28-.093A4.871,4.871,0,0,1,53.823,457c.046-.3,0-.208-.1-.087" transform="translate(-36.087 -441.097)" fill="#fff"/><path d="M76.756,453.376c-.409-.88-.975-1.75-1.155-2.084s-1.54-2.308-1.741-2.531c-.441-.525.718.219-.147-.823-.329-.283-.347-.3-.621-.53-.138-.1-.476-.277-.535.019a1.7,1.7,0,0,0,.03.622,2.158,2.158,0,0,0,.349.529,39.57,39.57,0,0,1,3.783,6.083c.185-.088.145-1.136.036-1.283" transform="translate(-41.038 -438.634)" fill="#fff"/><path d="M75.8,456.39c-.081.09.2.477.561.476a2.13,2.13,0,0,0,1.634-1.307,2.318,2.318,0,0,0,.371-1,21.958,21.958,0,0,0-.406-5.086.847.847,0,0,1,.016-.355c.039-.046.172,0,.243-.116.1-.105-.275-.982-.491-1.32-.077-.151-.1-.251-.231.019a1.9,1.9,0,0,0-.213.956c.29,2,.378,3.755.568,5.757a.8.8,0,0,1-.142.588A5.648,5.648,0,0,1,75.8,456.39" transform="translate(-41.874 -438.703)" fill="#fff"/><path d="M86.725,456.349c-.436.252-.436.542-.084.552a2.169,2.169,0,0,0,1.817-.867,2.892,2.892,0,0,0,.3-1.122,26.1,26.1,0,0,0-.332-5.493,2.784,2.784,0,0,1-.058-.516c.039-.1.236.011.307-.1.1-.105-.511-.9-.727-1.235-.077-.151-.1-.251-.231.019a1.562,1.562,0,0,0-.126.956,52.669,52.669,0,0,1,.61,6.206,2.012,2.012,0,0,1-.12.513,4.086,4.086,0,0,1-.6.694c-.2.146-.619.287-.755.4" transform="translate(-44.611 -438.674)" fill="#fff"/><path d="M86.8,454.392c-.006-.509.007-.947-.01-1.327s-.19-1.8-.248-2.11-.116-.768-.2-1.133a3.87,3.87,0,0,1-.076-.642c.036-.1.173,0,.24-.116a4.08,4.08,0,0,0-.574-1.6c-.081-.149-.23-.1-.411.143-.17.158-.108.519-.042.864a31.861,31.861,0,0,1,.688,6.812c-.022.184.642-.548.637-.9" transform="translate(-44.358 -438.666)" fill="#fff"/><path d="M82.584,452.418c-.274-.006-.847-.533-1.014-.842a.575.575,0,0,1,.033-.452c.1-.065.257-.139.374-.068,0,0,.12.168.1.19.149.071.213.03.229-.03.01-.106-.045-.17-.045-.287a.318.318,0,0,1,.563-.165,1.205,1.205,0,0,1,.152.563c0,.091-.149-.016-.231.006s-.1.119-.111.206c-.016.231-.043.6-.047.88" transform="translate(-43.36 -439.507)" fill="#fff"/><path d="M75.684,454.954a23.98,23.98,0,0,0-.035-2.51c-.027-.962-.185-2.822-.259-3.134-.086-.585.24.064.2-.277a3.749,3.749,0,0,0-.812-1.517c-.123-.174-.119-.211-.309.043a1.773,1.773,0,0,0,.025,1.175A21.962,21.962,0,0,1,75,452.159a30.739,30.739,0,0,1,.029,3.629c.206.009.538-.333.654-.833" transform="translate(-41.509 -438.664)" fill="#fff"/><path d="M86.942,453.85c-.482-.809-1.21-1.758-1.4-2.084s-1.84-2.738-2.05-2.953c-.6-.632.277-.1-.115-.591a4.693,4.693,0,0,0-.712-.7c-.142-.091-.227-.267-.274.032a5.723,5.723,0,0,0-.02.786,1.05,1.05,0,0,0,.236.49,44.7,44.7,0,0,1,4.333,6.288c.183-.1.122-1.129.006-1.272" transform="translate(-43.572 -438.668)" fill="#fff"/><path d="M74.9,468.979h0a.4.4,0,0,0-.139.747c-4.508,0-11.424-.076-12.906-.076-.83,0-3.454-.1-3.506-.1a2.655,2.655,0,0,0,2.445,1.007c2,0,11.278-.025,13.917-.025a.927.927,0,0,0,.165.968l.01.007a.1.1,0,0,0,.019.006h0c.177.042.253-.086.313-.177a17.963,17.963,0,0,0,2.024,0h0c.1.145.2.283.384.258.329-.071.588-.106.6-.774,0,0-.033-1.137-.781-1.066-.177.026-.672.076-.672.076-.574-.068-1-.075-1.64-.1.059-.075.164-.381.036-.493a.213.213,0,0,0-.154-.038h-.007v0H75l-.012-.012,0,0c-.032-.047-.05-.164-.071-.194h0v0H74.9m.306,1.626h0c.658.033,1.275.007,1.933.039a.238.238,0,0,1-.016.329l-.012,0H77.1c-.216-.006-.339-.012-.553-.016a.114.114,0,0,0,0-.032c-.051-.151-.418-.14-.5-.023a.013.013,0,0,1,0,.007l0,.009,0,.011a.061.061,0,0,0,0,.016.083.083,0,0,0,0,.017,5.017,5.017,0,0,1-.838-.02c-.084-.1-.074-.3.024-.342" transform="translate(-37.375 -444.239)" fill="#fff"/><path d="M65.237,448.107c-.439,1.256.252,2.63.732,2.5.345.142.565-.514.707-1.236.1-.2.17-.223.219-.119-.011.958.07,1.169.316,1.461a.8.8,0,0,0,1.039.019l.429-.429a.258.258,0,0,1,.356-.017c.131.119.112.324.391.467a.868.868,0,0,0,.857-.182c.157-.269.194-.361.266-.464.113-.149.3-.082.3-.034-.017.082-.128.165-.053.315.134.1.165.035.243.013.278-.134.488-.739.488-.739.012-.226-.114-.208-.2-.161-.106.065-.114.085-.22.152-.137.02-.4.111-.532-.093a7.761,7.761,0,0,1-.236-.827c0-.019-.178-.387-.013-.41.083.015.261.062.289-.087.088-.146-.187-.559-.374-.766a.4.4,0,0,0-.605-.019c-.153.141-.131.3-.161.447a.69.69,0,0,0,.143.605,1.855,1.855,0,0,1,.338,1.231.5.5,0,0,1-.444.223c-.118-.026-.309-.075-.41-.829a5.47,5.47,0,0,0-.225-1.743c-.087-.226-.151-.444-.364-.058a.9.9,0,0,0-.125.857,2.558,2.558,0,0,1,.139,1.332,2.641,2.641,0,0,1-.256.362.421.421,0,0,1-.542.073.581.581,0,0,1-.324-.456,6.3,6.3,0,0,0-.051-1.472.266.266,0,0,0-.444-.09,3.355,3.355,0,0,0-.809,1.657c-.125.4-.258.289-.351.126-.227-.213-.242-1.878-.517-1.606" transform="translate(-39.117 -438.595)" fill="#fff"/><path d="M65.512,451.951l-.011.005,0,0c-.03.022-.067.071-.142.126-.128.146-.151.248-.143.542.007.03.243.689.445,1.153a3.6,3.6,0,0,1,.169,1.557,3.842,3.842,0,0,1-1.571,1.642.814.814,0,0,1-.657,0h0a.41.41,0,0,1-.175-.374v0h0A3.706,3.706,0,0,0,65,454.966a1.669,1.669,0,0,0,.043-1.175,1.124,1.124,0,0,0-.268-.543l0,0c.088-.042.318.128.353.02a1.718,1.718,0,0,0-.452-.835.382.382,0,0,0-.555-.033c-.191.106-.231.487-.14.822.1.251.378.294.574.8v0c0,.03.067.378-.032.519a6.167,6.167,0,0,1-1.184,1.111l0,0,0,0h0l0,0h0v0h0v-.006c0-.02,0-.073,0-.157-.007-.152.055-.5.049-.555v0h0v0h0c-.341.22-.453.894-.515,1.094a16.116,16.116,0,0,0-2.4,1.643c-.295.459,2.023-.527,2.293-.647l.007.007c.05.056.055.252.208.429a1.222,1.222,0,0,0,1.249.4,3.96,3.96,0,0,0,1.809-1.5c.07-.1.18-.181.281-.1A2.825,2.825,0,0,0,68.86,457.6c.292-.352.152-.526.035-.6-.036-.024-.623-.254-.714-.481-.058-.213.079-.4.361-.542a12.6,12.6,0,0,0,2.365-.453,2.081,2.081,0,0,1,.26-.81.4.4,0,0,1,.134-.145l0,0h0l0,0v0a.058.058,0,0,0,0-.02l-.131-.077-2.572-.011a.253.253,0,0,1-.07-.036l0,0,0,0h0V454.4h0v0h0v0h0v0h0v-.006h0v0h0v0a.207.207,0,0,1,.082-.047c.614-.084,1.706-.263,1.778-1.312a.862.862,0,1,0-1.692.036c-.024.142.047.418-.1.45-.945.087-1.976.678-2.011,1.1h0l0,0h-.035a.25.25,0,0,1-.128-.261,5.045,5.045,0,0,0-.648-2.2c-.133-.133-.191-.187-.229-.192h-.019m3.761.939a.351.351,0,0,1,.2.054.262.262,0,0,1,.157.213v.007l0,.007v.006l0,0v.006s-.01.01-.014.016a.25.25,0,0,1-.269-.023.273.273,0,0,1-.16-.213l0-.007a.072.072,0,0,1,.008-.023l0-.009h0a.045.045,0,0,1,.012-.012.115.115,0,0,1,.065-.024m-2.393,2.172a.134.134,0,0,1,.024,0h0a8,8,0,0,0,1.075.122c.3.02.448.254.168.352s-.541.168-.542.566c.036.2.029.3,0,.349a.026.026,0,0,1-.008.012v0h0v0h0l0,0-.014.007h-.009c-.07.01-.165-.053-.236-.09a1.461,1.461,0,0,1-.716-1.053.267.267,0,0,1,.269-.278" transform="translate(-37.911 -439.844)" fill="#fff"/><path d="M57.917,448.225c.3.14.853.081.83-.4,0-.042-.011-.185-.016-.223-.059-.14-.225-.106-.263.039-.011.047.02.125-.022.149-.024.024-.12.01-.116-.122a.223.223,0,0,0-.05-.114.1.1,0,0,0-.065-.016c-.04,0-.04.013-.062.048a.39.39,0,0,0-.023.11c-.006.047-.023.064-.058.071s-.029,0-.061-.016-.042-.029-.042-.064a.374.374,0,0,0-.019-.117.122.122,0,0,0-.073-.039c-.162,0-.172.185-.163.255-.012.013-.019.345.2.436" transform="translate(-37.211 -438.7)" fill="#fff"/><path d="M69.618,453.179c.3.14,1,.059.83-.4,0-.042-.011-.185-.016-.223-.059-.14-.225-.107-.263.039-.011.047.022.125-.022.149-.024.025-.12.01-.116-.122a.223.223,0,0,0-.05-.114.1.1,0,0,0-.065-.016c-.04,0-.04.013-.062.048a.39.39,0,0,0-.023.11c-.006.047-.023.064-.058.07s-.029,0-.061-.015-.042-.029-.042-.064a.366.366,0,0,0-.019-.117.122.122,0,0,0-.073-.039c-.162,0-.172.185-.163.255-.012.013-.019.343.2.436" transform="translate(-40.23 -439.978)" fill="#fff"/><path d="M76.443,451.128c.3.142.852.081.829-.4,0-.044-.01-.185-.014-.225-.061-.14-.226-.106-.263.039-.011.047.02.126-.023.149-.024.024-.119.01-.114-.122a.214.214,0,0,0-.051-.113.087.087,0,0,0-.064-.016c-.042,0-.04.012-.064.047a.481.481,0,0,0-.023.11c0,.048-.022.064-.056.071s-.03,0-.061-.016-.042-.027-.042-.062a.4.4,0,0,0-.019-.119.153.153,0,0,0-.073-.039c-.162,0-.174.185-.163.255-.013.015-.019.345.2.436" transform="translate(-41.992 -439.449)" fill="#fff"/><path d="M79.936,454.164a1.8,1.8,0,0,0-.171,1.752,1.376,1.376,0,0,0,.637.726.447.447,0,0,0,.666-.073c.3-.315.307-1.117.45-1.277a.267.267,0,0,1,.473-.111,1.169,1.169,0,0,0,.433.372.725.725,0,0,0,.953.067,1.1,1.1,0,0,0,.508-.619,23.2,23.2,0,0,0,.036-3.635c-.012-.086-.294-1.491-.294-1.508s-.036-.717-.068-.885c-.006-.067-.022-.087.049-.079a.415.415,0,0,0,.132.089c.076.014.145-.116.1-.235l-.706-1.3c-.057-.056-.131-.117-.22.016a.515.515,0,0,0-.176.387c.022.309.076.623.1.932l.283,1.585c.088,1.13.111,2.163.2,3.293-.013.479-.161,1.114-.3,1.174,0,0-.211.123-.353-.013a4.184,4.184,0,0,1-.519-.69.314.314,0,0,0-.5,0,6.925,6.925,0,0,0-.886,1.671c-.073.114-.279.214-.507-.009a2.363,2.363,0,0,1-.313-1.628" transform="translate(-42.863 -438.665)" fill="#fff"/><path d="M76.578,447.635a.977.977,0,0,1,.391.91c-.053.324-.194.675-.3.63s.075-.323-.03-.619c-.058-.193-.421-.545-.383-.648-.075-.217.154-.313.318-.274" transform="translate(-41.994 -438.728)" fill="#fff"/><path d="M80.719,454.5a8.182,8.182,0,0,0-.055-1.419c-.018-.378-.429-3.454-.513-3.741-.1-.543.4-.073.346-.389-.174-.4-.605-.978-.742-1.323-.081-.148-.046-.28-.23-.039a2.967,2.967,0,0,0-.162,1.35,29.4,29.4,0,0,1,.81,6.5c.206,0,.444-.473.546-.941" transform="translate(-42.792 -438.685)" fill="#fff"/><path d="M87.205,448.673c.242.12.384.792.358.985-.049.352-.177.732-.269.683s.02-.522-.027-.669c-.053-.209-.384-.59-.349-.7a.228.228,0,0,1,.289-.3" transform="translate(-44.744 -438.996)" fill="#fff"/><path d="M62.979,455.3c.231.088.368.582.342.725-.047.257-.17.537-.257.5s.019-.384-.027-.493c-.019-.263-.341-.4-.333-.516-.061-.21.134-.248.275-.217" transform="translate(-38.496 -440.708)" fill="#fff"/><path d="M54.646,447.42c.341.1.361.6.336.752-.046.266-.166.556-.254.519s0-.4-.049-.51c-.05-.159-.339-.449-.306-.534-.065-.18.132-.258.272-.226" transform="translate(-36.346 -438.673)" fill="#fff"/><path d="M63.734,450.6a.611.611,0,0,0-.2.81.394.394,0,0,0,.425.136c.256.032.409-.481.409-.481s.008-.145-.3.128c-.128.024-.143-.023-.175-.1a.628.628,0,0,1,.039-.4c.046-.128-.054-.184-.2-.1" transform="translate(-38.693 -439.484)" fill="#fff"/><path d="M66.335,447.143a.948.948,0,0,0-.4.672c-.009.177-.042.177.074.289.084.12.168.11.336.022a.356.356,0,0,0,.162-.239c.041-.2-.211.1-.243-.128-.056-.207.106-.292.258-.493,0-.137,0-.233-.185-.123" transform="translate(-39.33 -438.591)" fill="#fff"/><path d="M68.571,447.45a4.134,4.134,0,0,0-.113.781c-.047.194.2.278.317.027a2.4,2.4,0,0,0,.182-.851c-.053-.3-.254-.286-.386.042" transform="translate(-39.983 -438.617)" fill="#fff"/><path d="M82.035,454.031c.034-.033,1.406-1.008,1.406-1.008.14-.05.109.5.045.5a5.464,5.464,0,0,1-1.451,1.01c-.068.049-.137-.378,0-.5" transform="translate(-43.468 -440.12)" fill="#fff"/><path d="M83.648,454.37c.242.12.338.827.312,1.02.009.374-.234.674-.326.625s.01-.464-.039-.613c-.054-.209-.258-.6-.223-.713a.236.236,0,0,1,.277-.319" transform="translate(-43.829 -440.467)" fill="#fff"/><path d="M72.732,458.354a1.779,1.779,0,0,1,.4-.341.26.26,0,0,1,.261.045c.023.136-.085.262-.051.444.029.073.051.154.185.123a1,1,0,0,1,.638-.194c.166.01.172.293.067.3a4.829,4.829,0,0,0-.87.3.2.2,0,0,1-.252-.032.266.266,0,0,1-.024-.258c.01-.145-.048-.223-.168-.207-.091.05-.171.082-.216-.023-.019-.077-.024-.114.035-.158" transform="translate(-41.075 -441.404)" fill="#fff"/><path d="M85.589,458.856a.176.176,0,0,1,0,.266c-.1.089-.164.137-.26.225-.045.079-.074.2.065.234.257.07.849-.313.849-.322a.184.184,0,0,0,.056-.208c-.056-.064-.183-.026-.268-.036-.041,0-.173-.02-.109-.138a.8.8,0,0,0,.108-.207c.039-.088.006-.148-.139-.2a1.186,1.186,0,0,0-.369,0c-.087.019-.117.059-.133.165.005.163.1.152.206.217" transform="translate(-44.327 -441.524)" fill="#fff"/></g></g></g></svg>