<svg xmlns="http://www.w3.org/2000/svg" xmlns:xlink="http://www.w3.org/1999/xlink" width="36" height="36" viewBox="0 0 36 36"><defs><clipPath id="a"><circle cx="18" cy="18" r="18" transform="translate(1080 262)" fill="#fff" stroke="#707070" stroke-width="1"/></clipPath><clipPath id="b"><rect width="61.759" height="36.027" fill="none"/></clipPath></defs><g transform="translate(-1080 -262)" clip-path="url(#a)"><g transform="translate(737.545 -16.04)"><g transform="translate(329.455 278.04)" clip-path="url(#b)"><rect width="61.76" height="12.009" transform="translate(0 12.009)" fill="#fff"/><rect width="61.76" height="12.008" transform="translate(0 24.018)" fill="#1e2788"/><rect width="61.76" height="12.009" fill="#cb0028"/><path d="M360.781,291.608a21.507,21.507,0,0,1,7.061-1.218,21.269,21.269,0,0,1,7.256,1.235l1.8-3.626-1.263-2.2s-2.255.926-2.273.926-1.59-1.729-1.59-1.729l-2.017,1.219-1.894-1.449-1.782,1.427-2.081-1.2-1.517,1.8-2.275-.973L358.984,288Z" transform="translate(-337.06 -279.772)" fill="#fff"/><path d="M375.107,291.676l-.044-.016a21.237,21.237,0,0,0-7.183-1.232,21.469,21.469,0,0,0-7.1,1.215l-1.861-3.634,1.219-2.23,2.342.95,1.457-1.789,2.146,1.191,1.723-1.422,1.959,1.449,1.959-1.223c.672.676,1.593,1.686,1.648,1.732.016-.028,1.612-.682,2.221-.933l1.328,2.224Zm-14.942-5.823-1.152,2.158,1.8,3.559a20.256,20.256,0,0,1,7.014-1.247,21.447,21.447,0,0,1,7.23,1.223l1.776-3.585-1.261-2.152c-2.2.953-2.213.953-2.227.953a16.188,16.188,0,0,1-1.63-1.746l-1.951,1.229-1.953-1.453-1.717,1.426-2.14-1.2-1.451,1.792Z" transform="translate(-337.044 -279.758)" fill="#cb0028"/><path d="M376.928,291.053l1.03-3.639,2.2-.895,1.162,1.95-1.668,3.41a14.729,14.729,0,0,0-2.728-.827" transform="translate(-341.682 -280.224)" fill="#3a7aa1"/><path d="M379.661,291.893l-.011,0a14.587,14.587,0,0,0-2.726-.826l1.019-3.656,2.212-.9,1.178,1.956Zm.489-5.371-2.188.9-1.022,3.631a13.643,13.643,0,0,1,2.708.806l1.662-3.4Z" transform="translate(-341.681 -280.22)" fill="#4c73d5"/><path d="M368.988,290.306l-.348-3.769,1.752-1.393,1.831,1.389-.324,3.776a27.661,27.661,0,0,0-2.91,0" transform="translate(-339.547 -279.87)" fill="#3a7aa1"/><path d="M371.906,290.319h-.013a27.443,27.443,0,0,0-2.909,0l-.362-3.781,1.757-1.4,1.847,1.389Zm-1.526-5.168-1.736,1.392L369,290.3a22.326,22.326,0,0,1,2.885-.01l.324-3.763Z" transform="translate(-339.543 -279.866)" fill="#4c73d5"/><path d="M360.956,291.878l-1.633-3.454,1.091-1.907,2.263.984.955,3.564a14.288,14.288,0,0,0-2.676.813" transform="translate(-337.148 -280.223)" fill="#3a7aa1"/><path d="M360.945,291.892l-1.639-3.465,1.091-1.919,2.28.979.963,3.572a15.634,15.634,0,0,0-2.685.829Zm-.541-5.366-1.074,1.9,1.628,3.431a14.366,14.366,0,0,1,2.668-.809l-.965-3.548Z" transform="translate(-337.143 -280.221)" fill="#4c73d5"/><path d="M361.053,291.1a2.816,2.816,0,0,0,1.284-.124,1.771,1.771,0,0,0,.826-.741.926.926,0,0,1-.5,1.182,1.273,1.273,0,0,1-1.608-.317" transform="translate(-337.593 -281.182)" fill="#fff"/><path d="M362.018,291.6a1.146,1.146,0,0,1-.978-.474c.158,0,.295,0,.422,0a2.558,2.558,0,0,0,.868-.146,1.7,1.7,0,0,0,.79-.693l0,.007a1.614,1.614,0,0,1-.785.708,2.808,2.808,0,0,1-1.291.125,1.347,1.347,0,0,0,1.6.294.9.9,0,0,0,.548-.889c.05.287-.045.625-.536.909a1.4,1.4,0,0,1-.646.154" transform="translate(-337.59 -281.194)" fill="#fff"/><path d="M371.539,287.667l-.1.024,0,.178-.122.027-.084.157.052.048c0,.006-.042.117-.039.117l.032.042.032.1.082.011.021.114.128.02.12.084.007.052.136,0,.093.03.325-.037.043-.067,0-.091.174-.005.017-.146h.091l-.012-.163.077.007-.019-.079-.048-.064-.01-.1-.136-.134-.03-.174-.087-.042-.006-.117.1-.136-.009-.054h-.091l-.068.056-.091.011v.04l.023.079h-.1l0-.121-.148-.073-.138.1-.007.108-.067.018-.068-.1-.119-.045-.065,0,0,.078.125.162Z" transform="translate(-340.216 -280.414)" fill="#fbfc2b"/><path d="M371.893,288.692l-.252-.035-.011-.076-.108-.064-.115-.015-.047-.137-.056.013-.073-.223.052-.062-.072-.027.078-.193.142-.042-.028-.148.122-.053-.011-.07-.119-.14-.005-.1v-.031l.1.005.128.048.082.111.019-.11c0-.016,0-.016.151-.119l.178.071.022.146.047-.027-.025-.041c0-.079.005-.079.117-.09l.052-.049.111-.006h.025l.013.079-.1.158.011.1c0-.018.07.014.07.014l.048.2.128.117.085.258-.109.03.045.131-.122.032.013.12-.2.031.026.062-.048.082Zm-.089-.09.094.029.319-.036.022-.053,0-.076.2-.033-.012-.12.121-.027-.042-.131.11-.026-.094-.094-.016-.116-.128-.115-.039-.192c-.088-.025-.088-.025-.088-.046l-.005-.115.1-.155-.076-.008-.049.049c-.016.007-.089.013-.1.016.045.084.045.085.045.091l-.135.03-.033-.15-.127-.045c0,.01-.087.072-.106.087a.518.518,0,0,1,0,.09v.021l-.088.024-.1-.112-.1-.034-.027.048.119.143-.006.117-.121.049.027.149-.146.056-.064.143c.059.035.057.042.03.117-.027,0-.024.007.013.059l.036.1.057-.009.047.137.1,0,.144.1.009.065Z" transform="translate(-340.209 -280.406)" fill="#c2a21f"/><path d="M371.3,288.2l.141-.008.028.126.048.042.009.231.045.019.013-.091.11-.008.022.186-.028.024.012.029.131,0,.032-.05a.677.677,0,0,1,.075-.005s.03.055.03.055l.021-.071.069-.027s.057.09.057.09l.1-.013-.06-.055-.025-.121.135-.071.053.09h.048s-.059-.1-.059-.1v-.21l.1-.137.143-.016v-.058l-.143-.129-.038-.178-.081-.04-.02.024-.088.008.088.129v.084l.039.021-.007.232-.1.016s-.007.128-.007.128l-.062.061s-.035.121-.038.121l-.058.073-.11,0s-.064-.06-.064-.063l-.012-.089-.045-.013s-.025-.1-.025-.1l-.075-.042,0-.058-.073-.032s-.008-.052-.01-.055l-.038-.024s0-.145,0-.145l.064-.01-.036-.046-.011-.041v-.042l.053-.053s-.1-.013-.1-.01a.617.617,0,0,1-.093.039l0,.172-.11.034-.089.139Z" transform="translate(-340.22 -280.527)" fill="#c2a21f"/><path d="M371.67,288.777l-.019-.048,0-.218-.079.035.015.065-.006.038-.08-.032-.027-.258-.075-.163-.123.032-.054-.048.083-.177.12-.045a.562.562,0,0,1-.011-.142.42.42,0,0,1,.106-.066.493.493,0,0,1,.118.005l-.044.156-.043-.032.042-.078a.131.131,0,0,1-.053,0c.019.007-.035.024-.069.033a1,1,0,0,1,0,.148l-.131.062-.072.126.16-.014.059.15.057.279,0-.077.138-.033.053.213-.021.026.136-.019,0,.062Zm.44-.012c-.091-.107-.091-.108-.091-.119l-.04.026,0,.016-.013-.044c.068-.028.074-.028.081-.028a.69.69,0,0,1,.082.1l.068-.026-.076,0-.034-.137.012-.009a.024.024,0,0,1-.017,0l-.034.062-.134.014c-.094-.077-.094-.078-.094-.093l-.011-.085c-.042.013-.044.007-.07-.108l-.074-.03-.006-.075-.068-.012-.013-.068c-.042,0-.042,0-.042-.177v-.026l.089-.014v0l.061.053-.1.016a.39.39,0,0,1,.016.111l.12.1.006.076.06.018a.569.569,0,0,1,.036.111c.048.022.06.113.06.115a.629.629,0,0,1,.054.042l.089-.011c.042-.073.042-.074.058-.074-.019,0,.01-.1.01-.1l.07-.074,0-.108c0-.027,0-.027.126-.044l-.058-.307-.083-.112.111-.055.117.019.053.2.143.122v.071l-.169.045-.082.125.007.191s.047.077.053.087l-.074.047-.078-.1-.1.082.09.128Zm.1-.532a.354.354,0,0,1,.006.1l-.071.079c-.024.092-.03.119-.042.126l.138-.1.036.039-.006-.01,0-.225.029-.042a.361.361,0,0,1-.087.023m.059-.512-.093.035.11.082.036.337.056-.079.163-.027-.16-.135-.047-.195Z" transform="translate(-340.213 -280.525)" fill="#c2a21f"/><path d="M372.051,288.628l.073-.042,0-.082-.07-.016-.026-.027.076.013.1-.008.032-.015c-.013.034-.024.031-.027.031s-.053.026-.053.026l0,.079.163.022s0,.032-.005.032l-.172-.037-.1.063Z" transform="translate(-340.419 -280.722)" fill="#613f21"/><path d="M372,288.709l.033-.081.079-.05-.021-.079.039.009V288.5l.066-.025,0,.014-.046.039.011.065c.165.008.165.008.163.023-.023.045-.029.045-.195.008Z" transform="translate(-340.412 -280.728)" fill="#c2a21f"/><path d="M372.4,287.983l-.1.074-.062.107-.032.005-.094-.123-.107,0s-.058.144-.058.147l-.044-.005-.111-.121a.388.388,0,0,1-.03-.061l.281,0v-.131a.315.315,0,0,1-.065-.027c.016-.005.152-.005.152-.005l-.058.04V288l.244,0Z" transform="translate(-340.353 -280.566)" fill="#c2a21f"/><path d="M371.942,288.216l-.047-.006-.143-.147-.019-.079.307-.013-.03-.094.03-.018a.258.258,0,0,1-.033.009c-.028-.059.025-.061.118-.061h.1l-.137.1.013.088.29-.048-.143.229-.065.005-.094-.123-.076.013c.01.01-.032.115-.036.127Zm.121-.215-.3.027.163.131.052-.132.091-.014Z" transform="translate(-340.344 -280.556)" fill="#c2a21f"/><path d="M371.944,288.115h.023a.02.02,0,0,1,.021.02v.024a.02.02,0,0,1-.021.019h-.023a.019.019,0,0,1-.02-.019v-.024a.02.02,0,0,1,.02-.02" transform="translate(-340.393 -280.635)" fill="#613f21"/><path d="M372.354,288.1h.025a.02.02,0,0,1,.021.019v.025a.02.02,0,0,1-.021.019h-.025a.02.02,0,0,1-.02-.019v-.025a.02.02,0,0,1,.02-.019" transform="translate(-340.499 -280.63)" fill="#613f21"/><path d="M371.759,287.81l-.031-.02.009-.036a.913.913,0,0,1,.289-.078,1,1,0,0,1,.324.025,1.253,1.253,0,0,1-.319.035.852.852,0,0,0-.272.074" transform="translate(-340.342 -280.521)" fill="#c2a21f"/><path d="M371.735,287.5h-.084l-.117-.123.066.008.079.034Z" transform="translate(-340.292 -280.445)" fill="#c2a21f"/><path d="M371.765,287.518h-.142l-.2-.193.236.054Z" transform="translate(-340.265 -280.431)" fill="#c2a21f"/><path d="M372.469,287.429l.189-.142-.062-.008-.07.063-.082.013Z" transform="translate(-340.527 -280.419)" fill="#c2a21f"/><path d="M372.228,287.49l-.294.011,0-.032.108-.01.013-.042s.033,0,.033,0l.024.039.1.019Z" transform="translate(-340.395 -280.455)" fill="#c2a21f"/><path d="M371.889,287.537l.006-.065.136-.038-.059.04.1,0-.013-.036.159.016.03.045-.025.03Z" transform="translate(-340.384 -280.459)" fill="#c2a21f"/><path d="M372.271,287.349l-.1,0-.007-.056Z" transform="translate(-340.454 -280.424)" fill="#c2a21f"/><path d="M372.041,287.3l-.007.055-.1.016Z" transform="translate(-340.395 -280.425)" fill="#c2a21f"/><path d="M371.306,288.583l.05-.126-.045-.087-.047.129Z" transform="translate(-340.223 -280.7)" fill="#c2a21f"/><path d="M371.438,288.7l.062-.15-.117.121Z" transform="translate(-340.254 -280.746)" fill="#c2a21f"/><path d="M371.448,288.731l-.085-.045.1-.158-.068.153.033.008-.027-.012.069-.16Z" transform="translate(-340.249 -280.738)" fill="#c2a21f"/><path d="M369.347,287.737l-.1.025,0,.178-.122.027-.084.157.052.048c0,.005-.041.116-.039.116l.032.042.032.1.082.01.022.114.129.02.119.083.007.053.136,0,.093.03.325-.037.043-.068,0-.091.176-.006.016-.145h.091l-.012-.164.079.007-.02-.079-.048-.064-.01-.1-.136-.134-.03-.174-.087-.041-.006-.117.1-.136-.009-.053-.091,0-.068.056-.091.011v.041l.023.078h-.1l0-.12-.148-.073-.138.1-.007.108-.067.019-.068-.1-.119-.044-.065,0v.077l.125.163Z" transform="translate(-339.652 -280.433)" fill="#fbfc2b"/><path d="M369.7,288.763l-.252-.035-.01-.077-.107-.063-.117-.015-.046-.138-.056.013-.076-.212c.01-.027.024-.065.026-.076l-.049-.061.084-.157.143-.042-.029-.148.122-.054-.011-.069-.119-.14,0-.1v-.031l.1.005.128.046.082.113.019-.111c0-.016,0-.016.151-.119l.177.071.022.146.047-.027-.024-.04c0-.079,0-.079.117-.091l.052-.049.111-.005h.024l.013.079-.1.158.011.1c0-.016.07.015.07.015l.048.2.128.118.086.256-.11.031.044.131-.121.032.013.118-.2.033.027.062-.048.083Zm-.089-.091.1.03.318-.036.022-.054,0-.076.2-.034-.013-.119.121-.027-.042-.131.111-.026-.094-.094-.016-.115-.128-.116-.039-.192c-.088-.025-.088-.025-.088-.045l-.006-.116.1-.155-.076-.008-.049.049a.988.988,0,0,1-.1.017c.046.084.046.084.046.09l-.136.03-.033-.149-.126-.045c0,.01-.086.071-.106.086a.518.518,0,0,1,0,.09v.021l-.088.025-.1-.113-.1-.033-.026.046.119.144-.006.116-.121.05.027.148-.146.056-.064.143c.061.034.058.042.026.128-.022-.008-.021-.006.017.046l.036.105.056-.01.047.138.1,0,.142.1.009.065Z" transform="translate(-339.643 -280.424)" fill="#c2a21f"/><path d="M369.105,288.27l.142-.008.028.126.048.042.009.232.045.019.013-.092.11-.008.022.187-.028.023.012.029.131,0a.487.487,0,0,1,.033-.05l.073-.006s.03.056.03.056l.021-.071.069-.027.057.09.1-.014-.06-.055-.023-.12.134-.071.053.089a.262.262,0,0,0,.048,0s-.059-.1-.059-.1v-.21l.1-.137.143-.016v-.058l-.143-.128-.038-.179-.081-.039-.02.023-.088.008.088.129v.084l.039.022-.007.231s-.1.013-.1.016l-.007.128-.062.061s-.035.121-.038.121l-.058.073-.11,0s-.064-.06-.064-.063-.012-.089-.012-.089l-.045-.013s-.025-.1-.025-.1l-.073-.042-.006-.058-.073-.031-.01-.055a.4.4,0,0,0-.038-.025s0-.144,0-.144l.064-.011-.036-.045-.011-.041v-.042l.053-.053-.1-.01a.619.619,0,0,1-.093.039l0,.172-.11.034-.089.139Z" transform="translate(-339.655 -280.545)" fill="#c2a21f"/><path d="M369.478,288.847l-.019-.048,0-.218-.079.034.015.067-.006.038-.08-.033-.028-.259-.075-.163-.123.033-.053-.048.082-.178.12-.044a.566.566,0,0,1-.011-.143.454.454,0,0,1,.105-.067.768.768,0,0,1,.119.005l-.045.157-.043-.032.042-.078a.2.2,0,0,1-.054,0c.02.007-.033.024-.068.033a1.022,1.022,0,0,1,0,.148l-.131.062-.072.127.16-.015.059.15.057.279,0-.077.138-.033.053.213-.021.025.137-.019-.005.062Zm.44-.01c-.091-.108-.091-.108-.091-.119l-.04.026,0,.016-.013-.043c.068-.029.074-.029.081-.029l.082.1.068-.027-.075,0-.033-.137.148-.1.036.039-.006-.01,0-.226.03-.042a.408.408,0,0,1-.087.024.375.375,0,0,1,.005.1l-.071.08c-.033.129-.033.129-.059.129l-.034.062-.134.015c-.094-.077-.094-.079-.094-.094l-.011-.085c-.044.01-.045,0-.07-.108l-.073-.03-.007-.074-.068-.013-.013-.068c-.042,0-.042,0-.042-.177v-.025l.089-.015v0l.061.053-.1.017a.415.415,0,0,1,.015.111l.12.1.007.076.059.019a.546.546,0,0,1,.036.111c.048.022.06.112.06.115s.054.042.054.042l.089-.011c.042-.072.042-.074.058-.074-.019,0,.01-.1.01-.1l.07-.073v-.108c0-.028.007-.029.126-.045l-.058-.307-.083-.112.111-.054.117.018.053.2.143.121v.071l-.169.046-.082.125.007.19s.047.077.053.086h0l-.073.048-.077-.1-.094.082.088.127Zm.157-1.044-.093.033.11.082.036.339.056-.079.163-.027-.16-.134-.047-.2Z" transform="translate(-339.649 -280.543)" fill="#c2a21f"/><path d="M369.86,288.7l.073-.042,0-.081-.07-.016-.026-.027.076.013.1-.008.032-.016c-.013.034-.025.032-.027.032s-.053.026-.053.026l0,.079.163.022s0,.031-.005.031l-.172-.037-.1.063Z" transform="translate(-339.855 -280.74)" fill="#613f21"/><path d="M369.806,288.78l.033-.081.079-.05-.021-.078.039.009v-.009l.067-.025,0,.015-.047.039.011.065c.165.008.165.008.163.022-.022.046-.025.046-.195.008Z" transform="translate(-339.847 -280.746)" fill="#c2a21f"/><path d="M370.212,288.054l-.1.074-.062.108-.032.005-.094-.124-.105,0-.059.147a.221.221,0,0,1-.044-.005l-.111-.121a.382.382,0,0,1-.03-.06l.281,0v-.132a.343.343,0,0,1-.065-.026c.016-.005.152-.005.152-.005l-.058.039v.113l.244,0Z" transform="translate(-339.788 -280.585)" fill="#c2a21f"/><path d="M369.749,288.287l-.046-.007-.143-.146-.02-.079.308-.013-.029-.094.027-.017a.188.188,0,0,1-.031.007c-.029-.058.025-.06.118-.06h.1l-.14.094.013.088.29-.048-.143.229-.065.005-.094-.124-.075.013c.01.01-.034.117-.038.128Zm.122-.214-.3.027.163.13.053-.132.09-.014Z" transform="translate(-339.779 -280.574)" fill="#c2a21f"/><path d="M369.753,288.186h.023a.02.02,0,0,1,.021.019v.024a.021.021,0,0,1-.021.02h-.023a.02.02,0,0,1-.02-.02v-.024a.019.019,0,0,1,.02-.019" transform="translate(-339.829 -280.653)" fill="#613f21"/><path d="M370.163,288.167h.025a.021.021,0,0,1,.021.02v.024a.02.02,0,0,1-.021.019h-.025a.02.02,0,0,1-.02-.019v-.024a.021.021,0,0,1,.02-.02" transform="translate(-339.934 -280.648)" fill="#613f21"/><path d="M369.575,287.878l-.038-.017.016-.039a.894.894,0,0,1,.281-.075,1.048,1.048,0,0,1,.321.023,1.137,1.137,0,0,1-.315.036.84.84,0,0,0-.265.071" transform="translate(-339.778 -280.539)" fill="#c2a21f"/><path d="M369.543,287.572h-.084l-.117-.124.066.008.079.034Z" transform="translate(-339.728 -280.463)" fill="#c2a21f"/><path d="M369.573,287.589h-.141l-.2-.194.236.054Z" transform="translate(-339.7 -280.449)" fill="#c2a21f"/><path d="M370.278,287.5l.189-.141-.062-.008-.07.063-.082.013Z" transform="translate(-339.962 -280.438)" fill="#c2a21f"/><path d="M370.037,287.56l-.294.011,0-.031.108-.011.013-.042h.033s.024.04.024.04l.1.018Z" transform="translate(-339.831 -280.473)" fill="#c2a21f"/><path d="M369.7,287.607l.006-.065.136-.038-.059.04.094,0-.013-.036.158.016.03.045-.024.03Z" transform="translate(-339.82 -280.477)" fill="#c2a21f"/><path d="M370.081,287.42l-.1,0-.007-.055Z" transform="translate(-339.89 -280.442)" fill="#c2a21f"/><path d="M369.849,287.371l-.007.055-.1.016Z" transform="translate(-339.831 -280.443)" fill="#c2a21f"/><path d="M369.115,288.653l.05-.126-.045-.086-.047.128Z" transform="translate(-339.659 -280.719)" fill="#c2a21f"/><path d="M369.247,288.768l.062-.15-.117.121Z" transform="translate(-339.689 -280.764)" fill="#c2a21f"/><path d="M369.257,288.8l-.085-.045.1-.158-.068.153.033.008-.027-.012.069-.16Z" transform="translate(-339.684 -280.757)" fill="#c2a21f"/><path d="M373.065,290.382l.326-3.78,2-1.152,1.548,1.677-1.031,3.641a19.056,19.056,0,0,0-2.844-.387" transform="translate(-340.687 -279.949)" fill="#1e2788"/><path d="M375.917,290.781l-.012,0a19.229,19.229,0,0,0-2.843-.387l.315-3.793,2.008-1.162,1.563,1.679Zm-.535-5.325L373.4,286.61l-.319,3.769a17.5,17.5,0,0,1,2.821.371l1.028-3.63Z" transform="translate(-340.686 -279.945)" fill="#160080"/><path d="M370.484,289.64l-.1.024,0,.179-.122.026-.084.157.052.049c0,.005-.042.116-.039.116l.032.042.032.1.082.011.02.114.129.02.12.084.007.053.136,0,.093.03.324-.038.045-.067,0-.091.174-.005.016-.146h.093l-.012-.163.077.007-.019-.079L371.5,290l-.01-.1-.136-.134-.03-.174-.087-.042-.006-.117.1-.136-.01-.054h-.09l-.068.056-.091.011v.041l.023.078h-.1l0-.12-.148-.073-.138.1-.007.108-.067.019-.068-.1-.12-.044-.064,0v.077l.125.162Z" transform="translate(-339.945 -280.923)" fill="#fbfc2b"/><path d="M370.836,290.666l-.252-.035-.01-.077-.108-.064-.117-.015-.045-.137-.056.013-.088-.24-.01-.108.084-.157.143-.041-.029-.149.122-.053-.011-.07-.119-.14,0-.1v-.031l.1.005.129.046.082.113.019-.111c0-.016,0-.016.151-.119l.179.071.021.146.047-.027-.024-.04c0-.079,0-.079.117-.091l.052-.049.109-.006h.025l.015.079-.1.159.012.1c0-.018.069.014.069.014l.048.2.128.117.085.258-.108.03.044.131-.122.032.013.119-.2.032.027.062-.05.082Zm-.089-.091.1.03.317-.037.023-.054,0-.076.2-.033-.013-.12.123-.027-.042-.131.109-.026-.093-.094-.016-.116-.128-.115-.039-.192c-.088-.024-.088-.024-.088-.046l-.006-.115.1-.155-.076-.008-.049.049a.989.989,0,0,1-.1.017c.046.084.046.084.046.09l-.136.03-.033-.149-.126-.045c0,.01-.087.072-.107.087a.456.456,0,0,1,0,.09v.021l-.088.025-.1-.113-.106-.033-.024.046.119.143-.006.117-.121.049.027.149-.146.056-.064.143c.061.035.058.042.03.116-.027.005-.025.008.013.059l.036.1.056-.009.046.137.1,0,.143.1.009.065Z" transform="translate(-339.935 -280.914)" fill="#c2a21f"/><path d="M370.242,290.172l.142-.008.028.126.048.042.007.231.046.019.013-.092.11-.008.022.186-.028.024.012.029.131,0a.463.463,0,0,1,.032-.05s.075-.007.075-.005.029.055.029.055l.022-.071.069-.027s.057.09.057.09l.1-.013-.06-.055-.024-.121.135-.071.053.09h.048s-.059-.1-.059-.1v-.21l.1-.136.143-.016v-.058l-.143-.129-.036-.178-.081-.04-.021.024-.088.008.088.129v.084l.04.022-.007.231-.1.016s-.007.128-.007.128l-.062.062s-.035.12-.038.12-.058.074-.058.074l-.11,0-.065-.063s-.01-.09-.01-.09l-.045-.013s-.025-.1-.025-.1l-.075-.042,0-.058-.073-.031a.459.459,0,0,0-.011-.056.352.352,0,0,0-.038-.024v-.145l.064-.01-.036-.046-.011-.041v-.042l.053-.053-.1-.01a.728.728,0,0,1-.094.039s0,.171,0,.171l-.11.034-.089.14Z" transform="translate(-339.948 -281.035)" fill="#c2a21f"/><path d="M370.616,290.749l-.019-.048,0-.218-.078.035.014.066-.005.038-.082-.033-.027-.258-.074-.163-.123.032-.054-.048.082-.178.12-.045a.528.528,0,0,1-.013-.139.387.387,0,0,1,.107-.07.592.592,0,0,1,.118.006l-.045.156-.043-.032.042-.078a.156.156,0,0,1-.054,0c.02.007-.033.025-.068.033a1.034,1.034,0,0,1,0,.148l-.132.062-.071.127.16-.015.059.15.056.279v-.077l.137-.033.054.213-.022.026.136-.019,0,.061Zm.439-.012c-.091-.107-.091-.108-.091-.119l-.033.106-.088-.064-.042.006.069-.036,0,.032.055.039,0-.013-.019-.071c.07-.028.074-.028.08-.028a.68.68,0,0,1,.082.1l.068-.026-.076,0-.033-.137.15-.1.036.039-.006-.01,0-.225.029-.042a.366.366,0,0,1-.086.023.353.353,0,0,1,.006.1l-.072.08c-.033.129-.033.129-.059.129.011,0-.034.062-.034.062l-.133.015c-.1-.078-.1-.078-.1-.093l-.01-.086c-.04.013-.043.007-.069-.108l-.075-.03-.005-.075-.067-.011-.015-.066c-.042,0-.042,0-.042-.18v-.026l.089-.014v0l.06.053-.1.016a.347.347,0,0,1,.015.114c.036.013.039.016.049.078l.072.016.005.076.06.018a.626.626,0,0,1,.037.111c.048.022.058.113.058.116s.056.041.056.041l.089-.011c.04-.073.042-.074.058-.074-.018,0,.01-.1.01-.1l.071-.074,0-.108c0-.027,0-.027.126-.044l-.059-.307-.083-.112.111-.055.119.019.053.2.143.122v.071l-.169.045-.081.125.006.191s.048.077.053.087l-.073.047-.078-.1-.1.082.091.128Zm.157-1.044-.094.035.111.082.036.337.054-.078.163-.027-.159-.135-.045-.2Z" transform="translate(-339.941 -281.033)" fill="#c2a21f"/><path d="M371,290.6l.073-.042,0-.082-.07-.015-.027-.027.078.013.1-.007.033-.016c-.014.034-.025.031-.027.031s-.053.026-.053.026l0,.079.163.022s0,.032-.005.032-.172-.037-.172-.037l-.1.063Z" transform="translate(-340.147 -281.23)" fill="#613f21"/><path d="M370.943,290.682l.033-.081.079-.05-.021-.079.039.009v-.009l.065-.024,0,.014-.046.039.011.065c.165.008.165.008.163.023-.023.045-.03.045-.195.008Z" transform="translate(-340.14 -281.236)" fill="#c2a21f"/><path d="M371.348,289.955l-.1.074-.062.108-.032.005-.094-.124-.107,0s-.058.144-.058.147a.219.219,0,0,1-.044-.005l-.113-.121s-.035-.06-.029-.06l.281,0,0-.131a.347.347,0,0,1-.064-.026,1.441,1.441,0,0,1,.152-.006l-.058.04v.113l.244,0Z" transform="translate(-340.081 -281.074)" fill="#c2a21f"/><path d="M370.886,290.189l-.046-.007-.145-.146-.019-.079.308-.013-.03-.093.03-.017a.248.248,0,0,1-.034.008c-.028-.059.026-.061.12-.061h.1l-.137.094.013.088.29-.048-.143.229-.065.005-.094-.124-.076.014c.01.01-.032.115-.036.126Zm.122-.215-.3.028.163.13c.007-.02.022-.058.052-.132l.091-.015Z" transform="translate(-340.072 -281.064)" fill="#c2a21f"/><path d="M370.89,290.087h.022a.021.021,0,0,1,.022.02v.024a.02.02,0,0,1-.022.019h-.022a.019.019,0,0,1-.02-.019v-.024a.019.019,0,0,1,.02-.02" transform="translate(-340.121 -281.143)" fill="#613f21"/><path d="M371.3,290.07h.024a.021.021,0,0,1,.021.02v.024a.021.021,0,0,1-.021.019H371.3a.019.019,0,0,1-.02-.019v-.024a.02.02,0,0,1,.02-.02" transform="translate(-340.227 -281.138)" fill="#613f21"/><path d="M370.7,289.783l-.031-.02.009-.036a.912.912,0,0,1,.289-.078.979.979,0,0,1,.324.025,1.255,1.255,0,0,1-.319.035.851.851,0,0,0-.272.074" transform="translate(-340.071 -281.029)" fill="#c2a21f"/><path d="M370.68,289.474H370.6l-.117-.123.066.008.079.034Z" transform="translate(-340.021 -280.953)" fill="#c2a21f"/><path d="M370.71,289.49h-.142l-.2-.193.236.054Z" transform="translate(-339.993 -280.939)" fill="#c2a21f"/><path d="M371.415,289.4l.189-.142-.062-.008-.07.063-.082.013Z" transform="translate(-340.255 -280.928)" fill="#c2a21f"/><path d="M371.173,289.463l-.294.011,0-.032.108-.01.013-.042s.032,0,.032,0a.456.456,0,0,0,.024.039l.1.019Z" transform="translate(-340.124 -280.963)" fill="#c2a21f"/><path d="M370.835,289.509l.006-.065.134-.038-.058.04.094,0-.014-.036.16.016.03.045-.025.03Z" transform="translate(-340.112 -280.967)" fill="#c2a21f"/><path d="M371.216,289.322l-.1,0-.008-.055Z" transform="translate(-340.182 -280.932)" fill="#c2a21f"/><path d="M370.986,289.273l-.009.055-.1.016Z" transform="translate(-340.124 -280.933)" fill="#c2a21f"/><path d="M370.251,290.555l.051-.126-.045-.087-.047.129Z" transform="translate(-339.952 -281.208)" fill="#c2a21f"/><path d="M370.383,290.669l.062-.149-.119.121Z" transform="translate(-339.981 -281.254)" fill="#c2a21f"/><path d="M370.393,290.7l-.085-.043.1-.159-.07.154.035.007-.027-.011.069-.159Z" transform="translate(-339.977 -281.247)" fill="#c2a21f"/><path d="M373.7,291.182l-.1.117.009.1.207,0c.067-.016.085-.039.1-.066s.006-.052.012-.1Z" transform="translate(-340.824 -281.425)" fill="#cb0028"/><path d="M373.59,291.408l-.01-.111.1-.126.238.044-.015.11.012.006c-.013.027-.033.056-.106.073Z" transform="translate(-340.819 -281.422)" fill="#d30028"/><path d="M374.365,291.556l-.093.071-.009.091.186.013c.068-.01.079-.021.093-.046s.018-.032.027-.076Z" transform="translate(-340.995 -281.521)" fill="#cb0028"/><path d="M374.448,291.741l-.187-.014,0-.1.1-.08.216.051-.03.088.011.007c-.017.029-.03.042-.1.053Z" transform="translate(-340.994 -281.517)" fill="#d30028"/><path d="M375.472,291.238l-.1.1,0,.075.2.008c.066-.016.056-.013.076-.048s.015-.04.019-.085Z" transform="translate(-341.282 -281.439)" fill="#cb0028"/><path d="M375.572,291.429l-.2-.008-.017-.088.1-.108.213.046-.022.1.011.007c-.022.039-.026.039-.082.053Z" transform="translate(-341.277 -281.436)" fill="#d30028"/><path d="M376.24,291.478l-.111.094v.094l.209.019c.067-.016.073-.036.088-.059s.01-.037.016-.082Z" transform="translate(-341.476 -281.501)" fill="#cb0028"/><path d="M376.335,291.7l-.211-.019-.012-.108.116-.1.215.065-.01.1a.125.125,0,0,1-.1.065Z" transform="translate(-341.472 -281.498)" fill="#d30028"/><path d="M374.393,288.069l.394.261c.074-.062.228-.025.289-.007.107.028.184.093.278.109a1.658,1.658,0,0,0,.537.056,1.174,1.174,0,0,0,.4-.158v-.038h-.077a1.019,1.019,0,0,1-.435.03,3.369,3.369,0,0,1-.371-.136l-.016-.038a.727.727,0,0,0,.4-.039.549.549,0,0,0,.2-.124v-.045l-.074,0a.376.376,0,0,1-.3.061c-.131-.013-.251-.088-.338-.09s-.09-.043-.181-.048a1.378,1.378,0,0,0-.435.039.5.5,0,0,0-.271.17" transform="translate(-341.029 -280.568)" fill="#cb0028"/><path d="M375.792,288.5a1.873,1.873,0,0,1-.444-.062.55.55,0,0,1-.143-.054.667.667,0,0,0-.135-.055c-.135-.037-.229-.035-.277,0l-.41-.261a.444.444,0,0,1,.275-.193,1.371,1.371,0,0,1,.44-.04.2.2,0,0,1,.092.026.159.159,0,0,0,.086.022.537.537,0,0,1,.151.039.762.762,0,0,0,.19.051.366.366,0,0,0,.29-.059l0,0,.079.01,0,.011,0,0v.013l-.007,0-.027.074a.38.38,0,0,1-.162.092.485.485,0,0,1-.237.045h-.062l.062-.025a.467.467,0,0,0,.229-.044.375.375,0,0,0,.153-.087l.039-.053a.709.709,0,0,1-.362.054.824.824,0,0,1-.2-.053.5.5,0,0,0-.141-.038.187.187,0,0,1-.1-.025.171.171,0,0,0-.082-.023,1.333,1.333,0,0,0-.432.039.442.442,0,0,0-.235.138l.362.27c.027-.044.14-.048.285-.01a.854.854,0,0,1,.14.057.552.552,0,0,0,.137.053,1.651,1.651,0,0,0,.533.056.966.966,0,0,0,.345-.128l-.016-.042a.929.929,0,0,1-.437.03.5.5,0,0,1-.173-.058,1.231,1.231,0,0,0-.2-.078l.044-.017a1.621,1.621,0,0,1,.168.072.5.5,0,0,0,.166.055.907.907,0,0,0,.428-.029h.082l-.048.091a1,1,0,0,1-.355.132c-.031,0-.063,0-.1,0" transform="translate(-341.026 -280.563)" fill="#ba0019"/><path d="M374.5,288.05a.446.446,0,0,1,.111.037.432.432,0,0,1,.056.041.075.075,0,0,0-.025-.053.588.588,0,0,0-.084-.068Z" transform="translate(-341.055 -280.607)" fill="#82373b"/><path d="M374.913,288.384a.222.222,0,0,0-.031-.093.28.28,0,0,0-.047-.084.136.136,0,0,1,.074.053.176.176,0,0,1,.029.107Z" transform="translate(-341.143 -280.659)" fill="#82373b"/><path d="M375.041,287.885a.633.633,0,0,1,.042.09.781.781,0,0,1,.019.11c0-.034,0-.073,0-.107s-.025-.064-.029-.1Z" transform="translate(-341.196 -280.574)" fill="#82373b"/><path d="M375.471,287.913l.016.189.019-.177Z" transform="translate(-341.306 -280.583)" fill="#82373b"/><path d="M375.359,288.375a.239.239,0,0,0,0-.092.565.565,0,0,0-.025-.091.245.245,0,0,1,.059.094.11.11,0,0,1-.036.089" transform="translate(-341.272 -280.655)" fill="#82373b"/><path d="M375.793,288.327a.27.27,0,0,1-.005.109.119.119,0,0,1-.052.074c.036-.027.068-.036.079-.065a.213.213,0,0,0-.022-.119" transform="translate(-341.375 -280.689)" fill="#82373b"/><path d="M375.876,288.2c-.023,0-.027-.091-.042-.137.01,0,.021,0,.03.019a.525.525,0,0,1,.012.118" transform="translate(-341.4 -280.62)" fill="#82373b"/><path d="M376.193,288.167l.01-.078.025,0v.066a.091.091,0,0,1-.035.014" transform="translate(-341.492 -280.628)" fill="#82373b"/><path d="M376.17,288.478a.235.235,0,0,1,.044.078c0,.027-.006.039-.027.079l.038,0a.123.123,0,0,0,.022-.08.1.1,0,0,0-.041-.07Z" transform="translate(-341.486 -280.728)" fill="#82373b"/><path d="M376.229,288.653l-.046,0,.014-.09-.042-.073.024,0h-.016l.059.064a.117.117,0,0,1-.021.073l.019.009-.011-.006a.112.112,0,0,0,.02-.072l-.024-.062a.066.066,0,0,1,.05.059.129.129,0,0,1-.024.088Z" transform="translate(-341.483 -280.731)" fill="#83353b"/><path d="M376.535,288.505l.009.109.03-.015-.007-.094Z" transform="translate(-341.581 -280.735)" fill="#82373b"/><path d="M374.2,288.165a.343.343,0,0,0-.166.117l-.251-.128a.114.114,0,0,0-.037.132.5.5,0,0,0,.155.165.992.992,0,0,1-.059.179c-.028.068-.086.152-.088.18s-.014.1.033.116a1.383,1.383,0,0,0,.246-.009c-.008.027-.027.073-.02.094s.019.027.059.027c-.012.025-.036.056-.025.071a.133.133,0,0,0,.1.018l-.076.078c-.05.05-.107.1-.132.132-.04.056-.043.115.036.11-.03.032-.058.064-.053.093s.023.056.079.036a.373.373,0,0,0,0,.224.52.52,0,0,0-.025.185c-.058.033-.065.076-.1.143s-.1.091-.133.246l.229.057c.009-.032.039-.053.047-.085a.281.281,0,0,0,0-.106,2.09,2.09,0,0,0,.166-.275.283.283,0,0,1,.125-.044c.038,0,.061.022.1.044a.811.811,0,0,0-.07.214v.237c-.01.059-.077.059-.105.237l.206.053c.036-.059.091-.068.106-.092l.014-.246c.026-.117.189-.212.192-.338.058,0,.081,0,.1-.007s.042-.029.066-.051c.009.037.039.041.065.041a.263.263,0,0,0,.1-.05c.015.02.022.039.054.047a.507.507,0,0,0,.151-.014l-.17.278c-.006.027,0,.043-.01.074s-.037.042-.049.067l.193.047.03-.082a.23.23,0,0,0,.1-.052c.02-.026.02-.076.033-.1a1.689,1.689,0,0,0,.241-.236.206.206,0,0,1,.145.109.76.76,0,0,1-.02.269l-.125.195-.015.032.2.07.125-.1.006-.135a.843.843,0,0,1,.236-.241s.01-.146.006-.151c-.02-.016-.035-.006-.042-.036a.6.6,0,0,1,0-.142c.012-.016.038-.033.036-.046-.033-.037-.023-.134-.013-.209s.114-.186.131-.236l.009-.09c-.013-.022-.03-.036-.03-.053s.022-.051.036-.071l.025-.042,0-.221c-.007-.024-.027-.062-.048-.065s-.048.018-.07.042l-.113.083a.309.309,0,0,1-.2,0l-.145,0a.231.231,0,0,1-.187-.006h-.086a.406.406,0,0,1-.093.043.212.212,0,0,1-.1,0,.471.471,0,0,0-.229.045.465.465,0,0,0-.232-.037l-.078-.023a.776.776,0,0,1-.241-.29c.2-.059.291-.12.353-.26l-.291.01Z" transform="translate(-340.86 -280.645)" fill="#fbfc2b"/><path d="M374.45,290.721l-.215-.056a.312.312,0,0,1,.07-.2l.026-.281a.394.394,0,0,1,.045-.152l-.063-.093a.263.263,0,0,0-.119.042,1.666,1.666,0,0,1-.162.27.231.231,0,0,1,0,.1l-.062.094-.229-.057a.336.336,0,0,1,.083-.2l.066-.106a.2.2,0,0,1,.079-.1c-.028.054-.04.078-.056.11a.51.51,0,0,1-.069.111.366.366,0,0,0-.088.179l.219.042.031-.076a.265.265,0,0,0,0-.1,2.519,2.519,0,0,0,.168-.281c.094-.056.154-.059.215-.024a.094.094,0,0,1,.009.1.362.362,0,0,0-.042.142v.237a.53.53,0,0,0-.106.238l.186.037a.215.215,0,0,1,.074-.064l.039-.261a.411.411,0,0,1,.1-.157.324.324,0,0,0,.1-.18h.056l.02-.013.046.017-.1.008a.331.331,0,0,1-.1.183.388.388,0,0,0-.089.145l-.014.244c-.06.048-.088.065-.108.1Zm1.394-.048-.209-.068.133-.246a.71.71,0,0,0,.018-.261.2.2,0,0,0-.134-.1,1.3,1.3,0,0,1-.231.234l-.031.1a.179.179,0,0,1-.081.048l-.043.082-.208-.039.049-.075-.013.039.162.056.016-.073c.058-.027.082-.037.1-.056l.036-.106a1.68,1.68,0,0,0,.238-.235.2.2,0,0,1,.167.113.733.733,0,0,1-.02.278l-.126.2.175.082.112-.094v-.126a.712.712,0,0,1,.2-.22.607.607,0,0,0,.038-.167.266.266,0,0,1-.042-.183c0-.076.013-.17.024-.255a.31.31,0,0,1,.088-.172.34.34,0,0,0,.045-.067l.008-.087c-.032-.073-.015-.1.006-.127l.022-.259h0l-.1-.014-.113.083a.331.331,0,0,1-.207,0l-.141,0a.248.248,0,0,1-.192-.008l-.08,0a.318.318,0,0,1-.091.043l-.1-.015V289c-.151.011-.171.022-.188.03l-.079,0a.432.432,0,0,0-.195-.025l-.082-.024a.766.766,0,0,1-.249-.3c.212-.077.293-.137.353-.272l-.279.029-.418-.275a.306.306,0,0,0-.125.092l-.019-.007a.253.253,0,0,1,.148-.108l.421.275.284-.013c-.051.16-.139.225-.35.286a.972.972,0,0,0,.244.267l.075.022a.441.441,0,0,1,.2.027,1.681,1.681,0,0,1,.255-.036l.1,0a.351.351,0,0,0,.076-.036l.1-.01a.227.227,0,0,0,.183.007l.148,0a.321.321,0,0,0,.192,0l.109-.082a.124.124,0,0,1,.073-.045c.037.006.059.056.064.075l0,.225-.061.112.022.145a.324.324,0,0,1-.05.077.3.3,0,0,0-.082.158c-.007.055-.022.165.01.2a.372.372,0,0,0-.035.193c.045.036.047.039.037.177a1.192,1.192,0,0,0-.238.261l0,.13Zm-.735-.324-.01,0,.011-.076.168-.275c-.017.024-.075.033-.114.033l-.082-.045c-.073.056-.137.092-.167,0l.075.016c.008,0,.03-.006.088-.048l.064.045a.594.594,0,0,0,.145-.015Zm-1.139-.382a.362.362,0,0,1,.019-.173.348.348,0,0,1,0-.223c-.056.025-.075.007-.08-.03a.1.1,0,0,1,.032-.076.53.53,0,0,1-.007.072l.028-.01.05.053a.288.288,0,0,0,0,.179,1.043,1.043,0,0,0-.014.163l-.023.044m-.047-.555c-.028-.025-.018-.053,0-.084s.06-.062.1-.1l.106-.108a.08.08,0,0,1-.1,0l.027-.068.006.013.068.049-.04.08c-.092.09-.131.128-.151.151a.1.1,0,0,0-.025.068m.142-.362-.066-.037a.165.165,0,0,1,.016-.088l-.071.009a1.082,1.082,0,0,1-.113.009.107.107,0,0,1-.092-.135.288.288,0,0,1,.04-.09,1,1,0,0,0,.106-.271.416.416,0,0,1-.154-.157.128.128,0,0,1,.042-.148l.166.079-.164-.057a.119.119,0,0,0-.019.115.492.492,0,0,0,.15.159.627.627,0,0,1-.055.195.975.975,0,0,1-.048.1.371.371,0,0,0-.037.079c-.007.048-.008.091.024.1a.776.776,0,0,0,.151,0c.033,0,.062-.007.082-.007Z" transform="translate(-340.856 -280.642)" fill="#e8d629"/><path d="M374.223,288.641l.081.035a.081.081,0,0,0,.044.027c.013,0,.023-.013.035-.022l.075-.04c-.045-.007-.058-.034-.105-.034a.627.627,0,0,0-.129.034" transform="translate(-340.985 -280.762)" fill="#624e0f"/><path d="M374.346,288.711l-.13-.062.006,0v-.008l.01,0c.067-.042.091-.05.119-.05l.078.033-.078-.007-.1.028.1.054v0l.017-.025.075-.042.023.017Z" transform="translate(-340.983 -280.757)" fill="#624e0f"/><path d="M374.4,289.879a.009.009,0,0,1-.017,0,.739.739,0,0,0-.059-.24.776.776,0,0,1,.076.235" transform="translate(-341.011 -281.029)" fill="#c2a21f"/><path d="M375.059,289.9c.016,0,.039,0,.045-.007s-.013-.043-.022-.069c-.027-.054-.043-.113-.055-.139-.012-.007-.024-.007-.022.006.016.048.043.19.053.209" transform="translate(-341.187 -281.038)" fill="#c2a21f"/><path d="M375.4,289.852c0,.013-.039-.005-.045-.018s-.055-.216-.045-.223.045.064.056.1.026.088.033.146" transform="translate(-341.266 -281.02)" fill="#c2a21f"/><path d="M375.385,290.351c0,.013.03,0,.042-.007.036-.056.079-.114.093-.137a.688.688,0,0,0,.035-.175s-.038.076-.082.154a1.407,1.407,0,0,0-.088.166" transform="translate(-341.284 -281.129)" fill="#c2a21f"/><path d="M375.389,290.385l-.016-.007c-.005-.017-.007-.024.086-.184l.052-.1a.025.025,0,0,1,.016,0l-.046.118a1.375,1.375,0,0,0-.087.16l-.005-.008v.013l.079-.1a.7.7,0,0,0,.067-.179c.029.019-.006.134-.006.135Z" transform="translate(-341.281 -281.143)" fill="#c2a21f"/><path d="M375.741,290.229c-.013.007.026-.131.029-.156s.017-.108.033-.2a.537.537,0,0,1-.062.353" transform="translate(-341.375 -281.088)" fill="#c2a21f"/><path d="M375.738,290.251l-.013-.015c-.006-.008-.005-.02.016-.112l.045-.251a.428.428,0,0,1-.039.362Z" transform="translate(-341.371 -281.088)" fill="#c2a21f"/><path d="M375.918,289.72a.721.721,0,0,1-.111-.182.905.905,0,0,1,.108.14.041.041,0,0,1,0,.042" transform="translate(-341.393 -281.001)" fill="#c2a21f"/><path d="M376.3,289.874c-.009-.007-.006-.067-.022-.133a.737.737,0,0,1-.041-.148c.006-.01.025-.005.039.008.007.036.023.174.042.264,0,.009-.008.015-.019.01" transform="translate(-341.503 -281.014)" fill="#c2a21f"/><path d="M376.569,289.746c-.009-.01.024.065.049.154s.038.246.044.234.015-.025.041-.031.125,0,.119,0a1,1,0,0,1-.158-.158.894.894,0,0,1-.094-.2" transform="translate(-341.589 -281.055)" fill="#c2a21f"/><path d="M376.659,290.153h-.011l-.013-.075a1.471,1.471,0,0,0-.031-.169c-.013-.048-.029-.091-.039-.12l0,0-.01-.026a.263.263,0,0,1,.042.062c.024.033.045.076.071.111a.713.713,0,0,0,.126.129Z" transform="translate(-341.587 -281.06)" fill="#c2a21f"/><path d="M377.675,289.367a15.914,15.914,0,0,1,1.611.423c.523.169,1.021.37,1.527.589l-.847,1.713c-.474-.18-.941-.326-1.408-.477s-.922-.284-1.394-.429Z" transform="translate(-341.742 -280.957)" fill="#fff"/><path d="M379.97,292.108l-.011,0c-.4-.154-.8-.281-1.2-.409l-.209-.067c-.32-.1-.635-.2-.954-.3l-.44-.134.5-1.835a13.189,13.189,0,0,1,1.628.415c.566.183,1.09.4,1.528.589Zm-2.3-2.729-.5,1.81.431.118c.319.1.635.192.955.3l.209.067c.394.126.789.253,1.189.405l.841-1.7c-.431-.171-.953-.388-1.519-.57a15.923,15.923,0,0,0-1.61-.423" transform="translate(-341.741 -280.956)" fill="#fff"/><path d="M377.6,289.911s.79.176,1.555.422,1.511.562,1.508.562-.481.979-.481.979c-.462-.183-.946-.356-1.424-.51s-.957-.3-1.448-.416Z" transform="translate(-341.78 -281.097)" fill="#cb0028"/><path d="M380.186,291.888l-.011,0c-.443-.177-.922-.347-1.423-.509-.455-.146-.941-.3-1.446-.416l.281-1.053a13.184,13.184,0,0,1,1.571.414c.5.16,1.363.486,1.5.562-.068-.005-.765-.3-1.506-.538s-1.546-.42-1.553-.422l-.275,1.027a13.87,13.87,0,0,1,1.439.4c.5.161.973.331,1.413.506.419-.86.47-.961.484-.973.011.006.018.011.017.013-.019.03-.354.718-.483.982Z" transform="translate(-341.779 -281.096)" fill="#d30028"/><path d="M377.76,290.512c.077-.044.129-.055.171-.126h.28l0,.1c.07.033.109.07.179.1s.165.062.235.1l.6.053a.881.881,0,0,1,.267.088.4.4,0,0,1,.152.158,2.047,2.047,0,0,0,.374.088c.128.019.287.027.411.032.061.021.061.052.032.084a.314.314,0,0,1-.254.093c-.186,0-.4-.1-.487-.089a.365.365,0,0,0,.21.218l0,.267-.051.046-.053-.036a.231.231,0,0,0,.012-.2c-.042-.06-.047-.085-.125-.088a.623.623,0,0,1-.274-.123l-.042.007a.214.214,0,0,1-.107.1l-.12-.007s-.272-.06-.272-.064,0-.042,0-.045.093,0,.1,0a.89.89,0,0,0,.18.017l0-.1.183-.01c-.036-.127-.049-.208-.219-.236l-.529.014.007.074a1.42,1.42,0,0,0-.5.019c-.071.007-.174.043-.221.043l-.055-.013c-.035-.011-.035-.021-.02-.053a.753.753,0,0,0,.332-.067.1.1,0,0,0-.035-.071c-.143-.007-.258,0-.3,0a.959.959,0,0,1-.144-.052s-.011-.056-.007-.056l.1.024a.763.763,0,0,0,.306-.011l0-.076a.11.11,0,0,0-.036-.071,1.771,1.771,0,0,0-.212-.021c-.088-.016-.074-.059-.074-.1" transform="translate(-341.875 -281.22)"/><path d="M379.879,291.733l-.062-.041a.276.276,0,0,0,.006-.207c-.042-.062-.051-.076-.112-.079a.6.6,0,0,1-.252-.106,1.349,1.349,0,0,0,.255.081.12.12,0,0,1,.117.07.243.243,0,0,1,0,.238l.043.028-.009-.01.051-.045V291.4a.344.344,0,0,1-.21-.217.4.4,0,0,1,.206.021,1.1,1.1,0,0,0,.29.054.312.312,0,0,0,.247-.088,1.472,1.472,0,0,0-.434-.1,2.065,2.065,0,0,1-.376-.088.438.438,0,0,0-.154-.16.881.881,0,0,0-.263-.086l-.6-.053c-.039-.017-.081-.033-.122-.048s-.083-.031-.118-.048a.717.717,0,0,1-.09-.052.787.787,0,0,0-.088-.05l-.011-.113-.267.013a.213.213,0,0,1-.116.1c-.044.068-.045.092.021.1a.892.892,0,0,1,.215.022.121.121,0,0,1,.044.081l0,.078a.543.543,0,0,1-.321.023l-.057-.022.015-.015a.516.516,0,0,0,.344,0l0-.065c-.04-.062-.182-.078-.235-.078-.09-.016-.088-.063-.087-.1v-.007l.056-.045a.236.236,0,0,0,.117-.1l.291-.007.016.114a.264.264,0,0,1,.082.04.8.8,0,0,0,.088.051c.033.016.074.031.115.047s.085.031.12.048l.6.051a.893.893,0,0,1,.272.09.415.415,0,0,1,.157.163,2.255,2.255,0,0,0,.365.082c.127.019.287.027.409.032h.01l.052.048a.273.273,0,0,1-.284.154,1.129,1.129,0,0,1-.3-.055.729.729,0,0,0-.167-.036c0,.037.088.149.2.194l.005.286Zm-.587-.342-.125-.005c-.285-.062-.285-.062-.285-.076.016-.059.022-.062.117-.062a.894.894,0,0,0,.18.017l-.018-.088.122-.015-.108.027.016.089a.4.4,0,0,1-.2,0c-.047,0-.087,0-.093,0a1.139,1.139,0,0,0,.267.084l.117.007a.216.216,0,0,0,.1-.1l.039.016a.424.424,0,0,1-.131.1m.062-.247c-.047-.111-.068-.176-.217-.2l-.526.014.019.059c-.07.007-.146,0-.223,0a1,1,0,0,0-.282.031.879.879,0,0,0-.117.024.566.566,0,0,1-.108.021l-.1-.039.042-.013.053.038v-.013a.5.5,0,0,0,.1-.019,1.009,1.009,0,0,1,.118-.024,1.08,1.08,0,0,1,.287-.032,1.891,1.891,0,0,1,.212.012l-.022-.059.542-.028c.171.028.195.111.226.225Zm-1.423-.126a1.315,1.315,0,0,0,.218-.081l-.138-.049h-.085l-.1,0c-.026-.007-.154-.045-.154-.065l.024-.023a.393.393,0,0,0,.137.063h.183l.112,0a.1.1,0,0,1,.047.086.506.506,0,0,1-.239.068" transform="translate(-341.873 -281.215)"/><path d="M379.242,291.328a.968.968,0,0,0,.261.042l.183-.01c-.036-.127-.05-.207-.219-.235l-.529.013.007.074c.16.059.239.093.3.116" transform="translate(-342.199 -281.41)" fill="#fff"/><path d="M379.5,291.379h0a.957.957,0,0,1-.264-.043c-.094-.038-.169-.068-.3-.116l-.016-.085.542-.028c.171.028.194.111.226.224l-.011,0c-.047-.111-.068-.176-.217-.2l-.526.015.02.059c.12.036.2.068.251.09a.943.943,0,0,0,.294.056l.134-.007Z" transform="translate(-342.195 -281.405)"/><path d="M364.832,290.771l-.959-3.572,1.462-1.771,2.05,1.17.348,3.785a25.1,25.1,0,0,0-2.9.388" transform="translate(-338.319 -279.943)" fill="#1e2788"/><path d="M364.817,290.783l0-.011-.958-3.572,1.464-1.783,2.067,1.167.355,3.795a29.031,29.031,0,0,0-2.913.4Zm.506-5.346-1.445,1.769.958,3.548a25.33,25.33,0,0,1,2.891-.386l-.36-3.771Z" transform="translate(-338.315 -279.94)" fill="#160080"/><path d="M360.545,288.41l.351.272-.067.477.452-.188.359.272.049-.44.371-.145-.307-.295.068-.436s-.445.161-.445.157-.321-.271-.324-.267-.073.415-.073.415Z" transform="translate(-337.462 -280.559)" fill="#fbfc2b"/><path d="M361.649,289.273l-.381-.29-.437.19.045-.494-.345-.258.438-.2a4.045,4.045,0,0,1,.065-.408c.022,0,.345.261.348.263s.43-.16.43-.16l-.047.454.3.279-.376.172Zm-.377-.319.351.258.046-.412.382-.158-.313-.267.063-.451c-.417.177-.425.177-.429.177-.024-.019-.308-.256-.331-.269a3.155,3.155,0,0,1-.05.4l-.444.188.355.244-.06.492Z" transform="translate(-337.459 -280.556)" fill="#f4c627"/><path d="M360.555,288.619l1.5.243-.374.153-.361-.258s.322.681.318.678-.341-.251-.354-.261l.032-.416s-.48.6-.48.6.07-.474.07-.474Z" transform="translate(-337.465 -280.765)" fill="#f4c427"/><path d="M361.121,288.245l.35.295-.272-.716Z" transform="translate(-337.611 -280.56)" fill="#f4c627"/><path d="M361.639,288.143s-.052.437-.049.436c.034-.048.5-.6.5-.6s-.438.167-.447.163" transform="translate(-337.731 -280.6)" fill="#f4c627"/><path d="M379.744,287.753l.088.431-.364.324.469.142.094.436.326-.305.379.124-.041-.42.338-.29s-.445-.159-.443-.162-.065-.41-.071-.41-.327.271-.327.271Z" transform="translate(-342.336 -280.508)" fill="#fbfc2b"/><path d="M380.022,289.107l-.1-.458-.459-.132.359-.346-.093-.419.464.125c.311-.27.316-.27.32-.271a2.137,2.137,0,0,1,.083.431c.024,0,.44.14.44.14l-.334.313.045.409-.4-.111Zm-.282-1.345.105.417-.369.336.463.12.1.423.31-.29.392.122-.058-.407.342-.3a2.559,2.559,0,0,1-.447-.147c0-.023-.062-.385-.07-.409,0,.017-.308.276-.308.276Z" transform="translate(-342.335 -280.504)" fill="#f4c627"/><path d="M379.753,287.809l.986,1.137-.385-.12-.108-.425s-.2.725-.2.72-.1-.408-.1-.425l.3-.3s-.761.158-.76.155l.365-.319Z" transform="translate(-342.34 -280.556)" fill="#f4c627"/><path d="M380.435,287.889l.073.447.264-.722Z" transform="translate(-342.585 -280.506)" fill="#f4c627"/><path d="M380.861,288.175c0,.005-.324.3-.322.3.059-.013.771-.137.768-.14s-.443-.151-.445-.159" transform="translate(-342.612 -280.65)" fill="#f4c627"/><path d="M363.883,287.618a5.841,5.841,0,0,1,1.72-.527A12.4,12.4,0,0,1,367.4,287s.079.931.079.939a11.067,11.067,0,0,0-1.676.1,6.448,6.448,0,0,0-1.694.412Z" transform="translate(-338.322 -280.348)" fill="#cb0028"/><path d="M364.092,288.468l-.226-.851a5.549,5.549,0,0,1,1.731-.543,11.6,11.6,0,0,1,1.675-.091h.121c.013.012.091.944.091.952l-.143.014a10.673,10.673,0,0,0-1.545.1,6.464,6.464,0,0,0-1.691.411ZM367.379,287l-.108.012a11.655,11.655,0,0,0-1.671.091,5.818,5.818,0,0,0-1.717.526l.226.808a6.5,6.5,0,0,1,1.683-.408,10.619,10.619,0,0,1,1.548-.1h.13c-.014,0-.091-.925-.091-.925" transform="translate(-338.318 -280.343)" fill="#d30028"/><path d="M364.482,289.9c-.009,0,.264.985.264.985a14.156,14.156,0,0,1,1.517-.293c.509-.072,1.051-.114,1.542-.146l-.088-.961a8.93,8.93,0,0,0-1.645.039,8.39,8.39,0,0,0-1.59.375" transform="translate(-338.476 -280.983)" fill="#cb0028"/><path d="M364.733,290.9l0-.012a8.6,8.6,0,0,1-.262-1,8.28,8.28,0,0,1,1.6-.38,9.252,9.252,0,0,1,1.648-.039l.1.973c-.483.045-1.033.085-1.553.159a14.389,14.389,0,0,0-1.515.293Zm2.331-1.422a7.671,7.671,0,0,0-.995.059,8.361,8.361,0,0,0-1.587.373c.011.017.164.579.269.958a14.446,14.446,0,0,1,1.506-.29c.52-.074,1.071-.114,1.542-.145l-.1-.947c-.195,0-.414-.008-.636-.008" transform="translate(-338.472 -280.979)" fill="#d30028"/><path d="M361.253,294.151H375.78v9.315a7.351,7.351,0,0,1-7.041,6.319c-3.44.15-7.242-2.666-7.516-6.351Z" transform="translate(-337.637 -282.189)" fill="#fff"/><path d="M368.456,309.825c-3.229,0-7.023-2.63-7.3-6.405l.03-9.287,14.579-.052.053,9.367a7.45,7.45,0,0,1-7.058,6.371c-.122,0-.211.006-.3.006m7.254-15.692-14.475.052.022,9.231c.284,3.816,4.208,6.441,7.462,6.3a7.346,7.346,0,0,0,6.992-6.271Z" transform="translate(-337.619 -282.171)" fill="#cb0028"/><path d="M361.661,294.589h13.921v8.927a7.044,7.044,0,0,1-6.749,6.055c-3.3.144-6.94-2.555-7.2-6.086Z" transform="translate(-337.742 -282.302)" fill="#cb0028"/><path d="M368.563,309.61c-3.095,0-6.731-2.521-7-6.138l.03-8.9,13.971-.05.051,8.977a7.139,7.139,0,0,1-6.764,6.106c-.117,0-.2.005-.287.005m6.952-15.038-13.871.05.02,8.847c.272,3.656,4.043,6.167,7.151,6.036a7.039,7.039,0,0,0,6.7-6.011Z" transform="translate(-337.724 -282.285)" fill="#cb0028"/><rect width="2.769" height="2.976" transform="translate(26.722 12.335)" fill="#fff"/><path d="M376.654,306.7v2.942l1.563.009a6.851,6.851,0,0,0,1.155-2.95h-2.717" transform="translate(-341.611 -285.421)" fill="#fff"/><path d="M378.22,309.657l-1.57-.009-.013-2.956,1.3-.012h1.427a6.489,6.489,0,0,1-1.143,2.97Zm-1.57-2.951.013,2.929,1.543,0a6.746,6.746,0,0,0,1.148-2.938l-1.414.014Z" transform="translate(-341.606 -285.417)" fill="#fff"/><path d="M372.926,310.7v2.827a7.29,7.29,0,0,0,2.742-1.245l0-1.583Z" transform="translate(-340.651 -286.452)" fill="#fff"/><path d="M372.907,313.54V310.7l2.752-.015.018,1.6a7.185,7.185,0,0,1-2.753,1.258Zm2.738-2.844-2.724.015.013,2.8a7.253,7.253,0,0,0,2.722-1.24Z" transform="translate(-340.646 -286.447)" fill="#fff"/><path d="M365.473,310.7l.006,1.578a7.914,7.914,0,0,0,2.737,1.221l-.008-2.8Z" transform="translate(-338.731 -286.452)" fill="#fff"/><path d="M368.225,313.514l-.016,0a7.9,7.9,0,0,1-2.743-1.222l-.012-1.59,2.749-.012Zm-.036-2.814-2.722.012.019,1.565a7.975,7.975,0,0,0,2.711,1.2Z" transform="translate(-338.727 -286.448)" fill="#fff"/><path d="M361.738,306.7a5.913,5.913,0,0,0,1.124,2.907l1.614.033V306.7Z" transform="translate(-337.77 -285.421)" fill="#fff"/><path d="M364.485,309.648h-.013l-1.614-.033a5.938,5.938,0,0,1-1.137-2.92l2.752-.016Zm-.025-2.956-2.726.015a6.1,6.1,0,0,0,1.134,2.886l1.59.027Z" transform="translate(-337.765 -285.416)" fill="#fff"/><rect width="2.769" height="2.976" transform="translate(23.954 15.311)" fill="#fff"/><rect width="2.769" height="2.976" transform="translate(29.491 15.311)" fill="#fff"/><rect width="2.769" height="2.975" transform="translate(32.259 12.321)" fill="#fff"/><rect width="2.769" height="2.976" transform="translate(35.029 15.311)" fill="#fff"/><rect width="2.769" height="2.976" transform="translate(26.722 18.287)" fill="#fff"/><rect width="2.769" height="2.976" transform="translate(32.259 18.287)" fill="#fff"/><rect width="2.769" height="2.976" transform="translate(29.491 21.262)" fill="#fff"/><path d="M374.7,289.8c-.01.012-.032-.131-.039-.154-.008-.039-.029-.105-.052-.194a.545.545,0,0,1,.091.347" transform="translate(-341.084 -280.978)" fill="#c2a21f"/><path d="M374.7,289.811c-.016,0-.02-.013-.04-.115l-.063-.243a.433.433,0,0,1,.117.345Z" transform="translate(-341.08 -280.979)" fill="#c2a21f"/></g></g></g></svg>