<svg xmlns="http://www.w3.org/2000/svg" xmlns:xlink="http://www.w3.org/1999/xlink" width="36" height="36" viewBox="0 0 36 36"><defs><clipPath id="a"><circle cx="18" cy="18" r="18" transform="translate(1036 530)" fill="#fff" stroke="#707070" stroke-width="1"/></clipPath><clipPath id="b"><rect width="62.172" height="36.267" fill="none"/></clipPath></defs><g transform="translate(-1036 -530)" clip-path="url(#a)"><g transform="translate(492.958 251.96)"><g transform="translate(529.042 278.04)" clip-path="url(#b)"><rect width="62.172" height="36.267" fill="#fff"/><path d="M562.085,291.287a1.3,1.3,0,0,0,.089.626,6.42,6.42,0,0,1-.178,2.179,1.678,1.678,0,0,1-.925.746c-.194.046-.806-.388-1.374-.567a1.646,1.646,0,0,0-.775-.149,2.171,2.171,0,0,0-.926.328c-.1-.015-.12-.06-.179,0a2.007,2.007,0,0,0-.357.448c-.061.149-.209.716-.389.776s-.663.544-.984.567a1.479,1.479,0,0,1-.448-.031c-.216-.014-.238-.238-.448-.357a.842.842,0,0,1-.268-.209s-.058-.24-.149-.24-.178.419-.178.537a1.579,1.579,0,0,0,.357.657c.12.089.12.626.06.777s.12.3.149.447-.179.268-.089.3a.451.451,0,0,1,.209.387c0,.179.447.239.537.419a2.6,2.6,0,0,1,.149.655c.03.179.135.1.149.537.141.067.359.209.537.3s.149.3.389.389.238,0,.357.029-.06.06.149.12.3-.031.478.06.269.3.387.358.628.208.657.239a1.76,1.76,0,0,0,.417.149.882.882,0,0,0,.24-.12.752.752,0,0,0,.388,0c.179-.06.3-.239.418-.239s.149.06.268.06a1.207,1.207,0,0,0,.3-.06.753.753,0,0,1,.477.06,1.9,1.9,0,0,1,.686.925,1.675,1.675,0,0,1-.029.358.678.678,0,0,1,.329.031c.089.06.081-.053.746.06-.046-.165-.686-.628-.089-1.283s.633-.389.775-.508a1.626,1.626,0,0,1,1.611-.149c.895-.149.239-.268.746-.3a.9.9,0,0,1,.448.06.346.346,0,0,1,.388-.179.708.708,0,0,1,.536-.268c.038-.2.68-.455,1.045-.478.149-.134.321-.731,1.135-.448.029-.194.164-.508.388-.567.044-.4-.1-1.217.3-1.493.4-.365.784-.283,1.463-.269.463.1.686.448.835.478a.4.4,0,0,0,.389-.089c.179-.12-.029-.358.12-.358a1.154,1.154,0,0,0,.328,0c.238-.031.209-.112.358-.149.238.118.507.029.626.118s.134.084.388.12c.089.149.329.149.329.149s-.18-.058-.12-.149a.509.509,0,0,0-.12-.478,2.452,2.452,0,0,1-.268-.268c-.089-.12.031-.12-.12-.269s-.478-.3-.567-.477-.06-.3-.209-.448-.746-.656-.775-1.193.029-1.052.386-1.223c-.014-.314.06-.359.389-.537s.357-.06.567-.06a.717.717,0,0,0,.537-.12c.209-.149.031-.478.568-.954s.746-.716.925-.746.828-.486,1.1-.448a4.225,4.225,0,0,1,.626-.687c.239-.179.508-.179.628-.328s.089-.418.446-.656.657-.389.806-.507.478-.03.6-.15.12-.567.24-.656-.389.208-.657.328a2.245,2.245,0,0,1-.986.3c-.328-.029-.149.179-.328.239s-.478.029-.6.149a4.076,4.076,0,0,1-.507.537c-.179.119-.268.09-.448.179s-.327.179-.478.239a2.208,2.208,0,0,1-.6.03s-.386.507-.567.687-.388.149-.567.238a9.782,9.782,0,0,1-2.745,1.224c-1.046.149-.568-.09-.9,0s-.806.716-1.194.746a3.423,3.423,0,0,1-.6,0c-.089,0-.568.3-.865.238a2.151,2.151,0,0,1-.9.09c-.126-.015-.359.149-.686,0-.253-.082-.253.1-.746-.06s-.836.06-1.074-.06-.21-.209-.389-.209-.179.12-.388.12-.239-.12-.418-.12a3.485,3.485,0,0,1-.657.09c-.268-.03-.357-.15-.537-.15a8.3,8.3,0,0,1-1.164-.418" transform="translate(-535.497 -280.266)" fill="#dd7d21"/><path d="M568.7,316.815a3.638,3.638,0,0,1,1.679-.621c.7-.125,1.451-.332,1.845-.436a17.028,17.028,0,0,1-1.762.622c-.435.124-1.762.435-1.762.435" transform="translate(-539.06 -287.564)" fill="#2c6752"/><path d="M572.488,314.964a2.005,2.005,0,0,1,1.016-2.2,2.548,2.548,0,0,1-1.016,2.2" transform="translate(-540.008 -286.812)" fill="#2c6752"/><path d="M574.281,314.357c-.432-.738.3-1.691.835-2.157a2.238,2.238,0,0,1-.835,2.157" transform="translate(-540.436 -286.669)" fill="#2c6752"/><path d="M575.963,313.584c-.461-.633.082-1.741.664-2.176a2.071,2.071,0,0,1-.664,2.176" transform="translate(-540.85 -286.469)" fill="#2c6752"/><path d="M577.651,312.541a1.774,1.774,0,0,1,.473-2.131c.435.5.061,1.576-.473,2.131" transform="translate(-541.271 -286.217)" fill="#2c6752"/><path d="M579.028,311.414a2.189,2.189,0,0,1,.642-2.28,2.143,2.143,0,0,1-.642,2.28" transform="translate(-541.636 -285.894)" fill="#2c6752"/><path d="M580.151,311.341c-.1-.809,1.3-1.7,1.886-1.679-.063.663-.664,1.388-1.886,1.679" transform="translate(-541.951 -286.028)" fill="#2c6752"/><path d="M579.1,312.92a2.762,2.762,0,0,1,2.4-.539c-.124.394-1.638,1.265-2.4.539" transform="translate(-541.686 -286.695)" fill="#2c6752"/><path d="M577.878,313.959c.933-.249,1.534-.456,2.094.124-.393.5-1.907.353-2.094-.124" transform="translate(-541.378 -287.05)" fill="#2c6752"/><path d="M576.1,314.792a1.733,1.733,0,0,1,2.134.642,2.107,2.107,0,0,1-2.134-.642" transform="translate(-540.93 -287.283)" fill="#2c6752"/><path d="M574.468,315.725a2.019,2.019,0,0,1,2.114.56,1.6,1.6,0,0,1-2.114-.56" transform="translate(-540.517 -287.532)" fill="#2c6752"/><path d="M572.972,316.23a2.277,2.277,0,0,1,2.022,1.006c-1.193.113-1.65-.239-2.022-1.006" transform="translate(-540.139 -287.684)" fill="#2c6752"/><path d="M571.358,316.815a3.631,3.631,0,0,0-1.679-.621c-.7-.125-1.451-.332-1.845-.436a17.028,17.028,0,0,0,1.762.622c.435.124,1.762.435,1.762.435" transform="translate(-538.826 -287.564)" fill="#2c6752"/><path d="M568.415,314.964a2.006,2.006,0,0,0-1.016-2.2,2.547,2.547,0,0,0,1.016,2.2" transform="translate(-538.722 -286.812)" fill="#2c6752"/><path d="M566.638,314.357c.432-.738-.3-1.691-.835-2.157a2.241,2.241,0,0,0,.835,2.157" transform="translate(-538.31 -286.669)" fill="#2c6752"/><path d="M565,313.584c.461-.633-.083-1.741-.663-2.176a2.073,2.073,0,0,0,.663,2.176" transform="translate(-537.935 -286.469)" fill="#2c6752"/><path d="M563.328,312.541a1.774,1.774,0,0,0-.473-2.131c-.435.5-.061,1.576.473,2.131" transform="translate(-537.535 -286.217)" fill="#2c6752"/><path d="M561.946,311.414a2.186,2.186,0,0,0-.642-2.28,2.145,2.145,0,0,0,.642,2.28" transform="translate(-537.165 -285.894)" fill="#2c6752"/><path d="M560.481,311.341c.1-.809-1.306-1.7-1.886-1.679.061.663.662,1.388,1.886,1.679" transform="translate(-536.507 -286.028)" fill="#2c6752"/><path d="M561.358,312.92a2.761,2.761,0,0,0-2.4-.539c.124.394,1.638,1.265,2.4.539" transform="translate(-536.598 -286.695)" fill="#2c6752"/><path d="M562.685,313.959c-.933-.249-1.534-.456-2.094.124.395.5,1.907.353,2.094-.124" transform="translate(-537.011 -287.05)" fill="#2c6752"/><path d="M564.444,314.792a1.733,1.733,0,0,0-2.134.642,2.105,2.105,0,0,0,2.134-.642" transform="translate(-537.445 -287.283)" fill="#2c6752"/><path d="M566.088,315.725a2.019,2.019,0,0,0-2.114.56,1.6,1.6,0,0,0,2.114-.56" transform="translate(-537.866 -287.532)" fill="#2c6752"/><path d="M567.616,316.23a2.282,2.282,0,0,0-2.023,1.006c1.194.113,1.65-.239,2.023-1.006" transform="translate(-538.275 -287.684)" fill="#2c6752"/></g></g></g></svg>