<svg xmlns="http://www.w3.org/2000/svg" xmlns:xlink="http://www.w3.org/1999/xlink" width="36" height="36" viewBox="0 0 36 36"><defs><clipPath id="a"><circle cx="18" cy="18" r="18" transform="translate(3228 820)" fill="#fff" stroke="#707070" stroke-width="1"/></clipPath><clipPath id="b"><rect width="61.716" height="36" fill="none"/></clipPath></defs><g transform="translate(-3228 -820)" clip-path="url(#a)"><g transform="translate(2885.542 463.166)"><g transform="translate(329.458 356.834)" clip-path="url(#b)"><rect width="61.716" height="36" fill="#80a7d8"/><path d="M407.7,367.032l-1.777-1.217-1.778,1.217.681-1.966-1.778-1.215,2.2,0,.678-1.968.677,1.968h2.2l-1.779,1.215Z" transform="translate(-348.449 -358.138)" fill="#f3d02f" fill-rule="evenodd"/><path d="M400.262,388.17l-1.777-1.217-1.778,1.217.681-1.966-1.778-1.214h2.2l.678-1.968.677,1.968h2.2l-1.779,1.214Z" transform="translate(-346.531 -363.593)" fill="#f3d02f" fill-rule="evenodd"/><path d="M407.7,383.385l-1.777-1.217-1.778,1.217.681-1.966-1.778-1.214h2.2l.678-1.968.677,1.968h2.2l-1.779,1.214Z" transform="translate(-348.449 -362.358)" fill="#f3d02f" fill-rule="evenodd"/><path d="M375.73,398.717l-1.777-1.217-1.778,1.217.681-1.966-1.778-1.215h2.2l.678-1.968.677,1.968h2.2l-1.779,1.215Z" transform="translate(-340.2 -366.315)" fill="#f3d02f" fill-rule="evenodd"/><path d="M380.726,383.72l1.777,1.217,1.776-1.217-.681,1.966,1.78,1.215-2.2,0-.677,1.968-.679-1.968h-2.2l1.779-1.214Z" transform="translate(-342.406 -363.773)" fill="#f3d02f" fill-rule="evenodd"/><path d="M389.461,371.641l1.777,1.218,1.776-1.217-.681,1.966,1.78,1.215-2.2,0-.677,1.968-.679-1.968h-2.2l1.779-1.215Z" transform="translate(-344.66 -360.656)" fill="#f3d02f" fill-rule="evenodd"/><path d="M396.8,369.133l1.778,1.217,1.777-1.217-.681,1.966,1.778,1.215h-2.2l-.678,1.968-.677-1.968h-2.2l1.779-1.215Z" transform="translate(-346.555 -360.008)" fill="#f3d02f" fill-rule="evenodd"/><path d="M389.461,390.04l1.777,1.217,1.776-1.217-.681,1.966,1.78,1.215-2.2,0-.677,1.968-.679-1.968-2.2,0,1.779-1.215Z" transform="translate(-344.66 -365.404)" fill="#f3d02f" fill-rule="evenodd"/><path d="M380.726,392.177l1.777,1.217,1.776-1.217-.681,1.966,1.78,1.214h-2.2l-.677,1.967-.679-1.968h-2.2l1.779-1.214Z" transform="translate(-342.406 -365.956)" fill="#f3d02f" fill-rule="evenodd"/><rect width="30.858" height="15.429" fill="#1b257d"/><path d="M356.866,356.834l-27.407,13.7v1.725h3.45l27.407-13.7v-1.724Z" transform="translate(-329.458 -356.834)" fill="#fff"/><path d="M329.458,356.834v1.724l27.407,13.7h3.451v-1.725l-27.408-13.7Z" transform="translate(-329.458 -356.834)" fill="#fff"/><path d="M342.315,356.834v5.143H329.458v5.142h12.857v5.144h5.143v-5.144h12.857v-5.142H347.458v-5.143Z" transform="translate(-329.458 -356.834)" fill="#fff"/><path d="M343.344,356.834v6.171H329.458v3.086h13.886v6.171h3.085v-6.171h13.886v-3.086H346.429v-6.171Z" transform="translate(-329.458 -356.834)" fill="#c0003b"/><path d="M354.085,361.976h2.3l10.285-5.143h-2.3Z" transform="translate(-335.814 -356.834)" fill="#c0003b" fill-rule="evenodd"/><path d="M329.458,357.984l7.986,3.993h2.3l-10.285-5.143Z" transform="translate(-329.458 -356.834)" fill="#c0003b"/><path d="M367.472,375.84v-1.15l-7.986-3.994h-2.3Z" transform="translate(-336.614 -360.412)" fill="#c0003b" fill-rule="evenodd"/><path d="M339.743,370.7l-10.285,5.144h2.3l10.286-5.144Z" transform="translate(-329.458 -360.412)" fill="#c0003b"/></g></g></g></svg>