<svg xmlns="http://www.w3.org/2000/svg" xmlns:xlink="http://www.w3.org/1999/xlink" width="36" height="36" viewBox="0 0 36 36"><defs><clipPath id="a"><circle cx="18" cy="18" r="18" transform="translate(1093 265)" fill="#fff" stroke="#707070" stroke-width="1"/></clipPath></defs><g transform="translate(-1093 -265)" clip-path="url(#a)"><g transform="translate(63 -17)"><g transform="translate(0 30.166)"><rect width="16" height="36.49" transform="translate(1040 251.834)" fill="#efd928"/><rect width="16" height="36.49" transform="translate(1024 251.834)" fill="#1f00af"/><rect width="16" height="36.49" transform="translate(1056 251.834)" fill="#d00524"/></g><g transform="translate(-12.291 -37.926)"><path d="M168.355,367.7a.46.46,0,0,0-.274.075.224.224,0,0,1,.161.218v.265h-.265a.225.225,0,0,1-.218-.159.541.541,0,0,0,0,.548.224.224,0,0,1,.218-.16h.265v1.274a.226.226,0,0,1-.15.214c.127.017.236.187.265.279.03-.093.139-.263.265-.279a.226.226,0,0,1-.151-.214v-1.274h.265a.226.226,0,0,1,.218.158.541.541,0,0,0,0-.548.226.226,0,0,1-.218.161h-.265v-.265a.225.225,0,0,1,.159-.218.463.463,0,0,0-.274-.075" transform="translate(890.072 -38.694)"/><path d="M168.382,367.778a.513.513,0,0,0-.157.026.282.282,0,0,1,.1.212v.265l0,.011v.042h-.041l-.008,0H168a.283.283,0,0,1-.211-.1.491.491,0,0,0-.028.157.517.517,0,0,0,.026.157.28.28,0,0,1,.213-.1h.319c0,.006,0,.011,0,.016v.028l0,.011v1.274a.266.266,0,0,1-.1.2.441.441,0,0,1,.1.092.487.487,0,0,1,.054.1.531.531,0,0,1,.055-.1.423.423,0,0,1,.1-.09.27.27,0,0,1-.1-.2v-1.327h.043l.011,0h.265a.281.281,0,0,1,.211.1.506.506,0,0,0,.028-.157.538.538,0,0,0-.026-.157.282.282,0,0,1-.213.1H168.5l-.011,0h-.042v-.318a.279.279,0,0,1,.1-.21.487.487,0,0,0-.156-.028" transform="translate(890.045 -38.721)" fill="#f9f92b"/><path d="M166.833,372.764l-.439-.1-.92-.486-.582-.032-.04-1.126-1.114-.9L162.6,371.35l-.163.361.052,11.162.736-.89.154.038.76-.821.645-1.628.191-.676.87,1.028-.328.607.3-.022.026.255.275-.116.074.351.605-.613.842.414-1.6,2.846-.569.421,1.026.384,1.052-1.226-.152.805-.313.782,1.281.738,1.391-.822-.684-1.435.223-.1.9,1.307.983-.487-1.277-1.494-.84-1.8.887-.294.6.58.091-.377.318.154-.04-.314.321.07-.391-.62.992-.832.628,1.961.924,1.056.2-.023.672.829-.005-11.5-1.241-1.305-1.2.983.05,1.059-.541.019-.807.414-.451.148-.213.042-.276-.3-.371-.742L169.18,371l.229-.477-.042-.451.2,0-.13-.3.18-.072-.271-.239.095-.11-1.022-.439-.78-.052-.21.092-.1.191.206.583-.22.221.218.426.009.936-.175.79-.351.6Z" transform="translate(891.794 -39.075)" fill="#7f6332"/><path d="M166.412,386.244l-.77,1.179-.375-.011-.386.181-.125.42.056.193.42.454.341-.193.272-.3.069-.261.975-1.269-.045-.318-.216.136-.079-.261Z" transform="translate(891.033 -44.769)" fill="#c11b2c"/><path d="M174.566,386.591l1.032,1.4.1.271.453.409.136-.034.5-.578-.114-.4-.465-.283-.351.034-.782-1.168-.136-.056-.056.226-.227-.067Z" transform="translate(887.812 -44.764)" fill="#c11b2c"/><path d="M167.785,368.767a.844.844,0,0,0-.426.077c-.1.067-.093.154-.128.184a.465.465,0,0,1-.294.07c-.445,0-.461.476-.461.476a.409.409,0,0,1,.315-.172c.334,0,.586.182.586.251,0,.028-.034.033-.034.033-.22,0-.549-.126-.724-.132v.069l.007.006-.007,0v.013a1.034,1.034,0,0,1,.786,1.176,2.856,2.856,0,0,1-.33,1.507,1.434,1.434,0,0,1-.392.4,3.845,3.845,0,0,1-.649-.26,2.308,2.308,0,0,0-1.133-.488v-.378c0-.2.073-.384.073-.578-.21-.056-.792-.768-1.329-1.083a3.086,3.086,0,0,0-1.4,1.738s.023,8.3,0,11.2a1.3,1.3,0,0,1-.1.4,3.058,3.058,0,0,0,.929-1.121v.132a2.28,2.28,0,0,0,.9-.991l.009.137a8.536,8.536,0,0,0,.885-2.358l-.026-.424a5.9,5.9,0,0,1-.733,1.985v-7.093l.309.287.468-.437v-.333l-.415.388v-1c.062-.095.1-.165.135-.221a3,3,0,0,0,.54.7c.042-.171.318-.333.318-.333s.1.268.251.335a1.914,1.914,0,0,1,.371-.3.923.923,0,0,0-.383.144c-.094-.021-.119-.395-.119-.395s-.4.195-.47.334c-.076-.02-.195-.32-.241-.444a2.7,2.7,0,0,1,.3-.017,1.084,1.084,0,0,1,.413.126c.168.079.344.179.5.251a1.842,1.842,0,0,0,.593.114,2.581,2.581,0,0,1-.335.2,2.2,2.2,0,0,0,.815-.172,3.038,3.038,0,0,0,.352-.244,1.311,1.311,0,0,1-.231.41,1.1,1.1,0,0,0,.81-.42,1.358,1.358,0,0,0,.183.339,1.33,1.33,0,0,0,.185-.339,1.1,1.1,0,0,0,.81.42,1.308,1.308,0,0,1-.23-.41,3.03,3.03,0,0,0,.351.244,2.2,2.2,0,0,0,.815.172,2.761,2.761,0,0,1-.337-.2,1.865,1.865,0,0,0,.6-.114c.157-.071.333-.171.5-.251a1.088,1.088,0,0,1,.413-.126,2.7,2.7,0,0,1,.3.017c-.046.124-.165.424-.242.444-.069-.14-.469-.334-.469-.334s-.024.373-.119.395a.922.922,0,0,0-.382-.144,1.914,1.914,0,0,1,.371.3c.151-.066.248-.335.248-.335s.278.163.32.333a2.968,2.968,0,0,0,.539-.7c.033.057.077.131.136.221v1l-.415-.388v.333l.468.437.308-.287v7.093a5.894,5.894,0,0,1-.732-1.985l-.026.424a8.536,8.536,0,0,0,.885,2.358l.009-.137a2.282,2.282,0,0,0,.9.991v-.132a3.077,3.077,0,0,0,.928,1.121,1.318,1.318,0,0,1-.1-.4c-.024-2.893,0-11.2,0-11.2a3.085,3.085,0,0,0-1.4-1.738c-.537.316-1.119,1.028-1.329,1.083,0,.194.073.376.073.578v.377a2.322,2.322,0,0,0-1.134.49,3.766,3.766,0,0,1-.65.26,1.4,1.4,0,0,1-.39-.4,2.4,2.4,0,0,1-.324-1.269c0-.192.216-.409.216-.565a2.7,2.7,0,0,0-.022-.377c.077.01.211.146.211.146s0-.391-.129-.459c0,0,.051-.052.231-.057-.051-.128-.3-.285-.3-.285a.164.164,0,0,1,.066-.059.778.778,0,0,1,.22-.07,2.322,2.322,0,0,1-.247-.069,5.661,5.661,0,0,1-.684-.277,2.01,2.01,0,0,0-.914-.214m.009.115.106,0a2.587,2.587,0,0,1,1.085.359c.1.044.194.081.277.109a.335.335,0,0,0-.1.131.394.394,0,0,1,.252.178s-.166.018-.193.115a.243.243,0,0,1,.185.236l-.234-.073a2.919,2.919,0,0,1,.057.548c0,.146-.21.318-.21.565a2.19,2.19,0,0,0,.335,1.314,1.019,1.019,0,0,0,.19.283c-.4-.213-.7-.48-.7-.727v-.938h-.1v.938a.615.615,0,0,0,.044.263,3.55,3.55,0,0,0,.269.629c-.368-.2-.555-.449-.555-.541v-1.288h-.1v1.307l.019.09a.75.75,0,0,1-.142.173.786.786,0,0,1-.141-.173l.021-.09v-1.307h-.1v1.288c0,.093-.187.342-.555.541a3.551,3.551,0,0,0,.269-.629.623.623,0,0,0,.043-.263v-.938h-.1v.938c0,.247-.3.514-.7.727a1.057,1.057,0,0,0,.188-.283,2.627,2.627,0,0,0,.34-1.545,1.613,1.613,0,0,0-.144-.768c-.028-.056-.066-.2.148-.2.11,0,.363.2.363.2a.349.349,0,0,0-.138-.245.15.15,0,0,1-.057-.1.225.225,0,0,1,.1-.132c.03-.013-.435-.094-.435-.306,0-.043.028-.073.124-.073.127,0,.332.151.516.151.135,0,.189-.032.327-.032.169,0,.523.32.643.31-.135-.085-.353-.407-.683-.407-.115,0-.22.026-.326.026-.137,0-.272-.126-.42-.126-.1,0-.21.005-.226-.021-.029-.044,0-.07.024-.107.05-.069.192-.091.331-.095l.122,0m-4.15,1.408v0a6.006,6.006,0,0,0,.981.758l.009.227v.667a1.542,1.542,0,0,1-.513-.511v-.091a.252.252,0,0,1,.087-.183l-.108-.038a.319.319,0,0,0-.085.206v.053l-.034.037-.019.02-.269.289-.316-.48v-.117a.406.406,0,0,1,.111-.227l-.106-.038a.449.449,0,0,0-.109.251v.095l-.364.375s-.145-.312-.185-.4a4.464,4.464,0,0,1,.92-.9m9.249,0a4.476,4.476,0,0,1,.919.9l-.184.4s-.29-.3-.364-.375v-.095a.454.454,0,0,0-.109-.251l-.106.038a.406.406,0,0,1,.112.227v.117l-.316.48-.269-.289-.018-.02-.035-.037v-.053a.313.313,0,0,0-.086-.206l-.107.038a.25.25,0,0,1,.088.183v.091a1.533,1.533,0,0,1-.514.511v-.667l.009-.227a6.017,6.017,0,0,0,.982-.758Zm-10.3,1.1.168.306v.55l-.256.238v-.817a.627.627,0,0,1,.088-.276m11.344,0a.619.619,0,0,1,.088.276v.817l-.256-.238v-.55Zm-10.674.07.295.447v.341l-.295.276Zm10,0v1.064l-.294-.276v-.341Zm-10.106.081v.982l-.295-.275v-.4Zm10.211,0,.294.309v.4l-.294.275Zm-9.309.071a1.516,1.516,0,0,0,.441.5,1.551,1.551,0,0,1-.441.437Zm8.405,0v.934a1.565,1.565,0,0,1-.441-.437,1.49,1.49,0,0,0,.441-.5m-8.509.047v.864l-.294-.275v-.306Zm8.613,0,.295.283v.306l-.295.275Zm-9.81.919v.862l-.256-.24v-.382Zm11.008,0,.256.24v.382l-.256.24Zm-10.9,0,.168.158.126.117v.309l-.126.117-.168.157Zm.693,0v.858l-.168-.157-.127-.119v-.3l.127-.119Zm.106,0,.294.277v.3l-.128.12-.166.156Zm.692,0v.86l-.168-.158-.127-.118v-.287a1.189,1.189,0,0,0,.295-.3m7.816,0a1.21,1.21,0,0,0,.294.3v.287l-.126.118-.169.158Zm.693,0v.858l-.167-.156-.128-.12v-.3Zm.106,0,.168.158.126.119v.3l-.126.119-.168.157Zm.692,0v.858l-.169-.157-.126-.117v-.309l.126-.117Zm-10.364.95.311.29.311-.289v7.094s.022.351.036.581l-.658.666Zm9.929,0v8.342l-.658-.666c.015-.23.037-.581.037-.581v-7.094l.311.289Zm-10.106,0v8.076a1.746,1.746,0,0,1-.618.881v-8.955l.307.287Zm10.284,0,.31.289.308-.287v8.955a1.746,1.746,0,0,1-.618-.881Zm-7.723,6.344a4.837,4.837,0,0,1-.416.715,1.393,1.393,0,0,0,.167.009c-.054.078-.469.676-.6.9-.122.21-.208.117-.4.117a1.1,1.1,0,0,0-.565.347.726.726,0,0,0-.106.339.6.6,0,0,0,.123.274.141.141,0,0,1,.036-.075s.322.4.369.453a.256.256,0,0,0,.26.015,2.144,2.144,0,0,0,.414-.415c.067-.1.072-.21.148-.316.256-.353.764-1.028.881-1.183.008.043.015.079.021.122a4.111,4.111,0,0,1,.766-.774l-.175-.116a5.457,5.457,0,0,1-.506.528s-.054-.221-.085-.3a.611.611,0,0,1-.226.113s-.024-.15-.042-.249a.5.5,0,0,1-.268.053c.146-.071.321-.5.321-.5Zm5.161,0-.124.062s.174.427.322.5a.506.506,0,0,1-.269-.053c-.019.1-.042.249-.042.249a.622.622,0,0,1-.227-.113c-.031.079-.084.3-.084.3a5.459,5.459,0,0,1-.506-.528l-.175.116a4.093,4.093,0,0,1,.766.774c.008-.044.015-.079.022-.122.116.155.625.83.881,1.183.077.106.081.218.148.316a2.146,2.146,0,0,0,.415.415.257.257,0,0,0,.26-.015c.047-.052.368-.453.368-.453a.138.138,0,0,1,.037.075.6.6,0,0,0,.123-.274.734.734,0,0,0-.106-.339,1.1,1.1,0,0,0-.565-.347c-.187,0-.273.093-.395-.117-.131-.226-.545-.823-.6-.9a1.362,1.362,0,0,0,.166-.009,4.867,4.867,0,0,1-.414-.715m-5.2.683a.548.548,0,0,0,.062.278l.226-.155s.015.075.034.178c-.1.132-.654.893-.93,1.264a1.276,1.276,0,0,0-.126.328s-.1-.048-.1-.134.01-.185.01-.185a.285.285,0,0,1-.2.086c0-.1.2-.216.208-.364-.152.114-.285.056-.462.11-.193.059-.246.14-.306.137-.035,0-.066-.062-.053-.1a.829.829,0,0,1,.428-.273c.04-.007.354.068.416-.029l.725-1.118a.2.2,0,0,0,.071-.026m5.246,0a.2.2,0,0,0,.071.026c.042.063.464.716.724,1.118.064.1.377.022.417.029a.827.827,0,0,1,.428.273c.013.036-.018.1-.053.1-.059,0-.113-.078-.3-.137s-.31,0-.463-.11c.009.148.209.261.209.364a.288.288,0,0,1-.2-.086s.011.1.011.185-.1.134-.1.134a1.277,1.277,0,0,0-.126-.328c-.276-.371-.834-1.132-.931-1.264.02-.1.035-.178.035-.178l.227.155a.548.548,0,0,0,.062-.278m-3.434.15s-1.239,2.847-2.338,3.286c0,0,.478.2,1.066.508.086.045.174.093.263.141.075-.089.152-.188.229-.291.351-.469.694-1.015.694-1.015a2.875,2.875,0,0,1-.476,1.117c-.061.106-.126.216-.2.329.081.046.159.091.238.139a3.893,3.893,0,0,1,1.331,1.122,3.9,3.9,0,0,1,1.331-1.122c.079-.048.158-.093.237-.139-.071-.113-.136-.223-.2-.329a2.9,2.9,0,0,1-.475-1.117s.343.545.7,1.015c.077.1.154.2.228.291l.264-.141c.588-.3,1.066-.508,1.066-.508-1.1-.439-2.339-3.286-2.339-3.286l-.182.053a10.275,10.275,0,0,0,1.955,3.205,7.3,7.3,0,0,0-.742.274,10.36,10.36,0,0,1-.927-1.34,6.933,6.933,0,0,1-.532-1.347,5.963,5.963,0,0,0,.736,3.031,4.553,4.553,0,0,0-1.117.747,4.541,4.541,0,0,0-1.117-.747,5.973,5.973,0,0,0,.737-3.031,6.934,6.934,0,0,1-.532,1.347,10.425,10.425,0,0,1-.927,1.34,7.362,7.362,0,0,0-.742-.274,10.289,10.289,0,0,0,1.955-3.205Zm-3.236,1.367a.036.036,0,0,1,.024.013.033.033,0,0,1,0,.047l-.1.089a.035.035,0,0,1-.048-.005.034.034,0,0,1,0-.047l.1-.09a.028.028,0,0,1,.024-.007m8.094,0a.031.031,0,0,1,.024.007l.1.09a.032.032,0,0,1,0,.047.034.034,0,0,1-.047.005l-.1-.089a.037.037,0,0,1,.022-.06m-7.986.089a.088.088,0,0,1,.071.032.08.08,0,0,1,0,.113l-.249.217a.083.083,0,0,1-.116-.013.081.081,0,0,1,0-.115l.249-.216a.079.079,0,0,1,.044-.018m7.858,0h.021a.086.086,0,0,1,.044.018l.249.216a.081.081,0,0,1,0,.115.083.083,0,0,1-.116.013l-.249-.217a.08.08,0,0,1,0-.113.091.091,0,0,1,.051-.032m-7.717.169a.091.091,0,0,1,.073.031.08.08,0,0,1,0,.114l-.251.218a.079.079,0,0,1-.113-.013.081.081,0,0,1,0-.114l.249-.216a.077.077,0,0,1,.042-.018m7.576,0a.07.07,0,0,1,.021,0,.075.075,0,0,1,.042.018l.249.216a.085.085,0,0,1-.11.128l-.251-.218a.08.08,0,0,1,0-.114.091.091,0,0,1,.052-.031m-7.417.165a.085.085,0,0,1,.072.029.083.083,0,0,1,0,.116l-.249.216a.081.081,0,0,1-.114-.013.08.08,0,0,1,0-.114l.251-.218a.073.073,0,0,1,.042-.016m7.259,0a.067.067,0,0,1,.02,0,.077.077,0,0,1,.042.016l.251.218a.085.085,0,0,1-.111.126l-.249-.216a.082.082,0,0,1,0-.116.084.084,0,0,1,.051-.029" transform="translate(891.892 -39.045)"/><path d="M166.147,389.412l.578.316-.14.644-.578-.316Z" transform="translate(890.622 -45.824)"/><path d="M162.1,380.218l-.208.095,2.355,5.158h.25Zm2.777,6.083-.17.175.106.234.207-.1Z" transform="translate(891.972 -42.805)"/><path d="M166.3,389.683l.359.2-.087.4-.359-.2Z" transform="translate(890.556 -45.913)" fill="#f9f92b"/><path d="M163.295,386.272s.2.41.35.466a1,1,0,0,0-.332.071,1.79,1.79,0,0,0,.825.425.622.622,0,0,0,.477-.138l-.064-.341a1.283,1.283,0,0,0-.511-.347,3.36,3.36,0,0,0-.745-.137" transform="translate(891.513 -44.793)"/><path d="M165.339,385.179a1.248,1.248,0,0,0-.349.506,1.043,1.043,0,0,0,.049.58l.23.43a1.254,1.254,0,0,0,.455-.424,1.117,1.117,0,0,0,.086-.6,1.423,1.423,0,0,0-.285.136,1.042,1.042,0,0,0-.186-.631" transform="translate(890.964 -44.434)"/><path d="M163.654,384.665a1.883,1.883,0,0,1-.615.087.938.938,0,0,1-.527-.26s.238-.161.357-.14c-.13-.047-.318-.372-.318-.372a.892.892,0,0,1,.5.009,1.267,1.267,0,0,1,.444.349Z" transform="translate(891.77 -44.029)"/><path d="M164.155,382.752s.155.322.119.434a1.074,1.074,0,0,1,.231-.191,2.05,2.05,0,0,1,0,.845.777.777,0,0,1-.427.445l-.356-.69a.763.763,0,0,1,.058-.459,1.43,1.43,0,0,1,.37-.384" transform="translate(891.375 -43.637)"/><path d="M161.328,381.478a1.491,1.491,0,0,1,.645.092.622.622,0,0,1,.336.3l.127.34a1.1,1.1,0,0,1-.656.032,1.209,1.209,0,0,1-.5-.453.631.631,0,0,1,.279-.048c-.113-.05-.23-.265-.23-.265" transform="translate(892.175 -43.217)"/><path d="M162.825,380.54a.787.787,0,0,1,.152.408.7.7,0,0,1,.224-.244,1.945,1.945,0,0,1,.148.785.825.825,0,0,1-.314.519l-.34-.646a1.057,1.057,0,0,1-.079-.471.655.655,0,0,1,.21-.351" transform="translate(891.738 -42.911)"/><path d="M161.072,378.7a1.091,1.091,0,0,0,.042.554.619.619,0,0,0,.152.22,1.006,1.006,0,0,0-.444-.126,1.171,1.171,0,0,0,.322.557.908.908,0,0,0,.578.134,1.135,1.135,0,0,0,.215-.637,1.526,1.526,0,0,0-.279-.686,1.248,1.248,0,0,0-.113.376c-.068-.166-.474-.392-.474-.392" transform="translate(892.325 -42.307)"/><path d="M161.348,379.019a.915.915,0,0,0,.076.4.538.538,0,0,0,.275.2.915.915,0,0,0-.076-.4.535.535,0,0,0-.275-.2" transform="translate(892.152 -42.411)" fill="#285f37"/><path d="M161.083,379.885a.77.77,0,0,1,.352.112.621.621,0,0,1,.179.3.422.422,0,0,1-.277-.084,1.268,1.268,0,0,1-.255-.333" transform="translate(892.239 -42.696)" fill="#285f37"/><path d="M162.094,379.112a.9.9,0,0,0-.066.354,1.142,1.142,0,0,0,.116.39,1.092,1.092,0,0,0,.089-.4.673.673,0,0,0-.138-.341" transform="translate(891.929 -42.442)" fill="#285f37"/><path d="M161.566,381.577a.85.85,0,0,0,.279.237,1.165,1.165,0,0,0,.42.086.985.985,0,0,0-.294-.247,1.013,1.013,0,0,0-.405-.077" transform="translate(892.081 -43.251)" fill="#285f37"/><path d="M161.648,382.107a.553.553,0,0,0,.228.226,1.375,1.375,0,0,0,.449.062.843.843,0,0,0-.263-.216,1.356,1.356,0,0,0-.414-.072" transform="translate(892.054 -43.425)" fill="#285f37"/><path d="M162.872,380.853a.612.612,0,0,0-.081.31.886.886,0,0,0,.116.34,1.117,1.117,0,0,0,.066-.366.569.569,0,0,0-.1-.283" transform="translate(891.678 -43.014)" fill="#285f37"/><path d="M163.313,381.163a1,1,0,0,0-.175.415.9.9,0,0,0,.087.426.776.776,0,0,0,.207-.395.871.871,0,0,0-.119-.447" transform="translate(891.565 -43.115)" fill="#285f37"/><path d="M162.774,384.053a.449.449,0,0,0,.082.155,1.218,1.218,0,0,0,.173.167.5.5,0,0,1,.236-.006,1.134,1.134,0,0,1,.306.145,1.468,1.468,0,0,0-.382-.389.7.7,0,0,0-.414-.072" transform="translate(891.684 -44.062)" fill="#285f37"/><path d="M162.745,384.731a1.009,1.009,0,0,1,.443-.077.849.849,0,0,1,.38.184,1.255,1.255,0,0,1-.47.067.711.711,0,0,1-.353-.175" transform="translate(891.693 -44.26)" fill="#285f37"/><path d="M164.159,383.093a.933.933,0,0,0-.233.425.563.563,0,0,0,.175.381.563.563,0,0,1,.023-.21.84.84,0,0,1,.1-.173.515.515,0,0,0,.019-.183.829.829,0,0,0-.087-.24" transform="translate(891.306 -43.749)" fill="#285f37"/><path d="M164.6,383.484a1.1,1.1,0,0,0-.255.424.838.838,0,0,0,.042.453.744.744,0,0,0,.237-.364,1.254,1.254,0,0,0-.024-.512" transform="translate(891.174 -43.877)" fill="#285f37"/><path d="M165.364,385.451a1.466,1.466,0,0,1,.114.351.492.492,0,0,1,0,.216,1.912,1.912,0,0,0-.137.147.443.443,0,0,0-.063.2.911.911,0,0,1-.161-.489.953.953,0,0,1,.244-.424" transform="translate(890.915 -44.523)" fill="#285f37"/><path d="M165.886,386.109a1.3,1.3,0,0,0-.34.326.456.456,0,0,0-.046.334.375.375,0,0,0,.27-.18,1.367,1.367,0,0,0,.116-.48" transform="translate(890.793 -44.739)" fill="#285f37"/><path d="M163.7,387.121a2.691,2.691,0,0,1,.566.043.5.5,0,0,1,.292.167.8.8,0,0,1-.455.06.947.947,0,0,1-.4-.271" transform="translate(891.38 -45.071)" fill="#285f37"/><path d="M163.611,386.5a1.011,1.011,0,0,0,.363.334.306.306,0,1,0,.187-.25,1.58,1.58,0,0,0-.55-.084" transform="translate(891.409 -44.868)" fill="#285f37"/><path d="M165.288,387.427l.009.126c.21,0,.241-.018.295.048a.177.177,0,0,0,.207.043.172.172,0,0,0,.085-.228.163.163,0,0,0-.2-.089c-.047.009-.078.047-.118.067a.845.845,0,0,1-.282.033" transform="translate(890.858 -45.138)"/><path d="M165.982,387.484h0a.093.093,0,0,1-.17.077h0a.093.093,0,0,1,.046-.123.092.092,0,0,1,.124.046" transform="translate(890.689 -45.173)" fill="#f9f92b"/><path d="M165.089,387.334l.1.075c-.109.18-.144.195-.116.275a.176.176,0,0,1-.073.2.171.171,0,0,1-.238-.048.162.162,0,0,1,.028-.212c.032-.036.081-.042.119-.064a.849.849,0,0,0,.177-.223" transform="translate(891.04 -45.142)"/><path d="M164.868,387.943h0a.093.093,0,0,0,.155-.1h0a.092.092,0,0,0-.128-.026.094.094,0,0,0-.026.129" transform="translate(891.002 -45.294)" fill="#f9f92b"/><path d="M164.2,385.05l.009.126c.21,0,.24-.019.294.048a.179.179,0,0,0,.208.043.173.173,0,0,0,.085-.228.162.162,0,0,0-.2-.089c-.048.009-.079.046-.118.067a.846.846,0,0,1-.282.033" transform="translate(891.215 -44.357)"/><path d="M164.9,385.107h0a.093.093,0,1,1-.169.077.093.093,0,0,1,.169-.077" transform="translate(891.045 -44.393)" fill="#f9f92b"/><path d="M164.064,385.168l.089.09c-.136.159-.173.17-.158.254a.177.177,0,0,1-.1.184.172.172,0,0,1-.228-.085.162.162,0,0,1,.06-.206.447.447,0,0,1,.129-.046.87.87,0,0,0,.21-.192" transform="translate(891.396 -44.43)"/><path d="M163.775,385.715h0a.092.092,0,0,0,.124.046.093.093,0,0,0,.046-.123h0a.093.093,0,0,0-.124-.046.094.094,0,0,0-.046.123Z" transform="translate(891.358 -44.567)" fill="#f9f92b"/><path d="M163.151,382.825l.009.126c.21,0,.241-.019.295.048a.178.178,0,0,0,.207.043.173.173,0,0,0,.085-.228.164.164,0,0,0-.2-.089c-.048.009-.079.047-.118.068a.842.842,0,0,1-.282.032" transform="translate(891.56 -43.627)"/><path d="M163.846,382.882h0a.093.093,0,1,1-.169.077h0a.093.093,0,0,1,.169-.077Z" transform="translate(891.39 -43.662)" fill="#f9f92b"/><path d="M163.035,382.836l.089.091c-.136.16-.172.169-.158.253a.176.176,0,0,1-.1.185.172.172,0,0,1-.228-.085.163.163,0,0,1,.06-.206.471.471,0,0,1,.128-.045.842.842,0,0,0,.21-.193" transform="translate(891.734 -43.665)"/><path d="M162.746,383.384h0a.093.093,0,0,0,.169-.077h0a.092.092,0,0,0-.123-.047.094.094,0,0,0-.046.124Z" transform="translate(891.696 -43.801)" fill="#f9f92b"/><path d="M162.03,380.476l.01.126c.21,0,.24-.019.294.048a.179.179,0,0,0,.208.043.173.173,0,0,0,.085-.228.163.163,0,0,0-.2-.089c-.048.009-.079.047-.118.067a.851.851,0,0,1-.283.033" transform="translate(891.928 -42.855)"/><path d="M162.726,380.532h0a.093.093,0,1,1-.17.077.093.093,0,0,1,.17-.077" transform="translate(891.758 -42.89)" fill="#f9f92b"/><path d="M161.915,380.487l.089.09c-.136.16-.172.17-.158.254a.176.176,0,0,1-.1.184.172.172,0,0,1-.228-.085.164.164,0,0,1,.06-.206.52.52,0,0,1,.128-.045.844.844,0,0,0,.21-.192" transform="translate(892.102 -42.893)"/><path d="M161.626,381.034h0a.093.093,0,0,0,.124.046.093.093,0,0,0-.078-.169.094.094,0,0,0-.046.124" transform="translate(892.064 -43.03)" fill="#f9f92b"/><path d="M163.768,384.071c-.075.032-.186-.3-.268-.476s-.255-.467-.207-.49.124.124.209.312.336.623.266.653" transform="translate(891.516 -43.752)" fill="#f9f92b"/><path d="M162.673,381.633c-.076.031-.158-.183-.239-.363s-.167-.314-.118-.337.132.137.2.288.226.382.156.411" transform="translate(891.839 -43.039)" fill="#f9f92b"/><path d="M165.1,386.9a4.018,4.018,0,0,1-.525-.98,2.545,2.545,0,0,1-.315-.848,3.534,3.534,0,0,1,.431.863,5.557,5.557,0,0,1,.41.965" transform="translate(891.199 -44.4)" fill="#f9f92b"/><path d="M166.192,380.1l.011,2.778.2.329,1.293.714,1.656.76.216.226,1.429-.782,1.678-.793.318-.488v-2.732Z" transform="translate(890.562 -42.768)" fill="#2e59a0"/><path d="M166.074,375.125l.086.251-.019,3.19.118.132.982.117,1.062-.155,1.042.161.013.064.2-.031.2.031.013-.064,1.042-.161,1.062.155.981-.117.119-.132-.02-3.19.087-.251-1.176.009-2.309.024-2.311-.024Z" transform="translate(890.6 -41.133)" fill="#c11b2c"/><path d="M166.581,380.176l.529-.209.369-.288.257.272.512.209-.416.24-.369.321-.32-.24Z" transform="translate(890.434 -42.628)" fill="#f9f92b"/><path d="M174.236,379.7l-.24.257-.514.208.482.3.3.273.337-.273.545-.273-.561-.224Z" transform="translate(888.168 -42.636)" fill="#f9f92b"/><path d="M170.838,375.787l-.161.481-.465-.224.209.465-.449.177.449.16-.192.465.433-.224.177.481.177-.481.433.192-.193-.433.449-.16-.433-.192.192-.466-.449.224Z" transform="translate(889.321 -41.35)" fill="#f9f92b"/><path d="M171.391,375.651l.144.514.225.657.032.626-.257.449-.465.193-.256.08-.3-.16-.337.208-.369-.224-.3.209-.193-.129-.337-.048-.385-.4-.081-.723.465-1.283-.578.466-.5.672v.883l.353.594.641.417.177.048-.3.561.529.161.273.273.144.545-.032,1.171-.161.273-.353.24-.017.225.385.24.336.273.5.015.433-.3.369-.209-.1-.32-.384-.3-.081-.93.112-.93.562-.353.289-.1-.3-.577.465-.161.513-.449.24-.9-.144-.545-.353-.449Z" transform="translate(890.003 -41.295)" fill="#f9f92b"/><path d="M169.731,381.648l.224.224-.209.209-.216-.217Z" transform="translate(889.466 -43.275)" fill="#f9f92b"/><path d="M172.6,381.612l-.224.233.2.216.24-.209Z" transform="translate(888.532 -43.263)" fill="#f9f92b"/><path d="M172.693,382.5l-.4.1-.1.232-.008.641.169.361.224.1-.032-.842Z" transform="translate(888.595 -43.553)" fill="#f9f92b"/><path d="M169.59,382.507l.144.713v.69l.2-.145.136-.313.024-.544-.1-.33Z" transform="translate(889.446 -43.557)" fill="#f9f92b"/><path d="M174.5,383.246l-.465-.224-.449.1-.233.273-.024.441.328.385.08.024-.008-.417.353-.48Z" transform="translate(888.219 -43.726)" fill="#f9f92b"/><path d="M168.005,382.964l-.048-.193-.248-.144-.209.081-.1.216.056.193-.217-.024-.176.168-.024.224.12.144.169.056.1-.008-.08.2.064.2.2.112.224-.056.121-.225.192.129.233-.049.152-.232-.1-.217-.112-.087.16-.089.064-.265-.216-.249-.209.032Z" transform="translate(890.285 -43.596)" fill="#f9f92b"/><path d="M168.479,375.391c-.034.236-1.216.723-1.216,1.708a1.611,1.611,0,0,0,1.179,1.558l-.049.089-.287.523a1.484,1.484,0,0,1,.747.246c.312.265.281.83.281,1.239a1.143,1.143,0,0,1-.206.805c-.223.189-.374.2-.374.424,0,.185.142.222.374.343.295.156.281.366.721.366s.428-.21.724-.366c.231-.122.373-.159.373-.343,0-.222-.15-.236-.373-.424a1.14,1.14,0,0,1-.206-.805c0-.409-.031-.973.281-1.239a1.481,1.481,0,0,1,.746-.246l-.287-.523-.048-.089a1.611,1.611,0,0,0,1.178-1.558c0-.985-1.182-1.472-1.216-1.708-.116.407.395.968.395,1.633,0,.86-.634.9-.634.9-.149,0-.209.106-.267.106-.125-.013-.183-.172-.308-.172s-.2.179-.358.179-.24-.179-.357-.179-.182.159-.307.172c-.058,0-.118-.106-.267-.106,0,0-.634-.041-.634-.9,0-.665.51-1.226.395-1.633m2.428,3.355a3.337,3.337,0,0,1,1,.647,6.305,6.305,0,0,1,1.043-.609,2.8,2.8,0,0,1-1.043-.576,2.158,2.158,0,0,1-1,.537m-2.514,0a2.154,2.154,0,0,1-1-.537,2.8,2.8,0,0,1-1.044.576,6.326,6.326,0,0,1,1.044.609,3.328,3.328,0,0,1,1-.647m1.256-3.267-.2.582-.558-.265.265.558-.581.206.581.208-.265.555.558-.265.2.582.207-.582.557.265-.265-.555.582-.208-.582-.206.265-.558-.557.265Zm-1.342.269c.048.1-.395.749-.395,1.276,0,.648.345,1.03.806,1.03.088,0,.185.119.267.119.135,0,.225-.15.307-.15.1,0,.175.165.357.165s.254-.165.358-.165c.083,0,.173.15.308.15.083,0,.179-.119.267-.119.46,0,.806-.382.806-1.03,0-.527-.443-1.171-.395-1.276,0,0,.864.62.864,1.351a1.573,1.573,0,0,1-1.194,1.468l.269.605a1.455,1.455,0,0,0-.6.237c-.3.243-.3.9-.3,1.343,0,.524.019.746.208.887s.35.182.35.335c0,.133-.156.187-.357.276-.228.1-.252.275-.583.275s-.352-.175-.581-.275c-.2-.089-.357-.143-.357-.276,0-.153.149-.185.349-.335s.208-.363.208-.887c0-.443,0-1.1-.3-1.343a1.457,1.457,0,0,0-.6-.237l.269-.605a1.573,1.573,0,0,1-1.194-1.468c0-.731.864-1.351.864-1.351m1.344.123.131.371.355-.17-.168.357.369.131-.369.132.168.355-.355-.168-.133.369-.132-.369-.354.168.168-.355-.369-.132.369-.131-.168-.357.354.17Zm-2.269,2.517a1.443,1.443,0,0,0,.622.38,2.516,2.516,0,0,0-.611.453v.015l-.007-.005-.012.014v-.026a3.965,3.965,0,0,0-.677-.424,2.072,2.072,0,0,0,.686-.408m4.536,0a2.066,2.066,0,0,0,.686.408,3.97,3.97,0,0,0-.676.424v.026l-.013-.014-.007.005v-.015a2.528,2.528,0,0,0-.611-.453,1.439,1.439,0,0,0,.621-.38m-3.227,1.133-.283.283.283.283.283-.283Zm1.918,0-.283.283.283.283.284-.283Zm-1.918.136.148.148-.148.15-.15-.15Zm1.918,0,.15.148-.15.15-.148-.15Zm-2.179.431a3.192,3.192,0,0,1,.19,1.088,3.341,3.341,0,0,1-.035.547.723.723,0,0,0,.479-.523c.038-.19.079-.89-.114-1.009Zm2.441,0-.521.1c-.193.119-.15.819-.113,1.009a.723.723,0,0,0,.479.523,3.341,3.341,0,0,1-.035-.547,3.187,3.187,0,0,1,.191-1.088m-3.412.113a.287.287,0,0,0-.067.009.335.335,0,0,0-.243.407.048.048,0,1,1-.052.06h-.034a.338.338,0,0,0-.324.313.335.335,0,0,0,.313.356.294.294,0,0,0,.081,0,.343.343,0,0,0-.04.072.336.336,0,1,0,.644.172.316.316,0,0,0,.056.06.335.335,0,1,0,.431-.514.343.343,0,0,0-.069-.044.324.324,0,0,0,.075-.034.339.339,0,0,0,.106-.465.336.336,0,0,0-.462-.1.322.322,0,0,0-.064.051.317.317,0,0,0-.009-.083.335.335,0,0,0-.34-.254m1.154.044.279.058a1.287,1.287,0,0,1,.086.694.5.5,0,0,1-.243.448,4.469,4.469,0,0,0-.122-1.2m2.075,0a4.487,4.487,0,0,0-.123,1.2.5.5,0,0,1-.242-.448,1.293,1.293,0,0,1,.086-.694Zm-3.208.1a.26.26,0,0,1,.263.2.254.254,0,0,1,.005.087.279.279,0,0,1-.016.066.378.378,0,0,0-.414.106.285.285,0,0,1-.047-.055.249.249,0,0,1-.035-.077.262.262,0,0,1,.19-.316.239.239,0,0,1,.053-.007m4.178.107a.67.67,0,0,0-.7.737.855.855,0,0,0,.658.712.77.77,0,0,1-.109-.316.669.669,0,0,1,.7-.735.882.882,0,0,1,.2.024.888.888,0,0,0-.746-.42m-3.655.093a.258.258,0,0,1,.212.123.261.261,0,0,1-.083.36.275.275,0,0,1-.08.033.266.266,0,0,1-.069,0v-.011a.383.383,0,0,0-.227-.349.242.242,0,0,1,.037-.064.229.229,0,0,1,.062-.054.266.266,0,0,1,.148-.041m3.655.059a.717.717,0,0,1,.375.109.819.819,0,0,0-.676.883.654.654,0,0,1-.249-.424.511.511,0,0,1,.55-.568m-4.5.156a.264.264,0,0,1,.085.022.3.3,0,0,1,.058.036.383.383,0,0,0-.081.236.379.379,0,0,0,.051.19.221.221,0,0,1-.071.031.259.259,0,0,1-.079.008.262.262,0,1,1,.036-.522m.443.039a.253.253,0,1,1-.252.254.253.253,0,0,1,.252-.254m.379.29a.252.252,0,0,1,.073.019.257.257,0,0,1,.073.04.262.262,0,0,1-.337.4.238.238,0,0,1-.054-.067.219.219,0,0,1-.026-.062.382.382,0,0,0,.272-.329m-.695.175a.379.379,0,0,0,.316.169.4.4,0,0,0,.081-.009.263.263,0,0,1,.007.073.282.282,0,0,1-.016.081.262.262,0,0,1-.487-.2.266.266,0,0,1,.044-.071.23.23,0,0,1,.055-.046m1.912.622c-.234,0-.384.05-.384.121s.15.119.384.119a.123.123,0,0,0,.134-.119.124.124,0,0,0-.134-.121m.905,0a.124.124,0,0,0-.134.121.122.122,0,0,0,.134.119c.234,0,.384-.048.384-.119s-.149-.121-.384-.121" transform="translate(890.51 -41.22)"/><path d="M165.62,374.992s.311.233.311.47V381.1a.512.512,0,0,0,.119.34,1.6,1.6,0,0,0,.389.347,17.263,17.263,0,0,0,1.96.95,2.248,2.248,0,0,1,1.012.673,2.253,2.253,0,0,1,1.013-.673,17.373,17.373,0,0,0,1.96-.95,1.6,1.6,0,0,0,.39-.347.514.514,0,0,0,.116-.34v-5.642c0-.237.311-.47.311-.47h-7.58Zm.4.179H172.8a.479.479,0,0,0-.092.291V381.1c0,.124-.128.411-.864.778a12.133,12.133,0,0,0-2.435,1.237,12.153,12.153,0,0,0-2.435-1.237c-.737-.367-.864-.655-.864-.778v-5.642a.479.479,0,0,0-.092-.291" transform="translate(890.749 -41.089)" fill="#f9f92b"/><path d="M170.753,369.761a.273.273,0,1,1-.263-.2.239.239,0,0,1,.263.2" transform="translate(889.237 -39.306)"/><path d="M168.737,369.6a.346.346,0,0,1,.3-.164c.091,0,.392-.006.392-.006.04.1.224.279.224.46a.788.788,0,0,0-.7-.334.512.512,0,0,0-.216.044" transform="translate(889.726 -39.264)" fill="#c11b2c"/><path d="M169.67,369.694s-.128-.041-.128-.084.062-.054.1-.012a.2.2,0,0,1,.029.1" transform="translate(889.462 -39.308)"/><path d="M169.781,370.186a.872.872,0,0,0-.135.179,1.33,1.33,0,0,1-.3-.238.73.73,0,0,0,.435.06" transform="translate(889.526 -39.491)" fill="#c11b2c"/><path d="M180.1,378.885l-.406.3.046.1a.211.211,0,0,0-.108.091.2.2,0,0,0,.022.16,1.723,1.723,0,0,0-.446.005c-.055.035.023.3-.013.528-.05.314-.174.288-.179.349a.367.367,0,0,0,.048.152s-.073.023-.088.053c-.025.049.017.138-.013.2l-.579,1.137c-.023.045-.085.062-.116.123a.224.224,0,0,0-.005.137.19.19,0,0,0-.146.08.317.317,0,0,0-.017.185.147.147,0,0,0-.1.075c-.036.071.026.108.009.139l-.638,1.253c-.058.114-.262.136-.38.369a.343.343,0,0,0,.049.392s-.171.015-.216.1a.236.236,0,0,0,.417.212c.045-.089-.046-.236-.046-.236a.346.346,0,0,0,.345-.192c.118-.232.019-.409.077-.523l.639-1.253c.015-.031.081,0,.117-.075a.142.142,0,0,0,0-.126.318.318,0,0,0,.14-.122.192.192,0,0,0-.02-.166.223.223,0,0,0,.108-.085c.031-.06.008-.12.031-.165l.58-1.138c.03-.059.127-.079.152-.127.015-.03-.009-.1-.009-.1a.356.356,0,0,0,.152-.05c.046-.04-.048-.125.177-.351.161-.162.422-.257.418-.322a1.735,1.735,0,0,0-.258-.363s.107-.009.141-.075a.214.214,0,0,0,.011-.142l.106-.018Zm-3.816,7.241a.125.125,0,0,0-.1.057.127.127,0,0,0,0,.112s-.128-.04-.171-.018a3.117,3.117,0,0,0,0,.623,3.177,3.177,0,0,0,.5-.368c-.009-.048-.116-.129-.116-.129a.122.122,0,0,0,.089-.064c.017-.032.019-.127-.1-.186a.213.213,0,0,0-.114-.026" transform="translate(887.341 -42.367)"/><path d="M180.062,379.1l-.238.169.12.062.122.06Zm-.23.28a.119.119,0,0,0-.1.064.14.14,0,1,0,.179-.047.152.152,0,0,0-.079-.017m-.448.279a.26.26,0,0,0-.067.005,2.917,2.917,0,0,0,0,.419.484.484,0,0,1-.093.283.472.472,0,0,1-.13.121l.085.084s.054-.085.14-.254a3.57,3.57,0,0,0,.129-.58,2.276,2.276,0,0,1,.237-.07s-.195-.011-.3-.009m.369.05a1.1,1.1,0,0,0-.254.073,2.765,2.765,0,0,1-.136.564,2.817,2.817,0,0,1-.146.263l.06.03.06.03a2.85,2.85,0,0,1,.126-.271c.118-.232.371-.4.377-.442a1.111,1.111,0,0,0-.088-.246m.071.029a2.266,2.266,0,0,1,.082.234c0,.036-.291.245-.393.444-.086.169-.122.264-.122.264l.117.018a.453.453,0,0,1,.02-.175.5.5,0,0,1,.176-.242c.144-.115.341-.215.34-.245a2.983,2.983,0,0,0-.22-.3m-.662.958a.1.1,0,0,0-.079.056,2.212,2.212,0,0,1-.187.448c-.078.152-.109.213-.192.377l-.208.408a.083.083,0,0,0,.036.117.079.079,0,0,0,.113-.04s.124-.241.209-.408.115-.226.192-.378a2.26,2.26,0,0,1,.253-.414.106.106,0,0,0-.06-.149.13.13,0,0,0-.077-.017m-.759,1.443a.076.076,0,0,0-.064.037c-.021.042.016.105.084.14s.143.029.165-.015-.017-.105-.086-.14a.185.185,0,0,0-.1-.022m-.1.21a.113.113,0,0,0-.11.05c-.028.055.015.135.1.177s.173.032.2-.024-.015-.135-.1-.177a.242.242,0,0,0-.091-.026m-.139.262a.076.076,0,0,0-.064.037c-.021.042.015.105.084.141s.143.028.165-.015-.015-.105-.084-.141a.2.2,0,0,0-.1-.022m-.06.225a.092.092,0,0,0-.064.049l-.6,1.183c-.05.1-.261.159-.344.321a.248.248,0,1,0,.435.224c.083-.163.009-.369.059-.468l.6-1.183a.081.081,0,0,0-.035-.116.084.084,0,0,0-.051-.009m-1.073,2.015a.131.131,0,0,0-.116.066.153.153,0,0,0,.086.194.155.155,0,0,0,.209-.044.153.153,0,0,0-.088-.194.191.191,0,0,0-.091-.022m-.707,1.4a.059.059,0,0,0-.055.026c-.017.034.018.086.079.117s.124.028.141-.005-.019-.086-.079-.118a.174.174,0,0,0-.085-.019m-.209.164v.432l.351-.252a.386.386,0,0,0-.351-.18" transform="translate(887.304 -42.439)" fill="#f9f92b"/><path d="M170.711,369.77a.183.183,0,1,1-.182-.183.183.183,0,0,1,.182.183" transform="translate(889.198 -39.315)" fill="#f9f92b"/><path d="M170.66,369.818a.084.084,0,1,1-.083-.084.084.084,0,0,1,.083.084" transform="translate(889.149 -39.363)"/></g></g></g></svg>