<svg xmlns="http://www.w3.org/2000/svg" xmlns:xlink="http://www.w3.org/1999/xlink" width="36" height="36" viewBox="0 0 36 36"><defs><clipPath id="a"><circle cx="18" cy="18" r="18" transform="translate(1714 724)" fill="#fff" stroke="#707070" stroke-width="1"/></clipPath><clipPath id="b"><rect width="61.715" height="36" fill="none"/></clipPath><clipPath id="c"><rect width="22.819" height="5.804" fill="none"/></clipPath><clipPath id="d"><rect width="17.434" height="4.278" fill="none"/></clipPath></defs><g transform="translate(-1714 -724)" clip-path="url(#a)"><g transform="translate(1572.127 209.581)"><g transform="translate(129.872 514.419)"><g clip-path="url(#b)"><rect width="61.716" height="36" fill="#f0e030"/><path d="M129.872,526.289l61.716,15v-8.5l-61.716-15Z" transform="translate(-129.872 -515.289)" fill="#fff"/><path d="M129.872,536.746l61.716,15v-7.5l-61.716-15Z" transform="translate(-129.872 -518.246)"/><rect width="0.648" height="1.729" transform="translate(30.501 14.993)" fill="#bd0030"/><path d="M171.668,536.394h-.76v-1.842h.76Zm-.648-.113h.536v-1.617h-.536Z" transform="translate(-140.463 -519.615)"/><path d="M171.9,539.573a17.381,17.381,0,0,1,.116-2.654,1,1,0,0,1,.353-.552c-.356-.037-.749.306-.93.757a2.02,2.02,0,0,0-.518-1.028,1.939,1.939,0,0,0-.513,1.033c-.186-.379-.512-.8-.9-.752a1.079,1.079,0,0,1,.346.541,15.122,15.122,0,0,1,.095,2.64Z" transform="translate(-140.102 -520.013)" fill="#bd0030"/><path d="M171.7,539.519a17.624,17.624,0,0,1,.12-2.683,1.042,1.042,0,0,1,.134-.327,1.238,1.238,0,0,0-.492.6l-.138.346-.082-.364a2.112,2.112,0,0,0-.406-.887,1.923,1.923,0,0,0-.4.888l-.067.335-.151-.306a1.667,1.667,0,0,0-.466-.6,1.015,1.015,0,0,1,.129.307,15.071,15.071,0,0,1,.1,2.672l-.231-.005a15.255,15.255,0,0,0-.091-2.607.733.733,0,0,0-.224-.388c-.032-.033-.065-.068-.1-.108l-.137-.164.211-.025c.388-.053.691.28.872.561a1.9,1.9,0,0,1,.476-.812l.078-.07.079.071a1.921,1.921,0,0,1,.472.8,1.043,1.043,0,0,1,.91-.558l.231.025-.24.252a.745.745,0,0,0-.243.418,17.141,17.141,0,0,0-.113,2.625Z" transform="translate(-140.023 -519.959)"/><path d="M171.908,543.38a22.305,22.305,0,0,1,.124-3.029.919.919,0,0,1,.38-.626c-.389-.044-.759.075-.976.737a2.019,2.019,0,0,0-.564-1.126,1.99,1.99,0,0,0-.559,1.131c-.238-.657-.571-.8-.991-.747a1.051,1.051,0,0,1,.4.631,20.147,20.147,0,0,1,.064,3.011Z" transform="translate(-140.053 -520.85)" fill="#bd0030"/><path d="M171.734,543.331a22.624,22.624,0,0,1,.126-3.049.971.971,0,0,1,.229-.508c-.237.03-.47.182-.63.669l-.12.368-.075-.379a1.961,1.961,0,0,0-.465-1,1.929,1.929,0,0,0-.46,1l-.067.368-.128-.352c-.185-.511-.419-.663-.66-.688a.977.977,0,0,1,.26.516,22.093,22.093,0,0,1,.066,3.035l-.2,0a19.372,19.372,0,0,0-.062-2.986.8.8,0,0,0-.28-.49l-.23-.236.2-.026a.873.873,0,0,1,.976.529,1.987,1.987,0,0,1,.516-.884l.072-.073.071.073a1.988,1.988,0,0,1,.518.876.889.889,0,0,1,.962-.516l.217.025-.219.2a.756.756,0,0,0-.289.517,22.511,22.511,0,0,0-.122,3.008Z" transform="translate(-139.98 -520.8)"/><path d="M172.208,545.192a2.843,2.843,0,0,1,.108-.95,2.365,2.365,0,0,1,.286-.444.922.922,0,0,0-1.163.636,1.993,1.993,0,0,0-.657-1.137,2,2,0,0,0-.643,1.137.928.928,0,0,0-1.18-.636,2.562,2.562,0,0,1,.3.444,2.727,2.727,0,0,1,.115.95Z" transform="translate(-139.96 -521.872)" fill="#bd0030"/><path d="M169.4,545.156l-.18-.007a2.647,2.647,0,0,0-.107-.908,1.844,1.844,0,0,0-.218-.337l-.156-.211.147-.022a1.021,1.021,0,0,1,1.174.468,1.945,1.945,0,0,1,.6-.95l.056-.045.056.045a1.949,1.949,0,0,1,.618.95,1,1,0,0,1,1.159-.468l.148.021-.145.2a1.81,1.81,0,0,0-.22.349,2.834,2.834,0,0,0-.1.91l-.18.007a2.937,2.937,0,0,1,.114-.99,1.77,1.77,0,0,1,.2-.335.794.794,0,0,0-.914.6l-.1.269-.072-.277a1.951,1.951,0,0,0-.569-1.042,2,2,0,0,0-.556,1.042l-.072.277-.1-.269a.8.8,0,0,0-.93-.6,1.81,1.81,0,0,1,.211.335,2.763,2.763,0,0,1,.124.991" transform="translate(-139.904 -521.832)"/><rect width="0.482" height="1.367" transform="translate(30.583 11.632)" fill="#bd0030"/><path d="M171.635,531.523h-.663v-1.547h.663Zm-.483-.18h.3v-1.188h-.3Z" transform="translate(-140.479 -518.434)"/></g></g><g transform="translate(149.312 537.651)"><g clip-path="url(#c)"><path d="M175.609,552.832a3.529,3.529,0,0,0,1.966.018c2.031-.356,2.013-2.361,5.178-1.431a2.1,2.1,0,0,0-1.877-1.2,1.88,1.88,0,0,0-.018-1.4,2.125,2.125,0,0,1-.875.951,1.494,1.494,0,0,1-.612-1.024c-.072-1.168-.642-1.374-.7-1.343-.367-.011-2.567,3.471-7.28,3.493-4.643.023-6.968-3.463-7.23-3.493-.061-.031-.63.175-.7,1.343a1.49,1.49,0,0,1-.618,1.014,2.055,2.055,0,0,1-.87-.941,1.88,1.88,0,0,0-.017,1.4,2.094,2.094,0,0,0-1.877,1.2c3.163-.93,3.17,1.075,5.2,1.431a3.474,3.474,0,0,0,1.928,0Z" transform="translate(-160.042 -547.286)" fill="#bd0030"/><path d="M166.473,553.09a7.182,7.182,0,0,1-1.216-.121,3.815,3.815,0,0,1-1.754-.874,3.125,3.125,0,0,0-3.392-.56l-.142-.17a2.2,2.2,0,0,1,1.828-1.255,1.89,1.89,0,0,1,.072-1.347l.213.014a1.863,1.863,0,0,0,.753.842,1.349,1.349,0,0,0,.5-.877c.059-.975.455-1.3.623-1.4a.284.284,0,0,1,.255-.042c.034.01.117.068.383.344a9.185,9.185,0,0,0,6.747,3.135h.044a9.276,9.276,0,0,0,6.676-3.029c.331-.326.471-.464.6-.464h.005c.019-.025.12.013.194.055.168.1.565.421.625,1.4a1.381,1.381,0,0,0,.494.886,1.944,1.944,0,0,0,.761-.854l.214-.014a1.89,1.89,0,0,1,.072,1.347,2.2,2.2,0,0,1,1.828,1.255l-.142.17a3.1,3.1,0,0,0-3.374.558,3.758,3.758,0,0,1-1.749.876,3.445,3.445,0,0,1-2.054-.036l.135-.2a3.614,3.614,0,0,0,1.877,0,3.567,3.567,0,0,0,1.643-.83,3.234,3.234,0,0,1,3.3-.677,1.943,1.943,0,0,0-1.627-.881l-.112-.156a2.192,2.192,0,0,0,.085-1.075,2.3,2.3,0,0,1-.8.767l-.124,0a1.6,1.6,0,0,1-.675-1.12c-.059-.97-.469-1.224-.567-1.236a2.792,2.792,0,0,0-.447.4,9.5,9.5,0,0,1-6.845,3.1h-.045a9.4,9.4,0,0,1-6.921-3.21,2.765,2.765,0,0,0-.3-.289c-.077.013-.486.267-.545,1.235a1.6,1.6,0,0,1-.673,1.108h-.129a2.222,2.222,0,0,1-.793-.758,2.193,2.193,0,0,0,.085,1.075l-.113.156a1.946,1.946,0,0,0-1.627.881,3.274,3.274,0,0,1,3.321.678,3.6,3.6,0,0,0,1.648.829,3.406,3.406,0,0,0,1.84.019l.134.2a1.611,1.611,0,0,1-.8.139" transform="translate(-160.042 -547.286)"/></g></g><g transform="translate(151.978 539.651)"><g clip-path="url(#d)"><path d="M165.794,551.832c-1.1-.044-3.253-1.721-2.947-2.066.1-.1.57,0,1.389.577,1.217.83,2.261,3.446,7.144,3.426,4.974-.02,5.995-2.6,7.212-3.426.819-.574,1.331-.665,1.389-.554.292.331-1.859,2-2.96,2.048Z" transform="translate(-162.696 -549.612)" fill="#bd0030"/><path d="M171.326,553.89a7.659,7.659,0,0,1-5.594-1.941,5.236,5.236,0,0,1-3-1.94.285.285,0,0,1,.023-.324c.192-.2.784.021,1.55.558a5.9,5.9,0,0,1,.87.809,7.35,7.35,0,0,0,6.148,2.6h.054c3.8-.016,5.236-1.515,6.283-2.609a5.9,5.9,0,0,1,.862-.8,2.444,2.444,0,0,1,1.432-.606l.133.1c.031.029.073.127.006.285a5.258,5.258,0,0,1-3.014,1.937,7.928,7.928,0,0,1-5.7,1.935Zm8.54-4.029a2.823,2.823,0,0,0-1.2.581,5.7,5.7,0,0,0-.824.765c-.132.137-.273.285-.427.436a5.885,5.885,0,0,0,2.355-1.554c.129-.165.121-.226.121-.226a.063.063,0,0,0-.021,0m-16.936-.005a.9.9,0,0,0,.1.185,5.718,5.718,0,0,0,2.377,1.6c-.145-.145-.28-.286-.406-.419a5.791,5.791,0,0,0-.833-.776c-.787-.552-1.171-.608-1.239-.587" transform="translate(-162.696 -549.612)"/></g></g><g transform="translate(129.872 514.419)"><g clip-path="url(#b)"><path d="M163.736,534.9c-3.23,3.4-1.493,11.224,5.22,11.337,6.748.076,8.718-7.823,5.364-11.352Zm.654.117c-1.718,2.894.068,7.967,4.663,7.967,4.632,0,6.33-5.108,4.629-7.983Z" transform="translate(-138.205 -519.7)" fill="#bd0030"/><path d="M169.022,546.3h-.1a6.642,6.642,0,0,1-6.288-4.152,6.985,6.985,0,0,1,1-7.337l.131.123a6.8,6.8,0,0,0-.969,7.144,6.793,6.793,0,0,0,12.38.093,6.806,6.806,0,0,0-.958-7.251l.13-.125a6.988,6.988,0,0,1,.993,7.447,6.6,6.6,0,0,1-6.326,4.058m0-3.254A5.178,5.178,0,0,1,164.4,540.4a5.6,5.6,0,0,1-.119-5.451l.155.091a5.413,5.413,0,0,0,.12,5.271,5,5,0,0,0,4.466,2.561,4.9,4.9,0,0,0,4.433-2.529,5.463,5.463,0,0,0,.119-5.319l.155-.091a5.648,5.648,0,0,1-.117,5.5,5.075,5.075,0,0,1-4.589,2.62" transform="translate(-138.175 -519.679)"/><path d="M172.937,551.529a.449.449,0,0,1,.363.544.569.569,0,0,1-.583.348c-.143-.086-.058-.211.384-.258.287-.106.026-.3-.192-.394-.117-.05-.081-.263.029-.24" transform="translate(-140.913 -523.996)" fill="#f4d02e"/><path d="M172.764,552.43l-.052,0c-.068-.04-.075-.078-.069-.1.018-.079.183-.141.453-.171.077-.029.118-.066.119-.111,0-.091-.156-.2-.315-.268a.146.146,0,0,1-.073-.166c.011-.056.047-.09.089-.09a.529.529,0,0,1,.356.252.365.365,0,0,1,.031.306.572.572,0,0,1-.54.356m.165-.9a.086.086,0,0,0-.085.076.129.129,0,0,0,.065.148c.151.065.326.177.323.283,0,.051-.045.094-.132.125-.261.029-.425.088-.441.159-.008.036.027.067.059.086l.047,0a.556.556,0,0,0,.525-.346.351.351,0,0,0-.03-.293.508.508,0,0,0-.327-.241Z" transform="translate(-140.91 -523.993)" fill="#bd0030"/><path d="M172.047,551.419c.109-.124.2.257.222.521s.036.576-.069.592c-.063.01-.01-.3-.076-.577-.085-.326-.122-.481-.077-.536" transform="translate(-140.752 -523.962)" fill="#f4d02e"/><path d="M172.194,552.545c-.037,0-.039-.073-.042-.194a1.971,1.971,0,0,0-.038-.389c-.085-.325-.124-.483-.076-.542a.089.089,0,0,1,.037,0c-.064.079-.023.243.054.537a2.015,2.015,0,0,1,.039.392c0,.092,0,.18.026.18v0c.091-.014.1-.3.062-.584a1.685,1.685,0,0,0-.093-.441,1.23,1.23,0,0,1,.108.44c.013.1.065.579-.076.6Z" transform="translate(-140.749 -523.968)" fill="#bd0030"/><path d="M171.295,552.055c.274.266-.191,1.036-1.206.7-.057-.1.4,0,.728-.057.619-.1.354-.76.479-.643" transform="translate(-140.25 -524.129)" fill="#f4d02e"/><path d="M170.569,552.844a1.541,1.541,0,0,1-.482-.084.092.092,0,0,1,.007-.029,1.22,1.22,0,0,0,.474.1.783.783,0,0,0,.765-.429.3.3,0,0,0-.043-.341c-.027-.013-.027.036-.028.071a.5.5,0,0,1-.444.574,1.556,1.556,0,0,1-.253.018h0c-.073,0-.146,0-.211-.006l-.144,0c-.025,0-.1,0-.114.019.015-.029.052-.034.114-.034l.145,0a2.251,2.251,0,0,0,.462-.013.49.49,0,0,0,.43-.558c0-.064,0-.1.026-.1a.309.309,0,0,1,.076.375.8.8,0,0,1-.78.438" transform="translate(-140.251 -524.126)" fill="#bb4b4b"/><path d="M171.008,551.341c.109-.124.046.269.068.533.022.249-.005.55-.123.511-.064-.03.04-.309-.024-.571-.07-.33,0-.39.079-.473" transform="translate(-140.46 -523.942)" fill="#f4d02e"/><path d="M170.971,552.405l-.022,0c-.036-.016-.029-.082-.019-.183a1.166,1.166,0,0,0-.01-.393c-.07-.329-.005-.393.077-.476a.08.08,0,0,1,.03.006c-.105.093-.157.166-.093.467a1.179,1.179,0,0,1,.011.4c-.008.087-.015.156.01.168l.016.01.038-.027a.851.851,0,0,0,.057-.487,2.9,2.9,0,0,1,0-.29,2.011,2.011,0,0,0,0-.206.524.524,0,0,1,.018.206,2.85,2.85,0,0,0,0,.288.853.853,0,0,1-.062.5Z" transform="translate(-140.458 -523.95)" fill="#bd0030"/><path d="M168.8,550.791c.194,0,.142.053.128.571-.016.58-.505.646-.622.486-.1-.125-.062-.162-.5-.12-.1-.05-.094-.155-.414-.128-.083.015-.081-.142-.229-.237-.261-.155-.347.116-.844-.171a.4.4,0,0,1-.2-.4c.038-.319-.252.039-.572-.1a1.568,1.568,0,0,1-.415-.251c-.233-.2.011-.24.326-.036.194.123.48-.16.488-.444.018-.3-.133-.38.1-.372.129,0,.1.525-.121.756-.295.318-.1.257.01.241s.607-.646.69-.592c.129.088-.388.482-.272.856a.8.8,0,0,0,.618.352c.3.049.3-.357.42-.28.168.11-.319.317.192.468.114.033.178-.254.245-.242.161.026-.1.336.183.386.2.033.146-.29.27-.269.143-.01.008.516.407.463.168-.023-.094-.939.108-.94" transform="translate(-138.95 -523.496)" fill="#f4d02e"/><path d="M168.485,551.927a.229.229,0,0,1-.187-.078c-.109-.15-.116-.153-.493-.117a.285.285,0,0,1-.068-.048c-.054-.048-.111-.1-.346-.079-.054.029-.07-.034-.1-.079a.416.416,0,0,0-.138-.158.4.4,0,0,0-.276-.042c-.108.015-.22.07-.567-.129a.4.4,0,0,1-.2-.406.158.158,0,0,0-.013-.114.271.271,0,0,0-.151.013.618.618,0,0,1-.4.01,1.62,1.62,0,0,1-.416-.252c-.073-.063-.106-.114-.093-.149s.154-.078.428.1c.178.114.469-.166.476-.438a.872.872,0,0,0-.022-.247c-.01-.053-.017-.087,0-.109s.044-.025.1-.025a.082.082,0,0,1,.088.056.858.858,0,0,1-.177.715.689.689,0,0,0-.149.2c0-.042.036-.1.137-.211a.839.839,0,0,0,.174-.7l-.047-.053-.026.007c-.051,0-.079.007-.089.02s-.007.047,0,.1a.9.9,0,0,1,.022.251c-.008.286-.309.572-.5.45a.71.71,0,0,0-.342-.134c-.067.038-.068.077.026.157a1.544,1.544,0,0,0,.4.245.564.564,0,0,0,.4-.006.438.438,0,0,1,.117-.027.123.123,0,0,1,.067.146.384.384,0,0,0,.191.389.654.654,0,0,0,.556.128.371.371,0,0,1,.43.207c.024.042.042.073.071.073.047,0,.079-.005.108-.005a.325.325,0,0,1,.26.088.311.311,0,0,0,.061.045c.38-.039.406-.012.473.082a.235.235,0,0,0,.2.112c.2,0,.423-.174.433-.554l.011-.261c.008-.163.013-.244-.019-.277s-.045-.025-.105-.025c-.1.075-.08.283-.063.484.019.229.037.444-.05.456a.338.338,0,0,1-.329-.314c-.017-.084-.053-.165-.076-.149-.054,0-.071.05-.092.108-.026.076-.056.163-.152.163-.2-.032-.183-.153-.169-.25.012-.079.016-.128-.042-.137-.025,0-.053.048-.08.1-.039.07-.085.148-.145.148-.157-.044-.235-.092-.26-.151a.206.206,0,0,1,.04-.172c.039-.069.06-.114.005-.15-.058-.007-.079.036-.108.085-.049.085-.115.2-.26.2-.3-.03-.617-.188-.674-.362a.781.781,0,0,1,.189-.615c.075-.115.134-.2.087-.237h0c-.065,0-.232.171-.379.32a1.387,1.387,0,0,1-.3.273.742.742,0,0,1-.114.016.155.155,0,0,1-.03-.027.261.261,0,0,0,.111,0,1.111,1.111,0,0,0,.326-.274c.157-.16.32-.326.384-.326.077.045.017.137-.065.263a.766.766,0,0,0-.188.6c.055.168.368.322.611.346a.286.286,0,0,0,.295-.188c.032-.056.057-.1.1-.1.1.057.068.12.033.182s-.06.106-.039.158.1.1.229.139c.065,0,.109-.072.147-.138s.059-.1.091-.1c.082.013.072.082.061.156-.014.1-.029.2.128.23h0c.107,0,.134-.077.159-.151s.042-.119.093-.119c.072,0,.088.075.105.162.028.137.063.306.259.306.125-.013.107-.232.089-.442s-.035-.415.024-.481c.109-.02.148-.016.171.009s.032.116.024.289l-.011.26c-.01.392-.24.569-.449.569" transform="translate(-138.947 -523.493)" fill="#bd0030"/><path d="M164.809,549.906c.115-.024.313-.132.321-.3.016-.189-.247-.255-.56-.206a.935.935,0,0,1-.61-.223c-.164-.206-.164-.436-.362-.338-.148.066.206.444.379.535s.453.083.47.214-.066.338.362.321" transform="translate(-138.567 -523.295)" fill="#f4d02e"/><path d="M164.758,549.913c-.319,0-.32-.144-.32-.261-.012-.144-.119-.171-.244-.2a1.009,1.009,0,0,1-.223-.074c-.15-.078-.423-.36-.418-.49a.6.6,0,0,1,.046-.045c-.033.166.234.444.379.52a1.02,1.02,0,0,0,.221.073c.125.031.242.061.253.148,0,.19,0,.315.307.315v.007l.047-.008c.1-.022.306-.122.313-.3a.146.146,0,0,0-.038-.117.617.617,0,0,0-.513-.079.894.894,0,0,1-.616-.225,1.113,1.113,0,0,1-.122-.2c-.065-.123-.109-.2-.23-.138.039-.033.059-.038.078-.038.078,0,.117.075.166.168a1.145,1.145,0,0,0,.119.2,1,1,0,0,0,.552.223,1.985,1.985,0,0,1,.242-.019.459.459,0,0,1,.335.1.165.165,0,0,1,.043.13c-.008.169-.2.284-.327.312Z" transform="translate(-138.564 -523.293)" fill="#bd0030"/><path d="M174.671,551.351c-.064.031-.115.606.244.619a1.105,1.105,0,0,0,.792-.294c.187-.142.525-.428.369-.674-.079-.09-.122.164-.213.312a1.054,1.054,0,0,1-.867.441c-.395-.024-.246-.424-.326-.4" transform="translate(-141.422 -523.856)" fill="#f4d02e"/><path d="M174.959,551.976h-.047a.3.3,0,0,1-.282-.277c-.033-.153-.007-.335.035-.356s.039.036.043.087c.008.112.022.3.286.316a1.1,1.1,0,0,0,.86-.436,1.315,1.315,0,0,0,.079-.17c.037-.093.067-.166.108-.166l.02.03c-.054,0-.082.064-.114.142a1.288,1.288,0,0,1-.08.171,1.081,1.081,0,0,1-.813.448c-.339-.02-.354-.225-.362-.334,0-.04-.006-.074-.019-.074a.48.48,0,0,0-.029.338.29.29,0,0,0,.268.266l.046.008v-.007a1.041,1.041,0,0,0,.694-.258c.315-.24.457-.424.452-.576.017.163-.119.343-.4.554a1.131,1.131,0,0,1-.749.3" transform="translate(-141.42 -523.853)" fill="#bd0030"/><path d="M175.931,550.894c-.092-.07.2-.183.234-.291s-.13-.208-.041-.326c.094-.155.1.293.22.3.331.035.095.249-.03.207-.142-.042-.327.157-.383.105" transform="translate(-141.754 -523.665)" fill="#f4d02e"/><path d="M175.955,550.916l-.027-.01a.127.127,0,0,1,0-.036l.034.03a.3.3,0,0,0,.111-.047.47.47,0,0,1,.2-.073l.077.011c.07,0,.154-.059.156-.11s-.056-.076-.162-.087c-.062-.007-.094-.114-.122-.208a.588.588,0,0,0-.042-.116c.028.015.042.059.057.111.026.085.057.191.108.2.157.017.178.073.177.1,0,.061-.092.125-.172.125l-.077-.011a.448.448,0,0,0-.2.072.318.318,0,0,1-.119.047Zm-.03-.053c.007-.049.05-.082.1-.119s.123-.092.136-.137a.188.188,0,0,0-.031-.131c-.031-.062-.063-.127-.009-.2a.107.107,0,0,1,.035-.01.159.159,0,0,0-.012.2.2.2,0,0,1,.032.142c-.014.05-.079.1-.141.145s-.1.077-.11.107" transform="translate(-141.757 -523.671)" fill="#bd0030"/><path d="M175.59,550.183c-.021.149.07.186.1.1.033-.16-.058-.235-.1-.1" transform="translate(-141.67 -523.631)" fill="#f4d02e"/><path d="M175.9,550c-.053,0-.061.19.009.2s.04.131.1.13.082-.212,0-.214-.061-.11-.108-.111" transform="translate(-141.74 -523.601)" fill="#f4d02e"/><path d="M176.008,550.328H176l-.046-.065c-.009-.033-.016-.064-.05-.066s-.057-.059-.057-.105.015-.1.048-.105c.059.08.07.111.109.112s.07.057.07.112-.022.116-.066.117Zm-.114-.3c-.023,0-.031.03-.031.065s.014.088.044.09.056.045.065.077l.036.062v-.008c.034,0,.052-.053.052-.1s-.018-.095-.054-.1-.065-.041-.077-.071a.058.058,0,0,0-.034-.016" transform="translate(-141.738 -523.599)" fill="#bd0030"/><path d="M176.7,549.823c-.063.08-.183-.309.222-.365.192.017.356.334.339.64a1.561,1.561,0,0,1-.073.493c-.05.119-.237.51-.328.476s.024-.2.175-.424a1.272,1.272,0,0,0,.108-.793c-.062-.091-.125.226-.254.295-.108.056-.221-.108-.237-.186-.014-.094.072-.152.13-.041.046.084.188-.082.185-.2,0-.192-.124-.039-.265.108" transform="translate(-141.94 -523.462)" fill="#f4d02e"/><path d="M176.867,551.073l-.015,0a.149.149,0,0,1-.013-.034l.028.021c.081,0,.243-.318.309-.473a1.364,1.364,0,0,0,.07-.443c.02-.349-.145-.662-.329-.679-.217.03-.287.161-.28.273,0,.052.024.087.04.087.131-.133.2-.209.248-.209a.1.1,0,0,1,.044.1.292.292,0,0,1-.084.191.112.112,0,0,1-.074.041c-.061-.063-.084-.083-.108-.083-.047.033-.054.062-.05.092.014.066.1.191.184.191a.386.386,0,0,0,.187-.206c.035-.068.06-.116.091-.116a.155.155,0,0,1,.019.033l0,0c-.036-.013-.065.042-.093.094a.474.474,0,0,1-.151.2.265.265,0,0,1-.249-.192.11.11,0,0,1,.021-.089c.063-.022.095-.013.125.044l.091-.019a.28.28,0,0,0,.079-.179c0-.05-.007-.07-.015-.077-.053-.014-.123.071-.2.153l-.061.051c-.027,0-.052-.044-.056-.1-.008-.119.065-.258.295-.29.2.018.367.332.349.648a1.514,1.514,0,0,1-.074.5s-.208.482-.323.482m-.03-.094a.956.956,0,0,1,.168-.317,1.39,1.39,0,0,0,.142-.769,1.268,1.268,0,0,1-.11.75,1.827,1.827,0,0,0-.2.336" transform="translate(-141.937 -523.459)" fill="#bd0030"/><path d="M177.8,548.663c-.051.073-.227.237-.26.306a.357.357,0,0,0,.017.3.876.876,0,0,1,.153.459c-.022.164-.137.5-.073.475a.873.873,0,0,0,.18-.617c-.033-.255-.153-.4-.129-.482s.163-.243.191-.351a.747.747,0,0,0-.056-.418c-.039-.023-.181.028-.135.125s.141.039.113.2" transform="translate(-142.167 -523.171)" fill="#f4d02e"/><path d="M177.626,550.209l-.013-.006c-.018-.024,0-.115.039-.261.019-.079.039-.159.047-.218a.71.71,0,0,0-.12-.394.416.416,0,0,1-.049-.367,1.13,1.13,0,0,1,.148-.178,1.54,1.54,0,0,0,.113-.128c.015-.093-.01-.108-.046-.128a.147.147,0,0,1-.068-.068.081.081,0,0,1,0-.082.148.148,0,0,1,.115-.059c.076.032.117.328.089.434a.785.785,0,0,1-.106.2.667.667,0,0,0-.085.154.3.3,0,0,0,.039.162,1.236,1.236,0,0,1,.091.318.869.869,0,0,1-.185.625Zm.174-1.87a.128.128,0,0,0-.108.047c.015.1.038.115.06.128s.07.041.052.148a1.31,1.31,0,0,1-.115.132,1.106,1.106,0,0,0-.145.176.342.342,0,0,0,.016.292.846.846,0,0,1,.154.463c-.008.059-.027.142-.047.22a.792.792,0,0,0-.042.248h0a.875.875,0,0,0,.175-.608,1.232,1.232,0,0,0-.089-.313.3.3,0,0,1-.04-.172.721.721,0,0,1,.088-.158.792.792,0,0,0,.1-.192.772.772,0,0,0-.053-.409H177.8" transform="translate(-142.165 -523.168)" fill="#bd0030"/><path d="M178.2,548.954c-.064.058-.032.373.055.261s0-.312-.055-.261" transform="translate(-142.336 -523.33)" fill="#f4d02e"/><path d="M175.969,552.092c-.03.139.107.182.143.1.045-.148-.091-.226-.143-.1" transform="translate(-141.768 -524.126)" fill="#f4d02e"/><path d="M176.249,551.936c-.045.113.152.123.208.058.066-.121-.131-.16-.208-.058" transform="translate(-141.839 -524.086)" fill="#f4d02e"/><path d="M176.345,552.037a.124.124,0,0,1-.1-.041.252.252,0,0,1,.016-.05c.037.132.154.076.189.035-.016-.173-.123-.111-.175-.064a.113.113,0,0,1,.2-.011.082.082,0,0,1-.005.086.155.155,0,0,1-.119.045" transform="translate(-141.84 -524.08)" fill="#bd0030"/><path d="M165.179,549.753c-.106-.048-.1.165-.049.222s.336-.09.049-.222" transform="translate(-138.962 -523.536)" fill="#bd0030"/><path d="M165.163,549.994h0l-.042-.016a.236.236,0,0,1-.024-.2l.082-.03c.121.056.137.113.128.15a.157.157,0,0,1-.145.1m.01-.235a.157.157,0,0,0-.04.209l.03.01a.145.145,0,0,0,.129-.088c.01-.046-.031-.091-.119-.132" transform="translate(-138.96 -523.536)" fill="#bd0030"/><path d="M170.945,534.075c-1.059.212-1.785.832-1.445,1.044.208.139,1.188-.243,1.4-.568a1.8,1.8,0,0,0,1.642.662Z" transform="translate(-140.078 -519.492)" fill="#bd0030"/><path d="M172.292,535.309a2.079,2.079,0,0,1-1.431-.643,2.4,2.4,0,0,1-1.047.516.544.544,0,0,1-.4-.019.244.244,0,0,1-.12-.263c.063-.35.795-.783,1.6-.944a.09.09,0,1,1,.036.177c-.83.166-1.417.585-1.456.8-.006.03,0,.054.04.081a.443.443,0,0,0,.261-.006,2.027,2.027,0,0,0,1.012-.535l.075-.117.076.117a1.757,1.757,0,0,0,1.525.632.088.088,0,0,1,.121.037.09.09,0,0,1-.038.122.576.576,0,0,1-.256.047" transform="translate(-140.046 -519.461)"/><path d="M164.077,533.545a3.128,3.128,0,0,0,1.741.974,13.7,13.7,0,0,0,2.428.224c.288-.128,1.1-.687,1.309-.591a6.982,6.982,0,0,0,1.868.752,17.97,17.97,0,0,0,3.434-.991c.1-.159-.575-.574-1.006-.574s-9.773.223-9.773.207" transform="translate(-138.7 -519.302)" fill="#bd0030"/><path d="M167.5,535.214c.005.163.131.281.432.284a2.665,2.665,0,0,0,1.871-.8Z" transform="translate(-139.584 -519.652)" fill="#bd0030"/><path d="M167.936,535.557H167.9c-.459,0-.516-.261-.52-.371a.09.09,0,0,1,.088-.093c.078.006.091.038.093.087,0,.128.119.2.342.2a2.637,2.637,0,0,0,1.8-.773.093.093,0,0,1,.128-.007.091.091,0,0,1,.007.128,2.76,2.76,0,0,1-1.907.833" transform="translate(-139.553 -519.621)"/><path d="M165.459,534.935c-.026.137.2.317.643.322a4.623,4.623,0,0,0,2.479-.7Z" transform="translate(-139.056 -519.616)" fill="#bd0030"/><path d="M166.086,535.316h-.016a.9.9,0,0,1-.671-.23.242.242,0,0,1-.059-.2.088.088,0,0,1,.1-.072.09.09,0,0,1,.072.105.069.069,0,0,0,.021.051.733.733,0,0,0,.533.164,4.714,4.714,0,0,0,2.413-.673.09.09,0,1,1,.13.125,4.686,4.686,0,0,1-2.53.728" transform="translate(-139.025 -519.585)"/><path d="M164.037,534.509c-.237.3.518.415.971.41a4.411,4.411,0,0,0,2.144-.4Z" transform="translate(-138.678 -519.604)" fill="#bd0030"/><path d="M164.977,534.976c-.156,0-.943-.014-1.083-.3a.231.231,0,0,1,.042-.258.088.088,0,0,1,.126-.016.09.09,0,0,1,.016.126c-.034.045-.025.062-.022.068.054.111.492.194.921.2a4.388,4.388,0,0,0,2.091-.384.092.092,0,0,1,.126.019.09.09,0,0,1-.019.126,4.386,4.386,0,0,1-2.175.418Z" transform="translate(-138.647 -519.572)"/><path d="M162.924,533.817c-.226.3.535.565,1.461.543a6.675,6.675,0,0,0,1.721-.316Z" transform="translate(-138.392 -519.425)" fill="#bd0030"/><path d="M164.257,534.421c-.638,0-1.324-.139-1.467-.417a.248.248,0,0,1,.03-.272.09.09,0,0,1,.144.109c-.029.039-.024.062-.014.081a2.014,2.014,0,0,0,1.4.318,6.591,6.591,0,0,0,1.695-.312.09.09,0,0,1,.058.171,6.688,6.688,0,0,1-1.748.321h-.1" transform="translate(-138.361 -519.394)"/><path d="M174.5,535.214c-.005.163-.131.281-.431.284a2.666,2.666,0,0,1-1.872-.8Z" transform="translate(-140.795 -519.652)" fill="#bd0030"/><path d="M174,535.557a2.76,2.76,0,0,1-1.907-.833.091.091,0,0,1,.007-.128.092.092,0,0,1,.128.007,2.652,2.652,0,0,0,1.8.773c.224,0,.339-.069.343-.2,0-.049.024-.081.093-.087a.09.09,0,0,1,.088.093c0,.11-.061.367-.521.371H174" transform="translate(-140.764 -519.621)"/><path d="M176.256,534.935c.026.137-.2.317-.642.322a4.624,4.624,0,0,1-2.48-.7Z" transform="translate(-141.037 -519.616)" fill="#bd0030"/><path d="M175.569,535.316a4.688,4.688,0,0,1-2.531-.728.09.09,0,1,1,.13-.125,4.512,4.512,0,0,0,2.414.673.732.732,0,0,0,.533-.164.128.128,0,0,1,.082-.131c.049-.008.107,0,.116.047a.24.24,0,0,1-.059.2.894.894,0,0,1-.67.23Z" transform="translate(-141.006 -519.585)"/><path d="M177.66,534.517c.237.3-.51.408-.964.4a4.407,4.407,0,0,1-2.144-.4Z" transform="translate(-141.403 -519.606)" fill="#bd0030"/><path d="M176.688,534.979h-.025a4.422,4.422,0,0,1-2.2-.418.09.09,0,0,1,.107-.145,4.338,4.338,0,0,0,2.07.384,1.42,1.42,0,0,0,.938-.19.134.134,0,0,1,0-.16c.039-.03.085-.057.114-.017a.229.229,0,0,1,.043.257c-.137.274-.885.29-1.054.29" transform="translate(-141.372 -519.575)"/><path d="M178.761,533.81c.226.3-.537.57-1.464.548a6.665,6.665,0,0,1-1.721-.317Z" transform="translate(-141.667 -519.424)" fill="#bd0030"/><path d="M177.362,534.419h-.1a6.69,6.69,0,0,1-1.748-.321.09.09,0,0,1-.056-.114.091.091,0,0,1,.114-.056,6.606,6.606,0,0,0,1.695.312,2.036,2.036,0,0,0,1.4-.323c.01-.019.015-.042-.014-.082a.09.09,0,0,1,.144-.109.249.249,0,0,1,.03.274c-.144.281-.832.421-1.47.421" transform="translate(-141.636 -519.392)"/><path d="M164.556,533.191a3.818,3.818,0,0,1-1.954-.029c-.293-.129-.8-.522-.053-.537.492-.009.74.028,1.3.025,1.431-.018,3.5-1.148,4.121-1.152.582,0,.735.264,1.067.27s.45-.275,1.031-.27c.626,0,2.691,1.134,4.121,1.152.559,0,.807-.034,1.3-.025.742.015.24.408-.054.537a3.815,3.815,0,0,1-1.953.029Z" transform="translate(-138.205 -518.827)" fill="#bd0030"/><path d="M174.586,533.345a8.171,8.171,0,0,1-1.152-.1.09.09,0,0,1-.076-.1.087.087,0,0,1,.1-.076,3.691,3.691,0,0,0,1.9-.021c.22-.1.4-.258.39-.308,0,0-.039-.053-.3-.059s-.439,0-.638.011-.388.014-.66.015a9.385,9.385,0,0,1-2.843-.756,5.476,5.476,0,0,0-1.278-.4,1.39,1.39,0,0,0-.62.153.8.8,0,0,1-.41.117.985.985,0,0,1-.408-.116,1.363,1.363,0,0,0-.657-.154,5.5,5.5,0,0,0-1.278.4,9.365,9.365,0,0,1-2.843.757c-.267,0-.47-.007-.659-.015s-.387-.015-.639-.011-.3.059-.3.059c-.005.05.17.211.387.306a3.661,3.661,0,0,0,1.905.022.088.088,0,0,1,.1.076.091.091,0,0,1-.076.1,3.836,3.836,0,0,1-2.006-.037c-.148-.065-.532-.286-.488-.5.035-.175.286-.2.472-.2.257-.006.447,0,.649.011.186.008.379.017.651.014a9.245,9.245,0,0,0,2.781-.745,5.331,5.331,0,0,1,1.34-.407,1.727,1.727,0,0,1,.734.17.82.82,0,0,0,.336.1,1.315,1.315,0,0,0,.327-.1,1.514,1.514,0,0,1,.7-.171,5.325,5.325,0,0,1,1.341.407,9.223,9.223,0,0,0,2.781.745c.275,0,.464-.006.651-.014.2-.008.395-.017.649-.011.185,0,.437.028.472.2.044.22-.34.439-.492.506a2.023,2.023,0,0,1-.85.132" transform="translate(-138.174 -518.796)"/><path d="M170.766,528.08c-.553.027-1.315-.067-1.561.55-.372.707-.268,1.508-.1,1.525.3.033.328-.8.456-.8s.134.723.395.718c.2-.006.318-.73.378-.724s.189.7.436.7c.263,0,.375-.689.436-.7s.184.718.378.724c.261,0,.261-.72.4-.718s.184.829.483.8c.168-.016.251-.812-.122-1.519-.245-.617-1.023-.523-1.574-.55" transform="translate(-139.958 -517.945)" fill="#bd0030"/><path d="M169.092,530.216l-.027,0a.189.189,0,0,1-.145-.115,1.976,1.976,0,0,1,.176-1.542c.227-.573.867-.583,1.381-.591.088,0,.174,0,.254-.007s.175.005.263.007c.52.008,1.168.019,1.4.6a1.984,1.984,0,0,1,.191,1.531.187.187,0,0,1-.143.111h0c-.263,0-.361-.322-.441-.579-.019-.06-.042-.137-.062-.184a.564.564,0,0,1-.028.172c-.059.229-.133.514-.353.514-.192-.006-.289-.307-.375-.572l-.006-.019c-.08.231-.2.562-.436.562s-.346-.326-.433-.568c0,.008-.006.016-.008.024-.085.265-.183.566-.37.572-.225,0-.3-.285-.358-.514-.013-.05-.03-.116-.046-.163a.717.717,0,0,1-.033.174c-.071.261-.16.588-.4.588m1.639-2.077c-.074,0-.162.006-.252.007-.508.008-1.034.016-1.221.487a1.69,1.69,0,0,0-.162,1.407l0,0c.1,0,.183-.3.226-.455.056-.209.094-.346.212-.347s.165.15.214.339c.034.132.1.378.178.378.067-.021.167-.332.2-.448.062-.2.088-.275.176-.275s.111.075.17.24c.049.136.165.456.266.456s.225-.324.272-.463c.053-.154.077-.224.154-.232s.123.08.187.278c.037.116.137.424.2.445.079,0,.143-.247.177-.379.049-.189.088-.338.213-.338s.159.137.222.342c.053.17.14.454.245.454a1.762,1.762,0,0,0-.185-1.388c-.191-.479-.747-.487-1.238-.5-.091,0-.178,0-.26-.007" transform="translate(-139.927 -517.913)"/><path d="M169.6,528.421c.148.25,1.309.244,1.374.244s1.077.012,1.314-.232Z" transform="translate(-140.126 -518.033)" fill="#bd0030"/><path d="M170.988,528.737h-.039c-.49,0-1.3-.038-1.449-.289l.155-.091a2.438,2.438,0,0,0,1.282.2h.038a2.319,2.319,0,0,0,1.226-.206l.129.126a2.445,2.445,0,0,1-1.342.259" transform="translate(-140.099 -518.015)"/><path d="M171.115,524.906v2.464s.013.137.217.142.235-.117.235-.134l-.009-2.477Z" transform="translate(-140.516 -517.125)" fill="#bd0030"/><path d="M171.312,527.6H171.3a.279.279,0,0,1-.3-.223v-2.473h.18v2.465s.019.049.13.052c.134,0,.143-.052.144-.054l-.01-2.467h.18l.009,2.477a.21.21,0,0,1-.066.138.342.342,0,0,1-.249.085" transform="translate(-140.485 -517.125)"/><path d="M171.437,525.292c.927-.047,1.2.5,1.466.619a1.2,1.2,0,0,0,.737.142c.357-.023-.619.6-.619.62l.357.643a2.432,2.432,0,0,1-1.214-.43,1.422,1.422,0,0,0-.713-.095Z" transform="translate(-140.599 -517.224)" fill="#bd0030"/><path d="M173.274,527.379a2.756,2.756,0,0,1-1.19-.45.962.962,0,0,0-.509-.079l-.1,0-.071-.015-.071-.079-.016-1.586.2-.007a1.648,1.648,0,0,1,1.191.48.978.978,0,0,0,.2.15,1.133,1.133,0,0,0,.694.135h0c.125,0,.157.053.167.085.036.113-.085.234-.59.593l-.076.054.384.691Zm-1.557-.715a.873.873,0,0,1,.462.114,2.848,2.848,0,0,0,1.015.417l-.283-.51c-.011-.1,0-.1.167-.222a5.625,5.625,0,0,0,.453-.346,1.177,1.177,0,0,1-.7-.155,1.094,1.094,0,0,1-.243-.178,1.47,1.47,0,0,0-1.073-.436H171.5l.013,1.323h.053c.046,0,.1-.007.154-.007" transform="translate(-140.568 -517.193)"/><path d="M171.758,524.1a.536.536,0,1,1-.536-.511.524.524,0,0,1,.536.511" transform="translate(-140.406 -516.787)" fill="#bd0030"/><path d="M171.2,524.655a.572.572,0,1,1,.6-.572.585.585,0,0,1-.6.572m0-1.023a.452.452,0,1,0,.476.451.465.465,0,0,0-.476-.451" transform="translate(-140.385 -516.766)"/><path d="M163.38,540.715c-.071.1-.132-.162-.375.021-.137.118-.192.3-.191.672,0,.318.184.53.29.509.163-.021.078-.41.255-.481a.532.532,0,0,1,.678.3c.064.234-.12.487-.318.459-.113-.042.064-.2.078-.275s.035-.3-.134-.368-.142.171-.148.233-.128.262-.262.255a.714.714,0,0,1-.558-.233.874.874,0,0,1-.128-.827c.12-.4.326-.432.438-.438s.4.063.375.177" transform="translate(-138.298 -521.16)" fill="#f4d02e"/><path d="M163.745,542.2l-.032,0c-.061-.086-.021-.146.019-.2a.314.314,0,0,0,.047-.087c0-.011.056-.283-.125-.352-.118,0-.128.083-.128.18s-.128.31-.271.31a.734.734,0,0,1-.574-.237.9.9,0,0,1-.131-.841c.117-.386.313-.441.451-.449a.484.484,0,0,1,.371.122v0l.016.074h-.109a.217.217,0,0,0-.269.022c-.136.117-.186.3-.185.661,0,.309.17.5.261.5s.1-.108.124-.211.045-.232.141-.271a.561.561,0,0,1,.7.306.409.409,0,0,1-.072.352.3.3,0,0,1-.229.128m-.139-.684a.312.312,0,0,1,.148.491c-.032.048-.072.108-.062.141l.053.025a.27.27,0,0,0,.208-.116.387.387,0,0,0,.068-.329.529.529,0,0,0-.66-.289c-.083.033-.1.145-.125.252s-.043.219-.134.231h0c-.131,0-.3-.208-.3-.522,0-.374.052-.559.2-.682a.247.247,0,0,1,.3-.024c.006-.106-.176-.151-.273-.151s-.318.019-.443.43a.864.864,0,0,0,.125.814.688.688,0,0,0,.528.229h0c.149,0,.26-.185.267-.242,0-.116.005-.257.11-.257" transform="translate(-138.294 -521.155)" fill="#bd0030"/><path d="M163.188,542.918c-.118-.063.045-.293-.262-.212-.123.034.185.389.318.4.148-.014.108-.111-.056-.191" transform="translate(-138.395 -521.715)" fill="#f4d02e"/><path d="M163.24,543.118h0a.625.625,0,0,1-.358-.371c.083-.07.119-.076.148-.076.1,0,.108.067.114.126.005.043.01.085.047.1.1.052.162.111.154.157,0,.023-.025.052-.1.059Zm-.211-.42a.448.448,0,0,0-.1.016.522.522,0,0,0,.315.376c.046,0,.074-.017.078-.036s-.037-.077-.14-.128a.142.142,0,0,1-.062-.126c-.007-.059-.01-.1-.088-.1" transform="translate(-138.391 -521.71)" fill="#bd0030"/><path d="M163.637,543.218c.064.29.123.265.134.41,0,.185-.311.106-.354.191s-.1.3.107.318.5-.065.558.078a.47.47,0,0,0,.658.28c.18-.072.6-.453.7-.486.143-.052-.134-.155-.3-.013-.042.042-.4.4-.579.41-.135.014-.343-.326-.332-.446.013-.085.323-.016.367-.191.033-.125.036-.261-.064-.268s-.565.056-.579-.015c-.085-.2.085-.289.021-.346-.071-.029-.332-.071-.339.077" transform="translate(-138.519 -521.824)" fill="#f4d02e"/><path d="M164.509,544.549a.462.462,0,0,1-.445-.333c-.03-.074-.164-.084-.346-.073-.048,0-.1.005-.141.005-.125-.007-.171-.031-.2-.076a.315.315,0,0,1,.02-.263c.02-.04.081-.049.151-.058.1-.013.2-.027.2-.127a.309.309,0,0,0-.041-.136.993.993,0,0,1-.093-.272c0-.079.068-.122.183-.122a.535.535,0,0,1,.175.03c.037.033.02.068,0,.109a.265.265,0,0,0-.015.244c0,.005.01.026.144.026.077,0,.171-.007.252-.012.062,0,.117-.008.151-.008a.1.1,0,0,1,.091.039.334.334,0,0,1,.005.247c-.028.112-.151.131-.25.147-.058.009-.113.018-.116.043a.647.647,0,0,0,.172.344.226.226,0,0,0,.138.087,1.23,1.23,0,0,0,.573-.4c.2-.17.354-.087.365-.02-.089.065-.2.15-.314.24a2.5,2.5,0,0,1-.433.3.64.64,0,0,1-.231.046m-.655-.438c.091,0,.2.011.235.095a.447.447,0,0,0,.641.273,2.612,2.612,0,0,0,.427-.293,1.687,1.687,0,0,1,.273-.193c.045-.054-.1-.152-.284.01-.154.154-.428.407-.588.413h0a.247.247,0,0,1-.165-.1.66.66,0,0,1-.18-.365c.007-.045.069-.055.139-.066.1-.015.2-.032.229-.128a.3.3,0,0,0,0-.224l-.07-.027c-.034,0-.088,0-.15.008-.2.014-.413.02-.423-.033a.29.29,0,0,1,.016-.263c.021-.044.027-.06.01-.076-.062-.023-.309-.078-.317.068a.961.961,0,0,0,.091.263.316.316,0,0,1,.043.146c0,.125-.122.142-.223.155-.06.008-.118.016-.131.042a.293.293,0,0,0-.02.239.133.133,0,0,0,.116.06c.1,0,.149,0,.2,0s.094-.005.138-.005" transform="translate(-138.514 -521.82)" fill="#bd0030"/><path d="M165.655,544.688c-.149.157-.542.408-.542.585a.4.4,0,0,0,.2.3.536.536,0,0,0,.5-.083c.179-.145.259-.292.183-.318-.271-.078-.277.3-.407.307s-.313-.189-.065-.438.591-.5.579-.568-.341.111-.449.219" transform="translate(-138.967 -522.171)" fill="#f4d02e"/><path d="M165.477,545.608a.475.475,0,0,1-.173-.031.417.417,0,0,1-.209-.308c0-.131.194-.292.364-.433a2.364,2.364,0,0,0,.182-.161,1.041,1.041,0,0,1,.433-.238.074.074,0,0,1,.012.031h0a.961.961,0,0,0-.422.226c-.045.047-.112.1-.183.162-.159.131-.355.3-.355.412a.394.394,0,0,0,.192.283.538.538,0,0,0,.488-.082c.146-.119.214-.227.206-.274l-.084-.031c-.109,0-.162.1-.208.182-.037.067-.071.13-.128.136h0a.2.2,0,0,1-.184-.128c-.024-.059-.043-.181.109-.333.095-.1.2-.191.3-.277a1.4,1.4,0,0,0,.271-.269c0,.068-.1.152-.253.289-.1.085-.207.18-.3.275-.14.142-.125.251-.1.3a.174.174,0,0,0,.149.112c.051,0,.081-.059.115-.122.047-.088.107-.2.232-.2l.073.011c.049.107-.038.227-.179.342a.561.561,0,0,1-.341.116" transform="translate(-138.962 -522.166)" fill="#bd0030"/><path d="M164.977,546.152c-.011.1.254.1.3.012.035-.065-.289-.112-.3-.012" transform="translate(-138.932 -522.594)" fill="#f4d02e"/><path d="M165.113,546.235h0a.182.182,0,0,1-.132-.042c-.022-.177.263-.14.309-.064a.169.169,0,0,1-.177.106m-.007-.135c-.053,0-.111.013-.115.046a.124.124,0,0,0,.122.062.182.182,0,0,0,.154-.059c-.013-.027-.084-.049-.161-.049" transform="translate(-138.933 -522.587)" fill="#bd0030"/><path d="M166.159,546.18c-.15.157.017.335.132.481a.854.854,0,0,0,.3.191.664.664,0,0,0,.565-.088c.179-.145.193-.4.084-.4-.281,0-.085.374-.215.386a.723.723,0,0,1-.641-.428c-.1-.211.178-.251.137-.343s-.252.094-.36.2" transform="translate(-139.222 -522.557)" fill="#f4d02e"/><path d="M166.766,546.889a.5.5,0,0,1-.184-.03.856.856,0,0,1-.3-.194c-.139-.175-.277-.346-.131-.5.106-.107.249-.234.329-.234.074.082.035.115-.007.151-.061.052-.13.111-.076.228a.725.725,0,0,0,.607.421c.059,0,.06-.053.059-.132a.287.287,0,0,1,.049-.211c.047-.048.17-.077.2.016a.38.38,0,0,1-.149.366.653.653,0,0,1-.393.119m-.287-.914c-.08,0-.185.079-.314.209s-.005.291.1.427a.846.846,0,0,0,.323.224.69.69,0,0,0,.551-.086.354.354,0,0,0,.14-.337c-.1-.042-.134-.03-.157-.005a.27.27,0,0,0-.042.192c0,.078,0,.152-.063.158h0a.741.741,0,0,1-.652-.436.2.2,0,0,1,.082-.26c.043-.036.066-.057.054-.083a.091.091,0,0,0-.024,0" transform="translate(-139.217 -522.552)" fill="#bd0030"/><path d="M167.16,546.169c.058.082.257-.094.232-.191-.016-.072-.29.109-.232.191" transform="translate(-139.493 -522.559)" fill="#f4d02e"/><path d="M167.2,546.2h0l-.059-.034.006-.07a.345.345,0,0,1,.217-.153.118.118,0,0,1,0,.155.245.245,0,0,1-.16.1" transform="translate(-139.491 -522.555)" fill="#bd0030"/><path d="M167.442,547.1c-.008.114.026.27-.108.275s-.307-.177-.441-.171-.192.109-.177.166.249.125.649.1.311.218.591.2.322-.114.3-.177-.26-.021-.348-.036a.43.43,0,0,1-.266-.277c-.02-.119-.02-.325.084-.326.192,0,.1.174.111.237s.069.113.154.013a.3.3,0,0,0-.056-.416c-.109-.072-.473.136-.494.416" transform="translate(-139.38 -522.742)" fill="#f4d02e"/><path d="M167.919,547.673a.28.28,0,0,1-.211-.091.365.365,0,0,0-.291-.11c-.117.006-.174.008-.228.008-.267,0-.473-.049-.491-.114a.129.129,0,0,1,.027-.105.2.2,0,0,1,.162-.079.5.5,0,0,1,.228.088.5.5,0,0,0,.208.085c.093,0,.1-.075.1-.191a.552.552,0,0,1,.452-.516.28.28,0,0,1,.184.226.283.283,0,0,1-.06.226.136.136,0,0,1-.1.059.083.083,0,0,1-.078-.079c.013-.108.023-.165,0-.2a.112.112,0,0,0-.088-.029.323.323,0,0,0-.076.311.414.414,0,0,0,.254.265h.208c.07,0,.137.005.151.045a.1.1,0,0,1-.013.087c-.04.059-.141.1-.3.108Zm-.549-.226a.439.439,0,0,1,.355.114.253.253,0,0,0,.194.085v.013l.032-.015c.188-.013.256-.059.28-.095,0-.081-.039-.09-.116-.09h-.079l-.134,0a.441.441,0,0,1-.276-.287.47.47,0,0,1,.033-.312l.069-.031a.135.135,0,0,1,.109.039.192.192,0,0,1,.016.155c0,.147.061.134.124.06a.257.257,0,0,0,.054-.205.283.283,0,0,0-.108-.191.508.508,0,0,0-.473.405c0,.171,0,.283-.122.289a.5.5,0,0,1-.228-.088.488.488,0,0,0-.208-.085.18.18,0,0,0-.147.068.1.1,0,0,0-.022.082c.01.039.214.117.635.088Z" transform="translate(-139.375 -522.737)" fill="#bd0030"/><path d="M168.981,546.806c-.021.206-.168.222-.151.3a1.364,1.364,0,0,1,.108.328c.02.105.151.15.317.14.137,0,.229-.188.318-.182.125.007.021.289.312.286.234,0,.29-.2.374-.208s.072.234.265.234.275-.218.363-.223.093.234.38.218a1.249,1.249,0,0,0,.566-.114c.068-.057.1-.244.192-.255s.239.176.369.176.4-.326.483-.332.151.2.338.2c.291-.005.325-.384.46-.4.244-.024.254-.123.267-.15a1.492,1.492,0,0,0-.058-.569c-.027-.082-.338-.777-.477-.792s-.1.186-.016.306.509.675.452.837-.359-.068-.6-.068c-.332,0-.535.671-.769.7-.1.012-.213-.088-.177-.161.067-.1.145-.353-.115-.316s-.525.156-.482.3.2.28.026.338a1.24,1.24,0,0,1-.613.026c-.145-.047-.057-.375-.145-.375s-.1.385-.244.4a.266.266,0,0,1-.3-.156c-.032-.11.051-.244-.042-.26s-.186.431-.326.42-.145-.041-.229-.129.073-.39-.067-.416-.28.447-.374.442-.234-.01-.275-.1a2.448,2.448,0,0,1-.01-.458c0-.056-.136-.031-.125.032" transform="translate(-139.926 -522.43)" fill="#f4d02e"/><path d="M170.518,547.709c-.124,0-.17-.093-.2-.162-.02-.041-.036-.073-.059-.073s-.052.027-.084.061a.381.381,0,0,1-.292.147.225.225,0,0,1-.246-.194c-.017-.057-.029-.09-.067-.091-.019.03-.076.034-.119.072a.329.329,0,0,1-.2.11c-.191,0-.312-.055-.33-.152a.71.71,0,0,0-.075-.243.353.353,0,0,1-.033-.085c-.01-.038.016-.063.045-.092a.308.308,0,0,0,.1-.208c.033-.065.067-.075.093-.075l.059.045a2.427,2.427,0,0,0,.01.452c.036.085.163.091.256.1.042,0,.095-.1.142-.181.071-.128.145-.261.228-.261.1.018.09.125.076.229-.01.077-.021.156.012.191.088.1.106.117.22.125.07,0,.129-.124.181-.234s.091-.187.139-.187c.076.012.067.076.059.138a.329.329,0,0,0,0,.132.239.239,0,0,0,.249.147c.1-.006.135-.118.166-.217s.056-.179.111-.179.056.071.062.151.015.2.088.224a1.282,1.282,0,0,0,.6-.027.094.094,0,0,0,.065-.047c.016-.038-.014-.093-.045-.151a.708.708,0,0,1-.054-.122.121.121,0,0,1,.017-.1.748.748,0,0,1,.476-.21c.11-.007.157.017.18.058a.318.318,0,0,1-.052.279c.036.11.095.142.149.142.114-.011.211-.151.315-.3.131-.187.28-.4.47-.4a.978.978,0,0,1,.3.073c.137.047.252.08.28,0,.047-.135-.28-.589-.4-.76l-.046-.065a.333.333,0,0,1-.066-.286.081.081,0,0,1,.077-.043c.169.017.482.729.505.8a1.517,1.517,0,0,1,.057.578c-.019.049-.051.136-.278.159-.047.006-.083.068-.125.139-.068.115-.153.258-.335.262a.336.336,0,0,1-.246-.136c-.034-.036-.063-.068-.09-.068a.608.608,0,0,0-.182.133c-.105.093-.226.2-.3.2a.422.422,0,0,1-.214-.1.328.328,0,0,0-.146-.076c-.056.005-.088.071-.118.135a.374.374,0,0,1-.073.116,1.241,1.241,0,0,1-.574.118h0a.325.325,0,0,1-.308-.155c-.024-.035-.044-.062-.07-.063s-.062.036-.1.075a.368.368,0,0,1-.263.148m-.266-.262c.044,0,.063.042.087.088.033.068.072.145.179.145a.348.348,0,0,0,.244-.139c.042-.044.078-.081.119-.084s.065.036.093.074a.282.282,0,0,0,.26.145,1.316,1.316,0,0,0,.584-.112.344.344,0,0,0,.067-.107c.034-.07.069-.144.133-.151a.391.391,0,0,1,.171.08.4.4,0,0,0,.2.1c.068,0,.189-.107.286-.193s.157-.137.2-.14.075.035.114.075a.311.311,0,0,0,.225.128c.168,0,.245-.134.313-.249.045-.077.085-.144.145-.152.211-.021.239-.1.252-.131a1.461,1.461,0,0,0-.053-.57c-.03-.091-.338-.769-.467-.783a.207.207,0,0,0,0,.285l.045.065c.228.315.453.654.407.784-.032.093-.161.065-.315.013a.95.95,0,0,0-.3-.07c-.177,0-.321.206-.448.387-.107.153-.208.3-.319.309a.2.2,0,0,1-.181-.088.091.091,0,0,1-.009-.092.3.3,0,0,0,.051-.253.109.109,0,0,0-.105-.048.768.768,0,0,0-.5.2.1.1,0,0,0-.013.081.6.6,0,0,0,.053.116c.034.064.066.125.046.175a.123.123,0,0,1-.082.064,1.3,1.3,0,0,1-.621.026c-.091-.029-.1-.151-.106-.248-.011-.152-.078-.1-.122.034-.033.106-.072.228-.157.234h-.005c-.17,0-.277-.065-.3-.166a.342.342,0,0,1,0-.142c.009-.073.009-.1-.03-.107s-.079.091-.118.171c-.059.122-.119.249-.2.249a.238.238,0,0,1-.211-.1.273.273,0,0,1-.051-.249c.014-.112.02-.187-.041-.2h0c-.076,0-.151.136-.212.247s-.108.2-.157.2c-.1-.006-.246-.013-.289-.111a2.829,2.829,0,0,1-.011-.465l-.09.007a.373.373,0,0,1-.119.252c-.03.03-.044.044-.039.067a.4.4,0,0,0,.031.078.764.764,0,0,1,.078.251c.015.082.11.131.26.131a.322.322,0,0,0,.223-.1.235.235,0,0,1,.133-.079c.064,0,.079.056.1.111a.2.2,0,0,0,.215.174.355.355,0,0,0,.277-.138c.036-.038.065-.068.1-.07" transform="translate(-139.921 -522.425)" fill="#bd0030"/><path d="M175.37,545.5c.256.387.486.912.628.941.094.013-.3-.7-.427-.863-.109-.166-.422-.415-.2-.078" transform="translate(-141.595 -522.397)" fill="#f4d02e"/><path d="M176,546.453h0c-.1-.019-.225-.24-.383-.519-.08-.14-.166-.292-.254-.427s-.085-.159-.076-.177c.079-.021.234.138.3.24a2.929,2.929,0,0,1,.439.87Zm-.7-1.108s0,.024.076.147.175.287.255.428c.142.25.276.487.363.506a3.325,3.325,0,0,0-.438-.84.726.726,0,0,0-.256-.241" transform="translate(-141.59 -522.396)" fill="#bd0030"/><path d="M168.994,546.81c-.039.094-.024.185.042.171s.15-.171.128-.2a.108.108,0,0,0-.169.03" transform="translate(-139.963 -522.764)" fill="#f4d02e"/><path d="M169.018,546.987l-.047-.025a.192.192,0,0,1,.006-.166c.079-.134.166-.069.192-.033-.025.125-.082.212-.135.223Z" transform="translate(-139.959 -522.754)" fill="#bd0030"/><path d="M176.41,545.55a.41.41,0,0,0,.424.433.728.728,0,0,0,.6-.635c.022-.315-.365-.546-.462-.479s.036.3.285.317c.106.007.071.214-.132.379s-.53.165-.608.049c-.059-.165-.114-.166-.11-.064" transform="translate(-141.883 -522.275)" fill="#f4d02e"/><path d="M176.8,546a.388.388,0,0,1-.28-.115.48.48,0,0,1-.133-.332l.016-.073c.072-.016.1.068.12.133.071.106.405.09.587-.056.156-.125.2-.263.181-.322a.442.442,0,0,1-.366-.257.1.1,0,0,1,.033-.116.418.418,0,0,1,.349.151.454.454,0,0,1,.134.339.745.745,0,0,1-.615.648Zm-.375-.5a.454.454,0,0,0,.114.369.359.359,0,0,0,.261.106v.013l.024-.014a.715.715,0,0,0,.59-.622.43.43,0,0,0-.127-.32.454.454,0,0,0-.277-.157c-.071.033-.065.075-.059.1a.33.33,0,0,0,.3.2h.009l.057.052c.024.076-.034.224-.191.35-.193.154-.545.174-.627.047-.039-.1-.068-.127-.075-.127" transform="translate(-141.878 -522.274)" fill="#bd0030"/><path d="M176.63,544.929c-.04.083.044.275.136.266s-.106-.321-.136-.266" transform="translate(-141.937 -522.291)" fill="#f4d02e"/><path d="M176.645,544.941a.231.231,0,0,0,.036.183c.026.041.056.064.084.064v.013l0-.014a.342.342,0,0,0-.124-.246" transform="translate(-141.942 -522.296)" fill="#bd0030"/><path d="M177.719,544.184c.054.125.118.315.231.315s.206.031.206.127-.3.416-.306.525c-.017.184.118.174.183.073a5.014,5.014,0,0,0,.28-.7,2.348,2.348,0,0,0,.148-.5c-.008-.227.2-.044.3-.036s.193-.165.206-.288-.1-.145-.1-.254a3.539,3.539,0,0,0,.122-.389c.013-.116-.228-.45-.328-.445-.083,0-.013.127.035.179s.171.162.127.258c-.079.188-.463.236-.48.438-.019.144.017.6-.1.6s-.214-.284-.4-.284c-.206-.005-.174.29-.131.385" transform="translate(-142.212 -521.695)" fill="#f4d02e"/><path d="M177.921,545.312l-.059-.027a.175.175,0,0,1-.03-.134.864.864,0,0,1,.159-.273.841.841,0,0,0,.148-.251c0-.076-.065-.114-.192-.114-.109,0-.173-.153-.224-.275a.456.456,0,0,1-.015-.382c.086-.134.289-.02.392.1.05.059.1.114.145.114.073,0,.077-.252.08-.418,0-.069,0-.13.007-.168.01-.115.131-.182.247-.247a.508.508,0,0,0,.234-.194c.035-.078-.053-.169-.105-.224s-.112-.144-.092-.193a.194.194,0,0,1,.2.079.665.665,0,0,1,.185.353.918.918,0,0,1-.079.26.524.524,0,0,0-.045.128.166.166,0,0,0,.046.107.19.19,0,0,1,.05.148c-.013.118-.111.3-.215.3a.365.365,0,0,1-.114-.039.378.378,0,0,0-.124-.04.093.093,0,0,0-.053.1,1.02,1.02,0,0,1-.1.357.678.678,0,0,0-.05.145,5.182,5.182,0,0,1-.282.708.152.152,0,0,1-.119.078m-.076-1.5a.125.125,0,0,0-.115.056.4.4,0,0,0,0,.309c.069.164.129.306.22.306.181,0,.219.077.219.141a.769.769,0,0,1-.152.266.857.857,0,0,0-.154.26.141.141,0,0,0,.022.113l.039.017a.13.13,0,0,0,.1-.064,5,5,0,0,0,.278-.7.77.77,0,0,1,.052-.149,1,1,0,0,0,.1-.346.141.141,0,0,1,.027-.106.264.264,0,0,1,.188.021.372.372,0,0,0,.1.036c.083,0,.179-.158.191-.276a.164.164,0,0,0-.045-.128.193.193,0,0,1-.051-.124.485.485,0,0,1,.046-.139.855.855,0,0,0,.076-.251.649.649,0,0,0-.178-.334c-.055-.062-.1-.1-.134-.1-.036.039,0,.112.043.156.076.08.172.18.129.274a.519.519,0,0,1-.246.207c-.116.065-.225.125-.234.226,0,.038-.005.1-.007.165,0,.208-.007.445-.107.445-.059,0-.108-.057-.165-.124S177.941,543.816,177.845,543.816Z" transform="translate(-142.208 -521.698)" fill="#bd0030"/><path d="M178.136,542.386c.006.081.174.433.275.433.144,0-.065-.166-.052-.228s.22-.154.135-.174c-.151-.047-.366-.138-.358-.031" transform="translate(-142.328 -521.624)" fill="#f4d02e"/><path d="M178.407,542.828c-.116,0-.283-.367-.289-.446l.072-.064a.9.9,0,0,1,.229.056l.076.024c.034.05,0,.075-.045.11s-.077.059-.082.081.026.059.05.092.065.091.05.122Zm-.217-.483c-.04.11.128.456.217.456v.014l.036-.023c.008-.016-.024-.061-.048-.094s-.06-.084-.053-.114.05-.065.092-.1c.023-.018.063-.047.063-.059l-.087-.027a.861.861,0,0,0-.22-.056" transform="translate(-142.324 -521.619)" fill="#bd0030"/><path d="M178.119,541.78c.031.113.5.284.7.341s.446.3.538.218-.616-.358-.721-.4-.537-.275-.516-.162" transform="translate(-142.324 -521.473)" fill="#f4d02e"/><path d="M179.3,542.375a.585.585,0,0,1-.242-.108,1.128,1.128,0,0,0-.253-.125c-.131-.038-.672-.218-.709-.351a.2.2,0,0,1,.047-.013c.029.116.456.276.669.337a1.189,1.189,0,0,1,.259.129.6.6,0,0,0,.229.1v.013l.038-.026c-.01-.082-.48-.286-.717-.375-.025-.009-.07-.03-.122-.055a2.248,2.248,0,0,0-.315-.13.893.893,0,0,1,.326.106c.051.024.095.045.12.054.007,0,.716.271.737.388Z" transform="translate(-142.319 -521.479)" fill="#bd0030"/><path d="M180,542.627c.174,0,.079-.341.035-.424s-.109.158-.1.227.013.193.065.2" transform="translate(-142.792 -521.585)" fill="#f4d02e"/><path d="M180,542.642h0c-.057-.005-.067-.1-.074-.177a.475.475,0,0,1,.062-.276.162.162,0,0,1,.029.027.346.346,0,0,0-.068.214c.009.088.019.183.053.185l0,.013v-.013a.069.069,0,0,0,.065-.034.5.5,0,0,0-.028-.332.393.393,0,0,1,.051.346.1.1,0,0,1-.088.047" transform="translate(-142.788 -521.586)" fill="#bd0030"/><path d="M178.649,540.446c0,.078.482.023.708.083.1.027.428.206.489.162.07-.092-.45-.289-.747-.289-.1,0-.448-.048-.45.044" transform="translate(-142.461 -521.122)" fill="#f4d02e"/><path d="M179.812,540.7a1.126,1.126,0,0,1-.316-.109,1.326,1.326,0,0,0-.148-.059,1.917,1.917,0,0,0-.4-.033c-.212-.005-.323-.01-.321-.063,0-.107.24-.07.367-.062l.092,0a1.288,1.288,0,0,1,.766.261Zm-.989-.307c-.143,0-.165.026-.165.042s.177.033.3.036a1.991,1.991,0,0,1,.4.034c.031.009.087.033.151.061a1.151,1.151,0,0,0,.306.108v.013l.021-.018a1.164,1.164,0,0,0-.739-.263l-.1-.005c-.053,0-.115-.007-.173-.007" transform="translate(-142.456 -521.115)" fill="#bd0030"/><path d="M178.474,540.751c-.087.093.292.2.63.21s.553.214.524.362c-.048.249-.467.088-.415.223.03.105.215.067.236.18s.133.134.126-.006c0-.112.261-.3.254-.348a.664.664,0,0,0-.573-.512c-.4-.039-.671-.233-.782-.109" transform="translate(-142.412 -521.204)" fill="#f4d02e"/><path d="M179.518,541.82c-.036,0-.078-.036-.087-.1-.009-.05-.058-.066-.11-.083s-.109-.037-.126-.095c.021-.076.073-.079.139-.083.112-.007.251-.014.277-.146a.19.19,0,0,0-.048-.149.624.624,0,0,0-.463-.2c-.278-.012-.614-.087-.651-.177.091-.2.2-.1.375-.046a2.164,2.164,0,0,0,.431.095.673.673,0,0,1,.585.524c0,.027-.031.064-.1.131s-.157.159-.157.218a.121.121,0,0,1-.025.094Zm-.943-1.108a.117.117,0,0,0-.094.036c.021.1.326.176.619.188a.646.646,0,0,1,.483.208.216.216,0,0,1,.054.171c-.03.153-.187.161-.3.168-.051,0-.1.006-.116.023.015.07.062.086.111.1s.116.039.128.105c.007.05.036.08.06.08v.014l.022-.024a.1.1,0,0,0,.018-.074c0-.071.087-.159.164-.238.039-.039.092-.094.091-.109a.655.655,0,0,0-.561-.5,2.191,2.191,0,0,1-.436-.1,1,1,0,0,0-.24-.053" transform="translate(-142.409 -521.193)" fill="#bd0030"/><path d="M163.93,544.069c-.054-.031-.246.141-.177.18.131.074.259-.134.177-.18" transform="translate(-138.612 -522.07)" fill="#bd0030"/><path d="M163.814,544.267h0l-.059-.016a.136.136,0,0,1,0-.03l.056.041a.159.159,0,0,0,.139-.119.058.058,0,0,0-.021-.072.224.224,0,0,0-.125.059.182.182,0,0,1,.111-.068.061.061,0,0,1,.04.082.164.164,0,0,1-.144.123" transform="translate(-138.617 -522.069)" fill="#bd0030"/><path d="M164.517,543.794c-.093-.012-.139.186-.06.2.2.027.237-.177.06-.2" transform="translate(-138.787 -522)" fill="#bd0030"/><path d="M164.492,544h0l-.036,0c-.03,0-.045-.035-.042-.079,0-.06.042-.125.094-.125.092.01.126.06.124.1s-.052.1-.14.1" transform="translate(-138.787 -521.999)" fill="#bd0030"/><path d="M178.056,544.543c-.045,0-.183.061-.136.157a.169.169,0,0,0,.249.044c.056-.053.044-.2-.114-.2" transform="translate(-142.27 -522.194)" fill="#bd0030"/><path d="M178.061,544.782a.154.154,0,0,1-.144-.081.082.082,0,0,1,0-.085.2.2,0,0,1,.135-.077.139.139,0,0,1,.139.081.119.119,0,0,1-.023.125.173.173,0,0,1-.11.036m-.006-.237a.192.192,0,0,0-.131.074.075.075,0,0,0,0,.079.173.173,0,0,0,.245.043.113.113,0,0,0,.022-.119.127.127,0,0,0-.134-.076" transform="translate(-142.269 -522.193)" fill="#bd0030"/><path d="M178.843,543.941c.014.106.091.088.153.065s.091-.123.022-.157-.189.016-.174.092" transform="translate(-142.51 -522.011)" fill="#bd0030"/><path d="M178.919,544.039c-.045,0-.072-.029-.079-.085.007-.014.013-.026.019-.037-.007.154.081.12.135.1a.1.1,0,0,0,.062-.088.067.067,0,0,0-.014-.044.053.053,0,0,1,.019.045.107.107,0,0,1-.065.091.233.233,0,0,1-.077.018" transform="translate(-142.51 -522.024)" fill="#bd0030"/><path d="M174.572,547.272c-.094.208-.013.412.138.372s.3-.326.188-.418a.2.2,0,0,0-.326.046" transform="translate(-141.398 -522.869)" fill="#bd0030"/><path d="M174.673,547.652a.125.125,0,0,1-.108-.062.349.349,0,0,1,0-.318.205.205,0,0,1,.332-.047.145.145,0,0,1,.033.149.388.388,0,0,1-.223.274Zm.062-.487a.171.171,0,0,0-.161.108.342.342,0,0,0-.005.313.122.122,0,0,0,.1.06v0l.036-.007a.385.385,0,0,0,.22-.269.14.14,0,0,0-.031-.144.255.255,0,0,0-.162-.064" transform="translate(-141.397 -522.87)" fill="#bd0030"/><path d="M157.1,535.642c-.35-.032-1.146-.191-1.178-.032a7.845,7.845,0,0,0,.668,2.262,3.955,3.955,0,0,0,1.465.686,3.671,3.671,0,0,0-.351-1.434,5.873,5.873,0,0,1-.477-.988,3.638,3.638,0,0,0-.128-.493" transform="translate(-136.595 -519.87)" fill="#bd0030"/><path d="M156.566,535.533c.085-.448.606.088.554.672a.694.694,0,0,0,.193.524Z" transform="translate(-136.761 -519.825)" fill="#bd0030"/><path d="M157.219,536.762a.787.787,0,0,1-.218-.6.774.774,0,0,0-.323-.737c-.019,0-.049.07-.054.093l-.177-.033c.047-.248.208-.243.255-.237.244.034.517.481.477.935a.6.6,0,0,0,.167.452Z" transform="translate(-136.731 -519.794)"/><path d="M157.162,535.577l-.019.026c.261-.442.514.188.553.914Z" transform="translate(-136.91 -519.848)" fill="#bd0030"/><path d="M157.58,536.49c-.031-.569-.185-.951-.282-.974-.022-.013-.052.02-.093.082l0,0-.02.026-.149-.1c.111-.188.225-.2.3-.185.286.07.4.75.418,1.14Z" transform="translate(-136.883 -519.817)"/><path d="M155.958,535.443c-.016-.362.573-.467.537.844a1.963,1.963,0,0,1,.573,1.026,1.053,1.053,0,0,1,.591.479Z" transform="translate(-136.604 -519.784)" fill="#bd0030"/><path d="M157.545,537.794a.973.973,0,0,0-.528-.424l-.065-.016,0-.067a1.912,1.912,0,0,0-.533-.957l-.043-.027v-.051c.022-.79-.185-.95-.226-.976a.065.065,0,0,0-.076,0,.146.146,0,0,0-.055.134l-.18.007a.322.322,0,0,1,.141-.3.251.251,0,0,1,.26,0c.125.073.33.312.316,1.089a2.149,2.149,0,0,1,.564,1,1.145,1.145,0,0,1,.594.514Z" transform="translate(-136.573 -519.752)"/><path d="M157.247,542.677a25.165,25.165,0,0,0-.061-3.365c-.184-.429-1.107-.927-1.389-1.6a6.983,6.983,0,0,1-.407-2.537c.149-.283.648.346.513,1.042a2.911,2.911,0,0,1,.588,1.223c.372.287.941.484,1.042.741.206.458-.046-.65-.211-.876s-.453-.726-.257-.846.543.2.589.287a6.59,6.59,0,0,0,.648.724c.241.182.851.587.84.934,0,.561.048,4.255.048,4.255Z" transform="translate(-136.45 -519.758)" fill="#bd0030"/><path d="M157.306,542.648l-.18,0a25.429,25.429,0,0,0-.053-3.326,2.231,2.231,0,0,0-.536-.588,3.163,3.163,0,0,1-.854-1.014,6.773,6.773,0,0,1-.4-2.618.2.2,0,0,1,.254-.1,1.134,1.134,0,0,1,.433,1.163,2.145,2.145,0,0,1,.516,1.053.543.543,0,0,0,.033.127,4.064,4.064,0,0,0,.463.288,2.918,2.918,0,0,1,.449.287,2.37,2.37,0,0,0-.211-.589c-.04-.054-.389-.542-.335-.821a.228.228,0,0,1,.1-.154.313.313,0,0,1,.257-.024.929.929,0,0,1,.459.346,6.8,6.8,0,0,0,.628.7l.079.058c.3.22.8.587.791.946,0,.558.048,4.25.048,4.25l-.18,0s-.049-3.7-.048-4.256c.008-.267-.482-.625-.718-.8l-.086-.064a6.327,6.327,0,0,1-.675-.756.777.777,0,0,0-.346-.255.139.139,0,0,0-.115,0,1.13,1.13,0,0,0,.282.716,2.477,2.477,0,0,1,.293,1.076l-.027.049-.062,0c-.069,0-.1-.066-.147-.163-.053-.133-.294-.269-.528-.4a4.2,4.2,0,0,1-.487-.306.363.363,0,0,1-.1-.232,1.98,1.98,0,0,0-.5-1l-.028-.033.008-.042a1.008,1.008,0,0,0-.309-1,6.278,6.278,0,0,0,.375,2.48,3.037,3.037,0,0,0,.807.949,2.271,2.271,0,0,1,.58.649,25.279,25.279,0,0,1,.068,3.4" transform="translate(-136.419 -519.726)"/><path d="M157.749,547.069s0,.4,0,.41c.174.211.9.235,1.065.234s.842.007,1-.254c0-.007.01-.341.01-.433Z" transform="translate(-137.066 -522.834)" fill="#bd0030"/><path d="M158.8,547.8c-.208,0-.95-.018-1.155-.266l-.016-.467.18,0,0,.408a2.927,2.927,0,0,0,.974.145c.552-.01.846-.081.926-.211-.009,0,0-.3,0-.387h.18a3.8,3.8,0,0,1-.017.47c-.157.259-.633.3-1.031.306Z" transform="translate(-137.036 -522.834)"/><path d="M157.641,546.284a.281.281,0,0,0-.112.47,1.829,1.829,0,0,0,1.14.324c.548.012,1.275-.179,1.309-.481.011-.3-.273-.284-.239-.272Z" transform="translate(-136.989 -522.643)" fill="#bd0030"/><path d="M158.686,547.138h-.05a1.893,1.893,0,0,1-1.21-.358.426.426,0,0,1-.079-.4.327.327,0,0,1,.242-.214l.039.176a.145.145,0,0,0-.111.1.244.244,0,0,0,.05.228,1.821,1.821,0,0,0,1.073.291c.561-.012,1.194-.194,1.217-.4a.183.183,0,0,0-.044-.14c-.034-.033-.064-.046-.092-.038l-.013-.087-.03.088-.062-.108.12-.063v0l.022-.011a.327.327,0,0,1,.279.368c-.042.381-.8.569-1.351.569" transform="translate(-136.958 -522.612)"/><path d="M157.644,545.535c-.2.045-.24.3-.1.478a1.832,1.832,0,0,0,1.148.358c.548.011,1.242-.213,1.275-.515.011-.3-.2-.276-.212-.269Z" transform="translate(-136.992 -522.45)" fill="#bd0030"/><path d="M158.7,546.431h-.038a1.892,1.892,0,0,1-1.217-.393.442.442,0,0,1-.083-.417.314.314,0,0,1,.231-.2l.039.175a.134.134,0,0,0-.1.089.266.266,0,0,0,.056.245,1.781,1.781,0,0,0,1.079.325c.563.007,1.16-.213,1.183-.435a.2.2,0,0,0-.04-.154l-.121-.185a.246.246,0,0,1,.212.029.341.341,0,0,1,.128.324c-.042.382-.789.6-1.329.6" transform="translate(-136.961 -522.419)"/><path d="M158.795,545.672c.726.012,1.2-.346,1.2-.537s-.235-.2-.38-.145a1.849,1.849,0,0,1-.839.2c-.482.014-.907-.336-1.052-.325a.26.26,0,0,0-.212.336,1.5,1.5,0,0,0,1.286.47" transform="translate(-137.002 -522.277)" fill="#bd0030"/><path d="M158.693,545.732a1.523,1.523,0,0,1-1.3-.531.365.365,0,0,1,.049-.313.331.331,0,0,1,.241-.142,1.537,1.537,0,0,1,.306.105,1.7,1.7,0,0,0,.723.219,1.674,1.674,0,0,0,.749-.158l.088-.037c.229-.088.5.013.5.229,0,.25-.5.628-1.252.628Zm-1-.807a.146.146,0,0,0-.108.066.186.186,0,0,0-.025.156,1.444,1.444,0,0,0,1.13.405v.091l.068-.091h0c.729,0,1.109-.335,1.109-.447,0-.021,0-.085-.131-.085a.37.37,0,0,0-.128.023l-.079.034a1.774,1.774,0,0,1-.792.173h0a1.856,1.856,0,0,1-.831-.237.912.912,0,0,0-.214-.088" transform="translate(-136.97 -522.246)"/><path d="M185.077,535.642c.349-.032,1.146-.191,1.178-.032a7.891,7.891,0,0,1-.668,2.262,3.957,3.957,0,0,1-1.466.686,3.7,3.7,0,0,1,.35-1.434,5.889,5.889,0,0,0,.478-.988,3.635,3.635,0,0,1,.128-.493" transform="translate(-143.867 -519.87)" fill="#bd0030"/><path d="M186.1,535.533c-.085-.448-.606.088-.555.672a.694.694,0,0,1-.192.524Z" transform="translate(-144.191 -519.825)" fill="#bd0030"/><path d="M185.4,536.762l-.128-.128a.6.6,0,0,0,.167-.448c-.041-.458.233-.9.476-.939.047-.005.209-.01.256.237l-.177.033c0-.022-.014-.09-.054-.093a.777.777,0,0,0-.323.74.788.788,0,0,1-.217.6" transform="translate(-144.169 -519.794)"/><path d="M185.571,535.577l.019.026c-.261-.442-.514.188-.553.914Z" transform="translate(-144.109 -519.848)" fill="#bd0030"/><path d="M185.1,536.49l-.18-.01c.021-.389.133-1.069.418-1.14.077-.019.191,0,.3.185l-.149.1.024-.025-.029.016c-.046-.076-.085-.112-.1-.1-.1.023-.251.405-.282.974" transform="translate(-144.078 -519.817)"/><path d="M186.377,535.443c.015-.362-.574-.467-.537.844a1.955,1.955,0,0,0-.573,1.026,1.053,1.053,0,0,0-.591.479Z" transform="translate(-144.016 -519.784)" fill="#bd0030"/><path d="M184.73,537.794l-.168-.067a1.145,1.145,0,0,1,.594-.514,2.142,2.142,0,0,1,.564-1c-.014-.777.191-1.016.316-1.088a.243.243,0,0,1,.26,0,.322.322,0,0,1,.142.3l-.18-.007a.147.147,0,0,0-.055-.134.067.067,0,0,0-.076,0c-.042.025-.248.185-.226.976v.051l-.043.027a1.913,1.913,0,0,0-.533.957l0,.067-.065.016a.974.974,0,0,0-.527.424" transform="translate(-143.987 -519.752)"/><path d="M184.348,542.677a25.163,25.163,0,0,1,.061-3.365c.184-.429,1.107-.927,1.388-1.6a6.971,6.971,0,0,0,.408-2.537c-.15-.283-.649.346-.513,1.042a2.93,2.93,0,0,0-.589,1.223c-.372.287-.941.484-1.042.741-.207.458.046-.65.211-.876s.454-.726.257-.846-.543.2-.589.287a6.528,6.528,0,0,1-.649.724c-.241.182-.851.587-.839.934,0,.561-.049,4.255-.049,4.255Z" transform="translate(-143.429 -519.758)" fill="#bd0030"/><path d="M184.227,542.648a25.311,25.311,0,0,1,.068-3.4,2.285,2.285,0,0,1,.579-.648,3.02,3.02,0,0,0,.808-.95,7.309,7.309,0,0,0,.413-2.458c-.179.029-.447.47-.346.98l.008.042-.028.033a1.982,1.982,0,0,0-.5,1,.373.373,0,0,1-.1.232,4.072,4.072,0,0,1-.488.306c-.234.132-.475.269-.526.4-.044.1-.079.165-.149.167l-.056,0-.033-.053a2.49,2.49,0,0,1,.292-1.077,1.329,1.329,0,0,0,.3-.681.114.114,0,0,0-.136-.039.773.773,0,0,0-.346.255,6.422,6.422,0,0,1-.67.751l-.092.068c-.236.173-.726.531-.717.8,0,.564-.049,4.259-.049,4.259l-.18,0s.05-3.693.049-4.253c-.013-.356.49-.723.791-.943l.085-.062a6.96,6.96,0,0,0,.622-.693.925.925,0,0,1,.459-.347.313.313,0,0,1,.257.024.225.225,0,0,1,.1.154c.055.281-.3.767-.335.822a2.414,2.414,0,0,0-.211.588,3.03,3.03,0,0,1,.449-.286,4.01,4.01,0,0,0,.465-.29.572.572,0,0,0,.031-.125,2.158,2.158,0,0,1,.517-1.052A1.134,1.134,0,0,1,186,535a.2.2,0,0,1,.256.1,6.787,6.787,0,0,1-.4,2.613A3.164,3.164,0,0,1,185,538.73a2.251,2.251,0,0,0-.536.586,25.465,25.465,0,0,0-.053,3.327Z" transform="translate(-143.398 -519.727)"/><path d="M184.454,547.069s0,.4,0,.41c-.174.211-.9.235-1.065.234s-.842.007-1-.254c0-.007-.01-.341-.01-.433Z" transform="translate(-143.424 -522.834)" fill="#bd0030"/><path d="M183.371,547.8h-.008c-.451-.008-.927-.047-1.079-.3a3.083,3.083,0,0,1-.022-.481h.18c0,.085.005.384.009.421.068.095.361.165.862.174a1.987,1.987,0,0,0,1.045-.2l-.024-.351.18,0,0,.41c-.232.312-1.021.324-1.146.324" transform="translate(-143.393 -522.834)"/><path d="M184.406,546.284a.281.281,0,0,1,.112.47,1.832,1.832,0,0,1-1.141.324c-.548.012-1.275-.179-1.309-.481-.011-.3.272-.284.239-.272Z" transform="translate(-143.343 -522.643)" fill="#bd0030"/><path d="M183.3,547.138c-.556,0-1.309-.188-1.35-.562a.33.33,0,0,1,.277-.375l.081-.01.079.159-.079.029-.028-.081-.016.081c-.016-.008-.058.005-.092.038a.191.191,0,0,0-.043.147c.022.2.642.388,1.217.394a1.816,1.816,0,0,0,1.072-.291.247.247,0,0,0,.05-.228.146.146,0,0,0-.111-.1l.039-.176a.326.326,0,0,1,.241.214.426.426,0,0,1-.078.4,1.9,1.9,0,0,1-1.21.358h-.05" transform="translate(-143.312 -522.612)"/><path d="M184.409,545.535c.2.045.239.3.1.478a1.834,1.834,0,0,1-1.148.358c-.548.011-1.242-.213-1.276-.515-.01-.3.2-.276.213-.269Z" transform="translate(-143.346 -522.45)" fill="#bd0030"/><path d="M183.29,546.431c-.539,0-1.286-.22-1.33-.6a.347.347,0,0,1,.129-.331.245.245,0,0,1,.212-.029l-.077.163a.183.183,0,0,0-.085.185c.024.215.628.418,1.184.428a1.781,1.781,0,0,0,1.079-.325.266.266,0,0,0,.056-.245.134.134,0,0,0-.1-.089l.039-.175a.314.314,0,0,1,.231.2.442.442,0,0,1-.083.417,1.892,1.892,0,0,1-1.217.393h-.038" transform="translate(-143.315 -522.419)"/><path d="M183.265,545.672c-.726.012-1.2-.346-1.2-.537s.235-.2.38-.145a1.849,1.849,0,0,0,.839.2c.482.014.907-.336,1.052-.325a.26.26,0,0,1,.212.336,1.5,1.5,0,0,1-1.286.47" transform="translate(-143.343 -522.277)" fill="#bd0030"/><path d="M183.3,545.732l-.073,0h0a1.92,1.92,0,0,1-.918-.208c-.227-.125-.363-.281-.363-.418,0-.216.272-.317.5-.229l.088.037a1.634,1.634,0,0,0,.72.158h0a1.712,1.712,0,0,0,.75-.219.793.793,0,0,1,.292-.106.338.338,0,0,1,.256.143.364.364,0,0,1,.05.308,1.516,1.516,0,0,1-1.3.536m-1.047-.713c-.131,0-.131.064-.131.085,0,.037.066.148.269.26a1.707,1.707,0,0,0,.8.187h.1a1.434,1.434,0,0,0,1.132-.41.183.183,0,0,0-.027-.151.146.146,0,0,0-.108-.066.946.946,0,0,0-.213.088,1.855,1.855,0,0,1-.8.238,1.83,1.83,0,0,1-.821-.174l-.079-.034a.367.367,0,0,0-.128-.023" transform="translate(-143.312 -522.245)"/></g></g></g></g></svg>