<svg xmlns="http://www.w3.org/2000/svg" xmlns:xlink="http://www.w3.org/1999/xlink" width="36" height="36" viewBox="0 0 36 36"><defs><clipPath id="a"><circle cx="18" cy="18" r="18" transform="translate(2636 355)" fill="#fff" stroke="#707070" stroke-width="1"/></clipPath><clipPath id="b"><rect width="61.713" height="36" fill="none"/></clipPath></defs><g transform="translate(-2636 -355)" clip-path="url(#a)"><g transform="translate(1904.373 155.753)"><g transform="translate(728.628 199.247)" clip-path="url(#b)"><rect width="61.713" height="35.999" transform="translate(0 0.001)" fill="#2d6b4f"/><rect width="61.713" height="7.199" transform="translate(0 7.2)" fill="#f5cd28"/><rect width="61.713" height="7.2" transform="translate(0 21.6)" fill="#f5cd28"/><rect width="21.599" height="21.599" transform="translate(0 0.001)" fill="#c0003b"/><path d="M742.449,204.585l-2.114,6.5,3.253,1.056Z" transform="translate(-731.649 -200.625)" fill="#fff"/><path d="M742.788,204.585l2.114,6.5-3.253,1.056Z" transform="translate(-731.989 -200.625)" fill="#fff"/><path d="M749.573,210.954h-6.84v3.421Z" transform="translate(-732.268 -202.269)" fill="#fff"/><path d="M749.328,210.954l-5.534,4.021-2.01-2.768Z" transform="translate(-732.024 -202.269)" fill="#fff"/><path d="M734.415,210.954l5.534,4.021,2.011-2.768Z" transform="translate(-730.122 -202.269)" fill="#fff"/><path d="M734.415,210.954h6.841v3.421Z" transform="translate(-730.122 -202.269)" fill="#fff"/><path d="M746.736,219l-2.113-6.5-3.253,1.056Z" transform="translate(-731.917 -202.666)" fill="#fff"/><path d="M746.678,218.9l-5.532-4.021,2.01-2.766Z" transform="translate(-731.859 -202.568)" fill="#fff"/><path d="M737.765,218.9l5.534-4.021-2.01-2.766Z" transform="translate(-730.986 -202.568)" fill="#fff"/><path d="M737.765,219l2.114-6.5,3.252,1.056Z" transform="translate(-730.986 -202.666)" fill="#fff"/></g></g></g></svg>