<svg xmlns="http://www.w3.org/2000/svg" xmlns:xlink="http://www.w3.org/1999/xlink" width="36" height="36" viewBox="0 0 36 36"><defs><clipPath id="a"><circle cx="18" cy="18" r="18" transform="translate(1798 421)" fill="#fff" stroke="#707070" stroke-width="1"/></clipPath><clipPath id="b"><rect width="61.713" height="36" fill="none"/></clipPath></defs><g transform="translate(-1798 -421)" clip-path="url(#a)"><g transform="translate(1063.372 221.753)"><g transform="translate(728.628 199.247)" clip-path="url(#b)"><rect width="61.713" height="2.572" transform="translate(0 0)" fill="#d80031"/><rect width="61.713" height="2.571" transform="translate(0 2.572)" fill="#fff"/><rect width="61.713" height="2.572" transform="translate(0 5.143)" fill="#d80031"/><rect width="61.713" height="2.572" transform="translate(0 7.715)" fill="#fff"/><rect width="61.713" height="2.571" transform="translate(0 10.286)" fill="#d80031"/><rect width="61.713" height="2.572" transform="translate(0 12.857)" fill="#fff"/><rect width="61.713" height="2.571" transform="translate(0 15.429)" fill="#d80031"/><rect width="61.713" height="2.572" transform="translate(0 18)" fill="#fff"/><rect width="61.713" height="2.571" transform="translate(0 20.572)" fill="#d80031"/><rect width="61.713" height="2.572" transform="translate(0 23.142)" fill="#fff"/><rect width="61.713" height="2.572" transform="translate(0 25.714)" fill="#d80031"/><rect width="61.713" height="2.571" transform="translate(0 28.286)" fill="#fff"/><rect width="61.713" height="2.572" transform="translate(0 30.857)" fill="#d80031"/><rect width="61.713" height="2.571" transform="translate(0 33.429)" fill="#fff"/><rect width="35.999" height="20.572" fill="#2530a9"/><path d="M740.73,210.429a6.749,6.749,0,0,1,10.279-5.754,7.714,7.714,0,1,0,0,11.507,6.749,6.749,0,0,1-10.279-5.753" transform="translate(-731.088 -200.142)" fill="#f5d028"/><path d="M759.346,210.876l3.695-1.432-3.95.316,2.71-2.892-3.425,2,1.187-3.782-2.217,3.285-.573-3.921-.41,2.81-.117.81-.045.3-2.218-3.285,1.187,3.782-3.422-2,2.708,2.892-3.95-.316,3.7,1.432-3.7,1.43,3.95-.315-2.708,2.892,3.422-2-1.187,3.782,2.218-3.285.045.3.117.81.41,2.81.573-3.921,2.217,3.285-1.187-3.782,3.425,2-2.71-2.892,3.95.315Z" transform="translate(-734.275 -200.589)" fill="#f5d028"/></g></g></g></svg>