<svg xmlns="http://www.w3.org/2000/svg" xmlns:xlink="http://www.w3.org/1999/xlink" width="36" height="36" viewBox="0 0 36 36"><defs><clipPath id="a"><circle cx="18" cy="18" r="18" transform="translate(3366 426)" fill="#fff" stroke="#707070" stroke-width="1"/></clipPath></defs><g transform="translate(-3366 -426)" clip-path="url(#a)"><g transform="translate(24.127 16.001)"><rect width="61.715" height="36" transform="translate(3329.872 410)" fill="#6cb2dd"/><rect width="30.924" height="15.462" transform="translate(3329.872 410)" fill="#192967"/><path d="M129.872,514.419v1.729l27.466,13.734H160.8v-1.729l-27.466-13.734Z" transform="translate(3200 -104.419)" fill="#fff"/><path d="M160.8,514.419v1.729l-27.466,13.734h-3.457v-1.729l27.466-13.734Z" transform="translate(3200 -104.419)" fill="#fff"/><rect width="5.153" height="15.462" transform="translate(3342.757 409.999)" fill="#fff"/><rect width="30.924" height="5.153" transform="translate(3329.872 415.154)" fill="#fff"/><rect width="30.924" height="3.093" transform="translate(3329.872 416.185)" fill="#bc0030"/><rect width="3.092" height="15.462" transform="translate(3343.787 409.999)" fill="#bc0030"/><path d="M129.872,533.467l10.308-5.154h2.3l-10.308,5.154Z" transform="translate(3200 -108.005)" fill="#c0003b"/><path d="M129.872,514.419l10.308,5.154h-2.305l-8-4Z" transform="translate(3200 -104.419)" fill="#c0003b"/><path d="M154.553,519.573l10.308-5.154h2.3l-10.308,5.154Z" transform="translate(3193.63 -104.419)" fill="#c0003b"/><path d="M167.967,533.467l-10.308-5.154h2.305l8,4Z" transform="translate(3192.829 -108.005)" fill="#c0003b"/><g transform="translate(66 -27)"><path d="M184.6,529.846v8.186c.166,5.048,2.7,6.857,6.24,8.342,4.054-1.792,6.114-3.992,6.114-8.342v-8.186Z" transform="translate(3112.88 -81.396)" fill="#fff"/><path d="M190.824,546.428l-.027-.01c-3.759-1.578-6.12-3.533-6.28-8.4v-8.255H197v8.252c0,4.088-1.726,6.445-6.154,8.4Zm-6.175-16.534v8.121c.158,4.805,2.383,6.675,6.173,8.27,4.352-1.93,6.049-4.251,6.049-8.27v-8.121Z" transform="translate(3112.897 -81.379)"/><path d="M184.6,540a13.667,13.667,0,0,0,.291,2.379l11.807-.007A14.1,14.1,0,0,0,196.99,540Z" transform="translate(3112.88 -83.502)" fill="#c0003b"/><path d="M190.894,534.815l0,11.967c.584.291,1.33.624,1.33.624s.5-.322,1.045-.6l0-12Z" transform="translate(3111.575 -82.427)" fill="#c0003b"/><rect width="12.39" height="4.415" transform="translate(3297.462 448.414)" fill="#c0003b"/><path d="M185.326,532.415h.006a.464.464,0,0,1,.392.511v.008a.464.464,0,0,1-.392.511h-.006a.464.464,0,0,1-.392-.511v-.008a.464.464,0,0,1,.392-.511" transform="translate(3112.811 -81.929)" fill="#f3edeb"/><path d="M185.33,533.451h-.007a.471.471,0,0,1-.4-.518c0-.294.179-.526.4-.526a.47.47,0,0,1,.406.518c0,.294-.178.526-.4.526m0-1.03a.457.457,0,0,0-.392.5c0,.286.173.512.384.512h.007a.457.457,0,0,0,.384-.5c0-.286-.173-.512-.384-.512" transform="translate(3112.813 -81.927)"/><path d="M195.537,531.62a2.014,2.014,0,0,0,.963-.291c.25-.245-.17-.687.1-.734a.476.476,0,0,1,.375.146c-.019-.093-.09-.146-.117-.2a.489.489,0,0,0-.339-.069c-.1.015-.116-.015-.276-.176a.386.386,0,0,1-.018-.4.273.273,0,0,0-.134.328,1.915,1.915,0,0,1,.09.291.894.894,0,0,0-.659-.252c-.509-.031-1.793.306-2.373.306a7.451,7.451,0,0,1-1.417-.207s.214-.146-.044-.207-.829.215-.99.061c-.117-.144-.071-.114-.09-.183-.044.023-.071.115-.009.238s.1.083.09.083-.205,0-.223.061c-.019.046-.045.1.053.268.036-.168-.1-.191.2-.206a3.176,3.176,0,0,1,.749.137c.25.038.25-.091.259-.084a5.6,5.6,0,0,0,1.462.145,22.286,22.286,0,0,1,2.338-.3c.517.068.856.389.864.688-.008.183-.231.274-.41.305-.214.03-.713.076-.713.076Z" transform="translate(3111.668 -81.408)" fill="#f5d028"/><path d="M195.534,531.625h0l-.277-.169c0-.012.5-.057.716-.087.092-.017.395-.086.405-.3-.009-.281-.332-.612-.859-.682a5.316,5.316,0,0,0-1.294.145,9.027,9.027,0,0,1-1.042.153,5.629,5.629,0,0,1-1.466-.146,6.739,6.739,0,0,0,1.465.134,9.18,9.18,0,0,0,1.041-.154,5.115,5.115,0,0,1,1.3-.144c.554.074.862.412.87.694-.01.224-.32.3-.415.312-.214.03-.713.076-.713.076l.277.156a1.994,1.994,0,0,0,.958-.289c.126-.123.078-.3.036-.448-.028-.1-.051-.188-.017-.24a.117.117,0,0,1,.082-.048.5.5,0,0,1,.38.147.6.6,0,0,0-.086-.132.358.358,0,0,0-.307-.124l-.107,0v.006c-.063,0-.1-.035-.2-.139a.4.4,0,0,1-.062-.448.283.283,0,0,0-.122.329,1.355,1.355,0,0,0,.057.171.316.316,0,0,1,.033.122,1.007,1.007,0,0,0-.667-.246c-.323.028-.786.076-1.215.151a8.058,8.058,0,0,1-1.156.155,7.489,7.489,0,0,1-1.42-.207c0-.013.088-.074.078-.129-.006-.034-.048-.059-.122-.078a1.286,1.286,0,0,0-.459.051c-.226.05-.453.086-.534.009-.085-.106-.086-.121-.086-.147-.036-.012-.065.071,0,.194a.188.188,0,0,0,.062.082c-.114.016-.185.036-.194.067-.02.048-.042.1.052.263a.87.87,0,0,0-.01-.113.175.175,0,0,1,.016-.038.684.684,0,0,1-.006.156c-.109-.165-.086-.222-.067-.269s.135-.065.2-.068c-.024,0-.046-.029-.07-.074-.066-.132-.032-.224.013-.247a.317.317,0,0,0,.1.185c.074.071.3.035.522-.013a1.318,1.318,0,0,1,.465-.051c.08.02.124.049.132.088.011.063-.078.126-.085.131h0a8.846,8.846,0,0,0,1.412.2,8.3,8.3,0,0,0,1.155-.155,8.165,8.165,0,0,1,1.145-.154.965.965,0,0,1,.7.225c.029,0,.017-.034,0-.082a1.425,1.425,0,0,1-.057-.172.278.278,0,0,1,.136-.335.412.412,0,0,0,.025.4c.145.147.176.178.233.178l.107,0a.4.4,0,0,1,.275.071.54.54,0,0,1,.118.2.525.525,0,0,0-.351-.139c-.064.007-.088.021-.1.042-.031.048-.008.133.019.231.04.147.09.332-.041.461a2.022,2.022,0,0,1-.966.292Zm-3.989-.995a.588.588,0,0,1-.085-.007,1.972,1.972,0,0,1-.264-.063,1.535,1.535,0,0,0-.431-.077,1.125,1.125,0,0,0-.213.021.312.312,0,0,1,.159-.031,1.412,1.412,0,0,1,.488.074,2.019,2.019,0,0,0,.262.063c.2.029.235-.047.247-.074h.006c-.006.03-.036.092-.17.092" transform="translate(3111.669 -81.406)"/><path d="M195.286,532.291c-.009,0-.476.011-.614.263a1.719,1.719,0,0,0-.192.493c.01,0,.312-.208.312-.208a1.151,1.151,0,0,0-.1.789c.121.372-.319.35-.575.362a2.084,2.084,0,0,0-.6-.329c-.081-.039-.238-.044-.4.19-.1.143.143-.135.382-.114a.225.225,0,0,1,.048.143c-.128-.011-.26-.2-.416.186.156-.132.175-.129.255-.137.105-.01.091.061.087.061s-.06.01-.125.087c-.035.055-.121.175-.1.175s.07-.066.15-.121c.052-.044.1-.044.253.011.839.251,1.29.066,1.343-.033a1.179,1.179,0,0,1,.875-1.61c-.017-.011-.572-.2-.572-.208" transform="translate(3111.119 -81.903)" fill="#f5d028"/><path d="M194.422,534.272h0a2.716,2.716,0,0,1-.772-.127c-.155-.056-.193-.06-.249-.012a.936.936,0,0,0-.1.083l-.022.008a1.064,1.064,0,0,1,.12-.1c.056-.047.1-.047.256.011a1.674,1.674,0,0,0,1.337-.032c-.2-.906.1-1.423.877-1.611a1.573,1.573,0,0,1-.209-.067c-.351-.123-.365-.13-.365-.137s-.469.015-.606.266a1.778,1.778,0,0,0-.192.489c.007-.006.188-.128.306-.211a1.243,1.243,0,0,0-.1.791.253.253,0,0,1-.012.231c-.085.121-.312.129-.495.134l-.012-.006c.226-.009.423-.024.5-.132a.248.248,0,0,0,.011-.223,1.164,1.164,0,0,1,.1-.793,3.559,3.559,0,0,1-.308.216,1.484,1.484,0,0,1,.187-.5c.14-.254.614-.266.618-.266s.216.082.364.133c.126.044.2.072.211.076a1.123,1.123,0,0,0-.886,1.534c.013.056.017.075.013.082-.033.062-.219.162-.575.162m-1.283-.2c.089-.25.211-.265.325-.22a.4.4,0,0,0,.089.026.271.271,0,0,0-.033-.109.169.169,0,0,1,.036.113.236.236,0,0,1-.1-.023c-.082-.033-.173-.156-.321.211.145-.132.17-.135.243-.142s.1.021.1.052l-.01.006-.066-.052c-.1.009-.122.011-.271.137m.01-.2c.006-.013.012-.024.018-.036a.748.748,0,0,1,.311-.1l.012.009a.655.655,0,0,0-.341.13m.767-.032a2.713,2.713,0,0,0-.393-.174.24.24,0,0,0-.262.044.223.223,0,0,1,.266-.052,2.076,2.076,0,0,1,.39.182" transform="translate(3111.109 -81.902)"/><path d="M188.511,533.5c.557.5,4.318-.537,4.795-.9.273-.208.75-.361.75.35a3.716,3.716,0,0,0,.121-.591,1.75,1.75,0,0,1,.355.778c.04-.526-.071-.832-.01-.789.041-.044.041.263.365.69-.071-.34-.091-.493-.091-.493a3.317,3.317,0,0,0,.953.723c.344.087.841-.176.993-.022s.415.427.406.647-.568.033-.629.208.04.175.04.175.052.132.092.241c.03-.077-.031-.241.081-.251.082.01.082.153.1.23.023-.088,0-.263.071-.263.08-.018.09.14.151.241v-.241c.233-.077.436-.088.466-.252s-.354-.537-.445-.778.071-.34-.1-.472-.831.208-1.135.077-.182-1.073-1.328-1.281-4.246,1.1-4.794,1.15a3.35,3.35,0,0,1-1.217-.186Z" transform="translate(3112.071 -81.74)" fill="#f5d028"/><path d="M196.648,534.53l-.042-.11.041.078a.4.4,0,0,0,0-.085c0-.07,0-.15.077-.157.067.009.082.1.1.173.017-.124.021-.206.077-.206h0c.059,0,.08.06.1.129a.655.655,0,0,0,.05.116l-.011-.239.155-.049c.162-.044.289-.079.312-.2.017-.092-.1-.258-.222-.419a1.837,1.837,0,0,1-.224-.356.493.493,0,0,1-.023-.255.189.189,0,0,0-.076-.214c-.072-.056-.269-.018-.485.033a1.289,1.289,0,0,1-.648.044c-.1-.044-.156-.174-.224-.338a1.328,1.328,0,0,0-1.1-.943,10.661,10.661,0,0,0-3.643.809,8.669,8.669,0,0,1-1.149.341,3.234,3.234,0,0,1-1.22-.186l.018,1a.992.992,0,0,0,.609.129,12.553,12.553,0,0,0,4.176-1.031.789.789,0,0,1,.428-.175c.151,0,.331.091.331.529a4.835,4.835,0,0,0,.11-.591,1.634,1.634,0,0,1,.365.776,3.941,3.941,0,0,0-.03-.663c-.01-.084-.013-.118,0-.13.036,0,.048.021.067.08a1.976,1.976,0,0,0,.32.613c-.082-.335-.1-.488-.1-.488a3.691,3.691,0,0,0,.96.717,1.448,1.448,0,0,0,.542-.032c.207-.04.382-.06.454.011.136.138.417.424.407.651-.006.122-.169.124-.326.127-.136,0-.276,0-.3.082a.227.227,0,0,0-.017.121.16.16,0,0,1,.006-.124c.03-.086.174-.089.313-.091s.31,0,.315-.115c.01-.223-.27-.506-.4-.643-.067-.068-.242-.047-.443-.007a1.41,1.41,0,0,1-.548.031,3.3,3.3,0,0,1-.952-.721c.011.025.034.18.1.483a1.8,1.8,0,0,1-.333-.611c-.012-.037-.025-.076-.031-.076-.025,0-.017.061-.01.121a3.247,3.247,0,0,1,.018.667,1.909,1.909,0,0,0-.363-.773,2.44,2.44,0,0,1-.113.587c-.017-.538-.365-.642-.751-.347a12.568,12.568,0,0,1-4.184,1.034.98.98,0,0,1-.618-.136l-.013-1.012h0a3.627,3.627,0,0,0,1.221.181,8.864,8.864,0,0,0,1.146-.34,10.691,10.691,0,0,1,3.649-.81,1.338,1.338,0,0,1,1.112.95c.067.163.12.29.217.331a1.23,1.23,0,0,0,.642-.044c.22-.052.418-.09.495-.031a.2.2,0,0,1,.08.224.467.467,0,0,0,.023.249,1.821,1.821,0,0,0,.222.354c.124.17.243.331.224.427-.025.132-.155.167-.32.212l-.15.044,0,.236a.306.306,0,0,1-.062-.115c-.055-.158-.141-.1-.149.03a.581.581,0,0,1-.013.108c-.036-.136-.049-.218-.107-.226-.067.007-.066.075-.065.146a.294.294,0,0,1-.01.1Z" transform="translate(3112.073 -81.738)"/><path d="M187.1,533.52s-.593.741-.992.726-.724-.519-.812-.484-.108-.041-.141-.177.037-.2.035-.189c.02.006.044.223.061.241s-.067-.27.056-.268c.041,0,.034.205.073.3.013-.01-.042-.306.01-.307s.074.3.154.391a.9.9,0,0,0,.537.3c.251-.036.846-.706.894-.68Z" transform="translate(3112.767 -82.125)" fill="#f5d028"/><path d="M186.164,534.251h-.012a1.17,1.17,0,0,1-.629-.359.937.937,0,0,0-.147-.12.518.518,0,0,1,.154.112,1.152,1.152,0,0,0,.622.356l.012.006v0c.392,0,.971-.717.977-.724l-.124-.138a1.346,1.346,0,0,0-.23.2,2.072,2.072,0,0,1-.659.487.894.894,0,0,1-.542-.305.658.658,0,0,1-.09-.239c-.019-.074-.039-.15-.059-.15-.027.025-.016.14-.009.216s.007.086,0,.09a.49.49,0,0,1-.041-.169.714.714,0,0,0-.018-.109.22.22,0,0,1,.029.107.807.807,0,0,0,.028.151c0-.016-.006-.044-.009-.07a.439.439,0,0,1,.006-.22c.033-.014.056.049.082.152a.655.655,0,0,0,.089.234.875.875,0,0,0,.534.3,2.06,2.06,0,0,0,.652-.484c.139-.128.212-.2.237-.2l.132.147c-.006.014-.587.735-.984.735" transform="translate(3112.721 -82.125)"/><path d="M187.128,532.812s-.487-.779-.882-.854-.781.3-.862.247-.112.013-.162.124.01.185.01.172c.021,0,.071-.185.092-.2s-.1.223.02.247c.04.013.061-.173.112-.247.01.013-.082.26-.03.272s.111-.246.2-.309a.864.864,0,0,1,.568-.148c.243.086.74.8.79.792Z" transform="translate(3112.755 -81.833)" fill="#f5d028"/><path d="M186.983,532.915c-.022,0-.087-.077-.209-.223a2.294,2.294,0,0,0-.581-.57.847.847,0,0,0-.563.148.5.5,0,0,0-.118.186c-.032.069-.058.124-.084.124-.036-.041-.012-.132.007-.206-.049.131-.064.182-.088.182a.174.174,0,0,1-.025-.031c.042.008.059-.039.075-.086a.582.582,0,0,1,.054-.138.873.873,0,0,0-.032.265c.025-.006.056-.052.085-.113a.5.5,0,0,1,.121-.189.855.855,0,0,1,.57-.15,2.286,2.286,0,0,1,.587.573,1.376,1.376,0,0,0,.2.219l.142-.1c-.006,0-.491-.771-.881-.845a1.1,1.1,0,0,0-.658.177.576.576,0,0,1-.183.074c-.111-.018-.138.031-.177.117a.155.155,0,0,0,.006.167.514.514,0,0,0,.044-.1.291.291,0,0,1,.044-.1c-.009.052-.022.1-.026.147a.266.266,0,0,1,.018-.112c-.055.14-.068.17-.081.17a.156.156,0,0,1-.015-.179c.041-.089.068-.144.117-.144a.313.313,0,0,0,.248-.052,1.078,1.078,0,0,1,.664-.178c.393.074.881.848.886.856Z" transform="translate(3112.756 -81.831)"/><path d="M187.183,532.73l-.537.285.4.109-.284.35.406-.142-.03.471.232-.307.153.427.162-.318.193.351.082-.34.233.34.08-.461.285.285-.04-.481.344.121-.212-.373s.375-.021.354-.021a2.129,2.129,0,0,0-.517-.307Z" transform="translate(3112.456 -81.992)" fill="#f5d028"/><path d="M188.19,533.968l-.239-.349-.073.338-.2-.349-.154.317-.161-.428-.225.309.022-.475-.4.147.279-.358-.393-.1.536-.293,1.3-.012a1.534,1.534,0,0,1,.455.263l.059.042a2.025,2.025,0,0,0-.516-.3l-1.3.01-.535.285.395.1-.282.358.4-.151-.025.476.225-.311.16.429.154-.318.2.35.073-.338.235.329.078-.45.292.283-.048-.478.35.116-.218-.366c0-.007.344-.026.358-.029l.006,0a2.015,2.015,0,0,1-.36.026l.216.366-.35-.114.046.476-.292-.281Z" transform="translate(3112.456 -81.991)"/><path d="M187.606,532.573l-.294.161.216.063-.155.2.222-.08-.017.267.128-.174.083.243.09-.181.105.2.044-.193.128.193.044-.261.155.162-.021-.273.188.068-.116-.21.194-.013a1.178,1.178,0,0,0-.284-.174Z" transform="translate(3112.318 -81.961)" fill="#f5d028"/><path d="M188.157,533.279l-.133-.2-.037.191-.113-.2-.082.18-.091-.243-.12.175.01-.27-.216.084.151-.2-.215-.057.293-.169.713-.006a.832.832,0,0,1,.25.148l.012.011a1.123,1.123,0,0,0-.262-.152l-.709.006-.292.161.216.056-.154.2.217-.087-.011.271.12-.177.091.243.082-.181.113.2.036-.191.129.183.042-.251.163.159-.029-.27.194.064-.121-.2a1.638,1.638,0,0,1,.182-.018.561.561,0,0,1-.178.02l.119.2-.193-.063.027.27-.162-.159Z" transform="translate(3112.318 -81.96)"/><path d="M187.815,531.572s-.151-.131-.213,0,.132.078.132.1a.8.8,0,0,0-.132.35,3.523,3.523,0,0,0,.1.515.248.248,0,0,0,.183.208c.143.044.193-.142.223-.165s.223.033.294-.153a1.906,1.906,0,0,0,.071-.526s.121.1.121-.1-.132,0-.132,0,.021-.208-.294-.307-.344.1-.355.077" transform="translate(3112.26 -81.732)" fill="#f5d028"/><path d="M187.93,532.756l-.043-.006a.252.252,0,0,1-.186-.213.774.774,0,0,0-.026-.114,1.875,1.875,0,0,1-.075-.4.486.486,0,0,1,.056-.212.683.683,0,0,0-.046.212,1.853,1.853,0,0,0,.074.4.759.759,0,0,1,.027.116.244.244,0,0,0,.18.2l.04.006c.078,0,.122-.077.151-.128l.08-.049a.23.23,0,0,0,.241-.143,1.925,1.925,0,0,0,.071-.524c.114.018.122-.044.121-.1,0-.038,0-.083-.029-.083s-.078.062-.094.086c-.008,0,.007-.208-.3-.305-.214-.068-.313.027-.338.065h-.01c.031-.05.134-.144.352-.075.288.092.3.276.3.308.01-.033.132-.145.132,0,0,.112-.039.127-.071.126-.05,0-.054.321-.122.5a.236.236,0,0,1-.248.149l-.073.045c-.029.053-.075.133-.159.133" transform="translate(3112.258 -81.732)"/><path d="M187.781,531.4c-.041-.125-.159-.606-.159-.606l.263.177c-.089-.034-.165-.054-.155-.054s.119.231.119.231a.861.861,0,0,1,.337.085,1.806,1.806,0,0,0,.091-.191.3.3,0,0,1-.058-.03l.235-.183-.071.242h-.048l-.091.177a.5.5,0,0,1,.269.162.452.452,0,0,0,.218-.163c-.084-.036-.123-.064-.113-.065l.351.023a4.337,4.337,0,0,1-.52.469,5.752,5.752,0,0,1-.666-.274" transform="translate(3112.253 -81.592)" fill="#f5d028"/><path d="M188.446,531.679h0c-.069-.032-.178-.071-.288-.112a1.38,1.38,0,0,1-.381-.166c-.041-.126-.159-.606-.159-.606l.272.17-.132-.034s.041.094.071.156c-.047-.068-.09-.154-.1-.166l.159.044-.267-.166c.014.021.127.476.167.6a1.831,1.831,0,0,0,.374.159c.109.04.216.08.285.111a4.405,4.405,0,0,0,.516-.466c-.016.006-.309-.013-.343-.014.011,0,.044.025.113.054a.4.4,0,0,1-.219.174.537.537,0,0,0-.272-.163l.207-.426h0l0,0-.062.248-.14.178a.445.445,0,0,1,.268.156.469.469,0,0,0,.209-.163c-.006,0-.119-.045-.116-.062s.358.017.358.017a3.24,3.24,0,0,1-.517.48Zm-.257-.445-.1-.028a.64.64,0,0,0-.218-.056l-.006-.007a.489.489,0,0,1,.228.052l.088.031c.023-.052.065-.137.079-.171a.507.507,0,0,1-.076.179" transform="translate(3112.255 -81.593)"/><path d="M187.983,531.985h0c.057.029.081.051.052.048h0a.634.634,0,0,1-.156-.06h0c-.058-.029-.082-.05-.053-.047h0a.67.67,0,0,1,.156.059" transform="translate(3112.213 -81.828)"/><path d="M188.367,532.151h0c.058.029.082.051.053.048h0a.661.661,0,0,1-.156-.06h0c-.058-.029-.082-.05-.053-.047h0a.639.639,0,0,1,.156.059" transform="translate(3112.134 -81.862)"/><path d="M188.08,532.6h0c.113.042.159.072.1.067h0a1.582,1.582,0,0,1-.3-.084h0c-.113-.042-.159-.071-.1-.067h0a1.5,1.5,0,0,1,.305.083" transform="translate(3112.227 -81.951)"/><path d="M188.1,532.4h0c.05.021.071.036.047.033h0a.606.606,0,0,1-.136-.042h0c-.051-.02-.071-.035-.047-.032h0a.71.71,0,0,1,.136.041" transform="translate(3112.184 -81.916)"/><path d="M188.043,532.448h0c.015-.047.029-.069.032-.048a.432.432,0,0,1-.022.123h0c-.015.046-.029.068-.032.048h0a.359.359,0,0,1,.022-.122" transform="translate(3112.171 -81.924)"/><path d="M185.7,543.689l-.244-.428.348.418.015.17Z" transform="translate(3112.703 -84.178)" fill="#30770e"/><path d="M185.823,543.864l-.128-.173-.244-.428.354.414Zm-.373-.6.361.571-.014-.155Z" transform="translate(3112.704 -84.178)"/><path d="M185.849,543.778l.039-.311.107.377-.1.059Z" transform="translate(3112.621 -84.221)" fill="#30770e"/><path d="M185.895,543.908l-.051-.129.038-.314.115.376Z" transform="translate(3112.622 -84.22)"/><path d="M185.629,543.935l-.411-.214.34.105.222.125Z" transform="translate(3112.752 -84.273)" fill="#30770e"/><path d="M185.78,543.957l-.151-.017-.412-.215.343.1.223.125Zm-.563-.231.413.206.13.013-.2-.114Z" transform="translate(3112.752 -84.274)"/><path d="M185.727,544.112l-.624-.179.488.019.166.027Z" transform="translate(3112.775 -84.317)" fill="#30770e"/><path d="M185.73,544.119l0,0-.624-.179.656.037Zm-.626-.18.62.169.029-.128-.163-.022Z" transform="translate(3112.776 -84.318)"/><path d="M185.924,543.884l.381-.06-.134.241-.289-.1Z" transform="translate(3112.614 -84.295)" fill="#30770e"/><path d="M186.173,544.069l-.292-.1.039-.084.385-.063Z" transform="translate(3112.614 -84.294)"/><path d="M186.137,544.044l.485.2-.406-.06-.345-.2Z" transform="translate(3112.616 -84.328)" fill="#30770e"/><path d="M186.62,544.249l-.406-.059-.346-.2.269.052.486.2Zm-.751-.26.347.192.37.055-.453-.187Z" transform="translate(3112.617 -84.329)"/><path d="M186.207,544.15l.517.292-.461-.168-.381-.3Z" transform="translate(3112.614 -84.327)" fill="#30770e"/><path d="M186.721,544.448l-.461-.168-.383-.3.848.457Zm-.843-.464.386.288.411.15Z" transform="translate(3112.615 -84.328)"/><path d="M186.214,544.253l.3.444-.467-.5-.146-.209Z" transform="translate(3112.61 -84.329)" fill="#30770e"/><path d="M186.509,544.7l-.613-.71.319.26.3.445Zm-.612-.709.151.2.429.459-.267-.4Z" transform="translate(3112.611 -84.329)"/><path d="M186.137,544.262l.008.285-.227-.419-.02-.146Z" transform="translate(3112.611 -84.328)" fill="#30770e"/><path d="M186.14,544.55l-.227-.419-.02-.147.247.275.008.289Zm-.246-.564.027.142.218.4-.007-.268Z" transform="translate(3112.612 -84.328)"/><path d="M185.994,544.18l-.225.173.011-.311.1-.029Z" transform="translate(3112.637 -84.334)" fill="#30770e"/><path d="M185.763,544.361l.012-.32.1-.032.117.169Z" transform="translate(3112.639 -84.333)"/><path d="M185.648,543.729l-.165-.242.225.24.109.166Z" transform="translate(3112.697 -84.225)" fill="#30770e"/><path d="M185.813,543.9l-.169-.163-.165-.243.231.235.109.167Z" transform="translate(3112.698 -84.225)"/><path d="M185.8,543.842l-.164-.306.239.331.033.093Z" transform="translate(3112.665 -84.235)" fill="#30770e"/><path d="M185.9,543.963l-.108-.118-.164-.307.277.422Z" transform="translate(3112.666 -84.235)"/><path d="M185.744,543.991l-.432-.189.365.11.159.083Z" transform="translate(3112.732 -84.29)" fill="#30770e"/><path d="M185.836,544l-.092,0-.434-.189.527.187Z" transform="translate(3112.732 -84.291)"/><path d="M185.987,544.011l.4.117-.3-.048-.156-.057Z" transform="translate(3112.604 -84.333)" fill="#30770e"/><path d="M186.382,544.134l-.455-.106.414.094-.032-.01.074.017Z" transform="translate(3112.605 -84.337)"/><path d="M185.992,544.111l-.119.079.062-.117-.007-.056Z" transform="translate(3112.616 -84.335)" fill="#30770e"/><path d="M186.178,544.19l.254.317-.214-.228-.262-.25Z" transform="translate(3112.599 -84.338)" fill="#30770e"/><path d="M186.429,544.512l-.476-.478.227.153.254.319Zm-.476-.477.408.392-.187-.233Z" transform="translate(3112.599 -84.338)"/><path d="M186.114,544.07l.071-.084.024.161-.242-.107Z" transform="translate(3112.596 -84.328)" fill="#30770e"/><path d="M185.779,543.778l-.108-.319.176.331.016.1Z" transform="translate(3112.658 -84.219)" fill="#30770e"/><path d="M185.861,543.892l-.084-.113-.109-.319.2.43Z" transform="translate(3112.658 -84.219)"/><path d="M187.333,544.531c.059-.044.494-1.026,2.561-.882a8.419,8.419,0,0,0-2.079,1.576c-.129.044-.411-.535-.482-.694" transform="translate(3112.313 -84.256)" fill="#fff"/><path d="M187.8,545.235c-.163,0-.474-.7-.477-.7a2.59,2.59,0,0,1,2.572-.9,5.915,5.915,0,0,0-1.76,1.32,1.288,1.288,0,0,1-.318.278Zm1.694-1.592a2.415,2.415,0,0,0-2.12.85c.069.256.312.72.426.72v.011l.011-.013a1.323,1.323,0,0,0,.308-.272,5.582,5.582,0,0,1,1.771-1.3c-.137.011-.27.007-.4.007" transform="translate(3112.316 -84.252)"/><path d="M189.782,543.985a2.9,2.9,0,0,1-.64.235c.083.047.267.018.476.094-.186.006-.532.194-.676.2.1.079.454,0,.519.023-.19.016-.494.211-.685.211-.086.088.442-.06.655.106-.22-.015-.646.152-.877.112.176.137.49-.014.752.134a4.267,4.267,0,0,1-.9.059c.128.086.516.07.611.147-.16-.028-.587.091-.736.044.134.128.537.055.61.132-.262.121-.662.025-.846.057.124.077.226.154.334.225a4.618,4.618,0,0,0,.952.689c-.328-.056-.443-.064-.655-.086l.482.678c-.2-.143-.556-.415-.791-.556-.521-.338-.9-.28-1.259-.568a4.5,4.5,0,0,1-.813-1.638c-.027-.208-.048-.579-.511-.385.446-.077.128-.559.594-.559.281,0,.245.27.35.45a2.748,2.748,0,0,0,.651.607,2.081,2.081,0,0,1,2.4-.41" transform="translate(3112.634 -84.194)" fill="#fff"/><path d="M189.186,547.05l-.181-.132c-.194-.143-.434-.319-.61-.423a2.534,2.534,0,0,0-.688-.3,1.625,1.625,0,0,1-.572-.266,4.52,4.52,0,0,1-.819-1.648c-.027-.222-.078-.483-.365-.415l.011-.009.007-.008a.541.541,0,0,0,.123-.258c.036-.133.071-.27.322-.27.208,0,.253.145.3.285a.815.815,0,0,0,.067.172,2.748,2.748,0,0,0,.641.6,2.054,2.054,0,0,1,2.4-.408,2.259,2.259,0,0,1-.638.261.706.706,0,0,1,.163.006,1.249,1.249,0,0,1,.309.06c-.1.032-.243.086-.379.137a1.363,1.363,0,0,1-.287.09c.038,0,.09.007.166.007s.128-.006.185-.01.086-.007.116-.007l-.014.011a.409.409,0,0,1,.05-.007.478.478,0,0,1-.077.024,2.11,2.11,0,0,1-.237.107,1.222,1.222,0,0,1-.351.109l-.029-.025a1.246,1.246,0,0,0,.369-.11c.063-.027.125-.052.183-.071h-.007a.743.743,0,0,1-.377-.03l.3-.116a1.424,1.424,0,0,1,.384-.11l-.307-.029a.457.457,0,0,1-.176-.036c.166-.055.326-.123.642-.262a2.181,2.181,0,0,0-2.387.435,2.477,2.477,0,0,1-.672-.611.826.826,0,0,1-.07-.178c-.044-.142-.081-.265-.267-.265-.227,0-.258.116-.292.249a.434.434,0,0,1-.115.231c.258-.061.313.242.335.419a4.422,4.422,0,0,0,.814,1.661,1.585,1.585,0,0,0,.56.258,2.551,2.551,0,0,1,.7.306c.175.1.416.281.612.425l.105.077-.428-.6.1-.014c.161.017.285.029.565.078a3.564,3.564,0,0,1-.964-.664l-.129-.089c-.064-.044-.13-.09-.2-.135.078-.072.166-.034.273-.029a1.387,1.387,0,0,0,.574-.055c-.032,0-.128-.01-.23-.015a.653.653,0,0,1-.384-.093.225.225,0,0,1,.107-.014,2.509,2.509,0,0,0,.3-.03,2.2,2.2,0,0,1,.281-.029,2.091,2.091,0,0,0-.227-.035.922.922,0,0,1-.333-.081.5.5,0,0,1,.168-.015,6.3,6.3,0,0,0,.728-.068,1.045,1.045,0,0,0-.334-.044l-.139,0a.43.43,0,0,1-.277-.067l.09-.02a2.024,2.024,0,0,0,.4-.063,1.949,1.949,0,0,1,.363-.057.812.812,0,0,0-.332-.052l-.246.009-.029-.032.274-.007a.594.594,0,0,1,.37.087c-.133.025-.26.053-.395.082a1.491,1.491,0,0,1-.493.056.915.915,0,0,0,.27.034l.139,0a.694.694,0,0,1,.354.074,2.733,2.733,0,0,1-.91.086c.074.015.2.032.331.049a.745.745,0,0,1,.292.071c-.143.023-.244.037-.347.052a1.2,1.2,0,0,1-.4.018,1.109,1.109,0,0,0,.38.059c.117.006.209.012.246.05a1.047,1.047,0,0,1-.594.082,1.116,1.116,0,0,0-.26,0,.622.622,0,0,1,.208.109l.131.089a4.6,4.6,0,0,0,.949.687c-.287-.02-.411-.032-.572-.049l-.09-.009.5.655Z" transform="translate(3112.6 -84.19)"/><path d="M194.286,547.657a.5.5,0,0,1,.019-.3,1.09,1.09,0,0,1,.235-.288c.139-.052.185,0,.367-.194.059-.125.147-.22.2-.355.119-.2.158-.3.253-.449a3.969,3.969,0,0,0,.3-.423,1.62,1.62,0,0,1,.264-.381,1.013,1.013,0,0,1,.263-.38c.09-.185.263-.4.337-.549a4.976,4.976,0,0,0,.3-.423,2.3,2.3,0,0,1,.414-.3c.191-.09.293-.179.419-.042.082.094.232.244.128.356a.187.187,0,0,1-.247.025c-.106-.078-.158-.3-.3-.127a2.969,2.969,0,0,1-.3.38,1.963,1.963,0,0,0-.188.381,1.561,1.561,0,0,0-.226.422,1.27,1.27,0,0,0-.225.381,1.393,1.393,0,0,0-.225.38c-.142.153-.195.282-.3.381a1.752,1.752,0,0,1-.263.422,4.053,4.053,0,0,0-.187.38c-.12.137-.125.167-.3.38a2.161,2.161,0,0,1-.327.438.318.318,0,0,1-.407-.118" transform="translate(3110.875 -84.228)" fill="#28620a"/><path d="M194.548,547.812a.356.356,0,0,1-.27-.152.492.492,0,0,1,.017-.308l.048-.074a.773.773,0,0,1,.189-.219.618.618,0,0,1,.1-.029.434.434,0,0,0,.266-.165,1.333,1.333,0,0,1,.088-.152,1.087,1.087,0,0,0,.109-.2c.059-.1.1-.174.135-.241s.071-.132.118-.209a3.97,3.97,0,0,0,.3-.422,1.6,1.6,0,0,1,.264-.382,1.034,1.034,0,0,1,.263-.38,2.5,2.5,0,0,1,.184-.3,2.321,2.321,0,0,0,.152-.248,4.916,4.916,0,0,0,.3-.423l.1-.082a1.4,1.4,0,0,1,.315-.216l.082-.041c.148-.074.247-.107.346,0s.231.258.128.367a.2.2,0,0,1-.258.027.441.441,0,0,1-.086-.1c-.06-.08-.119-.136-.2-.033l-.088.121a1.689,1.689,0,0,1-.213.26,1.9,1.9,0,0,0-.185.377,1.564,1.564,0,0,0-.227.422,1.288,1.288,0,0,0-.225.381,1.416,1.416,0,0,0-.225.38,1.934,1.934,0,0,0-.163.211,1.059,1.059,0,0,1-.139.174,1.762,1.762,0,0,1-.263.422c-.064.119-.129.244-.185.379-.062.071-.093.113-.132.165s-.083.111-.17.217l-.091.142a1.541,1.541,0,0,1-.235.3.419.419,0,0,1-.15.033m2.968-4.3a.489.489,0,0,0-.2.071l-.083.042a1.3,1.3,0,0,0-.311.213l-.1.082c-.114.174-.166.249-.3.421a2.2,2.2,0,0,1-.153.247,2.755,2.755,0,0,0-.184.3,1.014,1.014,0,0,0-.262.38,1.614,1.614,0,0,0-.264.382,4.022,4.022,0,0,1-.3.424c-.047.076-.08.139-.117.208s-.075.142-.135.24a1.067,1.067,0,0,1-.109.2,1.31,1.31,0,0,0-.089.152.451.451,0,0,1-.275.172.729.729,0,0,0-.1.026.788.788,0,0,0-.182.215l-.048.071a.471.471,0,0,0-.02.283.334.334,0,0,0,.4.124,1.548,1.548,0,0,0,.23-.292l.092-.143c.088-.106.132-.167.17-.217s.071-.094.131-.163a4.2,4.2,0,0,1,.186-.38,1.745,1.745,0,0,0,.263-.422,1.082,1.082,0,0,0,.139-.174,1.757,1.757,0,0,1,.163-.209,1.384,1.384,0,0,1,.225-.38,1.25,1.25,0,0,1,.225-.381,1.516,1.516,0,0,1,.226-.422,1.909,1.909,0,0,1,.186-.38,1.712,1.712,0,0,0,.212-.258l.089-.122c.094-.115.165-.054.23.034a.438.438,0,0,0,.082.091.18.18,0,0,0,.236-.024c.092-.1-.03-.235-.111-.326-.059-.066-.1-.087-.147-.087" transform="translate(3110.876 -84.227)"/><path d="M196.367,546.673l0,0c.056.056-.08.286-.305.514l-.006.007c-.225.227-.453.366-.51.31h0c-.057-.056.079-.287.3-.515l.006-.005c.226-.228.454-.367.511-.311" transform="translate(3110.613 -84.883)" fill="#f5d028"/><path d="M195.585,547.522l-.043-.014a.252.252,0,0,1,0-.049v0l.043.043a1.022,1.022,0,0,0,.468-.32,1.355,1.355,0,0,0,.31-.425,1.065,1.065,0,0,1-.292.43,1.044,1.044,0,0,1-.486.331m-.04-.088a1.034,1.034,0,0,1,.3-.454,1.057,1.057,0,0,1,.487-.331.08.08,0,0,1,.024.028.847.847,0,0,0-.492.31,1.254,1.254,0,0,0-.318.448" transform="translate(3110.611 -84.881)"/><path d="M194.906,545.624h0c.074.031.036.3-.084.592l0,.009c-.121.3-.279.512-.354.482h0c-.074-.03-.036-.295.085-.592l0-.009c.12-.3.278-.512.353-.482" transform="translate(3110.842 -84.667)" fill="#f5d028"/><path d="M194.481,546.717l-.018,0c-.091-.037-.032-.336.077-.6.12-.292.266-.5.35-.5.109.04.049.339-.059.606-.119.292-.265.5-.349.5m.42-1.086c-.08,0-.22.179-.342.477-.133.326-.154.564-.093.59l.014,0c.066,0,.208-.18.33-.48.132-.325.154-.564.092-.59Z" transform="translate(3110.844 -84.666)"/><path d="M195.148,545.8h0c.073.033.027.3-.1.589l0,.009c-.13.292-.295.5-.369.47h0c-.072-.032-.026-.3.1-.589l0-.008c.131-.293.3-.5.369-.471" transform="translate(3110.798 -84.704)" fill="#f5d028"/><path d="M194.689,546.879l-.02,0c-.089-.04-.02-.336.1-.6.128-.286.279-.487.364-.487.072.027.065.129.051.21a1.75,1.75,0,0,1-.128.394c-.127.286-.278.487-.364.487m.454-1.072c-.082,0-.227.175-.357.465-.143.321-.171.56-.112.586l.015,0c.067,0,.214-.176.345-.469a1.8,1.8,0,0,0,.132-.4c.018-.1.011-.174-.02-.188Z" transform="translate(3110.8 -84.702)"/><path d="M195.667,546.213h0c.064.048-.035.3-.222.555l-.006.008c-.188.259-.392.432-.457.384l0,0c-.065-.046.035-.295.222-.554l.006-.008c.187-.259.392-.432.457-.384" transform="translate(3110.731 -84.789)" fill="#f5d028"/><path d="M195.013,547.175l-.032-.01a.237.237,0,0,1-.008-.054v.01l.039.036c.082,0,.264-.167.424-.388a1.138,1.138,0,0,0,.246-.506.97.97,0,0,1-.227.507c-.171.238-.355.4-.443.4m-.04-.078a1.03,1.03,0,0,1,.227-.5c.17-.238.354-.4.441-.4a.078.078,0,0,1,.025.025s0,0-.007,0c-.106,0-.285.165-.441.382a1.235,1.235,0,0,0-.246.5" transform="translate(3110.729 -84.786)"/><path d="M196.8,546.961l0,0c.052.061-.1.279-.347.487l-.006.006c-.244.208-.484.327-.536.266l0,0c-.052-.061.1-.279.346-.486l.008-.006c.243-.208.484-.327.535-.266" transform="translate(3110.537 -84.942)" fill="#f5d028"/><path d="M195.95,547.743l-.05-.018c-.063-.075.127-.313.346-.5a1.1,1.1,0,0,1,.5-.291.1.1,0,0,1,.025.03.929.929,0,0,0-.51.267c-.267.228-.4.43-.354.48l.039.015a1.094,1.094,0,0,0,.487-.28,1.461,1.461,0,0,0,.336-.379,1.521,1.521,0,0,1-.823.675" transform="translate(3110.539 -84.94)"/><path d="M196.6,546.835l0,0c.056.057-.083.285-.311.51l-.006.006c-.228.224-.459.36-.515.3l0,0c-.055-.056.084-.285.312-.509l.006-.007c.228-.224.459-.36.514-.3" transform="translate(3110.566 -84.916)" fill="#f5d028"/><path d="M195.812,547.675l-.044-.016a.228.228,0,0,1,0-.052v.008l.044.043a1.042,1.042,0,0,0,.471-.314,1.058,1.058,0,0,0,.328-.474c-.132-.041-.33.089-.515.271a1.238,1.238,0,0,0-.324.449,1.028,1.028,0,0,1,.307-.454,1.053,1.053,0,0,1,.489-.325l.06.06a1.037,1.037,0,0,1-.327.479,1.049,1.049,0,0,1-.489.325" transform="translate(3110.564 -84.914)"/><path d="M196.04,546.528l0,0c.065.047-.034.295-.222.555l-.006.007c-.187.26-.392.432-.457.385l0,0c-.065-.047.034-.295.221-.555l.006-.007c.188-.26.392-.432.457-.385" transform="translate(3110.654 -84.854)" fill="#f5d028"/><path d="M195.381,547.491l-.031-.009c-.079-.058.049-.334.218-.568s.356-.4.443-.4a.2.2,0,0,1,.017.048c-.12-.019-.29.149-.442.357-.2.285-.281.512-.228.551l.023.007c.082,0,.264-.167.424-.389a1.732,1.732,0,0,0,.219-.386,1.145,1.145,0,0,1-.2.388c-.17.237-.354.4-.442.4" transform="translate(3110.656 -84.852)"/><path d="M195.869,546.342l0,0c.065.047-.034.295-.221.555l-.006.007c-.188.26-.392.432-.457.385l0,0c-.065-.046.034-.295.222-.555l.006-.007c.187-.26.392-.432.457-.385" transform="translate(3110.689 -84.815)" fill="#f5d028"/><path d="M195.215,547.3l-.031-.009a.224.224,0,0,1-.009-.052v.008l.039.036c.081,0,.264-.167.424-.389a1.773,1.773,0,0,0,.219-.387,1.152,1.152,0,0,1-.2.389c-.171.237-.356.4-.443.4m-.04-.079a1.032,1.032,0,0,1,.227-.5c.17-.237.354-.4.442-.4a.224.224,0,0,1,.017.049c-.139-.027-.29.148-.441.357a1.238,1.238,0,0,0-.246.5" transform="translate(3110.687 -84.813)"/><path d="M196.206,543.779l0,0c.065.048-.035.295-.222.555l-.006.007c-.187.26-.392.432-.457.385l0,0c-.065-.046.035-.295.222-.555l.006-.007c.187-.26.392-.432.457-.385" transform="translate(3110.619 -84.284)" fill="#f5d028"/><path d="M195.551,544.741l-.031-.008a.275.275,0,0,1-.008-.044l.039.036c.082,0,.264-.167.424-.389a1.08,1.08,0,0,0,.246-.517.928.928,0,0,1-.227.519c-.17.236-.354.4-.443.4m-.039-.087a1.05,1.05,0,0,1,.227-.489c.17-.237.354-.4.443-.4a.083.083,0,0,1,.027.028.012.012,0,0,0-.011,0c-.106,0-.284.166-.441.383a1.3,1.3,0,0,0-.245.487" transform="translate(3110.617 -84.282)"/><path d="M196.434,543.927l0,0c.065.047-.035.295-.222.555l-.006.007c-.188.259-.392.432-.457.385l0,0c-.065-.047.035-.3.222-.555l.006-.008c.187-.259.392-.432.457-.384" transform="translate(3110.572 -84.314)" fill="#f5d028"/><path d="M195.777,544.89l-.031-.009c-.08-.058.048-.335.218-.568s.355-.4.442-.4a.206.206,0,0,1,.017.048c-.128,0-.289.149-.441.357-.205.285-.282.513-.229.552l.024.007c.081,0,.263-.166.424-.389a1.755,1.755,0,0,0,.218-.385,1.152,1.152,0,0,1-.2.388c-.171.237-.355.4-.442.4" transform="translate(3110.574 -84.312)"/><path d="M196.665,544.1l0,0c.065.047-.035.295-.222.555l-.006.007c-.187.26-.392.432-.457.385l0,0c-.064-.047.035-.295.222-.555l.006-.008c.187-.259.392-.431.457-.384" transform="translate(3110.524 -84.349)" fill="#f5d028"/><path d="M196.006,545.058l-.031-.009c-.079-.058.049-.334.218-.568s.355-.4.443-.4a.189.189,0,0,1,.017.048c-.115-.006-.29.148-.441.357-.2.285-.282.513-.229.552l.024.007c.082,0,.264-.167.424-.389a1.755,1.755,0,0,0,.219-.387,1.148,1.148,0,0,1-.2.389c-.17.237-.354.4-.442.4" transform="translate(3110.526 -84.347)"/><path d="M196.915,544.271l0,0c.065.047-.034.295-.222.554l-.006.008c-.187.259-.392.432-.457.384h0c-.065-.047.034-.3.221-.555l.006-.008c.188-.259.392-.432.457-.384" transform="translate(3110.472 -84.386)" fill="#f5d028"/><path d="M196.256,545.234l-.032-.01c-.079-.057.049-.334.218-.568s.354-.4.443-.4a.173.173,0,0,1,.017.049c-.128-.022-.289.148-.441.356-.205.285-.282.513-.228.552l.023.007c.081,0,.263-.167.423-.389a1.73,1.73,0,0,0,.219-.385,1.143,1.143,0,0,1-.2.387c-.171.238-.355.4-.442.4" transform="translate(3110.474 -84.384)"/><path d="M197.1,544.431l0,0c.065.048-.035.295-.222.555l-.006.007c-.187.26-.392.432-.457.385l0,0c-.064-.046.035-.295.222-.555l.006-.007c.187-.259.392-.432.457-.385" transform="translate(3110.434 -84.419)" fill="#f5d028"/><path d="M196.443,545.394l-.031-.009c-.08-.058.048-.334.218-.568s.355-.4.443-.4a.071.071,0,0,1,.028.028.016.016,0,0,0-.012,0c-.105,0-.283.166-.441.382-.205.285-.282.513-.229.551l.024.007c.082,0,.264-.166.424-.389a1.078,1.078,0,0,0,.245-.517.92.92,0,0,1-.227.519c-.17.237-.354.4-.442.4" transform="translate(3110.436 -84.417)"/><path d="M198.343,545.131h0c.065.048-.035.3-.222.555l-.006.008c-.187.259-.392.432-.457.384h0c-.065-.047.034-.3.221-.555l.006-.008c.188-.259.392-.432.457-.384" transform="translate(3110.176 -84.564)" fill="#f5d028"/><path d="M197.685,546.093l-.032-.01c-.079-.057.049-.334.218-.568s.354-.4.443-.4a.069.069,0,0,1,.026.026.019.019,0,0,0-.009,0c-.1,0-.283.165-.441.382-.205.285-.282.513-.228.552l.023.007c.081,0,.263-.167.423-.389a1.119,1.119,0,0,0,.246-.509.956.956,0,0,1-.227.51c-.171.238-.355.4-.442.4" transform="translate(3110.178 -84.562)"/><path d="M198.152,545.063l0,0c.065.047-.035.295-.222.554l-.006.008c-.187.259-.392.432-.457.385l0,0c-.064-.047.035-.3.222-.555l.006-.008c.187-.259.392-.432.457-.384" transform="translate(3110.216 -84.55)" fill="#f5d028"/><path d="M197.494,546.026l-.031-.009c-.08-.059.048-.334.218-.568s.355-.4.442-.4a.209.209,0,0,1,.017.048c-.12,0-.29.148-.441.357-.205.285-.282.513-.229.552l.024.007c.081,0,.263-.166.424-.389a1.785,1.785,0,0,0,.219-.386,1.15,1.15,0,0,1-.2.388c-.171.238-.355.4-.442.4" transform="translate(3110.218 -84.548)"/><path d="M197.981,544.975l0,0c.065.047-.034.295-.222.554l-.006.008c-.187.259-.392.432-.457.384h0c-.064-.047.035-.3.222-.555l.006-.008c.188-.259.392-.432.457-.384" transform="translate(3110.251 -84.532)" fill="#f5d028"/><path d="M197.322,545.938l-.032-.01c-.079-.058.049-.334.218-.568s.354-.4.443-.4a.171.171,0,0,1,.017.049c-.132-.027-.289.148-.441.356-.205.285-.283.513-.229.552l.024.007c.081,0,.263-.167.423-.389a1.728,1.728,0,0,0,.219-.385,1.143,1.143,0,0,1-.2.387c-.171.238-.355.4-.442.4" transform="translate(3110.253 -84.53)"/><path d="M197.748,544.82h0c.064.047-.035.3-.222.555l-.006.008c-.188.259-.392.432-.457.384h0c-.065-.047.035-.3.222-.555l.006-.008c.187-.259.392-.432.457-.384" transform="translate(3110.3 -84.5)" fill="#f5d028"/><path d="M197.089,545.783l-.032-.01c-.079-.057.049-.334.219-.568s.355-.4.442-.4a.075.075,0,0,1,.025.025s-.006,0-.008,0c-.105,0-.284.165-.441.382-.206.285-.283.513-.229.552l.023.007c.081,0,.263-.167.424-.389a1.14,1.14,0,0,0,.246-.5.975.975,0,0,1-.227.506c-.175.241-.354.4-.443.4" transform="translate(3110.302 -84.498)"/><path d="M197.5,544.7h0c.065.047-.035.3-.222.555l-.006.008c-.187.259-.392.432-.457.384l0,0c-.064-.046.035-.295.222-.554l.006-.008c.188-.259.392-.432.457-.384" transform="translate(3110.351 -84.474)" fill="#f5d028"/><path d="M196.841,545.659l-.032-.01c-.08-.058.049-.334.218-.568s.354-.4.443-.4a.069.069,0,0,1,.026.026.017.017,0,0,0-.01,0c-.1,0-.283.165-.441.382-.205.285-.283.513-.229.551l.024.008c.081,0,.263-.167.423-.389a1.119,1.119,0,0,0,.246-.509.956.956,0,0,1-.227.511c-.171.238-.355.4-.442.4" transform="translate(3110.353 -84.472)"/><path d="M197.3,544.561l0,0c.065.047-.035.295-.222.554l-.006.008c-.188.259-.392.432-.457.385h0c-.065-.047.035-.3.222-.555l.006-.008c.187-.259.392-.432.457-.384" transform="translate(3110.392 -84.446)" fill="#f5d028"/><path d="M196.644,545.524l-.032-.01c-.079-.057.049-.334.219-.568s.354-.4.442-.4a.176.176,0,0,1,.017.048c-.122,0-.29.149-.441.357-.205.285-.282.513-.229.552l.024.007c.082,0,.264-.167.424-.389a1.757,1.757,0,0,0,.218-.385,1.143,1.143,0,0,1-.2.387c-.171.238-.355.4-.442.4" transform="translate(3110.394 -84.444)"/><path d="M195.379,546h0c.071.038,0,.3-.149.579l0,.008c-.153.282-.334.48-.4.441h0c-.071-.038,0-.3.148-.579l0-.007c.153-.282.334-.48.4-.441" transform="translate(3110.766 -84.746)" fill="#f5d028"/><path d="M194.846,547.041l-.024-.006a.214.214,0,0,1-.016-.054l0,.012.036.032c.078,0,.241-.189.377-.441a1.7,1.7,0,0,0,.171-.426,1.161,1.161,0,0,1-.151.426c-.146.269-.311.457-.4.457m-.04-.068a1.011,1.011,0,0,1,.16-.529c.146-.269.31-.457.4-.457a.263.263,0,0,1,.021.045c-.114-.006-.27.178-.4.412a1.206,1.206,0,0,0-.18.529" transform="translate(3110.764 -84.743)"/><path d="M195.458,544.691l0,0c.064.047-.035.295-.222.554l-.006.008c-.188.259-.392.432-.457.385l0,0c-.065-.047.035-.3.222-.555l.006-.008c.187-.259.392-.432.457-.384" transform="translate(3110.774 -84.473)" fill="#f5d028"/><path d="M194.8,545.654l-.031-.009c-.08-.058.048-.334.218-.568s.355-.4.442-.4a.078.078,0,0,1,.027.026l-.01,0c-.105,0-.283.165-.44.381-.206.285-.283.513-.229.552l.023.007c.082,0,.264-.166.424-.389a1.148,1.148,0,0,0,.246-.5.962.962,0,0,1-.227.507c-.171.238-.356.4-.443.4" transform="translate(3110.776 -84.471)"/><path d="M195.687,544.84h0c.065.048-.035.3-.222.555l-.006.008c-.188.259-.392.432-.457.384l0,0c-.065-.046.035-.295.222-.554l.006-.008c.187-.259.392-.432.457-.384" transform="translate(3110.727 -84.504)" fill="#f5d028"/><path d="M195.034,545.8l-.032-.009a.262.262,0,0,1-.008-.045h0l.04.036c.081,0,.263-.167.423-.388a1.148,1.148,0,0,0,.247-.507.973.973,0,0,1-.227.509c-.171.237-.355.4-.442.4m-.04-.088a1.045,1.045,0,0,1,.227-.488c.17-.238.354-.4.442-.4a.087.087,0,0,1,.025.025l-.008,0c-.106,0-.285.165-.442.383a1.307,1.307,0,0,0-.245.487" transform="translate(3110.725 -84.501)"/><path d="M195.917,545.008h0c.065.048-.035.3-.222.555l-.006.008c-.188.259-.392.432-.457.384h0c-.065-.047.035-.3.222-.555l.006-.008c.187-.259.392-.432.457-.384" transform="translate(3110.679 -84.539)" fill="#f5d028"/><path d="M195.258,545.97l-.032-.01c-.079-.057.049-.334.219-.568s.355-.4.442-.4a.065.065,0,0,1,.025.025l-.008,0c-.106,0-.284.165-.441.382-.205.285-.282.513-.229.552l.024.007c.082,0,.264-.167.424-.389a1.151,1.151,0,0,0,.246-.506.964.964,0,0,1-.227.508c-.171.238-.355.4-.442.4" transform="translate(3110.681 -84.536)"/><path d="M196.168,545.183h0c.065.048-.035.3-.222.555l-.006.008c-.187.259-.392.432-.457.384l0,0c-.065-.046.035-.295.222-.554l.006-.008c.187-.259.392-.432.457-.384" transform="translate(3110.627 -84.575)" fill="#f5d028"/><path d="M195.514,546.146l-.032-.009a.267.267,0,0,1-.008-.045h0l.04.036c.081,0,.263-.167.423-.388a1.134,1.134,0,0,0,.247-.51.966.966,0,0,1-.227.511c-.171.237-.355.4-.442.4m-.04-.088a1.045,1.045,0,0,1,.227-.488c.17-.238.354-.4.442-.4a.082.082,0,0,1,.026.026l-.009,0c-.106,0-.285.165-.441.383a1.307,1.307,0,0,0-.245.487" transform="translate(3110.625 -84.573)"/><path d="M196.353,545.343l0,0c.065.047-.035.295-.222.554l-.006.008c-.188.259-.392.432-.457.385l0,0c-.065-.047.035-.3.222-.555l.006-.008c.187-.259.392-.432.457-.384" transform="translate(3110.589 -84.608)" fill="#f5d028"/><path d="M195.7,546.306l-.031-.009c-.081-.058.048-.335.217-.568s.355-.4.442-.4a.208.208,0,0,1,.017.048c-.12,0-.289.148-.441.357-.205.285-.282.513-.229.552l.024.007c.082,0,.263-.167.423-.389a1.734,1.734,0,0,0,.219-.385,1.143,1.143,0,0,1-.2.387c-.171.238-.356.4-.442.4" transform="translate(3110.591 -84.606)"/><path d="M197.6,546.042l0,0c.065.048-.035.3-.222.555l-.006.008c-.187.259-.392.432-.457.384l0,0c-.065-.046.035-.295.222-.554l.006-.008c.187-.259.392-.432.457-.385" transform="translate(3110.331 -84.753)" fill="#f5d028"/><path d="M196.942,547,196.91,547a.272.272,0,0,1-.008-.045h0l.04.036c.081,0,.263-.167.423-.388a1.1,1.1,0,0,0,.246-.512.947.947,0,0,1-.227.514c-.171.237-.355.4-.442.4m-.04-.088a1.045,1.045,0,0,1,.227-.488c.17-.238.355-.4.443-.4a.088.088,0,0,1,.027.027.015.015,0,0,0-.011,0c-.105,0-.284.166-.441.383a1.306,1.306,0,0,0-.245.487" transform="translate(3110.329 -84.751)"/><path d="M197.4,545.975h0c.065.048-.035.3-.222.555l-.006.008c-.188.259-.392.432-.457.384h0c-.065-.047.035-.3.222-.555l.006-.008c.187-.259.392-.432.457-.384" transform="translate(3110.371 -84.739)" fill="#f5d028"/><path d="M196.746,546.937l-.032-.009c-.079-.057.049-.334.219-.568s.355-.4.442-.4a.065.065,0,0,1,.025.025l-.008,0c-.106,0-.284.165-.441.382-.205.285-.282.513-.229.552l.024.007c.082,0,.264-.167.424-.389a1.151,1.151,0,0,0,.246-.507.964.964,0,0,1-.227.508c-.171.238-.355.4-.442.4" transform="translate(3110.373 -84.737)"/><path d="M197.233,545.887h0c.065.048-.035.3-.222.555l-.006.008c-.188.259-.392.432-.457.384l0,0c-.065-.046.035-.295.222-.555l.006-.007c.187-.259.392-.432.457-.384" transform="translate(3110.406 -84.721)" fill="#f5d028"/><path d="M196.58,546.849l-.032-.009a.269.269,0,0,1-.008-.045h0l.04.036c.081,0,.263-.167.423-.388a1.148,1.148,0,0,0,.247-.507.972.972,0,0,1-.227.509c-.171.237-.355.4-.442.4m-.04-.087a1.053,1.053,0,0,1,.227-.49c.17-.237.354-.4.442-.4a.086.086,0,0,1,.025.025l-.008,0c-.106,0-.285.165-.441.383a1.3,1.3,0,0,0-.245.487" transform="translate(3110.404 -84.719)"/><path d="M197,545.732h0c.065.048-.034.3-.221.555l-.006.008c-.188.259-.392.431-.457.384l0,0c-.065-.046.034-.295.222-.554l.006-.008c.187-.259.392-.432.457-.384" transform="translate(3110.454 -84.689)" fill="#f5d028"/><path d="M196.347,546.694l-.031-.009a.218.218,0,0,1-.009-.052v.008l.039.036c.081,0,.263-.167.424-.388a1.121,1.121,0,0,0,.246-.51.953.953,0,0,1-.227.511c-.171.237-.356.4-.443.4m-.04-.08a1.027,1.027,0,0,1,.227-.5c.17-.238.354-.4.442-.4a.082.082,0,0,1,.026.026l-.009,0c-.105,0-.284.165-.441.382a1.248,1.248,0,0,0-.246.495" transform="translate(3110.452 -84.687)"/><path d="M196.752,545.607l0,0c.065.048-.034.295-.222.555l-.006.007c-.188.26-.392.432-.456.385l0,0c-.065-.046.036-.295.222-.555l.006-.007c.187-.26.392-.432.457-.385" transform="translate(3110.506 -84.663)" fill="#f5d028"/><path d="M196.1,546.57l-.031-.008a.273.273,0,0,1-.008-.044l.039.036c.082,0,.264-.167.424-.389a1.089,1.089,0,0,0,.246-.514.931.931,0,0,1-.227.517c-.17.236-.354.4-.443.4m-.039-.087a1.05,1.05,0,0,1,.227-.489c.17-.237.354-.4.442-.4a.08.08,0,0,1,.027.027s-.006,0-.01,0c-.106,0-.284.166-.441.383a1.3,1.3,0,0,0-.245.487" transform="translate(3110.504 -84.661)"/><path d="M196.555,545.472l0,0c.065.048-.034.3-.221.555l-.006.008c-.188.259-.392.432-.457.384l0,0c-.065-.046.034-.295.222-.555l.006-.007c.187-.259.392-.432.457-.385" transform="translate(3110.547 -84.635)" fill="#f5d028"/><path d="M195.9,546.436l-.032-.01a.234.234,0,0,1-.008-.053v.009l.039.036c.081,0,.263-.167.424-.388a1.113,1.113,0,0,0,.246-.512.949.949,0,0,1-.227.514c-.174.241-.354.4-.443.4m-.04-.079a1.022,1.022,0,0,1,.227-.5c.17-.237.355-.4.442-.4a.081.081,0,0,1,.027.028.012.012,0,0,0-.011,0c-.105,0-.283.166-.44.382a1.236,1.236,0,0,0-.246.5" transform="translate(3110.545 -84.633)"/><path d="M196.842,536.839h0c.109,0,.2.031.2.069v2.337c0,.039-.088.069-.2.069h0c-.109,0-.2-.03-.2-.069v-2.337c0-.038.088-.069.2-.069" transform="translate(3110.382 -82.846)" fill="#a87f36"/><path d="M196.844,539.32h0c-.116,0-.2-.032-.2-.075v-2.337c0-.084.41-.082.41,0v2.337c0,.043-.087.075-.2.075m0-2.475c-.118,0-.195.033-.195.063v2.337c0,.03.077.063.191.063h0c.114,0,.191-.033.191-.063v-2.337c0-.03-.077-.063-.191-.063" transform="translate(3110.384 -82.848)"/><path d="M196.073,537.932l-1.144.772.735-.936.736-.172Z" transform="translate(3110.738 -83.003)" fill="#30770e"/><path d="M194.933,538.711l-.015-.017.735-.935.743-.177-.317.355Zm1.457-1.125-.725.191-.684.874,1.084-.731Z" transform="translate(3110.74 -83)"/><path d="M195.92,537.748l-1.588.2,1.386-.5.61.108Z" transform="translate(3110.862 -82.973)" fill="#30770e"/><path d="M194.333,537.96l0-.022,1.386-.5.614.106-.4.212Zm1.382-.5-1.282.463,1.485-.189.4-.19Z" transform="translate(3110.863 -82.971)"/><path d="M197.232,537.83l.441.863-.7-.654-.195-.475Z" transform="translate(3110.355 -82.997)" fill="#30770e"/><path d="M197.661,538.7l-.7-.654-.2-.479.471.251.445.867Zm-.893-1.127.212.46.648.606-.411-.8Z" transform="translate(3110.358 -82.998)"/><path d="M197.4,537.5l1.355,1.187-1.63-.825-.453-.3Z" transform="translate(3110.376 -82.983)" fill="#30770e"/><path d="M198.748,538.694l-1.63-.825-.453-.3.732-.085,1.364,1.19Zm-1.357-1.188-.719.067.458.277,1.546.782Z" transform="translate(3110.378 -82.981)"/><path d="M195.8,537.5l-1.623-.579,1.6.015.537.567Z" transform="translate(3110.894 -82.862)" fill="#30770e"/><path d="M196.338,537.51l-.537,0-1.626-.58,1.6-.007Zm-2.16-.582,1.627.557.479,0-.518-.547Z" transform="translate(3110.895 -82.863)"/><path d="M195.814,536.807l-.771-.976,1.15.725.273.741Z" transform="translate(3110.715 -82.637)" fill="#30770e"/><path d="M196.488,537.333l-.683-.514-.773-.978,1.164.709Zm-1.454-1.489.786.959.619.465-.261-.706Z" transform="translate(3110.717 -82.639)"/><path d="M196.232,536.514l-.45-1.107.832.908-.036.885Z" transform="translate(3110.561 -82.549)" fill="#30770e"/><path d="M196.584,537.246l-.366-.725-.451-1.109.852.9Zm-.815-1.831.47,1.1.325.645.035-.841Z" transform="translate(3110.564 -82.551)"/><path d="M196.893,536.459l1.016-.875-.694,1.2-.465.421Z" transform="translate(3110.361 -82.586)" fill="#30770e"/><path d="M196.727,537.236l.15-.782,1.02-.881-.677,1.215Zm1.168-1.66-1,.889-.133.707.44-.4Z" transform="translate(3110.365 -82.584)"/><path d="M197.206,536.77l1.307-.258-1.16.735-.611.157Z" transform="translate(3110.362 -82.779)" fill="#30770e"/><path d="M196.707,537.421l.483-.66,1.314-.262-1.152.756Zm1.793-.921-1.3.28-.438.6.58-.148Z" transform="translate(3110.369 -82.776)"/><path d="M197.219,537.176l1.6.224-1.493.249-.49-.143Z" transform="translate(3110.343 -82.916)" fill="#30770e"/><path d="M197.322,537.658l-.492-.144.38-.349,1.607.221Zm-.106-.473-.376.327.483.123,1.49-.248Z" transform="translate(3110.344 -82.914)"/><path d="M196.435,538.033l-.553.48.328-.579.4-.322Z" transform="translate(3110.54 -83.007)" fill="#30770e"/><path d="M195.886,538.52l-.017-.013.328-.579.4-.326-.151.434Zm.705-.914-.377.336-.292.517.5-.437Z" transform="translate(3110.543 -83.004)"/><path d="M196.432,537.71l-.85.533.708-.679.317-.134Z" transform="translate(3110.603 -82.969)" fill="#30770e"/><path d="M195.585,538.248l-.01-.012.709-.679.319-.136-.165.29Zm1.014-.823-.307.145-.652.625.785-.493Z" transform="translate(3110.604 -82.967)"/><path d="M197.075,537.614l.636.877-.766-.7-.171-.335Z" transform="translate(3110.355 -82.975)" fill="#30770e"/><path d="M197.7,538.5l-.766-.7-.173-.338.313.146.638.88Zm-.936-1.034.182.324.705.644-.589-.814Z" transform="translate(3110.357 -82.976)"/><path d="M196.285,537.244l-.84-.757.822.537.278.307Z" transform="translate(3110.631 -82.773)" fill="#30770e"/><path d="M196.567,537.348l-.285-.1-.843-.759.83.525Zm-1.127-.853.848.745.232.077-.261-.287Z" transform="translate(3110.632 -82.775)"/><path d="M196.958,537.3l.782.131-.762,0-.238.059Z" transform="translate(3110.363 -82.942)" fill="#30770e"/><path d="M196.739,537.491l-.006-.012.219-.188.787.129-.763.011Zm.216-.187-.19.166.21-.052.763,0Z" transform="translate(3110.364 -82.94)"/><path d="M196.714,536.682l.594-.693-.313.551-.247.648Z" transform="translate(3110.368 -82.67)" fill="#30770e"/><path d="M196.755,537.189l-.022,0-.033-.506.6-.7-.293.564Zm.54-1.207-.575.706.032.445.229-.6Z" transform="translate(3110.371 -82.668)"/><path d="M196.188,537.065l-.644-.047.668-.178.348.493Z" transform="translate(3110.611 -82.847)" fill="#30770e"/><path d="M196.552,537.34l-.371-.269-.639-.044.667-.2.36.5Zm-.35-.5-.656.182.642.025.323.231Z" transform="translate(3110.611 -82.844)"/><path d="M196.2,537.83l-1.111.452.926-.575.413-.113Z" transform="translate(3110.704 -83.003)" fill="#30770e"/><path d="M195.093,538.288l-.007-.015.925-.575.415-.114-.219.25Zm1.33-.7-.405.126-.843.524,1.023-.416Z" transform="translate(3110.706 -83.001)"/><path d="M189.033,537.571h0c.053.02.09.059.081.087l-.533,1.724c-.009.028-.059.034-.113.014h0c-.053-.021-.09-.059-.081-.088l.533-1.723c.009-.029.059-.035.113-.015" transform="translate(3112.095 -82.996)" fill="#a87f36"/><path d="M188.529,539.416l-.063-.012c-.058-.022-.1-.063-.086-.094l.533-1.724.12-.018c.058.022.1.063.086.094l-.533,1.724Zm.5-1.837-.108.011-.533,1.723c-.007.025.028.062.078.082l.06.017.048-.028.533-1.723c.007-.025-.029-.063-.078-.082" transform="translate(3112.096 -82.997)"/><path d="M187.8,537.37h0c.056,0,.1.024.1.053v1.821c0,.029-.047.054-.1.054h0c-.057,0-.1-.025-.1-.054v-1.821c0-.029.046-.053.1-.053" transform="translate(3112.237 -82.956)" fill="#a87f36"/><path d="M187.8,539.305c-.062,0-.11-.026-.11-.059v-1.821c0-.067.219-.066.219,0v1.821c0,.033-.048.059-.109.059m0-1.928c-.055,0-.1.021-.1.048v1.821c0,.027.044.048.1.048h0c.053,0,.1-.021.1-.048v-1.821c0-.027-.044-.048-.1-.048" transform="translate(3112.239 -82.958)"/><path d="M186.909,536.069c.254-.076.446.081.529.419,0,.031.059.036.059.027-.043-.575.528-1.048.891-.234.036.128-.174-.065-.306-.213-.166-.205-.393.044-.408.579-.015.121-.036.386-.036.386s-.187-.025-.192-.032-.156-.663-.43-.73c-.206-.032-.151.1-.4.149-.227.022-.221-.011-.052-.087.147-.008.243-.228.341-.263" transform="translate(3112.497 -82.64)" fill="#1d4805"/><path d="M187.648,537.038h-.006a.74.74,0,0,1-.2-.033,2,2,0,0,0-.222-.552,1.692,1.692,0,0,1,.227.529.5.5,0,0,0,.187.045c0-.04.021-.27.036-.381.016-.573.262-.774.417-.58a2.231,2.231,0,0,0,.2.193,1.127,1.127,0,0,1-.2-.186c-.147-.184-.382.018-.4.574-.014.123-.036.388-.036.388Zm-.14-.524c-.015-.033-.03-.065-.046-.094a.993.993,0,0,1,.207-.453c.22-.238.536-.121.729.312a.042.042,0,0,1-.027.01c-.182-.453-.484-.54-.694-.313a.73.73,0,0,0-.169.54m-.992-.082a.253.253,0,0,1-.034-.019.662.662,0,0,0,.143,0,.411.411,0,0,0,.2-.1.194.194,0,0,1,.139-.057.293.293,0,0,1,.052.017.2.2,0,0,0-.184.049.42.42,0,0,1-.2.1c-.047,0-.083.007-.111.007m-.045-.039c0-.017.035-.036.1-.067.086,0,.156-.083.216-.153a.4.4,0,0,1,.124-.11.363.363,0,0,1,.437.174.314.314,0,0,0-.552-.056c-.063.071-.133.152-.223.157a.586.586,0,0,0-.1.055" transform="translate(3112.492 -82.64)"/><path d="M186.94,536.544c.258-.058.441.111.5.454,0,.03.057.04.057.031-.012-.576.8-.594,1.118.243.029.131-.028.12-.152-.036-.155-.216-.752-.6-.8-.063-.021.12-.057.383-.057.383a1.865,1.865,0,0,1-.19-.044c0-.007-.118-.672-.389-.758-.2-.046-.265.14-.511.178-.228.006-.22-.027-.047-.09.033-.005.365-.266.464-.3" transform="translate(3112.517 -82.783)" fill="#1d4805"/><path d="M187.617,537.56h-.006c-.189-.038-.192-.045-.193-.048a1.807,1.807,0,0,0-.224-.617,1.506,1.506,0,0,1,.23.593c.012.024.117.047.185.06.006-.039.036-.268.056-.377.019-.227.139-.276.236-.276a.9.9,0,0,1,.571.337c.086.109.121.125.135.125s.02-.028.007-.083c-.267-.707-.8-.755-1-.546a.409.409,0,0,0-.105.3c-.011-.029-.023-.058-.034-.085a.73.73,0,0,1,.132-.224c.21-.215.748-.168,1.02.549.011.048.011.077,0,.09-.047,0-.094-.036-.162-.121a.877.877,0,0,0-.562-.332c-.135,0-.21.09-.225.266-.022.12-.058.383-.058.383Zm-1.108-.625c-.148,0-.164-.013-.166-.025s.012-.033.132-.077a1.092,1.092,0,0,0,.145-.1,1.837,1.837,0,0,1,.319-.2.362.362,0,0,1,.422.2.373.373,0,0,0-.42-.185,1.878,1.878,0,0,0-.315.2.951.951,0,0,1-.149.1c-.117.043-.124.059-.123.064s.008.016.119.016a.6.6,0,0,0,.3-.107.362.362,0,0,1,.2-.078l.051.017a.393.393,0,0,0-.247.071.588.588,0,0,1-.254.109Z" transform="translate(3112.519 -82.781)"/><path d="M187.007,537.049c.261-.035.432.149.47.5,0,.031.054.045.055.036.031-.576.553-.261.76.529.028.084-.163-.087-.275-.254-.138-.23-.243-.645-.327-.119-.031.118-.085.377-.085.377s-.183-.055-.185-.062-.069-.681-.333-.791c-.2-.063-.318.466-.566.482-.228-.015-.218-.047-.04-.1.033,0,.426-.582.527-.6" transform="translate(3112.518 -82.889)" fill="#1d4805"/><path d="M188.285,538.138c-.04,0-.189-.151-.275-.278-.031-.052-.059-.112-.087-.168-.1-.2-.174-.305-.23.047-.031.119-.085.377-.085.377-.193-.051-.2-.057-.2-.06a1.264,1.264,0,0,0-.27-.75,1.169,1.169,0,0,1,.278.728c.01.024.117.058.184.077,0-.007.048-.258.078-.373.06-.371.147-.266.25-.049.028.056.056.116.087.167a.88.88,0,0,0,.266.274v0c-.216-.836-.725-1.055-.751-.546-.01-.035-.021-.068-.032-.1.05-.121.113-.2.206-.2.182,0,.449.31.586.828Zm-1.767-.388c-.155-.01-.177-.026-.178-.041s.014-.031.136-.065a1.413,1.413,0,0,0,.153-.185c.138-.18.309-.4.374-.416a.5.5,0,0,1,.138.015.339.339,0,0,0-.075-.008c-.121.017-.3.247-.428.416-.1.136-.147.189-.16.189-.12.033-.127.049-.127.053s.014.021.167.031c.12-.007.209-.139.3-.266.076-.113.149-.22.237-.22a.311.311,0,0,1,.078.043.2.2,0,0,0-.047-.026c-.138-.037-.185.1-.259.21-.088.129-.178.263-.3.271" transform="translate(3112.519 -82.889)"/><path d="M185.938,537.377h0c.053-.018.1-.011.114.018l.594,1.722c.009.029-.027.066-.08.085h0c-.054.018-.105.01-.116-.017l-.592-1.722c-.01-.028.026-.065.08-.083" transform="translate(3112.619 -82.956)" fill="#a87f36"/><path d="M186.508,539.217l-.063-.031-.592-1.722a.12.12,0,0,1,.083-.09l.123.021.593,1.722c.01.031-.026.071-.083.092Zm-.569-1.839,0,0a.131.131,0,0,0-.076.055l.59,1.745.053.029.055-.015c.051-.017.086-.052.078-.078l-.593-1.722Z" transform="translate(3112.62 -82.957)"/><path d="M185.875,535.982c-.263.027-.381.245-.327.589.011.029-.042.055-.044.047-.181-.548-.77-.533-.793.357.017.133.136-.121.2-.309.075-.253.258-.346.479.141.06.105.181.343.181.343s.164-.1.165-.1-.11-.671.118-.839a.841.841,0,0,1,.432-.147c.218-.067.2-.1.013-.1-.033,0-.321.017-.425.021" transform="translate(3112.857 -82.664)" fill="#1d4805"/><path d="M185.574,537.156l0,0s-.12-.238-.181-.342c-.128-.286-.232-.346-.3-.346s-.133.075-.171.2c-.035.1-.136.35-.188.35v-.039c.047,0,.117-.144.178-.315.09-.306.3-.27.489.14.055.1.16.3.178.338a1.558,1.558,0,0,0,.157-.1c-.058-.457-.016-.742.12-.842a.774.774,0,0,1,.39-.139c.189-.053.2-.071.2-.076s-.013-.019-.139-.021c-.026,0-.229.013-.357.018a.4.4,0,0,0-.318.132.594.594,0,0,0-.073.453c-.013-.018-.027-.036-.041-.054a.71.71,0,0,1,.105-.407.358.358,0,0,1,.258-.133c.2-.009.4-.017.425-.021.129,0,.149.017.151.031s-.016.035-.162.08a.87.87,0,0,0-.43.147c-.13.1-.172.384-.117.811,0,.028,0,.035-.166.132Zm-.78-.614c.131-.38.4-.359.569-.185-.184-.152-.432-.171-.569.185" transform="translate(3112.852 -82.663)"/><path d="M185.992,536.386c-.259.045-.365.271-.291.612.012.028-.038.059-.041.052-.212-.537-.8-.484-.768.41.025.132.128-.132.183-.323.059-.259.238-.365.483.109.067.1.2.332.2.332s.157-.105.159-.114-.149-.665.068-.849a.861.861,0,0,1,.42-.176c.214-.082.194-.109.009-.1-.033.007-.318.038-.422.049" transform="translate(3112.82 -82.742)" fill="#1d4805"/><path d="M185.761,537.584l0,0s-.133-.23-.2-.332c-.14-.27-.245-.327-.308-.327s-.135.079-.166.217c-.029.1-.115.362-.166.362,0-.013,0-.025,0-.037.045,0,.109-.153.16-.328.072-.312.286-.293.494.108.06.094.177.292.2.327.058-.039.146-.1.152-.109-.052-.263-.105-.7.069-.851a.779.779,0,0,1,.383-.167c.182-.065.19-.085.189-.09s-.006-.013-.09-.013l-.472.05a.349.349,0,0,0-.239.146.6.6,0,0,0-.047.46c-.014-.017-.029-.033-.044-.051a.72.72,0,0,1,.082-.415.352.352,0,0,1,.247-.15c.1-.011.388-.042.421-.05.127,0,.15.01.152.021s-.014.037-.157.092a.867.867,0,0,0-.419.174c-.17.143-.117.579-.069.827,0,.022,0,.029-.158.136Zm-.851-.36a.668.668,0,0,1,.155-.432.307.307,0,0,1,.447.01.316.316,0,0,0-.439,0,.722.722,0,0,0-.163.424" transform="translate(3112.816 -82.741)"/><path d="M186.128,536.871c-.254.067-.341.3-.243.639.015.027-.033.062-.037.054-.249-.52-.825-.415-.729.477.034.131.117-.142.157-.339.04-.265.208-.386.487.067.074.1.223.315.223.315s.148-.119.149-.128-.2-.655,0-.857a.846.846,0,0,1,.4-.212c.205-.1.183-.127,0-.1-.032.009-.312.066-.414.086" transform="translate(3112.774 -82.834)" fill="#1d4805"/><path d="M185.988,538.091l0,0s-.149-.219-.223-.315c-.154-.248-.259-.3-.32-.3-.078,0-.136.085-.158.231,0,0-.078.378-.139.378,0-.013,0-.025-.006-.036.045,0,.1-.159.136-.343.047-.319.26-.319.5.065.067.089.2.278.22.312.054-.044.137-.113.142-.122-.071-.259-.157-.7.006-.859a.778.778,0,0,1,.362-.2.991.991,0,0,0,.174-.092c0,.021-.04.045-.127.087a.88.88,0,0,0-.4.212c-.116.117-.118.421-.006.836,0,.02,0,.029-.146.149Zm-.871-.286a.67.67,0,0,1,.134-.461.306.306,0,0,1,.448,0,.318.318,0,0,0-.44.009.708.708,0,0,0-.142.453m.777-.3c-.016-.016-.033-.03-.048-.045a.739.739,0,0,1,.051-.426.363.363,0,0,1,.233-.171c.1-.02.382-.075.414-.086a.855.855,0,0,1,.1-.009.1.1,0,0,1,.023.017.439.439,0,0,0-.122,0c-.031.01-.311.066-.414.086a.348.348,0,0,0-.226.166.61.61,0,0,0-.012.466" transform="translate(3112.773 -82.832)"/><path d="M188.8,535.83c.262.023.395.242.369.591-.009.029.045.055.047.048.136-.557.82-.789.911.111-.006.135-.143-.125-.223-.314-.094-.255-.383-.105-.561.392-.052.109-.153.35-.153.35s-.169-.093-.171-.1.059-.682-.18-.848c-.185-.106-.172.034-.418-.006-.221-.064-.2-.094-.022-.1.141.048.3-.124.4-.12" transform="translate(3112.12 -82.637)" fill="#1d4805"/><path d="M189.2,537.014l-.006,0c-.17-.094-.173-.1-.174-.1.012-.22.017-.709-.178-.845a.241.241,0,0,0-.117-.04.587.587,0,0,1-.3.034c-.151-.044-.169-.064-.167-.079s.021-.028.146-.033a.4.4,0,0,0,.25-.063.367.367,0,0,1,.149-.057.381.381,0,0,1,.352.294.4.4,0,0,0-.35-.283.355.355,0,0,0-.146.055.457.457,0,0,1-.2.074c-.174-.007-.186.01-.186.014s.009.025.158.067a.4.4,0,0,0,.217-.017h0l.078-.017a.254.254,0,0,1,.124.042c.193.135.2.583.183.839a.661.661,0,0,0,.162.108c.016-.037.1-.247.151-.345.2-.552.486-.623.571-.391a2.3,2.3,0,0,0,.132.266,1.29,1.29,0,0,1-.142-.262c-.084-.228-.358-.148-.552.391-.052.109-.152.351-.152.351Zm.922-.431h-.006c-.033-.388-.183-.6-.4-.6a.586.586,0,0,0-.491.488c0-.04-.008-.08-.013-.117a.654.654,0,0,1,.5-.382c.224,0,.38.227.419.608a.028.028,0,0,1-.017.006" transform="translate(3112.122 -82.636)"/><path d="M188.7,536.249c.26.041.381.268.335.614-.01.029.043.06.044.052.166-.548.937-.26.978.644-.013.134-.063.1-.132-.09-.08-.261-.526-.841-.731-.357-.058.105-.172.34-.172.34s-.163-.1-.165-.113.1-.676-.133-.858c-.178-.118-.293.034-.537-.023-.216-.079-.2-.107-.016-.1.033.008.425-.115.527-.1" transform="translate(3112.168 -82.724)" fill="#1d4805"/><path d="M190.026,537.645c-.027,0-.062-.059-.1-.177-.059-.19-.309-.54-.513-.54-.086,0-.157.062-.208.183-.058.105-.171.34-.171.34-.174-.1-.175-.112-.176-.115.029-.27.048-.713-.131-.854a.328.328,0,0,0-.262-.029.608.608,0,0,1-.272.007c-.147-.053-.164-.076-.162-.09s.05-.017.119-.025a.85.85,0,0,0,.2-.036,2.025,2.025,0,0,1,.345-.068.394.394,0,0,1,.346.313.405.405,0,0,0-.333-.3h0a1.922,1.922,0,0,0-.354.068,1.352,1.352,0,0,1-.168.037c-.128.013-.139.012-.14.014s.008.024.155.077a.586.586,0,0,0,.266-.007.33.33,0,0,1,.271.031c.183.146.165.594.138.847,0,.023.1.086.16.125a3.562,3.562,0,0,1,.164-.338c.053-.125.127-.189.218-.189.217,0,.465.36.523.548.054.152.082.169.093.169s.021-.007.028-.077c-.026-.565-.353-.916-.641-.916a.341.341,0,0,0-.326.273c0-.036,0-.071,0-.105a.425.425,0,0,1,.331-.178c.3,0,.626.346.652.927-.006.059-.018.087-.039.087" transform="translate(3112.169 -82.722)"/><path d="M188.588,536.753c.256.064.36.3.289.644-.011.028.038.063.041.054.206-.53.6-.039.552.782,0,.09-.126-.142-.18-.341-.06-.267-.031-.7-.272-.234-.065.1-.2.323-.2.323s-.155-.119-.156-.127.144-.666-.07-.868c-.169-.133-.442.319-.682.242-.209-.1-.189-.125-.007-.1.032.01.579-.388.68-.37" transform="translate(3112.224 -82.828)" fill="#1d4805"/><path d="M189.46,538.256a.834.834,0,0,1-.178-.365c-.013-.06-.022-.128-.031-.192-.029-.223-.071-.347-.23-.041-.066.1-.2.324-.2.324-.166-.119-.166-.127-.166-.13a2.429,2.429,0,0,0,.046-.514,1.771,1.771,0,0,1-.033.5c0,.022.094.094.151.138a3.644,3.644,0,0,1,.189-.321c.173-.334.22-.191.25.044.009.064.017.132.031.19a.925.925,0,0,0,.166.358l0,0v-.019a1.354,1.354,0,0,0-.21-.93c-.118-.126-.247-.069-.332.151,0-.037,0-.074,0-.108.159-.177.246-.147.338-.051a1.363,1.363,0,0,1,.213.938Zm-1.488-1.016-.051-.019a.548.548,0,0,0,.354-.14.514.514,0,0,1,.248-.127.209.209,0,0,1,.035.03.4.4,0,0,0-.277.105.6.6,0,0,1-.31.151m-.082-.032c-.125-.051-.136-.07-.133-.082a.437.437,0,0,1,.149-.009,1.367,1.367,0,0,0,.2-.12,1.83,1.83,0,0,1,.469-.25.4.4,0,0,1,.315.344.413.413,0,0,0-.309-.332h0a1.774,1.774,0,0,0-.472.251,1.012,1.012,0,0,1-.205.119c-.04,0-.071-.006-.094-.006-.043.013-.039.032.078.088" transform="translate(3112.225 -82.827)"/><path d="M190.824,546.428l-.027-.01c-3.759-1.578-6.12-3.533-6.28-8.4v-8.255H197v8.252c0,4.088-1.726,6.445-6.154,8.4Zm-6.175-16.534v8.121c.158,4.805,2.383,6.675,6.173,8.27,4.352-1.93,6.049-4.251,6.049-8.27v-8.121Z" transform="translate(3112.897 -81.379)"/></g></g></g></svg>