<svg xmlns="http://www.w3.org/2000/svg" xmlns:xlink="http://www.w3.org/1999/xlink" width="36" height="36" viewBox="0 0 36 36"><defs><clipPath id="a"><circle cx="18" cy="18" r="18" transform="translate(2110 63)" fill="#fff" stroke="#707070" stroke-width="1"/></clipPath><clipPath id="b"><rect width="61.716" height="36" fill="none"/></clipPath></defs><g transform="translate(-2110 -63)" clip-path="url(#a)"><g transform="translate(-449.626 -363.455)"><path d="M728.719,120.547h61.53v35.815h-61.53Zm-.093,35.908h61.716v-36H728.626Z" transform="translate(1818 306)"/><rect width="41.594" height="36" transform="translate(2546.626 426.455)" fill="#2f742e"/><g transform="translate(2546.626 426.455)"><g transform="translate(0 0)" clip-path="url(#b)"><path d="M773.761,147.2a7.2,7.2,0,1,1,1.121-10.121,9,9,0,1,0,0,9,7.21,7.21,0,0,1-1.121,1.12" transform="translate(-736.229 -123.585)" fill="#c0003b"/><path d="M773.328,144.861l1.922,2.645v-3.269l3.109-1.011-3.109-1.01v-3.27l-1.922,2.645-3.109-1.01,1.921,2.644-1.921,2.646Z" transform="translate(-739.361 -125.227)" fill="#c0003b"/></g></g></g></g></svg>