<svg xmlns="http://www.w3.org/2000/svg" xmlns:xlink="http://www.w3.org/1999/xlink" width="36" height="36" viewBox="0 0 36 36"><defs><clipPath id="a"><circle cx="18" cy="18" r="18" transform="translate(599 459)" fill="none" stroke="#707070" stroke-width="1"/></clipPath><clipPath id="b"><rect width="72.938" height="42.547" fill="none"/></clipPath></defs><g transform="translate(-599 -459)" clip-path="url(#a)"><g transform="translate(-147.506 -58.431)"><g transform="translate(728.628 514.419)" clip-path="url(#b)"><rect width="72.938" height="42.547" fill="#d50037"/><path d="M781.245,536.936c-1.649.413-3.43-.906-4.96-.628,0-.018,0-.039,0-.057,1.469-.7,3.914.08,4.805-1.312-1.556.662-3.514-.35-4.979.15,0-.02-.008-.04-.013-.061,1.346-.908,3.865-.528,4.525-2.036-1.43.894-3.511.21-4.88.92l-.025-.062c1.192-1.1,3.725-1.122,4.14-2.708-1.269,1.1-3.422.759-4.666,1.663-.011-.02-.024-.041-.036-.061,1.011-1.262,3.494-1.684,3.653-3.312-1.077,1.286-3.249,1.285-4.336,2.366-.015-.019-.032-.039-.048-.058.807-1.4,3.18-2.2,3.085-3.83-.861,1.435-3,1.775-3.906,3-.02-.018-.041-.034-.06-.052.586-1.5,2.791-2.665,2.444-4.253-.625,1.547-2.674,2.218-3.385,3.568-.024-.015-.046-.029-.07-.043.353-1.57,2.338-3.061,1.746-4.572-.374,1.623-2.285,2.606-2.78,4.045l-.079-.032c.108-1.6,1.827-3.381,1.008-4.779-.115,1.66-1.846,2.929-2.113,4.425l-.082-.02c-.14-1.6,1.274-3.622.248-4.873.146,1.656-1.364,3.18-1.4,4.7l-.084-.005c-.388-1.556.692-3.777-.517-4.852.4,1.614-.851,3.356-.642,4.862l-.084.007c-.629-1.477.09-3.84-1.271-4.711.651,1.532-.317,3.45.126,4.906l-.081.019c-.854-1.36-.51-3.809-1.993-4.458.884,1.414.224,3.464.9,4.832l-.074.032c-1.064-1.207-1.1-3.689-2.674-4.1,1.1,1.262.762,3.4,1.649,4.642l-.068.041c-1.245-1.021-1.671-3.478-3.29-3.636,1.285,1.077,1.285,3.249,2.364,4.336-.019.016-.038.033-.055.05-1.4-.808-2.2-3.181-3.831-3.086,1.442.865,1.777,3.02,3.022,3.922-.015.018-.031.036-.044.054-1.514-.571-2.682-2.8-4.28-2.454,1.563.632,2.233,2.718,3.612,3.407-.011.02-.023.039-.034.058-1.588-.318-3.1-2.354-4.625-1.756,1.649.379,2.638,2.346,4.114,2.8-.007.018-.014.039-.023.058-1.621-.054-3.437-1.844-4.859-1.012,1.7.117,2.982,1.919,4.522,2.129-.005.018-.009.038-.014.056-1.613.213-3.7-1.286-4.975-.238,1.7-.149,3.259,1.442,4.816,1.394,0,.018,0,.035,0,.053-1.562.479-3.869-.69-4.971.55,1.661-.415,3.457.925,4.994.621,0,.016,0,.032,0,.047-1.464.731-3.94-.074-4.84,1.328,1.583-.672,3.574.381,5.044-.174,0,.014.009.027.012.041-1.329.966-3.917.55-4.589,2.082,1.463-.915,3.606-.179,4.97-.97l.016.033c-1.154,1.175-3.8,1.163-4.219,2.787,1.306-1.137,3.549-.737,4.77-1.747a.152.152,0,0,1,.017.027c-.945,1.353-3.576,1.75-3.74,3.428,1.114-1.331,3.4-1.283,4.447-2.483a.083.083,0,0,1,.018.021c-.712,1.494-3.265,2.3-3.165,3.985.894-1.493,3.173-1.8,4.011-3.159a.19.19,0,0,1,.019.018c-.463,1.592-2.871,2.788-2.508,4.442.653-1.616,2.86-2.277,3.471-3.754l.019.012c-.2,1.649-2.4,3.207-1.783,4.788.392-1.7,2.473-2.7,2.843-4.256l.018.008c.066,1.662-1.869,3.549-1.01,5.015.12-1.743,2.023-3.055,2.14-4.653l.021.005c.325,1.632-1.293,3.8-.214,5.115-.154-1.74,1.521-3.335,1.387-4.931l.018,0c.581,1.56-.681,3.956.591,5.087-.424-1.7.979-3.531.6-5.087l.018,0c.815,1.451-.054,4.014,1.378,4.931-.683-1.606.413-3.637-.2-5.114l.02,0c1.028,1.306.573,3.969,2.129,4.651-.925-1.478-.162-3.651-1-5.015l.021-.009c1.216,1.133,1.185,3.828,2.826,4.257-1.143-1.313-.731-3.575-1.763-4.791l.02-.013c1.372.934,1.764,3.592,3.451,3.757-1.333-1.115-1.283-3.406-2.485-4.449a.148.148,0,0,1,.022-.018c1.493.713,2.3,3.265,3.985,3.166-1.484-.892-1.8-3.151-3.137-4l.022-.025c1.579.481,2.77,2.862,4.415,2.5-1.6-.646-2.264-2.815-3.709-3.452.007-.011.014-.021.02-.032,1.631.241,3.174,2.389,4.738,1.776-1.677-.386-2.67-2.41-4.188-2.823.007-.014.012-.028.019-.04,1.641,0,3.492,1.859,4.934,1.014-1.707-.119-3-1.948-4.557-2.133a.292.292,0,0,1,.011-.046c1.619-.244,3.725,1.287,5.013.231-1.7.15-3.259-1.442-4.817-1.394l.005-.053c1.56-.478,3.867.69,4.97-.55m-5.856.8a6.977,6.977,0,0,1-.192,1.01,1.048,1.048,0,0,0,.14.024,1.376,1.376,0,0,0-.157.037,6.765,6.765,0,0,1-.35.968,1.128,1.128,0,0,0,.136.045c-.055,0-.11.006-.161.012a6.874,6.874,0,0,1-.5.9,1.088,1.088,0,0,0,.128.066,1.488,1.488,0,0,0-.162-.013,6.8,6.8,0,0,1-.632.811.955.955,0,0,0,.117.086c-.053-.016-.108-.029-.16-.039a7.021,7.021,0,0,1-.75.7.945.945,0,0,0,.1.1c-.052-.023-.1-.046-.151-.063a6.922,6.922,0,0,1-.851.578,1.179,1.179,0,0,0,.084.117c-.047-.031-.093-.061-.139-.086a6.909,6.909,0,0,1-.932.438,1.165,1.165,0,0,0,.065.128c-.04-.038-.082-.074-.123-.106a7.031,7.031,0,0,1-.988.287,1.026,1.026,0,0,0,.043.136c-.034-.044-.068-.087-.1-.125a7.1,7.1,0,0,1-1.021.128,1.138,1.138,0,0,0,.021.142c-.027-.049-.055-.1-.084-.139-.1,0-.194.006-.289.006a7.058,7.058,0,0,1-.738-.039.967.967,0,0,0,0,.144,1.6,1.6,0,0,0-.061-.152,6.8,6.8,0,0,1-1.01-.193,1.092,1.092,0,0,0-.025.141c-.01-.053-.022-.107-.036-.157a6.882,6.882,0,0,1-.969-.35c-.016.041-.031.087-.045.136a1.55,1.55,0,0,0-.012-.161,6.954,6.954,0,0,1-.9-.5,1.148,1.148,0,0,0-.067.128c.007-.056.012-.11.014-.162a7.087,7.087,0,0,1-.812-.631,1.039,1.039,0,0,0-.086.116c.016-.054.029-.108.039-.159a7.14,7.14,0,0,1-.7-.751,1.123,1.123,0,0,0-.1.1,1.531,1.531,0,0,0,.063-.151,6.868,6.868,0,0,1-.577-.851.877.877,0,0,0-.117.083c.031-.047.061-.093.086-.139a7,7,0,0,1-.438-.93,1.088,1.088,0,0,0-.129.063c.039-.04.074-.082.107-.121a7.107,7.107,0,0,1-.287-.989,1.2,1.2,0,0,0-.137.042c.045-.034.088-.069.125-.1a7.234,7.234,0,0,1-.129-1.022.92.92,0,0,0-.142.023c.05-.028.1-.056.14-.086,0-.1-.007-.192-.007-.289a7.082,7.082,0,0,1,.039-.738,1.108,1.108,0,0,0-.144,0,1.5,1.5,0,0,0,.151-.061,6.732,6.732,0,0,1,.194-1.01,1.108,1.108,0,0,0-.142-.024c.054-.011.108-.022.158-.037a6.874,6.874,0,0,1,.349-.968.905.905,0,0,0-.135-.045c.056,0,.11-.006.161-.012a6.974,6.974,0,0,1,.5-.9.982.982,0,0,0-.129-.066q.086.011.163.013a6.905,6.905,0,0,1,.631-.811.882.882,0,0,0-.116-.086c.054.015.108.029.159.039a7.036,7.036,0,0,1,.751-.7,1.234,1.234,0,0,0-.1-.1c.052.024.1.046.151.063a6.872,6.872,0,0,1,.85-.579.967.967,0,0,0-.082-.117c.046.032.093.061.138.086a6.835,6.835,0,0,1,.931-.438,1.075,1.075,0,0,0-.063-.128c.039.038.081.074.121.105a6.9,6.9,0,0,1,.99-.286,1.281,1.281,0,0,0-.044-.136c.034.044.07.086.1.124a6.872,6.872,0,0,1,1.022-.127.909.909,0,0,0-.023-.142c.028.049.057.1.086.139.1,0,.192-.006.289-.006a7.1,7.1,0,0,1,.738.039.991.991,0,0,0,0-.144c.02.053.039.1.061.152a6.829,6.829,0,0,1,1.011.192,1.22,1.22,0,0,0,.024-.141,1.372,1.372,0,0,0,.038.158,6.948,6.948,0,0,1,.967.35.9.9,0,0,0,.045-.137,1.586,1.586,0,0,0,.012.162,6.956,6.956,0,0,1,.9.5.863.863,0,0,0,.067-.127c-.006.055-.011.11-.013.161a7.007,7.007,0,0,1,.811.632.893.893,0,0,0,.086-.117c-.015.054-.029.108-.039.16a6.938,6.938,0,0,1,.7.75.928.928,0,0,0,.1-.1c-.024.052-.045.1-.063.151a7.167,7.167,0,0,1,.579.851,1.123,1.123,0,0,0,.117-.084,1.416,1.416,0,0,0-.086.139,6.79,6.79,0,0,1,.437.931,1.252,1.252,0,0,0,.129-.064c-.038.041-.074.082-.106.122a6.735,6.735,0,0,1,.286.989,1.05,1.05,0,0,0,.137-.043,1.469,1.469,0,0,0-.124.105,6.833,6.833,0,0,1,.127,1.021.994.994,0,0,0,.142-.022c-.05.027-.1.056-.14.085.005.1.007.193.007.289a7.07,7.07,0,0,1-.039.738,1.1,1.1,0,0,0,.144,0c-.052.018-.1.039-.151.061" transform="translate(-731.964 -515.62)" fill="#f9f02a"/><path d="M769.031,534.073a9.03,9.03,0,0,0-3.124-.689c-.087.08-.171.161-.253.246a8.763,8.763,0,0,1,2.975.666q.2-.117.4-.224" transform="translate(-733.188 -516.755)" fill="#f9f02a"/><path d="M773.136,532.8a5.626,5.626,0,0,0-6.661,0,7.78,7.78,0,0,0,6.661,0" transform="translate(-733.289 -516.548)" fill="#f9f02a"/><path d="M768.016,534.725a8.446,8.446,0,0,0-2.756-.65c-.061.075-.123.153-.182.231a8.211,8.211,0,0,1,2.612.652c.106-.08.214-.158.325-.233" transform="translate(-733.117 -516.84)" fill="#f9f02a"/><path d="M771.132,536.577c-.113.089-.224.18-.332.274a8.452,8.452,0,0,1,2.654,6,5.536,5.536,0,0,0,.508-.378,8.661,8.661,0,0,0-2.83-5.892" transform="translate(-733.822 -517.148)" fill="#f9f02a"/><path d="M771.445,534.3a8.8,8.8,0,0,1,2.977-.666c-.082-.084-.168-.167-.255-.246a9.031,9.031,0,0,0-3.122.689c.135.071.269.146.4.224" transform="translate(-733.852 -516.755)" fill="#f9f02a"/><path d="M772.2,535.86c-.135.076-.267.157-.4.24a9.029,9.029,0,0,1,3.014,5.546,5.415,5.415,0,0,0,.442-.612,9.26,9.26,0,0,0-3.058-5.174" transform="translate(-733.945 -517.06)" fill="#f9f02a"/><path d="M767.093,535.387a7.923,7.923,0,0,0-2.4-.663,5.8,5.8,0,0,0-.557,5.05,9.639,9.639,0,0,1,2.958-4.387" transform="translate(-732.959 -516.92)" fill="#f9f02a"/><path d="M772.444,534.958a8.236,8.236,0,0,1,2.612-.651c-.059-.079-.118-.156-.181-.231a8.42,8.42,0,0,0-2.755.65c.11.075.217.154.324.233" transform="translate(-733.984 -516.84)" fill="#f9f02a"/><path d="M767.591,543.121c0,.084,0,.168,0,.251a5.616,5.616,0,0,0,4.7,0c0-.083,0-.167,0-.251a8.145,8.145,0,0,0-2.351-5.742,8.136,8.136,0,0,0-2.354,5.742" transform="translate(-733.426 -517.247)" fill="#f9f02a"/><path d="M770.217,534.528c-.137.07-.273.145-.4.223.137.071.271.146.4.224.132-.078.267-.153.4-.224-.133-.078-.267-.153-.4-.223" transform="translate(-733.7 -516.895)" fill="#f9f02a"/><path d="M772.993,535.387a9.654,9.654,0,0,1,2.958,4.387,5.817,5.817,0,0,0,.338-1.956,5.752,5.752,0,0,0-.9-3.094,7.911,7.911,0,0,0-2.4.663" transform="translate(-734.092 -516.92)" fill="#f9f02a"/><path d="M769.3,536.85q-.164-.141-.334-.274a8.669,8.669,0,0,0-2.829,5.892,5.521,5.521,0,0,0,.507.379,8.449,8.449,0,0,1,2.656-6" transform="translate(-733.248 -517.148)" fill="#f9f02a"/><path d="M769.892,536.1c.115.084.226.169.336.259.11-.089.221-.175.334-.259q-.164-.129-.334-.25c-.115.081-.226.164-.336.25" transform="translate(-733.71 -517.058)" fill="#f9f02a"/><path d="M768.262,536.1c-.13-.084-.262-.164-.4-.24a9.259,9.259,0,0,0-3.06,5.174,6.211,6.211,0,0,0,.441.612,9.034,9.034,0,0,1,3.015-5.546" transform="translate(-733.083 -517.06)" fill="#f9f02a"/><path d="M770.9,535.4c.113.078.224.159.332.24.131-.08.266-.157.4-.231-.108-.082-.217-.161-.331-.238-.135.072-.271.148-.4.228" transform="translate(-733.834 -516.975)" fill="#f9f02a"/><path d="M768.81,535.415c.135.074.269.151.4.232.11-.082.219-.163.332-.241-.132-.08-.266-.155-.4-.228-.111.076-.223.155-.331.238" transform="translate(-733.576 -516.975)" fill="#f9f02a"/></g></g></g></svg>