<svg xmlns="http://www.w3.org/2000/svg" xmlns:xlink="http://www.w3.org/1999/xlink" width="36" height="36" viewBox="0 0 36 36"><defs><clipPath id="a"><circle cx="18" cy="18" r="18" transform="translate(782 311)" fill="#fff" stroke="#707070" stroke-width="1"/></clipPath><clipPath id="b"><rect width="62.692" height="36.57" fill="none"/></clipPath></defs><g transform="translate(-782 -311)" clip-path="url(#a)"><g transform="translate(239.956 -45.83)"><g transform="translate(529.044 356.83)" clip-path="url(#b)"><rect width="62.693" height="18.285" transform="translate(0 18.285)" fill="#3e7fcd"/><rect width="62.693" height="18.285" fill="#fff"/><path d="M570.855,369.641l-.127.009c-.068,0-.134,0-.2,0-.109,0-.218-.007-.326-.015a.335.335,0,0,0,.653,0" transform="translate(-539.183 -359.985)" fill="#376fb8"/><path d="M570.526,369.911a.335.335,0,0,1-.336-.271c.118,0,.226,0,.336,0,.066,0,.133,0,.2,0l.081-.005v.011l-.081.015a4.246,4.246,0,0,1-.529-.012.361.361,0,0,0,.6.105.281.281,0,0,1-.268.158" transform="translate(-539.18 -359.984)"/><path d="M570.529,369.152a.327.327,0,0,0-.327.263c.044,0,.087-.009.13-.011.066,0,.133,0,.2,0s.133,0,.2.005c.042,0,.084.007.127.011a.327.327,0,0,0-.327-.263" transform="translate(-539.183 -359.865)" fill="#376fb8"/><path d="M570.871,369.433l-.139-.011a3.856,3.856,0,0,0-.4,0l-.121.01v-.008l.118-.023a3.525,3.525,0,0,1,.4,0l.115.016a.338.338,0,0,0-.632,0c.027-.328.6-.313.653,0Z" transform="translate(-539.186 -359.872)"/><path d="M570.6,368.8v.176l.023.025h-.128l.026-.025V368.8h-.177l-.023.023V368.7l.023.025h.177v-.176l-.026-.023h.128l-.023.023v.176h.176l.024-.025v.128l-.024-.023Z" transform="translate(-539.211 -359.71)" fill="#e1c025"/><path d="M570.66,369.082h-.128l.015-.21-.07,0,.08-.015.011.186.065.011,0,0,0-.182.187-.011.008-.054.026.087-.21-.014.026.183Z" transform="translate(-539.25 -359.781)"/><rect width="0.43" height="0.224" transform="translate(31.132 9.847)" fill="#c1b020"/><path d="M570.787,370.126h-.44l-.01-.234.44-.011Zm-.02-.234-.42.011.01.213.409-.01Z" transform="translate(-539.216 -360.045)"/><path d="M570.561,369.157c0,.037-.008.073-.009.109s0,.09,0,.135h.133c0-.044,0-.09,0-.134s-.006-.073-.007-.11a.333.333,0,0,0-.109,0" transform="translate(-539.268 -359.865)" fill="#e1c025"/><path d="M570.853,369.489a1.786,1.786,0,0,0-.326-.037,1.563,1.563,0,0,0-.328.037.293.293,0,0,0-.006.052.3.3,0,0,0,.006.053c.109.008.218.014.326.014.066,0,.133,0,.2,0l.127-.008a.328.328,0,0,0,.006-.055.293.293,0,0,0-.006-.052" transform="translate(-539.181 -359.939)" fill="#e1c025"/><path d="M570.528,369.619h0c-.109,0-.219-.007-.328-.016l0-.005v-.014a4.883,4.883,0,0,0,.525.011l.082-.005.046-.044v.06l-.127.01c-.069,0-.135,0-.2,0m-.327-.032,0-.108a2.115,2.115,0,0,1,.658,0v.046l-.011-.035a2.806,2.806,0,0,0-.315-.028h0a1.557,1.557,0,0,0-.326.036Z" transform="translate(-539.182 -359.94)"/><path d="M574.434,372.031a.414.414,0,0,1-.068.14l-.4-.453a.352.352,0,0,0,.023-.21c-.045-.334-.583-.682-1.235-.728s-1.818-.687-2.127-.471c.112-.136.389-.135.723-.081.088.029.176.057.271.09.225.078.463.164.684.234.11.035.216.066.317.088.05.012.1.023.142.03s.09.014.13.017a1.851,1.851,0,0,1,.462.091,1.665,1.665,0,0,1,.2.082,1.351,1.351,0,0,1,.179.1,1.275,1.275,0,0,1,.151.113.864.864,0,0,1,.119.123.6.6,0,0,1,.081.127.352.352,0,0,1,.025.064.3.3,0,0,1,.015.063.432.432,0,0,1,0,.106.416.416,0,0,1-.027.1Z" transform="translate(-539.288 -360.122)" fill="#e1c025"/><path d="M574.369,372.182l-.406-.461a.407.407,0,0,0,.021-.216c-.043-.308-.546-.672-1.226-.72a4.532,4.532,0,0,1-1.011-.271c-.489-.169-.951-.314-1.109-.2.081-.149.363-.156.718-.1l.474.16c.161.057.325.115.481.164.111.035.216.066.316.088.05.012.1.022.142.03s.089.014.129.017a1.857,1.857,0,0,1,.464.091,1.672,1.672,0,0,1,.2.083,1.331,1.331,0,0,1,.181.1,1.2,1.2,0,0,1,.153.114,1.032,1.032,0,0,1,.121.124.634.634,0,0,1,.081.128l.041.13a.367.367,0,0,1,0,.109.443.443,0,0,1-.026.106l.323.361a.352.352,0,0,1-.066.152Zm-3.555-1.932a3.575,3.575,0,0,1,.941.245,4.6,4.6,0,0,0,1.005.271c.626.044,1.2.381,1.244.736a.364.364,0,0,1-.023.216l.387.433a.392.392,0,0,0,.059-.127l-.323-.362a.778.778,0,0,0,.024-.111.418.418,0,0,0,0-.1l-.039-.124a.674.674,0,0,0-.08-.124.85.85,0,0,0-.118-.121,1.26,1.26,0,0,0-.15-.113,1.43,1.43,0,0,0-.179-.1,1.629,1.629,0,0,0-.2-.081,1.848,1.848,0,0,0-.223-.06,1.805,1.805,0,0,0-.237-.032c-.04,0-.085-.009-.13-.017s-.094-.018-.144-.03c-.1-.023-.206-.053-.317-.088-.156-.049-.319-.107-.482-.164l-.472-.159a.96.96,0,0,0-.685.05.25.25,0,0,1,.147-.034" transform="translate(-539.29 -360.119)"/><path d="M574.67,372.042l-.326-.371a.419.419,0,0,0,.027-.1.429.429,0,0,0,0-.106.3.3,0,0,0-.015-.063.352.352,0,0,0-.025-.064.6.6,0,0,0-.081-.127.871.871,0,0,0-.119-.123,1.28,1.28,0,0,0-.151-.113,1.356,1.356,0,0,0-.179-.1,1.661,1.661,0,0,0-.2-.082,1.849,1.849,0,0,0-.462-.091c-.04,0-.084-.009-.13-.017s-.093-.018-.142-.03c-.1-.023-.207-.054-.317-.088-.221-.07-.458-.157-.684-.234-.094-.032-.182-.061-.271-.09.522.086,1.191.3,1.617.345.7.069,1.409.54,1.47,1.125a.873.873,0,0,1-.006.332" transform="translate(-539.524 -360.133)" fill="#e1c025"/><path d="M574.674,372.065l-.338-.384a1.135,1.135,0,0,0,.025-.112.39.39,0,0,0,0-.1l-.039-.124a.654.654,0,0,0-.079-.124.941.941,0,0,0-.119-.121,1.255,1.255,0,0,0-.15-.112,1.43,1.43,0,0,0-.179-.1,1.769,1.769,0,0,0-.2-.082,1.966,1.966,0,0,0-.223-.06,1.943,1.943,0,0,0-.237-.032c-.04,0-.084-.008-.13-.016s-.093-.019-.143-.03c-.1-.023-.207-.054-.317-.088-.156-.05-.32-.108-.482-.164l-.472-.16a5.168,5.168,0,0,1,.773.15,6.839,6.839,0,0,0,.846.176c.661.065,1.415.515,1.479,1.133a.87.87,0,0,1-.005.336Zm-3.087-1.813.477.141c.162.057.326.115.481.164.111.035.216.066.316.088.051.012.1.023.142.031s.089.013.129.016a1.847,1.847,0,0,1,.24.032,2.034,2.034,0,0,1,.225.06,1.687,1.687,0,0,1,.205.083,1.378,1.378,0,0,1,.18.1,1.2,1.2,0,0,1,.153.115.932.932,0,0,1,.121.124.6.6,0,0,1,.081.128l.041.129a.372.372,0,0,1,0,.11.446.446,0,0,1-.026.106l.31.347a.915.915,0,0,0,0-.312c-.065-.606-.809-1.051-1.461-1.115a6.772,6.772,0,0,1-.85-.175c-.261-.065-.53-.131-.767-.17" transform="translate(-539.523 -360.136)"/><path d="M565.595,372.031a.414.414,0,0,0,.068.14l.4-.453a.364.364,0,0,1-.023-.21c.045-.334.583-.682,1.237-.728s1.816-.687,2.125-.471c-.112-.136-.389-.135-.723-.081-.088.029-.176.057-.271.09-.225.078-.463.164-.684.234-.11.035-.216.066-.317.088-.048.012-.1.023-.142.03s-.088.014-.13.017a1.857,1.857,0,0,0-.238.032,1.828,1.828,0,0,0-.224.06,1.662,1.662,0,0,0-.2.082,1.351,1.351,0,0,0-.179.1,1.274,1.274,0,0,0-.151.113.865.865,0,0,0-.119.123.6.6,0,0,0-.081.127.356.356,0,0,0-.025.064.307.307,0,0,0-.015.063.435.435,0,0,0,0,.106.419.419,0,0,0,.027.1Z" transform="translate(-538.048 -360.122)" fill="#e1c025"/><path d="M565.658,372.183l-.007-.01a.406.406,0,0,1-.069-.142l.327-.381a.244.244,0,0,1-.029-.1.392.392,0,0,1,0-.109l.041-.129a.593.593,0,0,1,.082-.129.883.883,0,0,1,.121-.123,1.109,1.109,0,0,1,.153-.115,1.286,1.286,0,0,1,.18-.1,1.72,1.72,0,0,1,.2-.083,1.919,1.919,0,0,1,.225-.06,1.894,1.894,0,0,1,.24-.032c.041,0,.083-.009.129-.017s.093-.018.142-.03c.1-.023.2-.054.316-.088.156-.049.32-.106.482-.164l.473-.159c.359-.059.629-.044.733.083a2.547,2.547,0,0,0-1.124.216,4.515,4.515,0,0,1-1.008.271c-.682.049-1.185.411-1.228.72a.363.363,0,0,0,.023.206Zm3.374-1.982a2.3,2.3,0,0,0-.359.034l-.47.16c-.161.057-.326.115-.482.164-.111.035-.217.066-.317.088-.049.011-.1.022-.144.03s-.089.013-.13.016a1.994,1.994,0,0,0-.237.032,2.055,2.055,0,0,0-.223.06,1.761,1.761,0,0,0-.2.082,1.5,1.5,0,0,0-.179.1,1.316,1.316,0,0,0-.15.112.974.974,0,0,0-.118.121.692.692,0,0,0-.081.125l-.048.122h.01a.388.388,0,0,0,0,.1.414.414,0,0,0,.026.1l-.328.381a.556.556,0,0,0,.061.117l.39-.443a.317.317,0,0,1-.026-.2c.048-.355.619-.692,1.245-.736a4.572,4.572,0,0,0,1-.27c.5-.173.957-.317,1.128-.2a.575.575,0,0,0-.369-.1" transform="translate(-538.045 -360.119)"/><path d="M565.589,372.042l.326-.371a.419.419,0,0,1-.027-.1.435.435,0,0,1,0-.106.307.307,0,0,1,.015-.063.356.356,0,0,1,.025-.064.6.6,0,0,1,.081-.127.865.865,0,0,1,.119-.123,1.274,1.274,0,0,1,.151-.113,1.351,1.351,0,0,1,.179-.1,1.662,1.662,0,0,1,.2-.082,1.828,1.828,0,0,1,.224-.06,1.857,1.857,0,0,1,.238-.032c.041,0,.084-.009.13-.017s.094-.018.142-.03c.1-.023.206-.054.317-.088.221-.07.458-.157.684-.234.094-.032.182-.061.271-.09-.522.086-1.191.3-1.617.345-.7.069-1.409.54-1.47,1.125a.876.876,0,0,0,.006.332" transform="translate(-538.042 -360.133)" fill="#e1c025"/><path d="M565.581,372.059l-.005-.018a.871.871,0,0,1-.005-.336c.064-.617.818-1.069,1.479-1.133a6.765,6.765,0,0,0,.846-.176c.262-.064.531-.13.77-.17l-.467.179c-.162.057-.326.115-.482.164-.11.035-.217.066-.317.088-.048.012-.1.023-.143.03s-.089.014-.13.017a1.846,1.846,0,0,0-.237.032,1.823,1.823,0,0,0-.223.06,1.638,1.638,0,0,0-.2.081,1.43,1.43,0,0,0-.179.1,1.26,1.26,0,0,0-.15.113.851.851,0,0,0-.118.121.609.609,0,0,0-.08.125l-.049.122h.01a.377.377,0,0,0,0,.1.492.492,0,0,0,.026.1Zm3.083-1.833-.763.189a6.8,6.8,0,0,1-.85.175c-.653.064-1.4.509-1.461,1.116a.909.909,0,0,0,0,.311l.313-.357a.232.232,0,0,1-.029-.1.363.363,0,0,1,0-.109l.04-.13A.646.646,0,0,1,566,371.2a.919.919,0,0,1,.12-.123,1.156,1.156,0,0,1,.153-.114,1.282,1.282,0,0,1,.18-.1,1.825,1.825,0,0,1,.2-.084,1.859,1.859,0,0,1,.464-.091c.041,0,.083-.008.129-.016s.093-.019.142-.03c.1-.023.206-.054.316-.088.155-.05.32-.107.482-.164Z" transform="translate(-538.038 -360.13)"/><path d="M569.65,374.656a9.6,9.6,0,0,0-2.678.341c.056-.026-.026-.262-.1-.441-.084-.216-.206-.247-.206-.247a12.2,12.2,0,0,1,5.974-.005.429.429,0,0,0-.23.264c-.069.178-.125.4-.069.43a9.737,9.737,0,0,0-2.7-.341" transform="translate(-538.313 -361.044)" fill="#e1c025"/><path d="M572.342,375a11.336,11.336,0,0,0-5.367,0c.013-.029.028-.1-.109-.447-.08-.207-.2-.24-.2-.241a.036.036,0,0,1,.012,0,10.586,10.586,0,0,1,2.974-.39,11.379,11.379,0,0,1,2.992.37.624.624,0,0,0-.223.277c-.082.21-.115.4-.074.418Zm-5.655-.692c.034,0,.13.059.2.237.112.29.14.43.09.454a8.893,8.893,0,0,1,2.673-.36,9.881,9.881,0,0,1,2.669.333.929.929,0,0,1,.085-.415.436.436,0,0,1,.236-.269,13.569,13.569,0,0,0-5.954.02" transform="translate(-538.312 -361.04)"/><path d="M569.64,373.946a10.787,10.787,0,0,0-2.913.356.092.092,0,0,1-.118-.051.09.09,0,0,1,.06-.115,12.035,12.035,0,0,1,5.946,0,.09.09,0,0,1,.06.115.092.092,0,0,1-.118.051,10.83,10.83,0,0,0-2.919-.356" transform="translate(-538.297 -361.001)" fill="#e1c025"/><path d="M572.59,374.313l-.036-.005a12.1,12.1,0,0,0-5.826,0c-.078.011-.117-.018-.13-.057l0,0,.008-.075a.1.1,0,0,1,.061-.05,10.687,10.687,0,0,1,2.973-.374,10.828,10.828,0,0,1,2.979.374l.061.05a.1.1,0,0,1,.006.078.094.094,0,0,1-.094.063m-2.952-.381a10.828,10.828,0,0,1,2.922.357l.03,0a.075.075,0,0,0,.075-.048l-.054-.1a10.815,10.815,0,0,0-2.973-.372,10.625,10.625,0,0,0-2.968.372l-.062.106.009,0a.075.075,0,0,0,.075.048,11,11,0,0,1,2.946-.361" transform="translate(-538.294 -360.998)"/><path d="M569.508,372.836l.1.019a.358.358,0,0,0-.02.134.393.393,0,0,0,.4.386.4.4,0,0,0,.378-.267c.005,0,.038-.139.054-.137s.014.149.017.146a.387.387,0,0,0,.395.326.391.391,0,0,0,.4-.385.249.249,0,0,0,0-.047l.125-.127.068.161a.363.363,0,0,0-.038.169.374.374,0,0,0,.38.367.382.382,0,0,0,.317-.164l.081-.1,0,.127c0,.127.053.242.175.262a.527.527,0,0,0,.327-.14,2.051,2.051,0,0,0,.286-.273l.017.15a1.252,1.252,0,0,1-.323.343.571.571,0,0,1-.341.093.338.338,0,0,1-.244-.226.562.562,0,0,1-.287.079.549.549,0,0,1-.513-.319.557.557,0,0,1-.421.186.588.588,0,0,1-.452-.212,1.22,1.22,0,0,0-1.357.154.578.578,0,0,1-.394-.154.587.587,0,0,1-.452.212.558.558,0,0,1-.421-.186.549.549,0,0,1-.512.319.56.56,0,0,1-.287-.079.34.34,0,0,1-.244.226.579.579,0,0,1-.343-.093,1.237,1.237,0,0,1-.321-.343l.017-.15a2.047,2.047,0,0,0,.286.273.527.527,0,0,0,.327.14c.122-.02.175-.135.175-.262v-.127l.079.1a.386.386,0,0,0,.317.164.373.373,0,0,0,.38-.367.362.362,0,0,0-.037-.169l.068-.161.124.127c0,.016,0,.031,0,.047a.4.4,0,0,0,.794.059s0-.145.017-.146.049.142.054.137a.4.4,0,0,0,.378.267.393.393,0,0,0,.4-.386.357.357,0,0,0-.02-.134Z" transform="translate(-538.16 -360.773)" fill="#e1c025"/><path d="M572.34,373.887l-.046,0a.347.347,0,0,1-.253-.231.564.564,0,0,1-.8-.24.586.586,0,0,1-.871-.022,3.891,3.891,0,0,0-1.752,0,.593.593,0,0,1-.873.024.56.56,0,0,1-.8.242.309.309,0,0,1-.238.227.6.6,0,0,1-.35-.094,1.207,1.207,0,0,1-.323-.347l.014-.155c.009-.017.117.116.3.265a.538.538,0,0,0,.316.139c.108-.017.17-.112.17-.253l0-.127.1.1a.375.375,0,0,0,.308.159.363.363,0,0,0,.369-.356.348.348,0,0,0-.035-.164l.067-.17.14.124a.4.4,0,0,0,.387.429.377.377,0,0,0,.386-.317c.008-.134.011-.153.026-.154s.026.022.048.1a.4.4,0,0,0,.774-.069.365.365,0,0,0-.018-.13l.111-.032.1.019a.854.854,0,0,0-.011.144.39.39,0,0,0,.757.116c.04-.123.05-.145.064-.145s.02.021.024.115a.389.389,0,0,0,.776-.017l.014-.021a.4.4,0,0,1-.4.416.4.4,0,0,1-.4-.335.85.85,0,0,0-.014-.141.528.528,0,0,1-.022.087.418.418,0,0,1-.814-.075.392.392,0,0,1,.02-.138l-.093-.006-.1.02a.2.2,0,0,1,.028.124.411.411,0,0,1-.8.122.9.9,0,0,0-.047-.132.888.888,0,0,1,0,.1.409.409,0,0,1-.817-.018l-.118-.167-.051.158a.31.31,0,0,1,.038.165.385.385,0,0,1-.39.378.4.4,0,0,1-.324-.168l-.08-.1.02.121c0,.151-.069.253-.184.273a.627.627,0,0,1-.334-.142,2.146,2.146,0,0,1-.289-.274v.143a1.3,1.3,0,0,0,.317.334.645.645,0,0,0,.294.1.332.332,0,0,0,.279-.223.584.584,0,0,0,.8-.24,7.252,7.252,0,0,1,2.627-.029.6.6,0,0,0,.872.026.59.59,0,0,0,.8.238.372.372,0,0,0,.251.225l.043,0a.646.646,0,0,0,.292-.1,1.253,1.253,0,0,0,.32-.34l-.017-.136a1.2,1.2,0,0,1-.272.272.564.564,0,0,1-.329.143c-.121-.02-.19-.122-.19-.274v-.127l-.062.11a.394.394,0,0,1-.324.168.384.384,0,0,1-.39-.378.368.368,0,0,1,.04-.173l-.068-.153-.031.037.032-.048.084.165a.42.42,0,0,0-.037.173.364.364,0,0,0,.37.356.371.371,0,0,0,.308-.159l.081-.1.017.133c0,.141.062.236.166.253a.539.539,0,0,0,.32-.139,2.193,2.193,0,0,0,.286-.271l.033.155a1.182,1.182,0,0,1-.327.353.674.674,0,0,1-.3.1" transform="translate(-538.157 -360.77)"/><path d="M566.909,373.4a.173.173,0,1,1,.173.173.174.174,0,0,1-.173-.173" transform="translate(-538.372 -360.869)" fill="#e1e2e3"/><path d="M567.078,373.586a.183.183,0,0,1-.182-.182c0-.2.365-.2.366,0a.183.183,0,0,1-.184.182m0-.344a.162.162,0,0,0-.162.162c0,.18.326.179.326,0a.163.163,0,0,0-.164-.162" transform="translate(-538.368 -360.873)"/><path d="M573.913,373.4a.172.172,0,1,1,.173.173.173.173,0,0,1-.173-.173" transform="translate(-540.097 -360.869)" fill="#e1e2e3"/><path d="M574.082,373.586a.183.183,0,0,1-.182-.182c0-.2.365-.2.365,0a.183.183,0,0,1-.182.182m0-.344a.162.162,0,0,0-.162.162c0,.179.324.179.324,0a.162.162,0,0,0-.162-.162" transform="translate(-540.094 -360.873)"/><path d="M569.222,372.995a.172.172,0,1,1,.173.173.172.172,0,0,1-.173-.173" transform="translate(-538.941 -360.769)" fill="#e1e2e3"/><path d="M569.39,373.18a.183.183,0,0,1-.182-.182c0-.2.365-.2.365,0a.183.183,0,0,1-.182.182m0-.344a.162.162,0,0,0-.162.162c0,.179.324.179.324,0a.162.162,0,0,0-.162-.162" transform="translate(-538.938 -360.773)"/><path d="M571.624,372.995a.173.173,0,1,1,.173.173.173.173,0,0,1-.173-.173" transform="translate(-539.533 -360.769)" fill="#e1e2e3"/><path d="M571.792,373.18a.183.183,0,0,1-.182-.182c0-.2.365-.2.366,0a.183.183,0,0,1-.184.182m0-.344a.162.162,0,0,0-.162.162c0,.179.326.179.326,0a.163.163,0,0,0-.164-.162" transform="translate(-539.53 -360.773)"/><path d="M565.974,373.431a.279.279,0,0,0,.151.03,1.1,1.1,0,0,0,.262-.048.267.267,0,0,1-.075-.065.252.252,0,0,0-.063-.1.213.213,0,0,0-.115-.045l-.029-.059.057-.009a.175.175,0,0,0,.1.078c.066.019.176-.048.176-.048s-.059-.121-.124-.132a.222.222,0,0,0-.091,0l-.038-.046.037-.02s.085.032.125.011.037-.053.053-.118.037-.121.037-.121a.4.4,0,0,1-.119-.025c-.051-.021-.085-.072-.147-.044s-.05.066-.068.1a.113.113,0,0,1-.078.046l-.01-.051a.107.107,0,0,0,.072-.075.23.23,0,0,0,0-.12.192.192,0,0,0-.125.053c-.036.047-.019.059-.045.076a.111.111,0,0,1-.059.018s-.015-.041.01-.062.02-.021.049-.044a.6.6,0,0,0,.082-.127.315.315,0,0,0-.069,0c-.032,0-.077.02-.084.006s0-.012-.023-.072a.445.445,0,0,0-.06-.1.326.326,0,0,0-.128.063,1.184,1.184,0,0,0-.109.092.324.324,0,0,0-.24,0,.668.668,0,0,1,.265.341.463.463,0,0,1,.045.059.758.758,0,0,1,.046.069c.029.048.056.1.081.152s.047.1.065.142a.513.513,0,0,0,.037.065.694.694,0,0,0,.053.065c.016.018.083.055.1.072" transform="translate(-537.971 -360.645)" fill="#e1c025" fill-rule="evenodd"/><path d="M566.136,373.469h-.014a.278.278,0,0,1-.155-.031l-.1-.074a.819.819,0,0,1-.053-.066l-.038-.066c-.017-.043-.04-.092-.065-.142a1.713,1.713,0,0,0-.081-.152.555.555,0,0,0-.045-.068l-.046-.06a.678.678,0,0,0-.263-.338.241.241,0,0,1,.251-.014l.047-.049c.109-.08.139-.1.184-.106a.288.288,0,0,1,.072.11l.006.03-.025-.023a.4.4,0,0,0-.059-.1.574.574,0,0,0-.115.064l-.108.091a.371.371,0,0,0-.243,0,.544.544,0,0,1,.255.3c.029.047.044.067.06.09s.031.044.046.069c.029.048.056.1.081.153s.047.1.065.144a.768.768,0,0,0,.088.127l.093.078,0-.009a.262.262,0,0,0,.147.029l.013.011v-.01a1.141,1.141,0,0,0,.234-.044.141.141,0,0,1-.069-.054.242.242,0,0,0-.061-.1.214.214,0,0,0-.109-.043l-.03-.078a.139.139,0,0,1,.049.008c-.011.051.059.057.1.1a.181.181,0,0,1,.05.071.257.257,0,0,0,.086.09.553.553,0,0,1-.254.068m.151-.244a.211.211,0,0,1-.133-.081.674.674,0,0,0,.109.059.355.355,0,0,0,.167-.045c-.009,0-.063-.106-.118-.116l-.007,0-.1-.017.01-.072a.562.562,0,0,0,.094.017c.058-.02.063-.039.07-.078.018-.079.038-.14.044-.157a.2.2,0,0,1-.112-.017l-.109-.051c-.068.023-.075.046-.082.072a.13.13,0,0,1-.1.084.087.087,0,0,1,0-.037c.017.015.054,0,.069-.023.017-.057.026-.087.073-.107a.132.132,0,0,1,.114.02.419.419,0,0,0,.157.047c.009.014-.014.081-.028.133-.017.08-.022.107-.058.124a.347.347,0,0,1-.133-.01l.1.059v-.01c.069.012.129.133.131.138a.267.267,0,0,1-.159.065m-.258-.455c.013-.029.037-.047.047-.082a.237.237,0,0,0,0-.112c0,.007-.078.014-.109.054l-.075.079-.008-.017.039-.021a.22.22,0,0,1,.161-.11.169.169,0,0,1,.014.132.117.117,0,0,1-.066.077" transform="translate(-537.969 -360.641)"/><path d="M565.919,373.465c.1-.04.119-.173.048-.307a.293.293,0,0,0-.312-.179l-.011.008c0,.022,0,.022.008.047.008.042.019.088.031.13a.465.465,0,0,0,.041.1.568.568,0,0,0,.063.08c.026.026.054.053.081.075s.034.029.051.044" transform="translate(-538.06 -360.806)" fill="#e1c025"/><path d="M565.917,373.473l-.005,0,.007-.008,0-.009a.13.13,0,0,0,.073-.078.275.275,0,0,0-.029-.215.317.317,0,0,0-.252-.182.24.24,0,0,0-.016.179.437.437,0,0,0,.041.1.518.518,0,0,0,.062.078c.026.026.054.053.08.075l.045.051-.02,0c-.065-.055-.093-.081-.121-.108a.644.644,0,0,1-.064-.081.459.459,0,0,1-.042-.105c-.012-.042-.022-.087-.031-.13l.066-.075a.337.337,0,0,1,.269.193.29.29,0,0,1,.03.231.145.145,0,0,1-.084.09Z" transform="translate(-538.059 -360.803)"/><path d="M565.7,373.273c-.053-.1-.081-.184-.012-.208s.168.035.221.136.04.2-.029.226-.127-.053-.179-.154" transform="translate(-538.061 -360.828)" fill="#e1e2e3"/><path d="M565.853,373.438c-.068,0-.12-.083-.163-.164s-.063-.146-.048-.183l.078-.044a.253.253,0,0,1,.2.147.226.226,0,0,1,.023.18.1.1,0,0,1-.058.06Zm-.133-.372a.148.148,0,0,0-.013.2c.038.07.088.153.145.153v.009l.023-.014a.182.182,0,0,0,.023-.212.232.232,0,0,0-.179-.136" transform="translate(-538.058 -360.825)"/><path d="M574.919,373.431a.282.282,0,0,1-.151.03,1.1,1.1,0,0,1-.262-.048.248.248,0,0,0,.074-.065.276.276,0,0,1,.065-.1.21.21,0,0,1,.113-.045l.029-.059-.056-.009a.174.174,0,0,1-.1.078c-.066.019-.176-.048-.176-.048s.059-.121.124-.132a.213.213,0,0,1,.09,0l.038-.046-.035-.02s-.085.032-.127.011-.035-.053-.051-.118-.037-.121-.037-.121a.4.4,0,0,0,.119-.025c.051-.021.085-.072.147-.044s.05.066.068.1a.111.111,0,0,0,.077.046l.01-.051a.106.106,0,0,1-.07-.075.231.231,0,0,1,0-.12.192.192,0,0,1,.125.053c.036.047.019.059.045.076a.111.111,0,0,0,.059.018s.015-.041-.01-.062-.02-.021-.049-.044a.6.6,0,0,1-.082-.127.315.315,0,0,1,.069,0c.032,0,.075.02.084.006s0-.012.023-.072a.445.445,0,0,1,.06-.1.335.335,0,0,1,.128.063,1.023,1.023,0,0,1,.108.092.325.325,0,0,1,.24,0,.614.614,0,0,0-.264.341.68.68,0,0,0-.047.059c-.015.021-.029.044-.044.069-.029.048-.056.1-.081.152s-.047.1-.065.142a.389.389,0,0,1-.038.065.5.5,0,0,1-.051.065c-.017.018-.083.055-.1.072" transform="translate(-540.23 -360.645)" fill="#e1c025" fill-rule="evenodd"/><path d="M574.752,373.469a1.15,1.15,0,0,1-.252-.049c.013-.027.055-.056.067-.079a.286.286,0,0,1,.067-.1.216.216,0,0,1,.117-.047c-.035.026-.075.036-.1.062a.169.169,0,0,0-.046.063.293.293,0,0,1-.088.1c.021-.017.163.034.238.034v.01l.012-.01a.277.277,0,0,0,.148-.029l.1-.063-.008-.007a.766.766,0,0,0,.051-.063c.055-.106.077-.156.1-.206s.052-.1.081-.153l.044-.069a.6.6,0,0,1,.048-.06.615.615,0,0,1,.265-.343,1.079,1.079,0,0,1-.109,0,.313.313,0,0,0-.121.023l-.067-.052c-.106-.076-.133-.093-.173-.1,0,0-.029.044-.05.1l-.033.069.008,0-.022,0,.005-.008a.658.658,0,0,1,.085-.178.29.29,0,0,1,.14.061l.1.1,0-.008a.344.344,0,0,1,.247,0,.738.738,0,0,0-.258.354l-.056.056.008.005-.044.068c-.029.049-.056.1-.081.151s-.047.1-.065.142v0l-.039.066a.559.559,0,0,1-.052.066l-.1.073a.287.287,0,0,1-.156.032Zm-.132-.247a.387.387,0,0,1-.174-.048c0-.019.058-.139.127-.151l.091.006-.008-.006c.012-.05-.038-.032-.079-.031-.076-.026-.081-.053-.089-.093a1.632,1.632,0,0,0-.046-.16c.01-.014.076-.017.125-.037.063-.038.087-.054.117-.054.085.029.094.06.1.087a.119.119,0,0,0,.062.065.05.05,0,0,1-.069-.027c-.019-.06-.026-.082-.063-.1l-.1.02a.481.481,0,0,1-.161.05.357.357,0,0,1,.041.109c.016.078.02.1.046.111a.273.273,0,0,0,.118-.011l.011.006,0,.075-.1.006c-.047.008-.1.091-.115.125a.527.527,0,0,0,.14.039.19.19,0,0,0,.118-.075l.073.018a.136.136,0,0,1-.039.043c-.021-.047-.051.01-.123.03Zm.241-.433c-.013-.022-.054-.044-.068-.1a.247.247,0,0,1,0-.125.163.163,0,0,1,.143.05l.032.073-.024-.014a.2.2,0,0,0-.139-.1.428.428,0,0,0,0,.106.1.1,0,0,0,.064.069.086.086,0,0,1-.016.033" transform="translate(-540.227 -360.642)"/><path d="M575.234,373.465c-.1-.04-.119-.173-.048-.307a.293.293,0,0,1,.312-.179s.007.005.011.008c0,.022,0,.022-.008.047a1.3,1.3,0,0,1-.03.13.465.465,0,0,1-.041.1.5.5,0,0,1-.065.08.936.936,0,0,1-.08.075c-.028.026-.034.029-.051.044" transform="translate(-540.4 -360.806)" fill="#e1c025"/><path d="M575.226,373.471a.148.148,0,0,1-.084-.09.291.291,0,0,1,.03-.23.337.337,0,0,1,.27-.193l.072.028c-.016.09-.026.136-.038.177a.517.517,0,0,1-.042.105.546.546,0,0,1-.066.081,1.059,1.059,0,0,1-.08.076Zm.174-.459a.244.244,0,0,0-.21.147.269.269,0,0,0-.029.215.125.125,0,0,0,.067.076l.009-.008c.064-.054.091-.081.117-.106a.465.465,0,0,0,.063-.078.44.44,0,0,0,.04-.1,1.173,1.173,0,0,0,.029-.128.244.244,0,0,0-.086-.017" transform="translate(-540.397 -360.803)"/><path d="M575.473,373.273c.053-.1.081-.184.012-.208s-.168.035-.221.136-.04.2.029.226.127-.053.179-.154" transform="translate(-540.422 -360.828)" fill="#e1e2e3"/><path d="M575.316,373.438l-.029-.005a.1.1,0,0,1-.059-.06.223.223,0,0,1,.023-.18.253.253,0,0,1,.2-.148l.078.045c.015.037,0,.091-.048.183s-.095.164-.163.164m.126-.35a.191.191,0,0,0-.173.113.211.211,0,0,0-.023.164l.044.057.026-.005c.057,0,.108-.082.145-.153.028-.053.063-.128.048-.167a.279.279,0,0,0-.067-.009" transform="translate(-540.419 -360.824)"/><path d="M569.746,375.753a9.69,9.69,0,0,1-2.651-.327.11.11,0,0,1,0-.207,10.935,10.935,0,0,1,5.3,0,.11.11,0,0,1,0,.207,9.681,9.681,0,0,1-2.651.327" transform="translate(-538.4 -361.28)" fill="#e1c025"/><path d="M569.743,375.76h0a9.69,9.69,0,0,1-2.654-.328.12.12,0,0,1,0-.226,10.954,10.954,0,0,1,5.307,0,.12.12,0,0,1,0,.226,9.69,9.69,0,0,1-2.654.328m0-.86a9.645,9.645,0,0,0-2.648.326.092.092,0,0,0-.065.091.093.093,0,0,0,.065.1,10.935,10.935,0,0,0,5.3,0,.094.094,0,0,0,.066-.1.093.093,0,0,0-.066-.092,9.646,9.646,0,0,0-2.648-.326" transform="translate(-538.396 -361.276)"/><path d="M569.832,375.679h0a10.156,10.156,0,0,1-2.449-.279,9.337,9.337,0,0,1,2.449-.292,10.322,10.322,0,0,1,2.455.273,9.3,9.3,0,0,1-2.455.3m0-.55a10.274,10.274,0,0,0-2.444.271,11.964,11.964,0,0,0,4.894-.019,11.5,11.5,0,0,0-2.45-.252" transform="translate(-538.488 -361.333)"/><path d="M570.491,374.589c-.246,0-.443-.093-.443-.206s.2-.206.443-.206.443.092.443.206-.2.206-.443.206" transform="translate(-539.145 -361.103)" fill="#e1c025"/><path d="M570.488,374.6c-.254,0-.454-.095-.454-.216s.2-.216.454-.216.454.095.454.216-.2.216-.454.216m0-.412c-.238,0-.433.087-.433.2s.194.2.433.2.433-.09.433-.2-.194-.2-.433-.2" transform="translate(-539.141 -361.1)"/><path d="M570.529,374.546c-.182,0-.329-.063-.329-.141s.146-.142.329-.142.329.063.329.142-.148.141-.329.141" transform="translate(-539.182 -361.124)" fill="#d90031"/><path d="M570.525,374.56c-.19,0-.338-.067-.338-.152,0-.17.677-.17.677,0,0,.084-.148.152-.338.152m0-.283c-.173,0-.318.06-.318.131,0,.142.636.142.636,0,0-.072-.146-.131-.318-.131" transform="translate(-539.179 -361.128)"/><path d="M574.211,374.62c-.009,0-.015-.008-.023-.01-.236-.069-.451-.035-.483.075s.131.251.365.32c.011-.014.023-.026.035-.041a.61.61,0,0,0,.044-.07.385.385,0,0,0,.032-.073.655.655,0,0,0,.019-.07.545.545,0,0,0,.009-.069.421.421,0,0,0,0-.061" transform="translate(-540.045 -361.201)" fill="#e1c025"/><path d="M574.063,375.011c-.241-.07-.4-.216-.372-.332s.259-.15.5-.081l.029.083-.029.139a.357.357,0,0,1-.032.075c-.014.025-.029.048-.045.072Zm-.112-.429c-.13,0-.221.04-.24.1-.029.1.129.237.352.305l.009-.011a.59.59,0,0,0,.065-.093.44.44,0,0,0,.032-.072l.028-.137a.343.343,0,0,0-.246-.095" transform="translate(-540.041 -361.198)"/><path d="M574.251,374.712a.39.39,0,0,0-.045-.017c-.175-.051-.334-.031-.354.043s.1.178.275.228l.029.006a.368.368,0,0,0,.041-.031.353.353,0,0,0,.031-.037.176.176,0,0,0,.02-.041.144.144,0,0,0,.011-.045c0-.016,0-.032,0-.049a.36.36,0,0,0-.01-.057" transform="translate(-540.081 -361.224)" fill="#d90031"/><path d="M574.144,374.975a.482.482,0,0,1-.289-.175.212.212,0,0,1,.008-.062.372.372,0,0,0,.268.214l.026.015Zm-.271-.258c.047-.092.194-.078.338-.037l.02.026c-.219-.06-.317-.038-.357.011" transform="translate(-540.083 -361.22)"/><path d="M566.878,374.62c.009,0,.015-.008.023-.01.236-.069.451-.035.483.075s-.131.251-.366.32c-.011-.014-.023-.026-.035-.041a.61.61,0,0,1-.044-.07.385.385,0,0,1-.032-.073.641.641,0,0,1-.019-.07.557.557,0,0,1-.009-.069.413.413,0,0,1,0-.061" transform="translate(-538.364 -361.201)" fill="#e1c025"/><path d="M567.012,375.011l0,0,.008-.007,0-.009c.228-.066.388-.2.359-.307s-.25-.131-.47-.067l-.017.128-.009-.067h-.009l.014-.076c.278-.086.476-.036.51.075s-.13.261-.372.332Z" transform="translate(-538.361 -361.197)"/><path d="M566.871,374.712a.38.38,0,0,1,.044-.017c.175-.051.334-.031.356.043s-.1.178-.277.228l-.029.006a.369.369,0,0,1-.042-.031.337.337,0,0,1-.031-.037.177.177,0,0,1-.02-.041.146.146,0,0,1-.011-.045c0-.016,0-.032,0-.049a.347.347,0,0,1,.011-.057" transform="translate(-538.359 -361.224)" fill="#d90031"/><path d="M566.956,374.973l.006-.008,0-.009.012,0c.182-.052.306-.151.286-.219s-.182-.085-.344-.037l-.057.065h.011l.053.172.008-.008.034.038h-.016l-.066-.065-.032-.092.01-.106c.316-.12.4-.054.42.025s-.1.188-.283.24Z" transform="translate(-538.357 -361.217)"/><path d="M569.558,374.438a.094.094,0,0,1,.187,0,.094.094,0,0,1-.187,0" transform="translate(-539.024 -361.146)" fill="#e1e2e3"/><path d="M569.647,374.539a.1.1,0,0,1-.1-.1c0-.109.208-.108.208,0a.1.1,0,0,1-.1.1" transform="translate(-539.021 -361.148)"/><path d="M567.688,374.656a.092.092,0,0,1,.094-.088.088.088,0,1,1,0,.176.092.092,0,0,1-.094-.088" transform="translate(-538.563 -361.2)" fill="#e1e2e3"/><path d="M567.779,374.757a.1.1,0,0,1-.1-.1c0-.108.208-.109.208,0a.1.1,0,0,1-.1.1" transform="translate(-538.56 -361.202)"/><path d="M571.483,374.438a.094.094,0,1,1,.094.089.092.092,0,0,1-.094-.089" transform="translate(-539.498 -361.146)" fill="#e1e2e3"/><path d="M571.574,374.539a.1.1,0,0,1-.1-.1c0-.109.21-.109.21,0a.1.1,0,0,1-.1.1" transform="translate(-539.495 -361.148)"/><path d="M573.333,374.656a.092.092,0,0,1,.094-.088.088.088,0,1,1,0,.176.092.092,0,0,1-.094-.088" transform="translate(-539.954 -361.2)" fill="#e1e2e3"/><path d="M573.424,374.757a.1.1,0,0,1-.1-.1c0-.108.207-.109.208,0a.1.1,0,0,1-.1.1" transform="translate(-539.951 -361.202)"/><path d="M568.533,374.211l.506.2-.445.317-.508-.2Z" transform="translate(-538.662 -361.112)" fill="#e1c025" fill-rule="evenodd"/><path d="M568.6,374.733l-.513-.2.443-.336.517.193Zm-.067-.515-.436.316.5.173.439-.314Z" transform="translate(-538.661 -361.109)"/><path d="M568.6,374.33l.332.127-.292.206-.333-.127Z" transform="translate(-538.715 -361.141)" fill="#3b8f4e" fill-rule="evenodd"/><path d="M568.636,374.672l-.338-.129.29-.225.343.125Zm-.044-.335-.283.2.324.106.287-.2Z" transform="translate(-538.714 -361.138)"/><path d="M572.427,374.211l-.507.2.445.317.506-.2Z" transform="translate(-539.606 -361.112)" fill="#e1c025" fill-rule="evenodd"/><path d="M572.362,374.732l-.45-.321.509-.214.454.318Zm.057-.516-.5.2.442.294.5-.192Z" transform="translate(-539.604 -361.108)"/><path d="M572.47,374.33l-.332.127.291.206.333-.127Z" transform="translate(-539.66 -361.141)" fill="#3b8f4e" fill-rule="evenodd"/><path d="M572.425,374.672l-.3-.21.335-.145.3.207Zm.036-.336-.323.128.289.183.328-.124Z" transform="translate(-539.657 -361.138)"/><path d="M570.009,369.994a.129.129,0,0,1-.128.128.127.127,0,0,1-.128-.127h0a.128.128,0,1,1,.256,0Z" transform="translate(-539.072 -360.041)" fill="#e1e2e3"/><path d="M569.878,370.129a.139.139,0,0,1-.139-.138.141.141,0,0,1,.139-.139.139.139,0,0,1,.139.138.141.141,0,0,1-.139.139m0-.257a.118.118,0,1,0,.118.118.118.118,0,0,0-.118-.118" transform="translate(-539.069 -360.038)"/><path d="M569.507,370.053a.141.141,0,0,1-.281,0v0a.141.141,0,1,1,.281,0Z" transform="translate(-538.942 -360.053)" fill="#e1e2e3"/><path d="M569.364,370.2h0a.15.15,0,0,1-.15-.149.153.153,0,0,1,.15-.152.151.151,0,0,1,0,.3m0-.281a.13.13,0,0,0-.13.13c0,.145.261.143.261,0a.131.131,0,0,0-.131-.13" transform="translate(-538.939 -360.05)"/><path d="M568.935,370.177a.161.161,0,1,1-.321,0h0a.161.161,0,1,1,.321,0Z" transform="translate(-538.792 -360.078)" fill="#e1e2e3"/><path d="M568.771,370.353h0a.171.171,0,0,1-.171-.171c0-.19.342-.191.342,0a.168.168,0,0,1-.049.121.172.172,0,0,1-.122.053m0-.323a.15.15,0,0,0-.15.151.156.156,0,0,0,.259.106.147.147,0,0,0,.041-.106.15.15,0,0,0-.15-.151" transform="translate(-538.788 -360.082)"/><path d="M568.288,370.339a.178.178,0,0,1-.356,0h0a.178.178,0,0,1,.356,0Z" transform="translate(-538.624 -360.114)" fill="#e1e2e3"/><path d="M568.109,370.525h0a.189.189,0,1,1,.187-.19.19.19,0,0,1-.187.19m0-.357a.169.169,0,0,0-.168.169c0,.188.336.186.336,0a.168.168,0,0,0-.168-.169" transform="translate(-538.62 -360.11)"/><path d="M567.508,370.463a.2.2,0,0,1-.4,0h0a.2.2,0,1,1,.4,0Z" transform="translate(-538.421 -360.139)" fill="#e1e2e3"/><path d="M567.307,370.668h0a.209.209,0,0,1-.209-.208.212.212,0,0,1,.209-.21.209.209,0,0,1,0,.418m0-.4a.189.189,0,0,0-.188.189c0,.21.376.207.377,0a.189.189,0,0,0-.188-.189" transform="translate(-538.418 -360.136)"/><path d="M566.694,370.693a.216.216,0,0,1-.431,0v0a.216.216,0,0,1,.431,0Z" transform="translate(-538.212 -360.192)" fill="#e1e2e3"/><path d="M566.476,370.916a.226.226,0,1,1,.225-.228.227.227,0,0,1-.225.228m0-.432a.205.205,0,0,0-.2.205c0,.227.409.228.41,0a.2.2,0,0,0-.206-.205" transform="translate(-538.209 -360.189)"/><path d="M566.06,371.144a.215.215,0,1,1-.43,0h0a.215.215,0,1,1,.43,0Z" transform="translate(-538.057 -360.303)" fill="#e1e2e3"/><path d="M565.843,371.368h0a.226.226,0,0,1-.225-.225.233.233,0,0,1,.384-.16.225.225,0,0,1,0,.318.221.221,0,0,1-.158.067m0-.431a.205.205,0,0,0-.206.2.212.212,0,0,0,.35.145.2.2,0,0,0,.059-.145.2.2,0,0,0-.2-.2" transform="translate(-538.053 -360.302)"/><path d="M565.711,371.952a.232.232,0,1,1-.464,0h0a.232.232,0,1,1,.464,0Z" transform="translate(-537.962 -360.498)" fill="#e1e2e3"/><path d="M565.477,372.194h0a.242.242,0,0,1-.243-.241.251.251,0,0,1,.413-.174.244.244,0,0,1-.17.415m0-.465a.222.222,0,1,0,.221.222.222.222,0,0,0-.221-.222" transform="translate(-537.959 -360.497)"/><path d="M570.224,369.928a.113.113,0,0,0,.112.114.115.115,0,0,0,.115-.113h0a.114.114,0,0,0-.114-.113.112.112,0,0,0-.113.112Z" transform="translate(-539.188 -360.029)" fill="#e1e2e3"/><path d="M570.332,370.056h0a.125.125,0,0,1-.122-.124c0-.136.247-.137.247,0a.126.126,0,0,1-.125.124m0-.228a.1.1,0,0,0-.1.1.1.1,0,1,0,.1-.1" transform="translate(-539.185 -360.032)"/><path d="M571.179,369.994a.129.129,0,0,0,.128.128.127.127,0,0,0,.127-.127h0a.128.128,0,1,0-.256,0Z" transform="translate(-539.423 -360.041)" fill="#e1e2e3"/><path d="M571.3,370.129h0a.141.141,0,0,1-.139-.139.139.139,0,0,1,.139-.139.139.139,0,0,1,0,.277m0-.257a.118.118,0,0,0,0,.236.118.118,0,0,0,0-.236" transform="translate(-539.42 -360.038)"/><path d="M571.673,370.053a.14.14,0,0,0,.14.141.141.141,0,0,0,.141-.139v0a.141.141,0,1,0-.281,0Z" transform="translate(-539.545 -360.053)" fill="#e1e2e3"/><path d="M571.81,370.2h0a.151.151,0,1,1,0-.3.151.151,0,0,1,0,.3m0-.281a.13.13,0,0,0-.131.13.129.129,0,0,0,.13.131h0a.129.129,0,0,0,.13-.129.131.131,0,0,0-.13-.132" transform="translate(-539.542 -360.05)"/><path d="M572.229,370.177a.161.161,0,1,0,.323,0h0a.161.161,0,0,0-.323,0Z" transform="translate(-539.682 -360.078)" fill="#e1e2e3"/><path d="M572.386,370.353h0a.174.174,0,0,1-.171-.173c0-.189.344-.188.344,0a.173.173,0,0,1-.173.173m0-.323a.152.152,0,0,0-.151.15c0,.167.3.168.3,0a.151.151,0,0,0-.15-.152" transform="translate(-539.679 -360.082)"/><path d="M572.866,370.339a.177.177,0,1,0,.355,0h0a.177.177,0,1,0-.355,0Z" transform="translate(-539.839 -360.114)" fill="#e1e2e3"/><path d="M573.039,370.525h0a.189.189,0,1,1,.188-.188.19.19,0,0,1-.188.188m0-.357a.168.168,0,0,0-.168.167c0,.186.335.185.335,0a.169.169,0,0,0-.167-.17" transform="translate(-539.836 -360.11)"/><path d="M573.634,370.463a.2.2,0,0,0,.4,0h0a.2.2,0,1,0-.4,0Z" transform="translate(-540.028 -360.139)" fill="#e1e2e3"/><path d="M573.83,370.668a.209.209,0,1,1,.208-.209.21.21,0,0,1-.208.209m0-.4a.189.189,0,0,0,0,.378h0a.188.188,0,0,0,.188-.188.19.19,0,0,0-.188-.19" transform="translate(-540.025 -360.136)"/><path d="M574.437,370.693a.215.215,0,1,0,.43,0v0a.215.215,0,1,0-.43,0Z" transform="translate(-540.226 -360.192)" fill="#e1e2e3"/><path d="M574.648,370.916a.226.226,0,1,1,.227-.227.227.227,0,0,1-.227.227m0-.432a.2.2,0,0,0-.206.2c0,.228.409.231.41,0a.206.206,0,0,0-.2-.207" transform="translate(-540.223 -360.189)"/><path d="M575.071,371.144a.215.215,0,0,0,.43,0h0a.215.215,0,0,0-.43,0Z" transform="translate(-540.382 -360.303)" fill="#e1e2e3"/><path d="M575.282,371.365h0a.223.223,0,0,1-.161-.068.218.218,0,0,1-.065-.158.225.225,0,1,1,.451,0,.221.221,0,0,1-.066.16.224.224,0,0,1-.159.066m0-.431a.206.206,0,0,0-.145.35.2.2,0,0,0,.144.06h0a.2.2,0,0,0,.2-.2.205.205,0,0,0-.2-.206" transform="translate(-540.379 -360.299)"/><path d="M575.409,371.952a.232.232,0,1,0,.464,0h0a.232.232,0,1,0-.464,0Z" transform="translate(-540.465 -360.498)" fill="#e1e2e3"/><path d="M575.637,372.191h0a.243.243,0,1,1,.243-.243.243.243,0,0,1-.243.243m0-.465a.221.221,0,0,0-.158.065.217.217,0,0,0-.065.156.222.222,0,1,0,.222-.221" transform="translate(-540.462 -360.495)"/><path d="M570.974,369.928a.113.113,0,1,1-.227,0h0a.113.113,0,0,1,.227,0Z" transform="translate(-539.317 -360.029)" fill="#e1e2e3"/><path d="M570.858,370.056a.124.124,0,0,1-.124-.124c0-.139.246-.139.246,0a.124.124,0,0,1-.123.125m0-.228a.1.1,0,1,0,0,.207.1.1,0,0,0,0-.207" transform="translate(-539.314 -360.032)"/><path d="M570.342,370.169a.234.234,0,0,0-.13.133,1.468,1.468,0,0,0-.032.289v.032c0,.012,0,.026,0,.038a1.391,1.391,0,0,1-.1.531l.423.32.42-.32a1.39,1.39,0,0,1-.1-.531c0-.012,0-.026,0-.038v-.032a1.588,1.588,0,0,0-.032-.289.23.23,0,0,0-.13-.134.987.987,0,0,1,.011.118v.022c0,.007,0,.48,0,.488a1.478,1.478,0,0,0,.016.2.711.711,0,0,0,.037.146l-.219.206-.222-.206a.711.711,0,0,0,.037-.146,1.5,1.5,0,0,0,.016-.2c0-.008,0-.482,0-.488v-.022a.962.962,0,0,1,.011-.117" transform="translate(-539.152 -360.116)" fill="#e1c025"/><path d="M570.5,371.523l-.428-.325a1.6,1.6,0,0,0,.1-.539,1.813,1.813,0,0,1,.035-.362.244.244,0,0,1,.135-.139.707.707,0,0,1,0,.126l0,.51a1.645,1.645,0,0,1-.017.2.782.782,0,0,1-.037.148l.219.194.206-.2a.42.42,0,0,1-.04-.138,1.644,1.644,0,0,1-.017-.2V370.3a.716.716,0,0,0-.008-.115h.011a.218.218,0,0,1,.017.093l0,.51a1.475,1.475,0,0,0,.016.194.732.732,0,0,0,.037.144l-.222.217-.236-.206c.013-.051.025-.1.034-.155a1.485,1.485,0,0,0,.016-.194V370.3a.969.969,0,0,1,.008-.117.184.184,0,0,0-.107.114,1.386,1.386,0,0,0-.032.286,1.6,1.6,0,0,1-.1.606l.414.3.414-.316a1.258,1.258,0,0,1-.1-.523,1.818,1.818,0,0,0-.035-.358.193.193,0,0,0-.087-.107.143.143,0,0,1,.107.1,1.7,1.7,0,0,1,.033.292,1.563,1.563,0,0,0,.1.6Z" transform="translate(-539.15 -360.113)"/><path d="M570.408,370.158a.95.95,0,0,0-.011.117v.022c0,.007,0,.48,0,.488a1.488,1.488,0,0,1-.016.2.715.715,0,0,1-.037.146l.222.206.219-.206a.707.707,0,0,1-.037-.146,1.489,1.489,0,0,1-.016-.2c0-.008,0-.482,0-.488v-.022a.987.987,0,0,0-.01-.118.363.363,0,0,0-.153-.035h0a.373.373,0,0,0-.157.037" transform="translate(-539.218 -360.104)" fill="#e1c025"/><path d="M570.563,371.339l-.229-.211c.013-.051.026-.1.034-.155a1.5,1.5,0,0,0,.016-.194v-.488a.974.974,0,0,1,.008-.117.261.261,0,0,1,.329-.032.645.645,0,0,1,.016.127l0,.51a1.476,1.476,0,0,0,.016.194.727.727,0,0,0,.037.144Zm0-1.213a.366.366,0,0,0-.154.035c0,.045,0,.075,0,.108l0,.51a1.632,1.632,0,0,1-.017.2.786.786,0,0,1-.037.148l.213.188.213-.2a.4.4,0,0,1-.039-.138,1.487,1.487,0,0,1-.017-.2v-.488a.709.709,0,0,0-.008-.115.215.215,0,0,0-.146-.05" transform="translate(-539.215 -360.098)"/><path d="M570.485,369.959a.113.113,0,0,0,.227,0h0a.113.113,0,0,0-.227,0Z" transform="translate(-539.253 -360.036)" fill="#e1e2e3"/><path d="M570.6,370.079a.124.124,0,0,1,0-.247.126.126,0,0,1,.124.124.124.124,0,0,1-.124.124m0-.227a.1.1,0,0,0-.1.1c0,.115.207.117.206,0a.1.1,0,0,0-.1-.1" transform="translate(-539.249 -360.033)"/><path d="M570.722,370.214a.128.128,0,0,1-.256,0h0a.128.128,0,0,1,.256,0Z" transform="translate(-539.248 -360.095)" fill="#e1e2e3"/><path d="M570.591,370.355a.139.139,0,0,1-.139-.138c0-.153.277-.153.277,0a.139.139,0,0,1-.139.139m0-.256a.118.118,0,0,0-.118.118c0,.13.235.13.235,0a.118.118,0,0,0-.118-.118" transform="translate(-539.244 -360.099)"/><path d="M570.739,370.452a.153.153,0,1,1-.153-.155.154.154,0,0,1,.153.154Z" transform="translate(-539.24 -360.147)" fill="#e1e2e3"/><path d="M570.583,370.611h0a.164.164,0,1,1,.165-.164.163.163,0,0,1-.165.164m0-.307a.142.142,0,0,0-.142.144c0,.16.285.157.285,0a.144.144,0,0,0-.142-.144" transform="translate(-539.236 -360.144)"/><path d="M570.76,370.756a.184.184,0,1,1-.368,0h0a.184.184,0,1,1,.368,0" transform="translate(-539.23 -360.215)" fill="#e1e2e3"/><path d="M570.572,370.955h0a.193.193,0,0,1-.193-.194c0-.215.389-.215.389,0a.2.2,0,0,1-.194.2m0-.369a.174.174,0,0,0-.173.173c0,.2.347.191.347,0a.174.174,0,0,0-.173-.173" transform="translate(-539.226 -360.219)"/><path d="M570.779,371.1a.212.212,0,0,1-.424,0h0a.212.212,0,0,1,.424,0Z" transform="translate(-539.22 -360.293)" fill="#e1e2e3"/><path d="M570.563,371.318h0a.222.222,0,1,1,.222-.223.224.224,0,0,1-.222.223m0-.424a.2.2,0,0,0-.2.2c0,.223.4.222.4,0a.2.2,0,0,0-.2-.2" transform="translate(-539.217 -360.289)"/><path d="M570.36,371.4a.791.791,0,0,0-.128.072.356.356,0,0,0-.106.136.869.869,0,0,0-.107-.011.814.814,0,0,0-.1.011.192.192,0,0,0,.015.1c.02.056.026.092.041.1l-.059.022a.08.08,0,0,0-.044.038.542.542,0,0,0,.13.064c.041.008.05.008.087.015s.053.062.053.062-.032,0-.069,0-.034-.035-.1-.061a.487.487,0,0,0-.2,0,.227.227,0,0,0,.066.1.137.137,0,0,0,.11.034l.02.047a.143.143,0,0,1-.1-.005c-.038-.024-.054-.064-.124-.06s-.078.062-.115.1a.4.4,0,0,1-.1.074s.06.048.1.09.068.078.119.078.114-.066.114-.066l.045,0-.01.057a.225.225,0,0,0-.086.041c-.056.038-.042.17-.042.17s.144.01.2-.036a.148.148,0,0,0,.052-.111l.059-.017.006.064a.209.209,0,0,0-.084.089.232.232,0,0,0,0,.113.209.209,0,0,1-.034.089,1.3,1.3,0,0,0,.278-.073c.209-.145.042-.131.244,0a1.3,1.3,0,0,0,.278.073.208.208,0,0,1-.034-.089.21.21,0,0,0-.006-.113.2.2,0,0,0-.082-.089l.006-.064.059.017a.149.149,0,0,0,.051.111.365.365,0,0,0,.2.036s.014-.131-.043-.17a.231.231,0,0,0-.085-.041l-.01-.057.046,0s.063.066.115.066.065-.03.118-.078.1-.09.1-.09a.389.389,0,0,1-.1-.074c-.037-.042-.04-.1-.115-.1s-.085.036-.125.06a.139.139,0,0,1-.1.005l.02-.047a.137.137,0,0,0,.11-.034.228.228,0,0,0,.066-.1.491.491,0,0,0-.2,0c-.063.026-.06.057-.1.061s-.07,0-.07,0,.017-.054.054-.062.046-.008.087-.015a.525.525,0,0,0,.128-.064.073.073,0,0,0-.044-.038l-.06-.022c.017,0,.023-.041.043-.1a.2.2,0,0,0,.015-.1.814.814,0,0,0-.1-.011.852.852,0,0,0-.108.011.351.351,0,0,0-.106-.136.7.7,0,0,0-.134-.072" transform="translate(-539.016 -360.418)" fill="#e1c025" fill-rule="evenodd"/><path d="M570.781,372.8l-.022,0a1.288,1.288,0,0,1-.281-.073.448.448,0,0,1-.112-.1c-.025.017-.054.047-.121.095a1.308,1.308,0,0,1-.283.074c0-.029.023-.072.021-.1a.234.234,0,0,1,.005-.117.211.211,0,0,1,.082-.091c-.018.038-.051.064-.063.1a.152.152,0,0,0-.007.075.237.237,0,0,1-.029.124c.026-.017.193-.047.262-.083a.569.569,0,0,0,.107-.09c.053.014.077.045.148.09a1.172,1.172,0,0,0,.253.068.165.165,0,0,1-.025-.075.2.2,0,0,0,0-.109.182.182,0,0,0-.078-.084l.014-.083a.117.117,0,0,1,.042.03c-.04.038.023.075.041.13a.15.15,0,0,1,.009.085.209.209,0,0,0,.029.115Zm-.978-.193a.028.028,0,0,1-.017-.013.378.378,0,0,0,.173-.041.142.142,0,0,0,.048-.1l.078-.019a.1.1,0,0,1-.012.054c-.04-.026-.044.032-.1.083a.282.282,0,0,1-.17.039m1.082-.005a.214.214,0,0,1-.136-.034.157.157,0,0,1-.054-.111.566.566,0,0,0,.067.1c.035.03.124.027.159.035s.032-.118-.016-.152a.237.237,0,0,0-.081-.04l-.009-.077c.093,0,.169.09.24.019s.116-.1.132-.116h0a.2.2,0,0,1-.1-.064c-.046-.072-.06-.1-.108-.1h0a.109.109,0,0,0-.087.034l-.087.038-.01,0-.029-.066a.181.181,0,0,0,.114-.038.223.223,0,0,0,.062-.1.868.868,0,0,1-.109,0,.2.2,0,0,0-.075.011l-.115.063-.066-.011.062-.069.088-.014a.529.529,0,0,0,.117-.058l.017.011a.736.736,0,0,1-.1.054.619.619,0,0,1,.19,0,.153.153,0,0,1-.062.122.145.145,0,0,1-.1.037h.085a.121.121,0,0,1,.093-.039.109.109,0,0,1,.105.069.432.432,0,0,0,.124.11c0,.017-.058.064-.1.105-.062.061-.082.081-.124.081a.222.222,0,0,1-.123-.069c-.026.043.005.048.063.085s.047.173.046.179a.7.7,0,0,1-.077,0m-1.107-.022a.144.144,0,0,1,.028-.161.235.235,0,0,1,.09-.042c-.029-.043-.094.026-.147.026a.122.122,0,0,1-.095-.051c-.075-.072-.135-.119-.135-.119,0-.017.065-.049.1-.089.044-.07.063-.1.122-.106a.116.116,0,0,1,.1.04l.072.032c-.009-.034-.051-.038-.086-.071a.249.249,0,0,1-.07-.11.355.355,0,0,1,.213-.012l.093.071.069-.007-.053-.051h-.047a.534.534,0,0,1-.174-.072l.019-.011a.535.535,0,0,0,.118.058l.087.014c.042.009.06.066.06.069l0,.014-.184-.066a.513.513,0,0,0-.189,0,.553.553,0,0,0,.067.088.125.125,0,0,0,.085.032l.041.066-.109-.006c-.05-.044-.069-.06-.109-.06a.092.092,0,0,0-.089.059.457.457,0,0,1-.127.115.4.4,0,0,1,.1.076c.062.061.078.076.113.076s.1-.062.106-.062h.011l.041.066a.722.722,0,0,0-.089.048c-.037.025-.042.1-.04.145m.12-.745.065-.041-.036-.1-.01,0a.191.191,0,0,1-.014-.1,1,1,0,0,1,.222-.009.26.26,0,0,1,.1-.134.8.8,0,0,1,.13-.073.377.377,0,0,1,.106.052.383.383,0,0,1,.144.16,1.186,1.186,0,0,1,.206,0,.132.132,0,0,1-.007.11l-.047.086,0,0,0,0,0,.005,0-.005-.005,0,.036-.09a.215.215,0,0,0,.015-.09c-.007,0-.06,0-.1,0a.91.91,0,0,0-.105.01.544.544,0,0,0-.113-.137.686.686,0,0,0-.131-.07c-.008,0-.065.035-.12.07a.354.354,0,0,0-.1.131.665.665,0,0,1-.116,0,.753.753,0,0,0-.1.01.478.478,0,0,0,.02.084l.027.008.009.1Z" transform="translate(-539.014 -360.415)"/><path d="M570.36,372.426a.214.214,0,1,1,.207.267.242.242,0,0,1-.207-.267" transform="translate(-539.222 -360.607)" fill="#e1c025"/><path d="M570.565,372.7a.284.284,0,1,1,.218-.277.253.253,0,0,1-.218.277m0-.531a.264.264,0,1,0,.2.255.231.231,0,0,0-.2-.255" transform="translate(-539.219 -360.604)"/><path d="M570.446,372.448c0-.109.063-.2.142-.2s.143.088.143.2-.065.2-.143.2-.142-.088-.142-.2" transform="translate(-539.243 -360.629)" fill="#e1e2e3"/><path d="M570.586,372.66c-.085,0-.153-.092-.153-.208a.154.154,0,1,1,.306,0c0,.115-.069.208-.153.208m0-.395c-.074,0-.133.084-.133.187a.134.134,0,1,0,.265,0c0-.1-.059-.187-.133-.187" transform="translate(-539.24 -360.632)"/><path d="M568.005,373.034a.172.172,0,1,1,.173.173.173.173,0,0,1-.173-.173" transform="translate(-538.642 -360.779)" fill="#e1e2e3"/><path d="M568.173,373.219a.183.183,0,0,1-.182-.182c0-.2.365-.2.365,0a.183.183,0,0,1-.182.182m0-.344a.162.162,0,0,0-.162.162c0,.179.324.179.324,0a.162.162,0,0,0-.162-.162" transform="translate(-538.638 -360.783)"/><path d="M573.177,373.073a.172.172,0,1,0-.173.173.173.173,0,0,0,.173-.173" transform="translate(-539.831 -360.789)" fill="#e1e2e3"/><path d="M573,373.259a.183.183,0,0,1-.182-.183c0-.2.364-.2.364,0a.182.182,0,0,1-.182.183m0-.345a.162.162,0,0,0-.163.162c0,.179.324.179.324,0a.162.162,0,0,0-.161-.162" transform="translate(-539.828 -360.792)"/><path d="M569.027,387.347c3.628-2.846,7.538-8.653,2.957-11.707a2.978,2.978,0,0,0-2.263.26c-.243-.145-.436-.133-.678.138a.542.542,0,0,0-.694-.207,2.71,2.71,0,0,0-2.18-.225c-3.986,2.511-1.547,8.469,2.857,11.742" transform="translate(-537.693 -361.423)" fill="#e1c025" fill-rule="evenodd"/><path d="M569,387.413l-.046-.034c-3.034-2.255-5-5.6-4.9-8.322a4.22,4.22,0,0,1,2.046-3.541,2.689,2.689,0,0,1,2.254.223.4.4,0,0,1,.224-.054.566.566,0,0,1,.44.216.5.5,0,0,1,.667-.115,3.157,3.157,0,0,1,2.284-.244,4.308,4.308,0,0,1,2.133,3.531c.112,2.909-2.46,6.268-5.059,8.307Zm-1.989-11.89a3.177,3.177,0,0,0-.85.127,4.076,4.076,0,0,0-1.958,3.413c-.1,2.621,1.868,5.971,4.794,8.164,2.554-2.018,5.068-5.31,4.958-8.151a4.17,4.17,0,0,0-2.041-3.4,5.1,5.1,0,0,0-.88-.081,2.073,2.073,0,0,0-1.294.337l-.04.033-.044-.026c-.237-.139-.379-.109-.585.124l-.059.066-.054-.069a.463.463,0,0,0-.614-.182,2.978,2.978,0,0,0-1.333-.351" transform="translate(-537.669 -361.397)" fill="#796d14"/><path d="M579.454,381.569s.408-.577.421-.577a.887.887,0,0,0,.451-.575c.408-.133.281-.488.309-.531a.484.484,0,0,0,.1-.517c0-.06.142-.606-.056-.679.009-.581-.334-.528-.605-.148-.291.089-.357.34-.255.62-.38,0-.394.575-.281.9-.507-.015-.225.576-.24.605-.17.088.127.93.156.9" transform="translate(-541.407 -362.108)" fill="#6fd66c" fill-rule="evenodd"/><path d="M579.428,381.623c-.028,0-.111,0-.233-.5-.077-.313-.05-.443,0-.5a.634.634,0,0,1,.006-.53.313.313,0,0,1,.218-.118.99.99,0,0,1,.075-.748.353.353,0,0,1,.206-.145.558.558,0,0,1,.026-.389.485.485,0,0,1,.306-.24c.154-.256.436-.367.584-.219a.57.57,0,0,1,.118.394c.16.12.1.467.066.661a.642.642,0,0,1-.127.629.455.455,0,0,1-.3.538,1.012,1.012,0,0,1-.477.583c-.035.04-.4.555-.4.555Zm.082-1.507c-.1,0-.161.02-.193.063-.071.094-.011.3.015.384a.343.343,0,0,1,.009.117c-.084.092.02.525.1.727.361-.512.365-.512.413-.512a.8.8,0,0,0,.377-.51.078.078,0,0,1,.052-.062.331.331,0,0,0,.253-.391.439.439,0,0,1,.015-.109.417.417,0,0,0,.092-.449.354.354,0,0,1,.008-.115c.072-.42.019-.506-.02-.521a.076.076,0,0,1-.049-.072c0-.218-.045-.3-.075-.33-.154-.029-.283.073-.393.228a.441.441,0,0,0-.254.191.454.454,0,0,0,.008.359.076.076,0,0,1-.009.069.077.077,0,0,1-.062.032.21.21,0,0,0-.182.093.907.907,0,0,0-.027.707.08.08,0,0,1-.011.07c-.015.02-.035.043-.063.031Z" transform="translate(-541.383 -362.085)" fill="#539d51"/><path d="M575.284,388.792l.253.163c.051.2.23.329.366.295.065.311.384.266.62.089.187.286.416.29.731.191a.681.681,0,0,0,.888-.1c.258.222.431.059.562-.178.2.055.363.02.437-.191.395-.035.2-.424-.127-.591.258-.236.545-.724.142-.8a.559.559,0,0,0-.549.014c-.047-.217-.334-.271-.649-.029-.108-.241-.483-.128-.661.044-.225-.207-.493-.207-.888.029l-1.126,1.063" transform="translate(-540.435 -364.384)" fill="#6fd66c" fill-rule="evenodd"/><path d="M577.59,389.7a.658.658,0,0,1-.4-.138.434.434,0,0,1-.266.073.525.525,0,0,1-.439-.221c-.28.175-.577.126-.661-.123a.446.446,0,0,1-.38-.347l-.222-.118a.076.076,0,0,1-.034-.057.075.075,0,0,1,.024-.062l1.126-1.063c.417-.252.693-.264.938-.074.22-.171.548-.209.682-.052.274-.179.568-.155.672.035a.608.608,0,0,1,.552.027.247.247,0,0,1,.219.183c.059.2-.118.482-.284.659.181.122.327.316.295.481-.012.062-.059.164-.237.194a.37.37,0,0,1-.453.209c-.174.283-.378.344-.6.189a.847.847,0,0,1-.531.2m-.382-.27a.646.646,0,0,0,.859-.086.078.078,0,0,1,.1,0c.176.15.3.107.447-.157a.08.08,0,0,1,.086-.036c.187.049.291.012.346-.144a.076.076,0,0,1,.065-.05c.062-.006.138-.023.149-.078.017-.092-.109-.27-.3-.371a.073.073,0,0,1-.04-.057.076.076,0,0,1,.024-.066c.182-.167.351-.439.312-.575-.005-.018-.02-.071-.133-.091a.485.485,0,0,0-.5.007.073.073,0,0,1-.067,0,.074.074,0,0,1-.041-.052.17.17,0,0,0-.183-.129.609.609,0,0,0-.347.142.069.069,0,0,1-.064.014.075.075,0,0,1-.05-.042.158.158,0,0,0-.167-.093.6.6,0,0,0-.373.161.076.076,0,0,1-.1,0c-.211-.194-.44-.177-.8.038l-1.043.987.172.11c.071.2.191.289.28.289a.119.119,0,0,1,.072.008c.017.011.044.027.047.047.045.213.284.207.5.044a.082.082,0,0,1,.059-.014.08.08,0,0,1,.051.033c.149.228.3.271.645.161" transform="translate(-540.41 -364.361)" fill="#539d51"/><path d="M575.279,387.268c.047-.271-.133-.763.14-.812-.052-.453.023-.964.521-.916.081-.427.062-.827.536-.886,0,0,.38-1.388.774-.428.154.28.127.738-.182.65.06.344-.047.645-.409.635a.571.571,0,0,1-.071.724l-1.308,1.034" transform="translate(-540.43 -363.495)" fill="#6fd66c" fill-rule="evenodd"/><path d="M575.255,387.319a.074.074,0,0,1-.038-.011.075.075,0,0,1-.035-.078,1.418,1.418,0,0,0,0-.3c-.018-.21-.039-.468.137-.55a1.075,1.075,0,0,1,.167-.785.475.475,0,0,1,.372-.156l.021-.121c.052-.334.106-.678.519-.753.06-.2.255-.776.539-.776.139,0,.259.126.365.385a.719.719,0,0,1,.04.638.249.249,0,0,1-.2.127.636.636,0,0,1-.115.471.428.428,0,0,1-.261.144.639.639,0,0,1-.142.714L575.3,387.3a.075.075,0,0,1-.047.017m.635-1.729a.356.356,0,0,0-.3.1.977.977,0,0,0-.123.729.076.076,0,0,1-.062.083c-.106.019-.1.175-.081.411,0,.054.009.111.011.165l1.178-.932a.5.5,0,0,0,.055-.622.077.077,0,0,1,0-.078c.014-.025.045-.03.069-.039h0a.316.316,0,0,0,.262-.1.558.558,0,0,0,.07-.447.075.075,0,0,1,.023-.069.083.083,0,0,1,.072-.017c.087.007.119-.009.141-.045a.584.584,0,0,0-.045-.5c-.112-.271-.2-.3-.229-.3-.145,0-.328.424-.406.711a.076.076,0,0,1-.063.055c-.332.041-.381.256-.439.634l-.032.191a.079.079,0,0,1-.082.061Z" transform="translate(-540.405 -363.471)" fill="#539d51"/><path d="M578.108,385.959l.409-.088c.421-.3.59-.414.8-.088.352-.08.69-.04.676.251.418.029.414.31.366.531.066.388-.094.9-.352.28-.817-.522-1.282-.453-2.577-.148l.675-.739" transform="translate(-540.964 -363.914)" fill="#6fd66c" fill-rule="evenodd"/><path d="M580.208,387.184c-.1,0-.2-.106-.292-.334-.763-.456-1.292-.384-2.49-.1a.076.076,0,0,1-.073-.124l.675-.739.449-.111c.391-.287.629-.407.852-.1a.693.693,0,0,1,.635.1.3.3,0,0,1,.079.17.457.457,0,0,1,.313.162.553.553,0,0,1,.054.453.8.8,0,0,1-.083.567.323.323,0,0,1-.12.061m-1.387-.823a2.105,2.105,0,0,1,1.205.4c.11.233.169.27.181.275a.69.69,0,0,0,.056-.479.459.459,0,0,0-.026-.359.36.36,0,0,0-.271-.109.075.075,0,0,1-.07-.079.17.17,0,0,0-.042-.13.651.651,0,0,0-.543-.043.073.073,0,0,1-.08-.032c-.092-.142-.154-.161-.2-.161a1.218,1.218,0,0,0-.493.269l-.436.1-.472.537a5.591,5.591,0,0,1,1.193-.184" transform="translate(-540.939 -363.891)" fill="#539d51"/><path d="M578.559,384.459c.014-.015,1.21-.34,1.083-.724.339-.059.409-.414.423-.414.705-.236.662-.665.662-.665.2-.225.559-.452.479-.855.023-.458.062-.739-.522-.443-.436-.044-.592.222-.718.62-.206-.255-.539.153-.577.517,0,0-.534.546-.534.561s-.452.87-.452.87c.051.177.1.355.156.532" transform="translate(-541.203 -362.842)" fill="#6fd66c" fill-rule="evenodd"/><path d="M578.553,384.51l-.018,0a.1.1,0,0,1-.072-.051l-.156-.532c.006-.057.429-.857.454-.917,0-.016,0-.02.552-.589.011-.262.238-.62.482-.62a.238.238,0,0,1,.112.028c.112-.316.288-.619.763-.567.229-.14.422-.161.52-.057s.084.279.072.526a.888.888,0,0,1-.369.822c-.047.044-.091.088-.13.131h0c.02,0,.027.445-.7.688a.519.519,0,0,1-.363.4.269.269,0,0,1-.032.127c-.133.262-.662.461-1.048.588a.107.107,0,0,1-.071.026m.345-1.44s-.043.094-.451.868l.139.4c.687-.226.9-.4.952-.51a.116.116,0,0,0,.01-.093.075.075,0,0,1,.058-.1.479.479,0,0,0,.353-.338c.011-.029.052-.077.084-.077.608-.207.588-.567.587-.582a.8.8,0,0,1,.158-.2c.186-.18.378-.367.322-.65.011-.258.021-.434-.029-.486a.639.639,0,0,0-.384.095,1.235,1.235,0,0,1-.124,0c-.313,0-.441.21-.556.572a.076.076,0,0,1-.058.051.074.074,0,0,1-.072-.027c-.144-.176-.408.139-.443.478-.21.237-.519.557-.546.594l0,0" transform="translate(-541.179 -362.818)" fill="#539d51"/><path d="M578.346,383.038a.821.821,0,0,1-.394-.767c-.188-.266-.32-.428-.142-.665,0,0-.139-.531-.139-.546a.348.348,0,0,1-.114-.59.626.626,0,0,1-.014-.753c0-.473.316-.3.579,0,0,0,.436.324.112.62.324.118.422.413.24.531a.358.358,0,0,1,.17.576c.286.241.178.542.266.812-.186.261-.375.521-.561.782" transform="translate(-540.962 -362.396)" fill="#6fd66c" fill-rule="evenodd"/><path d="M578.32,383.091a.073.073,0,0,1-.046-.017.892.892,0,0,1-.423-.84c-.19-.228-.33-.426-.127-.7-.087-.267-.125-.388-.142-.445a.393.393,0,0,1-.234-.257.508.508,0,0,1,.09-.392.687.687,0,0,1,.016-.793.314.314,0,0,1,.073-.266c.154-.161.484.1.624.259a.646.646,0,0,1,.25.413.367.367,0,0,1-.07.231.5.5,0,0,1,.279.357.269.269,0,0,1-.041.184.461.461,0,0,1,.2.285.407.407,0,0,1-.054.3.79.79,0,0,1,.2.54,1.142,1.142,0,0,0,.042.259l-.574.849a.075.075,0,0,1-.05.031h-.011m-.651-3.614c-.047.026-.078.074-.077.216a.594.594,0,0,0,0,.711.076.076,0,0,1,0,.092.384.384,0,0,0-.094.3.263.263,0,0,0,.177.169.074.074,0,0,1,.047.069c.007.032.137.528.137.528-.142.237-.084.339.105.605a.226.226,0,0,1,.037.093.71.71,0,0,0,.307.644l.515-.716c-.042-.031-.051-.13-.059-.226a.612.612,0,0,0-.2-.485.075.075,0,0,1-.026-.051.073.073,0,0,1,.019-.055.265.265,0,0,0,.065-.228.349.349,0,0,0-.21-.231.075.075,0,0,1-.042-.063.074.074,0,0,1,.034-.069.116.116,0,0,0,.055-.12.392.392,0,0,0-.28-.277.075.075,0,0,1-.049-.056.076.076,0,0,1,.023-.071.245.245,0,0,0,.095-.194.527.527,0,0,0-.2-.31.752.752,0,0,0-.381-.277" transform="translate(-540.937 -362.374)" fill="#539d51"/><path d="M579.117,380.114c-.014-.015-.479-.635-.352-.679-.028-.192-.169-.4-.084-.592a2.922,2.922,0,0,1,.069-1.461c-.065-.363.179-.448.394-.517.16-.586.418-.433.564.015a.682.682,0,0,1,.114.738c.261.188.1.419-.015.517q-.345.99-.69,1.979" transform="translate(-541.226 -361.671)" fill="#6fd66c" fill-rule="evenodd"/><path d="M579.092,380.172a.075.075,0,0,1-.056-.025c0-.005-.434-.55-.39-.727a.118.118,0,0,1,.013-.025,1.476,1.476,0,0,0-.044-.148.686.686,0,0,1-.047-.4.61.61,0,0,1-.062-.774.627.627,0,0,1,.167-.76c-.1-.365.214-.467.422-.533.06-.482.471-.511.659.063a.692.692,0,0,1,.129.734.342.342,0,0,1,.13.249.483.483,0,0,1-.183.354l-.668,1.946a.076.076,0,0,1-.057.049l-.015,0m.291-3.631c-.047,0-.124.085-.19.327-.29.129-.443.2-.393.483a.553.553,0,0,0-.139.679.076.076,0,0,1,0,.09.469.469,0,0,0,.052.654.074.074,0,0,1,.015.083.486.486,0,0,0,.034.344,1.294,1.294,0,0,1,.056.206.075.075,0,0,1-.05.082c.019.04.188.29.3.449l.644-1.845a.41.41,0,0,0,.152-.265.221.221,0,0,0-.111-.166.077.077,0,0,1-.028-.085.611.611,0,0,0-.092-.659c-.1-.27-.194-.378-.25-.378" transform="translate(-541.202 -361.654)" fill="#539d51"/><path d="M578.338,376.608l-.394-.414c.1-.219.184-.605-.112-.782-.164-.418-.982-.935-1.112.059-.124-.3-.384-.6-.577-.251-.427-.384-.658-.265-.437.222,0,0-.2.325.324.576.042.044-.168.591.45.606-.116.187.077.447.326.427-.179.232.121.478.309.384-.079.256-.075.379.268.414l.38.457.31.443q.133-1.071.267-2.141" transform="translate(-540.517 -361.281)" fill="#6fd66c" fill-rule="evenodd"/><path d="M578.046,378.8a.077.077,0,0,1-.062-.032l-.311-.443-.376-.453a.313.313,0,0,1-.289-.116.326.326,0,0,1-.025-.25.37.37,0,0,1-.3-.2.29.29,0,0,1-.017-.217.412.412,0,0,1-.273-.2.345.345,0,0,1-.041-.223.5.5,0,0,1-.313-.147.578.578,0,0,1-.1-.445.787.787,0,0,1-.347-.394.394.394,0,0,1,.031-.3.382.382,0,0,1-.06-.4c.094-.149.364-.041.546.109.165-.206.416-.09.561.14.109-.364.332-.424.468-.424a.929.929,0,0,1,.747.561c.271.146.248.513.131.794l.359.377-.246,2.2a.075.075,0,0,1-.057.063.055.055,0,0,1-.019,0m-.993-1.456a.09.09,0,0,1,.055.014c.023.02.06.044.052.073-.031.1-.055.2-.026.24s.1.064.229.076l.632.773.242-1.947-.075-.039-.3-.313a.077.077,0,0,1-.014-.085c.024-.051.224-.5-.083-.685a.848.848,0,0,0-.637-.5c-.244,0-.332.275-.362.506a.077.077,0,0,1-.066.066.083.083,0,0,1-.079-.046c-.086-.209-.215-.359-.308-.359-.057,0-.1.063-.133.116a.076.076,0,0,1-.054.038.081.081,0,0,1-.063-.018c-.215-.194-.325-.209-.353-.209-.036.02-.077.094.036.343a.556.556,0,0,0-.019.253.537.537,0,0,0,.307.286.162.162,0,0,1,.046.161.443.443,0,0,0,.066.332.416.416,0,0,0,.307.1.077.077,0,0,1,.065.04.073.073,0,0,1,0,.076.172.172,0,0,0,0,.177.271.271,0,0,0,.232.136.1.1,0,0,1,.081.041.076.076,0,0,1,.005.079.146.146,0,0,0-.023.166.218.218,0,0,0,.183.117.128.128,0,0,1,.055-.011" transform="translate(-540.493 -361.256)" fill="#539d51"/><path d="M577.914,386.14h0a11.129,11.129,0,0,1-2.7-.274.075.075,0,0,1,0-.106.076.076,0,0,1,.107,0,12.427,12.427,0,0,0,2.6.226.076.076,0,0,1,0,.152m-2.529-.46h0a.075.075,0,0,1-.071-.079,11.443,11.443,0,0,1,1.224-2.787c.042-.078.069-.126.075-.139,0-.082.146-.057.145.028,0,.023,0,.023-.088.183a9.809,9.809,0,0,0-1.207,2.724.076.076,0,0,1-.075.071m.318-.125a.076.076,0,0,1,0-.151c.862-.02,2.839-.31,2.859-.312a.071.071,0,0,1,.085.063.074.074,0,0,1-.063.085c-.02,0-2.006.295-2.879.315Zm2.052-2.485a.081.081,0,0,1-.041-.011.077.077,0,0,1-.023-.1,15.021,15.021,0,0,1,2.265-2.522.076.076,0,1,1,.1.114,14.732,14.732,0,0,0-2.237,2.489.076.076,0,0,1-.064.035m.717-2.275a.078.078,0,0,1-.052-.021.077.077,0,0,1-.011-.1,19.792,19.792,0,0,0,.846-2.312.075.075,0,0,1,.089-.06.077.077,0,0,1,.06.088,17.921,17.921,0,0,1-.877,2.378.078.078,0,0,1-.055.023m-.139-.648a.075.075,0,0,1-.023,0,.077.077,0,0,1-.05-.095,7.742,7.742,0,0,0,.216-2.477.075.075,0,0,1,.069-.081.083.083,0,0,1,.081.069,7.719,7.719,0,0,1-.222,2.534.076.076,0,0,1-.072.053m-.477-1.649a.075.075,0,0,1-.072-.051c-.083-.246-.154-.492-.214-.73a14.739,14.739,0,0,0-1.341-1.559.076.076,0,0,1,0-.107.075.075,0,0,1,.106,0,16.1,16.1,0,0,1,1.148,1.295,11.777,11.777,0,0,1-.221-1.4.075.075,0,0,1,.069-.081.077.077,0,0,1,.081.069,11.96,11.96,0,0,0,.3,1.726,1.932,1.932,0,0,1,.3.581.074.074,0,0,1-.057.09.072.072,0,0,1-.049-.005c.008.025.017.05.025.075a.075.075,0,0,1-.047.1.068.068,0,0,1-.024,0" transform="translate(-540.412 -361.518)" fill="#539d51"/><path d="M569.384,387.341c-2.613-2.584-5.289-7.433-2.626-9.883.473.281,1.03.029,1.8-.289a.585.585,0,0,0,.826.133.594.594,0,0,0,.742-.155c.755.459,1.724.7,1.949.244,2.62,2.606-.035,7.478-2.691,9.951" transform="translate(-538.063 -361.835)" fill="#3e7fcd" fill-rule="evenodd"/><path d="M569.359,387.411l-.05-.051c-1.9-1.877-3.794-4.884-3.749-7.37a3.5,3.5,0,0,1,1.125-2.62l.041-.037.047.028c.4.236.917.044,1.642-.255l.141-.059.035.04a.517.517,0,0,0,.729.121,1.756,1.756,0,0,0,.331.054.518.518,0,0,0,.4-.2l.041-.046.053.032c.781.476,1.672.625,1.844.274l.046-.091.072.072a3.789,3.789,0,0,1,1.1,2.867c-.041,2.553-1.994,5.517-3.791,7.189Zm-2.614-9.9a3.359,3.359,0,0,0-1.038,2.477c-.044,2.421,1.8,5.356,3.655,7.213,1.76-1.66,3.651-4.55,3.691-7.036a3.66,3.66,0,0,0-.99-2.7.643.643,0,0,1-.53.2,3.082,3.082,0,0,1-1.418-.467.666.666,0,0,1-.785.129c-.13.187-.557.155-.815-.113l-.045.02c-.739.306-1.286.5-1.725.273" transform="translate(-538.039 -361.803)" fill="#796d14"/><path d="M567.643,383.892a3.566,3.566,0,0,0-.393.149l-.249.411a1.736,1.736,0,0,0-.338.341,14.676,14.676,0,0,0,2.176,3.354,3.824,3.824,0,0,0,.289-.4,3.987,3.987,0,0,0,.543-1.24,3.072,3.072,0,0,1-.328-.932,7.383,7.383,0,0,0-.357-.672l-.284-.448-.32-.262-.454-.3Z" transform="translate(-538.311 -363.496)" fill="#348110" fill-rule="evenodd"/><path d="M568.834,388.167l-.013-.014a14.585,14.585,0,0,1-2.179-3.358,1.566,1.566,0,0,1,.344-.361l.245-.406a2.887,2.887,0,0,1,.4-.157h.289l.462.3.323.263.288.452a7.558,7.558,0,0,1,.357.675,3.1,3.1,0,0,0,.328.93,3.951,3.951,0,0,1-.544,1.256,3.758,3.758,0,0,1-.29.4Zm-.92-4.266-.275,0a3.308,3.308,0,0,0-.387.148l-.241.4a1.764,1.764,0,0,0-.338.341,14.78,14.78,0,0,0,2.161,3.319,3.913,3.913,0,0,0,.274-.386,3.978,3.978,0,0,0,.541-1.236,2.921,2.921,0,0,1-.329-.922c-.069-.181-.352-.662-.354-.668l-.283-.448-.317-.257Z" transform="translate(-538.306 -363.491)"/><path d="M568.244,387.252l.063-.053.211-.518.215-.264.013.011-.213.261-.071.222-.143.3Zm1.216-.387-.264-.326-.425-.146a.839.839,0,0,1-.111-.268l-.108-.336-.21-.107s-.289-.488-.432-.713l.014-.008c.143.224.429.709.429.709l.211.109.112.341a.921.921,0,0,0,.1.258l.426.148Zm-1.891-.476.164-.344-.1-.026-.182-.265.013-.008.179.261.1.034Zm1.749-.605-.122-.217-.1-.032-.146-.228-.247-.109-.148-.341-.139-.109-.281-.036V384.7l.286.038.147.113.145.34.246.108.146.228.1.032Zm-2-.026.136-.09a7.326,7.326,0,0,1,.317-.706c.075-.112.1-.121.118-.121l.046.061h0c.016,0,.056-.035.157-.2a4.638,4.638,0,0,1-.073-.705h.017a5.083,5.083,0,0,0,.072.708c-.116.194-.153.214-.176.216l-.047-.061h0c-.012,0-.039.02-.1.112-.143.262-.32.708-.32.708ZM567,385.2c.132-.125.2-.2.2-.2l-.073-.516.016,0,.071.523a1.405,1.405,0,0,1-.216.2" transform="translate(-538.393 -363.522)"/><path d="M568.846,391.816c.488-.832,3.892-2.5,7.086-6.111-3.251,3.281-5.282,4.086-7.943,6.091.286.005.571.013.857.02" transform="translate(-538.638 -363.943)" fill="#a2871a" fill-rule="evenodd"/><path d="M568.817,391.874l-1.113-.026.17-.128c.851-.642,1.649-1.167,2.42-1.676a29.991,29.991,0,0,0,5.515-4.409l.107.1a31.763,31.763,0,0,1-5.464,4.761,7.359,7.359,0,0,0-1.614,1.339Zm-.684-.164.6.014a7.853,7.853,0,0,1,1.631-1.348c.811-.586,1.866-1.348,3-2.333-1.078.862-2.045,1.5-2.992,2.125-.718.473-1.458.961-2.242,1.542" transform="translate(-538.567 -363.926)" fill="#7b6714"/><path d="M572.968,383.928a3.525,3.525,0,0,0-.392.149l-.252.411s-.391.3-.391.485a1.114,1.114,0,0,1-.25.485,1.113,1.113,0,0,0-.25.526c0,.223-.321.447-.321.447a4.055,4.055,0,0,0,.751,1.369,13.132,13.132,0,0,0,2.065-3.393l-.223-.181-.451-.3Z" transform="translate(-539.407 -363.505)" fill="#348110" fill-rule="evenodd"/><path d="M571.858,387.82l-.014-.014a4.106,4.106,0,0,1-.754-1.374c.009-.022.32-.241.32-.454a1.1,1.1,0,0,1,.255-.536,1.115,1.115,0,0,0,.246-.475c0-.192.382-.485.4-.5l.248-.406a2.884,2.884,0,0,1,.4-.157h.29l.684.483a12.7,12.7,0,0,1-2.063,3.416Zm1.381-3.884-.277,0a3.4,3.4,0,0,0-.385.148l-.244.4c-.008.008-.389.3-.389.476a1.1,1.1,0,0,1-.255.5,1.11,1.11,0,0,0-.246.516c0,.23-.315.452-.328.461a4.329,4.329,0,0,0,.741,1.33,13.032,13.032,0,0,0,2.05-3.373Z" transform="translate(-539.402 -363.5)"/><path d="M571.519,387.659l.167-.271.214-.188a5.237,5.237,0,0,1-.038-.554c0-.231.149-.233.151-.233l.207-.332-.072-.255v-.189c0-.013,0-.3.145-.418a2.017,2.017,0,0,0,.213-.186l-.073-.515.016,0,.071.522a1.4,1.4,0,0,1-.216.2c-.138.108-.14.4-.14.4v.187l.071.259-.215.343c-.012,0-.141.008-.141.22s.035.559.035.559l-.216.194Zm-.142-.448.2-.345-.142-.176.069-.381.216-.376a1.33,1.33,0,0,1,.289-.228c.134-.071-.037-.471-.038-.476l.014-.006c.008.017.179.418.032.5a1.384,1.384,0,0,0-.283.222l-.214.372-.069.372.142.179Zm1.323-.3.162-.491.179-.337-.1-.025-.182-.265.013-.009.179.262.1.033-.173.348Zm-.466-.785.057-.192.468-.228a7.362,7.362,0,0,1,.317-.706c.072-.108.081-.115.118-.121l.045.061c.021,0,.053-.028.157-.2a4.832,4.832,0,0,1-.072-.705h.017a5.171,5.171,0,0,0,.071.708c-.116.194-.142.226-.175.216l-.046-.061h0c-.012,0-.039.02-.1.112-.142.261-.32.708-.32.708l-.467.228Zm1.294-.644c-.109-.148-.231-.352-.308-.475l.013-.009c.079.123.2.327.3.484m.347-.6-.153-.1-.281-.036,0-.016.286.038Z" transform="translate(-539.472 -363.531)"/><path d="M575.171,388.637a.248.248,0,1,1-.247-.26.254.254,0,0,1,.247.26" transform="translate(-540.285 -364.601)" fill="#914822" fill-rule="evenodd"/><path d="M574.912,388.922a.3.3,0,1,1,.285-.3.291.291,0,0,1-.285.3m0-.519a.223.223,0,1,0,.21.222.217.217,0,0,0-.21-.222" transform="translate(-540.273 -364.589)" fill="#613219"/><path d="M569.953,384.07a3.566,3.566,0,0,0-.393.149l-.249.411s-.393.3-.393.485a1.118,1.118,0,0,1-.25.485,1.1,1.1,0,0,0-.249.523c0,.223-.323.447-.323.447-.21.139.191.5.445.806a13.2,13.2,0,0,0,1.39,1.629,10.606,10.606,0,0,0,2.048-2.324,3.083,3.083,0,0,1-.328-.932,7.4,7.4,0,0,0-.357-.672l-.284-.448-.322-.262-.449-.3Z" transform="translate(-538.65 -363.54)" fill="#348110" fill-rule="evenodd"/><path d="M569.926,389.024l-.012-.012a13.171,13.171,0,0,1-1.391-1.632c-.05-.06-.106-.124-.163-.188-.185-.209-.36-.406-.343-.543a.135.135,0,0,1,.066-.1s.314-.221.314-.433a1.1,1.1,0,0,1,.253-.533,1.118,1.118,0,0,0,.246-.476c0-.192.384-.485.4-.5l.245-.406a2.975,2.975,0,0,1,.4-.157h.292l.458.3.324.262.288.453a7.347,7.347,0,0,1,.357.674,3.08,3.08,0,0,0,.328.93,8.422,8.422,0,0,1-1.672,1.979c-.126.12-.253.24-.38.364Zm.3-4.946-.278,0a3.32,3.32,0,0,0-.387.148l-.241.4c-.008.008-.39.3-.39.476a1.1,1.1,0,0,1-.255.5,1.1,1.1,0,0,0-.244.512c0,.23-.317.452-.329.461a.1.1,0,0,0-.051.075c-.016.121.162.323.335.516.056.063.112.127.163.189a13.248,13.248,0,0,0,1.378,1.617c.124-.12.246-.236.369-.353a8.587,8.587,0,0,0,1.666-1.956,2.794,2.794,0,0,1-.331-.919c-.069-.181-.352-.662-.353-.668l-.284-.448-.319-.256Z" transform="translate(-538.644 -363.535)"/><path d="M569.187,388.172l.02-.118a2.671,2.671,0,0,1,.4-.341c.114-.071.106-.092.088-.142a.321.321,0,0,1-.021-.112c0-.062.013-.1.038-.118v-.293l.178-.488.179-.336-.1-.026-.182-.265.013-.009.178.261.1.034-.173.347-.178.485v.259a.334.334,0,0,0-.036.148.3.3,0,0,0,.02.107c.021.06.025.087-.095.163a2.609,2.609,0,0,0-.392.334Zm.926-.034.274-.274.179-.445.074-.042.21-.518.216-.264.013.01-.213.262-.071.222-.143.3-.075.041-.176.444Zm-1.392-.6.2-.2a5.207,5.207,0,0,1-.038-.554c0-.231.149-.233.151-.233l.209-.332-.074-.255v-.188c0-.013,0-.3.145-.418a1.918,1.918,0,0,0,.213-.185l-.072-.517h.016l.071.524a1.5,1.5,0,0,1-.216.194c-.139.109-.14.4-.14.4v.186l.072.26-.216.342c-.012,0-.142.007-.142.22s.035.559.035.559Zm-.213-.356.094-.176-.142-.178.07-.381.215-.375a1.334,1.334,0,0,1,.289-.228c.134-.07-.037-.471-.038-.476l.014-.006c.008.017.179.419.032.5a1.374,1.374,0,0,0-.283.223l-.213.372-.071.371.142.181Zm3.284-.14-.263-.326-.425-.147a.827.827,0,0,1-.111-.268l-.108-.336-.21-.107s-.289-.488-.431-.712l.013-.009c.144.224.43.71.43.71l.211.109.112.341a.919.919,0,0,0,.1.258l.426.148Zm-2.532-.777.056-.192.467-.228a7.663,7.663,0,0,1,.317-.706c.072-.108.084-.121.118-.121l.046.061h0c.023,0,.076-.068.157-.2a4.746,4.746,0,0,1-.073-.706h.017a5.068,5.068,0,0,0,.072.708c-.116.193-.158.222-.176.217l-.047-.063h0c-.012,0-.039.021-.1.113-.142.261-.32.708-.32.708l-.467.229Zm2.391-.305-.122-.216-.1-.033-.146-.228-.247-.109-.147-.34-.14-.109-.281-.036v-.016l.286.037.147.114.145.339.246.109.147.227.1.033Z" transform="translate(-538.753 -363.565)"/><path d="M578.306,385.271a.281.281,0,1,1-.281-.295.288.288,0,0,1,.281.295" transform="translate(-541.041 -363.763)" fill="#914822" fill-rule="evenodd"/><path d="M578.012,385.591a.333.333,0,1,1,.319-.332.326.326,0,0,1-.319.332m0-.589a.258.258,0,1,0,.243.257.25.25,0,0,0-.243-.257" transform="translate(-541.029 -363.751)" fill="#613219"/><path d="M579.38,382.433a.248.248,0,1,1-.249-.26.255.255,0,0,1,.249.26" transform="translate(-541.321 -363.073)" fill="#914822" fill-rule="evenodd"/><path d="M579.119,382.718a.3.3,0,1,1,.286-.3.291.291,0,0,1-.286.3m0-.519a.223.223,0,1,0,.211.222.217.217,0,0,0-.211-.222" transform="translate(-541.309 -363.061)" fill="#613219"/><path d="M578.349,378.733a.248.248,0,1,1-.247-.26.254.254,0,0,1,.247.26" transform="translate(-541.068 -362.161)" fill="#914822" fill-rule="evenodd"/><path d="M578.09,379.018a.3.3,0,1,1,.285-.3.291.291,0,0,1-.285.3m0-.519a.223.223,0,1,0,.21.222.217.217,0,0,0-.21-.222" transform="translate(-541.056 -362.149)" fill="#613219"/><path d="M567.1,382.89v-1.1L567,381.7v-.261l.194-.018.037-1.229-.125-.075-.017-.2s.142.056.142.019.035-.242.035-.242-.09-.018-.09-.056.107-.13.107-.13a.486.486,0,0,1-.07-.093,1.566,1.566,0,0,1-.055-.2l.055-.205-.037-.112-.088-.167.125-.13s-.037-.168-.037-.205a.754.754,0,0,1,.107-.2c.018-.018.159-.223.159-.223l.3-.075.356.056.2.131.035.335a.887.887,0,0,1-.053.2,1.255,1.255,0,0,0-.161.075.682.682,0,0,1-.2,0,1.381,1.381,0,0,0,.053.224v.224l-.017.279a.478.478,0,0,1-.018.149.818.818,0,0,0-.053.075l-.017.279.284.075-.018.167-.2.02.035,1.135.284.057v.316l-.124.074-.035,1.136Z" transform="translate(-538.393 -362.016)" fill="#fff" fill-rule="evenodd"/><path d="M568.122,382.915h-1.031l-.037-1.135-.093-.065-.012-.289.227-.055,0-1.193-.107-.042-.035-.234a.334.334,0,0,1,.158-.008.912.912,0,0,1,.02-.217c-.012.026-.089,0-.089-.057,0-.04.05-.1.1-.141-.02,0-.047-.039-.06-.067a1.4,1.4,0,0,1-.058-.213l.056-.222-.122-.252.13-.173h0a.456.456,0,0,1-.046-.179.724.724,0,0,1,.117-.231c.02-.021.156-.219.156-.219l.323-.09.371.056.21.136.052.362c-.042.245-.06.245-.09.245-.011,0-.084.039-.144.07a.878.878,0,0,1-.154.014l-.052-.011a.363.363,0,0,1,.081.178v.234l-.017.281c0,.142-.02.164-.027.173a.583.583,0,0,0-.05.069l-.011.262.256.038.01.206-.229.053.069,1.1.255.021.029.353-.141.106Zm-1.062-2.981.068.167.107.046-.019,1.262-.228.054.033.225.093.065.013,1.126.922-.035.035-1.1.142-.1-.018-.285-.254-.02-.065-1.17.228-.057-.015-.134-.257-.036-.01-.317a.508.508,0,0,1,.063-.1.906.906,0,0,0,.008-.124l.017-.5c-.066-.222-.06-.231-.047-.246l.038.026.052-.032c.056,0,.133-.008.133-.008.136-.074.156-.074.164-.074-.017,0,0-.1.017-.175l-.036-.324-.179-.1-.341-.051-.285.074a1.8,1.8,0,0,1-.144.213.832.832,0,0,0-.1.181c0,.022.021.128.035.2l-.134.164.094.125.039.117-.054.226c.015.051.041.156.052.179a.521.521,0,0,0,.064.085c-.048.093-.094.142-.1.158l.034.008.055.053s-.035.2-.035.235v.037l-.059.013a.515.515,0,0,1-.134-.034" transform="translate(-538.381 -362.004)" fill="#a6a6a6"/><path d="M572.829,382.915v-1.1l-.106-.093v-.261l.2-.018.035-1.229-.125-.075-.017-.2s.142.056.142.018.035-.242.035-.242-.088-.018-.088-.056.106-.13.106-.13a.488.488,0,0,1-.07-.093,1.791,1.791,0,0,1-.054-.205l.054-.2-.035-.112-.09-.168.125-.13s-.035-.167-.035-.2a.746.746,0,0,1,.106-.206c.018-.018.161-.223.161-.223l.3-.074.354.056.2.13.035.335a.89.89,0,0,1-.053.2,1.356,1.356,0,0,0-.161.075.708.708,0,0,1-.2,0,1.42,1.42,0,0,0,.054.224v.223l-.017.279s0,.131-.02.149a.811.811,0,0,0-.053.075l-.017.28.284.075-.018.167-.2.019.037,1.135.284.057v.317l-.125.073-.035,1.137Z" transform="translate(-539.804 -362.022)" fill="#fff" fill-rule="evenodd"/><path d="M573.848,382.94h-1.031l-.037-1.136-.094-.066-.012-.289.228-.055,0-1.193-.107-.041-.035-.234a.341.341,0,0,1,.157-.008.964.964,0,0,1,.02-.218c-.012.027-.087,0-.087-.057,0-.039.05-.095.1-.141a.131.131,0,0,1-.06-.067,1.609,1.609,0,0,1-.057-.213l.054-.222-.122-.252.13-.174h0a.469.469,0,0,1-.044-.179.723.723,0,0,1,.115-.231c.02-.021.157-.219.157-.219l.323-.089.369.056.21.136.052.362c-.041.245-.06.245-.09.245-.01,0-.084.04-.144.071a.9.9,0,0,1-.154.013l-.051-.01a.369.369,0,0,1,.082.178v.234l-.017.281c0,.144-.023.166-.03.174a.6.6,0,0,0-.048.067l-.011.262.256.037.01.206-.229.052.07,1.1.255.021.029.353-.143.1Zm-1.062-2.982.068.167.107.045-.017,1.262-.229.054.033.224.094.066.013,1.127.922-.035.035-1.1.144-.1-.019-.286-.255-.02-.066-1.17.228-.057-.015-.135-.257-.035-.01-.317a.509.509,0,0,1,.063-.1.663.663,0,0,0,.009-.124l.017-.5c-.067-.222-.062-.23-.049-.246l.038.026.052-.032c.056,0,.133-.008.133-.008.137-.075.155-.075.164-.075-.017,0,0-.1.017-.175l-.036-.324-.179-.1-.34-.05-.285.073a1.771,1.771,0,0,1-.145.213.813.813,0,0,0-.095.181c0,.023.021.133.034.2l-.134.164.1.124.038.119-.053.225c.014.047.04.155.051.179a.5.5,0,0,0,.063.084c-.047.093-.092.142-.095.158l.034.007.054.053s-.035.2-.035.236v.036l-.06.014a.509.509,0,0,1-.133-.034" transform="translate(-539.792 -362.01)" fill="#a6a6a6"/><path d="M569.931,382.964v-1.1l-.106-.093v-.262l.194-.018.037-1.229-.125-.075-.017-.2s.142.056.142.019.035-.243.035-.243-.09-.018-.09-.055.107-.13.107-.13a.543.543,0,0,1-.072-.093,1.84,1.84,0,0,1-.054-.2l.054-.205L570,378.96l-.088-.167.124-.13s-.035-.168-.035-.2a.744.744,0,0,1,.107-.2c.018-.018.159-.223.159-.223l.3-.075.356.056.2.131.035.335s-.035.2-.054.2a1.336,1.336,0,0,0-.159.075.68.68,0,0,1-.2,0,1.381,1.381,0,0,0,.053.224v.224l-.017.279a.478.478,0,0,1-.018.149.814.814,0,0,0-.053.075l-.017.279.284.075-.018.167-.2.019.035,1.136.284.056v.317l-.124.074-.035,1.136Z" transform="translate(-539.09 -362.034)" fill="#fff" fill-rule="evenodd"/><path d="M570.95,382.989h-1.031l-.037-1.135-.093-.065-.012-.289.227-.055,0-1.193-.107-.042-.035-.234a.344.344,0,0,1,.158-.008,1.043,1.043,0,0,1,.021-.225c-.007.035-.09.012-.09-.049,0-.04.05-.1.1-.141-.02,0-.047-.038-.061-.066a1.618,1.618,0,0,1-.057-.215l.054-.222-.12-.252.129-.173a.461.461,0,0,1-.045-.179.713.713,0,0,1,.118-.231c.02-.02.155-.218.155-.218l.323-.09.371.056.21.136.052.362c-.042.245-.062.245-.091.245-.01,0-.083.039-.142.07a.87.87,0,0,1-.154.014l-.052-.011a.362.362,0,0,1,.081.178v.234l-.017.281c0,.142-.02.164-.027.173a.585.585,0,0,0-.05.069l-.011.262.256.037.01.207-.229.052.069,1.1.255.021.029.353-.141.106Zm-1.062-2.982.068.167.107.046-.019,1.262-.228.054.033.225.093.065.013,1.126.922-.035.035-1.1.142-.1-.018-.285-.254-.02-.065-1.17.228-.057-.015-.135-.257-.035-.01-.317a.5.5,0,0,1,.063-.1.919.919,0,0,0,.007-.124l.017-.5c-.066-.222-.06-.231-.047-.246l.038.026.052-.032c.056,0,.133-.008.133-.008.136-.074.154-.074.163-.074-.017,0,.005-.1.018-.175l-.036-.324-.179-.1-.341-.05-.285.074a1.8,1.8,0,0,1-.144.213.819.819,0,0,0-.1.181c0,.023.021.132.034.2l-.133.163.094.125.038.118-.054.225c.014.046.04.154.051.18a.577.577,0,0,0,.065.084c-.048.093-.093.142-.1.157l.034.008.055.051s-.035.2-.035.237v.037l-.059.013a.514.514,0,0,1-.134-.034" transform="translate(-539.078 -362.022)" fill="#a6a6a6"/><path d="M567.487,384.235v-.865h.462v.9Z" transform="translate(-538.514 -363.368)" fill-rule="evenodd"/><path d="M570.38,384.32l.016-.883h.414v.866Z" transform="translate(-539.227 -363.384)" fill-rule="evenodd"/><path d="M573.218,384.309l-.034-.831.448-.017v.865Z" transform="translate(-539.917 -363.39)" fill-rule="evenodd"/><rect width="0.265" height="0.45" transform="translate(29.088 18.304)"/><rect width="0.363" height="0.433" transform="translate(31.186 18.321)"/><rect width="0.315" height="0.416" transform="translate(33.333 18.355)"/><path d="M570.136,378.837c-.1,0-.163-.147-.216-.269l.039-.092.029.063c.042.1.122.277.193.289a.123.123,0,0,1-.044.009m-2.041-.007c-.036,0-.107-.074-.311-.316l.056-.047a3.3,3.3,0,0,0,.293.327c-.012.021-.022.035-.038.035m4.3-.018c-.142,0-.223-.226-.232-.253l.069-.023c.032.093.112.251.188.274l-.026,0" transform="translate(-538.587 -362.16)" fill="#a5a5a5"/><path d="M566.7,376.991c.831-.282-.194-.845-.365,0-.27.046-.3.255-.885.164-1.406,2.4-.366,6.275,3.747,10.286-7.366-6.571-4.371-11.432-2.333-11.248,1.109.081.55,1.531-.165.8" transform="translate(-537.779 -361.598)" fill="#ad761b" fill-rule="evenodd"/><path d="M571.072,377.038a.987.987,0,0,1-.274-.839l.145.02a.907.907,0,0,0,.2.691Zm-1.211-.173-.026-.791.147,0,.026.791Zm-.831-.063a1.177,1.177,0,0,1-.043-.228.779.779,0,0,1-.115.225l-.115-.093a.842.842,0,0,0,.14-.5h.095a2.2,2.2,0,0,1,.09-.406l.139.048a1.741,1.741,0,0,0-.051.91Zm1.481-.048.02-.091c.041-.152.137-.5-.026-.677l.108-.1c.22.231.108.642.06.818Zm-.394-.194-.106-.1a1.169,1.169,0,0,1,.449-.238l.041.141a1.074,1.074,0,0,0-.384.2m-.508-.043c-.07-.127-.281-.1-.309-.088l-.117-.057.09-.089a.421.421,0,0,1,.465.163Zm-1.136-.445h-.147c0-.2-.463-.375-.623-.421l.039-.142c.075.02.731.216.731.562m2.327-.007c-.011-.034-.039-.127.333-.457l.1.111a1.349,1.349,0,0,0-.289.32Zm-1.893-.095a1.565,1.565,0,0,0-.539-.377l.062-.134a1.651,1.651,0,0,1,.607.441Zm2.519-.047-.122-.084c.145-.212.715-.3.779-.3l.02.146a1.332,1.332,0,0,0-.678.242" transform="translate(-538.567 -361.419)" fill="#796d14"/><path d="M570.087,377.019l-.04.045a.572.572,0,0,1-.272.182.557.557,0,0,1-.386-.044l-.037-.016-.034.023a.51.51,0,0,1-.382.1.613.613,0,0,1-.347-.218l-.035-.039-.047.018a7.045,7.045,0,0,1-1,.368.948.948,0,0,1-.736-.073l-.047-.029-.04.037a3.443,3.443,0,0,0-1.1,2.263,6.314,6.314,0,0,0,.42,2.71,14.409,14.409,0,0,0,3.309,5.019l.05.05.051-.048a13.4,13.4,0,0,0,3.343-4.954c.674-1.867.684-3.775-.65-5.1l-.071-.071-.046.091a.347.347,0,0,1-.247.179,1.156,1.156,0,0,1-.451,0,3.444,3.444,0,0,1-1.147-.454Zm.026.182a3.511,3.511,0,0,0,1.148.448,1.28,1.28,0,0,0,.513,0,.53.53,0,0,0,.274-.177c1.229,1.276,1.221,3.077.567,4.889a13.309,13.309,0,0,1-3.251,4.845,14.248,14.248,0,0,1-3.225-4.912,6.171,6.171,0,0,1-.411-2.647,3.28,3.28,0,0,1,1.024-2.134,1.131,1.131,0,0,0,.789.064,6.594,6.594,0,0,0,.981-.357.732.732,0,0,0,.39.23.66.66,0,0,0,.457-.1.712.712,0,0,0,.448.041.686.686,0,0,0,.3-.187" transform="translate(-538.039 -361.803)" fill="#796d14" fill-rule="evenodd"/><path d="M573.114,376.911c-.832-.282.193-.845.363,0,.27.046.3.255.885.164,1.406,2.4.366,6.275-3.747,10.286,7.366-6.571,4.371-11.432,2.333-11.248-1.109.08-.55,1.53.167.8" transform="translate(-539.285 -361.579)" fill="#ad761b" fill-rule="evenodd"/><path d="M564.548,388.776a3.961,3.961,0,0,0-4.34-.751c.52.235,1.082.317,1.559.574l2.78.176" transform="translate(-536.721 -364.435)" fill="#2b6a0c" fill-rule="evenodd"/><path d="M564.523,388.825h0l-2.781-.176a4.952,4.952,0,0,0-.857-.322,5.969,5.969,0,0,1-.727-.259.074.074,0,0,1,0-.136,4.062,4.062,0,0,1,4.415.766.074.074,0,0,1-.05.128m-4.132-.818c.176.069.357.124.534.178a4.772,4.772,0,0,1,.853.325l2.534.154a3.84,3.84,0,0,0-3.921-.657" transform="translate(-536.697 -364.411)" fill="#1c4404"/><path d="M564.518,388.791a.091.091,0,0,1-.044-.012A5.174,5.174,0,0,0,562,388.3a.073.073,0,0,1-.072-.075.07.07,0,0,1,.075-.072,5.408,5.408,0,0,1,2.527.49.084.084,0,0,1,.026.013.092.092,0,0,1,.025.11.076.076,0,0,1-.061.029" transform="translate(-537.144 -364.545)" fill="#43a514"/><path d="M564.584,389.054c-.606.125-1.44.737-1.686.706a10.026,10.026,0,0,1-1.917-.574,2.443,2.443,0,0,0-.8,0c2.268-1.126,3.04-.971,4.4-.133" transform="translate(-536.714 -364.603)" fill="#2b6a0c" fill-rule="evenodd"/><path d="M562.893,389.813l-.027,0a6.6,6.6,0,0,1-1.438-.4c-.164-.06-.328-.12-.494-.175a1.255,1.255,0,0,0-.5-.016,2.581,2.581,0,0,1-.274.02.074.074,0,0,1-.072-.057.077.077,0,0,1,.039-.084c2.323-1.152,3.126-.959,4.475-.128a.073.073,0,0,1-.025.134,4.351,4.351,0,0,0-1,.428,2.05,2.05,0,0,1-.68.282m-2.2-.763a.922.922,0,0,1,.291.044c.166.055.332.115.5.176a6.4,6.4,0,0,0,1.406.395h.01a2.189,2.189,0,0,0,.611-.264,5.731,5.731,0,0,1,.87-.4c-1.184-.7-1.913-.842-3.827.054.048,0,.1-.008.144-.008" transform="translate(-536.69 -364.579)" fill="#1c4404"/><path d="M562.93,386.676s-.758.11-1.1.133a2.542,2.542,0,0,1-1.369-.95,1.32,1.32,0,0,0-.927-.287,3.041,3.041,0,0,1,3.391,1.1" transform="translate(-536.556 -363.881)" fill="#2b6a0c" fill-rule="evenodd"/><path d="M561.82,386.859h-.005a2.583,2.583,0,0,1-1.418-.974,1.18,1.18,0,0,0-.809-.265.136.136,0,0,1-.029,0l-.018,0,0-.011c-.028-.011-.053-.031-.056-.054s-.01-.071.026-.079a3.1,3.1,0,0,1,3.467,1.131.077.077,0,0,1,.01.072.074.074,0,0,1-.058.045s-.762.111-1.1.133Zm-1.768-1.326a.893.893,0,0,1,.454.255,2.517,2.517,0,0,0,1.314.924c.252-.017.73-.081.957-.114a2.82,2.82,0,0,0-2.725-1.065" transform="translate(-536.541 -363.857)" fill="#1c4404"/><path d="M561.815,384.311a3.212,3.212,0,0,1-2.613-2.186c0,.014.38.25.317.309,1.693.448,1.805.809,2.3,1.877" transform="translate(-536.473 -363.061)" fill="#2b6a0c" fill-rule="evenodd"/><path d="M561.791,384.36h0a3.27,3.27,0,0,1-2.679-2.241.074.074,0,0,1,.139-.048c.2.137.3.214.322.282,1.617.436,1.789.81,2.241,1.794l.05.109a.072.072,0,0,1-.006.073.073.073,0,0,1-.061.032m-2.475-2.068a3.233,3.233,0,0,0,2.354,1.908c-.445-.968-.6-1.3-2.195-1.719a.073.073,0,0,1-.052-.053.072.072,0,0,1,.021-.072.349.349,0,0,1-.129-.064" transform="translate(-536.449 -363.037)" fill="#1c4404"/><path d="M564.619,386.331a2.7,2.7,0,0,0-.253-2.208,4.3,4.3,0,0,1-.715-1.324c-.078,1.287-.344,2.355.969,3.532" transform="translate(-537.55 -363.227)" fill="#2b6a0c" fill-rule="evenodd"/><path d="M564.594,386.381a.081.081,0,0,1-.05-.018,3.2,3.2,0,0,1-1.024-3.159c.011-.142.023-.286.032-.433a.073.073,0,0,1,.141-.024l.07.167a3.722,3.722,0,0,0,.635,1.14,2.79,2.79,0,0,1,.269,2.266.07.07,0,0,1-.048.058.072.072,0,0,1-.025,0m-.917-3.291c0,.042-.007.084-.01.125a3.09,3.09,0,0,0,.874,2.943,2.484,2.484,0,0,0-.259-2.015,3.554,3.554,0,0,1-.605-1.054" transform="translate(-537.526 -363.203)" fill="#1c4404"/><path d="M562.73,382.757a4.731,4.731,0,0,0,.78-3.444,6.24,6.24,0,0,1-.3.794c-1.137.751-.632,1.921-.485,2.65" transform="translate(-537.283 -362.368)" fill="#2b6a0c" fill-rule="evenodd"/><path d="M562.7,382.806a.043.043,0,0,1-.014,0,.071.071,0,0,1-.058-.057c-.021-.1-.047-.209-.076-.323-.182-.729-.43-1.727.592-2.4.023-.044.244-.65.265-.748a.066.066,0,0,1,.076-.059.074.074,0,0,1,.069.067,4.831,4.831,0,0,1-.792,3.491.073.073,0,0,1-.062.033m.734-3.13c-.08.231-.182.481-.249.481-.895.605-.67,1.507-.489,2.232.013.053.026.1.038.155a4.423,4.423,0,0,0,.7-2.868" transform="translate(-537.259 -362.344)" fill="#1c4404"/><path d="M561.788,376.382c.766,1.17.646,2.275.527,3.666a6.211,6.211,0,0,0-.294-.794c-1.138-.751-.38-2.143-.233-2.871" transform="translate(-537.016 -361.646)" fill="#2b6a0c" fill-rule="evenodd"/><path d="M562.289,380.1a.074.074,0,0,1-.073-.06,6.948,6.948,0,0,0-.279-.763c-.948-.62-.62-1.679-.381-2.452.056-.179.106-.341.134-.479a.072.072,0,0,1,.058-.057.069.069,0,0,1,.076.032,5.091,5.091,0,0,1,.548,3.6l-.009.113a.073.073,0,0,1-.07.066Zm-.252-.93c.044,0,.136.247.21.474a4.793,4.793,0,0,0-.455-3.1c-.026.1-.06.207-.095.32-.238.769-.534,1.727.338,2.3Z" transform="translate(-536.99 -361.622)" fill="#1c4404"/><path d="M562.753,377.745c1.853-.979,1.137-2.223,1.473-3.18a3.627,3.627,0,0,0-1.473,3.18" transform="translate(-537.348 -361.199)" fill="#2b6a0c" fill-rule="evenodd"/><path d="M562.729,377.794a.076.076,0,0,1-.039-.011.072.072,0,0,1-.035-.064,3.691,3.691,0,0,1,1.5-3.236.075.075,0,0,1,.116.083,2.872,2.872,0,0,0-.112.875,2.294,2.294,0,0,1-1.4,2.345.084.084,0,0,1-.035.008m1.341-3.051a3.494,3.494,0,0,0-1.265,2.851,2.126,2.126,0,0,0,1.207-2.158,4.2,4.2,0,0,1,.058-.693" transform="translate(-537.324 -361.175)" fill="#1c4404"/><path d="M562.24,379.34a.074.074,0,0,1-.073-.068c-.033-.393-.2-1.335-.264-1.738l-.03-.179a.073.073,0,0,1,.062-.084.072.072,0,0,1,.084.062l.03.176c.069.4.231,1.351.265,1.752a.073.073,0,0,1-.068.079Zm.548-1.435a.06.06,0,0,1-.023,0,.074.074,0,0,1-.047-.093,10.179,10.179,0,0,1,.808-1.905.073.073,0,0,1,0,.147c-.014.063-.439,1.134-.668,1.806a.073.073,0,0,1-.07.05" transform="translate(-537.131 -361.528)" fill="#43a514"/><path d="M561.675,382.387c-1.033-.066-2.149-1.546-2.443-2.694,0,.014.378.25.315.309a3.6,3.6,0,0,1,2.128,2.385" transform="translate(-536.48 -362.462)" fill="#2b6a0c" fill-rule="evenodd"/><path d="M561.65,382.437h0c-1.034-.066-2.2-1.531-2.511-2.749a.074.074,0,0,1,.139-.048c.21.145.3.223.324.293a3.394,3.394,0,0,1,1.984,2.1l.134.3a.073.073,0,0,1-.006.073.074.074,0,0,1-.061.032m-2.312-2.579a3.688,3.688,0,0,0,2.19,2.416l-.081-.179a3.254,3.254,0,0,0-1.957-2.05.073.073,0,0,1-.019-.121.423.423,0,0,1-.133-.067" transform="translate(-536.456 -362.438)" fill="#1c4404"/><path d="M561.8,380.794a4.732,4.732,0,0,1-.779-3.445,6.243,6.243,0,0,0,.294.8c1.138.75.632,1.921.485,2.65" transform="translate(-536.911 -361.885)" fill="#2b6a0c" fill-rule="evenodd"/><path d="M561.775,380.844a.075.075,0,0,1-.062-.033,4.837,4.837,0,0,1-.791-3.492.074.074,0,0,1,.146-.007,7.123,7.123,0,0,0,.279.764c1.006.658.757,1.656.576,2.385-.029.115-.056.224-.077.324a.072.072,0,0,1-.058.058h-.014m-.733-3.123a4.417,4.417,0,0,0,.7,2.86l.038-.156c.182-.724.406-1.626-.53-2.243h0c-.043,0-.132-.237-.206-.461" transform="translate(-536.887 -361.86)" fill="#1c4404"/><path d="M562.976,378.278c1.917-.892,1.328-1.826,1.9-2.805-1.285,1-1.876,1.693-1.9,2.805" transform="translate(-537.403 -361.422)" fill="#2b6a0c" fill-rule="evenodd"/><path d="M562.952,378.327a.073.073,0,0,1-.041-.011.074.074,0,0,1-.033-.063c.022-1.169.665-1.88,1.924-2.862a.075.075,0,0,1,.094,0,.073.073,0,0,1,.015.092,2.87,2.87,0,0,0-.3.886,2.363,2.363,0,0,1-1.631,1.949.072.072,0,0,1-.031.006m1.691-2.622a3.361,3.361,0,0,0-1.613,2.43,2.172,2.172,0,0,0,1.439-1.794,3.972,3.972,0,0,1,.173-.636" transform="translate(-537.379 -361.399)" fill="#1c4404"/><path d="M563.063,378.49a.073.073,0,0,1-.054-.124,5.32,5.32,0,0,0,1.039-1.479.073.073,0,1,1,.136.054,5.3,5.3,0,0,1-1.069,1.526.072.072,0,0,1-.053.023" transform="translate(-537.406 -361.759)" fill="#43a514"/><path d="M569.728,390.589l.933.02c-3.1-3.042-9.035-4.367-8.209-9.965-.851,6.071,4.85,6.631,7.276,9.945" transform="translate(-537.253 -362.696)" fill="#a2871a" fill-rule="evenodd"/><path d="M570.825,390.684l-1.124-.023a13.167,13.167,0,0,0-3.194-2.716c-2.214-1.508-4.5-3.067-4.217-6.749.014-.185.034-.373.063-.568l.149.022h0c-.026.191-.046.376-.06.556-.249,3.538,2.443,5.281,5.045,6.966a20.426,20.426,0,0,1,3.2,2.378Zm-7.776-6.182a10.221,10.221,0,0,0,3.544,3.318,12.468,12.468,0,0,1,3.171,2.72l.407-.021.274.006A21.6,21.6,0,0,0,567.4,388.3a13.109,13.109,0,0,1-4.355-3.8" transform="translate(-537.228 -362.692)" fill="#7b6714"/><path d="M562.93,378.947a.3.3,0,1,1-.3-.312.3.3,0,0,1,.3.312" transform="translate(-537.245 -362.201)" fill="#914822" fill-rule="evenodd"/><path d="M562.62,379.283a.35.35,0,1,1,.335-.349.342.342,0,0,1-.335.349m0-.623a.275.275,0,1,0,.26.274.268.268,0,0,0-.26-.274" transform="translate(-537.233 -362.189)" fill="#613219"/><path d="M562.7,381.227a.281.281,0,1,1-.281-.295.288.288,0,0,1,.281.295" transform="translate(-537.196 -362.767)" fill="#914822" fill-rule="evenodd"/><path d="M562.407,381.546a.332.332,0,1,1,.319-.332.326.326,0,0,1-.319.332m0-.589a.257.257,0,1,0,.243.257.251.251,0,0,0-.243-.257" transform="translate(-537.184 -362.755)" fill="#613219"/><path d="M563.073,384.478a.248.248,0,1,1-.249-.26.255.255,0,0,1,.249.26" transform="translate(-537.304 -363.577)" fill="#914822" fill-rule="evenodd"/><path d="M562.812,384.763a.3.3,0,1,1,.286-.3.291.291,0,0,1-.286.3m0-.519a.223.223,0,1,0,.211.222.217.217,0,0,0-.211-.222" transform="translate(-537.292 -363.564)" fill="#613219"/><path d="M565.944,388.063a.248.248,0,1,1-.249-.26.255.255,0,0,1,.249.26" transform="translate(-538.012 -364.46)" fill="#914822" fill-rule="evenodd"/><path d="M565.683,388.348a.3.3,0,1,1,.286-.3.291.291,0,0,1-.286.3m0-.519a.223.223,0,1,0,.211.222.217.217,0,0,0-.211-.222" transform="translate(-537.999 -364.448)" fill="#613219"/><path d="M566.361,389.091a.248.248,0,1,1-.249-.26.255.255,0,0,1,.249.26" transform="translate(-538.114 -364.713)" fill="#914822" fill-rule="evenodd"/><path d="M566.1,389.376a.3.3,0,1,1,.286-.3.291.291,0,0,1-.286.3m0-.519a.223.223,0,1,0,.211.222.217.217,0,0,0-.211-.222" transform="translate(-538.102 -364.701)" fill="#613219"/><path d="M567.54,392a1.108,1.108,0,0,1-.329-.423l-.972-.11q-.006.291-.013.581L567.54,392" transform="translate(-538.203 -365.362)" fill="#fff" fill-rule="evenodd"/><path d="M566.174,392.084l.014-.621.528.019.486.055a1.419,1.419,0,0,0,.35.431Zm.047-.583.026.5,1.277-.047a.642.642,0,0,1-.363-.372Z" transform="translate(-538.191 -365.361)"/><path d="M558.5,390.94c.564.109,1.415-.055,1.693.328.333.4-1.045,1.006-.848,1.349.427.473.866.277,1.342.016.112-.255.2-.711.261-.846-.173-.419-.641-.624-.521-1.256a5.15,5.15,0,0,1,2.461-.164c.128.263.014.383.04.592-.131.265-.465.712-.467.949.826.305,1.044-.047,1.785-.026.87.011,1.4.256,1.588-.107-.129-.312-.927-.058-1.23-.258a1.05,1.05,0,0,1-.38-.323c-.131-.141-.5-.147-.554-.494.153-.742,1.173-.628,1.34-.742l2.657.191c.482-.014.754.894.1,1.167s-2.573-.405-3.406.061c-.042-.19-.641-.478-.686-.486a2.87,2.87,0,0,1-.752.05c-.122.236-.261.409-.383.646-.552-.253-1.073.2-1.675.063,0,0-.913.109-.938.109s-.6-.054-.6-.054l-.912.274.652-.6-.573-.436" transform="translate(-536.281 -364.99)" fill="#fff" fill-rule="evenodd"/><path d="M559.908,392.932a.794.794,0,0,1-.6-.3c-.112-.192.146-.418.418-.656.072-.063.146-.127.213-.191l-.015,0c-.026,0-.6-.054-.6-.054l-.9.272a.035.035,0,0,1-.044-.017.039.039,0,0,1,.008-.047l.652-.6-.57-.378a3.76,3.76,0,0,1,.651-.02c.442.013.9.025,1.1.3.128.151.03.324-.085.46l.681-.087-.139-.18a1.025,1.025,0,0,1-.289-.914,5.1,5.1,0,0,1,1.748-.278,2.116,2.116,0,0,1,.772.09.6.6,0,0,1,.064.421.808.808,0,0,0-.013.155,1.333,1.333,0,0,1,.174,0,2.046,2.046,0,0,0,.534-.054l.016,0a.465.465,0,0,1-.051-.152c.119-.587.732-.672,1.1-.723a.9.9,0,0,0,.259-.055l2.681.185a.555.555,0,0,1,.508.491.645.645,0,0,1-.391.747,3.62,3.62,0,0,1-1.418-.011,4.312,4.312,0,0,0-1.937.045,1.27,1.27,0,0,0,.185.095,1.03,1.03,0,0,0,.521.085h.127c.287,0,.531.015.605.194a.433.433,0,0,1-.455.25,3.956,3.956,0,0,1-.433-.035,6.992,6.992,0,0,0-.735-.056h-.01a2.649,2.649,0,0,0-.666.082,1.837,1.837,0,0,1-1.123-.058.7.7,0,0,1,.079-.349,1.79,1.79,0,0,0-.86.033,1.992,1.992,0,0,1-.72.076.384.384,0,0,1,.035.07c-.026.088-.057.2-.093.338a4.057,4.057,0,0,1-.167.538,1.71,1.71,0,0,1-.8.294m.927-1.271-.792.112a2.382,2.382,0,0,1-.27.259c-.237.209-.483.424-.407.555.359.395.843.249,1.291,0,.047-.125.1-.332.148-.508a2.654,2.654,0,0,1,.1-.32.479.479,0,0,1-.067-.1m2.064-.626a1.278,1.278,0,0,1-.115.22,1.783,1.783,0,0,0-.3.642,2.3,2.3,0,0,0,1.057.018,2.644,2.644,0,0,1,.629-.083,7.228,7.228,0,0,1,.806.056c.448.051.708.057.811-.143-.057-.1-.286-.115-.537-.115l-.127-.038v.038a1.064,1.064,0,0,1-.554-.094.624.624,0,0,1-.225-.154c-.02.006-.043-.042-.054-.057l-.052-.057a1.251,1.251,0,0,0-.2-.15,1.1,1.1,0,0,1-.276-.155,1.139,1.139,0,0,0-.109-.047,2.608,2.608,0,0,1-.727.053c-.011.023-.022.044-.034.066m-4.418-.068.6.367-.527.551.756-.227h0c.029,0,.577.052.61.053l.113-.012c.161-.181.206-.314.119-.417-.177-.242-.615-.254-1.038-.265a4.092,4.092,0,0,1-.634-.05m2.437.655a3.62,3.62,0,0,0,.72-.079,1.452,1.452,0,0,1,.9-.006c.006-.014.013-.027.02-.041a1.011,1.011,0,0,1,.136-.264c.063-.1.127-.2.187-.315a.548.548,0,0,1,.007-.181.537.537,0,0,0-.045-.363,2.739,2.739,0,0,0-.717-.061,5.264,5.264,0,0,0-1.7.244,1.006,1.006,0,0,0,.3.827,2.469,2.469,0,0,1,.173.24Zm4.306-.463a9.763,9.763,0,0,1,1.143.094,3.614,3.614,0,0,0,1.379.017.567.567,0,0,0,.347-.662c-.044-.215-.2-.432-.425-.432L565,389.984a.672.672,0,0,1-.266.062c-.369.051-.925.128-1.033.65a.367.367,0,0,0,.122.211,2.826,2.826,0,0,1,.266.148.5.5,0,0,1,.156.1,1.387,1.387,0,0,1,.114.125,2.785,2.785,0,0,1,.87-.122" transform="translate(-536.268 -364.98)"/><path d="M558.308,391.019a.251.251,0,1,1-.25-.264.257.257,0,0,1,.25.264" transform="translate(-536.129 -365.187)" fill="#fff" fill-rule="evenodd"/><path d="M558.045,391.307a.3.3,0,1,1,.288-.3.295.295,0,0,1-.288.3m0-.527a.227.227,0,1,0,.213.226.221.221,0,0,0-.213-.226" transform="translate(-536.117 -365.175)"/><path d="M558.221,392.748a.252.252,0,1,1-.252-.264.258.258,0,0,1,.252.264" transform="translate(-536.107 -365.613)" fill="#fff" fill-rule="evenodd"/><path d="M557.957,393.036a.3.3,0,1,1,.289-.3.295.295,0,0,1-.289.3m0-.527a.226.226,0,1,0,.214.226.221.221,0,0,0-.214-.226" transform="translate(-536.095 -365.601)"/><path d="M573.3,392a1.108,1.108,0,0,0,.331-.424l.972-.11q.006.292.013.582Z" transform="translate(-539.946 -365.363)" fill="#fff" fill-rule="evenodd"/><path d="M574.654,392.079l-1.357-.05a2.98,2.98,0,0,0,.3-.474l1-.135Zm-.089-.62-.93.147a.878.878,0,0,1-.306.41l.629-.038.619.023Z" transform="translate(-539.945 -365.351)"/><path d="M579.589,390.945c-.564.109-1.415-.054-1.693.328-.334.4,1.044,1.006.846,1.349-.425.473-.864.278-1.341.016-.112-.255-.2-.711-.261-.846.173-.419.641-.624.521-1.256a5.153,5.153,0,0,0-2.462-.164c-.127.263-.012.382-.038.592.13.265.465.712.466.948-.826.305-1.044-.046-1.785-.026-.87.011-1.4.256-1.588-.107.129-.313.927-.058,1.23-.259a1.047,1.047,0,0,0,.38-.322c.131-.141.5-.148.554-.494-.153-.741-1.173-.628-1.34-.742l-2.658.191c-.48-.014-.752.894-.1,1.167s2.573-.406,3.407.06c.042-.19.641-.478.686-.486a2.835,2.835,0,0,0,.752.05c.122.237.261.41.383.646.55-.253,1.073.2,1.675.063,0,0,.911.11.938.11s.6-.054.6-.054l.911.273-.651-.6.573-.437" transform="translate(-539.117 -364.992)" fill="#fff" fill-rule="evenodd"/><path d="M578.156,392.935a1.743,1.743,0,0,1-.785-.276,3.269,3.269,0,0,1-.184-.555,2.512,2.512,0,0,0-.093-.308.571.571,0,0,1,.036-.1,1.663,1.663,0,0,1-.722-.072,1.36,1.36,0,0,0-.844-.012.738.738,0,0,1,.089.292,1.533,1.533,0,0,1-1.148.093,2.666,2.666,0,0,0-.613-.081,7.243,7.243,0,0,0-.8.057,4.138,4.138,0,0,1-.433.035.454.454,0,0,1-.454-.218c.073-.213.317-.227.6-.227h.125a1.037,1.037,0,0,0,.514-.082.54.54,0,0,0,.188-.12,4.881,4.881,0,0,0-1.932-.024,3.628,3.628,0,0,1-1.418.011.648.648,0,0,1-.392-.748.555.555,0,0,1,.5-.492l2.668-.191a1,1,0,0,0,.283.063c.366.051.978.136,1.1.709a.481.481,0,0,1-.05.163,2.848,2.848,0,0,0,.725.05,1.311,1.311,0,0,0-.014-.148.6.6,0,0,1,.05-.405,1.879,1.879,0,0,1,.785-.1,5.51,5.51,0,0,1,1.725.249.99.99,0,0,1-.267.944c-.051.066-.1.131-.148.2l.693.062c-.124-.14-.213-.308-.087-.458.194-.268.651-.28,1.094-.292a4.179,4.179,0,0,0,.62-.048l-.539.5.65.545a.04.04,0,0,1,.008.046.036.036,0,0,1-.044.018l-.91-.274s-.562.057-.589.057h-.02l.216.191c.273.238.53.463.422.649a.794.794,0,0,1-.607.306m-.953-1.255a.345.345,0,0,1-.039.115,1.15,1.15,0,0,1,.1.289,4.019,4.019,0,0,0,.164.527c.418.213.911.382,1.278-.026.072-.126-.174-.341-.411-.547-.1-.09-.207-.182-.293-.272Zm-3.363.156a2.757,2.757,0,0,1,.682.083,1.745,1.745,0,0,0,1.081-.055,3.358,3.358,0,0,0-.318-.6c-.066-.107-.127-.209-.168-.292a2.52,2.52,0,0,1-.73-.053c.008,0-.03.02-.1.054a.881.881,0,0,1-.231.133,1.194,1.194,0,0,0-.222.154l-.067.074a.109.109,0,0,1-.032.048c-.011.005-.032.026-.044.02a.486.486,0,0,1-.207.141,1.05,1.05,0,0,1-.547.091h-.125c-.251,0-.479.011-.536.148.1.147.359.161.81.11a7.168,7.168,0,0,1,.742-.056Zm4.9-.176.769.228-.531-.491.576-.5a1.2,1.2,0,0,1-.6.116c-.423.012-.861.023-1.036.264-.088.106-.045.237.139.43a.747.747,0,0,1,.092,0c.032,0,.595-.054.595-.054m-2.836-.2a2.328,2.328,0,0,1,.522.082,1.832,1.832,0,0,0,.764.063,1.038,1.038,0,0,1,.148-.222.958.958,0,0,0,.276-.855,5.934,5.934,0,0,0-1.675-.216,2.126,2.126,0,0,0-.73.075.561.561,0,0,0-.032.348.753.753,0,0,1,.011.2c.057.1.121.2.185.3s.131.206.193.324a.478.478,0,0,1,.338-.1m-5.494-1.284a.492.492,0,0,0-.437.43.567.567,0,0,0,.347.665,3.633,3.633,0,0,0,1.38-.017,4.3,4.3,0,0,1,1.984.055l.062-.067a.348.348,0,0,1,.039-.042.562.562,0,0,1,.2-.145,3.062,3.062,0,0,1,.274-.154.362.362,0,0,0,.113-.219c-.108-.507-.664-.585-1.033-.636a.819.819,0,0,1-.291-.069l-2.634.2Z" transform="translate(-539.105 -364.979)"/><path d="M582.8,391.026a.252.252,0,1,0,.252-.264.258.258,0,0,0-.252.264" transform="translate(-542.286 -365.189)" fill="#fff" fill-rule="evenodd"/><path d="M583.037,391.313a.3.3,0,1,1,.289-.3.295.295,0,0,1-.289.3m0-.526a.226.226,0,1,0,.214.226.221.221,0,0,0-.214-.226" transform="translate(-542.273 -365.176)"/><path d="M582.886,392.755a.252.252,0,1,0,.252-.264.258.258,0,0,0-.252.264" transform="translate(-542.307 -365.615)" fill="#fff" fill-rule="evenodd"/><path d="M583.125,393.042a.3.3,0,1,1,.289-.3.295.295,0,0,1-.289.3m0-.526a.226.226,0,1,0,.214.226.221.221,0,0,0-.214-.226" transform="translate(-542.295 -365.602)"/><path d="M570.349,390.263a3.275,3.275,0,0,0-.455-.048c-.119.382-.237.764-.356,1.147a9.624,9.624,0,0,0,1.058.047c-.332-.07-.252-1.142-.247-1.146" transform="translate(-539.019 -365.054)" fill="#fff" fill-rule="evenodd"/><path d="M567.532,391.066v-.778h.133v.655H568v.123Z" transform="translate(-538.525 -365.072)"/><rect width="0.133" height="0.778" transform="translate(29.59 25.257)"/><path d="M568.993,391.189h-.227v-.777c.1-.005.171-.008.211-.008a.292.292,0,0,1,.181.051.183.183,0,0,1,.065.148.164.164,0,0,1-.093.146.2.2,0,0,1,.138.207.21.21,0,0,1-.076.169.3.3,0,0,1-.2.063m-.094-.667v.186l.063,0c.085,0,.128-.034.128-.1s-.038-.09-.116-.09l-.075,0m0,.295v.257l.065,0a.206.206,0,0,0,.128-.032.126.126,0,0,0,.04-.1.121.121,0,0,0-.037-.1.209.209,0,0,0-.13-.03H568.9" transform="translate(-538.829 -365.101)"/><path d="M569.8,390.605v.182h.244v.117H569.8v.234h.335v.122h-.468v-.778h.474v.123Z" transform="translate(-539.051 -365.12)"/><path d="M570.963,391.272l-.2-.322-.084,0v.326h-.137v-.778l.086,0,.121,0q.283,0,.283.23a.227.227,0,0,1-.139.206l.219.35Zm-.281-.658v.216l.056,0a.231.231,0,0,0,.121-.025.1.1,0,0,0,.038-.094.087.087,0,0,0-.042-.081.289.289,0,0,0-.129-.023.318.318,0,0,0-.044,0" transform="translate(-539.267 -365.121)"/><path d="M571.689,390.591v.655h-.133v-.655h-.235v-.123h.613v.123Z" transform="translate(-539.459 -365.116)"/><path d="M572.626,391.1l-.054-.158h-.253l-.051.158h-.148l.3-.788h.057l.3.788Zm-.181-.551-.09.288h.178Z" transform="translate(-539.655 -365.079)"/><path d="M573.126,391.018l.048-.124a.266.266,0,0,0,.155.057c.076,0,.115-.028.115-.084a.128.128,0,0,0-.026-.076.345.345,0,0,0-.114-.081.54.54,0,0,1-.115-.075.2.2,0,0,1-.046-.069.253.253,0,0,1-.016-.088.2.2,0,0,1,.063-.149.226.226,0,0,1,.162-.06.293.293,0,0,1,.19.051l-.041.118a.243.243,0,0,0-.146-.052.094.094,0,0,0-.071.026.09.09,0,0,0-.025.065c0,.044.047.09.141.139a.435.435,0,0,1,.108.07.215.215,0,0,1,.05.075.243.243,0,0,1,.018.1.2.2,0,0,1-.072.155.282.282,0,0,1-.19.061.335.335,0,0,1-.188-.056" transform="translate(-539.903 -365.068)"/><path d="M562.919,386.856a7.082,7.082,0,0,1-.868-.045.073.073,0,0,1-.063-.083.07.07,0,0,1,.082-.063,11.966,11.966,0,0,0,1.944.006l.127-.007a.072.072,0,0,1,.078.07.074.074,0,0,1-.07.078l-.127.006c-.272.016-.681.038-1.1.038m.678-1.635a.073.073,0,0,1-.072-.06,6.523,6.523,0,0,0-.358-1.262,6.032,6.032,0,0,1-.21-.632.073.073,0,1,1,.142-.036,5.785,5.785,0,0,0,.2.616,6.593,6.593,0,0,1,.364,1.287.073.073,0,0,1-.059.086H563.6m-.761-.136a5.226,5.226,0,0,1-1.877-.786.074.074,0,0,1-.01-.1.072.072,0,0,1,.1-.01,4.992,4.992,0,0,0,1.783.747c.035.009.1.055.1.093l-.147-.021.073.011Zm-1.051-1.675a.07.07,0,0,1-.043-.014c-.2-.148-.354-.28-.5-.406a4.613,4.613,0,0,0-1.256-.822.074.074,0,1,1,.063-.134,4.811,4.811,0,0,1,1.289.845c.143.124.292.254.49.4a.074.074,0,0,1-.044.133m.359-1.016h-.005a.073.073,0,0,1-.069-.078c.084-1.246.249-1.613.57-1.925a.074.074,0,1,1,.1.106c-.253.246-.439.522-.526,1.828a.073.073,0,0,1-.073.069m-.645-.333s-1.18-1.3-1.538-1.724a.074.074,0,1,1,.112-.1c.357.418,1.535,1.721,1.535,1.721Zm.012-1.323a.074.074,0,0,1-.074-.074c0-.011,0-1.159-.412-1.464a.075.075,0,0,1-.014-.1.073.073,0,0,1,.1-.014c.466.349.471,1.532.471,1.582a.074.074,0,0,1-.074.074" transform="translate(-536.656 -362.308)" fill="#43a514"/></g></g></g></svg>