<svg xmlns="http://www.w3.org/2000/svg" xmlns:xlink="http://www.w3.org/1999/xlink" width="36" height="36" viewBox="0 0 36 36"><defs><clipPath id="a"><circle cx="18" cy="18" r="18" transform="translate(1277 220)" fill="#fff" stroke="#707070" stroke-width="1"/></clipPath><clipPath id="b"><rect width="61.716" height="36" fill="none"/></clipPath></defs><g transform="translate(-1277 -220)" clip-path="url(#a)"><g transform="translate(1146.128 99.545)"><g transform="translate(129.872 120.455)" clip-path="url(#b)"><rect width="61.716" height="36" fill="#e8333c"/><rect width="43.715" height="12" transform="translate(18 24)" fill="#3d9546"/><rect width="43.715" height="12" transform="translate(18)" fill="#fff"/><path d="M145.895,128.827h1.934a.186.186,0,0,1,.193.181v.911a.187.187,0,0,1-.193.181h-1.934a.188.188,0,0,1-.193-.181v-.911a.187.187,0,0,1,.193-.181" transform="translate(-133.957 -122.616)" fill="#fff"/><path d="M147.824,130.11H145.89a.2.2,0,0,1-.208-.2V129a.2.2,0,0,1,.208-.2h1.934a.2.2,0,0,1,.208.2v.91a.2.2,0,0,1-.208.2m-1.934-1.273a.172.172,0,0,0-.177.166v.91a.172.172,0,0,0,.177.166h1.934a.173.173,0,0,0,.178-.166V129a.173.173,0,0,0-.178-.166Z" transform="translate(-133.952 -122.61)" fill="#dc1f34"/><path d="M145.965,128.9H147.8a.175.175,0,0,1,.183.166v.835a.175.175,0,0,1-.183.165h-1.836a.175.175,0,0,1-.183-.165v-.835a.176.176,0,0,1,.183-.166" transform="translate(-133.978 -122.634)" fill="#fff"/><path d="M147.8,130.075h-1.836a.19.19,0,0,1-.2-.181v-.835a.19.19,0,0,1,.2-.181H147.8a.19.19,0,0,1,.2.181v.835a.19.19,0,0,1-.2.181m-1.836-1.167a.16.16,0,0,0-.168.151v.835a.16.16,0,0,0,.168.151H147.8a.16.16,0,0,0,.167-.151v-.835a.16.16,0,0,0-.167-.151Z" transform="translate(-133.973 -122.629)" fill="#dc1f34"/><path d="M147.037,129.328l.111,0,.006.05.09.047.071-.058.087.046-.081.05.02.07.1,0v.093l-.08,0-.04.059.091.065-.071.055-.076-.059-.111.024,0,.085-.122.008-.015-.082-.1-.042-.055.058-.086-.043.05-.066-.059-.042h-.088l0-.119.085.007.061-.07-.071-.054.091-.062.065.05.111-.016Z" transform="translate(-134.21 -122.745)" fill="#fff"/><path d="M147.019,129.87l-.016-.094-.093-.032-.039.055-.1-.04.045-.088-.134-.019-.02-.134.1-.007.047-.065-.068-.033.092-.086.082.05.068-.012-.074.039-.076-.053-.074.062.072.03-.058.092-.1,0,.021.1.076-.015.064.046-.046.087.08.021.037-.056.118.04.021.079.109-.007-.019-.069.122-.039.089.062.053-.054-.1-.05.049-.07.093,0-.016-.078-.1.019-.024-.081.088-.067-.087-.021-.054.056-.2-.088.095-.035.1.1.054-.056.1.045-.08.076.111.039.016.108-.1.012.06.1-.071.079-.094-.059-.1.027.016.069Z" transform="translate(-134.204 -122.741)" fill="#dc1f34"/><path d="M147.165,129.526a.106.106,0,1,1-.123.1.114.114,0,0,1,.123-.1" transform="translate(-134.303 -122.796)" fill="#fff"/><path d="M147.16,129.752a.13.13,0,0,1-.139-.119c0-.131.276-.133.276,0a.129.129,0,0,1-.137.119m0-.208a.1.1,0,0,0-.108.089c0,.1.215.1.215,0a.1.1,0,0,0-.107-.089" transform="translate(-134.298 -122.798)" fill="#dc1f34"/><path d="M146.121,128.97l-.178.159Z" transform="translate(-134.02 -122.653)" fill="#fff"/><path d="M146.283,128.97l-.18.159Z" transform="translate(-134.061 -122.653)" fill="#fff"/><path d="M146.443,128.97l-.18.159Z" transform="translate(-134.102 -122.653)" fill="#fff"/><path d="M146.6,128.97l-.178.159Z" transform="translate(-134.144 -122.653)" fill="#fff"/><path d="M146.763,128.97l-.178.159Z" transform="translate(-134.185 -122.653)" fill="#fff"/><path d="M146.923,128.97l-.178.159Z" transform="translate(-134.227 -122.653)" fill="#fff"/><path d="M147.083,128.97l-.178.159Z" transform="translate(-134.268 -122.653)" fill="#fff"/><path d="M147.244,128.97l-.178.159Z" transform="translate(-134.309 -122.653)" fill="#fff"/><path d="M147.4,128.97l-.178.159Z" transform="translate(-134.351 -122.653)" fill="#fff"/><path d="M147.564,128.97l-.178.159Z" transform="translate(-134.392 -122.653)" fill="#fff"/><path d="M147.726,128.97l-.18.159Z" transform="translate(-134.433 -122.653)" fill="#fff"/><path d="M147.886,128.97l-.18.159Z" transform="translate(-134.475 -122.653)" fill="#fff"/><path d="M147.244,128.97l-.178.159Z" transform="translate(-134.309 -122.653)" fill="#fff"/><path d="M148.046,128.97l-.178.159Z" transform="translate(-134.516 -122.653)" fill="#fff"/><path d="M148.207,128.97l-.178.159Z" transform="translate(-134.558 -122.653)" fill="#fff"/><path d="M148.367,128.97l-.178.159Z" transform="translate(-134.599 -122.653)" fill="#fff"/><path d="M148.527,128.97l-.178.159Z" transform="translate(-134.641 -122.653)" fill="#fff"/><path d="M148.349,128.97l.178.159Z" transform="translate(-134.641 -122.653)" fill="#fff"/><path d="M148.189,128.97l.177.159Z" transform="translate(-134.599 -122.653)" fill="#fff"/><path d="M148.028,128.97l.178.159Z" transform="translate(-134.558 -122.653)" fill="#fff"/><path d="M147.868,128.97l.178.159Z" transform="translate(-134.516 -122.653)" fill="#fff"/><path d="M147.706,128.97l.18.159Z" transform="translate(-134.475 -122.653)" fill="#fff"/><path d="M147.546,128.97l.18.159Z" transform="translate(-134.433 -122.653)" fill="#fff"/><path d="M147.386,128.97l.178.159Z" transform="translate(-134.392 -122.653)" fill="#fff"/><path d="M147.226,128.97l.178.159Z" transform="translate(-134.351 -122.653)" fill="#fff"/><path d="M147.065,128.97l.178.159Z" transform="translate(-134.309 -122.653)" fill="#fff"/><path d="M146.9,128.97l.178.159Z" transform="translate(-134.268 -122.653)" fill="#fff"/><path d="M146.745,128.97l.178.159Z" transform="translate(-134.227 -122.653)" fill="#fff"/><path d="M146.585,128.97l.178.159Z" transform="translate(-134.185 -122.653)" fill="#fff"/><path d="M147.226,128.97l.178.159Z" transform="translate(-134.351 -122.653)" fill="#fff"/><path d="M146.425,128.97l.178.159Z" transform="translate(-134.144 -122.653)" fill="#fff"/><path d="M146.263,128.97l.18.159Z" transform="translate(-134.102 -122.653)" fill="#fff"/><path d="M146.1,128.97l.18.159Z" transform="translate(-134.061 -122.653)" fill="#fff"/><path d="M145.942,128.97l.178.159Z" transform="translate(-134.019 -122.653)" fill="#fff"/><path d="M146.121,130.185l-.178.16Z" transform="translate(-134.02 -122.966)" fill="#fff"/><path d="M146.283,130.185l-.18.16Z" transform="translate(-134.061 -122.966)" fill="#fff"/><path d="M146.443,130.185l-.18.16Z" transform="translate(-134.102 -122.966)" fill="#fff"/><path d="M146.6,130.185l-.178.16Z" transform="translate(-134.144 -122.966)" fill="#fff"/><path d="M146.763,130.185l-.178.16Z" transform="translate(-134.185 -122.966)" fill="#fff"/><path d="M146.923,130.185l-.178.16Z" transform="translate(-134.227 -122.966)" fill="#fff"/><path d="M147.083,130.185l-.178.16Z" transform="translate(-134.268 -122.966)" fill="#fff"/><path d="M147.244,130.185l-.178.16Z" transform="translate(-134.309 -122.966)" fill="#fff"/><path d="M147.4,130.185l-.178.16Z" transform="translate(-134.351 -122.966)" fill="#fff"/><path d="M147.564,130.185l-.178.16Z" transform="translate(-134.392 -122.966)" fill="#fff"/><path d="M147.726,130.185l-.18.16Z" transform="translate(-134.433 -122.966)" fill="#fff"/><path d="M147.886,130.185l-.18.16Z" transform="translate(-134.475 -122.966)" fill="#fff"/><path d="M147.244,130.185l-.178.16Z" transform="translate(-134.309 -122.966)" fill="#fff"/><path d="M148.046,130.185l-.178.16Z" transform="translate(-134.516 -122.966)" fill="#fff"/><path d="M148.207,130.185l-.178.16Z" transform="translate(-134.558 -122.966)" fill="#fff"/><path d="M148.367,130.185l-.178.16Z" transform="translate(-134.599 -122.966)" fill="#fff"/><path d="M148.527,130.185l-.178.16Z" transform="translate(-134.641 -122.966)" fill="#fff"/><path d="M148.349,130.185l.178.16Z" transform="translate(-134.641 -122.966)" fill="#fff"/><path d="M148.189,130.185l.177.16Z" transform="translate(-134.599 -122.966)" fill="#fff"/><path d="M148.028,130.185l.178.16Z" transform="translate(-134.558 -122.966)" fill="#fff"/><path d="M147.868,130.185l.178.16Z" transform="translate(-134.516 -122.966)" fill="#fff"/><path d="M147.706,130.185l.18.16Z" transform="translate(-134.475 -122.966)" fill="#fff"/><path d="M147.546,130.185l.18.16Z" transform="translate(-134.433 -122.966)" fill="#fff"/><path d="M147.386,130.185l.178.16Z" transform="translate(-134.392 -122.966)" fill="#fff"/><path d="M147.226,130.185l.178.16Z" transform="translate(-134.351 -122.966)" fill="#fff"/><path d="M147.065,130.185l.178.16Z" transform="translate(-134.309 -122.966)" fill="#fff"/><path d="M146.9,130.185l.178.16Z" transform="translate(-134.268 -122.966)" fill="#fff"/><path d="M146.745,130.185l.178.16Z" transform="translate(-134.227 -122.966)" fill="#fff"/><path d="M146.585,130.185l.178.16Z" transform="translate(-134.185 -122.966)" fill="#fff"/><path d="M147.226,130.185l.178.16Z" transform="translate(-134.351 -122.966)" fill="#fff"/><path d="M146.425,130.185l.178.16Z" transform="translate(-134.144 -122.966)" fill="#fff"/><path d="M146.263,130.185l.18.16Z" transform="translate(-134.102 -122.966)" fill="#fff"/><path d="M146.1,130.185l.18.16Z" transform="translate(-134.061 -122.966)" fill="#fff"/><path d="M145.942,130.185l.178.16Z" transform="translate(-134.019 -122.966)" fill="#fff"/><path d="M135.391,128.756h1.934a.187.187,0,0,1,.193.181v.911a.188.188,0,0,1-.193.181h-1.934a.187.187,0,0,1-.193-.181v-.911a.186.186,0,0,1,.193-.181" transform="translate(-131.247 -122.597)" fill="#fff"/><path d="M137.32,130.039h-1.934a.2.2,0,0,1-.208-.2v-.91a.2.2,0,0,1,.208-.2h1.934a.2.2,0,0,1,.208.2v.91a.2.2,0,0,1-.208.2m-1.934-1.273a.172.172,0,0,0-.177.166v.91a.172.172,0,0,0,.177.166h1.934a.173.173,0,0,0,.178-.166v-.91a.173.173,0,0,0-.178-.166Z" transform="translate(-131.241 -122.592)" fill="#dc1f34"/><path d="M135.461,128.827H137.3a.176.176,0,0,1,.183.166v.835a.176.176,0,0,1-.183.165h-1.836a.174.174,0,0,1-.183-.165v-.835a.175.175,0,0,1,.183-.166" transform="translate(-131.267 -122.616)" fill="#fff"/><path d="M137.291,130h-1.836a.19.19,0,0,1-.2-.181v-.835a.19.19,0,0,1,.2-.181h1.836a.19.19,0,0,1,.2.181v.835a.19.19,0,0,1-.2.181m-1.836-1.167a.16.16,0,0,0-.168.151v.835a.16.16,0,0,0,.168.151h1.836a.16.16,0,0,0,.167-.151v-.835a.16.16,0,0,0-.167-.151Z" transform="translate(-131.262 -122.61)" fill="#dc1f34"/><path d="M136.533,129.256l.111,0,0,.05.091.047.071-.059.085.046-.079.05.019.07.1,0v.093l-.081,0-.039.059.09.065-.071.054-.075-.058-.112.023.006.085-.122.007-.015-.082-.1-.042-.055.058-.088-.043.051-.066-.061-.042h-.086l0-.119.085.007.061-.069-.071-.055.091-.062.065.05.111-.016Z" transform="translate(-131.499 -122.726)" fill="#fff"/><path d="M136.515,129.8l-.016-.094-.093-.03-.039.054-.1-.04.045-.088-.058-.022-.076,0-.02-.134.1-.008.048-.065-.069-.033.092-.086.082.05.066-.012-.073.039-.076-.053-.074.062.072.03-.059.091h-.1l.021.1.07-.015.07.046-.047.087.081.021.038-.056.118.039.021.079.109-.007-.02-.069.123-.039.088.061.053-.053-.1-.05.047-.07.094,0-.016-.078-.1.019-.022-.081.087-.068-.085-.021-.053.057-.2-.09.095-.034.1.1.054-.056.1.045-.079.076.112.039.016.108-.1.011.06.1-.071.078-.093-.059-.1.027.019.069Z" transform="translate(-131.493 -122.723)" fill="#dc1f34"/><path d="M136.66,129.455a.105.105,0,1,1-.122.1.114.114,0,0,1,.122-.1" transform="translate(-131.592 -122.778)" fill="#fff"/><path d="M136.654,129.68a.129.129,0,0,1-.137-.119c0-.133.276-.131.276,0a.13.13,0,0,1-.139.119m0-.208a.1.1,0,0,0-.107.089c0,.1.215.1.215,0a.1.1,0,0,0-.108-.089" transform="translate(-131.587 -122.779)" fill="#dc1f34"/><path d="M135.617,128.9l-.178.16Z" transform="translate(-131.309 -122.634)" fill="#fff"/><path d="M135.777,128.9l-.178.16Z" transform="translate(-131.35 -122.634)" fill="#fff"/><path d="M135.937,128.9l-.178.16Z" transform="translate(-131.391 -122.634)" fill="#fff"/><path d="M136.1,128.9l-.18.16Z" transform="translate(-131.433 -122.634)" fill="#fff"/><path d="M136.259,128.9l-.18.16Z" transform="translate(-131.474 -122.634)" fill="#fff"/><path d="M136.419,128.9l-.178.16Z" transform="translate(-131.516 -122.634)" fill="#fff"/><path d="M136.58,128.9l-.178.16Z" transform="translate(-131.557 -122.634)" fill="#fff"/><path d="M136.74,128.9l-.178.16Z" transform="translate(-131.599 -122.634)" fill="#fff"/><path d="M136.9,128.9l-.178.16Z" transform="translate(-131.64 -122.634)" fill="#fff"/><path d="M137.06,128.9l-.178.16Z" transform="translate(-131.681 -122.634)" fill="#fff"/><path d="M137.22,128.9l-.178.16Z" transform="translate(-131.722 -122.634)" fill="#fff"/><path d="M137.38,128.9l-.178.16Z" transform="translate(-131.764 -122.634)" fill="#fff"/><path d="M136.74,128.9l-.178.16Z" transform="translate(-131.599 -122.634)" fill="#fff"/><path d="M137.543,128.9l-.18.16Z" transform="translate(-131.805 -122.634)" fill="#fff"/><path d="M137.7,128.9l-.18.16Z" transform="translate(-131.847 -122.634)" fill="#fff"/><path d="M137.863,128.9l-.178.16Z" transform="translate(-131.888 -122.634)" fill="#fff"/><path d="M138.023,128.9l-.178.16Z" transform="translate(-131.93 -122.634)" fill="#fff"/><path d="M137.845,128.9l.178.16Z" transform="translate(-131.93 -122.634)" fill="#fff"/><path d="M137.685,128.9l.178.16Z" transform="translate(-131.888 -122.634)" fill="#fff"/><path d="M137.523,128.9l.179.16Z" transform="translate(-131.847 -122.634)" fill="#fff"/><path d="M137.362,128.9l.18.16Z" transform="translate(-131.805 -122.634)" fill="#fff"/><path d="M137.2,128.9l.178.16Z" transform="translate(-131.764 -122.634)" fill="#fff"/><path d="M137.042,128.9l.178.16Z" transform="translate(-131.722 -122.634)" fill="#fff"/><path d="M136.882,128.9l.178.16Z" transform="translate(-131.681 -122.634)" fill="#fff"/><path d="M136.722,128.9l.178.16Z" transform="translate(-131.64 -122.634)" fill="#fff"/><path d="M136.561,128.9l.178.16Z" transform="translate(-131.598 -122.634)" fill="#fff"/><path d="M136.4,128.9l.178.16Z" transform="translate(-131.557 -122.634)" fill="#fff"/><path d="M136.241,128.9l.178.16Z" transform="translate(-131.516 -122.634)" fill="#fff"/><path d="M136.079,128.9l.18.16Z" transform="translate(-131.474 -122.634)" fill="#fff"/><path d="M136.722,128.9l.178.16Z" transform="translate(-131.64 -122.634)" fill="#fff"/><path d="M135.919,128.9l.18.16Z" transform="translate(-131.433 -122.634)" fill="#fff"/><path d="M135.759,128.9l.178.16Z" transform="translate(-131.391 -122.634)" fill="#fff"/><path d="M135.6,128.9l.178.16Z" transform="translate(-131.35 -122.634)" fill="#fff"/><path d="M135.439,128.9l.177.16Z" transform="translate(-131.309 -122.634)" fill="#fff"/><path d="M135.617,130.114l-.178.159Z" transform="translate(-131.309 -122.948)" fill="#fff"/><path d="M135.777,130.114l-.178.159Z" transform="translate(-131.35 -122.948)" fill="#fff"/><path d="M135.937,130.114l-.178.159Z" transform="translate(-131.391 -122.948)" fill="#fff"/><path d="M136.1,130.114l-.18.159Z" transform="translate(-131.433 -122.948)" fill="#fff"/><path d="M136.259,130.114l-.18.159Z" transform="translate(-131.474 -122.948)" fill="#fff"/><path d="M136.419,130.114l-.178.159Z" transform="translate(-131.516 -122.948)" fill="#fff"/><path d="M136.58,130.114l-.178.159Z" transform="translate(-131.557 -122.948)" fill="#fff"/><path d="M136.74,130.114l-.178.159Z" transform="translate(-131.599 -122.948)" fill="#fff"/><path d="M136.9,130.114l-.178.159Z" transform="translate(-131.64 -122.948)" fill="#fff"/><path d="M137.06,130.114l-.178.159Z" transform="translate(-131.681 -122.948)" fill="#fff"/><path d="M137.22,130.114l-.178.159Z" transform="translate(-131.722 -122.948)" fill="#fff"/><path d="M137.38,130.114l-.178.159Z" transform="translate(-131.764 -122.948)" fill="#fff"/><path d="M136.74,130.114l-.178.159Z" transform="translate(-131.599 -122.948)" fill="#fff"/><path d="M137.543,130.114l-.18.159Z" transform="translate(-131.805 -122.948)" fill="#fff"/><path d="M137.7,130.114l-.18.159Z" transform="translate(-131.847 -122.948)" fill="#fff"/><path d="M137.863,130.114l-.178.159Z" transform="translate(-131.888 -122.948)" fill="#fff"/><path d="M138.023,130.114l-.178.159Z" transform="translate(-131.93 -122.948)" fill="#fff"/><path d="M137.845,130.114l.178.159Z" transform="translate(-131.93 -122.948)" fill="#fff"/><path d="M137.685,130.114l.178.159Z" transform="translate(-131.888 -122.948)" fill="#fff"/><path d="M137.523,130.114l.179.159Z" transform="translate(-131.847 -122.948)" fill="#fff"/><path d="M137.362,130.114l.18.159Z" transform="translate(-131.805 -122.948)" fill="#fff"/><path d="M137.2,130.114l.178.159Z" transform="translate(-131.764 -122.948)" fill="#fff"/><path d="M137.042,130.114l.178.159Z" transform="translate(-131.722 -122.948)" fill="#fff"/><path d="M136.882,130.114l.178.159Z" transform="translate(-131.681 -122.948)" fill="#fff"/><path d="M136.722,130.114l.178.159Z" transform="translate(-131.64 -122.948)" fill="#fff"/><path d="M136.561,130.114l.178.159Z" transform="translate(-131.598 -122.948)" fill="#fff"/><path d="M136.4,130.114l.178.159Z" transform="translate(-131.557 -122.948)" fill="#fff"/><path d="M136.241,130.114l.178.159Z" transform="translate(-131.516 -122.948)" fill="#fff"/><path d="M136.079,130.114l.18.159Z" transform="translate(-131.474 -122.948)" fill="#fff"/><path d="M136.722,130.114l.178.159Z" transform="translate(-131.64 -122.948)" fill="#fff"/><path d="M135.919,130.114l.18.159Z" transform="translate(-131.433 -122.948)" fill="#fff"/><path d="M135.759,130.114l.178.159Z" transform="translate(-131.391 -122.948)" fill="#fff"/><path d="M135.6,130.114l.178.159Z" transform="translate(-131.35 -122.948)" fill="#fff"/><path d="M135.439,130.114l.177.159Z" transform="translate(-131.309 -122.948)" fill="#fff"/><path d="M138.822,131.073c-2.887,2.824-4.118,3.18-3.54,3.408s2.437-1.229,4.371-3.165,3.118-3.658,2.54-3.885-.3.64-3.372,3.642" transform="translate(-131.232 -122.247)" fill="#fff"/><path d="M135.415,134.513h0a.393.393,0,0,1-.144-.024c-.094-.037-.14-.077-.148-.129-.019-.128.211-.309.714-.706a33.853,33.853,0,0,0,2.968-2.6,19.064,19.064,0,0,0,2.71-3.164c.317-.464.389-.6.677-.482a.234.234,0,0,1,.15.179c.108.519-.971,2.017-2.684,3.731-1.968,1.969-3.594,3.192-4.245,3.192m6.623-7.108c-.153,0-.254.148-.5.5a19.149,19.149,0,0,1-2.715,3.169,34.01,34.01,0,0,1-2.971,2.6c-.464.365-.72.566-.7.677.006.039.047.073.128.105a.363.363,0,0,0,.133.022c.643,0,2.261-1.22,4.223-3.184,1.706-1.706,2.781-3.195,2.676-3.7a.2.2,0,0,0-.131-.157.4.4,0,0,0-.145-.033" transform="translate(-131.227 -122.24)" fill="#dc1f34"/><path d="M136.35,135.119l1.011.265c-.952.9-2.022,1.272-2.32,1.114s.536-.53,1.309-1.378" transform="translate(-131.19 -124.24)" fill="#fff"/><path d="M135.22,136.544a.413.413,0,0,1-.19-.037.111.111,0,0,1-.069-.087c-.01-.1.169-.249.441-.467a8.012,8.012,0,0,0,.933-.848l1.027.26a3.8,3.8,0,0,1-2.141,1.179m1.122-1.415a7.106,7.106,0,0,1-.921.847c-.254.2-.438.353-.43.441,0,.024.02.044.053.062.293.155,1.386-.243,2.3-1.111Z" transform="translate(-131.185 -124.236)" fill="#dc1f34"/><path d="M136.377,135.261l.833.212a2.882,2.882,0,0,1-2.081,1.008c-.239-.107.494-.4,1.248-1.22" transform="translate(-131.217 -124.276)" fill="#fff"/><path d="M135.265,136.516a.364.364,0,0,1-.147-.024l-.055-.06c-.008-.072.115-.166.34-.338a7.137,7.137,0,0,0,.958-.847l.848.208a3.361,3.361,0,0,1-1.944,1.06m1.1-1.243a6.528,6.528,0,0,1-.947.846c-.194.148-.335.256-.328.311a.256.256,0,0,0,.171.057,3.438,3.438,0,0,0,1.93-1.027Z" transform="translate(-131.212 -124.273)" fill="#dc1f34"/><path d="M140.489,132.545c.027-.093.022-.125.013-.144l.022.03.007-.042.016.074c.085.04.108.039.135.029a.317.317,0,0,0,.07-.038l.065-.048a.262.262,0,0,0,.032-.122c.007-.027.013-.087.015-.1l.03,0c0,.013-.008.075-.014.1a.5.5,0,0,1-.007.084l-.047.064a.1.1,0,0,1-.058.046.335.335,0,0,1-.074.039.159.159,0,0,1-.1.008l-.056-.041Z" transform="translate(-132.612 -123.482)" fill="#dc1f34"/><path d="M139.989,132.949l-.046-.005a.084.084,0,0,1-.048,0l0-.01-.068,0,.042-.03.038.01.064-.1a.114.114,0,0,1,.045-.053l.078-.047a.339.339,0,0,1,.1-.015h.1a.445.445,0,0,1,.1.028l.024.046-.011-.008a.47.47,0,0,0-.118-.036h-.1a.32.32,0,0,0-.092.013l-.179.179.024.005v0a.1.1,0,0,1,.037.023" transform="translate(-132.443 -123.614)" fill="#dc1f34"/><path d="M139.516,133.656l.041-.062a.171.171,0,0,1-.045-.062l-.032-.069.045-.073.177-.091.056-.056v.048l-.093.045.01.012-.154.1,0,0,.068.144h0Z" transform="translate(-132.352 -123.755)" fill="#dc1f34"/><path d="M138.959,134.164a.075.075,0,0,1-.07-.065l-.016-.082a.267.267,0,0,1,.016-.091l.05-.062.172-.091h.1l.115.033-.007.03c-.019,0-.084-.024-.113-.033l-.18.011.01.011a.221.221,0,0,1-.071.049l-.065.058.014.005a.242.242,0,0,0-.013.08v.078l.015,0a.181.181,0,0,0,.042.073" transform="translate(-132.195 -123.892)" fill="#dc1f34"/><path d="M138.511,134.649l-.05-.03.154-.038.073-.076-.005-.073,0-.056,0-.007h0v-.005l-.039-.039.035.042-.029-.019-.043-.076.118.165.027,0,.024.023.1-.048-.027.039-.07.025-.069-.039-.011.076Z" transform="translate(-132.089 -124.021)" fill="#dc1f34"/><path d="M137.762,135.143l-.016-.033a.31.31,0,0,0-.007-.086l-.031-.159.128.132.093.041a1.162,1.162,0,0,0,.155-.007l.055-.05a.284.284,0,0,0,.016-.145l-.058-.121.032.021.056.094a.376.376,0,0,1,.007.093l-.027.071-.072.065a.473.473,0,0,1-.093.008.137.137,0,0,1-.085,0,.2.2,0,0,1-.072-.027l-.124-.1.033.081.015,0a.28.28,0,0,1,.008.083Z" transform="translate(-131.895 -124.135)" fill="#dc1f34"/><path d="M135.673,136.347a.333.333,0,0,1-.11-.014c.027-.024.065-.013.111-.01.059-.014.085-.02.1-.042a.068.068,0,0,0,0-.078.14.14,0,0,1-.012-.122.184.184,0,0,1,.069-.1c.02-.022.054-.022.093-.022a.4.4,0,0,1,.156.059l.076.068.007-.013a.176.176,0,0,0,.082.024c-.02.03-.056.025-.1,0l-.085-.056a.43.43,0,0,0-.122-.054h0l-.093.015a.148.148,0,0,0-.056.085c-.01.047-.011.073.007.1a.1.1,0,0,1,0,.11.154.154,0,0,1-.1.049h-.027m.924-.378a.4.4,0,0,1-.047-.125.2.2,0,0,0-.028-.1.233.233,0,0,0-.069-.063l-.013-.012.026.045a.181.181,0,0,1-.12.045.12.12,0,0,1-.107-.053l-.066.18.05-.168.04-.03c.019.025.03.036.084.042a.167.167,0,0,0,.08-.019c0-.038,0-.05-.036-.066l.013-.027.069.042a.252.252,0,0,1,.073.065.17.17,0,0,1,.03.085.836.836,0,0,0,.036.134c.031-.01.046-.016.074-.027l.027-.07-.015-.012c0-.047,0-.07.036-.1s.054-.022.093-.023a.277.277,0,0,0,.129-.035c-.006-.08-.022-.087-.06-.1a.211.211,0,0,0-.111-.036l-.084.053a.131.131,0,0,1-.125-.022l.015-.056v.01a.08.08,0,0,0,.1.042.154.154,0,0,1,.095-.056.235.235,0,0,1,.119.035.189.189,0,0,1,.1.075l-.03.088a.294.294,0,0,1-.116.038h0l-.1.014c-.026.024-.026.036-.025.08l-.031.11a.213.213,0,0,1-.1.02" transform="translate(-131.341 -124.34)" fill="#dc1f34"/><path d="M144.25,127.456c1.281-2.211,2.13-4.093,1.9-4.2s-1.462,1.6-2.744,3.812Z" transform="translate(-133.364 -121.176)" fill="#fff"/><path d="M144.253,127.47l-.858-.395c1.235-2.166,2.436-3.845,2.726-3.845l.069.055c.1.311-.732,2.1-1.929,4.173Zm1.9-4.176c-.33,0-1.532,1.7-2.737,3.775l.827.363c1.171-2.023,2.014-3.839,1.919-4.138h-.01" transform="translate(-133.362 -121.171)" fill="#dc1f34"/><path d="M144.194,127.466c1.236-2.133,2.087-3.934,1.9-4.02s-1.342,1.576-2.578,3.709Z" transform="translate(-133.394 -121.226)" fill="#fff"/><path d="M144.211,127.468l-.026-.016a16.39,16.39,0,0,0,1.92-3.981c-.182-.084-1.237,1.384-2.571,3.685,1.078-1.921,2.347-3.839,2.571-3.73.109.29-.718,2.012-1.894,4.042" transform="translate(-133.398 -121.221)" fill="#dc1f34"/><path d="M143.982,127.367c-.151.249-.31.534-.465.8l.677.312c.155-.266.323-.548.464-.8Z" transform="translate(-133.394 -122.239)" fill="#fff"/><path d="M144.2,128.5l-.689-.318.153-.3c.1-.18.206-.36.306-.524l.694.3c-.093.2-.208.4-.322.592Zm-.224-1.118c-.08.158-.183.338-.286.518l-.16.277.657.285.128-.219c.113-.194.228-.39.328-.571Z" transform="translate(-133.391 -122.236)" fill="#dc1f34"/><path d="M144.077,127.482c-.151.249-.255.441-.41.707l.509.234c.154-.267.268-.453.409-.707Z" transform="translate(-133.432 -122.269)" fill="#fff"/><path d="M144.179,128.439l-.521-.239.148-.291c.083-.145.16-.28.256-.438l.526.228a4.458,4.458,0,0,1-.241.454Zm-.111-.946c-.076.152-.153.286-.236.432l-.155.269.489.206.154-.263c.083-.142.161-.274.249-.432Z" transform="translate(-133.43 -122.266)" fill="#dc1f34"/><path d="M144.494,127.818l-.338-.156-.3.519.338.155Z" transform="translate(-133.481 -122.315)" fill="#fff"/><path d="M144.2,128.352l-.349-.161.293-.54.357.15Zm-.05-.68-.28.513.318.128.294-.507Z" transform="translate(-133.479 -122.312)" fill="#dc1f34"/><path d="M144.494,127.872l-.637.363Z" transform="translate(-133.481 -122.369)" fill="#fff"/><path d="M143.867,128.243l.622-.389.015.026Z" transform="translate(-133.484 -122.365)" fill="#dc1f34"/><path d="M144.3,128.336l-.038-.674Z" transform="translate(-133.585 -122.315)" fill="#fff"/><path d="M144.278,128.337l-.038-.674.068.672Z" transform="translate(-133.58 -122.315)" fill="#dc1f34"/><path d="M146.659,124.26l-.338-.155Z" transform="translate(-134.117 -121.397)" fill="#fff"/><path d="M146.651,124.279l-.338-.155.35.128Z" transform="translate(-134.115 -121.402)" fill="#dc1f34"/><path d="M146.693,123.759a.093.093,0,0,0-.074.108.1.1,0,0,0,.118.06.094.094,0,0,0,.073-.108.1.1,0,0,0-.117-.06" transform="translate(-134.194 -121.307)" fill="#db001e"/><path d="M142.646,131c2.887,2.823,4.118,3.181,3.54,3.408s-2.436-1.229-4.37-3.165-3.12-3.658-2.542-3.885.3.64,3.372,3.642" transform="translate(-132.261 -122.228)" fill="#fff"/><path d="M146.043,134.442c-.649,0-2.275-1.223-4.243-3.192-1.715-1.715-2.793-3.215-2.686-3.732a.233.233,0,0,1,.149-.179c.289-.116.362.018.678.482a19.061,19.061,0,0,0,2.709,3.163,34.09,34.09,0,0,0,2.967,2.6c.5.4.735.579.716.708-.007.052-.053.092-.148.129a.389.389,0,0,1-.143.024m-6.623-7.108a.4.4,0,0,0-.145.033.2.2,0,0,0-.131.157c-.105.507.97,2,2.678,3.7,2.116,2.117,3.833,3.369,4.354,3.161.082-.033.123-.066.129-.105.016-.111-.24-.313-.7-.68a34.22,34.22,0,0,1-2.969-2.6,19.145,19.145,0,0,1-2.714-3.168c-.243-.357-.343-.5-.5-.5" transform="translate(-132.255 -122.221)" fill="#dc1f34"/><path d="M146.793,135.047l-1.011.265c.952.9,2.022,1.274,2.32,1.114s-.535-.53-1.309-1.379" transform="translate(-133.978 -124.221)" fill="#fff"/><path d="M147.915,136.472a3.912,3.912,0,0,1-2.147-1.155l1.018-.29a9.045,9.045,0,0,0,.948.852c.272.219.451.364.441.468a.112.112,0,0,1-.069.087.416.416,0,0,1-.191.038m-1.137-1.421-1,.269a4.007,4.007,0,0,0,2.133,1.121.381.381,0,0,0,.176-.034c.034-.019.052-.039.054-.063.008-.088-.176-.237-.43-.442a8,8,0,0,1-.936-.851" transform="translate(-133.975 -124.216)" fill="#dc1f34"/><path d="M146.855,135.19l-.833.212a2.88,2.88,0,0,0,2.083,1.008c.239-.106-.5-.4-1.249-1.22" transform="translate(-134.04 -124.258)" fill="#fff"/><path d="M147.959,136.443a3.47,3.47,0,0,1-1.951-1.035l.84-.237a7.792,7.792,0,0,0,.975.852c.224.171.347.265.339.337v.009l-.053.05a.367.367,0,0,1-.148.025M146.84,135.2l-.818.217a2.937,2.937,0,0,0,2.072.979c.044-.089-.1-.2-.289-.344a7.172,7.172,0,0,1-.964-.851" transform="translate(-134.036 -124.253)" fill="#dc1f34"/><path d="M143.337,132.461l-.043-.045-.05.039a.164.164,0,0,1-.1-.005.378.378,0,0,1-.078-.042.117.117,0,0,1-.062-.048l-.042-.078-.015-.132.025-.039.022.168.092.105a.293.293,0,0,0,.07.037.147.147,0,0,0,.08.006l.055-.024a.355.355,0,0,1,.015-.083l.015.079-.006,0Z" transform="translate(-133.246 -123.463)" fill="#dc1f34"/><path d="M143.855,132.841l-.2-.189,0,.014a.369.369,0,0,0-.092-.012h-.1a.362.362,0,0,0-.091.024l-.053,0,.007-.007a.469.469,0,0,1,.134-.043h.106a.345.345,0,0,1,.1.013l.07.061.007-.013Z" transform="translate(-133.341 -123.596)" fill="#dc1f34"/><path d="M144.317,133.552l-.109-.021.1-.194-.033-.022a.833.833,0,0,1-.134-.066l-.07-.042-.039-.075a.353.353,0,0,1-.149.01l-.013-.032h.017a.266.266,0,0,0,.088,0l.08-.05.027.109.242.162c.009.065,0,.088-.023.107l-.051.07Z" transform="translate(-133.483 -123.708)" fill="#dc1f34"/><path d="M144.879,134.113a.206.206,0,0,1,.018-.093l.013-.074a.22.22,0,0,0-.013-.079l-.045-.077-.006.013a.234.234,0,0,1-.07-.048l-.072-.038v.015h-.1c-.024.01-.089.028-.108.033l-.006-.03c.019,0,.081-.023.11-.033h.108l.093.031a.178.178,0,0,0,.061.043.44.44,0,0,1,.067.079.263.263,0,0,1,.016.092l-.015.083a.224.224,0,0,1-.047.085" transform="translate(-133.644 -123.873)" fill="#dc1f34"/><path d="M145.4,134.576l-.116-.009-.09-.079-.048-.115-.032.029-.033-.006.105-.143-.008.043.005-.005,0,.03,0,.006-.022.047.028.068.1.114.059.005.223-.083.031.042-.05-.018v0Z" transform="translate(-133.798 -124.016)" fill="#dc1f34"/><path d="M146.072,135.12l-.043-.076a.287.287,0,0,1,.007-.095l.04-.066-.01,0-.185.107.007.013a.149.149,0,0,1-.09,0,.528.528,0,0,1-.082-.006l-.1-.134a.365.365,0,0,1,.006-.1l.033-.08.059-.019-.065.063v.042l-.006.074.024.076c.08.049.1.052.137.052h.076l.139-.05.078-.122,0,.03.016-.023.014.006-.059.146-.021.086.015,0Z" transform="translate(-133.934 -124.122)" fill="#dc1f34"/><path d="M147.8,136.281c-.07-.016-.1-.023-.128-.053a.1.1,0,0,1,0-.11c.022-.028.019-.054.009-.1a.146.146,0,0,0-.056-.084l-.074-.017a.337.337,0,0,0-.139.055l-.085.056a.273.273,0,0,1-.143.03l.1-.2.006-.076-.043-.045-.034-.108c0,.04-.015.056-.078.06a.173.173,0,0,1-.093-.021.238.238,0,0,1-.01-.059.264.264,0,0,0-.073.066l-.03.1a1.159,1.159,0,0,1-.03.114.166.166,0,0,1-.116-.01l-.03-.1c0-.053,0-.066-.027-.092s-.036-.016-.074-.015a.3.3,0,0,1-.144-.039l-.027-.084a.169.169,0,0,1,.093-.073.234.234,0,0,1,.119-.039.127.127,0,0,1,.083.042c.05.024.091.018.106,0l.037-.036v.009a.113.113,0,0,1-.135.071l-.09-.071v.015a.2.2,0,0,0-.1.033.148.148,0,0,0-.085.064.155.155,0,0,0,.125.079c.056,0,.09,0,.114.023a.115.115,0,0,1,.036.107l.005.092.006-.014a.186.186,0,0,0,.09.016.367.367,0,0,1,.016-.1.237.237,0,0,1,.036-.11.285.285,0,0,1,.077-.069l.038-.022a.1.1,0,0,1,.026-.016h0l.025-.009-.056.108a.545.545,0,0,0,.09.01c.053,0,.063-.015.082-.04l.016-.021.079.276-.024.091a.126.126,0,0,1-.028.059.589.589,0,0,0,.059-.026l.091-.043-.008-.013a.423.423,0,0,1,.131-.059c.062,0,.1,0,.119.024a.176.176,0,0,1,.065.1.139.139,0,0,1-.013.126.064.064,0,0,0,0,.077c.016.019.042.024.082.033a.36.36,0,0,0,.119-.013.108.108,0,0,1-.1.048" transform="translate(-134.157 -124.321)" fill="#dc1f34"/><path d="M138.757,127.384c-1.281-2.211-2.132-4.094-1.9-4.2s1.464,1.6,2.745,3.811Z" transform="translate(-131.665 -121.158)" fill="#fff"/><path d="M138.746,127.4l-.007-.012c-1.2-2.069-2.029-3.863-1.93-4.173l.069-.055c.292,0,1.492,1.68,2.734,3.823Zm-1.869-4.21c-.134.33.709,2.146,1.881,4.171l.834-.384c-1.223-2.079-2.438-3.787-2.715-3.787" transform="translate(-131.66 -121.153)" fill="#dc1f34"/><path d="M138.874,127.4c-1.236-2.133-2.087-3.934-1.9-4.02s1.341,1.576,2.577,3.709Z" transform="translate(-131.698 -121.208)" fill="#fff"/><path d="M138.856,127.409a15.744,15.744,0,0,1-1.922-4.006.059.059,0,0,1,.041-.006,15.4,15.4,0,0,0,1.907,4Zm.7-.326a25.365,25.365,0,0,0-2.407-3.574,21.634,21.634,0,0,1,2.407,3.574" transform="translate(-131.693 -121.214)" fill="#dc1f34"/><path d="M139.6,127.295c.151.249.31.535.464.8l-.677.312c-.154-.266-.323-.548-.464-.8Z" transform="translate(-132.207 -122.22)" fill="#fff"/><path d="M139.372,128.422l-.18-.309c-.1-.172-.2-.344-.289-.5l.683-.332c.126.183.238.377.347.57l.136.237Zm.207-1.125-.657.318c.1.139.2.311.3.483l.166.285.663-.306-.142-.216c-.11-.193-.22-.388-.327-.564" transform="translate(-132.202 -122.215)" fill="#dc1f34"/><path d="M139.576,127.411c.151.25.255.441.41.707l-.507.234c-.155-.267-.268-.453-.41-.707Z" transform="translate(-132.246 -122.25)" fill="#fff"/><path d="M139.468,128.366l-.15-.256c-.09-.154-.172-.293-.267-.463l.514-.254a5.121,5.121,0,0,1,.274.443l.156.27Zm.091-.952-.488.24c.1.148.184.288.274.441l.137.232.495-.227-.162-.249c-.082-.145-.16-.279-.254-.436" transform="translate(-132.241 -122.246)" fill="#dc1f34"/><path d="M139.257,127.746l.339-.156.3.518-.339.157Z" transform="translate(-132.294 -122.297)" fill="#fff"/><path d="M139.546,128.28l-.307-.53.346-.177.319.525Zm.032-.686-.32.162.3.486.327-.151Z" transform="translate(-132.289 -122.292)" fill="#dc1f34"/><path d="M139.257,127.8l.639.362Z" transform="translate(-132.294 -122.351)" fill="#fff"/><path d="M139.9,128.145l-.654-.336.016-.026Z" transform="translate(-132.291 -122.346)" fill="#dc1f34"/><path d="M139.661,128.265l.039-.674Z" transform="translate(-132.398 -122.297)" fill="#fff"/><path d="M137.2,124.19l.339-.157Z" transform="translate(-131.762 -121.378)" fill="#fff"/><path d="M137.213,123.687a.087.087,0,1,1-.044.168.092.092,0,0,1-.073-.108.094.094,0,0,1,.117-.06" transform="translate(-131.736 -121.288)" fill="#db001e"/><path d="M137.192,123.868l-.031,0a.12.12,0,0,1-.085-.125.1.1,0,0,1,.1-.075c.091.019.129.076.116.13a.107.107,0,0,1-.1.075" transform="translate(-131.731 -121.283)" fill="#dc1f34"/><path d="M139.466,127.326c0,1.856.01,2.556-.126,2.652s-3.741,0-3.741.53,2.975,1.061,3.868,1.061q1.785,0,1.784-1.591v-2.652Z" transform="translate(-131.35 -122.228)" fill="#fff"/><path d="M139.46,131.578c-.87,0-3.882-.521-3.882-1.076,0-.385,1.737-.446,2.885-.485a5.52,5.52,0,0,0,.862-.057c.121-.085.121-.727.12-2.279v-.361l1.8-.016.015,2.667c0,1.066-.605,1.606-1.8,1.606m1.769-4.258-1.769.016.016.345c0,1.608,0,2.21-.133,2.3a4.349,4.349,0,0,1-.878.062c-1.068.037-2.856.1-2.856.456,0,.5,2.888,1.045,3.852,1.045,1.174,0,1.769-.53,1.769-1.576Z" transform="translate(-131.345 -122.223)" fill="#dc1f34"/><path d="M140.811,128.041v.265a5.988,5.988,0,0,0,1.784,0v-.265a6.038,6.038,0,0,1-1.784,0" transform="translate(-132.695 -122.413)" fill="#fff"/><path d="M141.7,128.382a6.034,6.034,0,0,1-.894-.067l-.013-.28a7.414,7.414,0,0,0,1.8-.015l.018.28a4.781,4.781,0,0,1-.907.082m-.894-.332.017.25a7.12,7.12,0,0,0,1.767-.015l-.013-.25a5.1,5.1,0,0,1-1.771.015" transform="translate(-132.69 -122.408)" fill="#dc1f34"/><path d="M140.811,127.326v.265a5.988,5.988,0,0,0,1.784,0v-.265a6.038,6.038,0,0,1-1.784,0" transform="translate(-132.695 -122.228)" fill="#fff"/><path d="M141.7,127.667a6.037,6.037,0,0,1-.894-.067l-.013-.28a7.413,7.413,0,0,0,1.8-.015l.018.28a4.781,4.781,0,0,1-.907.082m-.894-.332.017.25a7.119,7.119,0,0,0,1.767-.015l-.013-.25a5.1,5.1,0,0,1-1.771.015" transform="translate(-132.69 -122.223)" fill="#dc1f34"/><path d="M140.811,127.683v.265a5.988,5.988,0,0,0,1.784,0v-.265a6.038,6.038,0,0,1-1.784,0" transform="translate(-132.695 -122.32)" fill="#fff"/><path d="M141.7,128.024a6.034,6.034,0,0,1-.894-.067l-.013-.28a7.414,7.414,0,0,0,1.8-.015l.018.28a4.781,4.781,0,0,1-.907.082m-.894-.332.017.25a7.119,7.119,0,0,0,1.767-.015l-.013-.25a5.1,5.1,0,0,1-1.771.015" transform="translate(-132.69 -122.315)" fill="#dc1f34"/><path d="M140.811,128.4v.265a5.989,5.989,0,0,0,1.784,0V128.4a6.038,6.038,0,0,1-1.784,0" transform="translate(-132.695 -122.505)" fill="#fff"/><path d="M141.7,128.739a6.034,6.034,0,0,1-.894-.067l-.013-.28a7.414,7.414,0,0,0,1.8-.015l.018.28a4.781,4.781,0,0,1-.907.082m-.894-.332.017.25a7.12,7.12,0,0,0,1.767-.015l-.013-.25a5.1,5.1,0,0,1-1.771.015" transform="translate(-132.69 -122.5)" fill="#dc1f34"/><path d="M140.893,127.809c.045,0,.081.025.081.057s-.036.057-.081.057-.081-.025-.081-.057.036-.057.081-.057" transform="translate(-132.695 -122.353)" fill="#fff"/><path d="M141.33,127.847c.045,0,.081.026.081.057s-.036.057-.081.057-.081-.025-.081-.057.036-.057.081-.057" transform="translate(-132.808 -122.363)" fill="#fff"/><path d="M141.768,127.886c.044,0,.081.025.081.057s-.037.057-.081.057-.081-.026-.081-.057.036-.057.081-.057" transform="translate(-132.921 -122.373)" fill="#fff"/><path d="M142.2,127.886c.044,0,.081.025.081.057s-.037.057-.081.057-.081-.026-.081-.057.036-.057.081-.057" transform="translate(-133.034 -122.373)" fill="#fff"/><path d="M142.641,127.847c.045,0,.081.026.081.057s-.036.057-.081.057-.081-.025-.081-.057.037-.057.081-.057" transform="translate(-133.147 -122.363)" fill="#fff"/><path d="M143.078,127.809c.045,0,.081.025.081.057s-.036.057-.081.057-.081-.025-.081-.057.036-.057.081-.057" transform="translate(-133.259 -122.353)" fill="#fff"/><path d="M140.811,129.113l1.784,1.433Z" transform="translate(-132.695 -122.69)" fill="#fff"/><path d="M142.6,130.529l-1.8-1.408.019-.025Z" transform="translate(-132.692 -122.685)" fill="#dc1f34"/><path d="M141.052,129.113l1.605,1.273Z" transform="translate(-132.757 -122.69)" fill="#fff"/><path d="M142.664,130.37l-1.624-1.249.019-.024Z" transform="translate(-132.754 -122.685)" fill="#dc1f34"/><path d="M141.372,129.184l1.368,1.062Z" transform="translate(-132.84 -122.708)" fill="#fff"/><path d="M142.746,130.229l-1.387-1.037.019-.025Z" transform="translate(-132.837 -122.704)" fill="#dc1f34"/><path d="M141.612,129.184l1.19.9Z" transform="translate(-132.902 -122.708)" fill="#fff"/><path d="M142.808,130.07l-1.208-.878.018-.024Z" transform="translate(-132.899 -122.704)" fill="#dc1f34"/><path d="M141.852,129.184l1.011.743Z" transform="translate(-132.964 -122.708)" fill="#fff"/><path d="M142.87,129.91l-1.03-.718.019-.024Z" transform="translate(-132.961 -122.704)" fill="#dc1f34"/><path d="M142.1,129.184l.832.583Z" transform="translate(-133.027 -122.708)" fill="#fff"/><path d="M142.932,129.751l-.85-.559.018-.024Z" transform="translate(-133.023 -122.704)" fill="#dc1f34"/><path d="M142.335,129.184l.654.424Z" transform="translate(-133.089 -122.708)" fill="#fff"/><path d="M142.994,129.592l-.67-.4.016-.025Z" transform="translate(-133.086 -122.704)" fill="#dc1f34"/><path d="M142.575,129.184l.476.318Z" transform="translate(-133.15 -122.708)" fill="#fff"/><path d="M142.815,129.184l.3.212Z" transform="translate(-133.212 -122.708)" fill="#fff"/><path d="M143.056,129.184l.119.107Z" transform="translate(-133.275 -122.708)" fill="#fff"/><path d="M140.811,129.328l1.784,1.432Z" transform="translate(-132.695 -122.745)" fill="#fff"/><path d="M142.6,130.743l-1.8-1.407.019-.025Z" transform="translate(-132.692 -122.741)" fill="#dc1f34"/><path d="M142.533,129.113l-1.962,1.591Z" transform="translate(-132.633 -122.69)" fill="#fff"/><path d="M140.584,130.712l1.943-1.614.019.023Z" transform="translate(-132.637 -122.685)" fill="#dc1f34"/><path d="M142.376,129.113l-1.724,1.379Z" transform="translate(-132.654 -122.69)" fill="#fff"/><path d="M140.664,130.5l1.706-1.4.019.025Z" transform="translate(-132.657 -122.685)" fill="#dc1f34"/><path d="M142.179,129.184l-1.368,1.062Z" transform="translate(-132.695 -122.708)" fill="#fff"/><path d="M140.824,130.254l1.349-1.085.019.024Z" transform="translate(-132.699 -122.704)" fill="#dc1f34"/><path d="M142,129.184l-1.19.9Z" transform="translate(-132.695 -122.708)" fill="#fff"/><path d="M140.824,130.094l1.171-.926.019.024Z" transform="translate(-132.698 -122.704)" fill="#dc1f34"/><path d="M141.823,129.184l-1.011.743Z" transform="translate(-132.695 -122.708)" fill="#fff"/><path d="M140.824,129.935l.993-.767.018.024Z" transform="translate(-132.698 -122.704)" fill="#dc1f34"/><path d="M141.644,129.184l-.832.583Z" transform="translate(-132.695 -122.708)" fill="#fff"/><path d="M140.823,129.776l.815-.608.017.024Z" transform="translate(-132.698 -122.704)" fill="#dc1f34"/><path d="M141.465,129.184l-.654.424Z" transform="translate(-132.695 -122.708)" fill="#fff"/><path d="M140.823,129.617l.637-.45.017.025Z" transform="translate(-132.698 -122.704)" fill="#dc1f34"/><path d="M141.287,129.184l-.476.318Z" transform="translate(-132.695 -122.708)" fill="#fff"/><path d="M141.109,129.184l-.3.212Z" transform="translate(-132.695 -122.708)" fill="#fff"/><path d="M140.931,129.184l-.119.107Z" transform="translate(-132.695 -122.708)" fill="#fff"/><path d="M142.533,129.328l-1.962,1.591Z" transform="translate(-132.633 -122.745)" fill="#fff"/><path d="M140.584,130.926l1.943-1.614.019.023Z" transform="translate(-132.637 -122.741)" fill="#dc1f34"/><path d="M142.533,129.542l-1.962,1.592Z" transform="translate(-132.633 -122.8)" fill="#fff"/><path d="M140.584,131.141l1.943-1.615.019.023Z" transform="translate(-132.637 -122.796)" fill="#dc1f34"/><path d="M142.533,129.757l-1.962,1.591Z" transform="translate(-132.633 -122.856)" fill="#fff"/><path d="M140.584,131.355l1.943-1.614.019.023Z" transform="translate(-132.637 -122.852)" fill="#dc1f34"/><path d="M142.533,129.97l-1.962,1.592Z" transform="translate(-132.633 -122.911)" fill="#fff"/><path d="M140.584,131.57l1.943-1.615.019.023Z" transform="translate(-132.637 -122.907)" fill="#dc1f34"/><path d="M142.533,130.185l-1.962,1.591Z" transform="translate(-132.633 -122.966)" fill="#fff"/><path d="M140.584,131.784l1.943-1.614.019.023Z" transform="translate(-132.637 -122.962)" fill="#dc1f34"/><path d="M142.533,130.4l-1.962,1.591Z" transform="translate(-132.633 -123.022)" fill="#fff"/><path d="M140.584,132l1.943-1.614.019.023Z" transform="translate(-132.637 -123.018)" fill="#dc1f34"/><path d="M142.533,130.615l-1.962,1.591Z" transform="translate(-132.633 -123.077)" fill="#fff"/><path d="M140.584,132.214l1.943-1.614.019.023Z" transform="translate(-132.637 -123.073)" fill="#dc1f34"/><path d="M142.533,130.829l-1.962,1.591Z" transform="translate(-132.633 -123.132)" fill="#fff"/><path d="M140.584,132.427l1.943-1.614.019.023Z" transform="translate(-132.637 -123.128)" fill="#dc1f34"/><path d="M142.575,131.043l-1.843,1.485Z" transform="translate(-132.675 -123.188)" fill="#fff"/><path d="M140.744,132.536l1.824-1.508.019.023Z" transform="translate(-132.678 -123.184)" fill="#dc1f34"/><path d="M142.637,131.258l-1.665,1.326Z" transform="translate(-132.737 -123.243)" fill="#fff"/><path d="M140.984,132.591l1.646-1.35.019.024Z" transform="translate(-132.74 -123.239)" fill="#dc1f34"/><path d="M142.681,131.544l-1.309,1.061Z" transform="translate(-132.84 -123.317)" fill="#fff"/><path d="M141.385,132.612l1.289-1.084.019.023Z" transform="translate(-132.843 -123.313)" fill="#dc1f34"/><path d="M142.684,131.83l-1.071.849Z" transform="translate(-132.902 -123.391)" fill="#fff"/><path d="M141.625,132.686l1.052-.872.019.024Z" transform="translate(-132.905 -123.386)" fill="#dc1f34"/><path d="M142.709,132.187l-.535.424Z" transform="translate(-133.047 -123.483)" fill="#fff"/><path d="M140.811,129.542l1.724,1.379Z" transform="translate(-132.695 -122.8)" fill="#fff"/><path d="M142.542,130.905,140.8,129.55l.019-.024Z" transform="translate(-132.692 -122.796)" fill="#dc1f34"/><path d="M140.811,129.757l1.724,1.378Z" transform="translate(-132.695 -122.856)" fill="#fff"/><path d="M142.542,131.119l-1.743-1.355.019-.024Z" transform="translate(-132.692 -122.852)" fill="#dc1f34"/><path d="M140.811,129.97l1.665,1.327Z" transform="translate(-132.695 -122.911)" fill="#fff"/><path d="M142.483,131.281l-1.684-1.3.019-.024Z" transform="translate(-132.692 -122.907)" fill="#dc1f34"/><path d="M140.811,130.185l1.665,1.326Z" transform="translate(-132.695 -122.966)" fill="#fff"/><path d="M142.483,131.5l-1.684-1.3.019-.024Z" transform="translate(-132.692 -122.962)" fill="#dc1f34"/><path d="M140.811,130.4l1.606,1.273Z" transform="translate(-132.695 -123.022)" fill="#fff"/><path d="M142.423,131.657l-1.624-1.249.019-.024Z" transform="translate(-132.692 -123.017)" fill="#dc1f34"/><path d="M140.731,130.543l1.606,1.273Z" transform="translate(-132.675 -123.059)" fill="#fff"/><path d="M142.343,131.8l-1.624-1.249.019-.024Z" transform="translate(-132.671 -123.054)" fill="#dc1f34"/><path d="M140.731,130.758l1.487,1.166Z" transform="translate(-132.675 -123.114)" fill="#fff"/><path d="M142.224,131.908l-1.505-1.143.019-.024Z" transform="translate(-132.671 -123.11)" fill="#dc1f34"/><path d="M140.651,130.9l1.487,1.167Z" transform="translate(-132.654 -123.151)" fill="#fff"/><path d="M142.144,132.051l-1.505-1.143.019-.024Z" transform="translate(-132.651 -123.147)" fill="#dc1f34"/><path d="M140.571,131.043,142,132.157Z" transform="translate(-132.633 -123.188)" fill="#fff"/><path d="M142,132.141l-1.446-1.091.019-.024Z" transform="translate(-132.63 -123.183)" fill="#dc1f34"/><path d="M140.571,131.258l1.368,1.061Z" transform="translate(-132.633 -123.243)" fill="#fff"/><path d="M141.945,132.3l-1.387-1.036.019-.025Z" transform="translate(-132.63 -123.239)" fill="#dc1f34"/><path d="M140.571,131.472l1.19.955Z" transform="translate(-132.633 -123.298)" fill="#fff"/><path d="M141.767,132.411l-1.209-.931.019-.024Z" transform="translate(-132.63 -123.294)" fill="#dc1f34"/><path d="M140.811,128.756v.265a5.989,5.989,0,0,0,1.784,0v-.265a6.038,6.038,0,0,1-1.784,0" transform="translate(-132.695 -122.597)" fill="#fff"/><path d="M141.7,129.1a6.039,6.039,0,0,1-.894-.067l-.013-.28a7.412,7.412,0,0,0,1.8-.015l.018.28a4.783,4.783,0,0,1-.907.082m-.894-.332.017.25a7.119,7.119,0,0,0,1.767-.015l-.013-.25a5.1,5.1,0,0,1-1.771.015" transform="translate(-132.69 -122.592)" fill="#dc1f34"/><path d="M140.571,131.687l1.071.849Z" transform="translate(-132.633 -123.354)" fill="#fff"/><path d="M141.648,132.519l-1.09-.824.019-.024Z" transform="translate(-132.63 -123.35)" fill="#dc1f34"/><path d="M140.571,131.9l.95.743Z" transform="translate(-132.633 -123.409)" fill="#fff"/><path d="M141.528,132.628l-.97-.719.019-.024Z" transform="translate(-132.63 -123.405)" fill="#dc1f34"/><path d="M140.571,132.116l.832.636Z" transform="translate(-132.633 -123.465)" fill="#fff"/><path d="M141.409,132.736l-.85-.612.019-.024Z" transform="translate(-132.63 -123.46)" fill="#dc1f34"/><path d="M140.571,132.33l.594.478Z" transform="translate(-132.633 -123.52)" fill="#fff"/><path d="M141.172,132.791l-.613-.453.019-.024Z" transform="translate(-132.63 -123.515)" fill="#dc1f34"/><path d="M140.571,132.545l.476.371Z" transform="translate(-132.633 -123.575)" fill="#fff"/><path d="M140.571,132.76l.3.211Z" transform="translate(-132.633 -123.631)" fill="#fff"/><path d="M140.893,128.882c.045,0,.081.025.081.057s-.036.057-.081.057-.081-.025-.081-.057.036-.057.081-.057" transform="translate(-132.695 -122.63)" fill="#fff"/><path d="M141.33,128.92c.045,0,.081.026.081.058s-.036.056-.081.056-.081-.025-.081-.056.036-.058.081-.058" transform="translate(-132.808 -122.64)" fill="#fff"/><path d="M141.768,128.959c.044,0,.081.025.081.057s-.037.057-.081.057-.081-.025-.081-.057.036-.057.081-.057" transform="translate(-132.921 -122.65)" fill="#fff"/><path d="M142.2,128.959c.044,0,.081.025.081.057s-.037.057-.081.057-.081-.025-.081-.057.036-.057.081-.057" transform="translate(-133.034 -122.65)" fill="#fff"/><path d="M142.641,128.92c.045,0,.081.026.081.058s-.036.056-.081.056-.081-.025-.081-.056.037-.058.081-.058" transform="translate(-133.147 -122.64)" fill="#fff"/><path d="M143.078,128.882c.045,0,.081.025.081.057s-.036.057-.081.057-.081-.025-.081-.057.036-.057.081-.057" transform="translate(-133.259 -122.63)" fill="#fff"/><path d="M137.362,132.086l2.142-1.114Z" transform="translate(-131.805 -123.169)" fill="#fff"/><path d="M137.367,132.095l-.014-.027,2.142-1.114Z" transform="translate(-131.803 -123.165)" fill="#dc1f34"/><path d="M137.2,132.033l2.023-1.061Z" transform="translate(-131.764 -123.169)" fill="#fff"/><path d="M137.206,132.042l-.014-.027,2.023-1.061Z" transform="translate(-131.761 -123.165)" fill="#dc1f34"/><path d="M137.122,131.927l1.844-.954Z" transform="translate(-131.743 -123.17)" fill="#fff"/><path d="M137.126,131.935l-.014-.027,1.845-.954Z" transform="translate(-131.741 -123.165)" fill="#dc1f34"/><path d="M137.042,131.821l1.607-.849Z" transform="translate(-131.722 -123.169)" fill="#fff"/><path d="M137.046,131.829l-.014-.027,1.607-.849Z" transform="translate(-131.72 -123.165)" fill="#dc1f34"/><path d="M136.882,131.714l1.487-.742Z" transform="translate(-131.681 -123.169)" fill="#fff"/><path d="M136.886,131.723l-.014-.027,1.487-.742Z" transform="translate(-131.679 -123.165)" fill="#dc1f34"/><path d="M136.962,131.574l1.011-.531Z" transform="translate(-131.702 -123.188)" fill="#fff"/><path d="M136.966,131.583l-.014-.027,1.012-.531Z" transform="translate(-131.699 -123.183)" fill="#dc1f34"/><path d="M136.882,131.467l.774-.424Z" transform="translate(-131.681 -123.188)" fill="#fff"/><path d="M136.886,131.476l-.015-.027.774-.424Z" transform="translate(-131.678 -123.183)" fill="#dc1f34"/><path d="M136.882,131.309l.536-.265Z" transform="translate(-131.681 -123.188)" fill="#fff"/><path d="M137.6,132.176l2.021-1.061Z" transform="translate(-131.868 -123.206)" fill="#fff"/><path d="M137.609,132.184l-.014-.027,2.022-1.061Z" transform="translate(-131.865 -123.201)" fill="#dc1f34"/><path d="M137.845,132.266l1.9-1.008Z" transform="translate(-131.93 -123.243)" fill="#fff"/><path d="M137.849,132.274l-.015-.027,1.9-1.008Z" transform="translate(-131.927 -123.238)" fill="#dc1f34"/><path d="M138.085,132.355l1.785-.955Z" transform="translate(-131.992 -123.28)" fill="#fff"/><path d="M138.09,132.364l-.015-.027,1.786-.955Z" transform="translate(-131.989 -123.275)" fill="#dc1f34"/><path d="M138.325,132.483l1.487-.8Z" transform="translate(-132.054 -123.354)" fill="#fff"/><path d="M138.33,132.492l-.015-.027,1.487-.8Z" transform="translate(-132.051 -123.349)" fill="#dc1f34"/><path d="M138.645,132.52l1.309-.69Z" transform="translate(-132.136 -123.391)" fill="#fff"/><path d="M138.65,132.528l-.014-.027,1.309-.69Z" transform="translate(-132.134 -123.386)" fill="#dc1f34"/><path d="M138.886,132.628l1.13-.583Z" transform="translate(-132.198 -123.446)" fill="#fff"/><path d="M138.89,132.637l-.014-.027,1.131-.583Z" transform="translate(-132.196 -123.442)" fill="#dc1f34"/><path d="M139.128,132.736l.891-.478Z" transform="translate(-132.261 -123.501)" fill="#fff"/><path d="M139.133,132.745l-.015-.027.892-.478Z" transform="translate(-132.258 -123.497)" fill="#dc1f34"/><path d="M139.448,132.773l.713-.371Z" transform="translate(-132.343 -123.538)" fill="#fff"/><path d="M139.453,132.782l-.014-.027.713-.371Z" transform="translate(-132.341 -123.534)" fill="#dc1f34"/><path d="M139.769,132.881l.476-.265Z" transform="translate(-132.426 -123.594)" fill="#fff"/><path d="M140.089,132.918l.3-.159Z" transform="translate(-132.509 -123.63)" fill="#fff"/><path d="M140.522,130.9h-.3a4.315,4.315,0,0,0,0,1.591h.3a4.252,4.252,0,0,1,0-1.591" transform="translate(-132.524 -123.151)" fill="#fff"/><path d="M140.535,132.5h-.316a4.111,4.111,0,0,1-.015-1.609l.313-.013a4.691,4.691,0,0,0,.015,1.6Zm-.033-1.609-.283.018a4.6,4.6,0,0,0,.015,1.574l.266-.012a4.283,4.283,0,0,1,0-1.58" transform="translate(-132.52 -123.145)" fill="#dc1f34"/><path d="M135.919,131.716l.714-.53Z" transform="translate(-131.433 -123.225)" fill="#fff"/><path d="M135.925,131.725l-.018-.024.714-.53Z" transform="translate(-131.43 -123.22)" fill="#dc1f34"/><path d="M135.919,131.4l.714.636Z" transform="translate(-131.433 -123.28)" fill="#fff"/><path d="M136.64,132.022l-.734-.614.02-.022Z" transform="translate(-131.429 -123.276)" fill="#dc1f34"/><path d="M137.217,131.043l-.356.053a1.927,1.927,0,0,0,0,.955l.356.106a2.686,2.686,0,0,1,0-1.114" transform="translate(-131.66 -123.188)" fill="#fff"/><path d="M137.233,132.173l-.381-.114a1.881,1.881,0,0,1-.01-.973l.369-.065a3.068,3.068,0,0,0,.017,1.126Zm-.036-1.14-.34.072a2.04,2.04,0,0,0,.013.936l.321.088a2.689,2.689,0,0,1,.005-1.1" transform="translate(-131.656 -123.182)" fill="#dc1f34"/><path d="M142.594,127.265V127c-.268,0-.447-.157-.447-.318l-.891,0c0,.159-.178.318-.444.318v.265Z" transform="translate(-132.695 -122.062)" fill="#fff"/><path d="M142.6,127.275h-1.8l-.016-.28c.281-.016.445-.173.445-.318l.907-.018a.342.342,0,0,0,.13.223.511.511,0,0,0,.311.1Zm-.477-.6-.876.017c.016.145-.16.318-.444.318l.015.25,1.752-.015v-.252a.442.442,0,0,1-.32-.088.3.3,0,0,1-.127-.231" transform="translate(-132.69 -122.056)" fill="#dc1f34"/><rect width="0.763" height="0.318" transform="translate(8.625 4.302)" fill="#fff"/><path d="M142.271,126.582h-.779l-.015-.333.779-.016Zm-.03-.333-.749.016.016.3.733-.015Z" transform="translate(-132.867 -121.946)" fill="#dc1f34"/><rect width="0.637" height="0.319" transform="translate(8.689 3.983)" fill="#fff"/><path d="M142.231,126.152h-.653l-.015-.334.653-.016Zm-.03-.334-.622.016.016.3.607-.015Z" transform="translate(-132.889 -121.835)" fill="#dc1f34"/><rect width="0.637" height="0.318" transform="translate(8.689 3.665)" fill="#fff"/><path d="M142.231,125.723h-.653l-.015-.333.653-.016Zm-.03-.333-.622.016.016.3.607-.015Z" transform="translate(-132.889 -121.725)" fill="#dc1f34"/><rect width="0.51" height="0.424" transform="translate(8.752 3.241)" fill="#fff"/><path d="M142.189,125.258h-.525l-.015-.439.525-.016Zm-.03-.439-.495.016.016.408.479-.014Z" transform="translate(-132.911 -121.577)" fill="#dc1f34"/><rect width="0.553" height="0.372" transform="translate(8.731 2.87)" fill="#fff"/><path d="M142.2,124.7h-.569l-.015-.387.569-.016Zm-.03-.387-.539.016.016.356.523-.015Z" transform="translate(-132.904 -121.448)" fill="#dc1f34"/><path d="M141.8,123.179c.407,0,.737.226.737.5s-.33.5-.737.5-.737-.225-.737-.5.33-.5.737-.5" transform="translate(-132.759 -121.158)" fill="#fff"/><path d="M141.792,124.2c-.415,0-.753-.233-.753-.519s.338-.519.753-.519.753.233.753.519-.338.519-.753.519m0-1.007c-.4,0-.723.219-.723.488s.324.488.723.488.723-.219.723-.488-.324-.488-.723-.488" transform="translate(-132.754 -121.153)" fill="#dc1f34"/><path d="M142.231,123.656a.9.9,0,0,0,.184.372,1.049,1.049,0,0,1-.553.159.782.782,0,0,1-.553-.159.9.9,0,0,0,.185-.372c0-.139-.185-.318-.185-.318a1.044,1.044,0,0,1,1.107,0s-.184.18-.184.318" transform="translate(-132.823 -121.158)" fill="#fff"/><path d="M141.857,124.2c-.1,0-.443-.012-.565-.164,0-.022.182-.249.182-.381s-.179-.306-.18-.307a1.046,1.046,0,0,1,1.126-.023c0,.024-.178.2-.178.33a.89.89,0,0,0,.181.362.926.926,0,0,1-.565.183m-.543-.852a.468.468,0,0,1,.19.306.9.9,0,0,1-.188.381c.114.123.444.134.542.134a1.034,1.034,0,0,0,.545-.155.629.629,0,0,1-.191-.36c0-.144.182-.321.189-.329a1.263,1.263,0,0,0-1.087.022Z" transform="translate(-132.819 -121.156)" fill="#dc1f34"/><path d="M142.151,123.656a1.248,1.248,0,0,0,.184.424.637.637,0,0,1-.43.106c-.2,0-.335.016-.43-.106a1.248,1.248,0,0,0,.184-.424.893.893,0,0,0-.184-.371.926.926,0,0,1,.861,0,.893.893,0,0,0-.184.371" transform="translate(-132.866 -121.158)" fill="#fff"/><path d="M141.783,124.2a.363.363,0,0,1-.325-.112,1.638,1.638,0,0,0,.18-.434.886.886,0,0,0-.18-.361.571.571,0,0,1,.442-.131.648.648,0,0,1,.439.108c0,.024-.178.252-.178.384a1.244,1.244,0,0,0,.182.416.573.573,0,0,1-.443.129Zm-.3-.905a.661.661,0,0,1,.189.359,1.239,1.239,0,0,1-.186.433.381.381,0,0,0,.3.083v.016l.054-.016a.72.72,0,0,0,.484-.1.909.909,0,0,1-.191-.413.893.893,0,0,1,.188-.381.766.766,0,0,0-.418-.081.625.625,0,0,0-.421.1Z" transform="translate(-132.862 -121.153)" fill="#dc1f34"/><path d="M141,123.679a.161.161,0,1,1-.184.16.173.173,0,0,1,.184-.16" transform="translate(-132.695 -121.287)" fill="#fff"/><path d="M140.991,124.019a.189.189,0,0,1-.2-.175c0-.192.4-.192.4,0a.189.189,0,0,1-.2.175m0-.319a.159.159,0,0,0-.169.144c0,.16.338.16.338,0a.159.159,0,0,0-.169-.144" transform="translate(-132.69 -121.292)" fill="#dc1f34"/><path d="M142.984,123.679a.161.161,0,1,1-.184.16.173.173,0,0,1,.184-.16" transform="translate(-133.209 -121.287)" fill="#fff"/><path d="M142.979,124.019a.189.189,0,0,1-.2-.175c0-.192.4-.192.4,0a.189.189,0,0,1-.2.175m0-.319a.159.159,0,0,0-.169.144c0,.16.338.16.338,0a.159.159,0,0,0-.169-.144" transform="translate(-133.203 -121.292)" fill="#dc1f34"/><path d="M141.99,123.679a.161.161,0,1,1-.184.16.173.173,0,0,1,.184-.16" transform="translate(-132.952 -121.287)" fill="#fff"/><path d="M141.985,124.019a.189.189,0,0,1-.2-.175c0-.192.4-.192.4,0a.189.189,0,0,1-.2.175m0-.319a.159.159,0,0,0-.169.144c0,.16.338.16.338,0a.159.159,0,0,0-.169-.144" transform="translate(-132.947 -121.292)" fill="#dc1f34"/><path d="M141.99,122.965a.161.161,0,1,1-.184.16.173.173,0,0,1,.184-.16" transform="translate(-132.952 -121.103)" fill="#fff"/><path d="M141.985,123.3a.188.188,0,0,1-.2-.174c0-.192.4-.192.4,0a.188.188,0,0,1-.2.174m0-.318a.159.159,0,0,0-.169.144c0,.159.338.159.338,0a.159.159,0,0,0-.169-.144" transform="translate(-132.947 -121.108)" fill="#dc1f34"/><path d="M141.259,127.04a.162.162,0,1,1-.19.159.177.177,0,0,1,.19-.159" transform="translate(-132.762 -122.154)" fill="#fff"/><path d="M141.254,127.378a.192.192,0,0,1-.2-.175c0-.192.411-.191.411,0a.193.193,0,0,1-.206.175m0-.318a.161.161,0,0,0-.174.143c0,.16.35.16.35,0a.162.162,0,0,0-.176-.143" transform="translate(-132.757 -122.159)" fill="#dc1f34"/><path d="M142.632,127.04a.162.162,0,1,1-.19.159.177.177,0,0,1,.19-.159" transform="translate(-133.116 -122.154)" fill="#fff"/><path d="M142.627,127.378a.192.192,0,0,1-.2-.175c0-.192.411-.191.411,0a.193.193,0,0,1-.206.175m0-.318a.161.161,0,0,0-.174.143c0,.16.35.16.35,0a.162.162,0,0,0-.176-.143" transform="translate(-133.111 -122.159)" fill="#dc1f34"/><path d="M141.411,126.682h.891l-.444.478Z" transform="translate(-132.85 -122.062)" fill="#fff"/><path d="M141.854,127.177l-.458-.489.9-.026Zm.433-.51-.88.025.446.441Z" transform="translate(-132.846 -122.057)" fill="#dc1f34"/><path d="M141.924,126.9a.216.216,0,1,1-.255.212.238.238,0,0,1,.255-.212" transform="translate(-132.917 -122.117)" fill="#fff"/><path d="M141.919,127.331a.231.231,0,1,1,.27-.227.251.251,0,0,1-.27.227m0-.424a.222.222,0,0,0-.24.2c0,.217.479.217.479,0a.222.222,0,0,0-.24-.2" transform="translate(-132.911 -122.112)" fill="#dc1f34"/><path d="M140.764,129.328h1.22c.042,0,.073.025.073.056v.206c0,.031-.032.056-.073.056h-1.22a.067.067,0,0,1-.074-.056v-.206a.067.067,0,0,1,.074-.056" transform="translate(-132.664 -122.745)" fill="#fff"/><path d="M141.979,129.656h-1.22a.082.082,0,0,1-.089-.072v-.206a.082.082,0,0,1,.089-.072h1.22a.081.081,0,0,1,.089.072v.206a.081.081,0,0,1-.089.072m-1.22-.319-.059.247,1.279.042c.032,0,.059-.019.059-.042v-.206Z" transform="translate(-132.659 -122.74)" fill="#dc1f34"/><path d="M142.994,128.97a.286.286,0,0,0-.3.277v.242a.3.3,0,0,0,.594,0v-.242a.286.286,0,0,0-.3-.277m0,.107a.2.2,0,0,0-.178.222v.139a.182.182,0,1,0,.356,0V129.3a.2.2,0,0,0-.178-.222" transform="translate(-133.182 -122.653)" fill="#fff"/><path d="M142.988,129.777a.3.3,0,0,1-.312-.293v-.241a.313.313,0,0,1,.625,0v.241a.3.3,0,0,1-.312.293m0-.8a.273.273,0,0,0-.282.263v.241a.283.283,0,0,0,.564,0v-.241a.273.273,0,0,0-.282-.263m0,.69a.219.219,0,0,1-.194-.237v-.14a.2.2,0,1,1,.387,0v.14a.219.219,0,0,1-.194.237m0-.583a.189.189,0,0,0-.163.206v.14a.163.163,0,1,0,.326,0v-.14a.189.189,0,0,0-.163-.206" transform="translate(-133.176 -122.647)" fill="#dc1f34"/><path d="M140.908,129.006a.2.2,0,0,0-.178.221v.246a.183.183,0,1,0,.358,0v-.246a.2.2,0,0,0-.18-.221m0-.107a.287.287,0,0,0-.3.277v.347a.3.3,0,0,0,.6,0v-.347a.288.288,0,0,0-.3-.277" transform="translate(-132.644 -122.634)" fill="#fff"/><path d="M140.9,129.811a.3.3,0,0,1-.312-.292v-.347a.314.314,0,0,1,.626,0v.347a.3.3,0,0,1-.314.292m0-.9a.273.273,0,0,0-.282.263v.347a.283.283,0,0,0,.565,0v-.347a.274.274,0,0,0-.283-.263m0,.8a.219.219,0,0,1-.194-.237v-.246a.219.219,0,0,1,.194-.237.217.217,0,0,1,.2.237v.246a.22.22,0,0,1-.2.237m0-.69a.189.189,0,0,0-.163.206v.246a.164.164,0,1,0,.328,0v-.246a.19.19,0,0,0-.165-.206" transform="translate(-132.638 -122.629)" fill="#dc1f34"/><path d="M140.267,129.149a.2.2,0,0,0-.178.221v.059a.182.182,0,1,0,.356,0v-.059a.2.2,0,0,0-.178-.221m0-.106a.286.286,0,0,0-.3.277v.16a.3.3,0,0,0,.594,0v-.16a.286.286,0,0,0-.3-.277" transform="translate(-132.478 -122.671)" fill="#fff"/><path d="M140.261,129.766a.3.3,0,0,1-.312-.292v-.16a.313.313,0,0,1,.625,0v.16a.3.3,0,0,1-.312.292m0-.714a.273.273,0,0,0-.282.262v.16a.283.283,0,0,0,.564,0v-.16a.273.273,0,0,0-.282-.262m0,.608a.219.219,0,0,1-.194-.237c0-.376.387-.318.387-.058,0,.188-.087.3-.194.3m0-.5a.189.189,0,0,0-.163.206c0,.344.326.286.326.058,0-.171-.073-.264-.163-.264" transform="translate(-132.473 -122.666)" fill="#dc1f34"/><path d="M139.221,128.947a.291.291,0,0,0-.32.248v.275a.332.332,0,0,0,.643,0v-.275a.292.292,0,0,0-.322-.248m0-.119c-.3,0-.535.139-.535.31v.388c0,.171.24.309.535.309s.536-.138.536-.309v-.388c0-.171-.24-.31-.536-.31" transform="translate(-132.147 -122.616)" fill="#fff"/><path d="M139.216,129.846c-.3,0-.55-.145-.55-.324v-.389c0-.179.246-.325.55-.325s.551.143.551.325v.389c0,.179-.247.324-.551.324m0-1.008c-.286,0-.519.132-.519.295v.389c0,.162.233.294.519.294s.521-.132.521-.294v-.389c0-.162-.234-.295-.521-.295m0,.89a.307.307,0,0,1-.335-.263v-.275a.346.346,0,0,1,.672,0v.275a.308.308,0,0,1-.337.263m0-.771a.277.277,0,0,0-.3.232v.275a.317.317,0,0,0,.611,0v-.275a.278.278,0,0,0-.306-.232" transform="translate(-132.142 -122.611)" fill="#dc1f34"/><path d="M144.433,129.018a.292.292,0,0,0-.322.248v.275a.333.333,0,0,0,.644,0v-.275a.292.292,0,0,0-.322-.248m0-.119c-.3,0-.536.139-.536.31v.388c0,.172.24.309.536.309s.535-.137.535-.309v-.388c0-.171-.238-.31-.535-.31" transform="translate(-133.492 -122.634)" fill="#fff"/><path d="M144.428,129.917c-.309,0-.551-.142-.551-.324V129.2c0-.182.242-.325.551-.325s.55.143.55.325v.389c0,.182-.241.324-.55.324m0-1.008c-.287,0-.521.132-.521.295v.389c0,.162.234.294.521.294s.519-.132.519-.294V129.2c0-.162-.233-.295-.519-.295m0,.89a.308.308,0,0,1-.337-.263v-.275a.347.347,0,0,1,.674,0v.275a.308.308,0,0,1-.337.263m0-.771a.278.278,0,0,0-.306.232v.275a.318.318,0,0,0,.613,0v-.275a.278.278,0,0,0-.306-.232" transform="translate(-133.486 -122.629)" fill="#dc1f34"/><path d="M143.3,129.328h.636c.022,0,.039.025.039.056v.206c0,.031-.017.056-.039.056H143.3c-.022,0-.039-.025-.039-.056v-.206c0-.031.018-.056.039-.056" transform="translate(-133.326 -122.745)" fill="#fff"/><path d="M143.927,129.656h-.651l-.039-.072v-.221l.054-.056h.651l.039.072v.221Zm-.636-.319-.024.247.66.056.024-.056v-.206Z" transform="translate(-133.321 -122.74)" fill="#dc1f34"/><path d="M142.4,129.258h.371c.013,0,.023.033.023.075v.275c0,.041-.01.074-.023.074H142.4c-.013,0-.023-.033-.023-.074v-.275c0-.042.01-.075.023-.075" transform="translate(-133.099 -122.727)" fill="#fff"/><path d="M142.763,129.691h-.371c-.028,0-.039-.046-.039-.09v-.275c0-.044.01-.09.039-.09h.371c.028,0,.039.046.039.09v.275c0,.044-.01.09-.039.09m-.371-.424-.008.334.375.059.012-.334Z" transform="translate(-133.093 -122.722)" fill="#dc1f34"/><path d="M139.751,129.258h.371c.013,0,.023.033.023.075v.275c0,.041-.01.074-.023.074h-.371c-.013,0-.023-.033-.023-.074v-.275c0-.042.01-.075.023-.075" transform="translate(-132.416 -122.727)" fill="#fff"/><path d="M140.117,129.691h-.371c-.028,0-.039-.046-.039-.09v-.275c0-.044.01-.09.039-.09h.371c.028,0,.039.046.039.09v.275c0,.044-.01.09-.039.09m-.371-.424-.008.334.375.059.012-.334Z" transform="translate(-132.41 -122.722)" fill="#dc1f34"/><path d="M138.01,129.185h.742c.024,0,.045.042.045.094v.343c0,.051-.021.093-.045.093h-.742c-.026,0-.046-.042-.046-.093v-.343c0-.052.02-.094.046-.094" transform="translate(-131.96 -122.708)" fill="#fff"/><path d="M138.746,129.726H138c-.035,0-.062-.047-.062-.109v-.343c0-.062.027-.109.062-.109h.742c.034,0,.06.047.06.109v.343c0,.062-.026.109-.06.109M138,129.2c-.013,0-.031.031-.031.079v.343c0,.048.019.079.031.079h.742c.012,0,.03-.031.03-.079v-.343c0-.047-.018-.079-.03-.079Z" transform="translate(-131.955 -122.703)" fill="#dc1f34"/><path d="M144.982,129.258h.69c.023,0,.042.042.042.093v.343c0,.052-.019.094-.042.094h-.69c-.023,0-.042-.042-.042-.094v-.343c0-.052.019-.093.042-.093" transform="translate(-133.761 -122.727)" fill="#fff"/><path d="M145.667,129.8h-.69c-.038,0-.057-.055-.057-.11v-.343c0-.062.024-.108.057-.108h.69c.033,0,.057.046.057.108v.343c0,.055-.02.11-.057.11m-.69-.53c-.01,0-.027.03-.027.078v.343c0,.049.017.079.027.079h.69c.009,0,.027-.03.027-.079v-.343c0-.048-.018-.078-.027-.078Z" transform="translate(-133.756 -122.722)" fill="#dc1f34"/></g></g></g></svg>