<svg xmlns="http://www.w3.org/2000/svg" xmlns:xlink="http://www.w3.org/1999/xlink" width="36" height="36" viewBox="0 0 36 36"><defs><clipPath id="a"><circle cx="18" cy="18" r="18" transform="translate(2537 326)" fill="#fff" stroke="#707070" stroke-width="1"/></clipPath><clipPath id="b"><rect width="61.714" height="36" fill="none"/></clipPath></defs><g transform="translate(-2537 -326)" clip-path="url(#a)"><g transform="translate(2007.956 205.545)"><g transform="translate(529.044 120.455)" clip-path="url(#b)"><path d="M545.407,120.455l-16.363,19.637v3.273L530.679,145l-1.636,1.637v3.273l1.636,1.637-1.636,1.636v3.273h61.714v-3.273l-1.636-1.636,1.636-1.637v-3.273L589.122,145l1.636-1.636v-3.273l-1.636-1.637,1.636-1.636v-3.273l-1.636-1.637,1.636-1.636V127l-1.636-1.636,1.636-1.637v-3.273Z" transform="translate(-529.044 -120.455)" fill="#ae0037"/><path d="M529.044,154.321h61.714v-3.273H529.044Zm0-6.545h61.714V144.5H529.044Zm16.363-22.91-16.363,13.092v3.273h61.714v-3.273H545.407l-3.272-3.274h48.623v-3.272H542.135v-3.273h48.623v-3.273Z" transform="translate(-529.044 -121.593)" fill="#fff"/><rect width="16.363" height="16.364" transform="translate(0 -0.001)" fill="#192967"/><path d="M539.544,124.866l-1.517,4.669,2.8.911Z" transform="translate(-531.362 -121.593)" fill="#fff"/><path d="M539.625,124.866l1.517,4.669-2.8.911Z" transform="translate(-531.443 -121.593)" fill="#fff"/><path d="M544.657,129.438h-4.909v2.946Z" transform="translate(-531.806 -122.773)" fill="#fff"/><path d="M544.38,129.438l-3.972,2.886-1.731-2.383Z" transform="translate(-531.53 -122.773)" fill="#fff"/><path d="M542.458,135.212l-1.517-4.669-2.8.911Z" transform="translate(-531.392 -123.058)" fill="#fff"/><path d="M542.579,135l-3.971-2.885,1.73-2.383Z" transform="translate(-531.512 -122.85)" fill="#fff"/><path d="M536.183,135l3.971-2.885-1.73-2.383Z" transform="translate(-530.886 -122.85)" fill="#fff"/><path d="M536.183,135.212l1.517-4.669,2.8.911Z" transform="translate(-530.886 -123.058)" fill="#fff"/><path d="M533.778,129.438l3.972,2.886,1.731-2.383Z" transform="translate(-530.266 -122.773)" fill="#fff"/><path d="M533.778,129.438h4.909v2.946Z" transform="translate(-530.266 -122.773)" fill="#fff"/></g></g></g></svg>