<svg xmlns="http://www.w3.org/2000/svg" xmlns:xlink="http://www.w3.org/1999/xlink" width="36" height="36" viewBox="0 0 36 36"><defs><clipPath id="a"><circle cx="18" cy="18" r="18" transform="translate(2056 721)" fill="#fff" stroke="#707070" stroke-width="1"/></clipPath><clipPath id="b"><rect width="61.714" height="36" fill="none"/></clipPath></defs><g transform="translate(-2056 -721)" clip-path="url(#a)"><g transform="translate(1913.129 600.545)"><g transform="translate(129.871 120.455)" clip-path="url(#b)"><rect width="61.715" height="36" fill="#22368f"/><rect width="61.715" height="9" transform="translate(0 18)" fill="#fff"/><rect width="61.715" height="3" transform="translate(0 21)" fill="#bc0030"/><path d="M160.209,136.225l-.4,1.243H158.5l1.057.769-.4,1.243,1.058-.769,1.058.769-.4-1.243,1.058-.769h-1.307Z" transform="translate(-137.259 -124.525)" fill="#f3d02f"/><path d="M153.079,138.542l-.4,1.243h-1.307l1.057.769-.4,1.243,1.058-.769,1.058.769-.4-1.243,1.059-.769h-1.308Z" transform="translate(-135.419 -125.123)" fill="#f3d02f"/><path d="M148.672,144.607l-.4,1.243H146.96l1.058.769-.4,1.243,1.058-.769,1.058.769-.4-1.243,1.058-.769h-1.308Z" transform="translate(-134.281 -126.688)" fill="#f3d02f"/><path d="M148.672,152.105l-.4,1.243H146.96l1.058.769-.4,1.243,1.058-.768,1.058.768-.4-1.243,1.058-.769h-1.308Z" transform="translate(-134.281 -128.623)" fill="#f3d02f"/><path d="M153.079,158.171l-.4,1.243h-1.307l1.057.769-.4,1.244,1.058-.769,1.058.769-.4-1.244,1.059-.769h-1.308Z" transform="translate(-135.419 -130.189)" fill="#f3d02f"/><path d="M160.209,160.487l-.4,1.243H158.5l1.057.769-.4,1.243,1.058-.769,1.058.769-.4-1.243,1.058-.769h-1.307Z" transform="translate(-137.259 -130.787)" fill="#f3d02f"/><path d="M167.339,158.171l-.4,1.243h-1.308l1.058.769-.4,1.244,1.059-.769,1.058.769-.4-1.244,1.058-.769h-1.308Z" transform="translate(-139.099 -130.189)" fill="#f3d02f"/><path d="M171.746,144.607l-.4,1.243h-1.307l1.058.769-.4,1.243,1.058-.769,1.058.769-.4-1.243,1.059-.769h-1.308Z" transform="translate(-140.237 -126.688)" fill="#f3d02f"/><path d="M171.746,152.105l-.4,1.243h-1.307l1.058.769-.4,1.243,1.058-.768,1.058.768-.4-1.243,1.059-.769h-1.308Z" transform="translate(-140.237 -128.623)" fill="#f3d02f"/><path d="M167.339,138.542l-.4,1.243h-1.308l1.058.769-.4,1.243,1.059-.769,1.058.769-.4-1.243,1.058-.769h-1.308Z" transform="translate(-139.099 -125.123)" fill="#f3d02f"/></g></g></g></svg>