<svg xmlns="http://www.w3.org/2000/svg" xmlns:xlink="http://www.w3.org/1999/xlink" width="36" height="36" viewBox="0 0 36 36"><defs><clipPath id="a"><circle cx="18" cy="18" r="18" transform="translate(2695 564)" fill="#fff" stroke="#707070" stroke-width="1"/></clipPath><clipPath id="b"><rect width="61.714" height="36" fill="none"/></clipPath></defs><g transform="translate(-2695 -564)" clip-path="url(#a)"><g transform="translate(2252.749 443.545)"><g transform="translate(429.251 120.455)" clip-path="url(#b)"><rect width="61.714" height="36" fill="#fff"/><rect width="61.714" height="10.8" transform="translate(0 25.2)" fill="#3d9546"/><rect width="61.714" height="10.8" transform="translate(0 -0.001)" fill="#1f189b"/><path d="M468.821,135.913a.7.7,0,0,0-.406.231l.018,2.428-.767.8h.622l-.006,1.393-3.67,4.943-.543-.187-.948,2.023a11.469,11.469,0,0,0,5.75,1.428,10.713,10.713,0,0,0,5.769-1.5l-.981-2-.48.209-3.718-4.917,0-1.434h.62l-.844-.793.006-2.419a.7.7,0,0,0-.416-.214" transform="translate(-437.992 -124.444)"/><path d="M468.726,148.993a11.584,11.584,0,0,1-5.625-1.433l.938-2.057.576.173,3.641-4.933v-1.377l-.6.026.748-.847-.025-2.409a.675.675,0,0,1,.431-.259.728.728,0,0,1,.435.222v2.438l.837.774-.638.045.03,1.407,3.713,4.9.447-.217,1.016,2.011a10.427,10.427,0,0,1-5.792,1.534Zm-5.587-1.445a12.069,12.069,0,0,0,5.587,1.392h.139a10.8,10.8,0,0,0,5.754-1.491l-.99-1.965-.445.221-3.75-4.926-.009-1.45.646-.027-.863-.748,0-2.437h0a.752.752,0,0,0-.384-.188.682.682,0,0,0-.392.223l.024,2.41-.774.821.6-.044.02,1.419-3.675,4.958-.573-.178-.915,2.009h0" transform="translate(-437.987 -124.435)"/><path d="M471.408,141.974H468.7l-.036-.075a7.862,7.862,0,0,1-.783-3.369,2.122,2.122,0,0,1,2.12-2.165h0c1.324,0,2.017.668,2.221,2.1a7.451,7.451,0,0,1-.782,3.43Zm-2.537-.263h2.37a7.065,7.065,0,0,0,.725-3.2c-.185-1.3-.778-1.879-1.919-1.879-1.1.013-1.764.7-1.9,1.93a7.476,7.476,0,0,0,.725,3.152" transform="translate(-439.217 -124.561)"/><path d="M464.7,149.985c-.042.055-.346.664-.346.664l.526-.111Z" transform="translate(-438.311 -128.076)" fill="#fff"/><path d="M465.041,151.048l-.553.18.663.263Z" transform="translate(-438.345 -128.35)" fill="#fff"/><path d="M465.569,150l.277.816.677-.194-.18-.388Z" transform="translate(-438.624 -128.081)" fill="#fff"/><path d="M466.147,151.423l.1.332.9.222-.36-.76Z" transform="translate(-438.773 -128.394)" fill="#fff"/><path d="M467.489,150.562l.318.76.678-.262-.222-.332Z" transform="translate(-439.12 -128.225)" fill="#fff"/><path d="M468.085,151.874l.111.291,1.051.152-.441-.691Z" transform="translate(-439.273 -128.5)" fill="#fff"/><path d="M469.446,150.861l.387.677.983-.359-.111-.263Z" transform="translate(-439.625 -128.302)" fill="#fff"/><path d="M470.21,151.985l.208.36,1.218-.042-.456-.677Z" transform="translate(-439.822 -128.5)" fill="#fff"/><path d="M471.944,150.86l.332.568.775-.374-.207-.3Z" transform="translate(-440.27 -128.274)" fill="#fff"/><path d="M473.39,151.476l-.774.387.207.333,1.038-.166Z" transform="translate(-440.443 -128.461)" fill="#fff"/><path d="M474,150.588l.4.5.651-.512-.222-.235Z" transform="translate(-440.799 -128.167)" fill="#fff"/><path d="M475.382,151.029l-.623.47.167.29.858-.221Z" transform="translate(-440.996 -128.346)" fill="#fff"/><path d="M476.5,149.7l.152.222-.429.636-.444-.567Z" transform="translate(-441.26 -128.004)" fill="#fff"/><path d="M477.04,150.451l.263.525-.526.18-.042-.249Z" transform="translate(-441.506 -128.196)" fill="#fff"/></g></g></g></svg>