<svg xmlns="http://www.w3.org/2000/svg" xmlns:xlink="http://www.w3.org/1999/xlink" width="36" height="36" viewBox="0 0 36 36"><defs><clipPath id="a"><circle cx="18" cy="18" r="18" transform="translate(522 119)" fill="none" stroke="#707070" stroke-width="1"/></clipPath><clipPath id="b"><rect width="61.713" height="36" fill="none"/></clipPath></defs><g transform="translate(-522 -119)" clip-path="url(#a)"><g transform="translate(478.921 -316.625)"><g transform="translate(30.079 435.625)" clip-path="url(#b)"><rect width="61.714" height="35.999" transform="translate(0 0.001)" fill="#fff"/><path d="M84.293,448.642l20.39-11.414v-1.6h-1.407l-23.25,13.017Z" transform="translate(-42.97 -435.625)" fill="#bd0034"/><path d="M84.478,467.583l21.355,11.948v-2.39l-17.087-9.558Z" transform="translate(-44.119 -443.873)" fill="#bd0034"/><path d="M30.079,438.49l18.266,10.274h4.268L30.079,436.1Z" transform="translate(-30.079 -435.747)" fill="#bd0034"/><path d="M51.649,467.583,30.079,479.665v.208h3.894l21.942-12.29Z" transform="translate(-30.079 -443.873)" fill="#bd0034"/><path d="M100.055,435.626H78.446v12.1Z" transform="translate(-42.563 -435.625)" fill="#1a237b"/><path d="M58.1,435.626H36.576l21.521,12.1Z" transform="translate(-31.756 -435.625)" fill="#1a237b"/><path d="M108.163,450.3v-8.26L93.506,450.3Z" transform="translate(-46.449 -437.28)" fill="#1a237b"/><path d="M108.163,475.749v-8.167H93.506Z" transform="translate(-46.449 -443.873)" fill="#1a237b"/><path d="M38.223,480.191h20.3V468.813Z" transform="translate(-32.181 -444.191)" fill="#1a237b"/><path d="M78.446,480.191H98.809L78.446,468.813Z" transform="translate(-42.563 -444.191)" fill="#1a237b"/><path d="M30.079,467.583v8.536l15.168-8.536Z" transform="translate(-30.079 -443.873)" fill="#1a237b"/><path d="M30.079,450.2H45.247l-15.168-8.552Z" transform="translate(-30.079 -437.178)" fill="#1a237b"/><path d="M58.329,435.626v15.156H30.079V457.2H58.329v14.429h5.726V457.2H91.792v-6.414H64.055V435.626Z" transform="translate(-30.079 -435.625)" fill="#bd0034"/></g></g></g></svg>