<svg xmlns="http://www.w3.org/2000/svg" xmlns:xlink="http://www.w3.org/1999/xlink" width="36" height="36" viewBox="0 0 36 36"><defs><clipPath id="a"><circle cx="18" cy="18" r="18" transform="translate(2668 408)" fill="#fff" stroke="#707070" stroke-width="1"/></clipPath><clipPath id="b"><rect width="61.716" height="36" fill="none"/></clipPath></defs><g transform="translate(-2668 -408)" clip-path="url(#a)"><g transform="translate(1939.374 287.545)"><g transform="translate(728.626 120.455)" clip-path="url(#b)"><rect width="61.716" height="36" fill="#fff"/><rect width="18" height="36" fill="#2530a9"/><rect width="61.716" height="18" transform="translate(0 18)" fill="#c22623"/><path d="M740.273,126.52l-1.391,4.28,2.14.7Z" transform="translate(-731.273 -122.02)" fill="#fff"/><path d="M740.5,126.52l1.391,4.28-2.14.7Z" transform="translate(-731.496 -122.02)" fill="#fff"/><path d="M744.961,130.712h-4.5v2.249Z" transform="translate(-731.68 -123.102)" fill="#fff"/><path d="M744.8,130.712l-3.641,2.645-1.323-1.821Z" transform="translate(-731.519 -123.102)" fill="#fff"/><path d="M734.987,130.712l3.641,2.645,1.323-1.821Z" transform="translate(-730.268 -123.102)" fill="#fff"/><path d="M734.987,130.712h4.5v2.249Z" transform="translate(-730.268 -123.102)" fill="#fff"/><path d="M743.093,136l-1.39-4.28-2.14.7Z" transform="translate(-731.449 -123.363)" fill="#fff"/><path d="M743.055,135.94l-3.64-2.645,1.323-1.821Z" transform="translate(-731.411 -123.299)" fill="#fff"/><path d="M737.192,135.94l3.64-2.645-1.323-1.821Z" transform="translate(-730.837 -123.299)" fill="#fff"/><path d="M737.192,136l1.39-4.28,2.14.7Z" transform="translate(-730.837 -123.363)" fill="#fff"/></g></g></g></svg>