<svg xmlns="http://www.w3.org/2000/svg" xmlns:xlink="http://www.w3.org/1999/xlink" width="36" height="36" viewBox="0 0 36 36"><defs><clipPath id="a"><circle cx="18" cy="18" r="18" transform="translate(2669 173)" fill="#fff" stroke="#707070" stroke-width="1"/></clipPath><clipPath id="b"><rect width="61.714" height="36" fill="none"/></clipPath></defs><g transform="translate(-2669 -173)" clip-path="url(#a)"><g transform="translate(2126.96 -262.324)"><g transform="translate(529.04 435.324)" clip-path="url(#b)"><rect width="61.716" height="36" fill="#3c9242"/><path d="M541.865,454.844l21.342,13.63,21.343-13.63-21.343-13.627Z" transform="translate(-532.35 -436.845)" fill="#edc226"/><path d="M576.5,456.454a9,9,0,1,1-9-9,9,9,0,0,1,9,9" transform="translate(-536.644 -438.455)" fill="#2d146e"/><path d="M562.459,454.386a22.231,22.231,0,0,0-3.092.217,9.221,9.221,0,0,0-.479,1.376,20.883,20.883,0,0,1,3.571-.309,20.5,20.5,0,0,1,13.734,5.257,8.955,8.955,0,0,0,.32-1.423,21.767,21.767,0,0,0-14.054-5.119" transform="translate(-536.743 -440.244)" fill="#fff"/><path d="M560.133,455.742a.431.431,0,1,0-.435-.378.408.408,0,0,0,.435.378m-.018-.158a.273.273,0,1,0-.259-.24.253.253,0,0,0,.259.24" transform="translate(-536.951 -440.373)" fill="#3c9242" fill-rule="evenodd"/><path d="M561.21,455.625l.159-.011-.021-.318.341-.024a.27.27,0,0,0-.038-.538l-.488.035Zm.126-.488.33-.023a.11.11,0,0,0,.1-.117.109.109,0,0,0-.117-.1l-.33.022Z" transform="translate(-537.33 -440.333)" fill="#3c9242" fill-rule="evenodd"/><path d="M562.052,455.735c-.008-.123-.027-.392-.209-.378l-.232.016c.268-.019.286.249.3.371" transform="translate(-537.446 -440.494)" fill="#3c9242"/><path d="M562.686,455.543l.4-.009a.363.363,0,0,0,.361-.372l0-.123a.367.367,0,0,0-.373-.361l-.4.007Zm.156-.161.232-.006a.231.231,0,0,0,.228-.236v-.074a.231.231,0,0,0-.237-.227l-.232,0Z" transform="translate(-537.72 -440.319)" fill="#3c9242" fill-rule="evenodd"/><path d="M564.158,455.53l.772.027.005-.16-.624-.021.007-.22.49.018.005-.148-.49-.016.005-.171.589.021,0-.161-.734-.025Z" transform="translate(-538.103 -440.318)" fill="#3c9242"/><path d="M565.625,455.6l.146.012.051-.585.119.6.135.013.222-.571-.051.585.146.013.073-.854-.212-.02-.223.573-.119-.6-.213-.019Z" transform="translate(-538.482 -440.335)" fill="#3c9242"/><path d="M568.018,455.9l.634.108.026-.143-.49-.084.033-.194.4.07.025-.146-.4-.067.022-.134.473.082.027-.146-.62-.107Z" transform="translate(-539.099 -440.437)" fill="#3c9242"/><path d="M570.211,456.3l.154.039.079-.307.332.085a.269.269,0,1,0,.135-.522l-.473-.123Zm.275-.423.32.084a.111.111,0,0,0,.054-.214l-.32-.082Z" transform="translate(-539.666 -440.525)" fill="#3c9242" fill-rule="evenodd"/><path d="M571.63,456.686l.151.049.1-.3.327.1a.269.269,0,1,0,.163-.513l-.469-.148Zm.295-.406.315.1a.11.11,0,1,0,.068-.21l-.315-.1Z" transform="translate(-540.032 -440.627)" fill="#3c9242" fill-rule="evenodd"/><path d="M572.468,457.092c.038-.116.118-.372-.056-.429l-.223-.07c.257.082.176.338.139.453" transform="translate(-540.176 -440.813)" fill="#3c9242"/><path d="M573.428,457.316a.431.431,0,1,0-.211-.536.408.408,0,0,0,.211.536m.056-.149a.25.25,0,0,0,.306-.172.23.23,0,1,0-.424-.158.249.249,0,0,0,.117.33" transform="translate(-540.434 -440.787)" fill="#3c9242" fill-rule="evenodd"/><path d="M574.795,457.87a.431.431,0,1,0-.183-.548.409.409,0,0,0,.183.548m.064-.146a.273.273,0,0,0,.214-.494.273.273,0,0,0-.214.494" transform="translate(-540.791 -440.932)" fill="#3c9242" fill-rule="evenodd"/><path d="M575.161,457.656l.3.129-.048.113-.3-.131Z" transform="translate(-540.93 -441.088)" fill="#3c9242"/><path d="M575.368,457.765l.112.048-.171.395-.112-.05Z" transform="translate(-540.953 -441.116)" fill="#3c9242"/><path d="M575.735,458.276l.143.07.142-.284.306.152a.269.269,0,0,0,.363-.12.272.272,0,0,0-.122-.362l-.438-.217Zm.356-.355.3.146a.11.11,0,1,0,.1-.2l-.3-.148Z" transform="translate(-541.091 -441.051)" fill="#3c9242" fill-rule="evenodd"/><path d="M576.545,458.791c.054-.108.174-.349.011-.432l-.208-.1c.241.12.12.363.066.471" transform="translate(-541.249 -441.242)" fill="#3c9242"/><path d="M577.044,458.947l.671.38.079-.139-.544-.309.109-.19.426.241.073-.128-.427-.241.085-.151.513.29.078-.139-.64-.361Z" transform="translate(-541.429 -441.228)" fill="#3c9242"/><path d="M578.659,459.6c-.046.073,0,.154.1.219s.174.062.2.017c.094-.148-.447-.362-.281-.619.144-.22.39-.049.484.01a.279.279,0,0,1,.125.388l-.157-.1c.05-.077-.005-.152-.089-.2s-.145-.075-.191,0c-.081.12.451.345.287.6-.118.188-.328.105-.467.017-.119-.076-.3-.254-.181-.435Z" transform="translate(-541.794 -441.462)" fill="#3c9242"/><path d="M579.9,460.423c-.05.071-.008.152.091.225s.171.072.2.027c.1-.141-.43-.384-.248-.632.155-.213.392-.029.482.035a.282.282,0,0,1,.105.4l-.153-.108c.053-.074,0-.151-.077-.208s-.14-.082-.192-.009c-.085.114.433.368.257.614-.13.183-.335.09-.468-.006-.114-.082-.283-.269-.158-.444Z" transform="translate(-542.114 -441.678)" fill="#3c9242"/><path d="M581.094,461.66a.43.43,0,1,0-.036-.575.409.409,0,0,0,.036.575m.1-.125a.273.273,0,1,0-.01-.352.249.249,0,0,0,.01.352" transform="translate(-542.439 -441.928)" fill="#3c9242" fill-rule="evenodd"/><path d="M560.689,456.886l-.12.367.183.059Z" transform="translate(-537.177 -440.889)" fill="#fff"/><path d="M560.708,456.886l.119.367-.183.059Z" transform="translate(-537.196 -440.889)" fill="#fff"/><path d="M561.089,457.246H560.7v.191Z" transform="translate(-537.212 -440.982)" fill="#fff"/><path d="M561.075,457.246l-.312.226-.114-.155Z" transform="translate(-537.198 -440.982)" fill="#fff"/><path d="M560.235,457.246l.312.226.113-.155Z" transform="translate(-537.091 -440.982)" fill="#fff"/><path d="M560.235,457.246h.387v.191Z" transform="translate(-537.091 -440.982)" fill="#fff"/><path d="M560.929,457.7l-.119-.368-.183.061Z" transform="translate(-537.192 -441.004)" fill="#fff"/><path d="M560.926,457.694l-.311-.228.112-.157Z" transform="translate(-537.189 -440.998)" fill="#fff"/><path d="M560.425,457.694l.312-.228-.114-.157Z" transform="translate(-537.14 -440.998)" fill="#fff"/><path d="M560.425,457.7l.118-.368.184.061Z" transform="translate(-537.14 -441.004)" fill="#fff"/><path d="M561.76,461.986l-.119.367.183.059Z" transform="translate(-537.454 -442.205)" fill="#fff"/><path d="M561.78,461.986l.119.367-.182.059Z" transform="translate(-537.473 -442.205)" fill="#fff"/><path d="M562.162,462.345h-.385v.193Z" transform="translate(-537.489 -442.298)" fill="#fff"/><path d="M562.148,462.345l-.312.226-.112-.155Z" transform="translate(-537.475 -442.298)" fill="#fff"/><path d="M561.307,462.345l.312.226.114-.155Z" transform="translate(-537.367 -442.298)" fill="#fff"/><path d="M561.307,462.345h.387v.193Z" transform="translate(-537.367 -442.298)" fill="#fff"/><path d="M562,462.8l-.119-.365-.184.059Z" transform="translate(-537.469 -442.321)" fill="#fff"/><path d="M562,462.793l-.312-.226.113-.155Z" transform="translate(-537.466 -442.315)" fill="#fff"/><path d="M561.5,462.793l.312-.226-.113-.155Z" transform="translate(-537.417 -442.315)" fill="#fff"/><path d="M561.5,462.8l.119-.365.184.059Z" transform="translate(-537.417 -442.321)" fill="#fff"/><path d="M560.29,463.248l-.079.245.122.039Z" transform="translate(-537.085 -442.531)" fill="#fff"/><path d="M560.3,463.248l.079.245-.123.039Z" transform="translate(-537.097 -442.531)" fill="#fff"/><path d="M560.556,463.488H560.3v.129Z" transform="translate(-537.108 -442.593)" fill="#fff"/><path d="M560.547,463.488l-.208.151-.076-.1Z" transform="translate(-537.098 -442.593)" fill="#fff"/><path d="M559.987,463.488l.207.151.076-.1Z" transform="translate(-537.027 -442.593)" fill="#fff"/><path d="M559.987,463.488h.257v.129Z" transform="translate(-537.027 -442.593)" fill="#fff"/><path d="M560.451,463.79l-.079-.243-.122.039Z" transform="translate(-537.095 -442.608)" fill="#fff"/><path d="M560.449,463.786l-.209-.151.076-.1Z" transform="translate(-537.092 -442.604)" fill="#fff"/><path d="M560.113,463.786l.208-.151-.075-.1Z" transform="translate(-537.06 -442.604)" fill="#fff"/><path d="M560.113,463.79l.079-.243.122.039Z" transform="translate(-537.06 -442.608)" fill="#fff"/><path d="M562.971,461.515l-.056.174.087.029Z" transform="translate(-537.783 -442.084)" fill="#fff"/><path d="M562.98,461.515l.057.174-.087.029Z" transform="translate(-537.792 -442.084)" fill="#fff"/><path d="M563.163,461.687h-.184v.091Z" transform="translate(-537.799 -442.128)" fill="#fff"/><path d="M563.156,461.687l-.149.108-.053-.075Z" transform="translate(-537.793 -442.128)" fill="#fff"/><path d="M562.755,461.687l.148.108.055-.075Z" transform="translate(-537.741 -442.128)" fill="#fff"/><path d="M562.755,461.687h.182v.091Z" transform="translate(-537.741 -442.128)" fill="#fff"/><path d="M563.086,461.9l-.057-.175-.086.029Z" transform="translate(-537.79 -442.138)" fill="#fff"/><path d="M563.084,461.9l-.148-.108.053-.073Z" transform="translate(-537.788 -442.136)" fill="#fff"/><path d="M562.845,461.9l.148-.108-.054-.073Z" transform="translate(-537.764 -442.136)" fill="#fff"/><path d="M562.845,461.9l.057-.175.087.029Z" transform="translate(-537.764 -442.138)" fill="#fff"/><path d="M564.293,463.277l-.1.306.152.05Z" transform="translate(-538.113 -442.538)" fill="#fff"/><path d="M564.309,463.277l.1.306-.152.05Z" transform="translate(-538.129 -442.538)" fill="#fff"/><path d="M564.627,463.576h-.321v.161Z" transform="translate(-538.141 -442.615)" fill="#fff"/><path d="M564.615,463.576l-.26.19-.093-.131Z" transform="translate(-538.13 -442.615)" fill="#fff"/><path d="M563.914,463.576l.261.19.094-.131Z" transform="translate(-538.04 -442.615)" fill="#fff"/><path d="M563.914,463.576h.323v.161Z" transform="translate(-538.04 -442.615)" fill="#fff"/><path d="M564.494,463.955l-.1-.3-.153.049Z" transform="translate(-538.125 -442.635)" fill="#fff"/><path d="M564.492,463.949l-.26-.188.094-.131Z" transform="translate(-538.122 -442.629)" fill="#fff"/><path d="M564.073,463.949l.26-.188-.094-.131Z" transform="translate(-538.081 -442.629)" fill="#fff"/><path d="M564.073,463.955l.1-.3.152.049Z" transform="translate(-538.081 -442.635)" fill="#fff"/><path d="M563.93,464.482l-.1.306.152.05Z" transform="translate(-538.019 -442.849)" fill="#fff"/><path d="M563.946,464.482l.1.306-.153.05Z" transform="translate(-538.035 -442.849)" fill="#fff"/><path d="M564.265,464.781h-.323v.161Z" transform="translate(-538.048 -442.926)" fill="#fff"/><path d="M564.253,464.781l-.261.19-.094-.131Z" transform="translate(-538.036 -442.926)" fill="#fff"/><path d="M563.552,464.781l.261.19.093-.131Z" transform="translate(-537.947 -442.926)" fill="#fff"/><path d="M563.552,464.781h.322v.161Z" transform="translate(-537.947 -442.926)" fill="#fff"/><path d="M564.131,465.16l-.1-.307-.153.049Z" transform="translate(-538.032 -442.945)" fill="#fff"/><path d="M564.128,465.156l-.261-.19.095-.131Z" transform="translate(-538.028 -442.94)" fill="#fff"/><path d="M563.709,465.156l.261-.19-.095-.131Z" transform="translate(-537.987 -442.94)" fill="#fff"/><path d="M563.709,465.16l.1-.307.152.049Z" transform="translate(-537.987 -442.945)" fill="#fff"/><path d="M574.355,455.3l-.12.368.183.059Z" transform="translate(-540.704 -440.48)" fill="#fff"/><path d="M574.374,455.3l.119.368-.183.059Z" transform="translate(-540.723 -440.48)" fill="#fff"/><path d="M574.755,455.66h-.385v.194Z" transform="translate(-540.739 -440.572)" fill="#fff"/><path d="M574.741,455.66l-.312.228-.113-.157Z" transform="translate(-540.725 -440.572)" fill="#fff"/><path d="M573.9,455.66l.312.228.114-.157Z" transform="translate(-540.618 -440.572)" fill="#fff"/><path d="M573.9,455.66h.387v.194Z" transform="translate(-540.618 -440.572)" fill="#fff"/><path d="M574.6,456.114l-.119-.367-.184.059Z" transform="translate(-540.719 -440.595)" fill="#fff"/><path d="M574.593,456.109l-.312-.226.113-.157Z" transform="translate(-540.716 -440.589)" fill="#fff"/><path d="M574.09,456.109l.312-.226-.113-.157Z" transform="translate(-540.667 -440.589)" fill="#fff"/><path d="M574.09,456.114l.119-.367.183.059Z" transform="translate(-540.667 -440.595)" fill="#fff"/><path d="M579.09,463.324l-.119.367.184.059Z" transform="translate(-541.926 -442.55)" fill="#fff"/><path d="M579.109,463.324l.119.367-.184.059Z" transform="translate(-541.945 -442.55)" fill="#fff"/><path d="M579.492,463.681h-.386v.193Z" transform="translate(-541.961 -442.643)" fill="#fff"/><path d="M579.478,463.681l-.312.228-.113-.157Z" transform="translate(-541.948 -442.643)" fill="#fff"/><path d="M578.637,463.681l.312.228.114-.157Z" transform="translate(-541.84 -442.643)" fill="#fff"/><path d="M578.637,463.681h.387v.193Z" transform="translate(-541.84 -442.643)" fill="#fff"/><path d="M579.332,464.136l-.119-.366-.183.058Z" transform="translate(-541.942 -442.665)" fill="#fff"/><path d="M579.329,464.13l-.312-.228.114-.157Z" transform="translate(-541.938 -442.659)" fill="#fff"/><path d="M578.826,464.13l.312-.228-.114-.157Z" transform="translate(-541.889 -442.659)" fill="#fff"/><path d="M578.826,464.136l.118-.366.184.058Z" transform="translate(-541.889 -442.665)" fill="#fff"/><path d="M580.788,463.611l-.079.245.122.039Z" transform="translate(-542.375 -442.624)" fill="#fff"/><path d="M580.8,463.611l.079.245-.122.039Z" transform="translate(-542.387 -442.624)" fill="#fff"/><path d="M581.055,463.851H580.8v.128Z" transform="translate(-542.398 -442.686)" fill="#fff"/><path d="M581.046,463.851l-.207.151-.076-.1Z" transform="translate(-542.389 -442.686)" fill="#fff"/><path d="M580.485,463.851l.209.151.076-.1Z" transform="translate(-542.317 -442.686)" fill="#fff"/><path d="M580.485,463.851h.257v.128Z" transform="translate(-542.317 -442.686)" fill="#fff"/><path d="M580.949,464.153l-.079-.245-.122.041Z" transform="translate(-542.385 -442.701)" fill="#fff"/><path d="M580.947,464.149l-.208-.151.075-.1Z" transform="translate(-542.383 -442.698)" fill="#fff"/><path d="M580.611,464.149l.208-.151-.075-.1Z" transform="translate(-542.35 -442.698)" fill="#fff"/><path d="M580.611,464.153l.079-.245.123.041Z" transform="translate(-542.35 -442.701)" fill="#fff"/><path d="M579.591,464.482l-.1.306.154.05Z" transform="translate(-542.061 -442.849)" fill="#fff"/><path d="M579.608,464.482l.1.306-.152.05Z" transform="translate(-542.077 -442.849)" fill="#fff"/><path d="M579.927,464.781h-.321v.161Z" transform="translate(-542.09 -442.926)" fill="#fff"/><path d="M579.916,464.781l-.26.19-.094-.131Z" transform="translate(-542.079 -442.926)" fill="#fff"/><path d="M579.215,464.781l.26.19.1-.131Z" transform="translate(-541.989 -442.926)" fill="#fff"/><path d="M579.215,464.781h.322v.161Z" transform="translate(-541.989 -442.926)" fill="#fff"/><path d="M579.795,465.16l-.1-.307-.153.049Z" transform="translate(-542.074 -442.945)" fill="#fff"/><path d="M579.792,465.156l-.261-.19.094-.131Z" transform="translate(-542.071 -442.94)" fill="#fff"/><path d="M579.373,465.156l.26-.19-.095-.131Z" transform="translate(-542.03 -442.94)" fill="#fff"/><path d="M579.373,465.16l.1-.307.153.049Z" transform="translate(-542.03 -442.945)" fill="#fff"/><path d="M576.672,467.023l-.1.306.152.05Z" transform="translate(-541.307 -443.505)" fill="#fff"/><path d="M576.688,467.023l.1.306-.154.05Z" transform="translate(-541.323 -443.505)" fill="#fff"/><path d="M577.006,467.324h-.322v.161Z" transform="translate(-541.336 -443.583)" fill="#fff"/><path d="M576.995,467.324l-.26.188-.1-.131Z" transform="translate(-541.325 -443.583)" fill="#fff"/><path d="M576.294,467.324l.26.188.094-.131Z" transform="translate(-541.235 -443.583)" fill="#fff"/><path d="M576.294,467.324h.321v.161Z" transform="translate(-541.235 -443.583)" fill="#fff"/><path d="M576.873,467.7l-.1-.3-.153.049Z" transform="translate(-541.32 -443.601)" fill="#fff"/><path d="M576.869,467.7l-.261-.188.1-.129Z" transform="translate(-541.317 -443.597)" fill="#fff"/><path d="M576.45,467.7l.261-.188-.094-.129Z" transform="translate(-541.276 -443.597)" fill="#fff"/><path d="M576.45,467.7l.1-.3.152.049Z" transform="translate(-541.276 -443.601)" fill="#fff"/><path d="M576.662,468.332l-.079.245.122.039Z" transform="translate(-541.31 -443.843)" fill="#fff"/><path d="M576.674,468.332l.079.245-.122.039Z" transform="translate(-541.322 -443.843)" fill="#fff"/><path d="M576.929,468.572h-.257v.129Z" transform="translate(-541.333 -443.905)" fill="#fff"/><path d="M576.92,468.572l-.208.151-.076-.1Z" transform="translate(-541.324 -443.905)" fill="#fff"/><path d="M576.36,468.572l.207.151.076-.1Z" transform="translate(-541.253 -443.905)" fill="#fff"/><path d="M576.36,468.572h.257v.129Z" transform="translate(-541.253 -443.905)" fill="#fff"/><path d="M576.823,468.874l-.078-.243-.123.039Z" transform="translate(-541.32 -443.92)" fill="#fff"/><path d="M576.82,468.87l-.208-.151.076-.1Z" transform="translate(-541.318 -443.916)" fill="#fff"/><path d="M576.485,468.87l.208-.151-.075-.1Z" transform="translate(-541.285 -443.916)" fill="#fff"/><path d="M576.485,468.874l.079-.243.123.039Z" transform="translate(-541.285 -443.92)" fill="#fff"/><path d="M577.883,466.154l-.079.245.122.039Z" transform="translate(-541.625 -443.281)" fill="#fff"/><path d="M577.9,466.154l.079.245-.122.039Z" transform="translate(-541.638 -443.281)" fill="#fff"/><path d="M578.15,466.392h-.258v.129Z" transform="translate(-541.648 -443.342)" fill="#fff"/><path d="M578.142,466.392l-.208.152-.076-.1Z" transform="translate(-541.639 -443.342)" fill="#fff"/><path d="M577.581,466.392l.208.152.076-.1Z" transform="translate(-541.568 -443.342)" fill="#fff"/><path d="M577.581,466.392h.257v.129Z" transform="translate(-541.568 -443.342)" fill="#fff"/><path d="M578.044,466.7l-.079-.245-.122.041Z" transform="translate(-541.635 -443.357)" fill="#fff"/><path d="M578.042,466.692l-.208-.152.076-.1Z" transform="translate(-541.633 -443.354)" fill="#fff"/><path d="M577.708,466.692l.207-.152-.076-.1Z" transform="translate(-541.6 -443.354)" fill="#fff"/><path d="M577.708,466.7l.079-.245.122.041Z" transform="translate(-541.6 -443.357)" fill="#fff"/><path d="M578.849,465.457l-.1.306.152.05Z" transform="translate(-541.87 -443.101)" fill="#fff"/><path d="M578.865,465.457l.1.306-.152.05Z" transform="translate(-541.886 -443.101)" fill="#fff"/><path d="M579.183,465.756h-.321v.161Z" transform="translate(-541.898 -443.178)" fill="#fff"/><path d="M579.172,465.756l-.259.188-.094-.129Z" transform="translate(-541.887 -443.178)" fill="#fff"/><path d="M578.472,465.756l.26.188.094-.129Z" transform="translate(-541.797 -443.178)" fill="#fff"/><path d="M578.472,465.756h.323v.161Z" transform="translate(-541.797 -443.178)" fill="#fff"/><path d="M579.051,466.132l-.1-.3-.153.049Z" transform="translate(-541.882 -443.197)" fill="#fff"/><path d="M579.049,466.128l-.259-.188.094-.129Z" transform="translate(-541.88 -443.192)" fill="#fff"/><path d="M578.63,466.128l.26-.188-.095-.129Z" transform="translate(-541.838 -443.192)" fill="#fff"/><path d="M578.63,466.132l.1-.3.152.049Z" transform="translate(-541.838 -443.197)" fill="#fff"/><path d="M576.628,465.924l-.078.243.122.041Z" transform="translate(-541.302 -443.221)" fill="#fff"/><path d="M576.641,465.924l.079.243-.121.041Z" transform="translate(-541.314 -443.221)" fill="#fff"/><path d="M576.9,466.162h-.257v.129Z" transform="translate(-541.325 -443.283)" fill="#fff"/><path d="M576.887,466.162l-.207.151-.076-.1Z" transform="translate(-541.316 -443.283)" fill="#fff"/><path d="M576.327,466.162l.208.151.076-.1Z" transform="translate(-541.244 -443.283)" fill="#fff"/><path d="M576.327,466.162h.257v.129Z" transform="translate(-541.244 -443.283)" fill="#fff"/><path d="M576.79,466.465l-.079-.245-.123.038Z" transform="translate(-541.311 -443.298)" fill="#fff"/><path d="M576.788,466.462l-.208-.152.075-.1Z" transform="translate(-541.309 -443.294)" fill="#fff"/><path d="M576.452,466.462l.208-.152-.076-.1Z" transform="translate(-541.276 -443.294)" fill="#fff"/><path d="M576.452,466.465l.079-.245.124.038Z" transform="translate(-541.276 -443.298)" fill="#fff"/><path d="M565.976,459.646l-.1.306.153.05Z" transform="translate(-538.547 -441.601)" fill="#fff"/><path d="M565.992,459.646l.1.306-.153.05Z" transform="translate(-538.563 -441.601)" fill="#fff"/><path d="M566.311,459.945h-.322v.161Z" transform="translate(-538.576 -441.678)" fill="#fff"/><path d="M566.3,459.945l-.26.19-.094-.131Z" transform="translate(-538.565 -441.678)" fill="#fff"/><path d="M565.6,459.945l.26.19.094-.131Z" transform="translate(-538.475 -441.678)" fill="#fff"/><path d="M565.6,459.945h.321v.161Z" transform="translate(-538.475 -441.678)" fill="#fff"/><path d="M566.177,460.324l-.1-.3-.154.049Z" transform="translate(-538.559 -441.698)" fill="#fff"/><path d="M566.174,460.318l-.259-.188.094-.131Z" transform="translate(-538.557 -441.692)" fill="#fff"/><path d="M565.756,460.318l.26-.188-.095-.131Z" transform="translate(-538.516 -441.692)" fill="#fff"/><path d="M565.756,460.324l.1-.3.153.049Z" transform="translate(-538.516 -441.698)" fill="#fff"/><path d="M573.9,458.629l-.079.243.123.041Z" transform="translate(-540.598 -441.339)" fill="#fff"/><path d="M573.918,458.629l.079.243-.122.041Z" transform="translate(-540.611 -441.339)" fill="#fff"/><path d="M574.173,458.867h-.258V459Z" transform="translate(-540.622 -441.4)" fill="#fff"/><path d="M574.164,458.867l-.207.152-.076-.1Z" transform="translate(-540.613 -441.4)" fill="#fff"/><path d="M573.6,458.867l.208.152.075-.1Z" transform="translate(-540.541 -441.4)" fill="#fff"/><path d="M573.6,458.867h.257V459Z" transform="translate(-540.541 -441.4)" fill="#fff"/><path d="M574.067,459.17l-.079-.245-.122.039Z" transform="translate(-540.609 -441.415)" fill="#fff"/><path d="M574.064,459.166l-.208-.152.075-.1Z" transform="translate(-540.606 -441.411)" fill="#fff"/><path d="M573.729,459.166l.209-.152-.076-.1Z" transform="translate(-540.573 -441.411)" fill="#fff"/><path d="M573.729,459.17l.079-.245.122.039Z" transform="translate(-540.573 -441.415)" fill="#fff"/><path d="M570.59,464.51l-.119.368.183.059Z" transform="translate(-539.733 -442.856)" fill="#fff"/><path d="M570.609,464.51l.12.368-.183.059Z" transform="translate(-539.752 -442.856)" fill="#fff"/><path d="M570.993,464.869h-.387v.194Z" transform="translate(-539.768 -442.949)" fill="#fff"/><path d="M570.979,464.869l-.312.228-.114-.157Z" transform="translate(-539.754 -442.949)" fill="#fff"/><path d="M570.139,464.869l.312.228.113-.157Z" transform="translate(-539.647 -442.949)" fill="#fff"/><path d="M570.139,464.869h.387v.194Z" transform="translate(-539.647 -442.949)" fill="#fff"/><path d="M570.832,465.323l-.119-.367-.184.059Z" transform="translate(-539.748 -442.972)" fill="#fff"/><path d="M570.829,465.318l-.312-.226.113-.157Z" transform="translate(-539.745 -442.966)" fill="#fff"/><path d="M570.326,465.318l.312-.226-.112-.157Z" transform="translate(-539.695 -442.966)" fill="#fff"/><path d="M570.326,465.323l.119-.367.184.059Z" transform="translate(-539.695 -442.972)" fill="#fff"/><path d="M572,462.189l-.1.3.154.051Z" transform="translate(-540.102 -442.258)" fill="#fff"/><path d="M572.017,462.189l.1.3-.154.051Z" transform="translate(-540.117 -442.258)" fill="#fff"/><path d="M572.336,462.488h-.321v.16Z" transform="translate(-540.131 -442.335)" fill="#fff"/><path d="M572.324,462.488l-.261.188-.094-.131Z" transform="translate(-540.119 -442.335)" fill="#fff"/><path d="M571.623,462.488l.26.188.095-.131Z" transform="translate(-540.03 -442.335)" fill="#fff"/><path d="M571.623,462.488h.321v.16Z" transform="translate(-540.03 -442.335)" fill="#fff"/><path d="M572.2,462.866l-.1-.306-.153.049Z" transform="translate(-540.114 -442.353)" fill="#fff"/><path d="M572.2,462.861l-.26-.19.094-.131Z" transform="translate(-540.112 -442.348)" fill="#fff"/><path d="M571.779,462.861l.261-.19-.094-.131Z" transform="translate(-540.07 -442.348)" fill="#fff"/><path d="M571.779,462.866l.1-.306.152.049Z" transform="translate(-540.07 -442.353)" fill="#fff"/><path d="M570.6,461.1l-.1.306.153.05Z" transform="translate(-539.74 -441.976)" fill="#fff"/><path d="M570.613,461.1l.1.306-.154.05Z" transform="translate(-539.756 -441.976)" fill="#fff"/><path d="M570.932,461.4h-.322v.161Z" transform="translate(-539.768 -442.053)" fill="#fff"/><path d="M570.921,461.4l-.26.188-.094-.129Z" transform="translate(-539.757 -442.053)" fill="#fff"/><path d="M570.221,461.4l.26.188.094-.129Z" transform="translate(-539.668 -442.053)" fill="#fff"/><path d="M570.221,461.4h.321v.161Z" transform="translate(-539.668 -442.053)" fill="#fff"/><path d="M570.8,461.776l-.1-.306-.152.049Z" transform="translate(-539.752 -442.072)" fill="#fff"/><path d="M570.8,461.772l-.26-.188.094-.131Z" transform="translate(-539.749 -442.067)" fill="#fff"/><path d="M570.377,461.772l.261-.188-.094-.131Z" transform="translate(-539.708 -442.067)" fill="#fff"/><path d="M570.377,461.776l.1-.306.153.049Z" transform="translate(-539.708 -442.072)" fill="#fff"/><path d="M569.383,462.275l-.079.245.122.039Z" transform="translate(-539.431 -442.28)" fill="#fff"/><path d="M569.4,462.275l.079.245-.122.039Z" transform="translate(-539.444 -442.28)" fill="#fff"/><path d="M569.651,462.513h-.257v.129Z" transform="translate(-539.455 -442.341)" fill="#fff"/><path d="M569.641,462.513l-.208.152-.076-.1Z" transform="translate(-539.445 -442.341)" fill="#fff"/><path d="M569.081,462.513l.208.152.076-.1Z" transform="translate(-539.374 -442.341)" fill="#fff"/><path d="M569.081,462.513h.257v.129Z" transform="translate(-539.374 -442.341)" fill="#fff"/><path d="M569.544,462.817l-.078-.245-.123.039Z" transform="translate(-539.442 -442.356)" fill="#fff"/><path d="M569.542,462.813l-.208-.151.076-.1Z" transform="translate(-539.439 -442.353)" fill="#fff"/><path d="M569.207,462.813l.208-.151-.075-.1Z" transform="translate(-539.406 -442.353)" fill="#fff"/><path d="M569.207,462.817l.079-.245.122.039Z" transform="translate(-539.406 -442.356)" fill="#fff"/><path d="M570,463.215l-.056.175.088.027Z" transform="translate(-539.597 -442.522)" fill="#fff"/><path d="M570.01,463.215l.058.175-.088.027Z" transform="translate(-539.606 -442.522)" fill="#fff"/><path d="M570.193,463.386h-.183v.091Z" transform="translate(-539.614 -442.566)" fill="#fff"/><path d="M570.187,463.386l-.149.108-.053-.073Z" transform="translate(-539.607 -442.566)" fill="#fff"/><path d="M569.786,463.386l.148.108.054-.073Z" transform="translate(-539.556 -442.566)" fill="#fff"/><path d="M569.786,463.386h.183v.091Z" transform="translate(-539.556 -442.566)" fill="#fff"/><path d="M570.117,463.6l-.058-.175-.086.029Z" transform="translate(-539.604 -442.577)" fill="#fff"/><path d="M570.115,463.6l-.149-.108.055-.074Z" transform="translate(-539.602 -442.575)" fill="#fff"/><path d="M569.876,463.6l.149-.108-.055-.074Z" transform="translate(-539.579 -442.575)" fill="#fff"/><path d="M569.876,463.6l.056-.175.087.029Z" transform="translate(-539.579 -442.577)" fill="#fff"/><path d="M574.229,467.32l-.1.307.154.049Z" transform="translate(-540.677 -443.582)" fill="#fff"/><path d="M574.245,467.32l.1.307-.154.049Z" transform="translate(-540.693 -443.582)" fill="#fff"/><path d="M574.564,467.619h-.322v.162Z" transform="translate(-540.706 -443.659)" fill="#fff"/><path d="M574.552,467.619l-.261.19-.094-.131Z" transform="translate(-540.694 -443.659)" fill="#fff"/><path d="M573.851,467.619l.261.19.094-.131Z" transform="translate(-540.605 -443.659)" fill="#fff"/><path d="M573.851,467.619h.322v.162Z" transform="translate(-540.605 -443.659)" fill="#fff"/><path d="M574.431,468l-.1-.306-.154.049Z" transform="translate(-540.689 -443.678)" fill="#fff"/><path d="M574.428,467.994l-.261-.19.095-.129Z" transform="translate(-540.686 -443.673)" fill="#fff"/><path d="M574.008,467.994l.261-.19-.095-.129Z" transform="translate(-540.645 -443.673)" fill="#fff"/><path d="M574.008,468l.1-.306.152.049Z" transform="translate(-540.645 -443.678)" fill="#fff"/><path d="M575.274,466.336l-.079.243.122.041Z" transform="translate(-540.952 -443.328)" fill="#fff"/><path d="M575.287,466.336l.08.243-.122.041Z" transform="translate(-540.965 -443.328)" fill="#fff"/><path d="M575.543,466.576h-.258v.126Z" transform="translate(-540.975 -443.39)" fill="#fff"/><path d="M575.534,466.576l-.208.149-.076-.1Z" transform="translate(-540.966 -443.39)" fill="#fff"/><path d="M574.973,466.576l.208.149.076-.1Z" transform="translate(-540.894 -443.39)" fill="#fff"/><path d="M574.973,466.576h.258v.126Z" transform="translate(-540.894 -443.39)" fill="#fff"/><path d="M575.437,466.875l-.079-.245-.122.041Z" transform="translate(-540.962 -443.404)" fill="#fff"/><path d="M575.435,466.872l-.208-.149.075-.1Z" transform="translate(-540.96 -443.401)" fill="#fff"/><path d="M575.1,466.872l.206-.149-.075-.1Z" transform="translate(-540.927 -443.401)" fill="#fff"/><path d="M575.1,466.875l.078-.245.122.041Z" transform="translate(-540.927 -443.404)" fill="#fff"/><path d="M573.279,466.039l-.079.243.122.041Z" transform="translate(-540.437 -443.251)" fill="#fff"/><path d="M573.291,466.039l.079.243-.122.041Z" transform="translate(-540.449 -443.251)" fill="#fff"/><path d="M573.546,466.277h-.257v.129Z" transform="translate(-540.46 -443.313)" fill="#fff"/><path d="M573.536,466.277l-.208.151-.076-.1Z" transform="translate(-540.451 -443.313)" fill="#fff"/><path d="M572.977,466.277l.207.151.076-.1Z" transform="translate(-540.379 -443.313)" fill="#fff"/><path d="M572.977,466.277h.257v.129Z" transform="translate(-540.379 -443.313)" fill="#fff"/><path d="M573.44,466.581l-.079-.245-.123.041Z" transform="translate(-540.447 -443.328)" fill="#fff"/><path d="M573.438,466.577l-.209-.152.076-.1Z" transform="translate(-540.444 -443.324)" fill="#fff"/><path d="M573.1,466.577l.208-.152-.075-.1Z" transform="translate(-540.412 -443.324)" fill="#fff"/><path d="M573.1,466.581l.079-.245.123.041Z" transform="translate(-540.412 -443.328)" fill="#fff"/><path d="M565.722,465.5l-.118.365.183.062Z" transform="translate(-538.477 -443.112)" fill="#fff"/><path d="M565.74,465.5l.119.365-.183.062Z" transform="translate(-538.495 -443.112)" fill="#fff"/><path d="M566.124,465.861h-.387v.193Z" transform="translate(-538.511 -443.205)" fill="#fff"/><path d="M566.111,465.861l-.313.226-.112-.155Z" transform="translate(-538.498 -443.205)" fill="#fff"/><path d="M565.269,465.861l.313.226.112-.155Z" transform="translate(-538.39 -443.205)" fill="#fff"/><path d="M565.269,465.861h.386v.193Z" transform="translate(-538.39 -443.205)" fill="#fff"/><path d="M565.964,466.314l-.119-.367-.184.061Z" transform="translate(-538.491 -443.227)" fill="#fff"/><path d="M565.96,466.308l-.313-.226.114-.157Z" transform="translate(-538.488 -443.222)" fill="#fff"/><path d="M565.457,466.308l.312-.226-.113-.157Z" transform="translate(-538.439 -443.222)" fill="#fff"/><path d="M565.457,466.314l.119-.367.184.061Z" transform="translate(-538.439 -443.227)" fill="#fff"/><path d="M570.617,468.9l-.04.123.062.02Z" transform="translate(-539.76 -443.99)" fill="#fff"/><path d="M570.624,468.9l.042.123-.062.02Z" transform="translate(-539.767 -443.99)" fill="#fff"/><path d="M570.752,469.021h-.129v.064Z" transform="translate(-539.772 -444.021)" fill="#fff"/><path d="M570.748,469.021l-.1.076-.036-.053Z" transform="translate(-539.768 -444.021)" fill="#fff"/><path d="M570.467,469.021l.105.076.037-.053Z" transform="translate(-539.732 -444.021)" fill="#fff"/><path d="M570.467,469.021h.13v.064Z" transform="translate(-539.732 -444.021)" fill="#fff"/><path d="M570.7,469.172l-.039-.122-.061.02Z" transform="translate(-539.766 -444.028)" fill="#fff"/><path d="M570.7,469.17l-.1-.076.037-.052Z" transform="translate(-539.765 -444.026)" fill="#fff"/><path d="M570.531,469.17l.1-.076-.037-.052Z" transform="translate(-539.748 -444.026)" fill="#fff"/><path d="M570.531,469.172l.04-.122.061.02Z" transform="translate(-539.748 -444.028)" fill="#fff"/></g></g></g></svg>