<svg xmlns="http://www.w3.org/2000/svg" xmlns:xlink="http://www.w3.org/1999/xlink" width="36" height="36" viewBox="0 0 36 36"><defs><clipPath id="a"><circle cx="18" cy="18" r="18" transform="translate(3259 568)" fill="#fff" stroke="#707070" stroke-width="1"/></clipPath><clipPath id="b"><rect width="61.714" height="36" fill="none"/></clipPath></defs><g transform="translate(-3259 -568)" clip-path="url(#a)"><g transform="translate(2820.747 211.17)"><g transform="translate(429.253 356.83)" clip-path="url(#b)"><rect width="61.714" height="36" fill="#bc0030"/><rect width="32.971" height="16.487" transform="translate(0 -0.001)" fill="#1c2a7d"/><path d="M450.677,372.256l1.416,4.355-3.705-2.692h4.579l-3.705,2.692Z" transform="translate(-434.191 -360.811)" fill="#fff"/><path d="M444.047,363.311l1.131,3.484-2.965-2.153h3.665l-2.965,2.153Z" transform="translate(-432.598 -358.503)" fill="#fff"/><path d="M457.82,362.386l1.062,3.267-2.779-2.019h3.435l-2.779,2.019Z" transform="translate(-436.183 -358.264)" fill="#fff"/><path d="M450.836,357.756l1.131,3.485L449,359.087h3.664L449.7,361.24Z" transform="translate(-434.351 -357.069)" fill="#fff"/><path d="M454.47,368.092l.708,2.178-1.853-1.347h2.29l-1.852,1.347Z" transform="translate(-435.466 -359.736)" fill="#fff"/></g></g></g></svg>