<svg xmlns="http://www.w3.org/2000/svg" xmlns:xlink="http://www.w3.org/1999/xlink" width="36" height="36" viewBox="0 0 36 36"><defs><clipPath id="a"><circle cx="18" cy="18" r="18" transform="translate(2758 377)" fill="#fff" stroke="#707070" stroke-width="1"/></clipPath><clipPath id="b"><rect width="61.715" height="36" fill="none"/></clipPath></defs><g transform="translate(-2758 -377)" clip-path="url(#a)"><g transform="translate(2125.166 -137.419)"><g transform="translate(628.834 514.419)" clip-path="url(#b)"><rect width="61.715" height="36" fill="#4a9318"/><rect width="61.715" height="25.715" transform="translate(0 5.142)" fill="#f6d128"/><rect width="61.715" height="15.43" transform="translate(0 10.285)" fill="#cb0423"/><rect width="61.715" height="5.143" transform="translate(0 15.429)"/><path d="M628.834,514.419v36h1.308l23.982-18-23.982-18Z" transform="translate(-628.834 -514.419)"/><path d="M628.834,514.419v36l23.982-18Z" transform="translate(-628.834 -514.419)" fill="#fff"/><path d="M640.511,526.356l-4.043,8.2,6.145,3.034Z" transform="translate(-630.804 -517.5)" fill="#cb0423"/><path d="M641.187,526.356l4.043,8.2-6.145,3.034Z" transform="translate(-631.48 -517.5)" fill="#cb0423"/><path d="M640.853,526.356l-3.062,8.614,6.456,2.3Z" transform="translate(-631.146 -517.5)" fill="#cb0423"/><path d="M640.737,526.356l3.061,8.614-6.455,2.3Z" transform="translate(-631.03 -517.5)" fill="#cb0423"/><path d="M650.141,534.415,641.1,533.1l-.985,6.786Z" transform="translate(-631.745 -519.24)" fill="#cb0423"/><path d="M630.206,534.415l9.042-1.314.985,6.786Z" transform="translate(-629.188 -519.24)" fill="#cb0423"/><path d="M650.386,534.784l-9.133-.252-.188,6.855Z" transform="translate(-631.991 -519.61)" fill="#cb0423"/><path d="M630.206,534.784l9.133-.252.188,6.855Z" transform="translate(-629.188 -519.61)" fill="#cb0423"/><path d="M646.243,544.573l-1.6-7.691-3.844.8Z" transform="translate(-631.922 -520.216)" fill="#cb0423"/><path d="M645.767,544.705l-6.815-3.9,1.95-3.409Z" transform="translate(-631.445 -520.348)" fill="#cb0423"/><path d="M635.7,544.705l6.815-3.9-1.95-3.409Z" transform="translate(-630.605 -520.348)" fill="#cb0423"/><path d="M635.7,544.573l1.6-7.691,3.844.8Z" transform="translate(-630.605 -520.216)" fill="#cb0423"/><path d="M643.651,541.578a10.087,10.087,0,0,1,.617-3.43,12.42,12.42,0,0,1,.82-1.787,1.781,1.781,0,0,1,.471.094c.5.14.643.114.643-.12,0-.134-.516-.593-3.036-2.7-1.7-1.423-3.09-2.545-3.16-2.545a.16.16,0,0,1-.152-.084c-.016-.046-.1-.6-.181-1.224a10.036,10.036,0,0,0-.254-1.376,1.069,1.069,0,0,0-1.022-.611.984.984,0,0,0-.757.145,1.234,1.234,0,0,1-.552.179.533.533,0,0,0-.545.523v.189l.441-.013c.241-.007.364,0,.272.02-.313.059-.187.5.182.635.4.142.381.058.381,1.92a6.943,6.943,0,0,1-.122,2.1,3.4,3.4,0,0,0,0,1.791c.065.2.118.394.119.421a3.925,3.925,0,0,1-.418.556,2.544,2.544,0,0,0-.673,1.413.69.69,0,0,1-.122.329.648.648,0,0,0-.01.734,16.488,16.488,0,0,1,.8,3.294c0,.183.03.181,1-.03a13.99,13.99,0,0,1,3.583-.069c.434.062.941.155,1.124.206.578.16.546.191.548-.555" transform="translate(-630.809 -517.867)"/><path d="M643.477,546.46a10.447,10.447,0,0,0-2.915-.237c-.551.024-1.128.068-1.284.1l-.281.055-.07-.471a2.826,2.826,0,0,1-.05-.491,5.073,5.073,0,0,1,.594-.1,18.081,18.081,0,0,1,4.477.119l.2.041v.567c0,.413-.02.563-.076.558s-.309-.065-.593-.133" transform="translate(-631.425 -522.369)" fill="#fcff2c"/><path d="M637.642,545.867c0-.136-.338-1.759-.484-2.332-.1-.391-.183-.734-.183-.766s.092.007.2.085a.779.779,0,0,0,.319.142c.313,0,.484.476.749,2.06.038.222.081.471.1.552.025.128-.009.155-.278.219-.34.082-.422.088-.422.041" transform="translate(-630.935 -521.733)" fill="#fcff2c"/><path d="M645.861,545.207c-.018-.035.007-.1.056-.145.073-.068.09-.064.09.021,0,.126-.1.208-.147.123" transform="translate(-633.227 -522.315)" fill="#fcff2c"/><path d="M639.228,544.877c.162-.18.165-.181.292-.053s.122.131.018.177a.994.994,0,0,1-.292.053l-.18,0Z" transform="translate(-631.474 -522.243)" fill="#fcff2c"/><path d="M644.687,544.992a.43.43,0,0,1,.141-.165c.1-.073.133-.064.227.08l.11.163h-.251c-.164,0-.243-.027-.227-.078" transform="translate(-632.925 -522.255)" fill="#fcff2c"/><path d="M645.376,544.861c-.072-.1-.121-.193-.11-.206a.875.875,0,0,1,.279.027l.26.049-.15.157-.149.157Z" transform="translate(-633.075 -522.221)" fill="#fcff2c"/><path d="M638.721,544.865c-.045-.131.061-.237.234-.239.139,0,.135.013-.044.2-.137.144-.154.147-.191.039" transform="translate(-631.383 -522.215)" fill="#fcff2c"/><path d="M640.581,544.719l.159-.185.156.151c.086.084.165.158.175.162a1.891,1.891,0,0,1-.316.035l-.335.023Z" transform="translate(-631.824 -522.191)" fill="#fcff2c"/><path d="M643.466,544.879l-.2-.042.145-.152.146-.151.174.2c.191.221.171.233-.263.143" transform="translate(-632.558 -522.191)" fill="#fcff2c"/><path d="M639.871,544.682l-.142-.17h.218a1.026,1.026,0,0,0,.323-.044c.085-.036.078,0-.037.169a.734.734,0,0,1-.18.215.653.653,0,0,1-.182-.17" transform="translate(-631.646 -522.171)" fill="#fcff2c"/><path d="M641.948,544.646l.174-.2.171.181a1.335,1.335,0,0,1,.171.2,1.417,1.417,0,0,1-.346.021h-.345Z" transform="translate(-632.174 -522.168)" fill="#fcff2c"/><path d="M644.129,544.7l-.142-.17h.283c.307,0,.346.053.174.226-.143.144-.145.144-.315-.056" transform="translate(-632.745 -522.191)" fill="#fcff2c"/><path d="M641.263,544.61l-.143-.168h.65l-.143.168c-.176.208-.188.208-.364,0" transform="translate(-632.005 -522.167)" fill="#fcff2c"/><path d="M642.736,544.61l-.142-.168h.65l-.143.168c-.176.208-.188.208-.364,0" transform="translate(-632.385 -522.167)" fill="#fcff2c"/><path d="M643.652,544.311c-.151-.029-.755-.091-1.343-.138a16.644,16.644,0,0,0-3.41.118c-.233.032-.289.018-.289-.062,0-.176,1.218-.289,3.1-.289.918,0,1.855.026,2.08.056.379.052.41.068.41.22,0,.18-.051.188-.546.094" transform="translate(-631.357 -522.038)" fill="#fcff2c"/><path d="M638.985,543.582a1.123,1.123,0,0,1,.278-.233.532.532,0,0,1,.19.163l.137.164-.294.044c-.162.023-.35.053-.417.069-.09.021-.063-.033.106-.207" transform="translate(-631.414 -521.885)" fill="#fcff2c"/><path d="M638.451,543.617c-.045-.135-.033-.172.072-.217a.5.5,0,0,1,.24-.033c.1.018.091.045-.071.216l-.185.2Z" transform="translate(-631.31 -521.889)" fill="#fcff2c"/><path d="M646.062,543.776c0-.032.039-.077.088-.1s.077-.006.054.061c-.037.106-.142.134-.142.036" transform="translate(-633.28 -521.968)" fill="#fcff2c"/><path d="M640.5,543.412a2.63,2.63,0,0,0,.164-.214,1.766,1.766,0,0,1,.192.18l.193.191-.356.022-.358.023Z" transform="translate(-631.803 -521.846)" fill="#fcff2c"/><path d="M644.845,543.607l-.259-.026.185-.173.185-.174.15.155c.162.17.192.274.073.255-.042-.006-.192-.023-.335-.038" transform="translate(-632.899 -521.856)" fill="#fcff2c"/><path d="M639.81,543.4l-.175-.155.291-.049a1.036,1.036,0,0,1,.314-.024c.013.015-.04.106-.116.2l-.139.178Z" transform="translate(-631.622 -521.839)" fill="#fcff2c"/><path d="M643.406,543.523l-.14-.044.154-.162c.131-.138.169-.148.25-.073a.8.8,0,0,1,.156.211c.052.108.036.123-.109.117a1.4,1.4,0,0,1-.311-.05" transform="translate(-632.559 -521.846)" fill="#fcff2c"/><path d="M645.461,543.353l-.177-.211.151.042a1.793,1.793,0,0,0,.395.044h.243l-.182.167a1.073,1.073,0,0,1-.216.168.933.933,0,0,1-.213-.21" transform="translate(-633.079 -521.832)" fill="#fcff2c"/><path d="M641.279,543.321a.606.606,0,0,1-.13-.2c0-.024.154-.046.344-.046h.344l-.115.142c-.2.251-.3.273-.442.1" transform="translate(-632.012 -521.815)" fill="#fcff2c"/><path d="M642.019,543.339c.2-.191.263-.187.39.026.088.146.085.148-.237.146l-.326,0Z" transform="translate(-632.192 -521.847)" fill="#fcff2c"/><path d="M644.061,543.274l-.141-.2h.149a1.874,1.874,0,0,1,.335.042l.186.042-.172.161a1.048,1.048,0,0,1-.194.157,1.255,1.255,0,0,1-.163-.2" transform="translate(-632.727 -521.814)" fill="#fcff2c"/><path d="M642.736,543.244l-.142-.17h.65l-.143.17c-.176.208-.188.208-.364,0" transform="translate(-632.385 -521.814)" fill="#fcff2c"/><path d="M638.4,542.307a4.473,4.473,0,0,0,.116-.455l.072-.338.666-.372a7.411,7.411,0,0,0,.907-.58c.133-.114.271-.229.31-.252a16.6,16.6,0,0,1,2.633.194c.6.1,1.651.3,1.686.334a6.807,6.807,0,0,1-.2.682c-.121.369-.232.71-.244.761-.019.07-.093.081-.3.046a24.227,24.227,0,0,0-4.98.027c-.628.1-.72.094-.666-.047" transform="translate(-631.301 -521.097)" fill="#fcff2c"/><path d="M644.888,542.044a.682.682,0,0,0-.43-1.155.619.619,0,0,0-.607.677.6.6,0,0,0,1.037.479" transform="translate(-632.71 -521.25)"/><path d="M644.286,542.084a.557.557,0,0,1,.037-.933.476.476,0,0,1,.672.479.5.5,0,0,1-.709.455" transform="translate(-632.761 -521.306)" fill="#fcff2c"/><path d="M641.6,541.966a.709.709,0,0,0-.154-1.154.567.567,0,0,0-.755.27.629.629,0,0,0,.091.827.514.514,0,0,0,.819.056" transform="translate(-631.865 -521.216)"/><path d="M641.082,541.994a.55.55,0,0,1,.194-1.013.535.535,0,0,1,.208.982c-.194.111-.217.113-.4.03" transform="translate(-631.926 -521.274)" fill="#fcff2c"/><path d="M637.681,540.088c.085-.249.075-.57-.019-.57-.05,0-.079.088-.079.237a.581.581,0,0,1-.08.321c-.067.07-.076.016-.047-.3.019-.214.01-.388-.018-.388-.054,0-.16.323-.2.607-.022.167-.023.167-.073-.03a.556.556,0,0,1,.08-.452,1.222,1.222,0,0,0,.131-.454c0-.165.116-.326.675-.931.372-.4.8-.9.962-1.111.272-.36.286-.4.275-.761a1.522,1.522,0,0,0-.048-.424c-.071-.08-.166.329-.128.551.034.2,0,.269-.394.763-.236.3-.637.751-.89,1-.467.468-.634.72-.634.958a1.612,1.612,0,0,1-.117.421.789.789,0,0,0-.082.363c.022.043.007.042-.037,0s-.056-.154-.013-.368a.983.983,0,0,0,.029-.349c-.065-.117-.142.033-.18.353-.022.184-.064.318-.093.3-.088-.061-.059-.393.047-.564a1.572,1.572,0,0,0,.152-.468,2.751,2.751,0,0,1,.7-1.365c.214-.258.388-.481.388-.493s-.056-.2-.125-.423a3.428,3.428,0,0,1-.025-1.75,3.868,3.868,0,0,1,.966-1.5c.514-.535,1-.855,1.24-.816.2.035,6.084,4.955,6.084,5.093a.1.1,0,0,1-.107.1c-.059,0-1.554-.454-3.323-1.008-2.827-.882-3.234-1.026-3.356-1.183a.7.7,0,0,1-.017-.8.642.642,0,0,0,.122-.26c0-.149-.3.231-.357.455a.975.975,0,0,0,.24.838,8.977,8.977,0,0,0,1.2.439c1,.318,1.07.35,1.123.528.128.426-.294.921-.9,1.062a1.7,1.7,0,0,0-.618.309,7.971,7.971,0,0,1-1.562,1.061,2.87,2.87,0,0,0-.5.275,1.267,1.267,0,0,0-.136.438c-.072.418-.1.484-.217.484-.068,0-.073-.037-.027-.174" transform="translate(-630.851 -519.068)" fill="#fcff2c"/><path d="M645.1,540.107a19.224,19.224,0,0,0-2.617-.388l-.966-.085.364-.148a5.722,5.722,0,0,0,.64-.31.924.924,0,0,1,.7-.131c.542.044.907-.064,1.042-.3.056-.1.112-.2.119-.21a8.427,8.427,0,0,1,.956.263l.939.289-.182.346c-.1.188-.227.444-.28.564-.111.245-.149.251-.714.113" transform="translate(-632.108 -520.642)" fill="#fcff2c"/><path d="M643.455,538.91c-.051-.035-.049-.079.01-.17.05-.075.095-.095.119-.05.056.1-.047.278-.13.22" transform="translate(-632.598 -520.677)" fill="#fcff2c"/><path d="M643.769,538.954c0-.087.044-.087.091,0,.021.038.009.068-.027.068a.066.066,0,0,1-.065-.068" transform="translate(-632.688 -520.734)" fill="#fcff2c"/><path d="M644.178,538.9c0-.058.027-.087.061-.064.079.053.079.17,0,.17-.033,0-.061-.048-.061-.106" transform="translate(-632.794 -520.719)" fill="#fcff2c"/><path d="M644.55,538.847a.269.269,0,0,1-.045-.154c0-.076.018-.082.068-.027a.183.183,0,0,1,.045.152c-.013.044-.044.056-.068.029" transform="translate(-632.878 -520.668)" fill="#fcff2c"/><path d="M643.894,538.665a.28.28,0,0,1-.044-.154c0-.076.019-.084.068-.029a.185.185,0,0,1,.045.154c-.013.044-.044.055-.068.029" transform="translate(-632.709 -520.62)" fill="#fcff2c"/><path d="M644.862,538.662c-.066-.117.009-.142.092-.03.047.064.053.1.013.1a.142.142,0,0,1-.1-.073" transform="translate(-632.964 -520.649)" fill="#fcff2c"/><path d="M644.22,538.488a.084.084,0,0,1,.027-.106c.034-.023.062.006.062.064,0,.12-.036.137-.088.042" transform="translate(-632.802 -520.602)" fill="#fcff2c"/><path d="M644.588,538.355c0-.058.027-.085.06-.064.079.055.079.17,0,.17-.033,0-.06-.048-.06-.106" transform="translate(-632.9 -520.578)" fill="#fcff2c"/><path d="M643.606,538.264c0-.119.036-.136.088-.042a.084.084,0,0,1-.027.106c-.033.023-.061-.006-.061-.064" transform="translate(-632.646 -520.547)" fill="#fcff2c"/><path d="M643.933,538.173c0-.058.027-.087.061-.064.078.053.078.17,0,.17-.033,0-.061-.048-.061-.106" transform="translate(-632.731 -520.531)" fill="#fcff2c"/><path d="M637.983,532.307c-.017-.293-.017-.973,0-1.514.035-1.119.008-1.229-.335-1.352-.28-.1-.381-.184-.381-.318,0-.085.062-.1.369-.061.322.038.367.029.349-.068-.03-.174-.456-.306-.906-.28-.354.021-.4.01-.374-.091a.556.556,0,0,1,.545-.374,1.558,1.558,0,0,0,.523-.168,1,1,0,0,1,.68-.114c.8.045.946.28,1.154,1.792.081.588.148,1.134.149,1.212,0,.1-.111.223-.39.423a5.776,5.776,0,0,0-1.2,1.216l-.154.226Z" transform="translate(-630.864 -517.914)" fill="#fcff2c"/><path d="M639.048,528.9a.236.236,0,0,0,.039-.307c-.086-.211-.186-.164-.146.07.024.139.005.171-.1.171s-.128-.042-.128-.211-.014-.2-.091-.126a.283.283,0,0,0,.009.416c.131.16.279.158.416-.012" transform="translate(-631.338 -518.041)"/></g></g></g></svg>