<svg xmlns="http://www.w3.org/2000/svg" xmlns:xlink="http://www.w3.org/1999/xlink" width="36" height="36" viewBox="0 0 36 36"><defs><clipPath id="a"><circle cx="18" cy="18" r="18" transform="translate(2717 215)" fill="#fff" stroke="#707070" stroke-width="1"/></clipPath><clipPath id="b"><rect width="61.713" height="36" fill="none"/></clipPath></defs><g transform="translate(-2717 -215)" clip-path="url(#a)"><g transform="translate(2683.921 -220.625)"><g transform="translate(30.079 435.625)" clip-path="url(#b)"><rect width="61.714" height="35.999" transform="translate(0 0.001)"/><rect width="61.714" height="12.375" fill="#fff"/><rect width="61.714" height="11.25" transform="translate(0 0.001)" fill="#317267"/><rect width="61.714" height="12.389" transform="translate(0 23.611)" fill="#fff"/><rect width="61.714" height="11.25" transform="translate(0 24.75)" fill="#f5e129"/><path d="M30.079,435.626v36l23.625-18Z" transform="translate(-30.079 -435.625)" fill="#c0003b"/><path d="M42.611,464.289l-4.389-3.214-4.383,3.215,1.7-5.169-4.411-3.175,5.44.02,1.656-5.177,1.662,5.18,5.436-.025-4.413,3.181Z" transform="translate(-30.35 -439.539)" fill="#f5e129"/><path d="M35.556,462.7h3.162a1.011,1.011,0,0,0,1.363,0c.991-.543,2.908,0,2.908,0l.377-.4-.92-3.02-.33-.354a3.523,3.523,0,0,0-2.053-.284,4.392,4.392,0,0,1-1.817-.046,7.974,7.974,0,0,0-1.511.306c-.036.03-.378.378-.378.378Z" transform="translate(-31.493 -441.554)" fill="#fff"/><path d="M39.35,462.983h0a.892.892,0,0,1-.661-.272l-3.134.013.766-3.468c.01-.018.354-.367.389-.4a7.71,7.71,0,0,1,1.531-.314,4.609,4.609,0,0,0,1.818.046,3.522,3.522,0,0,1,2.076.289l.338.36.929,3.034-.387.438a11.271,11.271,0,0,0-1.745-.232,2.465,2.465,0,0,0-1.172.237,1.251,1.251,0,0,1-.748.266m-.633-.334a.886.886,0,0,0,.633.26,1.2,1.2,0,0,0,.708-.254,2.52,2.52,0,0,1,1.212-.249,7.311,7.311,0,0,1,1.729.245l.34-.39-.929-2.984-.322-.339a3.614,3.614,0,0,0-2.021-.272,4.369,4.369,0,0,1-1.835-.049,8.469,8.469,0,0,0-1.48.3c-.029.025-.368.371-.368.371l-.792,3.4Z" transform="translate(-31.492 -441.541)"/><path d="M39.538,464.107a1.1,1.1,0,0,1-.657-.243,1.565,1.565,0,0,1,.7-.558,8.065,8.065,0,0,0-3.172-.237c-.024.013-.039-.012-.042-.033A.038.038,0,0,1,36.4,463a7.485,7.485,0,0,1,3.24.283,5.226,5.226,0,0,1,2.928-.307.038.038,0,0,1,.033.042c0,.021-.02.04-.043.032a5.2,5.2,0,0,0-2.834.271,1.638,1.638,0,0,1,.6.472,1.293,1.293,0,0,1-.786.318m.125-.765a2.068,2.068,0,0,0-.729.511,1.1,1.1,0,0,0,1.338-.073,1.579,1.579,0,0,0-.61-.438" transform="translate(-31.701 -442.665)"/><path d="M40.768,462.334l-.037-3.327h.06Z" transform="translate(-32.828 -441.66)"/><path d="M44.983,461.705l-.625-2.63.059-.013Z" transform="translate(-33.764 -441.674)"/><path d="M36.752,460.4h-.008a.036.036,0,0,1-.028-.045l.315-1.364a.035.035,0,0,1,.045-.027.037.037,0,0,1,.028.044l-.315,1.364a.037.037,0,0,1-.036.029" transform="translate(-31.792 -441.649)"/><path d="M32.788,461.588l.743.872a.216.216,0,0,0,.243,0l1.1-1.323.463-.573a.367.367,0,0,0,.088-.265l.885-.786c.072,0,.115.013.188.018-.085-.022-.148-.064-.081-.158l.2-.154.154.2a2.761,2.761,0,0,1-.243.286h-.242l-.463.42.2.179.3.835.375-.264-.242-.861.529-.573-.2-.309.133-.177s1.831,1.154,2.536.845c.019.007.043-.822.043-.822s-1.9-.2-1.94-.573.419-.418.419-.418l-.2-.287.045-.154.33.418.75-.639,4.408,5.025c.241-.1.292-.157.309-.4l-4.32-4.958.331-.354a.259.259,0,0,0,.088-.22l.507-.441a.635.635,0,0,1,.331.264l1.393-1.181a.216.216,0,0,0,.224.032l2.3-2.211-2.511,1.773-.088-.065c0-.073.091-.093,0-.22s-.243.111-.265.111-.364-.122-.438-.274l-.024.406-.64.6-.484-.023-.706.684-.088.263.111.222a4.262,4.262,0,0,1-.375.307c0-.022-.076-.1-.079-.107l.321-.289.045-.2-.108-.168c-.033.023-.444.455-.466.41L37.5,454.966l.065-.242-.749-.816a.544.544,0,0,0-.794.486c-.068.139-.64.022-.64.022l-.309.067-1.741,2.468.97,1.168,1.984-2.512.059-.711.415.465a.656.656,0,0,0,.4-.044l1.175,1.312-.2.191c.066.074.111.12.177.194.067-.045.13-.1.2-.142.022.03.059.085.081.114-.1.053-.168.126-.266.18-.157-.1-.309-.23-.3-.435l-.661.551-.022.111-1.962,1.631-.176.022-.045.507,1.279-1.058v-.155l.132.111.991-.793s.066.088.045.088-.881.793-.881.793l-.023.088-.154.132-.088-.065-1.19,1.057H35.1l-.661.661a.911.911,0,0,0-.463.132Z" transform="translate(-30.778 -440.08)"/><path d="M33.644,462.522a.271.271,0,0,1-.142-.043l-.752-.88,1.187-1.1a.949.949,0,0,1,.484-.142l.639-.65.2-.011,1.166-1.048.135.063.118-.2c.668-.623.84-.773.893-.809h0c-.02,0-.034-.021-.048-.04l-.938.8-.18-.11.062.126-1.292,1.087-.017-.539.208-.056,1.943-1.623.008-.089.675-.572a.7.7,0,0,0,.342.432c.009-.027.05-.058.091-.088a1.038,1.038,0,0,1,.138-.093l-.059-.011-.179.1-.226-.2.2-.243-1.177-1.259c-.05.072-.217.077-.374.055l-.438-.476.007.688-1.992,2.533-1.028-1.167,1.739-2.514.332-.082a2.951,2.951,0,0,0,.418.046c.16,0,.191-.036.2-.047a.572.572,0,0,1,.84-.5l.764.826-.057.277c.022,0,1.145,1.27,1.181,1.31.017-.023.228-.232.318-.321.05-.051.089-.088.1-.094l.114.126.046-.138.714-.7.513.012.612-.585.013-.38a1.747,1.747,0,0,0,.479.239c.05-.07.119-.144.2-.144a.381.381,0,0,1,.093.047c.07.1.051.151.024.2l.057.079,2.467-1.774a.037.037,0,0,1,.05.007.037.037,0,0,1,0,.05l-2.3,2.212a.237.237,0,0,1-.277-.033l-1.342,1.183A.992.992,0,0,0,40.21,456l-.47.433a.228.228,0,0,1-.085.217l-.331.354c.044,0,4.283,4.866,4.32,4.908-.008.292-.077.357-.322.457l-4.451-5.035-.7.642-.384-.424.021.14.194.256c-.03.059-.248.081-.355.214a.285.285,0,0,0-.057.221c.03.251,1.185.465,1.906.541.01.9,0,.9-.046.9a.706.706,0,0,1-.292.053,6.024,6.024,0,0,1-2.264-.9l-.083.168.2.266-.533.618.251.825-.389.3-.361-.852-.191-.163.462-.476.267-.01c.007-.011.119-.148.213-.271l-.154-.152-.145.16c-.01.057,0,.076.068.092a.038.038,0,0,1,.027.042c0,.019-.024.027-.039.032l-.188-.017-.858.776a.3.3,0,0,1-.085.26l-1.563,1.9a.263.263,0,0,1-.15.051m2.787-3.814-1.143,1.056-.2.01-.635.65a1,1,0,0,0-.469.137L32.8,461.6l.747.819a.186.186,0,0,0,.194-.007l1.554-1.887a.327.327,0,0,0,.081-.239l.9-.816h.075l0-.008a.136.136,0,0,1,.03-.126l.206-.162.207.206c-.231.346-.253.346-.273.346h-.242l-.438.41.2.122.315.85.318-.281-.256-.821.537-.608-.2-.263.134-.22a7.188,7.188,0,0,0,2.274.882.694.694,0,0,0,.277-.049c-.005-.026.013-.5.021-.789-.156.02-1.893-.174-1.939-.568a.352.352,0,0,1,.073-.277.609.609,0,0,1,.378-.184l-.226-.229.039-.185.4.406.7-.644,4.46,5.029a.355.355,0,0,0,.243-.372c-.02-.01-.351-.389-4.311-4.934l.332-.4a.225.225,0,0,0,.078-.2l.519-.469a.592.592,0,0,1,.387.271l1.338-1.188a.684.684,0,0,0,.169.041l1.969-1.854-2.075,1.466-.132-.065c-.015-.012,0-.093.01-.11.017-.032.029-.053-.018-.119-.082-.02-.139.046-.171.081a.239.239,0,0,1-.063.044.866.866,0,0,1-.473-.295l.047.391-.651.621-.512-.013-.677.673-.073.256.1.186c-.369.362-.391.362-.407.362-.042-.043-.072-.078-.085-.092s-.031-.071-.02-.082l.321-.288.016-.1-.071-.177a.269.269,0,0,1-.05.058c-.265.262-.349.334-.392.334-.07-.056-1.224-1.361-1.224-1.361l.058-.277-.74-.78a1.048,1.048,0,0,0-.246-.036c-.271,0-.433.168-.482.5-.033.07-.119.1-.267.1a2.519,2.519,0,0,1-.418-.047l-.293.066-1.718,2.453.968,1.122,1.926-2.512.05-.691.481.444a.777.777,0,0,1,.121,0,.49.49,0,0,0,.231-.05l1.22,1.319-.2.243.091.045.089.1.05-.079.1-.07c.015-.009.075.043.087.059l.045.063a.564.564,0,0,1-.141.143,1.039,1.039,0,0,1-.138.093c-.2-.108-.365-.246-.352-.47l-.6.582-.009.088L35.4,459.037l-.2.03-.012.473,1.217-1.09-.014-.126.194.081.944-.792c.122.1.113.117.105.132-.065.045-.567.5-.894.806l-.011.07-.166.151Zm2.82-2.488-.007.042-.333.309c.06.022.085.044.091.067.005-.057.169-.2.314-.323Z" transform="translate(-30.768 -440.066)"/></g></g></g></svg>