<svg xmlns="http://www.w3.org/2000/svg" xmlns:xlink="http://www.w3.org/1999/xlink" width="36" height="36" viewBox="0 0 36 36"><defs><clipPath id="a"><circle cx="18" cy="18" r="18" transform="translate(2523 395)" fill="#fff" stroke="#707070" stroke-width="1"/></clipPath><clipPath id="b"><rect width="61.713" height="36" fill="none"/></clipPath></defs><g transform="translate(-2523 -395)" clip-path="url(#a)"><g transform="translate(1980.957 116.96)"><g transform="translate(529.044 278.04)" clip-path="url(#b)"><rect width="61.713" height="36" fill="#d30025"/><path d="M567.5,290.171a9,9,0,1,1-9,9,9,9,0,0,1,9-9" transform="translate(-536.647 -281.171)" fill="#fff"/><path d="M568.287,293.2a6.75,6.75,0,1,1-6.751,6.75,6.75,6.75,0,0,1,6.751-6.75" transform="translate(-537.43 -281.954)" fill="#d30025"/><path d="M571.183,295.023a5.4,5.4,0,1,1-5.4,5.4,5.4,5.4,0,0,1,5.4-5.4" transform="translate(-538.526 -282.423)" fill="#fff"/><path d="M567.6,302.068l3.851,1.252.626-1.925" transform="translate(-538.996 -284.068)" fill="#d30025"/><path d="M567.6,301.867l3.851-1.252.626,1.925" transform="translate(-538.996 -283.867)" fill="#d30025"/><path d="M571.374,297.111v4.05H573.4" transform="translate(-539.969 -282.962)" fill="#d30025"/><path d="M571.374,297.111l2.381,3.277-1.639,1.191" transform="translate(-539.969 -282.962)" fill="#d30025"/><path d="M571.374,305.94l2.381-3.276-1.639-1.19" transform="translate(-539.969 -284.088)" fill="#d30025"/><path d="M571.374,306.085v-4.05H573.4" transform="translate(-539.969 -284.233)" fill="#d30025"/><path d="M576.138,299.094l-3.851,1.252.624,1.926" transform="translate(-540.205 -283.474)" fill="#d30025"/><path d="M576.079,299.094,573.7,302.37l-1.639-1.189" transform="translate(-540.146 -283.474)" fill="#d30025"/><path d="M576.079,304.372,573.7,301.1l-1.639,1.189" transform="translate(-540.146 -283.991)" fill="#d30025"/><path d="M576.138,304.406l-3.851-1.252.624-1.926" transform="translate(-540.205 -284.025)" fill="#d30025"/></g></g></g></svg>