<svg xmlns="http://www.w3.org/2000/svg" xmlns:xlink="http://www.w3.org/1999/xlink" width="36" height="36" viewBox="0 0 36 36"><defs><clipPath id="a"><circle cx="18" cy="18" r="18" transform="translate(2571 462)" fill="#fff" stroke="#707070" stroke-width="1"/></clipPath><clipPath id="b"><rect width="61.713" height="36" fill="none"/></clipPath></defs><g transform="translate(-2571 -462)" clip-path="url(#a)"><g transform="translate(2338.334 26.375)"><g transform="translate(229.665 435.625)" clip-path="url(#b)"><rect width="61.714" height="12.086" transform="translate(0 0.001)" fill="#549b14"/><rect width="61.714" height="11.828" transform="translate(0 12.086)" fill="#fff"/><rect width="61.714" height="12.086" transform="translate(0 23.914)" fill="#d00428"/><path d="M262.478,455.175v5.778a.873.873,0,0,0,.89.924h1.189c.3,0,.594.462.594.462s.283-.462.593-.462h1.189a.873.873,0,0,0,.89-.924v-5.778Z" transform="translate(-238.134 -440.671)" fill="#cacaca"/><path d="M265.14,462.385l-.026-.039c0-.005-.292-.449-.568-.449h-1.188a.9.9,0,0,1-.921-.955v-5.778l5.376-.03.03,5.808a.9.9,0,0,1-.921.955h-1.187c-.29,0-.565.444-.568.448Zm2.642-7.221-5.316.03.03,5.747a.843.843,0,0,0,.861.894h1.188c.261,0,.513.325.593.438.078-.114.323-.438.6-.438h1.187a.843.843,0,0,0,.861-.894Z" transform="translate(-238.123 -440.66)"/><path d="M260.594,463.023c-.3,0-.6-.232-.6-.462V461.4c.261.2,1.493.924,1.194,1.156a.5.5,0,0,1-.6,0c.005,0,.005.462.005.462" transform="translate(-237.492 -442.279)" fill="#cacaca"/><path d="M260.613,463.053h-.03c-.319,0-.632-.244-.632-.493V461.4a.791.791,0,0,1,.3.151c.5.338.993.687,1,.909a.141.141,0,0,1-.058.119.6.6,0,0,1-.6.022,1.7,1.7,0,0,1,.023.416Zm-.651-1.624.048,1.131c0,.207.269.417.542.431,0-.1,0-.4,0-.425.065-.013.188.067.338.067a.435.435,0,0,0,.27-.1.077.077,0,0,0,.035-.069c-.007-.21-.612-.618-.973-.861-.111-.074-.2-.136-.255-.177" transform="translate(-237.482 -442.279)"/><path d="M260.738,462.94c.3-.231.3.231.6,0l-.3,1.387c-.289-.043-.3,0-.467-.231a2.648,2.648,0,0,1,.169-1.156" transform="translate(-237.641 -442.658)" fill="#cacaca"/><path d="M271.089,463.023c.3,0,.6-.232.6-.462V461.4c-.261.2-1.493.924-1.194,1.156a.5.5,0,0,0,.6,0c-.005,0-.005.462-.005.462" transform="translate(-240.192 -442.279)" fill="#cacaca"/><path d="M271.079,463.044l-.03-.03c0-.22,0-.364,0-.43a.5.5,0,0,1-.583-.008.141.141,0,0,1-.058-.119c.007-.222.5-.571,1-.909.109-.074.2-.135.251-.176l.049,1.18c0,.249-.313.493-.633.493m-.016-.513a1.616,1.616,0,0,1,.046.452c.273-.014.542-.224.542-.431V461.4c0,.065-.095.127-.206.2-.361.243-.967.651-.973.861a.078.078,0,0,0,.035.069.56.56,0,0,0,.557,0" transform="translate(-240.181 -442.27)"/><path d="M271.048,462.94c-.3-.231-.3.231-.6,0l.3,1.387c.289-.043.3,0,.467-.231a2.659,2.659,0,0,0-.168-1.156" transform="translate(-240.192 -442.658)" fill="#cacaca"/><path d="M267.428,465.042c0-.231-.6-.693-.6-.924s.6.232,1.79.232,1.791-1.156,1.493-1.387a2.03,2.03,0,0,1,.3,1.156c0,.462-.6.924-1.791.924Z" transform="translate(-239.258 -442.681)" fill="#cacaca"/><path d="M268.611,465.078h-1.194a1.438,1.438,0,0,0-.32-.472c-.158-.183-.306-.355-.306-.483,0-.062.074-.122.4-.026a4.769,4.769,0,0,0,1.424.227,1.645,1.645,0,0,0,1.295-.611.879.879,0,0,0,.237-.62c-.02-.036-.042-.072-.065-.108.085-.016.111.035.123.091l-.053.02a1.678,1.678,0,0,1,.284,1.027c0,.46-.57.955-1.821.955m-1.719-.989c-.042.139.108.311.251.478.157.182.3.354.3.481l1.163-.03c1.21,0,1.761-.464,1.761-.894a2.061,2.061,0,0,0-.212-1,.7.7,0,0,1-.206.628,1.706,1.706,0,0,1-1.342.634,4.789,4.789,0,0,1-1.441-.23,1.29,1.29,0,0,0-.278-.066" transform="translate(-239.247 -442.686)"/><path d="M263.379,465.042c0-.231.6-.693.6-.924s-.6.232-1.791.232-1.79-1.156-1.492-1.387a2.029,2.029,0,0,0-.3,1.156c0,.462.6.924,1.79.924Z" transform="translate(-237.596 -442.681)" fill="#cacaca"/><path d="M263.4,465.064h-1.223c-1.251,0-1.821-.495-1.821-.955a2.1,2.1,0,0,1,.231-1.051.224.224,0,0,1,.079-.128.182.182,0,0,1-.023.154l-.052-.019a1.385,1.385,0,0,0,.291.635,1.646,1.646,0,0,0,1.295.612,4.765,4.765,0,0,0,1.424-.228c.321-.1.4-.036.4.026,0,.128-.148.3-.306.483-.143.165-.292.338-.292.441Zm-2.813-2a2.773,2.773,0,0,0-.171,1.048c0,.43.551.894,1.761.894h1.166a1.237,1.237,0,0,1,.3-.45c.143-.167.292-.338.292-.444a.5.5,0,0,0-.319.032,4.8,4.8,0,0,1-1.441.231,1.705,1.705,0,0,1-1.342-.635.914.914,0,0,1-.248-.675" transform="translate(-237.586 -442.672)"/><path d="M264.417,465.214c0-.231.6-.461.6-.694v1.156h-.6Z" transform="translate(-238.634 -443.083)" fill="#cacaca"/><path d="M267.427,465.214c0-.231-.6-.462-.6-.694v1.156h.6Z" transform="translate(-239.258 -443.083)" fill="#cacaca"/><path d="M264.417,465.455a4.193,4.193,0,0,0,2.388,0v.924a4.193,4.193,0,0,1-2.388,0Z" transform="translate(-238.634 -443.324)" fill="#cacaca"/><path d="M265.6,466.583c-.287,0-1.223-.015-1.223-.2v-.924a3.061,3.061,0,0,0,1.223.144c.75,0,1.164-.085,1.164-.144a.048.048,0,0,1,0,.027l.059.9c0,.189-.936.2-1.224.2m-1.223-1.121.06.917c0,.059.414.144,1.163.144s1.164-.085,1.164-.144v-.891c-.054.157-.895.171-1.164.171s-1.2-.015-1.223-.2" transform="translate(-238.624 -443.324)"/><path d="M264.639,464.981a6.781,6.781,0,0,1-.824-.044c-.354-.045-.4-.109-.4-.159,0-.131.151-.247.31-.371.14-.109.286-.222.286-.323-.04-.051-.169-.013-.319.032a4.828,4.828,0,0,1-1.441.23,1.667,1.667,0,0,1-1.559-1.016c-.067-.2-.049-.35.048-.426a.229.229,0,0,1,.335,0c.073.056.131.1.261,0l.037.048a.23.23,0,0,1-.335,0c-.072-.056-.129-.1-.261,0-.075.058-.085.191-.028.358a1.6,1.6,0,0,0,1.5.974,4.768,4.768,0,0,0,1.424-.227c.2-.059.309-.091.364-.05l.013.009.02.068c0,.131-.15.247-.31.37-.141.11-.286.223-.286.323,0,.059.414.143,1.163.143s1.163-.085,1.163-.143c0-.1-.145-.214-.286-.323-.16-.123-.309-.24-.309-.37l.033-.076c.055-.041.165-.008.364.05a4.729,4.729,0,0,0,1.424.228,1.6,1.6,0,0,0,1.5-.974c.057-.167.047-.3-.028-.358-.131-.1-.188-.056-.261,0a.231.231,0,0,1-.336,0,.267.267,0,0,0,.3-.048.228.228,0,0,1,.335,0c.1.076.115.231.048.426a1.667,1.667,0,0,1-1.559,1.016,4.818,4.818,0,0,1-1.441-.23c-.15-.045-.28-.083-.311-.059-.008.128.137.241.278.351.16.123.309.24.309.37,0,.188-.936.2-1.223.2" transform="translate(-237.663 -442.647)"/><path d="M270.877,465.056l-.306-.512.053-.022.307.513Z" transform="translate(-240.223 -443.083)"/><path d="M270.585,464.98h.065a.256.256,0,0,1,0,.153.137.137,0,0,1-.088.082.189.189,0,0,1-.128,0,.286.286,0,0,1-.114-.079.564.564,0,0,1-.092-.135.415.415,0,0,1-.046-.152.185.185,0,0,1,.025-.117.161.161,0,0,1,.085-.066.18.18,0,0,1,.126.005.3.3,0,0,1,.116.094l-.047.034a.229.229,0,0,0-.084-.07.115.115,0,0,0-.083,0,.1.1,0,0,0-.065.056.146.146,0,0,0-.007.094.488.488,0,0,0,.037.106.53.53,0,0,0,.073.113.183.183,0,0,0,.086.059.132.132,0,0,0,.083,0,.092.092,0,0,0,.062-.06.184.184,0,0,0-.006-.115" transform="translate(-240.123 -443.118)"/><path d="M270.15,465.372l-.2-.546.058-.015.2.547Z" transform="translate(-240.062 -443.158)"/><path d="M269.638,465.446l-.053-.5-.148.011-.007-.068.356-.025.007.068-.148.01.053.5Z" transform="translate(-239.928 -443.171)"/><path d="M268.938,465.306l.056-.006a.2.2,0,0,0,.019.07.11.11,0,0,0,.046.044.134.134,0,0,0,.069.017.14.14,0,0,0,.06-.013.087.087,0,0,0,.039-.036.1.1,0,0,0,.013-.049.092.092,0,0,0-.012-.046.094.094,0,0,0-.041-.034.628.628,0,0,0-.08-.027.408.408,0,0,1-.088-.036.14.14,0,0,1-.048-.054.148.148,0,0,1-.016-.07.17.17,0,0,1,.02-.081.131.131,0,0,1,.056-.057.177.177,0,0,1,.082-.019.186.186,0,0,1,.088.02.142.142,0,0,1,.06.06.219.219,0,0,1,.022.09l-.057.006a.131.131,0,0,0-.032-.082.131.131,0,0,0-.157,0,.08.08,0,0,0-.025.06.07.07,0,0,0,.019.05.206.206,0,0,0,.089.041.528.528,0,0,1,.1.036.151.151,0,0,1,.058.059.157.157,0,0,1,.019.081.183.183,0,0,1-.02.086.15.15,0,0,1-.059.062.165.165,0,0,1-.087.023.214.214,0,0,1-.1-.023.16.16,0,0,1-.065-.068.232.232,0,0,1-.024-.1" transform="translate(-239.801 -443.183)"/><path d="M268.609,464.91l.059,0-.018.329a.461.461,0,0,1-.024.136.161.161,0,0,1-.06.081.167.167,0,0,1-.107.027.179.179,0,0,1-.1-.032.147.147,0,0,1-.053-.082.481.481,0,0,1-.01-.144l.019-.33.059,0-.019.329a.4.4,0,0,0,0,.11.1.1,0,0,0,.035.056.1.1,0,0,0,.064.021.111.111,0,0,0,.1-.034.273.273,0,0,0,.036-.145Z" transform="translate(-239.635 -443.18)"/><path d="M267.725,465.287l.054-.01a.165.165,0,0,0,.019.09.055.055,0,0,0,.047.025.06.06,0,0,0,.039-.013.07.07,0,0,0,.022-.036.325.325,0,0,0,.006-.071v-.394h.06v.389a.338.338,0,0,1-.015.111.111.111,0,0,1-.042.059.121.121,0,0,1-.07.021.1.1,0,0,1-.091-.043.215.215,0,0,1-.03-.128" transform="translate(-239.488 -443.175)"/><path d="M266.356,466.491v-.079l.231-.413a.783.783,0,0,1,.047-.077h-.252v-.075h.323v.075l-.254.448-.027.044h.288v.076Z" transform="translate(-239.135 -443.425)"/><path d="M261.924,465.427l.142-.634.059.009-.142.634Z" transform="translate(-237.991 -443.153)"/><path d="M261.063,465.113l.371-.568.053.024-.082.537.291-.445.05.022-.371.568-.053-.024.082-.538-.292.446Z" transform="translate(-237.769 -443.089)"/><path d="M261.251,464.4l.043.035-.32.263a.89.89,0,0,1-.143.1.29.29,0,0,1-.12.034.157.157,0,0,1-.105-.036.113.113,0,0,1-.047-.082.153.153,0,0,1,.037-.1.748.748,0,0,1,.127-.125l.32-.263.042.034-.319.264a.677.677,0,0,0-.1.093.111.111,0,0,0-.026.065.07.07,0,0,0,.028.053.111.111,0,0,0,.1.024.467.467,0,0,0,.16-.1Z" transform="translate(-237.638 -443.007)"/><path d="M262.351,465.489l.021-.645.156,0a.264.264,0,0,1,.08.011.145.145,0,0,1,.065.047.283.283,0,0,1,.05.112.583.583,0,0,1,.013.154.607.607,0,0,1-.016.13.434.434,0,0,1-.034.093.213.213,0,0,1-.043.057.162.162,0,0,1-.056.031.215.215,0,0,1-.072.009Zm.062-.075.1,0a.157.157,0,0,0,.07-.011.094.094,0,0,0,.042-.032.235.235,0,0,0,.036-.081.523.523,0,0,0,.016-.124.4.4,0,0,0-.019-.156.138.138,0,0,0-.053-.074.174.174,0,0,0-.077-.015l-.095,0Z" transform="translate(-238.101 -443.166)"/><path d="M262.913,465.495l.174-.645h.064l.185.645h-.068l-.053-.2h-.188l-.05.2Zm.131-.265h.153l-.047-.178c-.015-.054-.025-.1-.032-.134a1.159,1.159,0,0,1-.024.122Z" transform="translate(-238.246 -443.168)"/><path d="M263.547,465.5v-.645h.156a.244.244,0,0,1,.08.01.136.136,0,0,1,.066.046.275.275,0,0,1,.053.111.6.6,0,0,1,.019.153.627.627,0,0,1-.013.131.37.37,0,0,1-.03.094.229.229,0,0,1-.042.058.158.158,0,0,1-.054.033.212.212,0,0,1-.072.011Zm.06-.076h.1a.169.169,0,0,0,.07-.013.093.093,0,0,0,.04-.033.235.235,0,0,0,.033-.081.541.541,0,0,0,.013-.125.4.4,0,0,0-.024-.155.141.141,0,0,0-.056-.073.167.167,0,0,0-.077-.013h-.095Z" transform="translate(-238.41 -443.168)"/><path d="M265.271,466.491v-.644h.17a.276.276,0,0,1,.069.006.111.111,0,0,1,.056.03.141.141,0,0,1,.036.062.259.259,0,0,1,.014.088.251.251,0,0,1-.036.139.146.146,0,0,1-.133.057h-.116v.262Zm.059-.338h.117a.1.1,0,0,0,.082-.03.139.139,0,0,0,.024-.087.151.151,0,0,0-.014-.069.076.076,0,0,0-.038-.039.181.181,0,0,0-.056-.006h-.116Z" transform="translate(-238.855 -443.425)"/><path d="M265.77,466.49l.174-.644h.065l.185.644h-.068l-.053-.194h-.188l-.05.194Zm.131-.264h.153l-.047-.179c-.015-.054-.025-.1-.032-.134a1,1,0,0,1-.025.123Z" transform="translate(-238.984 -443.425)"/><path d="M271.061,464.973l-.3-.551.048-.029.566.391-.05.03-.169-.12-.139.085.094.165Zm-.079-.253.113-.069-.154-.11c-.047-.033-.085-.061-.113-.084a1.035,1.035,0,0,1,.064.1Z" transform="translate(-240.272 -443.05)"/><path d="M265.728,458.933a6.327,6.327,0,0,1-.39,2.974c-.044.116.073.172.171.2s.146-.1.146-.123.025.2.122.173.2-.173.2-.173.049.222.171.222.122-.271.122-.271c0,.024.085.232.182.232s.248-.091.162-.241a6.674,6.674,0,0,1-.588-2.989.7.7,0,0,1,.574-.562l-.111-.174a.686.686,0,0,0-.3.161,1.277,1.277,0,0,0-.232.256v-.835H265.7l.024.763a2.261,2.261,0,0,0-.208-.209.607.607,0,0,0-.462-.073l-.013.166c.155.033.353-.032.451.116.122.122.232.222.232.392" transform="translate(-238.797 -441.343)" fill="#612c0d"/><path d="M266.138,462.222c-.111,0-.168-.138-.191-.207a.275.275,0,0,1-.168.157c-.1.017-.12-.066-.14-.124a.122.122,0,0,1-.111.079.308.308,0,0,1-.22-.12.143.143,0,0,1,0-.121,6.081,6.081,0,0,0,.4-2.75c-.007-.088-.011-.158-.011-.212,0-.148-.091-.237-.2-.351a.318.318,0,0,0-.3-.116.936.936,0,0,1-.16-.012l-.011-.2a.436.436,0,0,1,.513.053,2.384,2.384,0,0,1,.211.211l-.077-.742.274-.031.028.8a.742.742,0,0,1,.185-.211.7.7,0,0,1,.294-.16l.165.182a.794.794,0,0,0-.57.578,6.165,6.165,0,0,0,.584,2.974.171.171,0,0,1,.008.18.238.238,0,0,1-.2.107c-.076,0-.139-.088-.176-.162,0,.088-.033.2-.128.2m-.2-.269c.067.065.116.208.2.208s.091-.162.091-.24c.065.029.144.2.212.2a.18.18,0,0,0,.144-.076.114.114,0,0,0-.009-.119,6.379,6.379,0,0,1-.591-2.977.73.73,0,0,1,.6-.621l-.136-.128a1.671,1.671,0,0,0-.259.168,1.281,1.281,0,0,0-.227.25V458.6c-.012-.008-.012-.026,0-.049l-.051-.783-.213.03.054.732c-.052.018-.136-.077-.258-.185a.543.543,0,0,0-.437-.067l.012.139c.023-.022.075-.02.125-.021a.346.346,0,0,1,.321.118.577.577,0,0,1,.237.41c0,.053.005.122.011.208a6.142,6.142,0,0,1-.4,2.777.172.172,0,0,0,.15.157.116.116,0,0,0,.109-.095c.091.131.124.145.137.145a.414.414,0,0,0,.185-.161" transform="translate(-238.791 -441.332)"/><path d="M263.458,457.6v-.009c0,.022,0,.012.013-.027a.189.189,0,0,1,.059-.079c.043-.012.106,0,.155-.01.033-.035.083.046.083-.009.062,0,.063-.049.084-.071.058-.005.071-.059.119-.027.04.013.006-.009.072-.009.039.007.059.024.1.009a.628.628,0,0,0,.024-.108.26.26,0,0,1-.012-.116c.033-.032.09.027.143.018.015-.039.059-.037.036-.071a.229.229,0,0,1,0-.116c.019-.039.046-.039.1-.062.015-.036,0-.065.011-.107.057,0,.056-.013.06-.054a.294.294,0,0,1,.072-.081c.028-.025.062-.022.083-.062s.019-.05.071-.062a.284.284,0,0,0,.1-.036,1.036,1.036,0,0,1,.084-.1,1.449,1.449,0,0,1,.274.019.7.7,0,0,1,.108-.089.286.286,0,0,1,.143-.027.312.312,0,0,0,.155.017.1.1,0,0,1,.119-.027c.05.024.076.023.095.063s.022.067.1.072a.193.193,0,0,1,.131.044c.076.024.072.011.072.063.053,0,.058-.005.059.036a.345.345,0,0,1,.1.045.125.125,0,0,0,.107.044c.052-.016.068-.016.072-.062.039-.01.045-.039.059-.072.03-.031.05-.035.119-.035.062.019.059.038.048.08.037.006.053,0,.059.036a.046.046,0,0,1-.012.072.132.132,0,0,1,.059.08c-.02.025-.008.062,0,.09a.958.958,0,0,0,.119.045.435.435,0,0,0,.143.044.225.225,0,0,1,.143.019c.03.032.032.072.059.089s.083.028.108.053.051.046.107.053a1.054,1.054,0,0,1,.084.09c.013.028.019.079.036.116v.125c0,.047-.011.074-.011.125-.011.026-.024.035-.024.071a1.082,1.082,0,0,0-.131.206c0,.047.012.068.012.117a.273.273,0,0,1-.107.07c-.039.035-.062.048-.072.1-.022.029-.02.027-.072.027s-.111,0-.166.01-.067,0-.1-.018a.3.3,0,0,0-.167-.01.178.178,0,0,0-.107-.027,1.17,1.17,0,0,1-.144.009.145.145,0,0,0-.119-.036.585.585,0,0,1-.155.009.1.1,0,0,1-.083-.063.278.278,0,0,0-.108-.035.62.62,0,0,1-.155-.009.3.3,0,0,1-.108-.027.257.257,0,0,0-.083-.063c-.053,0-.085,0-.108-.019a.952.952,0,0,0-.119-.08.192.192,0,0,1-.095-.089c0-.042.011-.053-.047-.053a.167.167,0,0,1-.131.035.625.625,0,0,1-.131-.008.3.3,0,0,0-.131-.036.453.453,0,0,1-.143.044c-.049.022-.079.027-.1.063a.491.491,0,0,1-.131.062c-.033.024-.065.028-.083.072a.278.278,0,0,0-.024.108.114.114,0,0,1-.024.107.5.5,0,0,1-.108.063.151.151,0,0,1-.108-.018,1.214,1.214,0,0,0-.143-.027.219.219,0,0,1-.119-.044l.119.044a.219.219,0,0,1-.119-.044.31.31,0,0,0-.167-.062c-.074,0-.106,0-.119.053.043.008.009.027-.011.036a.371.371,0,0,1-.12.045c-.019.013-.015-.013-.047-.019a.6.6,0,0,0-.119-.045.909.909,0,0,0-.083-.089.658.658,0,0,0-.085-.072c-.016-.019-.059-.02-.083-.036-.015-.033-.046-.092-.036-.125.024-.016.038-.077.071-.089.048-.027.067,0,.132,0s-.085-.073-.024-.072a.1.1,0,0,0,.084-.053Z" transform="translate(-238.282 -440.96)" fill="#3b9312"/><path d="M264.245,458.238l-.079-.022c-.039-.01-.086-.019-.139-.026l-.07-.026a.112.112,0,0,1-.062-.024.27.27,0,0,0-.151-.056c-.079,0-.082,0-.088.03a.23.23,0,0,1-.154.1l-.108-.039a.3.3,0,0,0-.071-.024l-.076-.075-.2-.151a.216.216,0,0,1-.03-.134c.043-.068.06-.1.09-.109l.093-.009.075-.094.176-.024a.139.139,0,0,1,.052-.109l.008-.007.292-.05.089-.056.184-.01c.035-.011.044-.044.048-.081-.014-.009-.013-.054-.013-.093v-.03l.054-.03.108.028a.786.786,0,0,1,.018-.168.119.119,0,0,1,.077-.066v-.005l.03-.1.059-.049a.294.294,0,0,1,.083-.1l.1-.038-.026-.015a.111.111,0,0,1,.091-.077l.1-.007-.025-.019a1.092,1.092,0,0,1,.087-.1.612.612,0,0,1,.2,0,.813.813,0,0,0,.091.009.319.319,0,0,1,.093-.085.326.326,0,0,1,.157-.03l.111.022a.3.3,0,0,1,.116-.038l.093.024a.12.12,0,0,1,.076.063l.068.085v-.03a.2.2,0,0,1,.125.036c.1.033.108.043.108.095a.485.485,0,0,1,.141.062.11.11,0,0,0,.092.039v-.022l.107-.1a.161.161,0,0,1,.142-.045c.087.025.093.061.076.119l.073.073c-.005.018.019.05.034.1v.086c.045.01.065.019.1.028a.441.441,0,0,0,.139.045.3.3,0,0,1,.151.019l.011.005.037.112.056-.007a.191.191,0,0,1,.073.04h.011l.1.053a.841.841,0,0,1,.087.093l.041.133-.04.338a.476.476,0,0,1-.076.1.192.192,0,0,1-.036.07v0l0,.129a.253.253,0,0,1-.126.1c-.036.033-.047.044-.053.077l-.005.025-.079.027h0a1.707,1.707,0,0,0-.181.01c-.062,0-.086,0-.117-.025a.338.338,0,0,0-.078-.01l-.084,0a.161.161,0,0,0-.094-.024,1.1,1.1,0,0,1-.143.01.162.162,0,0,0-.119-.036.285.285,0,0,1-.095.01c-.127-.014-.142-.035-.165-.07l-.086-.059v.03a.648.648,0,0,1-.165-.01.279.279,0,0,1-.112-.029.3.3,0,0,0-.082-.063c-.056,0-.088,0-.114-.023a.641.641,0,0,0-.111-.074.224.224,0,0,1-.111-.1c-.051,0-.078,0-.151,0a.565.565,0,0,1-.139-.01.3.3,0,0,0-.125-.034.355.355,0,0,1-.139.044l0,.009-.079.05a.545.545,0,0,1-.138.065l-.092.043.029.009a.258.258,0,0,0-.023.1.133.133,0,0,1-.03.125.226.226,0,0,1-.077.051Zm-.2-.106a1.116,1.116,0,0,1,.14.026l.062.05.035-.033.11-.033-.024-.018a.083.083,0,0,0,.019-.084.272.272,0,0,1,.018-.1.158.158,0,0,1,.077-.093.857.857,0,0,0,.157-.079c.008-.027.038-.039.073-.053a.754.754,0,0,0,.17-.056.3.3,0,0,1,.145.03.478.478,0,0,0,.131.011c.069,0,.079,0,.112-.029l.022-.017.063.03c.025.089.047.1.085.124a.369.369,0,0,1,.085.055l.1.044a.243.243,0,0,1,.142.073.337.337,0,0,0,.088.016.319.319,0,0,0,.09.01.307.307,0,0,1,.151.024l.1.1v-.03a.619.619,0,0,0,.144-.007.185.185,0,0,1,.15.042c.036-.007.076-.012.121-.016.027.018.082.009.114.025a.359.359,0,0,1,.174.013l.086.016a1.634,1.634,0,0,1,.166-.01,1.146,1.146,0,0,1,.108-.1.416.416,0,0,0,.12-.082l-.016-.112a.385.385,0,0,0,.056-.1.6.6,0,0,0,.073-.1l.051-.059-.024-.076.005-.174-.005-.116-.025.016a.541.541,0,0,0-.051-.056.487.487,0,0,1-.1-.059l-.179-.129c-.049-.046-.068-.05-.093-.05a.449.449,0,0,1-.211-.047.32.32,0,0,1-.076-.026c-.066-.07-.079-.116-.05-.152-.016,0-.03-.024-.05-.035l.038-.059-.1-.083c-.085-.042-.095-.039-.116-.016a.1.1,0,0,1-.073.08c.018.036-.015.045-.056.058-.091,0-.113-.013-.139-.037a.273.273,0,0,0-.093-.047h-.03l-.131-.116a.139.139,0,0,0-.094-.026c-.072-.005-.088-.024-.109-.065l-.058-.057-.007.007-.131.007a.305.305,0,0,1-.13-.009.279.279,0,0,0-.162.016.7.7,0,0,0-.09.076.264.264,0,0,1-.128.006,1.111,1.111,0,0,0-.136-.014.333.333,0,0,0-.1.092l-.006.009-.15.071a.133.133,0,0,1-.071.069.276.276,0,0,0-.093.091c0,.044-.016.065-.085.068l0,.01.005.094-.108.035.028.01v.1l-.066.1-.082-.016a.053.053,0,0,0-.023.068.4.4,0,0,1-.019.128l-.316.022.022.022c-.022.039-.042.077-.1.081l-.007.007-.154.005c-.084.019-.1.043-.11.065l-.065.022.024,0-.142.032c0,.021-.02.045-.08.053l.064.047-.1.016-.088.044a.125.125,0,0,0,0,.122l.062.062.019-.023.065.095.022-.021a1.069,1.069,0,0,1,.085.091.13.13,0,0,1,.066.019l.079.039a.68.68,0,0,0,.1-.046c.019-.094.076-.094.148-.094a.265.265,0,0,1,.142.044.3.3,0,0,0,.148.063h0l0,0Z" transform="translate(-238.271 -440.949)"/><path d="M265.3,457.1a.217.217,0,0,1-.122-.025c-.027-.056-.031-.066-.075-.073h0a.267.267,0,0,1-.131-.039l.037-.047a.233.233,0,0,0,.1.026.119.119,0,0,1,.114.1c.01-.005.023,0,.078,0a.158.158,0,0,1,.1.047l-.1-.017Z" transform="translate(-238.778 -441.121)" fill="#2b6a0c"/><path d="M264.681,457.781a1.459,1.459,0,0,1-.154-.008l.007-.059c.026,0,.116.01.176.01l.059-.039c.108-.025.133-.02.171,0l.147.049-.1.019a.535.535,0,0,1-.073-.013.175.175,0,0,0-.1-.019.534.534,0,0,1-.094.061h-.042" transform="translate(-238.663 -441.314)" fill="#2b6a0c"/><path d="M265.169,457.52l-.028-.053a.373.373,0,0,1,.092-.036.418.418,0,0,1,.105-.046l.1-.015.062.054-.06-.024-.061.036a.547.547,0,0,0-.121.05.4.4,0,0,0-.086.034" transform="translate(-238.821 -441.237)" fill="#2b6a0c"/><path d="M266.451,457.786c-.028,0-.056-.005-.089-.005a.465.465,0,0,1-.138-.072.255.255,0,0,1-.088-.052.377.377,0,0,1-.145-.128.749.749,0,0,1-.052-.152l.035-.061v.011c.036.088.05.131.07.172a.231.231,0,0,0,.094.084.427.427,0,0,0,.114.073.483.483,0,0,0,.122.066.471.471,0,0,1,.083,0l.059.029Z" transform="translate(-239.028 -441.223)" fill="#2b6a0c"/><path d="M266.345,456.937a.584.584,0,0,1,.088-.125l.095-.077-.028-.013a.181.181,0,0,1,.113-.114.773.773,0,0,1,.043-.083l.042-.074.027.045a.57.57,0,0,1-.077.158.154.154,0,0,0-.092.093l-.076.106a.234.234,0,0,1-.134.085" transform="translate(-239.132 -441)" fill="#2b6a0c"/><path d="M267.424,457.205a.074.074,0,0,1-.037-.009.1.1,0,0,1-.03-.029l-.007-.013-.005,0h0a.331.331,0,0,1-.027-.154.337.337,0,0,1,.041-.149l.091-.047-.011.027a.389.389,0,0,0-.06.163.408.408,0,0,0,.01.125.2.2,0,0,0,.091.07h-.006l.013,0a.227.227,0,0,1-.066.013" transform="translate(-239.384 -441.091)" fill="#2b6a0c"/><path d="M268.213,457.494l-.053,0h-.106l.108-.061a.341.341,0,0,0,.137-.01l.07-.06.105-.05-.021-.021.062.03-.073.057c-.064.055-.09.077-.119.1a.4.4,0,0,1-.109.019" transform="translate(-239.573 -441.217)" fill="#2b6a0c"/><path d="M268.575,458.475a.2.2,0,0,1-.064-.009.432.432,0,0,1-.133-.084.177.177,0,0,1,.137.019.26.26,0,0,0,.152.007l.071.009,0,.03v-.03l-.012.03a.464.464,0,0,1-.148.029" transform="translate(-239.657 -441.497)" fill="#2b6a0c"/><path d="M268.168,458.745v-.011a1.1,1.1,0,0,1-.122-.072.314.314,0,0,1-.114-.168c-.013-.071-.019-.111,0-.145l.05.1a.267.267,0,0,0,.068.146.393.393,0,0,1,.11.089l.065.05Z" transform="translate(-239.538 -441.49)" fill="#2b6a0c"/><path d="M267.105,458.592v-.061a1.119,1.119,0,0,0,.161-.01.442.442,0,0,1,.091-.043c.042-.063.05-.082.052-.123.059.057.045.085.027.119l-.056.06a.536.536,0,0,0-.093.043,1.1,1.1,0,0,1-.182.016" transform="translate(-239.328 -441.492)" fill="#2b6a0c"/><path d="M264,458.618a.349.349,0,0,1-.047,0l.007-.059a.473.473,0,0,0,.087,0,.408.408,0,0,1,.157-.033l.082-.028a.134.134,0,0,0,.057-.069l.085-.064-.03.091a.2.2,0,0,1-.08.093l-.109.037a.377.377,0,0,0-.144.03.39.39,0,0,1-.064.005" transform="translate(-238.514 -441.493)" fill="#2b6a0c"/><path d="M265.218,458.016l-.021-.056.009.029-.007-.03a.392.392,0,0,1,.114-.022.285.285,0,0,1,.076-.034l.1.016-.081.041a.538.538,0,0,0-.082.033.593.593,0,0,0-.11.023" transform="translate(-238.836 -441.375)" fill="#2b6a0c"/><path d="M263.323,458.569l-.064-.019v0l.012-.03a.882.882,0,0,0,.177-.04c.07-.041.122-.072.157-.088a.177.177,0,0,1-.088.127.692.692,0,0,1-.2.05" transform="translate(-238.336 -441.501)" fill="#2b6a0c"/><path d="M267.878,457.978a.243.243,0,0,1-.114-.022.42.42,0,0,0-.119-.065.279.279,0,0,1-.085-.013,1.42,1.42,0,0,1-.177-.042l-.084-.054.047-.027a.729.729,0,0,0,.169.05.527.527,0,0,0,.141.026.464.464,0,0,1,.137.07.228.228,0,0,0,.1.016.706.706,0,0,1,.111-.042.14.14,0,0,1-.1.1h-.03" transform="translate(-239.379 -441.337)" fill="#2b6a0c"/><path d="M265.891,462.723a.3.3,0,0,1-.076-.157.675.675,0,0,0-.016-.215.2.2,0,0,1-.007-.115c.04-.1.076-.168.1-.214a.923.923,0,0,0,.032-.159l.018-.145a.584.584,0,0,1,.027-.156.893.893,0,0,1,.007-.139l.012-.083a.353.353,0,0,0,.029-.183.615.615,0,0,0,.034-.215V460.7h.06v.246a.618.618,0,0,1-.036.226.354.354,0,0,1-.037.206c-.007.1-.012.147-.012.2a.638.638,0,0,0-.025.151l-.009.084c-.017.119-.024.175-.035.217a.874.874,0,0,1-.109.183.292.292,0,0,0,.007.122.494.494,0,0,1,.019.185.852.852,0,0,1,.017.208" transform="translate(-238.988 -442.096)"/><path d="M266.306,462.77c-.069-.005-.074-.031-.074-.079a.233.233,0,0,0-.028-.067.352.352,0,0,1-.038-.095.665.665,0,0,1,.017-.233l.033-.209a.32.32,0,0,0,.068-.2,1.673,1.673,0,0,1-.017-.229v-.338a1.518,1.518,0,0,0-.027-.175l.053-.045-.03.005.036.029a1.345,1.345,0,0,1,.027.185v.339a1.7,1.7,0,0,0,.017.227.343.343,0,0,1-.072.219l-.03.2a.5.5,0,0,0-.017.171.272.272,0,0,0,.033.115.274.274,0,0,1,.035.089.174.174,0,0,0,.014.085" transform="translate(-239.085 -442.201)"/><path d="M266.6,462.961l-.032-.04a.148.148,0,0,0-.039-.08l-.044-.065a.307.307,0,0,1-.06-.061.424.424,0,0,0-.064-.066.345.345,0,0,1,.04-.224.19.19,0,0,0,.064-.143.843.843,0,0,0-.008-.1.914.914,0,0,1-.008-.114.766.766,0,0,1-.018-.209l.06-.006v.006a.744.744,0,0,0,.016.2c0,.05.007.083.01.117a.819.819,0,0,1,.008.108.234.234,0,0,1-.079.177.417.417,0,0,0-.039.162c.016-.012.039.021.065.05a.4.4,0,0,0,.059.062l.045.065a.2.2,0,0,1,.051.108Z" transform="translate(-239.136 -442.395)"/><path d="M266.8,453.953l-.182-.265-.342-.011.161-.275-.161-.275.342-.011.182-.265.181.265.342.011-.161.275.161.275-.342.011Z" transform="translate(-239.115 -440.071)" fill="#f5d028"/><path d="M266.792,454l-.207-.3-.318,0,.136-.32-.161-.245.367-.056.158-.252.231.265.318,0-.136.321.161.245-.367.056Zm-.181-.349.18.243.157-.23.366-.024-.185-.229.161-.306-.318.035-.2-.278-.132.265-.366.024.186.23-.161.306Z" transform="translate(-239.105 -440.065)"/><path d="M264.917,453.953l-.181-.265-.342-.011.161-.275-.161-.275.342-.011.181-.265.182.265.342.011-.161.275.161.275-.342.011Z" transform="translate(-238.628 -440.071)" fill="#f5d028"/><path d="M264.908,454l-.206-.3-.318,0,.136-.32-.161-.245.367-.056.157-.252.232.265.318,0-.136.321.161.245-.367.056Zm-.18-.349.18.243.157-.23.366-.024-.185-.229.161-.306-.318.035-.206-.278-.131.265-.366.024.186.23-.161.306Z" transform="translate(-238.619 -440.065)"/><path d="M263.252,454.275l-.217-.241-.341.03.12-.292-.2-.254.338-.051.142-.284.217.241.341-.03-.12.292.2.254-.338.05Z" transform="translate(-238.17 -440.156)" fill="#f5d028"/><path d="M263.251,454.323l-.247-.274-.315.04.09-.334-.194-.224.357-.1.119-.268.267.234.315-.039-.09.335.194.224-.357.1Zm-.227-.324.212.22.122-.246.361-.067-.218-.206.116-.323-.31.072-.243-.251-.092.277-.361.067.218.206-.116.323Z" transform="translate(-238.161 -440.152)"/><path d="M268.595,454.229l.217-.241.341.03-.12-.292.2-.254-.338-.052-.142-.284-.217.242-.341-.03.12.292-.2.254.337.051Z" transform="translate(-239.589 -440.144)" fill="#f5d028"/><path d="M268.586,454.275l-.163-.323-.314-.036.179-.3-.124-.261.371-.013.192-.232.191.291.315.036-.179.3.124.262-.371.012Zm-.4-.9.151.25-.2.285.318,0,.145.261.188-.209.366.019-.151-.25.2-.284-.319,0-.164-.3-.168.248Z" transform="translate(-239.587 -440.137)"/><path d="M270.141,454.954l.266-.2.327.093-.052-.309.251-.211-.318-.113-.076-.3-.266.2-.327-.093.052.309-.252.212.318.113Z" transform="translate(-240.01 -440.345)" fill="#f5d028"/><path d="M270.119,455l-.086-.348-.3-.093.242-.263-.062-.28.365.059.24-.191.122.323.3.092-.242.263.062.28-.365-.059Zm-.184-.96.09.274-.262.24.309.062.082.283.231-.169.353.088-.09-.275.262-.24-.309-.062-.095-.326-.219.213Z" transform="translate(-240.007 -440.337)"/><path d="M261.63,454.861l-.267-.2-.327.093.053-.309-.252-.211.319-.114.075-.3.267.2.327-.094-.053.309.252.212-.318.114Z" transform="translate(-237.71 -440.322)" fill="#f5d028"/><path d="M261.642,454.91l-.3-.222-.3.1.014-.343-.242-.183.329-.165.056-.283.315.178.3-.1-.014.343.242.183-.328.165Zm-.294-.275.257.175.065-.262.338-.135-.261-.16.042-.337-.289.128-.293-.2-.028.286-.338.135.261.16-.042.337Z" transform="translate(-237.703 -440.319)"/><path d="M229.665,435.626v36l18-18Z" transform="translate(-229.665 -435.625)" fill="#3970ca"/></g></g></g></svg>