<svg xmlns="http://www.w3.org/2000/svg" xmlns:xlink="http://www.w3.org/1999/xlink" width="36" height="36" viewBox="0 0 36 36"><defs><clipPath id="a"><circle cx="18" cy="18" r="18" transform="translate(2740 248)" fill="#fff" stroke="#707070" stroke-width="1"/></clipPath><clipPath id="b"><rect width="61.714" height="36" fill="none"/></clipPath></defs><g transform="translate(-2740 -248)" clip-path="url(#a)"><g transform="translate(2205.956 -266.419)"><g transform="translate(529.044 514.419)" clip-path="url(#b)"><path d="M543.622,514.419l18,12h32.9v-12Z" transform="translate(-532.806 -514.419)" fill="#d03033"/><path d="M571.485,532.994h29.3v-2.4h-32.9Z" transform="translate(-539.068 -518.593)" fill="#fff"/><path d="M567.884,545.933h32.9v-2.4h-29.3Z" transform="translate(-539.068 -521.933)" fill="#fff"/><path d="M561.622,546.768l-18,12h50.9v-12Z" transform="translate(-532.806 -522.768)" fill="#1f189b"/><path d="M529.044,528.927h7.183l-7.183-4.789Z" transform="translate(-529.044 -516.927)"/><path d="M529.044,530.593v12h7.183l9-6-9-6Z" transform="translate(-529.044 -518.593)"/><path d="M529.044,546.768v4.789l7.183-4.789Z" transform="translate(-529.044 -522.768)"/><path d="M529.044,523.134l16.183,10.79-16.183,10.79V547.6l20.51-13.673-20.51-13.674Z" transform="translate(-529.044 -515.924)" fill="#f2b126"/><path d="M529.044,514.419v4.327l20.51,13.673-20.51,13.673v4.327h6.489l21.6-14.4h33.624v-7.2H557.134l-21.6-14.4Z" transform="translate(-529.044 -514.419)" fill="#32784c"/></g></g></g></svg>