<svg xmlns="http://www.w3.org/2000/svg" xmlns:xlink="http://www.w3.org/1999/xlink" width="36" height="36" viewBox="0 0 36 36"><defs><clipPath id="a"><circle cx="18" cy="18" r="18" transform="translate(2956 415)" fill="#fff" stroke="#707070" stroke-width="1"/></clipPath><clipPath id="b"><rect width="61.714" height="36" fill="none"/></clipPath></defs><g transform="translate(-2956 -415)" clip-path="url(#a)"><g transform="translate(2314.164 294.545)"><g transform="translate(628.836 120.455)" clip-path="url(#b)"><rect width="61.714" height="36" fill="#bc0030"/><rect width="49.921" height="25.92" transform="translate(5.896 5.041)" fill="#347b5e"/><path d="M636.783,157.677l24.96-12.961L686.7,157.677Z" transform="translate(-630.887 -126.716)" fill="#f3d02f"/><path d="M636.783,127.249l24.96,12.96,24.961-12.96Z" transform="translate(-630.887 -122.208)" fill="#f3d02f"/><path d="M673.244,143.214a4.32,4.32,0,1,0-4.321,4.32,4.32,4.32,0,0,0,4.321-4.32" transform="translate(-638.067 -125.214)" fill="#bc0030"/><path d="M665.35,142.116h2.878l.888-2.737.89,2.737h2.878l-2.328,1.691.89,2.736-2.329-1.691-2.327,1.691.889-2.736Z" transform="translate(-638.26 -125.339)" fill="#f3d02f"/><path d="M651.252,122.315h1.7l.525-1.617.526,1.617h1.7l-1.375,1,.525,1.617-1.375-1-1.375,1,.525-1.617Z" transform="translate(-634.621 -120.518)" fill="#f3d02f"/><path d="M667.428,122.315h1.7l.525-1.617.526,1.617h1.7l-1.375,1,.526,1.617-1.377-1-1.375,1,.526-1.617Z" transform="translate(-638.796 -120.518)" fill="#f3d02f"/><path d="M683.6,122.315h1.7l.526-1.617.525,1.617h1.7l-1.375,1,.525,1.617-1.375-1-1.375,1,.525-1.617Z" transform="translate(-642.97 -120.518)" fill="#f3d02f"/><path d="M651.252,164.044h1.7l.525-1.617.526,1.617h1.7l-1.375,1,.525,1.617-1.375-1-1.375,1,.525-1.617Z" transform="translate(-634.621 -131.287)" fill="#f3d02f"/><path d="M667.428,164.044h1.7l.525-1.617.526,1.617h1.7l-1.375,1,.526,1.617-1.377-1-1.375,1,.526-1.617Z" transform="translate(-638.796 -131.287)" fill="#f3d02f"/><path d="M683.6,164.044h1.7l.526-1.617.525,1.617h1.7l-1.375,1,.525,1.617-1.375-1-1.375,1,.525-1.617Z" transform="translate(-642.97 -131.287)" fill="#f3d02f"/><path d="M640.949,144.474a6.014,6.014,0,0,0,2.51,2.488,8.316,8.316,0,0,0-.845-3.376Z" transform="translate(-631.962 -126.424)" fill="#bc0030"/><path d="M639.666,140.128c.784,1.634-2.031,5.529,2.659,6.444a4.749,4.749,0,0,1-.81-3.141,5.319,5.319,0,0,1,2.437,2.308c1.228-4.457-3.149-4.186-4.286-5.611" transform="translate(-631.596 -125.532)" fill="#f3d02f"/></g></g></g></svg>