<svg xmlns="http://www.w3.org/2000/svg" xmlns:xlink="http://www.w3.org/1999/xlink" width="36" height="36" viewBox="0 0 36 36"><defs><clipPath id="a"><circle cx="18" cy="18" r="18" transform="translate(1304 273)" fill="#fff" stroke="#707070" stroke-width="1"/></clipPath><clipPath id="b"><rect width="61.714" height="36" fill="none"/></clipPath></defs><g transform="translate(-1304 -273)" clip-path="url(#a)"><g transform="translate(663.163 73.759)"><g transform="translate(628.837 199.241)" clip-path="url(#b)"><path d="M653.638,199.24l6.557,2-6.557,2,6.557,2-6.557,2,6.557,2-6.557,2,6.557,2-6.557,2,6.557,2-6.557,2,6.557,2-6.557,2,6.557,2-6.557,2,6.557,2-6.557,2,6.557,2-6.557,2h43.314v-36Z" transform="translate(-635.238 -199.241)" fill="#681840"/><path d="M628.837,199.24v36h18.4l6.557-2-6.557-2,6.557-2-6.557-2,6.557-2-6.557-2,6.557-2-6.557-2,6.557-2-6.557-2,6.557-2-6.557-2,6.557-2-6.557-2,6.557-2-6.557-2,6.557-2-6.557-2Z" transform="translate(-628.837 -199.241)" fill="#fff"/></g></g></g></svg>