<svg xmlns="http://www.w3.org/2000/svg" xmlns:xlink="http://www.w3.org/1999/xlink" width="36" height="36" viewBox="0 0 36 36"><defs><clipPath id="a"><circle cx="18" cy="18" r="18" transform="translate(621 635)" fill="none" stroke="#707070" stroke-width="1"/></clipPath></defs><g transform="translate(-621 -635)" clip-path="url(#a)"><g transform="translate(20 -0.001)"><rect width="54.857" height="12.24" transform="translate(592 635.001)" fill="#4497b1"/><rect width="54.857" height="0.64" transform="translate(592 647.24)" fill="#bc0030"/><rect width="54.857" height="10.24" transform="translate(592 647.881)" fill="#fff"/><rect width="54.857" height="0.64" transform="translate(592 658.12)" fill="#bc0030"/><rect width="54.857" height="12.24" transform="translate(592 658.76)" fill="#50b63f"/><path d="M344.9,441.406a3.84,3.84,0,1,1-3.841-3.839,3.841,3.841,0,0,1,3.841,3.839" transform="translate(270.898 200.714)" fill="#fff"/><path d="M347.213,441.737a3.2,3.2,0,1,1-3.2-3.2,3.2,3.2,0,0,1,3.2,3.2" transform="translate(269.675 200.383)" fill="#4497b1"/><path d="M357.674,437.567l-.237.73.364.119Z" transform="translate(264.014 200.714)" fill="#fff"/><path d="M357.73,437.567l.237.73-.364.119Z" transform="translate(263.958 200.714)" fill="#fff"/><path d="M358.507,438.372h-.768v.384Z" transform="translate(263.911 200.44)" fill="#fff"/><path d="M358.466,438.372l-.621.451-.227-.311Z" transform="translate(263.953 200.44)" fill="#fff"/><path d="M356.688,438.372l.621.451.226-.311Z" transform="translate(264.269 200.44)" fill="#fff"/><path d="M356.688,438.372h.768v.384Z" transform="translate(264.269 200.44)" fill="#fff"/><path d="M358.169,439.3l-.237-.73-.365.118Z" transform="translate(263.97 200.374)" fill="#fff"/><path d="M358.159,439.28l-.621-.451.225-.31Z" transform="translate(263.98 200.39)" fill="#fff"/><path d="M357.11,439.28l.622-.451-.225-.31Z" transform="translate(264.126 200.39)" fill="#fff"/><path d="M357.11,439.3l.238-.73.365.118Z" transform="translate(264.126 200.374)" fill="#fff"/><path d="M362.332,437.567l-.237.73.364.119Z" transform="translate(262.428 200.714)" fill="#fff"/><path d="M362.388,437.567l.237.73-.364.119Z" transform="translate(262.372 200.714)" fill="#fff"/><path d="M363.165,438.372H362.4v.384Z" transform="translate(262.325 200.44)" fill="#fff"/><path d="M363.124,438.372l-.621.451-.227-.311Z" transform="translate(262.366 200.44)" fill="#fff"/><path d="M361.347,438.372l.621.451.227-.311Z" transform="translate(262.683 200.44)" fill="#fff"/><path d="M361.347,438.372h.768v.384Z" transform="translate(262.683 200.44)" fill="#fff"/><path d="M362.827,439.3l-.237-.73-.365.118Z" transform="translate(262.384 200.374)" fill="#fff"/><path d="M362.817,439.28l-.621-.451.225-.31Z" transform="translate(262.394 200.39)" fill="#fff"/><path d="M361.769,439.28l.622-.451-.225-.31Z" transform="translate(262.539 200.39)" fill="#fff"/><path d="M361.769,439.3l.238-.73.365.118Z" transform="translate(262.539 200.374)" fill="#fff"/><path d="M366.99,437.567l-.237.73.364.119Z" transform="translate(260.842 200.714)" fill="#fff"/><path d="M367.047,437.567l.237.73-.364.119Z" transform="translate(260.785 200.714)" fill="#fff"/><path d="M367.823,438.372h-.768v.384Z" transform="translate(260.739 200.44)" fill="#fff"/><path d="M367.782,438.372l-.621.451-.227-.311Z" transform="translate(260.78 200.44)" fill="#fff"/><path d="M366,438.372l.621.451.227-.311Z" transform="translate(261.097 200.44)" fill="#fff"/><path d="M366,438.372h.768v.384Z" transform="translate(261.097 200.44)" fill="#fff"/><path d="M367.485,439.3l-.237-.73-.365.118Z" transform="translate(260.797 200.374)" fill="#fff"/><path d="M367.475,439.28l-.621-.451.225-.31Z" transform="translate(260.807 200.39)" fill="#fff"/><path d="M366.429,439.28l.62-.451-.225-.31Z" transform="translate(260.952 200.39)" fill="#fff"/><path d="M366.429,439.3l.237-.73.365.118Z" transform="translate(260.952 200.374)" fill="#fff"/><path d="M353.015,442.225l-.237.73.364.119Z" transform="translate(265.601 199.127)" fill="#fff"/><path d="M353.072,442.225l.237.73-.364.119Z" transform="translate(265.544 199.127)" fill="#fff"/><path d="M353.849,443.03h-.768v.384Z" transform="translate(265.498 198.853)" fill="#fff"/><path d="M353.807,443.03l-.621.451-.227-.311Z" transform="translate(265.539 198.853)" fill="#fff"/><path d="M352.03,443.03l.621.451.226-.311Z" transform="translate(265.856 198.853)" fill="#fff"/><path d="M352.03,443.03h.768v.384Z" transform="translate(265.856 198.853)" fill="#fff"/><path d="M353.511,443.954l-.237-.73-.365.119Z" transform="translate(265.556 198.787)" fill="#fff"/><path d="M353.5,443.938l-.621-.451.225-.31Z" transform="translate(265.566 198.803)" fill="#fff"/><path d="M352.452,443.938l.622-.451-.225-.31Z" transform="translate(265.712 198.803)" fill="#fff"/><path d="M352.452,443.954l.238-.73.365.119Z" transform="translate(265.712 198.787)" fill="#fff"/><path d="M357.674,442.225l-.237.73.364.119Z" transform="translate(264.014 199.127)" fill="#fff"/><path d="M357.73,442.225l.237.73-.364.119Z" transform="translate(263.958 199.127)" fill="#fff"/><path d="M358.507,443.03h-.768v.384Z" transform="translate(263.911 198.853)" fill="#fff"/><path d="M358.466,443.03l-.621.451-.227-.311Z" transform="translate(263.953 198.853)" fill="#fff"/><path d="M356.688,443.03l.621.451.226-.311Z" transform="translate(264.269 198.853)" fill="#fff"/><path d="M356.688,443.03h.768v.384Z" transform="translate(264.269 198.853)" fill="#fff"/><path d="M358.169,443.954l-.237-.73-.365.119Z" transform="translate(263.97 198.787)" fill="#fff"/><path d="M358.159,443.938l-.621-.451.225-.31Z" transform="translate(263.98 198.803)" fill="#fff"/><path d="M357.11,443.938l.622-.451-.225-.31Z" transform="translate(264.126 198.803)" fill="#fff"/><path d="M357.11,443.954l.238-.73.365.119Z" transform="translate(264.126 198.787)" fill="#fff"/><path d="M362.332,442.225l-.237.73.364.119Z" transform="translate(262.428 199.127)" fill="#fff"/><path d="M362.388,442.225l.237.73-.364.119Z" transform="translate(262.372 199.127)" fill="#fff"/><path d="M363.165,443.03H362.4v.384Z" transform="translate(262.325 198.853)" fill="#fff"/><path d="M363.124,443.03l-.621.451-.227-.311Z" transform="translate(262.366 198.853)" fill="#fff"/><path d="M361.347,443.03l.621.451.227-.311Z" transform="translate(262.683 198.853)" fill="#fff"/><path d="M361.347,443.03h.768v.384Z" transform="translate(262.683 198.853)" fill="#fff"/><path d="M362.827,443.954l-.237-.73-.365.119Z" transform="translate(262.384 198.787)" fill="#fff"/><path d="M362.817,443.938l-.621-.451.225-.31Z" transform="translate(262.394 198.803)" fill="#fff"/><path d="M361.769,443.938l.622-.451-.225-.31Z" transform="translate(262.539 198.803)" fill="#fff"/><path d="M361.769,443.954l.238-.73.365.119Z" transform="translate(262.539 198.787)" fill="#fff"/><path d="M366.99,442.225l-.237.73.364.119Z" transform="translate(260.842 199.127)" fill="#fff"/><path d="M367.047,442.225l.237.73-.364.119Z" transform="translate(260.785 199.127)" fill="#fff"/><path d="M367.823,443.03h-.768v.384Z" transform="translate(260.739 198.853)" fill="#fff"/><path d="M367.782,443.03l-.621.451-.227-.311Z" transform="translate(260.78 198.853)" fill="#fff"/><path d="M366,443.03l.621.451.227-.311Z" transform="translate(261.097 198.853)" fill="#fff"/><path d="M366,443.03h.768v.384Z" transform="translate(261.097 198.853)" fill="#fff"/><path d="M367.485,443.954l-.237-.73-.365.119Z" transform="translate(260.797 198.787)" fill="#fff"/><path d="M367.475,443.938l-.621-.451.225-.31Z" transform="translate(260.807 198.803)" fill="#fff"/><path d="M366.429,443.938l.62-.451-.225-.31Z" transform="translate(260.952 198.803)" fill="#fff"/><path d="M366.429,443.954l.237-.73.365.119Z" transform="translate(260.952 198.787)" fill="#fff"/><path d="M348.357,446.884l-.237.73.364.119Z" transform="translate(267.187 197.541)" fill="#fff"/><path d="M348.414,446.884l.237.73-.364.119Z" transform="translate(267.13 197.541)" fill="#fff"/><path d="M349.19,447.688h-.768v.384Z" transform="translate(267.084 197.267)" fill="#fff"/><path d="M349.149,447.688l-.621.451-.227-.311Z" transform="translate(267.125 197.267)" fill="#fff"/><path d="M347.372,447.688l.621.451.226-.311Z" transform="translate(267.442 197.267)" fill="#fff"/><path d="M347.372,447.688h.768v.384Z" transform="translate(267.442 197.267)" fill="#fff"/><path d="M348.852,448.612l-.237-.73-.365.119Z" transform="translate(267.143 197.201)" fill="#fff"/><path d="M348.843,448.6l-.621-.451.225-.31Z" transform="translate(267.152 197.217)" fill="#fff"/><path d="M347.794,448.6l.622-.451-.225-.31Z" transform="translate(267.298 197.217)" fill="#fff"/><path d="M347.794,448.612l.238-.73.365.119Z" transform="translate(267.298 197.201)" fill="#fff"/><path d="M353.015,446.884l-.237.73.364.119Z" transform="translate(265.601 197.541)" fill="#fff"/><path d="M353.072,446.884l.237.73-.364.119Z" transform="translate(265.544 197.541)" fill="#fff"/><path d="M353.849,447.688h-.768v.384Z" transform="translate(265.498 197.267)" fill="#fff"/><path d="M353.807,447.688l-.621.451-.227-.311Z" transform="translate(265.539 197.267)" fill="#fff"/><path d="M352.03,447.688l.621.451.226-.311Z" transform="translate(265.856 197.267)" fill="#fff"/><path d="M352.03,447.688h.768v.384Z" transform="translate(265.856 197.267)" fill="#fff"/><path d="M353.511,448.612l-.237-.73-.365.119Z" transform="translate(265.556 197.201)" fill="#fff"/><path d="M353.5,448.6l-.621-.451.225-.31Z" transform="translate(265.566 197.217)" fill="#fff"/><path d="M352.452,448.6l.622-.451-.225-.31Z" transform="translate(265.712 197.217)" fill="#fff"/><path d="M352.452,448.612l.238-.73.365.119Z" transform="translate(265.712 197.201)" fill="#fff"/><path d="M357.674,446.884l-.237.73.364.119Z" transform="translate(264.014 197.541)" fill="#fff"/><path d="M357.73,446.884l.237.73-.364.119Z" transform="translate(263.958 197.541)" fill="#fff"/><path d="M358.507,447.688h-.768v.384Z" transform="translate(263.911 197.267)" fill="#fff"/><path d="M358.466,447.688l-.621.451-.227-.311Z" transform="translate(263.953 197.267)" fill="#fff"/><path d="M356.688,447.688l.621.451.226-.311Z" transform="translate(264.269 197.267)" fill="#fff"/><path d="M356.688,447.688h.768v.384Z" transform="translate(264.269 197.267)" fill="#fff"/><path d="M358.169,448.612l-.237-.73-.365.119Z" transform="translate(263.97 197.201)" fill="#fff"/><path d="M358.159,448.6l-.621-.451.225-.31Z" transform="translate(263.98 197.217)" fill="#fff"/><path d="M357.11,448.6l.622-.451-.225-.31Z" transform="translate(264.126 197.217)" fill="#fff"/><path d="M357.11,448.612l.238-.73.365.119Z" transform="translate(264.126 197.201)" fill="#fff"/><path d="M362.332,446.884l-.237.73.364.119Z" transform="translate(262.428 197.541)" fill="#fff"/><path d="M362.388,446.884l.237.73-.364.119Z" transform="translate(262.372 197.541)" fill="#fff"/><path d="M363.165,447.688H362.4v.384Z" transform="translate(262.325 197.267)" fill="#fff"/><path d="M363.124,447.688l-.621.451-.227-.311Z" transform="translate(262.366 197.267)" fill="#fff"/><path d="M361.347,447.688l.621.451.227-.311Z" transform="translate(262.683 197.267)" fill="#fff"/><path d="M361.347,447.688h.768v.384Z" transform="translate(262.683 197.267)" fill="#fff"/><path d="M362.827,448.612l-.237-.73-.365.119Z" transform="translate(262.384 197.201)" fill="#fff"/><path d="M362.817,448.6l-.621-.451.225-.31Z" transform="translate(262.394 197.217)" fill="#fff"/><path d="M361.769,448.6l.622-.451-.225-.31Z" transform="translate(262.539 197.217)" fill="#fff"/><path d="M361.769,448.612l.238-.73.365.119Z" transform="translate(262.539 197.201)" fill="#fff"/><path d="M366.99,446.884l-.237.73.364.119Z" transform="translate(260.842 197.541)" fill="#fff"/><path d="M367.047,446.884l.237.73-.364.119Z" transform="translate(260.785 197.541)" fill="#fff"/><path d="M367.823,447.688h-.768v.384Z" transform="translate(260.739 197.267)" fill="#fff"/><path d="M367.782,447.688l-.621.451-.227-.311Z" transform="translate(260.78 197.267)" fill="#fff"/><path d="M366,447.688l.621.451.227-.311Z" transform="translate(261.097 197.267)" fill="#fff"/><path d="M366,447.688h.768v.384Z" transform="translate(261.097 197.267)" fill="#fff"/><path d="M367.485,448.612l-.237-.73-.365.119Z" transform="translate(260.797 197.201)" fill="#fff"/><path d="M367.475,448.6l-.621-.451.225-.31Z" transform="translate(260.807 197.217)" fill="#fff"/><path d="M366.429,448.6l.62-.451-.225-.31Z" transform="translate(260.952 197.217)" fill="#fff"/><path d="M366.429,448.612l.237-.73.365.119Z" transform="translate(260.952 197.201)" fill="#fff"/></g></g></svg>