<svg xmlns="http://www.w3.org/2000/svg" xmlns:xlink="http://www.w3.org/1999/xlink" width="36" height="36" viewBox="0 0 36 36"><defs><clipPath id="a"><circle cx="18" cy="18" r="18" transform="translate(2749 348)" fill="#fff" stroke="#707070" stroke-width="1"/></clipPath><clipPath id="b"><rect width="61.715" height="36" fill="none"/></clipPath></defs><g transform="translate(-2749 -348)" clip-path="url(#a)"><g transform="translate(2193.958 -166.419)"><g transform="translate(529.042 514.419)" clip-path="url(#b)"><rect width="61.715" height="36" fill="#3e8b11"/><rect width="7.243" height="21.217" transform="translate(54.472 14.78)" fill="#df7a21"/><rect width="7.234" height="21.223" transform="translate(47.239 14.769)"/><rect width="7.388" height="21.216" transform="translate(39.853 14.784)" fill="#cb0423"/><path d="M603.441,521.033s2.726-1.163,2.99-1.4c.119.144-1.092,1.608-3.445,2.149,2.137-.5,3.962-2.089,4.334-2.04.108.023.084,1.548-4.815,2.869a22.778,22.778,0,0,0,5.331-2.341c.024.036-.336,1.285-3.3,2.258.829-.193,3.074-1.561,3.05-1.3a5.807,5.807,0,0,1-6.231,2.053c3.241.841,5.343-1.188,5.642-1.153.061.013-.6,1.778-4.682,1.885,1.957-.2,1.393-.012,1.393-.012a2.626,2.626,0,0,1-2.545.289c1.092.3,1.212.312,1.237.408a2.073,2.073,0,0,1-1.838-.168c.7.287,1.321.336,1.333.444a.91.91,0,0,1-.852.108c-.4-.181-4.046-2.425-4.046-2.425l6.219-1.706Z" transform="translate(-546.579 -515.764)" fill="#df7a21"/><path d="M601.329,525.179a.8.8,0,0,1-.329-.068c-.394-.181-3.9-2.337-4.052-2.429a.051.051,0,0,1-.024-.051.053.053,0,0,1,.038-.043l6.219-1.706.26.086c.9-.4,2.733-1.209,2.937-1.394a.076.076,0,0,1,.039-.013.053.053,0,0,1,.036.019.221.221,0,0,1,.016.091,2.211,2.211,0,0,1-.728.835c.208-.123.4-.242.579-.349a3.029,3.029,0,0,1,.962-.488.2.2,0,0,1,.093.091c.026.184-.12.587-.718,1.074.3-.168.539-.314.718-.422.285-.174.378-.228.43-.228.01.011.065.057.063.073a2.115,2.115,0,0,1-.789,1.022,1.42,1.42,0,0,1,.443-.154.18.18,0,0,1,.076.028s.019.085.018.088a2.848,2.848,0,0,1-.758.847.3.3,0,0,1,.111-.03c.027,0,.065.039.063.065-.008.209-.645,1.387-3.22,1.792l0,.01c.007.045-.029.079-.11.108a2.715,2.715,0,0,1-1.436.5c.11.041.146.076.161.134-.055.117-.291.185-.575.2.045.023.068.049.072.084-.025.091-.315.23-.6.23m-4.225-2.523c.594.364,3.587,2.2,3.94,2.361a1.021,1.021,0,0,0,.789-.091,1.672,1.672,0,0,1-.368-.072,2.657,2.657,0,0,1-.947-.3.052.052,0,0,1-.023-.068.05.05,0,0,1,.067-.025,6.507,6.507,0,0,0,.91.284,1.6,1.6,0,0,0,.864-.1c-.018,0-.1-.03-.478-.133a2.5,2.5,0,0,1-.736-.2.052.052,0,0,1-.027-.065.053.053,0,0,1,.062-.033l.729.2a2.4,2.4,0,0,0,.256.013,2.714,2.714,0,0,0,1.5-.478l-.09,0a12.458,12.458,0,0,1-1.253.094c-.029-.011-.051-.021-.053-.048a.051.051,0,0,1,.046-.056c.594-.062,1.016-.093,1.254-.094,2.7-.352,3.376-1.56,3.385-1.73a1.484,1.484,0,0,1-.369.254c-.2.12-.461.275-.778.433a6.034,6.034,0,0,1-1.254.488,6.1,6.1,0,0,1-3.207.019.051.051,0,0,1-.037-.062.053.053,0,0,1,.062-.039,6.534,6.534,0,0,0,3.155-.017,6.894,6.894,0,0,0,1.235-.482,4.467,4.467,0,0,0,1.78-1.5,6.7,6.7,0,0,0-.945.425,8.517,8.517,0,0,1-1.524.735,3.446,3.446,0,0,1-.519.183.053.053,0,0,1-.062-.037.052.052,0,0,1,.034-.063c.18-.059.349-.119.51-.18.381-.16.845-.394,1.271-.608l.243-.122c.984-.618,1.228-1.178,1.242-1.285a1.258,1.258,0,0,1-.336.238c-.348.211-.93.565-1.7.941a13.853,13.853,0,0,1-2.491.99q-.355.11-.734.211h0a.052.052,0,0,1-.027-.1q.386-.1.732-.209a17.518,17.518,0,0,0,2.477-.984c1.535-.824,1.627-1.514,1.588-1.589a4.516,4.516,0,0,0-.895.487,18.421,18.421,0,0,1-1.686.944,7.261,7.261,0,0,1-1.71.623.054.054,0,0,1-.062-.039.052.052,0,0,1,.039-.062h0a8.353,8.353,0,0,0,1.687-.616,4.446,4.446,0,0,0,1.692-1.367c-.573.345-2.79,1.292-2.892,1.335l-.266-.083Z" transform="translate(-546.561 -515.746)"/><path d="M595.625,529.13a.516.516,0,0,0-.562.485s-.044.036-.014.272a1.451,1.451,0,0,1,.134-.211.792.792,0,0,0,.708-.226c-.361.376-.145.517-.145.517s-.085.3.191.356a.232.232,0,0,1-.034-.226.436.436,0,0,0,.36-.512c.016.426.246.532.246.532a.259.259,0,0,0,.251.255.361.361,0,0,1-.1-.306.439.439,0,0,0,.05-.638,1.029,1.029,0,0,0,.3-.361,2.091,2.091,0,0,1-.33-.175,3.1,3.1,0,0,1-.006-.683l-.135-.748-.386,1.163c.016-.165.025.5-.522.5" transform="translate(-546.074 -517.786)" fill="#df7a21"/><path d="M596.74,530.407h0a.306.306,0,0,1-.3-.3c-.02.005-.125-.052-.194-.246a.471.471,0,0,1-.338.266.493.493,0,0,0,.053.148.051.051,0,0,1,0,.059.056.056,0,0,1-.054.022.3.3,0,0,1-.2-.135.387.387,0,0,1-.033-.264c-.016,0-.051-.045-.059-.118a.364.364,0,0,1,.047-.208.869.869,0,0,1-.48.082c-.005.017-.044.074-.1.18a.052.052,0,0,1-.1-.019c-.029-.224.007-.294.032-.317a.531.531,0,0,1,.6-.5.48.48,0,0,0,.47-.443.033.033,0,0,1,0-.013.1.1,0,0,1,.012-.036l.377-1.14a.055.055,0,0,1,.053-.035.051.051,0,0,1,.047.042l.135.747a3.008,3.008,0,0,0,0,.67,2.847,2.847,0,0,0,.3.15.05.05,0,0,1,.028.03.052.052,0,0,1,0,.041,1.2,1.2,0,0,1-.276.352.484.484,0,0,1-.086.661.432.432,0,0,0,.1.229.053.053,0,0,1,.013.059.052.052,0,0,1-.047.031m-.495-.881a.044.044,0,0,1,.049.04c.021.388.209.484.217.487a.485.485,0,0,0,.1.2.461.461,0,0,1-.023-.209.419.419,0,0,0,.059-.6.053.053,0,0,1-.008-.041.056.056,0,0,1,.025-.033.853.853,0,0,0,.252-.291,1.748,1.748,0,0,1-.288-.159,2.32,2.32,0,0,1-.026-.729l-.1-.535-.318.959a.591.591,0,0,1-.575.551.461.461,0,0,0-.511.435.271.271,0,0,0-.023.1.787.787,0,0,1,.053-.073.928.928,0,0,1,.173,0,.908.908,0,0,0,.542-.23.05.05,0,0,1,.071.006.053.053,0,0,1,0,.071c-.172.178-.2.292-.2.356a.119.119,0,0,0,.041.082c.02.058-.013.177.039.262a.145.145,0,0,0,.025.032.271.271,0,0,1,.016-.143.439.439,0,0,0,.357-.47.059.059,0,0,1,.048-.062Z" transform="translate(-546.056 -517.768)"/><path d="M599.128,526.907c.012.012.408.456.792.432.144-.12-.3-.384-.3-.444.156.144.816.708,1.236.5.168-.24-.3-.2-.817-.853.361.24,1.261.769,1.681.565.18-.192-.936-.792-1.308-1.261l-.961-.493-1.309,1.07Z" transform="translate(-546.876 -517.242)" fill="#df7a21"/><path d="M600.635,527.482a1.3,1.3,0,0,1-.656-.241.116.116,0,0,1,0,.028.307.307,0,0,1-.047.1h-.023a1.272,1.272,0,0,1-.838-.432l-.972-.473a.052.052,0,0,1-.03-.041.051.051,0,0,1,.019-.045l1.309-1.07,1.018.487a4.683,4.683,0,0,0,.735.637c.376.286.607.467.619.608a.275.275,0,0,1-.033.1c-.4.211-1-.113-1.416-.352a2.652,2.652,0,0,0,.38.281c.121.077.2.128.217.208a.188.188,0,0,1-.041.145.477.477,0,0,1-.246.066m-1.034-.652a.051.051,0,0,1,.035.014c.113.1.811.671,1.179.5,0-.085-.075-.131-.167-.189a2.48,2.48,0,0,1-.668-.585.051.051,0,0,1,0-.068.048.048,0,0,1,.067-.008c.176.116,1.229.753,1.63.562-.019-.108-.322-.338-.588-.541a4.46,4.46,0,0,1-.737-.642l-.945-.478-1.19,1.011.913.444a1.21,1.21,0,0,0,.739.428c.009-.065-.124-.18-.194-.241-.09-.077-.126-.111-.126-.152a.053.053,0,0,1,.031-.047.049.049,0,0,1,.021,0" transform="translate(-546.858 -517.228)"/><path d="M597.479,522.045a4.6,4.6,0,0,1,2.221-.132,9.412,9.412,0,0,0,1.536-.456,9.881,9.881,0,0,0,2.606-.792c.312-.036-.084.577-.479.72a7.713,7.713,0,0,1-2.485.649c.648.012.288.541-.792.289.516.289.323.336.323.336s-.912.048-1.152-.156c.612.228.36.312.36.312a2.427,2.427,0,0,1-.913-.071c.444.132.216.216.216.216a1.514,1.514,0,0,1-.66-.047c-.3-.108-.757-.865-.781-.865" transform="translate(-546.704 -516.03)" fill="#df7a21"/><path d="M598.659,523.011a1.3,1.3,0,0,1-.44-.068c-.243-.088-.552-.53-.718-.767-.039-.056-.066-.1-.076-.107s-.028-.009-.034-.032.019-.04.039-.053a4.526,4.526,0,0,1,2.251-.138h0a7.825,7.825,0,0,0,1.3-.381l.214-.074a9.746,9.746,0,0,0,2.591-.784c.131-.012.182.026.193.091.033.183-.3.6-.624.718a9.87,9.87,0,0,1-2.171.645.13.13,0,0,1,.042.1c-.01.16-.371.313-.91.242.142.1.159.165.153.208a.165.165,0,0,1-.073.079,4.552,4.552,0,0,1-.725-.018.107.107,0,0,1,.022.073.253.253,0,0,1-.086.1,4.02,4.02,0,0,1-.608.005.074.074,0,0,1,.005.031.129.129,0,0,1-.092.108,1.539,1.539,0,0,1-.256.019m-1.12-.96c.013.017.027.039.046.066.137.2.458.653.668.729a1.2,1.2,0,0,0,.405.061,1.487,1.487,0,0,0,.229-.016c.016-.005,0-.033-.105-.076a.642.642,0,0,1-.123-.041.052.052,0,0,1-.027-.065.051.051,0,0,1,.063-.032c.049.014.09.029.125.042a1.923,1.923,0,0,0,.447.042c.178,0,.32-.014.32-.014s0-.042-.142-.113a.585.585,0,0,1-.246-.107.052.052,0,0,1-.011-.066.05.05,0,0,1,.063-.023,2.517,2.517,0,0,1,.242.1,4.379,4.379,0,0,0,.885.051,1.3,1.3,0,0,0-.342-.24.051.051,0,0,1-.023-.064.057.057,0,0,1,.06-.032,2.343,2.343,0,0,0,.529.067c.358,0,.519-.108.522-.164,0-.023-.045-.065-.176-.082a.76.76,0,0,1-.1-.007.052.052,0,0,1,.007-.1h0c.039,0,.073,0,.105.007a8.745,8.745,0,0,0,2.357-.651c.3-.11.581-.493.562-.606a11.468,11.468,0,0,1-2.656.776l-.206.072a7.349,7.349,0,0,1-1.319.387c-.379-.027-.68-.038-.934-.038a3.779,3.779,0,0,0-1.224.138" transform="translate(-546.681 -516.016)"/><path d="M598.185,527.769l.065,1.174a.793.793,0,0,1-.065.1c-.03.035-.834-.126-.723.487,0,.251.005.316.176.456a.773.773,0,0,1-.03-.28s.225.134.446-.237c-.151.366-.044.5-.01.507.035.065-.061.361.242.356a.271.271,0,0,1-.062-.271s.316-.05.206-.623c.116-.114.16,0,.16,0s.036.341.311.271c.126.069-.02.255-.02.255a.277.277,0,0,0,.262-.165c.06-.171.13-.477-.2-.6-.041-.12.13-.131.13-.131a.59.59,0,0,1,.271.176c.061.105.04-.277-.22-.316-.321-.01-.341-.076-.341-.091s-.056-.852-.082-1.094Z" transform="translate(-546.697 -517.855)" fill="#df7a21"/><path d="M598.261,530.363c-.27,0-.274-.218-.276-.323l-.05-.112a.428.428,0,0,1-.02-.254.333.333,0,0,1-.275.08.847.847,0,0,0,.03.2.052.052,0,0,1-.022.057.05.05,0,0,1-.062,0c-.186-.154-.194-.235-.194-.5a.428.428,0,0,1,.073-.362.7.7,0,0,1,.539-.171h.113a.234.234,0,0,0,.069-.075l-.072-1.146.565-.091a8.832,8.832,0,0,1,.137,1.144.727.727,0,0,0,.29.042.377.377,0,0,1,.3.369c0,.045-.1.064-.125.024a.526.526,0,0,0-.242-.151c-.007,0-.053.016-.066.035.157.068.349.241.2.665a.325.325,0,0,1-.307.2.054.054,0,0,1-.047-.03.051.051,0,0,1,.005-.055.254.254,0,0,0,.058-.149.363.363,0,0,1-.361-.34,1.067,1.067,0,0,1-.119.543.319.319,0,0,1-.174.128c.016.013,0,.113.075.185a.053.053,0,0,1,.013.056.055.055,0,0,1-.048.033Zm-.225-.968a.049.049,0,0,1,.023.006.051.051,0,0,1,.025.066c-.124.3-.062.424-.038.439a.184.184,0,0,1,.042.131c0,.1.01.169.072.2a.353.353,0,0,1,0-.216c.044-.035.111-.048.162-.125a.639.639,0,0,0,.042-.471c.151-.231.24-.083.26-.034.005.024.031.248.193.248a.376.376,0,0,1,.1,0,.144.144,0,0,1,.074.1.238.238,0,0,1-.019.13.186.186,0,0,0,.111-.112c.1-.283.046-.454-.17-.535-.05-.088-.035-.129-.019-.153a.232.232,0,0,1,.165-.078.763.763,0,0,1,.219.1.351.351,0,0,0-.026-.045.217.217,0,0,0-.148-.094c-.09,0-.386-.012-.386-.142,0-.028-.055-.85-.079-1.089l-.461.082.113,1.12a.445.445,0,0,1-.077.133.22.22,0,0,1-.088.024l-.113,0c-.085,0-.347,0-.459.135a.338.338,0,0,0-.05.286.583.583,0,0,0,.043.308.678.678,0,0,1,0-.13.053.053,0,0,1,.028-.04.05.05,0,0,1,.05,0s.185.1.375-.218a.054.054,0,0,1,.045-.025" transform="translate(-546.679 -517.837)"/><path d="M595.676,526.584c0-.053-.548-.8-.407-.893.14.029.369.367.555.257-.056-.131-.223-.057-.41-.395a3.635,3.635,0,0,0-.876-1.578c.427.661,1.4,1.048,1.438.857s-.854-.922-.809-1.1a2.383,2.383,0,0,0,1.739,1.1c.046-.155-.542-.467-.693-.758a6.691,6.691,0,0,1-1.578-1.487,2.682,2.682,0,0,0-.789-.852.329.329,0,0,1-.068-.139c-.254-.6.084-.8.282-.827.163-.019.21.006.328-.05l-.417-.16c.181.134.644.016.544.4.2-.076.634-.591-.49-.707-.366-.419-1.87-.661-2.247,1.171a1.344,1.344,0,0,0,.142.119,11.452,11.452,0,0,0-2.218-.482c-1.247-.36-2.543-1.228-2.667-1.12-.167.074.753.929.706.949a21.217,21.217,0,0,0-2.2-1.1c-.478-.178-.956-.594-1.008-.515-.176.364.765,1.278.94,1.386s1.551.742,1.531.749a16.426,16.426,0,0,1-2.525-1.22c-.182-.041-.628-.642-.752-.6a1.579,1.579,0,0,0,1.057,1.442c.161.117,2.12.821,2.1.875,0,.015-2.244-.923-2.33-.956-.432-.169-.961-.763-1.061-.7s.244.7.68.9c.229.1,1.105.536,1.9.812.05.018-1.421-.558-2.127-.853-.321-.178-.472-.4-.521-.352-.072.048.116,1,2.388,1.532.06.024.8-.176.764-.149-.009.007-.735.165-.806.159a2.063,2.063,0,0,0-.467.068c-.024.064.144.4,1.317.333.15-.01.964-.3.9-.234-.034.03-1.108.38-1.19.387a1.78,1.78,0,0,0-.462.09c-.018.053.28.3.909.335a6.969,6.969,0,0,0,1.6-.318c-.022.025-1.022.368-1.049.388s-.4.041-.415.068c-.03.07.528.593,2.18.035-.165.225-.966.378-.965.419a.733.733,0,0,0,.457.265,1.481,1.481,0,0,0,.505,0,2.073,2.073,0,0,0,1.067-.576c.05.122-1.051.68-1,.733.24.222,1.033-.029,1.085-.058a12.189,12.189,0,0,0,1.523-.958c.023.123-1.9,1.169-1.881,1.213.123.2.781-.01.812-.029l.862-.467c.021-.013-.95.568-.864.656-.042.378,1.518-.26,1.64-.339.061-.04-.75.357-.752.544.26.442,1.1.3,1.225.2.065-.047-.076.329-.03.295a1.444,1.444,0,0,0,.246-.345c-.02.123-.112.318-.165.539s-.07.476-.143.742c-.016.118.516-.229.438-1.057.046.43-.168,1.238-.112,1.279.112.083.421-.4.452-.73a1.684,1.684,0,0,0,.45.591,1.45,1.45,0,0,0-.072-.485c.043-.328.049-.78.059-1.292.45.862.63,1.226.5,1.885.133.056.346-.461.33-.726a1.066,1.066,0,0,0,.924.827" transform="translate(-543.072 -515.67)" fill="#df7a21"/><path d="M595.648,526.622a1.138,1.138,0,0,1-.889-.667,1.171,1.171,0,0,1-.222.508.155.155,0,0,1-.11.059c-.018-.007-.065-.034-.062-.054a2.319,2.319,0,0,0-.425-1.714c-.009.45-.018.839-.056,1.134a.976.976,0,0,1,.064.333l.007.144c-.2-.038-.363-.283-.47-.467-.071.29-.293.66-.444.66-.094-.048-.087-.114-.036-.436,0-.026.008-.052.013-.079-.11.2-.248.3-.314.3-.008-.009-.06-.058-.059-.069a4.079,4.079,0,0,0,.087-.436c.016-.108.033-.211.056-.309a2.539,2.539,0,0,1,.076-.253.518.518,0,0,1-.1.105c-.077-.035-.07-.065-.041-.178a.79.79,0,0,0,.029-.142c-.02.073-.247.131-.491.131a.848.848,0,0,1-.745-.326c0-.088.1-.191.223-.287-.437.157-.966.3-1.088.162a.131.131,0,0,1-.03-.1c0-.051.076-.127.177-.212l-.115.062c-.039.024-.749.2-.867.015-.016-.034-.024-.047.159-.161-.3.075-.729.111-.878-.027-.005-.062.03-.106.164-.194-.068.021-.133.036-.194.048a1.582,1.582,0,0,1-.522,0c-.265-.059-.5-.237-.49-.311,0-.039.035-.05.234-.109a3.95,3.95,0,0,0,.526-.184,3.941,3.941,0,0,1-1.079.174,1.1,1.1,0,0,1-.878-.273.15.15,0,0,1-.014-.073c.016-.033.049-.042.268-.066.064-.007.151-.017.168-.023a1.961,1.961,0,0,1,.224-.085,3.374,3.374,0,0,1-.689.093,1.438,1.438,0,0,1-1-.323c0-.108.047-.131.427-.177a2.681,2.681,0,0,0,.277-.073c-.939.041-1.186-.183-1.25-.276a.132.132,0,0,1-.029-.117c.016-.042.208-.07.348-.085-1.644-.426-2.176-1.085-2.237-1.421-.011-.064,0-.1.025-.125.09-.012.127.025.2.091a2.117,2.117,0,0,0,.36.26l.016.007a1.482,1.482,0,0,1-.542-.779.189.189,0,0,1,.034-.09c.118-.011.221.073.424.237.083.068.175.143.269.212a1.728,1.728,0,0,1-.479-.867c-.013-.072-.03-.2.013-.241.117-.01.241.1.427.287a1.353,1.353,0,0,0,.362.3,4.112,4.112,0,0,0,.835.445c-.315-.277-.991-1-.828-1.337.125-.036.217.025.4.137a3.782,3.782,0,0,0,.665.356c.633.28,1.307.586,2.028.993-.027-.027-.056-.057-.082-.086-.37-.4-.542-.6-.521-.707.005,0,.087-.065.093-.065a2.823,2.823,0,0,1,.733.315,11.572,11.572,0,0,0,1.913.815l.18.027a12.682,12.682,0,0,1,1.883.391c.254-1.38,1.1-1.524,1.446-1.524a1.158,1.158,0,0,1,.833.311c.463.036.724.166.751.373a.442.442,0,0,1-.278.4,1.268,1.268,0,0,0-.062-.215.138.138,0,0,0-.044-.042.04.04,0,0,1-.018.016.453.453,0,0,1-.213.046,1.154,1.154,0,0,0-.128.009.4.4,0,0,0-.286.188.666.666,0,0,0,.038.582.31.31,0,0,0,.06.128,2.876,2.876,0,0,1,.792.855,6.707,6.707,0,0,0,1.567,1.475,1.744,1.744,0,0,0,.405.418c.188.157.336.281.3.387a.226.226,0,0,1-.119.034,1.889,1.889,0,0,1-1.057-.444c.171.191.265.322.246.407-.007.03-.033.082-.138.082a1.782,1.782,0,0,1-.828-.367,3.329,3.329,0,0,1,.271.64,2.851,2.851,0,0,0,.129.34.586.586,0,0,0,.281.279.231.231,0,0,1,.131.116c-.047.071-.082.08-.117.08a.585.585,0,0,1-.32-.17.549.549,0,0,0-.163-.11,2.52,2.52,0,0,0,.336.629c.1.165.123.2.121.227Zm-.911-.913a.043.043,0,0,1,.041.032,1.046,1.046,0,0,0,.84.8.521.521,0,0,1-.106-.138c-.234-.373-.4-.665-.28-.747a.408.408,0,0,1,.231.12.53.53,0,0,0,.267.151c.026,0,0-.013-.05-.04a.652.652,0,0,1-.317-.314,2.744,2.744,0,0,1-.135-.352,2.9,2.9,0,0,0-.393-.828,1.912,1.912,0,0,1-.346-.4.041.041,0,0,1,.008-.055.043.043,0,0,1,.055,0,2.77,2.77,0,0,1,.351.4,1.937,1.937,0,0,0,.962.494c.073-.092-.17-.352-.347-.542-.269-.288-.431-.469-.4-.572a.041.041,0,0,1,.036-.031.043.043,0,0,1,.041.024,2.319,2.319,0,0,0,1.7,1.074c-.019-.024-.182-.161-.313-.27a1.69,1.69,0,0,1-.413-.428c-.355-.231-1.556-1.243-1.582-1.5a2.882,2.882,0,0,0-.768-.821.341.341,0,0,1-.084-.155.743.743,0,0,1-.034-.658.487.487,0,0,1,.348-.231c.056-.006.1-.007.135-.009a.673.673,0,0,0,.071,0l-.079-.03a.823.823,0,0,1-.236-.092.041.041,0,0,1,.04-.072l.236.076a.441.441,0,0,1,.315.141.277.277,0,0,1,.017.231c.031-.082.188-.222.171-.362-.02-.159-.27-.27-.7-.315a1.146,1.146,0,0,0-.8-.3c-.333,0-1.137.139-1.4,1.435.03,0,.056.025.125.076a.042.042,0,0,1,.01.055.041.041,0,0,1-.053.016,9.912,9.912,0,0,0-2.02-.45l-.185-.029a11.56,11.56,0,0,1-1.933-.822,3.238,3.238,0,0,0-.7-.306c-.027.077.335.467.489.632.214.232.234.256.226.291-.85-.43-1.581-.762-2.263-1.065a3.868,3.868,0,0,1-.678-.362,1.3,1.3,0,0,0-.292-.159c-.141.311.758,1.208.94,1.319.089.053.5.247.869.424.422.2.584.279.645.317l.013.005h0c.026.019.025.027.024.039l-.035-.015-.032.044c-.028-.019-.359-.177-.651-.317l-.4-.192a6.358,6.358,0,0,1-1.475-.714c-.079-.01-.226-.158-.382-.315-.116-.116-.274-.276-.328-.276a1.839,1.839,0,0,0,.087.363,1.743,1.743,0,0,0,.976,1,1.473,1.473,0,0,0,.225.107l.108.045c.2.083.474.188.741.292,1.074.418,1.071.425,1.049.484a.1.1,0,0,1-.062,0l-.009.007-.023-.014c-.145-.04-.532-.2-1.728-.694l-.1-.043h0l-.454-.188a3.017,3.017,0,0,1-.7-.468,1.337,1.337,0,0,0-.329-.231,1.44,1.44,0,0,0,.678.83l.211.1c.2.091.482.225.8.365l.621.246c.113.044.182.071.224.09l.033.011v0c.034.018.033.027.03.044l-.043-.009-.016.039-.272-.108-.11-.043c-.176-.061-.341-.13-.5-.2-.427-.169-.918-.367-1.246-.5a2.182,2.182,0,0,1-.377-.271.577.577,0,0,0-.112-.085,1.584,1.584,0,0,0,.076.2c.13.245.616.86,2.306,1.258a2.378,2.378,0,0,0,.243-.04l.264-.06a1.887,1.887,0,0,1,.246-.052c.005.016.04.067.025.076s-.514.117-.519.118c-.09.019-.171.034-.22.039a.779.779,0,0,1-.091.01,2.443,2.443,0,0,0-.444.06c.126.125.39.315,1.292.259a4.351,4.351,0,0,0,.495-.136,2.713,2.713,0,0,1,.4-.108c.006.016.044.068.032.08-.053.048-1.153.392-1.215.4a2.027,2.027,0,0,0-.435.075,1.577,1.577,0,0,0,.881.267h.006a5.859,5.859,0,0,0,1.44-.28c.243-.073.173-.043.185-.013a.041.041,0,0,1-.005.045,3.664,3.664,0,0,1-.626.238c-.213.076-.407.145-.432.158a.74.74,0,0,1-.2.033,1.608,1.608,0,0,0-.213.031,1.314,1.314,0,0,0,.829.216,4.194,4.194,0,0,0,1.313-.252.041.041,0,0,1,.046.015.04.04,0,0,1,0,.049,1.829,1.829,0,0,1-.783.361,1.458,1.458,0,0,0-.187.062,1.784,1.784,0,0,0,.437.2,1.5,1.5,0,0,0,.49,0,2.012,2.012,0,0,0,1.045-.565c.1.1-.05.214-.565.528a2.862,2.862,0,0,0-.371.245,1.129,1.129,0,0,0,.3.039,2.448,2.448,0,0,0,.732-.143,13.211,13.211,0,0,0,1.5-.932.035.035,0,0,1,.036-.037c.007-.01.04.019.045.039.015.079-.158.208-1.267.861-.291.171-.591.348-.621.381a1.065,1.065,0,0,0,.208.022,1.963,1.963,0,0,0,.55-.108l.2-.106.666-.36a.041.041,0,0,1,.057.014.042.042,0,0,1-.015.056,3.747,3.747,0,0,0-.849.61c.026.069.057.089.145.089a4.625,4.625,0,0,0,1.3-.387c.139-.073.154-.073.162-.073a.041.041,0,0,1,.038.03.045.045,0,0,1-.018.048,1.434,1.434,0,0,1-.149.071c-.342.181-.583.362-.584.438a.793.793,0,0,0,.668.263,1.1,1.1,0,0,0,.491-.093c.094.034.084.079.05.208,0,.009,0,.02-.007.031.039-.077.12-.187.159-.274a.041.041,0,0,1,.078.024,1.616,1.616,0,0,1-.07.234,3.039,3.039,0,0,0-.1.308c-.023.1-.039.2-.056.3a3.873,3.873,0,0,1-.088.44,1.167,1.167,0,0,0,.352-.717,2.259,2.259,0,0,0,.008-.289h0a.1.1,0,0,1,.027-.07.074.074,0,0,1,.041-.01c.006,0,.01,0,.011.012v.005a1.78,1.78,0,0,1,0,.362c-.016.184-.048.381-.074.545a1.992,1.992,0,0,0-.041.35,1.138,1.138,0,0,0,.376-.712.043.043,0,0,1,.033-.037.042.042,0,0,1,.045.02,1.7,1.7,0,0,0,.432.574l-.068-.105a1,1,0,0,0-.062-.33c.039-.319.047-.723.056-1.191l0-.113a.042.042,0,0,1,.032-.04.044.044,0,0,1,.047.022c.439.841.639,1.223.508,1.913l.03-.079a1.136,1.136,0,0,0,.218-.652.042.042,0,0,1,.036-.045Z" transform="translate(-543.058 -515.664)"/><path d="M589.6,521.755a1.2,1.2,0,0,1-.688.217c.1.381.886.088.886.088a1.963,1.963,0,0,1-.654.49,1.569,1.569,0,0,0,.966.021,1.879,1.879,0,0,0,.32-.334s-.708.818-.81.81c-.013.1.742.061.9-.082a3.831,3.831,0,0,1,.551-.354s-1.034.722-1.082.722a2.7,2.7,0,0,0,1.661-.429,7.172,7.172,0,0,1-1.177.742c.333.075.5.3,1.633-.19a2.748,2.748,0,0,0,1.014-.865,6.559,6.559,0,0,1-1.736,1.443c-.04.082.749.415,1.757-.633Z" transform="translate(-544.495 -516.312)" fill="#df7a21"/><path d="M591.726,524.173a.676.676,0,0,1-.351-.077c-.016-.012-.048-.076-.039-.094.251-.163.5-.33.736-.5-.928.4-1.2.306-1.468.22-.05-.016-.1-.032-.153-.045a.042.042,0,0,1-.032-.037.041.041,0,0,1,.024-.041,3.218,3.218,0,0,0,.654-.387l.04-.028a2.151,2.151,0,0,1-1.171.179.041.041,0,0,1,.011-.081c.021-.009.139-.085.3-.192a1.486,1.486,0,0,1-.666.01.113.113,0,0,1-.041-.068,2.554,2.554,0,0,0,.429-.4,1.5,1.5,0,0,1-.89-.062,2.482,2.482,0,0,0,.539-.434,1.015,1.015,0,0,1-.645.011.264.264,0,0,1-.139-.177,1.543,1.543,0,0,0,.7-.26.042.042,0,0,1,.058.008.041.041,0,0,1-.009.059,1.16,1.16,0,0,1-.714.225c.056,0,.088.045.14.073.228.12.728-.062.732-.065a.044.044,0,0,1,.049.016.041.041,0,0,1,0,.05,1.978,1.978,0,0,1-.674.5,2.672,2.672,0,0,0,.935-.056.44.44,0,0,0,.071-.056c.079-.088.161-.179.239-.269a.04.04,0,0,1,.057-.005.04.04,0,0,1,.007.057,2.729,2.729,0,0,1-.236.269,2.565,2.565,0,0,1-.6.557,2.317,2.317,0,0,0,.864-.154,3.8,3.8,0,0,1,.56-.36.04.04,0,0,1,.055.015.041.041,0,0,1-.011.056c-.584.407-.856.587-.984.666a2.921,2.921,0,0,0,1.517-.443.041.041,0,0,1,.044.07c-.226.151-.388.263-.516.352a3.649,3.649,0,0,1-.563.347l.048.015c.254.085.519.169,1.448-.233a2.522,2.522,0,0,0,.562-.375,3.622,3.622,0,0,0,.435-.478.041.041,0,0,1,.057-.009.041.041,0,0,1,.011.056,2.706,2.706,0,0,1-.471.513,9.293,9.293,0,0,1-1.269.937c.026-.01.1.025.23.039a1.868,1.868,0,0,0,1.467-.732.043.043,0,0,1,.059,0,.043.043,0,0,1,0,.059,2.057,2.057,0,0,1-1.433.758" transform="translate(-544.481 -516.298)"/><path d="M597.219,524.817a1.172,1.172,0,0,0,.34.565.819.819,0,0,1,.293.484Z" transform="translate(-546.637 -517.103)" fill="#df7a21"/><path d="M597.837,525.893a.042.042,0,0,1-.042-.038.786.786,0,0,0-.279-.456,1.2,1.2,0,0,1-.352-.588.041.041,0,1,1,.081-.017,1.138,1.138,0,0,0,.327.542.858.858,0,0,1,.306.511.042.042,0,0,1-.038.045Z" transform="translate(-546.623 -517.088)"/><path d="M597.035,522.011a1,1,0,0,0,.374.47,3.128,3.128,0,0,1,.749.865,10.3,10.3,0,0,1,.183,1.108Z" transform="translate(-546.59 -516.378)" fill="#df7a21"/><path d="M598.327,524.48h-.006a.043.043,0,0,1-.036-.047,10.621,10.621,0,0,0-.182-1.092,3.138,3.138,0,0,0-.732-.841,1.026,1.026,0,0,1-.39-.491.04.04,0,0,1,.026-.052.041.041,0,0,1,.052.026.974.974,0,0,0,.358.447,3.185,3.185,0,0,1,.766.887,10.121,10.121,0,0,1,.185,1.127.042.042,0,0,1-.042.036" transform="translate(-546.576 -516.364)"/><path d="M594.575,522.606a1.173,1.173,0,0,0,.177,1.307c-.525.64-.525.721-.525.721s.293.164.818-.285c.864,1.06.576,1.548.576,1.548Z" transform="translate(-545.865 -516.532)" fill="#df7a21"/><path d="M595.614,525.924a.035.035,0,0,1-.021-.006.04.04,0,0,1-.016-.056s.257-.481-.572-1.5c-.483.47-.792.3-.8.3-.021-.1.172-.369.512-.784a1,1,0,0,1-.217-1.169.444.444,0,0,0,.031-.1.044.044,0,0,1,.035-.047c.029,0,.044.01.047.032a.343.343,0,0,1-.035.149,1,1,0,0,0,.2,1.138,5.158,5.158,0,0,0-.513.749.215.215,0,0,1,.059,0,1.049,1.049,0,0,0,.689-.315c.93,1.076.649,1.579.638,1.6a.043.043,0,0,1-.036.02" transform="translate(-545.858 -516.518)"/><path d="M596.005,525.842s-.079-.113.062-.539a1.621,1.621,0,0,0,.332.249c.062.062.714.157.756.593Z" transform="translate(-546.318 -517.228)" fill="#df7a21"/><path d="M597.141,526.182a.042.042,0,0,1-.042-.038c-.029-.306-.4-.434-.6-.5a.444.444,0,0,1-.145-.064.417.417,0,0,0-.086-.057.817.817,0,0,1-.249-.194.878.878,0,0,0,0,.49.042.042,0,0,1-.069.046c-.009-.013-.088-.142.057-.576.148.078.23.125.3.162a.541.541,0,0,1,.1.07.562.562,0,0,0,.112.044c.217.076.622.215.656.574a.042.042,0,0,1-.038.045Z" transform="translate(-546.304 -517.224)"/><path d="M596.831,520.6c0-.032-.131-.315-.622.038.263.016.522.166.622-.038" transform="translate(-546.377 -515.978)" fill="#df7a21"/><path d="M596.606,520.729h0a1.1,1.1,0,0,1-.217-.033,1.5,1.5,0,0,0-.223-.036l-.117-.007.095-.068a.8.8,0,0,1,.436-.183.237.237,0,0,1,.25.179.222.222,0,0,1-.224.148m-.323-.138.122.024a1,1,0,0,0,.2.03.142.142,0,0,0,.145-.079h0a.408.408,0,0,0-.467.025" transform="translate(-546.335 -515.963)"/><path d="M602.333,522.382a6.036,6.036,0,0,0,1.945.168c-.613.815-1.836.263-1.836.263.6.18.624.168.815.336.06.156-1.1.084-1.489-.132,1.07.337,1.093.312,1.13.444.047.181-1.755-.047-1.909-.289a7.113,7.113,0,0,0,1.008.614c-.324.143-.925.288-2.03-.493a7.822,7.822,0,0,0,2.967,1.476c-.505.745-2.463-.444-3.363-1.044a13.779,13.779,0,0,0,2.233,1.416c-.131.2-1.08.024-1.14-.071Z" transform="translate(-547.199 -516.474)" fill="#df7a21"/><path d="M601.449,525.263h-.015a1.648,1.648,0,0,1-.819-.184l.071-.044a1.994,1.994,0,0,0,.849.142.566.566,0,0,0,.157-.029,18.69,18.69,0,0,1-2.315-1.5l-.007,0h0l-.024-.02c.039-.073.038-.073.235.058.832.555,2.82,1.768,3.305,1.055l-.45-.116a5.423,5.423,0,0,1-2.51-1.307.042.042,0,0,1,0-.056.043.043,0,0,1,.057-.008c1.066.755,1.644.64,1.988.489a.472.472,0,0,1-.277-.077,4.173,4.173,0,0,1-.64-.389.307.307,0,0,1-.11-.087.043.043,0,0,1,.007-.053.042.042,0,0,1,.054,0l.1.074a3.96,3.96,0,0,0,1.063.239,1.666,1.666,0,0,0,.686,0c-.024-.065-.025-.068-.563-.233l-.061-.019a1.749,1.749,0,0,1-.488-.152.042.042,0,0,1-.019-.053.046.046,0,0,1,.051-.024l.482.151a2.338,2.338,0,0,0,.957.025.817.817,0,0,0-.32-.159,2.4,2.4,0,0,1-.477-.143.041.041,0,0,1,.029-.077l.225.067c.1.03.18.053.244.073a1.316,1.316,0,0,0,1.246-.3,7.09,7.09,0,0,1-1.853-.2l.033-.076a6.036,6.036,0,0,0,1.918.168.041.041,0,0,1,.047.016.042.042,0,0,1,0,.048,1.241,1.241,0,0,1-1.136.456c.033.024.068.052.109.088.009.008.009.037.009.049a.1.1,0,0,1-.02.049,1.141,1.141,0,0,1-.573.049c.194.067.212.1.236.185.006.019-.033.079-.051.088a4.271,4.271,0,0,1-1.51-.144c.138.086.257.147.366.2s.188.1.278.154a1.434,1.434,0,0,1-1.537-.092,5.421,5.421,0,0,0,1.988.892,1.078,1.078,0,0,1,.494.192c-.362.574-1.424.179-2.384-.35a5.857,5.857,0,0,0,1.218.709.048.048,0,0,1,.041.019.042.042,0,0,1,0,.045c-.049.074-.175.112-.377.112" transform="translate(-547.186 -516.46)"/><path d="M603.6,524.241a5.41,5.41,0,0,1-.745.013Z" transform="translate(-548.091 -516.954)" fill="#df7a21"/><path d="M603.091,524.288a2.584,2.584,0,0,1-.26-.008.04.04,0,0,1-.033-.047.041.041,0,0,1,.047-.034,5.019,5.019,0,0,0,.732-.014.044.044,0,0,1,.047.036.043.043,0,0,1-.036.048,4.752,4.752,0,0,1-.5.02" transform="translate(-548.077 -516.939)"/><path d="M589.274,521.46a4.658,4.658,0,0,0,1.559.538.8.8,0,0,1-.307.163,1.368,1.368,0,0,0,.919.109c-.116.116-.266.245-.266.245a1.16,1.16,0,0,0,.885-.088,3.571,3.571,0,0,0-.225.306l.326.022Z" transform="translate(-544.587 -516.236)" fill="#df7a21"/><path d="M592.152,522.781h0l-.326-.021c-.024-.047.015-.131.1-.243a1.162,1.162,0,0,1-.768.024c-.008-.053.068-.134.154-.22a1.391,1.391,0,0,1-.776-.12c-.016-.007-.042-.031-.041-.049s0-.039.013-.044a.91.91,0,0,0,.194-.084,5.461,5.461,0,0,1-1.456-.541.042.042,0,0,1-.017-.056.043.043,0,0,1,.056-.018,4.419,4.419,0,0,0,1.535.534.044.044,0,0,1,.042.024.041.041,0,0,1-.01.047.738.738,0,0,1-.22.136,1.281,1.281,0,0,0,.795.065.041.041,0,0,1,.045.021.041.041,0,0,1-.007.049c-.091.091-.2.189-.246.229.035-.005.108,0,.211,0a1.286,1.286,0,0,0,.607-.14.039.039,0,0,1,.05.011.04.04,0,0,1,0,.052,3.724,3.724,0,0,0-.223.3l.3-.042a.041.041,0,0,1,0,.082" transform="translate(-544.573 -516.222)"/><path d="M569.812,545.949c.036,0,.126-.056.047-.056-.036,0-.125.056-.047.056" transform="translate(-539.556 -522.542)" fill="#fff"/></g></g></g></svg>