<svg xmlns="http://www.w3.org/2000/svg" xmlns:xlink="http://www.w3.org/1999/xlink" width="36" height="36" viewBox="0 0 36 36"><defs><clipPath id="a"><circle cx="18" cy="18" r="18" transform="translate(3254 518)" fill="#fff" stroke="#707070" stroke-width="1"/></clipPath><clipPath id="b"><rect width="61.713" height="36" fill="none"/></clipPath></defs><g transform="translate(-3254 -518)" clip-path="url(#a)"><g transform="translate(2824.748 82.375)"><g transform="translate(429.252 435.625)" clip-path="url(#b)"><rect width="61.713" height="18" fill="#c0003b"/><rect width="61.713" height="18" transform="translate(0 18)" fill="#3d9546"/><path d="M429.252,435.626v36l34.915-18Z" transform="translate(-429.252 -435.625)"/><rect width="61.713" height="6.443" transform="translate(0 14.779)"/><path d="M429.252,469.957,459.2,454.516l-29.951-15.443Z" transform="translate(-429.252 -436.515)" fill="#f5cd28"/><rect width="61.713" height="1.896" transform="translate(0 17.053)" fill="#f5cd28"/><path d="M429.252,468.568l25.817-13.31-25.817-13.31Z" transform="translate(-429.252 -437.257)"/><path d="M437.643,461.42v2.051a5.436,5.436,0,0,0,5.286-5.771,4.942,4.942,0,0,0-4.853-5.219c-1.117,0-4.569.8-4.569,4.4s3.385,3.935,4.052,3.935a2.935,2.935,0,0,0,2.885-3.3,2.69,2.69,0,0,1-2.683,2.384,2.8,2.8,0,0,1-2.951-2.685,3.146,3.146,0,0,1,3.018-3.118,3.424,3.424,0,0,1,3.319,3.419c0,1.717-1.351,3.9-3.5,3.9" transform="translate(-430.35 -439.976)" fill="#f3cd2d"/><path d="M436.975,459.807l.107.068a8.121,8.121,0,0,1,3.115-3.3,8.308,8.308,0,0,0-3.221,3.227" transform="translate(-431.245 -441.033)" fill="#f3cd2d"/><path d="M437.089,459.919l-.137-.088a8.547,8.547,0,0,1,3.188-3.262h0a7.653,7.653,0,0,0-1.228.907,8.676,8.676,0,0,1,1.229-.907l.064.035a8.164,8.164,0,0,0-3.1,3.281Zm.688-1.221a11.226,11.226,0,0,0-.781,1.123l.062.016a6.7,6.7,0,0,1,.72-1.139" transform="translate(-431.239 -441.031)" fill="#f3cd2d"/><path d="M437.226,459.366s-.263-.538-.031-.775.125.632.125.632l.1-.144s-.157-.657.019-.8.087.632.087.632l.108-.138s-.113-.637.055-.756.064.6.064.6l.125-.143s-.093-.606.113-.751.024.575.024.575l.138-.149s-.062-.556.113-.683.025.526.025.526l.125-.131s-.038-.519.131-.638.012.494.012.494l.133-.125s-.033-.519.18-.62-.038.488-.038.488l.143-.124s.045-.608.226-.664-.081.538-.081.538l.13-.106s.07-.519.27-.581-.125.475-.125.475l.131-.1s.145-.52.332-.576-.194.487-.194.487l.125-.088s.207-.469.375-.5-.187.387-.187.387l.157-.094s.268-.487.362-.338-.375.369-.375.369l-.157.087s.57-.268.64-.131-.783.225-.783.225l-.137.094s.569-.157.5-.013-.631.113-.631.113l-.131.094s.57-.138.495-.007-.633.119-.633.119l-.137.114s.556-.144.476.024-.713.162-.713.162l-.157.145s.588-.2.537-.044-.719.238-.719.238l-.151.149s.632-.213.445-.019a1.307,1.307,0,0,1-.645.245l-.181.219s.625-.375.537-.163-.7.356-.7.356l-.125.151s.562-.324.506-.143-.657.375-.657.375l-.1.137s.663-.394.607-.194-.688.343-.688.343l-.082.125s.614-.349.619-.181-.718.338-.718.338Z" transform="translate(-431.277 -440.923)" fill="#f3cd2d"/><path d="M440.706,459.807l-.106.068a8.129,8.129,0,0,0-3.114-3.3,8.32,8.32,0,0,1,3.22,3.227" transform="translate(-431.377 -441.033)" fill="#f3cd2d"/><path d="M440.581,459.913l-.015-.033a8.18,8.18,0,0,0-3.1-3.281l.024-.011-.007-.016.017-.027.033.02h0a8.9,8.9,0,0,1,3.194,3.218Zm-.892-1.479a7.133,7.133,0,0,1,.918,1.386l.076-.048a12.357,12.357,0,0,0-.994-1.338" transform="translate(-431.372 -441.024)" fill="#f3cd2d"/><path d="M440.355,459.366s.263-.538.032-.775-.125.632-.125.632l-.1-.144s.157-.657-.019-.8-.087.632-.087.632l-.106-.138s.112-.637-.056-.756-.063.6-.063.6l-.126-.143s.094-.606-.111-.751-.026.575-.026.575l-.137-.149s.062-.556-.113-.683-.025.526-.025.526l-.126-.131s.038-.519-.13-.638-.013.494-.013.494l-.132-.125s.032-.519-.181-.62.038.488.038.488l-.143-.124s-.044-.608-.226-.664.082.538.082.538l-.131-.106s-.07-.519-.27-.581.126.475.126.475l-.132-.1s-.143-.52-.332-.576.194.487.194.487l-.125-.088s-.207-.469-.375-.5.187.387.187.387l-.157-.094s-.268-.487-.362-.338.375.369.375.369l.157.087s-.57-.268-.638-.131.782.225.782.225l.137.094s-.568-.157-.5-.013.631.113.631.113l.131.094s-.568-.138-.492-.007.63.119.63.119l.137.114s-.556-.144-.476.024.713.162.713.162l.157.145s-.587-.2-.537-.044.719.238.719.238l.151.149s-.632-.213-.444-.019a1.3,1.3,0,0,0,.643.245l.181.219s-.624-.375-.537-.163.7.356.7.356l.126.151s-.564-.324-.507-.143.657.375.657.375l.1.137s-.663-.394-.605-.194.686.343.686.343l.083.125s-.614-.349-.62-.181.72.338.72.338Z" transform="translate(-431.245 -440.923)" fill="#f3cd2d"/></g></g></g></svg>