<svg xmlns="http://www.w3.org/2000/svg" xmlns:xlink="http://www.w3.org/1999/xlink" width="36" height="36" viewBox="0 0 36 36"><defs><clipPath id="a"><circle cx="18" cy="18" r="18" transform="translate(3014 613)" fill="#fff" stroke="#707070" stroke-width="1"/></clipPath><clipPath id="b"><rect width="61.714" height="36" fill="none"/></clipPath></defs><g transform="translate(-3014 -613)" clip-path="url(#a)"><g transform="translate(2372.163 334.973)"><g transform="translate(628.837 278.027)" clip-path="url(#b)"><path d="M628.837,278.026v28.188l42.28-28.188Z" transform="translate(-628.837 -278.027)" fill="#419e4b"/><path d="M655.03,316.744h42.28V288.557Z" transform="translate(-635.597 -280.745)" fill="#bc0030"/><path d="M671.118,278.026l-42.28,28.188v2.967l46.732-31.155Z" transform="translate(-628.837 -278.027)" fill="#f3d02f"/><path d="M649.03,315.712h4.452l42.28-28.188v-2.967Z" transform="translate(-634.049 -279.712)" fill="#f3d02f"/><path d="M647.84,304.71l-1.1-.044-2.681-.108,3.152-2.1-1.024-3.647,2.971,2.348,3.152-2.1-.93,2.516-.384,1.036,2.972,2.348-3.785-.153-1.314,3.552Zm21.225-14.151-1.1-.045-2.681-.108,3.152-2.1-1.025-3.647,2.972,2.348,3.152-2.1-.932,2.516-.383,1.037,2.972,2.348-3.784-.153-1.315,3.552Zm6.5-12.533-46.73,31.155v4.845h14.982l46.732-31.155v-4.845Z" transform="translate(-628.837 -278.027)"/><path d="M686.209,287.214l-3.152,2.1-2.972-2.348,1.025,3.646-3.152,2.1,2.681.108,4.638-3.093Z" transform="translate(-641.514 -280.334)" fill="#fff"/><path d="M683.7,297.475l1.314-3.552,3.785.153-2.972-2.348.383-1.037-4.638,3.093,1.1.045Z" transform="translate(-642.447 -281.295)" fill="#fff"/><path d="M657.6,306.286l-3.152,2.1-2.972-2.348,1.025,3.647-3.152,2.1,2.681.109,4.64-3.093Z" transform="translate(-634.131 -285.256)" fill="#fff"/><path d="M655.091,316.547l1.314-3.552,3.785.153-2.972-2.348.384-1.036-4.64,3.093,1.1.045Z" transform="translate(-635.063 -286.218)" fill="#fff"/></g></g></g></svg>