<svg xmlns="http://www.w3.org/2000/svg" xmlns:xlink="http://www.w3.org/1999/xlink" width="36" height="36" viewBox="0 0 36 36"><defs><clipPath id="a"><circle cx="18" cy="18" r="18" transform="translate(617 379)" fill="none" stroke="#707070" stroke-width="1"/></clipPath></defs><g transform="translate(-617 -379)" clip-path="url(#a)"><path d="M89.421,128.608a13.371,13.371,0,0,1-.142,1.4c-.023.147-.048.294-.076.44a7.074,7.074,0,0,1,1.755,0c-.028-.146-.053-.293-.076-.44a13.371,13.371,0,0,1-.142-1.4,13.374,13.374,0,0,1,1.841.218,7.142,7.142,0,0,1,0-1.755,13.457,13.457,0,0,1-1.841.218,13.533,13.533,0,0,1,.218-1.84,7.141,7.141,0,0,1-1.755,0,13.369,13.369,0,0,1,.218,1.84,13.459,13.459,0,0,1-1.84-.218,7.073,7.073,0,0,1,0,1.755,13.376,13.376,0,0,1,1.84-.218" transform="translate(553.708 260.552)" fill="#d50037"/><path d="M89.421,128.608a13.371,13.371,0,0,1-.142,1.4c-.023.147-.048.294-.076.44a7.074,7.074,0,0,1,1.755,0c-.028-.146-.053-.293-.076-.44a13.371,13.371,0,0,1-.142-1.4,13.374,13.374,0,0,1,1.841.218,7.142,7.142,0,0,1,0-1.755,13.457,13.457,0,0,1-1.841.218,13.533,13.533,0,0,1,.218-1.84,7.141,7.141,0,0,1-1.755,0,13.369,13.369,0,0,1,.218,1.84,13.459,13.459,0,0,1-1.84-.218,7.073,7.073,0,0,1,0,1.755,13.376,13.376,0,0,1,1.84-.218" transform="translate(553.708 277.552)" fill="#d50037"/><path d="M89.421,128.608a13.371,13.371,0,0,1-.142,1.4c-.023.147-.048.294-.076.44a7.074,7.074,0,0,1,1.755,0c-.028-.146-.053-.293-.076-.44a13.371,13.371,0,0,1-.142-1.4,13.374,13.374,0,0,1,1.841.218,7.142,7.142,0,0,1,0-1.755,13.457,13.457,0,0,1-1.841.218,13.533,13.533,0,0,1,.218-1.84,7.141,7.141,0,0,1-1.755,0,13.369,13.369,0,0,1,.218,1.84,13.459,13.459,0,0,1-1.84-.218,7.073,7.073,0,0,1,0,1.755,13.376,13.376,0,0,1,1.84-.218" transform="translate(535.708 260.552)" fill="#d50037"/><path d="M89.421,128.608a13.371,13.371,0,0,1-.142,1.4c-.023.147-.048.294-.076.44a7.074,7.074,0,0,1,1.755,0c-.028-.146-.053-.293-.076-.44a13.371,13.371,0,0,1-.142-1.4,13.374,13.374,0,0,1,1.841.218,7.142,7.142,0,0,1,0-1.755,13.457,13.457,0,0,1-1.841.218,13.533,13.533,0,0,1,.218-1.84,7.141,7.141,0,0,1-1.755,0,13.369,13.369,0,0,1,.218,1.84,13.459,13.459,0,0,1-1.84-.218,7.073,7.073,0,0,1,0,1.755,13.376,13.376,0,0,1,1.84-.218" transform="translate(535.708 277.552)" fill="#d50037"/><rect width="6" height="41.663" transform="translate(632 376)" fill="#d50037"/><rect width="38.852" height="6" transform="translate(615 394)" fill="#d50037"/></g></svg>