<?xml version="1.0" encoding="UTF-8"?>
<!DOCTYPE svg PUBLIC "-//W3C//DTD SVG 1.1//EN" "http://www.w3.org/Graphics/SVG/1.1/DTD/svg11.dtd">
<!-- Creator: CorelDRAW 2018 (64-Bit) -->
<svg xmlns="http://www.w3.org/2000/svg" xml:space="preserve" width="44px" height="51px" version="1.1" style="shape-rendering:geometricPrecision; text-rendering:geometricPrecision; image-rendering:optimizeQuality; fill-rule:evenodd; clip-rule:evenodd"
viewBox="0 0 1.03 1.187"
 xmlns:xlink="http://www.w3.org/1999/xlink">
 <defs>
  <style type="text/css">
   <![CDATA[
    .fil0 {fill:#00F4FF}
    .fil2 {fill:#36587D}
    .fil1 {fill:white}
   ]]>
  </style>
 </defs>
 <g id="Layer_x0020_1">
  <metadata id="CorelCorpID_0Corel-Layer"/>
  <g id="_2657294002912">
   <path class="fil0" d="M0.604 1.041l0.137 -0.078 0.106 -0.062 0.085 0.048 -0.412 0.238 0 -0.097 0.084 -0.049zm0.342 -0.203l0 0.006 -0.005 0.003 -0.327 -0.189 0 0.097 0.048 0.028 0 0 0.149 0.086 0.046 0.026 0.084 0.049 0.085 -0.049 0.004 -0.003 0 -0.005 0 -0.098 -0.243 -0.14 0 0 -0.084 -0.048 -0.084 0.048 0.327 0.189zm0.084 -0.535l0 0.475 -0.084 -0.048 0 -0.281 0 -0.097 0.084 -0.049zm-0.093 0.152l-0.333 0.191 0 0.384 -0.084 0.049 0 -0.481 0.417 -0.241 0 0.098z"/>
   <path class="fil1" d="M0.005 0.295l0.411 -0.238 0 0.097 -0.243 0.141 -0.084 0.048 -0.084 -0.048zm0.178 0.005l0.332 0.192 0.332 -0.192 0.085 0.049 -0.417 0.24 -0.416 -0.24 0.084 -0.049zm0.327 -0.2l0.005 -0.003 0.005 0.003 0 0.378 0.084 -0.049 0 -0.055 0 0 0 -0.173 0 -0.052 0 -0.098 -0.084 -0.048 -0.005 -0.003 -0.005 0.003 -0.084 0.048 0 0.281 0 0 0 0.097 0.084 0.049 0 -0.378zm0.347 0.195l-0.136 -0.079 -0.107 -0.062 0 -0.097 0.411 0.238 -0.084 0.048 -0.084 -0.048z"/>
   <path class="fil2" d="M0.084 0.449l0 0.157 0 0.124 -0.084 0.048 0 -0.475 0.084 0.049 0 0.097zm0.005 0.398l-0.005 -0.003 0 -0.006 0.327 -0.189 -0.084 -0.048 -0.048 0.027 0 0 -0.149 0.086 -0.046 0.027 -0.084 0.048 0 0.098 0 0.005 0.005 0.003 0.084 0.049 0.243 -0.141 0 0 0.084 -0.048 0 -0.097 -0.327 0.189zm0.421 0.34l-0.411 -0.238 0.084 -0.048 0.243 0.14 0.084 0.049 0 0.097zm-0.084 -0.157l0 -0.384 -0.332 -0.191 0 -0.098 0.416 0.241 0 0.481 -0.084 -0.049z"/>
  </g>
 </g>
</svg>
