<?xml version="1.0" encoding="UTF-8"?>
<!DOCTYPE svg PUBLIC "-//W3C//DTD SVG 1.1//EN" "http://www.w3.org/Graphics/SVG/1.1/DTD/svg11.dtd">
<!-- Creator: CorelDRAW 2018 (64-Bit) -->
<svg xmlns="http://www.w3.org/2000/svg" xml:space="preserve" width="40px" height="40px" version="1.1" style="shape-rendering:geometricPrecision; text-rendering:geometricPrecision; image-rendering:optimizeQuality; fill-rule:evenodd; clip-rule:evenodd"
viewBox="0 0 2.162 2.162"
 xmlns:xlink="http://www.w3.org/1999/xlink">
 <defs>
  <style type="text/css">
   <![CDATA[
    .str0 {stroke:#052337;stroke-width:0.054;stroke-miterlimit:2.61313}
    .str2 {stroke:#052337;stroke-width:0.054;stroke-linecap:round;stroke-linejoin:round;stroke-miterlimit:2.61313}
    .str1 {stroke:#052337;stroke-width:0.054;stroke-linecap:round;stroke-linejoin:round;stroke-miterlimit:2.61313}
    .fil5 {fill:none}
    .fil2 {fill:#00F4FF}
    .fil4 {fill:#052337}
    .fil3 {fill:#264361}
    .fil1 {fill:white}
    .fil0 {fill:white}
   ]]>
  </style>
   <clipPath id="id0">
    <path d="M1.081 0c0.597,0 1.081,0.484 1.081,1.081 0,0.597 -0.484,1.081 -1.081,1.081 -0.597,0 -1.081,-0.484 -1.081,-1.081 0,-0.597 0.484,-1.081 1.081,-1.081z"/>
   </clipPath>
 </defs>
 <g id="Layer_x0020_1">
  <metadata id="CorelCorpID_0Corel-Layer"/>
  <path class="fil0" d="M1.081 0c0.597,0 1.081,0.484 1.081,1.081 0,0.597 -0.484,1.081 -1.081,1.081 -0.597,0 -1.081,-0.484 -1.081,-1.081 0,-0.597 0.484,-1.081 1.081,-1.081z"/>
  <g style="clip-path:url(#id0)">
   <g id="_2657289455552">
    <g>
     <path id="1" class="fil1 str0" d="M1.081 1.52l0.222 -0.122c-0.017,-0.046 -0.016,-0.105 0.009,-0.179 -0.065,0.066 -0.144,0.113 -0.231,0.113 -0.087,0 -0.166,-0.047 -0.231,-0.114 0.025,0.074 0.026,0.133 0.009,0.18l0.222 0.122z"/>
     <path class="fil2 str1" d="M1.975 1.689c-0.1,-0.105 -0.144,-0.091 -0.301,-0.111 -0.121,-0.015 -0.244,-0.04 -0.316,-0.102l-0.206 0.203 -0.071 -0.159 -0.07 0.159 -0.207 -0.204c-0.072,0.063 -0.195,0.088 -0.316,0.103 -0.158,0.02 -0.201,0.006 -0.301,0.111 -0.286,0.334 0.522,0.815 0.894,0.815 0.371,0 1.206,-0.481 0.894,-0.815z"/>
     <path class="fil1 str0" d="M1.345 1.181c0.054,-0.067 0.098,-0.148 0.098,-0.222l0 -0.03 0 -0.168 0 -0.039c0.002,-0.035 -0.002,-0.107 -0.006,-0.133 -0.012,-0.081 -0.211,-0.15 -0.356,-0.171 -0.144,-0.02 -0.227,-0.024 -0.294,0.06 -0.036,0.044 -0.067,0.151 -0.068,0.241l0 0.042 0 0.168 0 0.03c0,0.074 0.044,0.155 0.098,0.222 0.01,0.013 0.021,0.025 0.033,0.037 0.065,0.067 0.144,0.114 0.231,0.114 0.087,0 0.166,-0.047 0.231,-0.113 0.011,-0.012 0.023,-0.025 0.033,-0.038z"/>
     <path class="fil1 str0" d="M1.525 0.845c0,-0.047 -0.036,-0.084 -0.082,-0.084l0 0.168c0.046,0 0.082,-0.038 0.082,-0.084z"/>
     <path class="fil1 str0" d="M0.719 0.929l0 -0.168c-0.045,0 -0.082,0.037 -0.082,0.084 0,0.046 0.037,0.084 0.082,0.084z"/>
     <path class="fil3 str0" d="M1.502 0.454c-0.052,-0.176 -0.286,-0.272 -0.469,-0.273 -0.134,-0.002 -0.313,0.038 -0.31,0.254 -0.122,0.07 -0.048,0.232 -0.027,0.329 0.007,-0.002 0.015,-0.003 0.023,-0.003l0 -0.042c0.001,-0.09 0.032,-0.197 0.068,-0.241 0.067,-0.084 0.15,-0.08 0.294,-0.06 0.145,0.021 0.344,0.09 0.356,0.171 0.004,0.026 0.008,0.098 0.006,0.133l0 0.039c0.011,0 0.022,0.002 0.032,0.006 0.021,-0.097 0.05,-0.235 0.027,-0.313z"/>
     <path class="fil2 str2" d="M1.152 1.679l0.224 -0.222c-0.025,-0.021 -0.044,-0.046 -0.055,-0.077l-0.24 0.14 0.071 0.159z"/>
     <path class="fil2 str2" d="M1.011 1.679l-0.225 -0.222c0.025,-0.021 0.044,-0.046 0.055,-0.077l0.24 0.14 -0.07 0.159z"/>
     <circle class="fil4" cx="1.09" cy="1.817" r="0.03"/>
     <circle class="fil4" cx="1.09" cy="1.993" r="0.03"/>
    </g>
   </g>
  </g>
  <path class="fil5" d="M1.081 0c0.597,0 1.081,0.484 1.081,1.081 0,0.597 -0.484,1.081 -1.081,1.081 -0.597,0 -1.081,-0.484 -1.081,-1.081 0,-0.597 0.484,-1.081 1.081,-1.081z"/>
 </g>
</svg>
