<?xml version="1.0" encoding="UTF-8"?>
<!DOCTYPE svg PUBLIC "-//W3C//DTD SVG 1.1//EN" "http://www.w3.org/Graphics/SVG/1.1/DTD/svg11.dtd">
<!-- Creator: CorelDRAW 2018 (64-Bit) -->
<svg xmlns="http://www.w3.org/2000/svg" xml:space="preserve" width="24px" height="24px" version="1.1" style="shape-rendering:geometricPrecision; text-rendering:geometricPrecision; image-rendering:optimizeQuality; fill-rule:evenodd; clip-rule:evenodd"
viewBox="0 0 1.57 1.57"
 xmlns:xlink="http://www.w3.org/1999/xlink">
 <defs>
  <style type="text/css">
   <![CDATA[
    .fil0 {fill:gray;fill-rule:nonzero}
   ]]>
  </style>
 </defs>
 <g id="Layer_x0020_1">
  <metadata id="CorelCorpID_0Corel-Layer"/>
  <g id="_2418402259904">
   <path class="fil0" d="M1.212 1.363c0.015,-0.01 0.035,-0.007 0.046,0.007 0.011,0.015 0.008,0.035 -0.007,0.046 -0.066,0.049 -0.141,0.088 -0.221,0.114 -0.077,0.026 -0.159,0.04 -0.245,0.04 -0.217,0 -0.413,-0.088 -0.555,-0.23 -0.142,-0.142 -0.23,-0.339 -0.23,-0.555 0,-0.217 0.088,-0.413 0.23,-0.555 0.142,-0.142 0.338,-0.23 0.555,-0.23 0.216,0 0.413,0.088 0.555,0.23 0.142,0.142 0.23,0.338 0.23,0.555 0,0.072 -0.01,0.142 -0.029,0.209 -0.019,0.068 -0.047,0.133 -0.082,0.193 -0.007,0.01 -0.017,0.016 -0.028,0.016l-0.172 0c-0.018,0 -0.033,-0.014 -0.033,-0.032 0,-0.019 0.015,-0.033 0.033,-0.033l0.153 0c0.028,-0.05 0.051,-0.105 0.066,-0.162 0.017,-0.06 0.026,-0.125 0.026,-0.191 0,-0.199 -0.08,-0.379 -0.211,-0.509 -0.13,-0.13 -0.31,-0.211 -0.508,-0.211 -0.199,0 -0.379,0.081 -0.509,0.211 -0.13,0.13 -0.211,0.31 -0.211,0.509 0,0.198 0.081,0.378 0.211,0.508 0.13,0.131 0.31,0.211 0.509,0.211 0.079,0 0.154,-0.012 0.225,-0.036 0.074,-0.024 0.142,-0.06 0.202,-0.105z"/>
   <path class="fil0" d="M0.727 0.424c0.107,0 0.203,0.043 0.273,0.113 0.07,0.07 0.114,0.167 0.114,0.274 0,0.107 -0.044,0.204 -0.114,0.274 -0.07,0.07 -0.167,0.113 -0.273,0.113 -0.107,0 -0.204,-0.043 -0.274,-0.113 -0.07,-0.07 -0.114,-0.167 -0.114,-0.274 0,-0.107 0.044,-0.204 0.114,-0.274 0.07,-0.07 0.167,-0.113 0.274,-0.113zm0.227 0.159c-0.058,-0.058 -0.139,-0.094 -0.227,-0.094 -0.089,0 -0.17,0.036 -0.228,0.094 -0.058,0.058 -0.094,0.139 -0.094,0.228 0,0.089 0.036,0.169 0.094,0.228 0.058,0.058 0.139,0.094 0.228,0.094 0.089,0 0.169,-0.036 0.227,-0.094 0.058,-0.059 0.094,-0.139 0.094,-0.228 0,-0.089 -0.036,-0.17 -0.094,-0.228z"/>
   <path class="fil0" d="M1.049 0.456c0,-0.018 0.015,-0.032 0.033,-0.032 0.018,0 0.033,0.014 0.033,0.032l0 0.709c0,0.019 -0.015,0.033 -0.033,0.033 -0.018,0 -0.033,-0.014 -0.033,-0.033l0 -0.709z"/>
  </g>
 </g>
</svg>
