<?xml version="1.0" encoding="UTF-8"?>
<!DOCTYPE svg PUBLIC "-//W3C//DTD SVG 1.1//EN" "http://www.w3.org/Graphics/SVG/1.1/DTD/svg11.dtd">
<!-- Creator: CorelDRAW 2018 (64-Bit) -->
<svg xmlns="http://www.w3.org/2000/svg" xml:space="preserve" width="40px" height="40px" version="1.1" style="shape-rendering:geometricPrecision; text-rendering:geometricPrecision; image-rendering:optimizeQuality; fill-rule:evenodd; clip-rule:evenodd"
viewBox="0 0 9.608 9.608"
 xmlns:xlink="http://www.w3.org/1999/xlink">
 <defs>
  <style type="text/css">
   <![CDATA[
    .str0 {stroke:#052337;stroke-width:0.24;stroke-miterlimit:2.61313}
    .str1 {stroke:#052337;stroke-width:0.24;stroke-linecap:round;stroke-linejoin:round;stroke-miterlimit:2.61313}
    .fil4 {fill:none}
    .fil1 {fill:#00F4FF}
    .fil3 {fill:#264361}
    .fil2 {fill:white}
    .fil0 {fill:white}
   ]]>
  </style>
   <clipPath id="id0">
    <path d="M4.804 0c2.653,0 4.804,2.151 4.804,4.804 0,2.653 -2.151,4.804 -4.804,4.804 -2.653,0 -4.804,-2.151 -4.804,-4.804 0,-2.653 2.151,-4.804 4.804,-4.804z"/>
   </clipPath>
 </defs>
 <g id="Layer_x0020_1">
  <metadata id="CorelCorpID_0Corel-Layer"/>
  <path class="fil0" d="M4.804 0c2.653,0 4.804,2.151 4.804,4.804 0,2.653 -2.151,4.804 -4.804,4.804 -2.653,0 -4.804,-2.151 -4.804,-4.804 0,-2.653 2.151,-4.804 4.804,-4.804z"/>
  <g style="clip-path:url(#id0)">
   <g id="_2657289416448">
    <path id="1" class="fil1 str0" d="M0.883 7.58c-1.985,1.344 2.302,2.685 3.921,2.685 1.619,0 5.682,-1.107 3.922,-2.687 -0.376,-0.433 -0.569,-0.533 -0.895,-0.582 -0.506,0.455 -1.232,0.793 -2.047,0.947 -0.054,0.306 0.049,0.598 0.437,0.89 -0.32,-0.021 -1.051,-0.128 -1.241,-0.799 -0.055,0.001 -0.13,0.002 -0.178,0.002 -1.228,0 -2.321,-0.406 -3.025,-1.037 -0.326,0.049 -0.519,0.149 -0.894,0.581z"/>
    <path class="fil2 str1" d="M3.194 3.154l0 0.747 0 0.136c0,0.584 0.622,1.37 1.61,1.659 0.306,-0.089 0.576,-0.226 0.805,-0.39 0.508,-0.366 0.805,-0.866 0.805,-1.269l0 -0.136 0 -0.747 0 -0.186c-0.257,-0.239 -0.492,-0.23 -0.639,-1.15 -0.788,0.836 -1.965,0.867 -2.581,1.15l0 0.186z"/>
    <path class="fil2 str1" d="M3.721 6.491c-0.327,0.26 -0.844,0.376 -1.356,0.441 -0.249,0.031 -0.433,0.043 -0.588,0.067 0.704,0.631 1.797,1.037 3.025,1.037 0.048,0 0.123,-0.001 0.178,-0.002 -0.035,-0.123 -0.052,-0.265 -0.044,-0.429 0.04,-0.913 0.483,-0.868 0.629,-1.583 0.037,-0.181 0.056,-0.41 0.044,-0.716 -0.229,0.164 -0.499,0.301 -0.805,0.39 -0.318,-0.093 -0.598,-0.237 -0.831,-0.409 0.196,0.582 0.057,0.957 -0.252,1.204zm2.437 0.68c-0.183,0.269 -0.33,0.525 -0.374,0.772 0.815,-0.154 1.541,-0.492 2.047,-0.947 -0.155,-0.024 -0.34,-0.036 -0.588,-0.067 -0.281,-0.036 -0.578,-0.083 -0.829,-0.16 -0.084,0.141 -0.17,0.275 -0.256,0.402z"/>
    <path class="fil2 str1" d="M6.414 3.154l0 0.747c0.202,0 0.365,-0.167 0.365,-0.373 0,-0.207 -0.163,-0.374 -0.365,-0.374z"/>
    <path class="fil2 str1" d="M2.829 3.528c0,0.206 0.163,0.373 0.365,0.373l0 -0.747c-0.202,0 -0.365,0.167 -0.365,0.374z"/>
    <path class="fil3 str1" d="M5.612 5.303c0,0.043 0,0.086 0,0.129 0.003,0.243 -0.015,0.434 -0.046,0.589 -0.001,0 -0.001,0.001 -0.001,0.001 -0.146,0.715 -0.589,0.67 -0.629,1.583 -0.008,0.164 0.009,0.306 0.044,0.429 0.19,0.671 0.921,0.778 1.241,0.799 -0.388,-0.292 -0.491,-0.584 -0.437,-0.89 0.087,-0.471 0.42,-0.782 0.63,-1.174 0.509,-0.848 0.949,-1.925 0.94,-3.056 -0.016,-1.923 -1.136,-2.882 -2.5,-2.937 -1.365,-0.054 -2.334,1.503 -2.304,2.784 0.029,1.272 0.614,2.268 1.171,2.931 0.309,-0.247 0.448,-0.622 0.252,-1.204 -0.493,-0.364 -0.779,-0.854 -0.779,-1.25l0 -0.136c-0.202,0 -0.365,-0.167 -0.365,-0.373 0,-0.207 0.163,-0.374 0.365,-0.374l0 -0.186c0.616,-0.283 1.793,-0.314 2.581,-1.15 0.147,0.92 0.382,0.911 0.639,1.15l0 0.186c0.202,0 0.365,0.167 0.365,0.374 0,0.206 -0.163,0.373 -0.365,0.373l0 0.136c0,0.403 -0.295,0.901 -0.802,1.266z"/>
   </g>
  </g>
  <path class="fil4" d="M4.804 0c2.653,0 4.804,2.151 4.804,4.804 0,2.653 -2.151,4.804 -4.804,4.804 -2.653,0 -4.804,-2.151 -4.804,-4.804 0,-2.653 2.151,-4.804 4.804,-4.804z"/>
 </g>
</svg>
