<?xml version="1.0" encoding="UTF-8"?>
<!DOCTYPE svg PUBLIC "-//W3C//DTD SVG 1.1//EN" "http://www.w3.org/Graphics/SVG/1.1/DTD/svg11.dtd">
<!-- Creator: CorelDRAW 2018 (64-Bit) -->
<svg xmlns="http://www.w3.org/2000/svg" xml:space="preserve" width="40px" height="40px" version="1.1" style="shape-rendering:geometricPrecision; text-rendering:geometricPrecision; image-rendering:optimizeQuality; fill-rule:evenodd; clip-rule:evenodd"
viewBox="0 0 5.744 5.744"
 xmlns:xlink="http://www.w3.org/1999/xlink">
 <defs>
  <style type="text/css">
   <![CDATA[
    .str0 {stroke:gray;stroke-width:0.144;stroke-linecap:round;stroke-linejoin:round;stroke-miterlimit:2.61313}
    .fil1 {fill:none}
    .fil2 {fill:gray}
    .fil0 {fill:white}
   ]]>
  </style>
   <clipPath id="id0">
    <path d="M2.872 0c1.586,0 2.872,1.286 2.872,2.872 0,1.587 -1.286,2.872 -2.872,2.872 -1.586,0 -2.872,-1.285 -2.872,-2.872 0,-1.586 1.286,-2.872 2.872,-2.872z"/>
   </clipPath>
 </defs>
 <g id="Layer_x0020_1">
  <metadata id="CorelCorpID_0Corel-Layer"/>
  <path class="fil0" d="M2.872 0c1.586,0 2.872,1.286 2.872,2.872 0,1.587 -1.286,2.872 -2.872,2.872 -1.586,0 -2.872,-1.285 -2.872,-2.872 0,-1.586 1.286,-2.872 2.872,-2.872z"/>
  <g style="clip-path:url(#id0)">
   <g id="_2692802240960">
    <g>
     <path id="1" class="fil1 str0" d="M2.259 3.237c0.241,0.716 -0.366,0.883 -0.962,0.957 -0.476,0.06 -0.56,0.004 -0.919,0.427"/>
     <path class="fil1 str0" d="M3.486 3.237c-0.242,0.716 0.366,0.883 0.961,0.957 0.477,0.06 0.561,0.004 0.919,0.427"/>
     <path class="fil1 str0" d="M3.835 1.92l0 0.629c0,0.197 -0.117,0.41 -0.26,0.588 -0.185,0.23 -0.43,0.401 -0.702,0.404 -0.272,-0.003 -0.517,-0.174 -0.702,-0.404 -0.143,-0.178 -0.261,-0.391 -0.261,-0.588l0 -0.639c0.003,-0.238 0.085,-0.522 0.18,-0.64 0.18,-0.223 0.399,-0.212 0.784,-0.158 0.384,0.054 0.912,0.237 0.945,0.453 0.01,0.07 0.02,0.26 0.016,0.355z"/>
     <path class="fil1 str0" d="M3.835 2.467c0.121,0 0.218,-0.099 0.218,-0.223 0,-0.123 -0.097,-0.223 -0.218,-0.223"/>
     <path class="fil1 str0" d="M1.91 2.467c-0.12,0 -0.218,-0.099 -0.218,-0.223 0,-0.123 0.098,-0.223 0.218,-0.223"/>
     <path class="fil1 str0" d="M1.849 1.988c-0.056,-0.257 -0.252,-0.647 0.073,-0.833 -0.01,-0.573 0.468,-0.679 0.822,-0.675 0.487,0.005 1.11,0.259 1.247,0.726 0.06,0.207 -0.017,0.562 -0.072,0.819"/>
     <polyline class="fil1 str0" points="2.283,3.714 2.873,4.04 2.686,4.462 2.137,3.921 "/>
     <polyline class="fil1 str0" points="3.463,3.714 2.873,4.04 3.06,4.462 3.609,3.921 "/>
    </g>
    <circle class="fil2" cx="2.896" cy="4.828" r="0.079"/>
    <circle class="fil2" cx="2.896" cy="5.296" r="0.079"/>
   </g>
  </g>
  <path class="fil1" d="M2.872 0c1.586,0 2.872,1.286 2.872,2.872 0,1.587 -1.286,2.872 -2.872,2.872 -1.586,0 -2.872,-1.285 -2.872,-2.872 0,-1.586 1.286,-2.872 2.872,-2.872z"/>
 </g>
</svg>
