<?xml version="1.0" encoding="UTF-8"?>
<!DOCTYPE svg PUBLIC "-//W3C//DTD SVG 1.1//EN" "http://www.w3.org/Graphics/SVG/1.1/DTD/svg11.dtd">
<!-- Creator: CorelDRAW 2018 (64-Bit) -->
<svg xmlns="http://www.w3.org/2000/svg" xml:space="preserve" width="24px" height="24px" version="1.1" style="shape-rendering:geometricPrecision; text-rendering:geometricPrecision; image-rendering:optimizeQuality; fill-rule:evenodd; clip-rule:evenodd"
viewBox="0 0 0.689 0.689"
 xmlns:xlink="http://www.w3.org/1999/xlink">
 <defs>
  <style type="text/css">
   <![CDATA[
    .fil1 {fill:#CCCCCC}
    .fil0 {fill:#CCCCCC;fill-rule:nonzero}
   ]]>
  </style>
 </defs>
 <g id="Layer_x0020_1">
  <metadata id="CorelCorpID_0Corel-Layer"/>
  <g id="_2613558510352">
   <path class="fil0" d="M0.045 0l0.6 0c0.012,0 0.023,0.005 0.031,0.013 0.008,0.008 0.013,0.019 0.013,0.032l0 0.6c0,0.012 -0.005,0.023 -0.013,0.031 -0.008,0.008 -0.019,0.013 -0.031,0.013l-0.6 0c-0.013,0 -0.024,-0.005 -0.032,-0.013 -0.008,-0.008 -0.013,-0.019 -0.013,-0.031l0 -0.6c0,-0.013 0.005,-0.024 0.013,-0.032 0.008,-0.008 0.019,-0.013 0.032,-0.013zm0.6 0.014l-0.6 0c-0.009,0 -0.016,0.004 -0.022,0.009 -0.005,0.006 -0.009,0.013 -0.009,0.022l0 0.6c0,0.008 0.003,0.016 0.009,0.021 0.006,0.006 0.013,0.009 0.022,0.009l0.6 0c0.008,0 0.016,-0.003 0.021,-0.009 0.006,-0.005 0.009,-0.013 0.009,-0.021l0 -0.6c0,-0.009 -0.003,-0.016 -0.009,-0.022 -0.005,-0.005 -0.013,-0.009 -0.021,-0.009z"/>
   <g>
    <path class="fil1" d="M0.573 0.51l-0.187 -0.149 -0.034 0.026c-0.004,0.004 -0.011,0.004 -0.015,0l-0.033 -0.026 -0.187 0.149 0.456 0z"/>
    <polygon class="fil1" points="0.087,0.502 0.284,0.345 0.087,0.187 "/>
    <polygon class="fil1" points="0.117,0.18 0.345,0.361 0.573,0.18 "/>
    <polygon class="fil1" points="0.603,0.187 0.406,0.345 0.603,0.502 "/>
   </g>
  </g>
 </g>
</svg>
