<?xml version="1.0" encoding="UTF-8"?>
<!DOCTYPE svg PUBLIC "-//W3C//DTD SVG 1.1//EN" "http://www.w3.org/Graphics/SVG/1.1/DTD/svg11.dtd">
<!-- Creator: CorelDRAW 2018 (64-Bit) -->
<svg xmlns="http://www.w3.org/2000/svg" xml:space="preserve" width="40px" height="40px" version="1.1" style="shape-rendering:geometricPrecision; text-rendering:geometricPrecision; image-rendering:optimizeQuality; fill-rule:evenodd; clip-rule:evenodd"
viewBox="0 0 1.456 1.456"
 xmlns:xlink="http://www.w3.org/1999/xlink">
 <defs>
  <style type="text/css">
   <![CDATA[
    .fil0 {fill:none}
    .fil1 {fill:#00F4FF}
    .fil3 {fill:#EAEDF2}
    .fil4 {fill:white}
    .fil2 {fill:gray;fill-rule:nonzero}
   ]]>
  </style>
 </defs>
 <g id="Layer_x0020_1">
  <metadata id="CorelCorpID_0Corel-Layer"/>
  <g id="_1576229048464">
   <rect class="fil0" width="1.456" height="1.456"/>
   <g>
    <path class="fil1" d="M0.936 0.611c-0.082,0 -0.15,-0.067 -0.15,-0.15 0,-0.083 0.067,-0.149 0.149,-0.15 0.03,-0.05 0.085,-0.084 0.148,-0.084 0.09,0 0.164,0.069 0.17,0.158 0.061,0.019 0.105,0.076 0.105,0.143 0,0.021 -0.005,0.041 -0.013,0.06 0.043,0.013 0.074,0.053 0.074,0.1 0,0.058 -0.046,0.105 -0.104,0.105 -0.007,0 -0.013,-0.001 -0.02,-0.002 -0.004,0.054 -0.049,0.096 -0.104,0.096 -0.058,0 -0.105,-0.047 -0.105,-0.105l-0.134 0.065 -0.016 -0.236z"/>
    <path class="fil2" d="M0.919 0.628c-0.039,-0.004 -0.075,-0.021 -0.101,-0.048 -0.031,-0.031 -0.05,-0.073 -0.05,-0.119 0,-0.046 0.019,-0.088 0.049,-0.118 0.028,-0.028 0.066,-0.047 0.108,-0.05 0.016,-0.024 0.038,-0.045 0.064,-0.06 0.027,-0.016 0.059,-0.025 0.094,-0.025 0.049,0 0.094,0.02 0.128,0.051 0.032,0.029 0.053,0.068 0.059,0.113 0.03,0.011 0.055,0.031 0.073,0.057 0.021,0.027 0.033,0.062 0.033,0.099 0,0.011 -0.002,0.023 -0.004,0.034 -0.001,0.005 -0.002,0.01 -0.004,0.015 0.018,0.009 0.034,0.022 0.045,0.038 0.016,0.02 0.025,0.046 0.025,0.073 0,0.034 -0.014,0.065 -0.036,0.087 -0.023,0.022 -0.053,0.036 -0.087,0.036l-0.005 0c-0.005,0.024 -0.018,0.045 -0.036,0.061 -0.022,0.021 -0.051,0.033 -0.083,0.033 -0.034,0 -0.065,-0.014 -0.087,-0.036 -0.016,-0.016 -0.028,-0.037 -0.033,-0.059l-0.111 0.053c-0.009,0.005 -0.02,0.001 -0.024,-0.008 -0.001,-0.002 -0.002,-0.004 -0.002,-0.007l-0.015 -0.22zm-0.076 -0.074c0.024,0.024 0.057,0.039 0.093,0.039 0.01,0 0.018,0.007 0.019,0.017l0.014 0.209 0.108 -0.053c0.003,-0.001 0.006,-0.002 0.009,-0.002 0.01,0 0.019,0.008 0.019,0.018 0,0.024 0.009,0.046 0.025,0.061 0.015,0.016 0.037,0.025 0.061,0.025 0.023,0 0.043,-0.008 0.058,-0.022 0.016,-0.015 0.026,-0.034 0.028,-0.057l0 -0.001c0.002,-0.01 0.012,-0.017 0.022,-0.015 0.002,0.001 0.005,0.001 0.007,0.001l0.001 0c0.002,0 0.005,0.001 0.008,0.001 0.024,0 0.045,-0.01 0.061,-0.026 0.016,-0.015 0.025,-0.037 0.025,-0.061 0,-0.019 -0.006,-0.037 -0.017,-0.051 -0.011,-0.015 -0.026,-0.026 -0.044,-0.032l-0.002 0c-0.01,-0.005 -0.014,-0.015 -0.01,-0.024 0.004,-0.009 0.007,-0.017 0.009,-0.026 0.001,-0.009 0.002,-0.018 0.002,-0.027 0,-0.03 -0.009,-0.056 -0.025,-0.078 -0.016,-0.022 -0.039,-0.039 -0.065,-0.048 -0.007,-0.002 -0.013,-0.008 -0.014,-0.016 -0.003,-0.04 -0.021,-0.075 -0.048,-0.101 -0.028,-0.025 -0.064,-0.04 -0.104,-0.04 -0.028,0 -0.054,0.007 -0.076,0.02 -0.023,0.013 -0.043,0.032 -0.056,0.055 -0.004,0.006 -0.009,0.009 -0.016,0.009 -0.036,0.001 -0.069,0.015 -0.092,0.039 -0.024,0.024 -0.038,0.057 -0.038,0.093 0,0.036 0.014,0.069 0.038,0.093z"/>
    <path class="fil2" d="M0.93 0.398c0,0.01 -0.009,0.018 -0.019,0.018 -0.01,0 -0.018,-0.008 -0.018,-0.018 0,-0.052 0.021,-0.1 0.056,-0.134 0.034,-0.034 0.081,-0.056 0.134,-0.056 0.01,0 0.018,0.009 0.018,0.019 0,0.01 -0.008,0.018 -0.018,0.018 -0.043,0 -0.081,0.017 -0.109,0.045 -0.027,0.027 -0.044,0.066 -0.044,0.108z"/>
    <path class="fil2" d="M1.339 0.528c0,-0.011 0.008,-0.019 0.019,-0.019 0.01,0 0.018,0.008 0.018,0.019 0,0.028 -0.008,0.056 -0.021,0.08 -0.013,0.024 -0.032,0.045 -0.056,0.061 -0.008,0.005 -0.02,0.003 -0.025,-0.006 -0.005,-0.008 -0.003,-0.019 0.005,-0.025 0.019,-0.012 0.034,-0.028 0.044,-0.048 0.011,-0.018 0.016,-0.04 0.016,-0.062z"/>
    <path class="fil2" d="M0.936 0.329c-0.01,0 -0.018,-0.008 -0.018,-0.018 0,-0.01 0.008,-0.018 0.018,-0.018 0.021,0 0.042,0.004 0.061,0.011 0.019,0.008 0.037,0.019 0.052,0.032 0.007,0.007 0.008,0.018 0.001,0.026 -0.006,0.007 -0.018,0.008 -0.025,0.001 -0.012,-0.011 -0.026,-0.019 -0.041,-0.025 -0.015,-0.006 -0.031,-0.009 -0.048,-0.009z"/>
    <path class="fil3" d="M1.16 0.75l-0.118 0c-0.007,0 -0.012,0.006 -0.012,0.012l0 0.467 0.141 0 0 -0.467c0,-0.006 -0.005,-0.012 -0.011,-0.012z"/>
    <path class="fil2" d="M1.153 0.768l-0.104 0 0 0.443 0.104 0 0 -0.443zm-0.111 -0.036l0.118 0c0.008,0 0.016,0.003 0.021,0.009 0.005,0.006 0.008,0.013 0.008,0.021l0 0.467c0,0.01 -0.008,0.018 -0.018,0.018l-0.141 0c-0.01,0 -0.018,-0.008 -0.018,-0.018l0 -0.467c0,-0.008 0.003,-0.015 0.008,-0.021 0.006,-0.006 0.013,-0.009 0.022,-0.009z"/>
    <path class="fil4" d="M0.169 0.553l0.432 -0.306 0.433 0.306 0 0.657c0,0.01 -0.01,0.019 -0.023,0.019l-0.819 0c-0.013,0 -0.023,-0.009 -0.023,-0.019l0 -0.657z"/>
    <path class="fil2" d="M0.16 0.538l0.431 -0.306c0.006,-0.005 0.015,-0.005 0.021,0l0.432 0.306c0.005,0.004 0.008,0.009 0.008,0.015l0 0.657c0,0.011 -0.005,0.02 -0.013,0.027 -0.007,0.007 -0.017,0.01 -0.028,0.01l-0.819 0c-0.011,0 -0.021,-0.003 -0.028,-0.01 -0.008,-0.007 -0.013,-0.016 -0.013,-0.027l0 -0.657c0,-0.007 0.003,-0.012 0.009,-0.015zm0.441 -0.269l-0.414 0.293 0 0.648c0,0 0,0 0.001,0 0,0.001 0.002,0.001 0.004,0.001l0.819 0c0.002,0 0.003,0 0.004,-0.001 0,0 0.001,0 0.001,0l0 -0.648 -0.415 -0.293z"/>
    <path class="fil2" d="M0.339 0.634c-0.011,0 -0.019,-0.009 -0.019,-0.019 0,-0.01 0.008,-0.018 0.019,-0.018l0.525 0c0.01,0 0.018,0.008 0.018,0.018 0,0.01 -0.008,0.019 -0.018,0.019l-0.525 0z"/>
    <polygon class="fil1" points="0.486,0.88 0.717,0.88 0.717,1.229 0.486,1.229 "/>
    <path class="fil2" d="M0.486 0.862l0.231 0c0.01,0 0.018,0.008 0.018,0.018l0 0.349c0,0.01 -0.008,0.018 -0.018,0.018l-0.231 0c-0.01,0 -0.019,-0.008 -0.019,-0.018l0 -0.349c0,-0.01 0.009,-0.018 0.019,-0.018zm0.213 0.036l-0.195 0 0 0.313 0.195 0 0 -0.313z"/>
    <path class="fil2" d="M0.068 0.647c-0.009,0.006 -0.02,0.004 -0.026,-0.004 -0.006,-0.008 -0.004,-0.019 0.005,-0.025l0.544 -0.386c0.006,-0.005 0.015,-0.005 0.021,0l0.544 0.386c0.008,0.006 0.01,0.017 0.005,0.025 -0.006,0.008 -0.018,0.01 -0.026,0.004l-0.534 -0.378 -0.533 0.378z"/>
   </g>
  </g>
 </g>
</svg>
