<?xml version="1.0" encoding="UTF-8"?>
<!DOCTYPE svg PUBLIC "-//W3C//DTD SVG 1.1//EN" "http://www.w3.org/Graphics/SVG/1.1/DTD/svg11.dtd">
<!-- Creator: CorelDRAW 2018 (64-Bit) -->
<svg xmlns="http://www.w3.org/2000/svg" xml:space="preserve" width="40px" height="40px" version="1.1" style="shape-rendering:geometricPrecision; text-rendering:geometricPrecision; image-rendering:optimizeQuality; fill-rule:evenodd; clip-rule:evenodd"
viewBox="0 0 25.192 25.192"
 xmlns:xlink="http://www.w3.org/1999/xlink">
 <defs>
  <style type="text/css">
   <![CDATA[
    .fil0 {fill:none}
    .fil4 {fill:#00F4FF}
    .fil1 {fill:#EAEDF2}
    .fil3 {fill:white}
    .fil2 {fill:gray;fill-rule:nonzero}
   ]]>
  </style>
 </defs>
 <g id="Layer_x0020_1">
  <metadata id="CorelCorpID_0Corel-Layer"/>
  <g id="_1540002538416">
   <rect class="fil0" width="25.192" height="25.192"/>
   <g>
    <path class="fil1" d="M21.571 17.941l-2.583 0c-0.313,0 -0.569,0.256 -0.569,0.569l0 1.401c0,0.313 0.256,0.569 0.569,0.569l2.583 0c0.313,0 0.569,-0.256 0.569,-0.569l0 -1.401c0,-0.313 -0.256,-0.569 -0.569,-0.569z"/>
    <path class="fil2" d="M21.571 18.248l-2.583 0c-0.073,0 -0.138,0.03 -0.185,0.076 -0.047,0.049 -0.077,0.115 -0.077,0.186l0 1.401c0,0.072 0.03,0.138 0.077,0.185l0.011 0.011c0.046,0.041 0.107,0.066 0.174,0.066l2.583 0c0.073,0 0.138,-0.029 0.185,-0.076 0.048,-0.048 0.077,-0.113 0.077,-0.186l0 -1.401c0,-0.072 -0.029,-0.138 -0.076,-0.184 -0.048,-0.048 -0.113,-0.078 -0.186,-0.078zm-2.583 -0.614l2.583 0c0.24,0 0.458,0.099 0.617,0.257l0.002 0.002c0.159,0.159 0.257,0.378 0.257,0.617l0 1.401c0,0.24 -0.098,0.458 -0.257,0.617l-0.001 0.002c-0.159,0.159 -0.378,0.257 -0.618,0.257l-2.583 0c-0.23,0 -0.441,-0.091 -0.598,-0.238l-0.021 -0.019c-0.159,-0.158 -0.257,-0.378 -0.257,-0.619l0 -1.401c0,-0.241 0.098,-0.46 0.257,-0.619 0.159,-0.158 0.379,-0.257 0.619,-0.257z"/>
    <path class="fil1" d="M3.621 17.941l2.583 0c0.313,0 0.569,0.256 0.569,0.569l0 1.401c0,0.313 -0.256,0.569 -0.569,0.569l-2.583 0c-0.313,0 -0.569,-0.256 -0.569,-0.569l0 -1.401c0,-0.313 0.256,-0.569 0.569,-0.569z"/>
    <path class="fil2" d="M3.621 17.634l2.583 0c0.241,0 0.461,0.099 0.619,0.257l0.019 0.021c0.148,0.158 0.238,0.368 0.238,0.598l0 1.401c0,0.24 -0.098,0.459 -0.258,0.618 -0.157,0.159 -0.377,0.258 -0.618,0.258l-2.583 0c-0.241,0 -0.461,-0.099 -0.619,-0.257l-0.019 -0.021c-0.147,-0.157 -0.238,-0.368 -0.238,-0.598l0 -1.401c0,-0.241 0.099,-0.46 0.257,-0.619 0.158,-0.158 0.378,-0.257 0.619,-0.257zm2.583 0.614l-2.583 0c-0.072,0 -0.138,0.03 -0.185,0.078 -0.047,0.047 -0.077,0.113 -0.077,0.184l0 1.401c0,0.067 0.025,0.128 0.066,0.174l0.011 0.011c0.047,0.047 0.113,0.077 0.185,0.077l2.583 0c0.072,0 0.138,-0.03 0.185,-0.077 0.048,-0.047 0.077,-0.113 0.077,-0.185l0 -1.401c0,-0.067 -0.025,-0.128 -0.065,-0.174l-0.012 -0.01c-0.047,-0.048 -0.113,-0.078 -0.185,-0.078z"/>
    <path class="fil3" d="M3.999 18.692c-0.932,0 -1.697,-0.764 -1.697,-1.697l0 -3.278c0,-0.423 0.124,-0.591 0.325,-0.95l0.86 -1.541 -1.54 -0.196c-0.723,-0.092 -1.325,-0.596 -1.325,-1.325l0 -0.429c0,-0.329 0.269,-0.598 0.598,-0.598l2.565 0c0.282,0 0.511,0.23 0.511,0.511l0 0.588 1.604 -2.881c0.324,-0.58 0.873,-0.924 1.832,-0.924l9.728 0c0.959,0 1.508,0.344 1.832,0.924l1.604 2.881 0 -0.588c0,-0.281 0.23,-0.511 0.511,-0.511l2.565 0c0.329,0 0.598,0.269 0.598,0.598l0 0.429c0,0.729 -0.602,1.233 -1.325,1.325l-1.54 0.196 0.86 1.541c0.201,0.359 0.326,0.527 0.326,0.95l0 3.278c0,0.933 -0.766,1.697 -1.698,1.697l-17.194 0z"/>
    <path class="fil2" d="M3.999 18.999c-0.551,0 -1.052,-0.225 -1.416,-0.588 -0.363,-0.364 -0.588,-0.865 -0.588,-1.416l0 -3.278c0,-0.456 0.114,-0.657 0.303,-0.99 0.244,-0.4 0.472,-0.843 0.701,-1.254l-1.09 -0.139c-0.442,-0.056 -0.848,-0.245 -1.138,-0.535 -0.282,-0.282 -0.456,-0.655 -0.456,-1.094l0 -0.429c0,-0.249 0.102,-0.476 0.265,-0.64 0.164,-0.163 0.391,-0.265 0.64,-0.265l2.565 0c0.225,0 0.43,0.092 0.578,0.24 0.053,0.052 0.098,0.111 0.134,0.176l1.136 -2.039c0.19,-0.341 0.448,-0.613 0.801,-0.802 0.343,-0.182 0.768,-0.281 1.298,-0.281l9.728 0c0.531,0 0.955,0.099 1.298,0.281 0.354,0.189 0.612,0.461 0.801,0.802l1.136 2.04c0.037,-0.065 0.082,-0.124 0.134,-0.176 0.149,-0.149 0.354,-0.241 0.578,-0.241l2.565 0c0.248,0 0.475,0.102 0.639,0.266 0.164,0.163 0.266,0.39 0.266,0.639l0 0.429c0,0.439 -0.174,0.812 -0.456,1.094 -0.29,0.29 -0.696,0.479 -1.138,0.535l-1.09 0.139c0.233,0.418 0.465,0.837 0.701,1.254 0.189,0.333 0.304,0.534 0.304,0.99l0 3.278c0,0.551 -0.226,1.052 -0.589,1.416 -0.363,0.363 -0.865,0.588 -1.416,0.588l-17.194 0zm-0.982 -1.023c0.253,0.252 0.601,0.409 0.982,0.409l17.194 0c0.382,0 0.73,-0.157 0.982,-0.409 0.252,-0.252 0.408,-0.599 0.408,-0.981l0 -3.278c0,-0.297 -0.083,-0.445 -0.221,-0.688l-0.924 -1.654c-0.019,-0.033 -0.031,-0.07 -0.036,-0.11 -0.021,-0.167 0.097,-0.321 0.265,-0.342l1.539 -0.196c0.307,-0.039 0.586,-0.167 0.781,-0.362 0.171,-0.171 0.276,-0.396 0.276,-0.66l0 -0.429c0,-0.08 -0.033,-0.153 -0.085,-0.205 -0.052,-0.054 -0.125,-0.086 -0.206,-0.086l-2.565 0c-0.056,0 -0.108,0.023 -0.145,0.06 -0.036,0.037 -0.059,0.088 -0.059,0.144l0 0.588c-0.002,0.107 -0.058,0.211 -0.159,0.267 -0.147,0.082 -0.334,0.029 -0.416,-0.119l-1.604 -2.88c-0.133,-0.24 -0.312,-0.43 -0.554,-0.559 -0.252,-0.134 -0.581,-0.207 -1.01,-0.207l-9.728 0c-0.428,0 -0.758,0.073 -1.01,0.207 -0.242,0.129 -0.42,0.319 -0.554,0.559l-1.592 2.858c-0.048,0.107 -0.155,0.181 -0.279,0.181 -0.17,0 -0.307,-0.138 -0.307,-0.307l0 -0.588c0,-0.055 -0.024,-0.107 -0.061,-0.144 -0.037,-0.037 -0.088,-0.06 -0.144,-0.06l-2.565 0c-0.08,0 -0.153,0.033 -0.205,0.086 -0.053,0.052 -0.086,0.125 -0.086,0.205l0 0.429c0,0.264 0.106,0.489 0.276,0.66 0.195,0.195 0.474,0.323 0.781,0.362l1.528 0.194c0.041,0.004 0.083,0.016 0.122,0.038 0.147,0.082 0.201,0.268 0.119,0.416 -0.306,0.547 -0.634,1.102 -0.924,1.654 -0.139,0.243 -0.222,0.391 -0.222,0.688l0 3.278c0,0.382 0.157,0.729 0.408,0.981z"/>
    <path class="fil4" d="M3.931 12.332c1.092,0.248 2.251,0.318 3.378,0.433 0.46,0.047 0.792,0.338 0.792,0.74l0 0.6c0,0.288 -0.238,0.527 -0.527,0.527l-1.058 0c-2.227,0 -2.468,-1.74 -2.585,-2.3z"/>
    <path class="fil2" d="M3.998 12.033c0.847,0.193 1.742,0.277 2.628,0.359l0.713 0.068c0.301,0.031 0.564,0.146 0.752,0.322 0.2,0.186 0.317,0.435 0.317,0.723l0 0.6c0,0.229 -0.094,0.438 -0.245,0.589l-0.021 0.019c-0.15,0.139 -0.35,0.226 -0.568,0.226l-1.058 0c-2.375,0 -2.728,-1.759 -2.869,-2.462l-0.016 -0.084c-0.034,-0.165 0.073,-0.327 0.238,-0.361 0.044,-0.009 0.088,-0.008 0.129,0.001zm2.573 0.968c-0.749,-0.07 -1.503,-0.14 -2.237,-0.274 0.18,0.65 0.644,1.598 2.182,1.598l1.058 0c0.055,0 0.106,-0.021 0.145,-0.055l0.01 -0.01c0.04,-0.041 0.065,-0.096 0.065,-0.155l0 -0.6c0,-0.109 -0.044,-0.204 -0.12,-0.274 -0.093,-0.087 -0.232,-0.145 -0.396,-0.161l-0.707 -0.069z"/>
    <path class="fil2" d="M4.117 10.025c-0.137,-0.1 -0.168,-0.291 -0.069,-0.428 0.1,-0.137 0.292,-0.168 0.429,-0.069 1.311,0.951 2.066,0.949 3.711,0.944l5.364 -0.001c0.169,0 0.307,0.137 0.307,0.306 0,0.17 -0.138,0.307 -0.307,0.307l-5.364 0c-1.782,0.005 -2.6,0.007 -4.071,-1.059z"/>
    <path class="fil4" d="M21.261 12.332c-1.092,0.248 -2.251,0.318 -3.377,0.433 -0.461,0.047 -0.793,0.338 -0.793,0.74l0 0.6c0,0.288 0.239,0.527 0.527,0.527l1.058 0c2.227,0 2.468,-1.74 2.585,-2.3z"/>
    <path class="fil2" d="M20.858 12.727c-0.734,0.134 -1.488,0.204 -2.237,0.274l-0.706 0.069c-0.165,0.016 -0.304,0.074 -0.397,0.161 -0.075,0.07 -0.12,0.165 -0.12,0.274l0 0.6c0,0.059 0.025,0.114 0.065,0.155l0.01 0.01c0.039,0.034 0.09,0.055 0.145,0.055l1.058 0c1.538,0 2.003,-0.948 2.182,-1.598zm-2.292 -0.335c0.886,-0.082 1.781,-0.166 2.628,-0.359 0.041,-0.009 0.084,-0.009 0.127,-0.001 0.166,0.033 0.273,0.195 0.24,0.36l-0.016 0.085c-0.141,0.703 -0.493,2.462 -2.869,2.462l-1.058 0c-0.218,0 -0.418,-0.087 -0.567,-0.226l-0.022 -0.019c-0.151,-0.151 -0.245,-0.36 -0.245,-0.589l0 -0.6c0,-0.288 0.117,-0.537 0.317,-0.723 0.188,-0.176 0.451,-0.291 0.751,-0.322l0.714 -0.068z"/>
    <path class="fil2" d="M20.716 9.528c0.136,-0.099 0.328,-0.068 0.428,0.069 0.099,0.137 0.069,0.328 -0.069,0.428 -1.471,1.066 -2.289,1.064 -4.071,1.059l-5.364 0c-0.169,0 -0.307,-0.137 -0.307,-0.307 0,-0.169 0.138,-0.306 0.307,-0.306l4.991 0 0.373 0.001c1.645,0.005 2.4,0.007 3.712,-0.944z"/>
    <path class="fil1" d="M9.483 13.132l6.227 0c0.186,0 0.338,0.152 0.338,0.339l0 0.822c0,0.186 -0.152,0.339 -0.338,0.339l-6.227 0c-0.187,0 -0.339,-0.153 -0.339,-0.339l0 -0.822c0,-0.187 0.152,-0.339 0.339,-0.339z"/>
    <path class="fil2" d="M9.483 12.825l6.227 0c0.178,0 0.339,0.072 0.456,0.189 0.117,0.117 0.19,0.279 0.19,0.457l0 0.822c0,0.178 -0.073,0.34 -0.19,0.456 -0.117,0.117 -0.278,0.19 -0.456,0.19l-6.227 0c-0.178,0 -0.34,-0.073 -0.457,-0.19 -0.117,-0.116 -0.19,-0.278 -0.19,-0.456l0 -0.822c0,-0.178 0.073,-0.34 0.19,-0.457 0.117,-0.117 0.279,-0.189 0.457,-0.189zm6.227 0.614l-6.227 0c-0.009,0 -0.017,0.003 -0.023,0.009 -0.006,0.006 -0.009,0.014 -0.009,0.023l0 0.822c0,0.008 0.003,0.016 0.009,0.022 0.006,0.006 0.014,0.01 0.023,0.01l6.227 0c0.008,0 0.016,-0.004 0.022,-0.01 0.006,-0.006 0.009,-0.014 0.009,-0.022l0 -0.822c0,-0.009 -0.003,-0.017 -0.009,-0.023 -0.006,-0.006 -0.014,-0.009 -0.022,-0.009z"/>
    <path class="fil1" d="M10.353 16.541l4.486 0c0.796,0 1.108,0.48 1.429,0.896l0.967 1.255 -9.278 0 0.967 -1.255c0.321,-0.416 0.633,-0.896 1.429,-0.896z"/>
    <path class="fil2" d="M10.353 16.234l4.486 0c0.897,0 1.266,0.484 1.612,0.938 0.34,0.445 0.684,0.889 1.026,1.333 0.103,0.134 0.079,0.326 -0.055,0.43 -0.056,0.043 -0.122,0.063 -0.187,0.063l-9.278 0.001c-0.17,0 -0.307,-0.137 -0.307,-0.307 0,-0.078 0.03,-0.15 0.079,-0.205l1.012 -1.315c0.346,-0.454 0.715,-0.938 1.612,-0.938zm4.486 0.614l-4.486 0c-0.595,0 -0.868,0.359 -1.125,0.696l-0.648 0.841 8.032 0 -0.648 -0.841c-0.257,-0.337 -0.531,-0.696 -1.125,-0.696z"/>
    <path class="fil1" d="M5.9 6.896l-1.604 2.881c1.489,1.078 2.285,1.001 4.265,1.001l3.079 0 4.991 0c1.98,0 2.776,0.077 4.265,-1.001l-1.604 -2.881c-0.324,-0.58 -0.873,-0.924 -1.832,-0.924l-9.728 0c-0.959,0 -1.508,0.344 -1.832,0.924z"/>
    <path class="fil2" d="M6.168 7.045l-1.469 2.639c1.179,0.794 1.939,0.792 3.489,0.788 2.814,-0.005 5.628,-0.001 8.443,-0.001l0.373 0.001c1.55,0.004 2.31,0.006 3.489,-0.788l-1.469 -2.639c-0.133,-0.24 -0.312,-0.43 -0.554,-0.559 -0.252,-0.134 -0.581,-0.207 -1.01,-0.207l-9.728 0c-0.428,0 -0.758,0.073 -1.01,0.207 -0.242,0.129 -0.42,0.319 -0.554,0.559zm-2.139 2.583l1.604 -2.88c0.19,-0.341 0.448,-0.613 0.801,-0.802 0.343,-0.182 0.768,-0.281 1.298,-0.281l9.728 0c0.531,0 0.955,0.099 1.298,0.281 0.354,0.189 0.612,0.461 0.801,0.802l1.595 2.864c0.087,0.135 0.053,0.317 -0.079,0.413 -1.47,1.066 -2.289,1.064 -4.071,1.059 -2.938,-0.005 -5.877,0.004 -8.816,0 -1.782,0.005 -2.6,0.007 -4.071,-1.059 -0.124,-0.09 -0.164,-0.26 -0.088,-0.397z"/>
   </g>
  </g>
 </g>
</svg>
