<?xml version="1.0" encoding="UTF-8"?>
<!DOCTYPE svg PUBLIC "-//W3C//DTD SVG 1.1//EN" "http://www.w3.org/Graphics/SVG/1.1/DTD/svg11.dtd">
<!-- Creator: CorelDRAW 2018 (64-Bit) -->
<svg xmlns="http://www.w3.org/2000/svg" xml:space="preserve" width="40px" height="40px" version="1.1" style="shape-rendering:geometricPrecision; text-rendering:geometricPrecision; image-rendering:optimizeQuality; fill-rule:evenodd; clip-rule:evenodd"
viewBox="0 0 1.359 1.359"
 xmlns:xlink="http://www.w3.org/1999/xlink">
 <defs>
  <style type="text/css">
   <![CDATA[
    .fil0 {fill:none}
    .fil3 {fill:#00F4FF}
    .fil1 {fill:white}
    .fil2 {fill:gray;fill-rule:nonzero}
   ]]>
  </style>
 </defs>
 <g id="Layer_x0020_1">
  <metadata id="CorelCorpID_0Corel-Layer"/>
  <g id="_1289450560016">
   <rect class="fil0" width="1.359" height="1.359"/>
   <g>
    <path class="fil1" d="M1.081 0.538l0 0.478c0,0.048 -0.039,0.088 -0.088,0.088l-0.818 0c-0.049,0 -0.088,-0.04 -0.088,-0.088l0 -0.48 0.994 0.002z"/>
    <path class="fil2" d="M1.098 0.538l0 0.478c0,0.029 -0.011,0.055 -0.031,0.074 -0.019,0.019 -0.045,0.031 -0.074,0.031l-0.818 0c-0.029,0 -0.055,-0.012 -0.074,-0.031 -0.02,-0.019 -0.031,-0.045 -0.031,-0.074l0 -0.48c0,-0.01 0.007,-0.017 0.017,-0.017l0.994 0.002c0.01,0 0.017,0.008 0.017,0.017zm-0.034 0.478l0 -0.461 -0.96 -0.002 0 0.463c0,0.02 0.008,0.037 0.021,0.05 0.012,0.013 0.03,0.021 0.05,0.021l0.818 0c0.02,0 0.037,-0.008 0.05,-0.021 0.013,-0.013 0.021,-0.03 0.021,-0.05z"/>
    <polygon class="fil3" points="0.693,0.705 0.693,0.845 0.475,0.845 0.475,0.705 "/>
    <path class="fil2" d="M0.71 0.705l0 0.14c0,0.009 -0.007,0.017 -0.017,0.017l-0.218 0c-0.01,0 -0.017,-0.008 -0.017,-0.017l0 -0.14c0,-0.009 0.007,-0.017 0.017,-0.017l0.218 0c0.01,0 0.017,0.008 0.017,0.017zm-0.034 0.123l0 -0.106 -0.184 0 0 0.106 0.184 0z"/>
    <path class="fil1" d="M0.068 0.545l0 -0.105c0,-0.049 0.041,-0.088 0.092,-0.088l0.848 0c0.051,0 0.092,0.039 0.092,0.088l0 0.108c-0.153,0.057 -0.261,0.099 -0.404,0.152 -0.037,0.014 -0.062,0.028 -0.112,0.028 -0.05,0 -0.076,-0.014 -0.112,-0.028 -0.143,-0.053 -0.251,-0.097 -0.404,-0.155z"/>
    <path class="fil2" d="M0.051 0.545l0 -0.105c0,-0.029 0.012,-0.056 0.032,-0.075 0.02,-0.019 0.047,-0.03 0.077,-0.03l0.848 0c0.03,0 0.057,0.011 0.077,0.03 0.02,0.019 0.032,0.046 0.032,0.075l0 0.108c0,0.008 -0.005,0.015 -0.013,0.016 -0.07,0.027 -0.138,0.052 -0.204,0.077 -0.062,0.024 -0.122,0.047 -0.198,0.075l-0.018 0.007c-0.029,0.012 -0.055,0.022 -0.1,0.022 -0.045,0 -0.071,-0.01 -0.1,-0.022l-0.018 -0.007c-0.072,-0.027 -0.134,-0.051 -0.196,-0.075 -0.066,-0.026 -0.132,-0.051 -0.208,-0.08 -0.007,-0.002 -0.011,-0.009 -0.011,-0.016zm0.034 -0.105l0 0.094c0.074,0.027 0.136,0.052 0.197,0.075 0.064,0.025 0.127,0.05 0.196,0.075l0.018 0.007c0.026,0.011 0.05,0.02 0.088,0.02 0.038,0 0.062,-0.009 0.088,-0.02 0.004,-0.001 0.008,-0.003 0.018,-0.007 0.066,-0.024 0.132,-0.049 0.198,-0.074 0.059,-0.022 0.119,-0.045 0.195,-0.074l0 -0.096c0,-0.02 -0.008,-0.037 -0.022,-0.05 -0.013,-0.013 -0.032,-0.021 -0.053,-0.021l-0.848 0c-0.021,0 -0.04,0.008 -0.053,0.021 -0.014,0.013 -0.022,0.03 -0.022,0.05z"/>
    <path class="fil2" d="M0.154 0.493c0,0.009 -0.008,0.017 -0.017,0.017 -0.01,0 -0.017,-0.008 -0.017,-0.017l0 -0.023c0,-0.02 0.009,-0.038 0.023,-0.051 0.014,-0.013 0.033,-0.021 0.054,-0.021l0.089 0c0.009,0 0.017,0.007 0.017,0.017 0,0.009 -0.008,0.017 -0.017,0.017l-0.089 0c-0.012,0 -0.023,0.004 -0.031,0.011 -0.008,0.007 -0.012,0.017 -0.012,0.027l0 0.023z"/>
    <path class="fil2" d="M0.993 0.877c0,-0.01 0.007,-0.017 0.017,-0.017 0.009,0 0.017,0.007 0.017,0.017l0 0.104c0,0.022 -0.009,0.042 -0.024,0.057l0 0c-0.015,0.015 -0.035,0.024 -0.057,0.024l-0.128 0c-0.009,0 -0.017,-0.008 -0.017,-0.017 0,-0.01 0.008,-0.017 0.017,-0.017l0.128 0c0.013,0 0.024,-0.006 0.033,-0.014 0.008,-0.009 0.014,-0.02 0.014,-0.033l0 -0.104z"/>
    <path class="fil2" d="M0.383 0.293c0,0.01 -0.007,0.017 -0.017,0.017 -0.009,0 -0.017,-0.007 -0.017,-0.017 0,-0.034 0.014,-0.064 0.037,-0.087 0.022,-0.022 0.053,-0.036 0.087,-0.036l0.222 0c0.034,0 0.065,0.014 0.087,0.036l0.001 0.001c0.022,0.022 0.035,0.053 0.035,0.086 0,0.01 -0.007,0.017 -0.017,0.017 -0.009,0 -0.017,-0.007 -0.017,-0.017 0,-0.024 -0.009,-0.046 -0.025,-0.062l-0.001 -0.001c-0.016,-0.016 -0.038,-0.026 -0.063,-0.026l-0.222 0c-0.025,0 -0.047,0.01 -0.063,0.026 -0.016,0.016 -0.027,0.039 -0.027,0.063z"/>
   </g>
  </g>
 </g>
</svg>
