<?xml version="1.0" encoding="UTF-8"?>
<!DOCTYPE svg PUBLIC "-//W3C//DTD SVG 1.1//EN" "http://www.w3.org/Graphics/SVG/1.1/DTD/svg11.dtd">
<!-- Creator: CorelDRAW 2019 (64-Bit) -->
<svg xmlns="http://www.w3.org/2000/svg" xml:space="preserve" width="90px" height="52px" version="1.1" style="shape-rendering:geometricPrecision; text-rendering:geometricPrecision; image-rendering:optimizeQuality; fill-rule:evenodd; clip-rule:evenodd"
viewBox="0 0 9.754 5.636"
 xmlns:xlink="http://www.w3.org/1999/xlink">
 <defs>
  <style type="text/css">
   <![CDATA[
    .fil0 {fill:none}
    .fil3 {fill:#00F4FF}
    .fil1 {fill:white}
    .fil2 {fill:gray;fill-rule:nonzero}
   ]]>
  </style>
 </defs>
 <g id="Layer_x0020_1">
  <metadata id="CorelCorpID_0Corel-Layer"/>
  <g id="_3018495370896">
   <rect class="fil0" width="9.754" height="5.636"/>
   <g>
    <path class="fil1" d="M7.522 2.248l0 2.539c0,0.258 -0.212,0.469 -0.47,0.469l-4.349 0c-0.259,0 -0.47,-0.211 -0.47,-0.469l0 -2.553 5.289 0.014z"/>
    <path class="fil2" d="M7.576 2.248l0 2.539c0,0.144 -0.059,0.275 -0.154,0.37 -0.095,0.095 -0.226,0.154 -0.37,0.154l-4.349 0c-0.145,0 -0.276,-0.059 -0.371,-0.154 -0.094,-0.095 -0.153,-0.226 -0.153,-0.37l0 -2.553c0,-0.029 0.024,-0.054 0.054,-0.054l5.289 0.014c0.029,0 0.054,0.024 0.054,0.054zm-0.109 2.539l0 -2.485 -5.18 -0.013 0 2.498c0,0.114 0.047,0.218 0.122,0.293 0.075,0.075 0.179,0.122 0.294,0.122l4.349 0c0.114,0 0.218,-0.047 0.293,-0.122 0.076,-0.075 0.122,-0.179 0.122,-0.293z"/>
    <polygon class="fil3" points="5.459,3.134 5.459,3.877 4.295,3.877 4.295,3.134 "/>
    <path class="fil2" d="M5.513 3.134l0 0.743c0,0.03 -0.024,0.054 -0.054,0.054l-1.164 0c-0.03,0 -0.054,-0.024 -0.054,-0.054l0 -0.743c0,-0.03 0.024,-0.054 0.054,-0.054l1.164 0c0.03,0 0.054,0.024 0.054,0.054zm-0.108 0.689l0 -0.635 -1.056 0 0 0.635 1.056 0z"/>
    <path class="fil1" d="M2.134 2.286l0 -0.562c0,-0.258 0.219,-0.469 0.487,-0.469l4.512 0c0.268,0 0.488,0.211 0.488,0.469l0 0.576c-0.814,0.303 -1.39,0.525 -2.15,0.809 -0.193,0.072 -0.328,0.146 -0.594,0.146 -0.266,0 -0.401,-0.074 -0.594,-0.146 -0.76,-0.284 -1.336,-0.519 -2.149,-0.823z"/>
    <path class="fil2" d="M2.08 2.286l0 -0.562c0,-0.144 0.061,-0.275 0.159,-0.37 0.099,-0.095 0.234,-0.154 0.382,-0.154l4.512 0c0.149,0 0.284,0.059 0.382,0.154 0.098,0.095 0.16,0.226 0.16,0.37l0 0.576c0,0.023 -0.016,0.044 -0.037,0.051 -0.389,0.145 -0.744,0.279 -1.091,0.411 -0.334,0.126 -0.661,0.25 -1.057,0.397 -0.031,0.012 -0.062,0.024 -0.092,0.036 -0.154,0.061 -0.289,0.115 -0.521,0.115 -0.231,0 -0.367,-0.054 -0.52,-0.115 -0.035,-0.013 -0.07,-0.027 -0.093,-0.036 -0.38,-0.142 -0.71,-0.27 -1.046,-0.4 -0.345,-0.134 -0.697,-0.271 -1.103,-0.423 -0.022,-0.008 -0.035,-0.028 -0.035,-0.05zm0.108 -0.562l0 0.524c0.399,0.15 0.737,0.281 1.069,0.41 0.34,0.132 0.673,0.261 1.045,0.4 0.043,0.016 0.069,0.027 0.095,0.037 0.143,0.056 0.27,0.106 0.48,0.106 0.211,0 0.338,-0.05 0.481,-0.107 0.03,-0.011 0.061,-0.023 0.094,-0.036 0.365,-0.136 0.708,-0.265 1.057,-0.397 0.322,-0.123 0.652,-0.247 1.058,-0.399l0 -0.538c-0.001,-0.114 -0.049,-0.217 -0.127,-0.292 -0.079,-0.076 -0.187,-0.123 -0.307,-0.123l-4.512 0c-0.119,0 -0.228,0.047 -0.307,0.123 -0.078,0.075 -0.126,0.178 -0.126,0.292z"/>
    <path class="fil2" d="M2.553 2.005c0,0.03 -0.024,0.054 -0.053,0.054 -0.03,0 -0.054,-0.024 -0.054,-0.054l0 -0.119c-0.001,-0.097 0.042,-0.185 0.111,-0.248 0.068,-0.063 0.161,-0.102 0.264,-0.102l0.47 0c0.03,0 0.054,0.025 0.054,0.055 0,0.03 -0.024,0.054 -0.054,0.054l-0.47 0c-0.075,0 -0.142,0.028 -0.19,0.072 -0.048,0.044 -0.077,0.103 -0.077,0.169l-0.001 0.119z"/>
    <path class="fil2" d="M7.087 4.046c0,-0.03 0.024,-0.054 0.054,-0.054 0.03,0 0.054,0.024 0.054,0.054l0 0.553c0,0.108 -0.044,0.207 -0.116,0.279l0 0c-0.072,0.072 -0.171,0.116 -0.279,0.116l-0.677 0c-0.029,0 -0.054,-0.024 -0.054,-0.054 0,-0.03 0.025,-0.054 0.054,-0.054l0.677 0c0.079,0 0.15,-0.033 0.202,-0.084 0.053,-0.053 0.085,-0.124 0.085,-0.203l0 -0.553z"/>
    <path class="fil2" d="M3.775 0.946c0,0.029 -0.024,0.054 -0.054,0.054 -0.03,0 -0.055,-0.025 -0.055,-0.054 0,-0.171 0.07,-0.326 0.183,-0.438 0.112,-0.113 0.267,-0.183 0.438,-0.183l1.18 0c0.171,0 0.326,0.07 0.438,0.183 0.113,0.112 0.183,0.267 0.183,0.438 0,0.029 -0.025,0.054 -0.055,0.054 -0.03,0 -0.054,-0.025 -0.054,-0.054 0,-0.141 -0.057,-0.269 -0.15,-0.362 -0.093,-0.093 -0.221,-0.151 -0.362,-0.151l-1.18 0c-0.141,0 -0.269,0.058 -0.362,0.151 -0.093,0.093 -0.15,0.221 -0.15,0.362z"/>
   </g>
  </g>
 </g>
</svg>
