<?xml version="1.0" encoding="UTF-8"?>
<!DOCTYPE svg PUBLIC "-//W3C//DTD SVG 1.1//EN" "http://www.w3.org/Graphics/SVG/1.1/DTD/svg11.dtd">
<!-- Creator: CorelDRAW 2019 (64-Bit) -->
<svg xmlns="http://www.w3.org/2000/svg" xml:space="preserve" width="90px" height="52px" version="1.1" style="shape-rendering:geometricPrecision; text-rendering:geometricPrecision; image-rendering:optimizeQuality; fill-rule:evenodd; clip-rule:evenodd"
viewBox="0 0 9.605 5.549"
 xmlns:xlink="http://www.w3.org/1999/xlink">
 <defs>
  <style type="text/css">
   <![CDATA[
    .fil0 {fill:none}
    .fil3 {fill:#00F4FF}
    .fil1 {fill:white}
    .fil2 {fill:gray;fill-rule:nonzero}
   ]]>
  </style>
 </defs>
 <g id="Layer_x0020_1">
  <metadata id="CorelCorpID_0Corel-Layer"/>
  <g id="_3019066758528">
   <rect class="fil0" width="9.605" height="5.549"/>
   <g>
    <polygon class="fil1" points="2.271,1.407 4.81,0.213 7.333,1.407 4.81,2.522 "/>
    <path class="fil2" d="M2.25 1.358l2.537 -1.193c0.015,-0.007 0.032,-0.006 0.045,0l2.524 1.194c0.026,0.013 0.038,0.044 0.025,0.071 -0.005,0.012 -0.015,0.021 -0.026,0.026l-2.524 1.115c-0.015,0.007 -0.032,0.006 -0.045,-0.001l-2.536 -1.114c-0.027,-0.012 -0.039,-0.043 -0.027,-0.07 0.005,-0.013 0.015,-0.022 0.027,-0.028zm2.56 -1.086l-2.41 1.134 2.41 1.058 2.395 -1.058 -2.395 -1.134z"/>
    <polygon class="fil1" points="4.81,2.522 7.333,1.407 7.333,4.142 4.81,5.336 "/>
    <path class="fil2" d="M4.791 2.473l2.521 -1.114c0.027,-0.012 0.058,0 0.07,0.027 0.003,0.007 0.004,0.014 0.004,0.021l0.001 2.735c0,0.023 -0.015,0.042 -0.034,0.05l-2.521 1.192c-0.026,0.013 -0.058,0.001 -0.07,-0.025 -0.004,-0.008 -0.005,-0.015 -0.005,-0.023l-0.001 -2.814c0,-0.022 0.015,-0.042 0.035,-0.049zm2.489 -0.984l-2.417 1.068 0 2.695 2.417 -1.144 0 -2.619z"/>
    <polygon class="fil1" points="2.271,1.407 4.81,2.522 4.81,5.336 2.271,4.142 "/>
    <path class="fil2" d="M2.297 1.36l2.534 1.114c0.02,0.008 0.032,0.028 0.032,0.048l0 2.814c0,0.029 -0.024,0.053 -0.053,0.053 -0.01,0 -0.019,-0.002 -0.027,-0.007l-2.534 -1.192c-0.019,-0.009 -0.031,-0.028 -0.031,-0.048l0 -2.735c0,-0.029 0.024,-0.053 0.053,-0.053 0.01,0 0.018,0.002 0.026,0.006zm2.459 1.197l-2.431 -1.068 0 2.619 2.431 1.144 0 -2.695z"/>
    <polygon class="fil3" points="3.241,0.954 3.985,0.603 6.484,1.783 6.472,1.788 6.472,3.067 5.814,3.372 5.814,2.079 "/>
    <path class="fil2" d="M3.218 0.906l0.744 -0.351c0.015,-0.007 0.032,-0.007 0.045,0l2.499 1.18c0.027,0.012 0.038,0.044 0.026,0.07 -0.002,0.004 -0.004,0.008 -0.006,0.011l0 1.251c0,0.022 -0.015,0.042 -0.035,0.049l-0.655 0.304c-0.027,0.012 -0.058,0.001 -0.071,-0.026 -0.003,-0.007 -0.005,-0.015 -0.005,-0.022l0 -1.258 -2.54 -1.111c-0.027,-0.011 -0.039,-0.043 -0.028,-0.07 0.006,-0.012 0.015,-0.021 0.026,-0.027zm0.767 -0.244l-0.615 0.291 2.461 1.075c0.021,0.008 0.036,0.027 0.036,0.051l0 1.209 0.552 -0.255 0 -1.222 -2.434 -1.149z"/>
    <path class="fil2" d="M3.56 4.395c-0.026,-0.012 -0.038,-0.044 -0.026,-0.071 0.012,-0.026 0.044,-0.038 0.071,-0.026l0.853 0.393c0.027,0.012 0.039,0.044 0.027,0.07 -0.013,0.027 -0.044,0.039 -0.071,0.027l-0.854 -0.393z"/>
    <path class="fil2" d="M3.788 4.237c0,0.03 -0.024,0.054 -0.054,0.054 -0.029,0 -0.053,-0.024 -0.053,-0.054l0 -0.493c0,-0.03 0.024,-0.054 0.053,-0.054 0.03,0 0.054,0.024 0.054,0.054l0 0.493z"/>
    <path class="fil2" d="M3.93 3.916c0.017,0.024 0.011,0.057 -0.013,0.074 -0.024,0.017 -0.058,0.012 -0.074,-0.013l-0.126 -0.177 -0.111 0.055c-0.026,0.013 -0.058,0.002 -0.071,-0.024 -0.013,-0.027 -0.002,-0.059 0.024,-0.072l0.15 -0.074c0.024,-0.013 0.053,-0.006 0.069,0.016l0.152 0.215z"/>
    <path class="fil2" d="M4.338 4.49c0,0.03 -0.024,0.054 -0.054,0.054 -0.029,0 -0.053,-0.024 -0.053,-0.054l0 -0.493c0,-0.03 0.024,-0.054 0.053,-0.054 0.03,0 0.054,0.024 0.054,0.054l0 0.493z"/>
    <path class="fil2" d="M4.48 4.169c0.017,0.024 0.011,0.057 -0.013,0.074 -0.024,0.017 -0.057,0.012 -0.074,-0.013l-0.126 -0.177 -0.111 0.055c-0.026,0.013 -0.058,0.002 -0.071,-0.024 -0.013,-0.026 -0.003,-0.058 0.024,-0.072l0.152 -0.075c0.023,-0.012 0.052,-0.005 0.067,0.017l0.152 0.215z"/>
   </g>
  </g>
 </g>
</svg>
