<svg xmlns="http://www.w3.org/2000/svg" xmlns:xlink="http://www.w3.org/1999/xlink" width="36" height="36" viewBox="0 0 36 36"><defs><clipPath id="a"><circle cx="18" cy="18" r="18" fill="none"/></clipPath></defs><g clip-path="url(#a)"><g transform="translate(-6)"><rect width="48" height="36" fill="red"/><rect width="24" height="36" transform="translate(12)" fill="#fff"/><path d="M81.25,68.75,79.612,71.8c-.186.332-.519.3-.852.116l-1.185-.614L78.459,76c.186.857-.41.857-.7.486l-2.069-2.316-.336,1.176a.4.4,0,0,1-.465.278l-2.616-.55.687,2.5c.147.556.262.786-.149.933l-.932.438,4.5,3.658a.59.59,0,0,1,.2.613L76.189,84.5c1.551-.179,2.94-.448,4.491-.613.137-.015.366.211.365.37L80.84,89h.754l-.119-4.729c0-.159.207-.395.344-.38,1.551.166,2.941.435,4.491.613l-.394-1.293a.59.59,0,0,1,.2-.612l4.5-3.658-.933-.438c-.41-.147-.3-.377-.148-.933l.687-2.5-2.616.55a.4.4,0,0,1-.465-.278l-.336-1.176-2.069,2.316c-.294.371-.89.371-.7-.486l.883-4.691-1.185.614c-.333.185-.666.216-.852-.116" transform="translate(-57.25 -60.5)" fill="red"/></g></g></svg>