<svg xmlns="http://www.w3.org/2000/svg" xmlns:xlink="http://www.w3.org/1999/xlink" width="36" height="36" viewBox="0 0 36 36"><defs><clipPath id="a"><circle cx="18" cy="18" r="18" fill="none"/></clipPath><radialGradient id="b" cx="0.162" cy="0.477" r="0.879" gradientTransform="matrix(0.896, 0, 0, -1, 1.893, -140.836)" gradientUnits="objectBoundingBox"><stop offset="0.216" stop-color="#b07e09" stop-opacity="0"/><stop offset="1" stop-color="#b07e09"/></radialGradient><radialGradient id="c" cx="0.297" cy="0.776" r="1.021" gradientTransform="matrix(0.925, 0, 0, -1, 2.457, -249.624)" xlink:href="#b"/><radialGradient id="d" cx="0.362" cy="0.775" r="1.589" gradientTransform="matrix(0.599, 0, 0, -1, 14.869, -432.01)" xlink:href="#b"/><radialGradient id="e" cx="0.521" cy="0.495" r="1.054" gradientTransform="matrix(0.928, 0, 0, -1, 1.561, -160.671)" xlink:href="#b"/><linearGradient id="f" x1="6.087" y1="-36.713" x2="6.064" y2="-35.891" gradientTransform="matrix(1, 0, 0, 1, 0, 0)" xlink:href="#b"/><linearGradient id="g" x1="6.399" y1="-39.084" x2="6.437" y2="-39.985" gradientTransform="matrix(1, 0, 0, 1, 0, 0)" xlink:href="#b"/><radialGradient id="h" cx="0.237" cy="0.749" r="1.042" gradientTransform="matrix(0.931, 0, 0, -1, 1.969, -193.99)" xlink:href="#b"/><linearGradient id="i" x1="39.208" y1="-128.316" x2="39.602" y2="-127.366" gradientTransform="matrix(1, 0, 0, 1, 0, 0)" xlink:href="#b"/><linearGradient id="j" x1="7.469" y1="-73.601" x2="7.518" y2="-75.649" gradientTransform="matrix(1, 0, 0, 1, 0, 0)" xlink:href="#b"/><radialGradient id="k" cx="0.076" cy="0.426" r="0.738" gradientTransform="matrix(0.818, 0, 0, -1, 2.849, -117.422)" gradientUnits="objectBoundingBox"><stop offset="0.259" stop-color="#4c0505" stop-opacity="0"/><stop offset="1" stop-color="#4c0505"/></radialGradient><radialGradient id="l" cx="0.5" cy="0.501" r="0.49" gradientTransform="matrix(1.048, 0, 0, -1, 25.336, -2833.095)" gradientUnits="objectBoundingBox"><stop offset="0" stop-color="#fff"/><stop offset="1" stop-color="#fff" stop-opacity="0"/></radialGradient></defs><g clip-path="url(#a)"><g transform="translate(0)"><rect width="36" height="36" fill="#4997d0"/><rect width="12" height="36" transform="translate(12)" fill="#fff"/><path d="M141.286,173.721a1.045,1.045,0,0,0,.226-.067" transform="translate(-124.332 -152.816)" fill="none" stroke="#24420e" stroke-width="0.017"/><path d="M143.866,172.387a.487.487,0,0,1,.112.174" transform="translate(-126.602 -151.701)" fill="none" stroke="#24420e" stroke-width="0.017"/><path d="M142.267,172.251a.574.574,0,0,1,.118.156" transform="translate(-125.195 -151.581)" fill="none" stroke="#24420e" stroke-width="0.017"/><path d="M126.438,130.865a.4.4,0,0,1-.179.129" transform="translate(-111.108 -115.161)" fill="none" stroke="#24420e" stroke-width="0.017"/><path d="M126.13,130.668a.956.956,0,0,1,0-.165" transform="translate(-110.992 -114.843)" fill="none" stroke="#24420e" stroke-width="0.017"/><path d="M125.55,132.072c0,.014.016.053.025.076" transform="translate(-110.484 -116.223)" fill="none" stroke="#24420e" stroke-width="0.017"/><path d="M125.837,132.992l-.076.013" transform="translate(-110.67 -117.033)" fill="none" stroke="#24420e" stroke-width="0.017"/><path d="M124.524,132.826a2.822,2.822,0,0,0,.02.293" transform="translate(-109.581 -116.887)" fill="none" stroke="#24420e" stroke-width="0.017"/><path d="M124.131,134.969a.222.222,0,0,0,.058.071" transform="translate(-109.235 -118.773)" fill="none" stroke="#24420e" stroke-width="0.017"/><path d="M123.181,137.579a.537.537,0,0,1,.049.148" transform="translate(-108.399 -121.07)" fill="none" stroke="#24420e" stroke-width="0.017"/><path d="M124.218,137.368a.567.567,0,0,0-.072.058" transform="translate(-109.248 -120.884)" fill="none" stroke="#24420e" stroke-width="0.017"/><path d="M123.7,139.224a.588.588,0,0,1-.129.08" transform="translate(-108.744 -122.517)" fill="none" stroke="#24420e" stroke-width="0.017"/><path d="M122.381,152.516a.6.6,0,0,0,.148.176" transform="translate(-107.695 -134.214)" fill="none" stroke="#24420e" stroke-width="0.017"/><path d="M122.989,154.242a.3.3,0,0,1-.11-.036" transform="translate(-108.134 -135.701)" fill="none" stroke="#24420e" stroke-width="0.017"/><path d="M124.252,156.831l.063.036" transform="translate(-109.342 -138.011)" fill="none" stroke="#24420e" stroke-width="0.017"/><path d="M124.644,158.219a.687.687,0,0,1,.141.145" transform="translate(-109.687 -139.233)" fill="none" stroke="#24420e" stroke-width="0.017"/><path d="M125.368,160.316a.448.448,0,0,1,.121.04" transform="translate(-110.324 -141.078)" fill="none" stroke="#24420e" stroke-width="0.017"/><path d="M126.048,161.4l.08,0" transform="translate(-110.922 -142.035)" fill="none" stroke="#24420e" stroke-width="0.017"/><path d="M126.956,159.743a1.489,1.489,0,0,1-.018.159" transform="translate(-111.705 -140.574)" fill="none" stroke="#24420e" stroke-width="0.017"/><path d="M127.254,161.118l.016-.062" transform="translate(-111.984 -141.729)" fill="none" stroke="#24420e" stroke-width="0.017"/><path d="M128.814,162.927l-.006.121" transform="translate(-113.351 -143.376)" fill="none" stroke="#24420e" stroke-width="0.017"/><path d="M140.741,172.658l-.043.06" transform="translate(-123.814 -151.939)" fill="none" stroke="#24420e" stroke-width="0.017"/><path d="M139.757,171.43l-.025-.069" transform="translate(-122.964 -150.798)" fill="none" stroke="#24420e" stroke-width="0.017"/><path d="M126.536,153.41a1.757,1.757,0,0,1-.007-.882C126.777,153.016,126.694,153.418,126.536,153.41Z" transform="translate(-111.298 -134.225)" fill="#67923d" stroke="#24420e" stroke-width="0.017"/><path d="M126.929,153.4c.159.008.24-.39-.01-.877A2.957,2.957,0,0,1,126.929,153.4Z" transform="translate(-111.689 -134.224)" fill="#406325" stroke="#24420e" stroke-width="0.017"/><path d="M126.274,134.071a.314.314,0,0,0-.123-.1,2.822,2.822,0,0,0-.9-.272,1.112,1.112,0,0,1-.228-.12c-.186-.089-.393-.123-.574-.214a.289.289,0,0,1-.079-.058c-.072-.083-.2-.109-.283-.187a3.155,3.155,0,0,1-.816-.958,3.3,3.3,0,0,1-.434-1.509,5.526,5.526,0,0,1,.056-1.014,3.92,3.92,0,0,1,.578-1.362l-.049.031a3.894,3.894,0,0,0-.579,1.362,5.525,5.525,0,0,0-.056,1.014,3.313,3.313,0,0,0,.434,1.51,3.223,3.223,0,0,0,.816.958c.081.076.211.1.283.186a.379.379,0,0,0,.079.058c.181.09.388.125.574.212a1.025,1.025,0,0,0,.228.12,2.87,2.87,0,0,1,.9.272.3.3,0,0,1,.123.1l.051-.031" transform="translate(-108.045 -112.886)" fill="#406325" stroke="#24420e" stroke-width="0.017"/><path d="M135.3,174.066a1.793,1.793,0,0,0-.82.427C135.047,174.5,135.382,174.219,135.3,174.066Z" transform="translate(-118.343 -153.178)" fill="#67923d" stroke="#24420e" stroke-width="0.017"/><path d="M139.785,165.438a2.255,2.255,0,0,1-.526-.994C139.825,164.85,139.968,165.355,139.785,165.438Z" transform="translate(-122.547 -144.711)" fill="#67923d" stroke="#24420e" stroke-width="0.017"/><path d="M137.684,166.486a2.065,2.065,0,0,1-.6-.853C137.656,165.94,137.843,166.388,137.684,166.486Z" transform="translate(-120.636 -145.757)" fill="#67923d" stroke="#24420e" stroke-width="0.017"/><path d="M134.9,163.482a2.03,2.03,0,0,0-.284-.974C134.5,163.126,134.727,163.542,134.9,163.482Z" transform="translate(-118.435 -143.007)" fill="#67923d" stroke="#24420e" stroke-width="0.017"/><path d="M128.353,157.261a1.581,1.581,0,0,1,.018-.787C128.577,156.913,128.493,157.27,128.353,157.261Z" transform="translate(-112.912 -137.697)" fill="#67923d" stroke="#24420e" stroke-width="0.017"/><path d="M124.525,163.016a1.831,1.831,0,0,0-.814-.418C124.044,163.051,124.456,163.164,124.525,163.016Z" transform="translate(-108.866 -143.086)" fill="#406325" stroke="#24420e" stroke-width="0.017"/><path d="M118.811,142.933a2.131,2.131,0,0,0-.553-.9C118.315,142.678,118.654,143.035,118.811,142.933Z" transform="translate(-104.067 -124.99)" fill="#406325" stroke="#24420e" stroke-width="0.017"/><path d="M119.728,158.907a1.626,1.626,0,0,0-.785-.177c.38.311.758.317.785.177Z" transform="translate(-104.67 -139.678)" fill="#406325" stroke="#24420e" stroke-width="0.017"/><path d="M117.916,148.714a1.576,1.576,0,0,0-.633-.514C117.49,148.665,117.829,148.835,117.916,148.714Z" transform="translate(-103.209 -130.416)" fill="#406325" stroke="#24420e" stroke-width="0.017"/><path d="M121.187,130.707a2.012,2.012,0,0,0-.275-.943C120.8,130.361,121.021,130.764,121.187,130.707Z" transform="translate(-106.377 -114.192)" fill="#406325" stroke="#24420e" stroke-width="0.017"/><path d="M124.385,134.646a1.916,1.916,0,0,1,.787-.6C124.918,134.6,124.5,134.793,124.385,134.646Z" transform="translate(-109.459 -117.963)" fill="#67923d" stroke="#24420e" stroke-width="0.017"/><path d="M124.608,131.779a1.943,1.943,0,0,1,.651-.751C125.119,131.616,124.746,131.9,124.608,131.779Z" transform="translate(-109.655 -115.305)" fill="#67923d" stroke="#24420e" stroke-width="0.017"/><path d="M123.61,126.249a1.846,1.846,0,0,0-.02-.916C123.35,125.84,123.447,126.257,123.61,126.249Z" transform="translate(-108.633 -110.293)" fill="#406325" stroke="#24420e" stroke-width="0.017"/><path d="M125.732,125.218a1.511,1.511,0,0,0,.131-.73C125.592,124.852,125.6,125.2,125.732,125.218Z" transform="translate(-110.566 -109.549)" fill="#406325" stroke="#24420e" stroke-width="0.017"/><path d="M127.889,123.86a1.455,1.455,0,0,0,.341-.654C127.865,123.467,127.772,123.8,127.889,123.86Z" transform="translate(-112.5 -108.421)" fill="#406325" stroke="#24420e" stroke-width="0.017"/><path d="M120.459,137.117a1.507,1.507,0,0,0-.377-.687C120.1,136.986,120.316,137.2,120.459,137.117Z" transform="translate(-105.672 -120.058)" fill="#406325" stroke="#24420e" stroke-width="0.017"/><path d="M131.262,161.026a2.06,2.06,0,0,1-.273-.989C131.412,160.506,131.44,160.983,131.262,161.026Z" transform="translate(-115.267 -140.833)" fill="#67923d" stroke="#24420e" stroke-width="0.017"/><path d="M126.313,167.285a1.992,1.992,0,0,0-.966-.222C125.818,167.451,126.28,167.458,126.313,167.285Z" transform="translate(-110.305 -147.009)" fill="#406325" stroke="#24420e" stroke-width="0.017"/><path d="M122.632,139.41a1.564,1.564,0,0,1,.735-.332C123.065,139.468,122.694,139.547,122.632,139.41Z" transform="translate(-107.916 -122.388)" fill="#67923d" stroke="#24420e" stroke-width="0.017"/><path d="M134.887,163.478c-.17.06-.392-.353-.283-.971A3.48,3.48,0,0,0,134.887,163.478Z" transform="translate(-118.426 -143.006)" fill="#406325" stroke="#24420e" stroke-width="0.017"/><path d="M135.338,174.08c.079.153-.251.429-.817.424A3,3,0,0,0,135.338,174.08Z" transform="translate(-118.378 -153.19)" fill="#406325" stroke="#24420e" stroke-width="0.017"/><path d="M139.784,165.433c.182-.084.041-.583-.525-.989A3.74,3.74,0,0,1,139.784,165.433Z" transform="translate(-122.548 -144.711)" fill="#406325" stroke="#24420e" stroke-width="0.017"/><path d="M137.682,166.482c.16-.1-.026-.542-.6-.849a3.5,3.5,0,0,1,.6.849Z" transform="translate(-120.636 -145.757)" fill="#406325" stroke="#24420e" stroke-width="0.017"/><path d="M128.68,157.271c.14.008.223-.347.018-.785a2.606,2.606,0,0,1-.018.785Z" transform="translate(-113.238 -137.708)" fill="#406325" stroke="#24420e" stroke-width="0.017"/><path d="M124.514,163.029c-.068.147-.476.034-.812-.418A3.168,3.168,0,0,0,124.514,163.029Z" transform="translate(-108.858 -143.098)" fill="#67923d" stroke="#24420e" stroke-width="0.017"/><path d="M118.806,142.951c-.157.1-.492-.253-.551-.9A3.569,3.569,0,0,0,118.806,142.951Z" transform="translate(-104.064 -125.008)" fill="#67923d" stroke="#24420e" stroke-width="0.017"/><path d="M119.737,158.953c-.029.14-.4.135-.782-.177A2.777,2.777,0,0,0,119.737,158.953Z" transform="translate(-104.68 -139.723)" fill="#67923d" stroke="#24420e" stroke-width="0.017"/><path d="M117.9,148.7c-.087.121-.423-.048-.63-.512A2.682,2.682,0,0,0,117.9,148.7Z" transform="translate(-103.198 -130.404)" fill="#67923d" stroke="#24420e" stroke-width="0.017"/><path d="M121.168,130.717c-.166.058-.381-.34-.274-.938A3.242,3.242,0,0,0,121.168,130.717Z" transform="translate(-106.361 -114.206)" fill="#67923d" stroke="#24420e" stroke-width="0.017"/><path d="M124.381,134.664c.111.146.527-.049.781-.6a3.225,3.225,0,0,1-.781.6Z" transform="translate(-109.455 -117.979)" fill="#406325" stroke="#24420e" stroke-width="0.017"/><path d="M124.645,131.8c.138.118.508-.161.648-.749A3.327,3.327,0,0,1,124.645,131.8Z" transform="translate(-109.688 -115.323)" fill="#406325" stroke="#24420e" stroke-width="0.017"/><path d="M123.592,126.261c-.161.009-.258-.405-.018-.912A3.206,3.206,0,0,0,123.592,126.261Z" transform="translate(-108.618 -110.307)" fill="#67923d" stroke="#24420e" stroke-width="0.017"/><path d="M125.709,125.225c-.13-.02-.139-.362.132-.726A2.482,2.482,0,0,0,125.709,125.225Z" transform="translate(-110.546 -109.559)" fill="#67923d" stroke="#24420e" stroke-width="0.017"/><path d="M127.871,123.886c-.118-.062-.026-.391.339-.65A2.488,2.488,0,0,0,127.871,123.886Z" transform="translate(-112.484 -108.448)" fill="#67923d" stroke="#24420e" stroke-width="0.017"/><path d="M120.457,137.119c-.143.079-.359-.131-.375-.687A2.184,2.184,0,0,0,120.457,137.119Z" transform="translate(-105.672 -120.06)" fill="#67923d" stroke="#24420e" stroke-width="0.017"/><path d="M131.311,161.031c.178-.042.148-.517-.272-.985A3.394,3.394,0,0,1,131.311,161.031Z" transform="translate(-115.314 -140.84)" fill="#406325" stroke="#24420e" stroke-width="0.017"/><path d="M126.32,167.349c-.033.173-.493.165-.963-.221A3.285,3.285,0,0,0,126.32,167.349Z" transform="translate(-110.314 -147.073)" fill="#67923d" stroke="#24420e" stroke-width="0.017"/><path d="M122.616,139.434c.061.136.429.057.731-.333C122.9,139.356,122.72,139.466,122.616,139.434Z" transform="translate(-107.902 -122.409)" fill="#406325" stroke="#24420e" stroke-width="0.017"/><path d="M121.461,140.4a1.542,1.542,0,0,0-.161-.958C121.123,140.021,121.291,140.439,121.461,140.4Z" transform="translate(-106.678 -122.709)" fill="#406325" stroke="#24420e" stroke-width="0.017"/><path d="M121.354,140.605c-.221.05-.324-.451-.153-1.015A4.059,4.059,0,0,0,121.354,140.605Z" transform="translate(-106.582 -122.839)" fill="#67923d" stroke="#24420e" stroke-width="0.017"/><path d="M118.04,154.873a1.716,1.716,0,0,1-.859-.238C117.726,154.518,118.092,154.713,118.04,154.873Z" transform="translate(-103.119 -136.048)" fill="#67923d" stroke="#24420e" stroke-width="0.017"/><path d="M118.015,154.878c.053-.159-.311-.351-.855-.235A2.918,2.918,0,0,1,118.015,154.878Z" transform="translate(-103.101 -136.055)" fill="#406325" stroke="#24420e" stroke-width="0.017"/><path d="M123.65,149.274a1.482,1.482,0,0,1,.389-.625c-.042.448-.279.7-.389.625Z" transform="translate(-108.812 -130.811)" fill="#67923d" stroke="#24420e" stroke-width="0.017"/><path d="M123.679,149.289c.109.071.344-.175.386-.623A2.574,2.574,0,0,1,123.679,149.289Z" transform="translate(-108.838 -130.826)" fill="#406325" stroke="#24420e" stroke-width="0.017"/><path d="M122.721,141.245a1.96,1.96,0,0,1,.334-.927c.076.593-.167.987-.334.927Z" transform="translate(-107.993 -123.48)" fill="#67923d" stroke="#24420e" stroke-width="0.017"/><path d="M122.763,141.248c.165.061.407-.328.331-.921A3.361,3.361,0,0,1,122.763,141.248Z" transform="translate(-108.031 -123.488)" fill="#406325" stroke="#24420e" stroke-width="0.017"/><path d="M123.167,144.524a1.878,1.878,0,0,1,.4-.886C123.594,144.244,123.326,144.607,123.167,144.524Z" transform="translate(-108.387 -126.401)" fill="#67923d" stroke="#24420e" stroke-width="0.017"/><path d="M123.189,144.6c.159.083.424-.276.393-.882A3.228,3.228,0,0,1,123.189,144.6Z" transform="translate(-108.406 -126.467)" fill="#406325" stroke="#24420e" stroke-width="0.017"/><path d="M128.962,160.717a1.534,1.534,0,0,1-.253-.722C129.047,160.323,129.092,160.676,128.962,160.717Z" transform="translate(-113.263 -140.796)" fill="#67923d" stroke="#24420e" stroke-width="0.017"/><path d="M128.988,160.719c.13-.04.084-.392-.252-.719A2.531,2.531,0,0,1,128.988,160.719Z" transform="translate(-113.288 -140.8)" fill="#406325" stroke="#24420e" stroke-width="0.017"/><path d="M123.753,134.472a.041.041,0,1,1-.041-.041.041.041,0,0,1,.041.041Z" transform="translate(-108.831 -118.299)" fill="#ba1f3e" stroke="#511124" stroke-linecap="round" stroke-linejoin="round" stroke-width="0.017"/><path d="M126.368,132.537a.041.041,0,1,1-.041-.041A.041.041,0,0,1,126.368,132.537Z" transform="translate(-111.133 -116.596)" fill="#ba1f3e" stroke="#511124" stroke-linecap="round" stroke-linejoin="round" stroke-width="0.017"/><path d="M125.231,131.485a.041.041,0,1,1-.041-.041.041.041,0,0,1,.041.041Z" transform="translate(-110.132 -115.671)" fill="#ba1f3e" stroke="#511124" stroke-linecap="round" stroke-linejoin="round" stroke-width="0.017"/><path d="M122.353,153.749a.048.048,0,1,1-.048-.048A.048.048,0,0,1,122.353,153.749Z" transform="translate(-107.586 -135.257)" fill="#ba1f3e" stroke="#511124" stroke-linecap="round" stroke-linejoin="round" stroke-width="0.017"/><path d="M123.145,148.752a.048.048,0,1,1-.048-.048A.048.048,0,0,1,123.145,148.752Z" transform="translate(-108.283 -130.86)" fill="#ba1f3e" stroke="#511124" stroke-linecap="round" stroke-linejoin="round" stroke-width="0.017"/><path d="M127.262,160.416a.048.048,0,1,1-.048-.048A.048.048,0,0,1,127.262,160.416Z" transform="translate(-111.906 -141.124)" fill="#ba1f3e" stroke="#511124" stroke-linecap="round" stroke-linejoin="round" stroke-width="0.017"/><path d="M125.445,161.032a.048.048,0,1,1-.048-.048.048.048,0,0,1,.048.048Z" transform="translate(-110.307 -141.666)" fill="#ba1f3e" stroke="#511124" stroke-linecap="round" stroke-linejoin="round" stroke-width="0.017"/><path d="M139.292,170.782a.048.048,0,0,1-.1,0h0a.048.048,0,1,1,.1,0Z" transform="translate(-122.492 -150.246)" fill="#ba1f3e" stroke="#511124" stroke-linecap="round" stroke-linejoin="round" stroke-width="0.017"/><path d="M140.2,173a.048.048,0,1,1-.048-.048A.048.048,0,0,1,140.2,173Z" transform="translate(-123.293 -152.194)" fill="#ba1f3e" stroke="#511124" stroke-linecap="round" stroke-linejoin="round" stroke-width="0.017"/><path d="M124.621,151.883a1.662,1.662,0,0,1-.109-.861C124.822,151.465,124.784,151.869,124.621,151.883Z" transform="translate(-109.555 -132.899)" fill="#67923d" stroke="#24420e" stroke-width="0.017"/><path d="M120.13,153.862a1.689,1.689,0,0,0-.637-.594C119.679,153.779,120.027,153.986,120.13,153.862Z" transform="translate(-105.154 -134.876)" fill="#406325" stroke="#24420e" stroke-width="0.017"/><path d="M124.727,151.864c.162-.014.2-.414-.11-.857A2.725,2.725,0,0,1,124.727,151.864Z" transform="translate(-109.663 -132.886)" fill="#406325" stroke="#24420e" stroke-width="0.017"/><path d="M120.091,153.87c-.1.124-.447-.081-.633-.594A2.9,2.9,0,0,0,120.091,153.87Z" transform="translate(-105.123 -134.883)" fill="#67923d" stroke="#24420e" stroke-width="0.017"/><path d="M132.5,172.149a2.141,2.141,0,0,0-.98.511C132.2,172.665,132.6,172.332,132.5,172.149Z" transform="translate(-115.742 -151.491)" fill="#67923d" stroke="#24420e" stroke-width="0.017"/><path d="M132.519,172.2c.1.183-.3.513-.976.507A3.585,3.585,0,0,0,132.519,172.2Z" transform="translate(-115.758 -151.532)" fill="#406325" stroke="#24420e" stroke-width="0.017"/><path d="M175.359,137.178c.023.023.044.03.086.071" transform="translate(-154.316 -120.717)" fill="none" stroke="#24420e" stroke-width="0.017"/><path d="M173.752,130.482a1.306,1.306,0,0,0-.034-.186" transform="translate(-152.872 -114.66)" fill="none" stroke="#24420e" stroke-width="0.017"/><path d="M174.5,131.227a.428.428,0,0,1-.04.206" transform="translate(-153.528 -115.48)" fill="none" stroke="#24420e" stroke-width="0.017"/><path d="M173.164,132.78a.879.879,0,0,0,.2.146" transform="translate(-152.384 -116.846)" fill="none" stroke="#24420e" stroke-width="0.017"/><path d="M175.815,134.381a.7.7,0,0,1-.026.223" transform="translate(-154.694 -118.255)" fill="none" stroke="#24420e" stroke-width="0.017"/><path d="M175.89,136.087l.049-.085" transform="translate(-154.783 -119.682)" fill="none" stroke="#24420e" stroke-width="0.017"/><path d="M175.718,139.822a.23.23,0,0,1,.131.131" transform="translate(-154.632 -123.043)" fill="none" stroke="#24420e" stroke-width="0.017"/><path d="M176.962,139.9l.062-.082" transform="translate(-155.727 -123.043)" fill="none" stroke="#24420e" stroke-width="0.017"/><path d="M177.332,149.423a.9.9,0,0,1-.092.131" transform="translate(-155.971 -131.492)" fill="none" stroke="#24420e" stroke-width="0.017"/><path d="M176,150.49a.7.7,0,0,0,.1.151" transform="translate(-154.882 -132.431)" fill="none" stroke="#24420e" stroke-width="0.017"/><path d="M176.36,153.584a.494.494,0,0,1-.166.151" transform="translate(-155.051 -135.154)" fill="none" stroke="#24420e" stroke-width="0.017"/><path d="M175.223,156.251a.91.91,0,0,0-.138.177" transform="translate(-154.075 -137.501)" fill="none" stroke="#24420e" stroke-width="0.017"/><path d="M177.139,151.415l-.08.033" transform="translate(-155.812 -133.245)" fill="none" stroke="#24420e" stroke-width="0.017"/><path d="M176.622,149.348l.047.042" transform="translate(-155.427 -131.426)" fill="none" stroke="#24420e" stroke-width="0.017"/><path d="M173.526,161.365a.323.323,0,0,0-.08,0" transform="translate(-152.632 -142)" fill="none" stroke="#24420e" stroke-width="0.017"/><path d="M172.823,160.8l.023.062" transform="translate(-152.084 -141.5)" fill="none" stroke="#24420e" stroke-width="0.017"/><path d="M170.57,162.909a.73.73,0,0,0,.008.21" transform="translate(-150.097 -143.36)" fill="none" stroke="#24420e" stroke-width="0.017"/><path d="M172.012,161.842l.038.084" transform="translate(-151.371 -142.421)" fill="none" stroke="#24420e" stroke-width="0.017"/><path d="M172.833,162.482l-.095.015" transform="translate(-152.009 -142.984)" fill="none" stroke="#24420e" stroke-width="0.017"/><path d="M162.844,170.505l-.034.065" transform="translate(-143.273 -150.044)" fill="none" stroke="#24420e" stroke-width="0.017"/><path d="M165.4,169.766a.6.6,0,0,1-.154-.008" transform="translate(-145.418 -149.387)" fill="none" stroke="#24420e" stroke-width="0.017"/><path d="M162.734,171.352a1.006,1.006,0,0,0-.11-.036" transform="translate(-143.109 -150.758)" fill="none" stroke="#24420e" stroke-width="0.017"/><path d="M157.17,172.148a.824.824,0,0,0-.115.154" transform="translate(-138.208 -151.49)" fill="none" stroke="#24420e" stroke-width="0.017"/><path d="M155.663,172c-.091.047-.119.139-.166.218" transform="translate(-136.837 -151.358)" fill="none" stroke="#24420e" stroke-width="0.017"/><path d="M154.908,174.145a1.953,1.953,0,0,1-.2-.077" transform="translate(-136.143 -153.18)" fill="none" stroke="#24420e" stroke-width="0.017"/><path d="M157.984,173.451a.813.813,0,0,0-.268-.055" transform="translate(-138.79 -152.588)" fill="none" stroke="#24420e" stroke-width="0.017"/><path d="M158.251,173.149a1.13,1.13,0,0,0-.385-.005" transform="translate(-138.922 -152.354)" fill="none" stroke="#24420e" stroke-width="0.017"/><path d="M159.913,172.277l-.052-.022" transform="translate(-140.678 -151.584)" fill="none" stroke="#24420e" stroke-width="0.017"/><path d="M157.494,173.616l-.087-.049" transform="translate(-138.518 -152.739)" fill="none" stroke="#24420e" stroke-width="0.017"/><path d="M174.478,158.194a.682.682,0,0,0-.141.145" transform="translate(-153.417 -139.211)" fill="#2ca02c" stroke="#24420e" stroke-width="0.017"/><path d="M171.579,153.4a2.014,2.014,0,0,0-.056-1.011C171.273,152.966,171.4,153.421,171.579,153.4Z" transform="translate(-150.817 -134.103)" fill="#406325" stroke="#24420e" stroke-width="0.017"/><path d="M171.562,153.394c-.181.021-.3-.429-.052-1A3.386,3.386,0,0,0,171.562,153.394Z" transform="translate(-150.803 -134.102)" fill="#67923d" stroke="#24420e" stroke-width="0.017"/><path d="M148.247,134.045a.312.312,0,0,1,.123-.1,2.823,2.823,0,0,1,.9-.272,1.1,1.1,0,0,0,.228-.12c.186-.089.393-.123.574-.214a.293.293,0,0,0,.079-.058c.072-.083.2-.109.283-.186a3.153,3.153,0,0,0,.816-.958,3.3,3.3,0,0,0,.434-1.508,5.534,5.534,0,0,0-.056-1.014,3.921,3.921,0,0,0-.578-1.362l.049.031a3.89,3.89,0,0,1,.579,1.362,5.535,5.535,0,0,1,.056,1.014,3.312,3.312,0,0,1-.434,1.51,3.222,3.222,0,0,1-.817.958c-.081.076-.211.1-.283.186a.369.369,0,0,1-.079.058c-.181.091-.388.125-.574.212a1.028,1.028,0,0,1-.228.12,2.869,2.869,0,0,0-.9.272.3.3,0,0,0-.123.1l-.051-.031" transform="translate(-130.457 -112.864)" fill="#406325" stroke="#24420e" stroke-width="0.017"/><path d="M156.222,174.4a1.791,1.791,0,0,1,.82.427C156.476,174.835,156.141,174.556,156.222,174.4Z" transform="translate(-137.465 -153.475)" fill="#67923d" stroke="#24420e" stroke-width="0.017"/><path d="M156.311,165.829a2.122,2.122,0,0,1,.657-.831C156.833,165.641,156.452,165.956,156.311,165.829Z" transform="translate(-137.554 -145.198)" fill="#67923d" stroke="#24420e" stroke-width="0.017"/><path d="M162.929,163.456a2.031,2.031,0,0,1,.284-.974C163.324,163.1,163.1,163.516,162.929,163.456Z" transform="translate(-143.374 -142.984)" fill="#67923d" stroke="#24420e" stroke-width="0.017"/><path d="M169.756,157.236a1.582,1.582,0,0,0-.018-.787C169.531,156.888,169.616,157.245,169.756,157.236Z" transform="translate(-149.26 -137.675)" fill="#406325" stroke="#24420e" stroke-width="0.017"/><path d="M169.662,162.991a1.83,1.83,0,0,1,.814-.418C170.143,163.026,169.731,163.139,169.662,162.991Z" transform="translate(-149.303 -143.064)" fill="#67923d" stroke="#24420e" stroke-width="0.017"/><path d="M177.722,144.223a1.678,1.678,0,0,1,.435-.708C178.112,144.022,177.846,144.3,177.722,144.223Z" transform="translate(-156.395 -126.293)" fill="#67923d" stroke="#24420e" stroke-width="0.017"/><path d="M174.07,159.751a1.9,1.9,0,0,1,.915-.206C174.542,159.907,174.1,159.914,174.07,159.751Z" transform="translate(-153.182 -140.394)" fill="#67923d" stroke="#24420e" stroke-width="0.017"/><path d="M177.28,149.684a1.657,1.657,0,0,1,.666-.54c-.217.488-.574.668-.666.54Z" transform="translate(-156.006 -131.247)" fill="#67923d" stroke="#24420e" stroke-width="0.017"/><path d="M176.817,132.74a2.013,2.013,0,0,1,.374-.909C177.234,132.436,176.976,132.814,176.817,132.74Z" transform="translate(-155.599 -116.011)" fill="#67923d" stroke="#24420e" stroke-width="0.017"/><path d="M170.749,135.82a1.756,1.756,0,0,0-.722-.548C170.26,135.773,170.648,135.954,170.749,135.82Z" transform="translate(-149.624 -119.039)" fill="#406325" stroke="#24420e" stroke-width="0.017"/><path d="M171.572,132.743a1.618,1.618,0,0,0-.543-.626C171.146,132.607,171.456,132.841,171.572,132.743Z" transform="translate(-150.506 -116.263)" fill="#406325" stroke="#24420e" stroke-width="0.017"/><path d="M174.284,125.786a1.516,1.516,0,0,1,0-.753C174.489,125.444,174.419,125.789,174.284,125.786Z" transform="translate(-153.326 -110.029)" fill="#67923d" stroke="#24420e" stroke-width="0.017"/><path d="M170.461,124.547a1.865,1.865,0,0,1-.39-.829C170.512,124.065,170.611,124.482,170.461,124.547Z" transform="translate(-149.662 -108.872)" fill="#67923d" stroke="#24420e" stroke-width="0.017"/><path d="M176.957,137.21a1.508,1.508,0,0,1,.533-.574C177.34,137.171,177.076,137.321,176.957,137.21Z" transform="translate(-155.722 -120.24)" fill="#67923d" stroke="#24420e" stroke-width="0.017"/><path d="M165.274,161.519a2.06,2.06,0,0,0,.172-1.011C165.073,161.018,165.093,161.5,165.274,161.519Z" transform="translate(-145.33 -141.247)" fill="#406325" stroke="#24420e" stroke-width="0.017"/><path d="M166.308,167.614a2.257,2.257,0,0,1,1.1-.252C166.87,167.8,166.346,167.81,166.308,167.614Z" transform="translate(-146.351 -147.272)" fill="#67923d" stroke="#24420e" stroke-width="0.017"/><path d="M172.354,139.892a1.358,1.358,0,0,0-.638-.288C171.978,139.942,172.3,140.011,172.354,139.892Z" transform="translate(-151.11 -122.851)" fill="#406325" stroke="#24420e" stroke-width="0.017"/><path d="M162.985,163.453c.17.06.392-.353.283-.971A3.483,3.483,0,0,1,162.985,163.453Z" transform="translate(-143.427 -142.984)" fill="#406325" stroke="#24420e" stroke-width="0.017"/><path d="M156.208,174.416c-.079.153.251.429.817.424A3,3,0,0,1,156.208,174.416Z" transform="translate(-137.453 -153.486)" fill="#406325" stroke="#24420e" stroke-width="0.017"/><path d="M156.344,165.826c.142.125.518-.186.653-.828a3.524,3.524,0,0,1-.653.828Z" transform="translate(-137.583 -145.198)" fill="#406325" stroke="#24420e" stroke-width="0.017"/><path d="M169.748,157.246c-.14.008-.223-.347-.018-.785a2.605,2.605,0,0,0,.018.785Z" transform="translate(-149.254 -137.686)" fill="#67923d" stroke="#24420e" stroke-width="0.017"/><path d="M169.692,163c.068.147.476.034.812-.418A3.159,3.159,0,0,1,169.692,163Z" transform="translate(-149.329 -143.075)" fill="#406325" stroke="#24420e" stroke-width="0.017"/><path d="M177.739,144.236c.124.081.388-.2.434-.705A2.811,2.811,0,0,1,177.739,144.236Z" transform="translate(-156.41 -126.307)" fill="#406325" stroke="#24420e" stroke-width="0.017"/><path d="M174.084,159.805c.033.163.467.157.912-.206A3.231,3.231,0,0,1,174.084,159.805Z" transform="translate(-153.194 -140.447)" fill="#406325" stroke="#24420e" stroke-width="0.017"/><path d="M177.32,149.667c.092.128.445-.05.662-.538A2.811,2.811,0,0,1,177.32,149.667Z" transform="translate(-156.042 -131.234)" fill="#406325" stroke="#24420e" stroke-width="0.017"/><path d="M176.852,132.751c.159.076.415-.3.371-.9A3.248,3.248,0,0,1,176.852,132.751Z" transform="translate(-155.63 -116.026)" fill="#406325" stroke="#24420e" stroke-width="0.017"/><path d="M170.791,135.836c-.1.134-.484-.045-.717-.548A2.956,2.956,0,0,0,170.791,135.836Z" transform="translate(-149.665 -119.053)" fill="#67923d" stroke="#24420e" stroke-width="0.017"/><path d="M171.562,132.758c-.115.1-.423-.134-.54-.624A2.773,2.773,0,0,0,171.562,132.758Z" transform="translate(-150.499 -116.278)" fill="#67923d" stroke="#24420e" stroke-width="0.017"/><path d="M174.638,125.8c.133,0,.2-.339-.005-.75A2.63,2.63,0,0,1,174.638,125.8Z" transform="translate(-153.677 -110.04)" fill="#406325" stroke="#24420e" stroke-width="0.017"/><path d="M170.487,124.55c.149-.065.05-.477-.391-.824A3.065,3.065,0,0,1,170.487,124.55Z" transform="translate(-149.684 -108.879)" fill="#406325" stroke="#24420e" stroke-width="0.017"/><path d="M176.983,137.212c.119.111.38-.04.531-.575C177.221,137.015,177.038,137.206,176.983,137.212Z" transform="translate(-155.745 -120.241)" fill="#406325" stroke="#24420e" stroke-width="0.017"/><path d="M165.264,161.528c-.181-.024-.2-.5.171-1.008A3.393,3.393,0,0,0,165.264,161.528Z" transform="translate(-145.322 -141.258)" fill="#67923d" stroke="#24420e" stroke-width="0.017"/><path d="M166.328,167.686c.038.2.559.187,1.092-.251A3.72,3.72,0,0,1,166.328,167.686Z" transform="translate(-146.369 -147.343)" fill="#406325" stroke="#24420e" stroke-width="0.017"/><path d="M172.393,139.912c-.053.118-.373.05-.635-.289C172.148,139.844,172.3,139.94,172.393,139.912Z" transform="translate(-151.147 -122.868)" fill="#67923d" stroke="#24420e" stroke-width="0.017"/><path d="M177.14,141.373a1.4,1.4,0,0,1,.249-.845C177.485,141.067,177.289,141.426,177.14,141.373Z" transform="translate(-155.88 -123.665)" fill="#67923d" stroke="#24420e" stroke-width="0.017"/><path d="M177.188,141.56c.193.069.34-.371.247-.9A3.671,3.671,0,0,1,177.188,141.56Z" transform="translate(-155.925 -123.783)" fill="#406325" stroke="#24420e" stroke-width="0.017"/><path d="M176.124,154.706a1.522,1.522,0,0,0,.763-.211C176.4,154.39,176.078,154.564,176.124,154.706Z" transform="translate(-154.985 -135.927)" fill="#406325" stroke="#24420e" stroke-width="0.017"/><path d="M176.174,154.71c-.047-.141.276-.312.759-.208A2.589,2.589,0,0,0,176.174,154.71Z" transform="translate(-155.029 -135.934)" fill="#67923d" stroke="#24420e" stroke-width="0.017"/><path d="M173.91,149.792a1.484,1.484,0,0,0-.3-.672C173.591,149.57,173.792,149.849,173.91,149.792Z" transform="translate(-152.777 -131.226)" fill="#406325" stroke="#24420e" stroke-width="0.017"/><path d="M173.9,149.806c-.118.055-.317-.221-.3-.67A2.575,2.575,0,0,0,173.9,149.806Z" transform="translate(-152.77 -131.24)" fill="#67923d" stroke="#24420e" stroke-width="0.017"/><path d="M174.872,141.219a1.96,1.96,0,0,0-.334-.927C174.463,140.885,174.706,141.279,174.872,141.219Z" transform="translate(-153.581 -123.457)" fill="#406325" stroke="#24420e" stroke-width="0.017"/><path d="M174.861,141.223c-.165.061-.407-.329-.331-.921A3.361,3.361,0,0,0,174.861,141.223Z" transform="translate(-153.573 -123.466)" fill="#67923d" stroke="#24420e" stroke-width="0.017"/><path d="M173.314,143.956a1.878,1.878,0,0,0-.4-.886C172.886,143.676,173.155,144.039,173.314,143.956Z" transform="translate(-152.165 -125.902)" fill="#406325" stroke="#24420e" stroke-width="0.017"/><path d="M173.316,144.026c-.159.083-.424-.276-.393-.882A3.232,3.232,0,0,0,173.316,144.026Z" transform="translate(-152.17 -125.967)" fill="#67923d" stroke="#24420e" stroke-width="0.017"/><path d="M167.8,161.587a1.534,1.534,0,0,0,.134-.753C167.656,161.212,167.668,161.568,167.8,161.587Z" transform="translate(-147.585 -141.534)" fill="#406325" stroke="#24420e" stroke-width="0.017"/><path d="M167.8,161.592c-.135-.019-.146-.373.133-.75A2.523,2.523,0,0,0,167.8,161.592Z" transform="translate(-147.58 -141.541)" fill="#67923d" stroke="#24420e" stroke-width="0.017"/><path d="M176.1,135.606a.041.041,0,1,0,.041-.041.041.041,0,0,0-.041.041Z" transform="translate(-154.972 -119.297)" fill="#ba1f3e" stroke="#511124" stroke-linecap="round" stroke-linejoin="round" stroke-width="0.017"/><path d="M177.291,139.333a.041.041,0,1,0,.041-.041.041.041,0,0,0-.041.041Z" transform="translate(-156.016 -122.577)" fill="#ba1f3e" stroke="#511124" stroke-linecap="round" stroke-linejoin="round" stroke-width="0.017"/><path d="M177.649,150.992a.048.048,0,1,0,.1,0h0a.048.048,0,1,0-.1,0Z" transform="translate(-156.331 -132.831)" fill="#ba1f3e" stroke="#511124" stroke-linecap="round" stroke-linejoin="round" stroke-width="0.017"/><path d="M176.054,148.8a.048.048,0,1,0,.1,0h0a.048.048,0,1,0-.1,0Z" transform="translate(-154.928 -130.904)" fill="#ba1f3e" stroke="#511124" stroke-linecap="round" stroke-linejoin="round" stroke-width="0.017"/><path d="M171.446,161.266a.048.048,0,1,0,.048-.048A.048.048,0,0,0,171.446,161.266Z" transform="translate(-150.872 -141.872)" fill="#ba1f3e" stroke="#511124" stroke-linecap="round" stroke-linejoin="round" stroke-width="0.017"/><path d="M173.414,162.117a.048.048,0,1,0,.048-.048A.048.048,0,0,0,173.414,162.117Z" transform="translate(-152.604 -142.621)" fill="#ba1f3e" stroke="#511124" stroke-linecap="round" stroke-linejoin="round" stroke-width="0.017"/><path d="M160.164,172.229a.048.048,0,1,0,.048-.048A.048.048,0,0,0,160.164,172.229Z" transform="translate(-140.944 -151.519)" fill="#ba1f3e" stroke="#511124" stroke-linecap="round" stroke-linejoin="round" stroke-width="0.017"/><path d="M157.974,173.8a.048.048,0,1,0,.048-.048A.048.048,0,0,0,157.974,173.8Z" transform="translate(-139.017 -152.904)" fill="#ba1f3e" stroke="#511124" stroke-linecap="round" stroke-linejoin="round" stroke-width="0.017"/><path d="M175.518,128.53a1.645,1.645,0,0,1,.046-.817C175.763,128.173,175.663,128.542,175.518,128.53Z" transform="translate(-154.425 -112.387)" fill="#67923d" stroke="#24420e" stroke-width="0.017"/><path d="M175.8,128.54c.144.013.243-.354.045-.813A2.863,2.863,0,0,1,175.8,128.54Z" transform="translate(-154.702 -112.4)" fill="#406325" stroke="#24420e" stroke-width="0.017"/><path d="M157.623,166.038a2.148,2.148,0,0,1,.705-.822C158.166,165.869,157.763,166.173,157.623,166.038Z" transform="translate(-138.708 -145.39)" fill="#67923d" stroke="#24420e" stroke-width="0.017"/><path d="M157.656,166.035c.142.136.539-.166.7-.819a3.631,3.631,0,0,1-.7.819Z" transform="translate(-138.737 -145.39)" fill="#406325" stroke="#24420e" stroke-width="0.017"/><path d="M173.7,151.857a1.664,1.664,0,0,0,.109-.861C173.5,151.439,173.538,151.843,173.7,151.857Z" transform="translate(-152.748 -132.876)" fill="#406325" stroke="#24420e" stroke-width="0.017"/><path d="M174.664,154.711a1.69,1.69,0,0,1,.637-.594C175.115,154.628,174.766,154.835,174.664,154.711Z" transform="translate(-153.704 -135.623)" fill="#67923d" stroke="#24420e" stroke-width="0.017"/><path d="M173.721,151.839c-.162-.014-.2-.414.11-.857A2.726,2.726,0,0,0,173.721,151.839Z" transform="translate(-152.766 -132.864)" fill="#67923d" stroke="#24420e" stroke-width="0.017"/><path d="M174.733,154.72c.1.124.447-.081.633-.594A2.9,2.9,0,0,1,174.733,154.72Z" transform="translate(-153.765 -135.631)" fill="#406325" stroke="#24420e" stroke-width="0.017"/><path d="M159.71,173.479a1.79,1.79,0,0,0,.828.409C160.208,173.429,159.786,173.323,159.71,173.479Z" transform="translate(-140.545 -152.602)" fill="#406325" stroke="#24420e" stroke-width="0.017"/><path d="M159.747,173.461c.076-.155.493-.052.824.408A2.993,2.993,0,0,0,159.747,173.461Z" transform="translate(-140.577 -152.587)" fill="#67923d" stroke="#24420e" stroke-width="0.017"/><line x1="0.081" y1="0.027" transform="translate(20.908 16.115)" fill="none" stroke="#24420e" stroke-width="0.017"/><path d="M173.74,133.842a.041.041,0,1,0,.041-.041.041.041,0,0,0-.041.041Z" transform="translate(-152.891 -117.745)" fill="#ba1f3e" stroke="#511124" stroke-linecap="round" stroke-linejoin="round" stroke-width="0.017"/><path d="M135.7,161.14a.07.07,0,0,0,.08.078c.014,0,.023-.022,0-.018a.05.05,0,0,1-.045-.014.063.063,0,0,1-.015-.072l-.025.027Z" transform="translate(-119.416 -141.779)" fill="#8c959d" stroke="#485654" stroke-width="0.017"/><path d="M135.258,160.615c-.038.044-.1.063-.129.031a.061.061,0,0,1-.018-.072l-.042.046a.165.165,0,0,0,.064.066.142.142,0,0,0,.151-.059c.028-.034.059-.091.036-.135a.15.15,0,0,0-.074-.064l-.039.041a.06.06,0,0,1,.064.012c.048.039.02.094-.014.133h0Z" transform="translate(-118.862 -141.178)" fill="#8c959d"/><path d="M135.229,160.588a.153.153,0,0,1-.044.036.092.092,0,0,1-.055.012.055.055,0,0,1-.027-.011.085.085,0,0,1-.019-.022.061.061,0,0,1-.009-.028.06.06,0,0,1,.005-.029l0,0-.042.046v0a.188.188,0,0,0,.039.049.1.1,0,0,0,.026.016.074.074,0,0,0,.03,0,.13.13,0,0,0,.059-.018.191.191,0,0,0,.049-.039.232.232,0,0,0,.035-.052.123.123,0,0,0,.014-.06.071.071,0,0,0-.008-.029.112.112,0,0,0-.019-.024.157.157,0,0,0-.051-.035h0l-.039.041,0,0a.054.054,0,0,1,.028,0,.068.068,0,0,1,.027.009.074.074,0,0,1,.035.043.08.08,0,0,1-.008.054.192.192,0,0,1-.031.045h0Zm0,0h0a.2.2,0,0,0,.03-.046.078.078,0,0,0,.006-.053.07.07,0,0,0-.034-.04.054.054,0,0,0-.051,0l0,0,.038-.042v0h0a.155.155,0,0,1,.054.036.127.127,0,0,1,.02.026.077.077,0,0,1,.009.032.13.13,0,0,1-.015.064.238.238,0,0,1-.036.054.2.2,0,0,1-.051.041.139.139,0,0,1-.063.018.081.081,0,0,1-.033-.006.1.1,0,0,1-.028-.018.189.189,0,0,1-.04-.051v0l0,0,.042-.046,0,0a.057.057,0,0,0-.005.026.056.056,0,0,0,.008.026.085.085,0,0,0,.018.021.053.053,0,0,0,.025.011.089.089,0,0,0,.054-.01A.156.156,0,0,0,135.229,160.588Z" transform="translate(-118.833 -141.15)" fill="#485654"/><path d="M130.005,134.14l-1.505,1.482c-.114.114-1.424,1.364-1.541,1.477-.041.05-.159.182-.171.2-.08.087-.166.2-.27.3-.018.023-.043.015-.065.028a.881.881,0,0,0-.189.164l-.458.507c-.03.032-.037.052-.017.07l.248.332c.046.045.1.069.12.031.118-.2.411-.516.522-.762a3.374,3.374,0,0,1,.208-.479c.073-.081.269-.29.443-.476l.035-.037.036-.038c.881-.9,1.9-1.989,2.645-2.758l-.039-.039Z" transform="translate(-110.684 -118.043)" fill="#6c301e" stroke="#351710" stroke-linejoin="round" stroke-width="0.017"/><path d="M134.183,158.4a.156.156,0,0,1-.107-.053.2.2,0,0,0,.129.013Z" transform="translate(-117.987 -139.344)" fill="#8c959d" stroke="#485654" stroke-width="0.017"/><path d="M138.688,125.032l-1.193.983c-.012.014-.023.01-.035,0l-.109-.091s0,0,0,0a.055.055,0,0,0,0-.017l.053-.054c.007-.008,0-.012,0-.02l-.022-.023c-.009-.007-.015,0-.024.007l-.054.055a.053.053,0,0,0-.051.051c-.721.7-1.342,1.329-2.06,2.02l-.846.808a1.717,1.717,0,0,1-.247.165.213.213,0,0,0-.068.058l-.069.2c-.022.045-.091.15-.094.157.089.09.084.083.145.14.068-.076.251-.267.417-.444.013-.014.014-.016.031-.036a.5.5,0,0,0-.052-.062l-.045-.041-.024-.021c-.006-.006.009-.017.016-.024.992-.959,2.061-2.014,2.935-2.872l.015,0a.052.052,0,0,0,.024-.006l.1.12a.052.052,0,0,0,.065.015l1.195-1.07Z" transform="translate(-117.799 -110.028)" fill="#b2b6ba" stroke="#485654" stroke-width="0.017"/><path d="M134.673,158.032h.023a.056.056,0,0,0,.021-.006h0c.009-.03.018-.06.027-.089s.019-.059.028-.089h0a.055.055,0,0,0-.027-.019.057.057,0,0,1,.029.017h0l-.027.089c-.009.03-.018.059-.028.089h0a.051.051,0,0,1-.023.005A.1.1,0,0,1,134.673,158.032Z" transform="translate(-118.512 -138.892)" fill="#485654"/><path d="M136.783,158.622a.023.023,0,1,1-.023-.023A.023.023,0,0,1,136.783,158.622Z" transform="translate(-120.329 -139.567)" fill="none" stroke="#485654" stroke-linecap="round" stroke-linejoin="round" stroke-width="0.017"/><path d="M135.614,159.791a.023.023,0,1,1-.023-.023A.023.023,0,0,1,135.614,159.791Z" transform="translate(-119.3 -140.596)" fill="none" stroke="#485654" stroke-linecap="round" stroke-linejoin="round" stroke-width="0.017"/><path d="M137.324,156.544c-.012-.009-.023-.019-.034-.029a.41.41,0,0,1-.031-.032.439.439,0,0,1,.034.029A.412.412,0,0,1,137.324,156.544Z" transform="translate(-120.788 -137.705)" fill="#485654"/><path d="M157.06,137.171l.024-.022-.131-.128-.024.022h0Z" transform="translate(-138.097 -120.579)" fill="#8c959d" stroke="#485654" stroke-width="0.017"/><path d="M162.8,161.64a.07.07,0,0,1-.084.074c-.014,0-.022-.023,0-.019a.047.047,0,0,0,.045-.012.066.066,0,0,0,.019-.071.185.185,0,0,0,.023.028Z" transform="translate(-143.181 -142.219)" fill="#8c959d" stroke="#485654" stroke-width="0.017"/><path d="M162.061,161.084c.036.045.093.068.127.038a.06.06,0,0,0,.021-.071l.039.048a.168.168,0,0,1-.068.062.143.143,0,0,1-.148-.066c-.026-.035-.054-.093-.029-.137a.151.151,0,0,1,.077-.06l.036.043a.059.059,0,0,0-.064.009c-.05.037-.024.093.008.134Z" transform="translate(-142.554 -141.59)" fill="#8c959d"/><path d="M162.033,161.057a.156.156,0,0,0,.043.036.089.089,0,0,0,.054.013.052.052,0,0,0,.025-.01.085.085,0,0,0,.019-.02.056.056,0,0,0,.009-.025.061.061,0,0,0,0-.027l0,0,.04.048,0,0v0a.2.2,0,0,1-.043.049.1.1,0,0,1-.029.016.082.082,0,0,1-.033,0,.14.14,0,0,1-.062-.022.2.2,0,0,1-.049-.043.244.244,0,0,1-.033-.056.127.127,0,0,1-.011-.064.075.075,0,0,1,.011-.031A.124.124,0,0,1,162,160.9a.15.15,0,0,1,.056-.033h0v0l.036.044,0,0a.054.054,0,0,0-.051,0,.072.072,0,0,0-.036.038.077.077,0,0,0,0,.053A.206.206,0,0,0,162.033,161.057Zm0,0a.2.2,0,0,1-.029-.047.08.08,0,0,1-.005-.055.065.065,0,0,1,.014-.024.094.094,0,0,1,.022-.017.059.059,0,0,1,.055,0l0,0-.036-.043h0a.15.15,0,0,0-.053.032.114.114,0,0,0-.02.024.066.066,0,0,0-.01.028.12.12,0,0,0,.011.06.236.236,0,0,0,.033.054.194.194,0,0,0,.047.042.13.13,0,0,0,.058.021.073.073,0,0,0,.03,0,.093.093,0,0,0,.027-.015.2.2,0,0,0,.042-.047v0l-.039-.048,0,0a.063.063,0,0,1,0,.029.058.058,0,0,1-.01.027.088.088,0,0,1-.02.021.056.056,0,0,1-.027.01.092.092,0,0,1-.055-.015A.153.153,0,0,1,162.033,161.057Z" transform="translate(-142.527 -141.563)" fill="#485654"/><path d="M139.224,133.465l1.431,1.553c.109.119,1.355,1.433,1.467,1.551.039.051.149.19.161.209.075.09.156.208.255.314.017.024.042.017.064.03a.851.851,0,0,1,.181.173l.432.529c.028.033.035.053.014.071l-.264.32c-.048.044-.1.064-.121.025-.108-.21-.385-.535-.484-.787a3.435,3.435,0,0,0-.185-.489c-.069-.084-.254-.3-.419-.5l-.033-.039-.034-.04c-.837-.94-1.8-2.08-2.507-2.885.031-.028.011-.011.041-.037Z" transform="translate(-122.481 -117.449)" fill="#6c301e" stroke="#351710" stroke-linejoin="round" stroke-width="0.017"/><path d="M164.235,158.993a.159.159,0,0,0,.109-.047.2.2,0,0,1-.129.007Z" transform="translate(-144.509 -139.872)" fill="#8c959d" stroke="#485654" stroke-width="0.017"/><path d="M126.97,123.716l1.143,1.041c.01.015.022.011.035,0l.112-.085v0a.048.048,0,0,1,0-.017l-.051-.057c-.006-.009,0-.012.005-.021l.023-.022c.009-.006.015,0,.024.008l.051.058a.053.053,0,0,1,.048.054c.686.737,1.276,1.393,1.959,2.118l.806.849a1.672,1.672,0,0,0,.239.177.206.206,0,0,1,.065.061l.059.207c.02.046.083.154.086.162-.093.085-.088.079-.152.132-.064-.079-.238-.279-.4-.465l-.03-.038a.555.555,0,0,1,.055-.06l.047-.038.025-.02c.007-.005-.008-.017-.015-.025-.944-1.007-1.96-2.112-2.791-3.012h-.015a.059.059,0,0,1-.024-.007l-.111.115a.054.054,0,0,1-.066.012l-1.136-1.128Z" transform="translate(-111.734 -108.87)" fill="#b2b6ba" stroke="#485654" stroke-width="0.017"/><path d="M163.966,158.572h-.023a.056.056,0,0,1-.022-.006h0c-.008-.03-.016-.06-.024-.09s-.015-.06-.022-.09h0l.014-.01a.037.037,0,0,1,.016-.005.054.054,0,0,0-.029.017h0q.012.045.024.09c.008.03.015.06.022.09h0a.06.06,0,0,0,.021.007A.112.112,0,0,0,163.966,158.572Z" transform="translate(-144.21 -139.365)" fill="#485654"/><path d="M162.236,159.078a.023.023,0,1,0,.046,0,.023.023,0,1,0-.046,0Z" transform="translate(-142.767 -139.969)" fill="none" stroke="#485654" stroke-linecap="round" stroke-linejoin="round" stroke-width="0.017"/><path d="M163.342,160.309a.023.023,0,1,0,.024-.022A.023.023,0,0,0,163.342,160.309Z" transform="translate(-143.741 -141.052)" fill="none" stroke="#485654" stroke-linecap="round" stroke-linejoin="round" stroke-width="0.017"/><path d="M161.632,156.984a.413.413,0,0,1,.033-.031.438.438,0,0,1,.036-.027.411.411,0,0,1-.033.03C161.656,156.966,161.644,156.975,161.632,156.984Z" transform="translate(-142.236 -138.095)" fill="#485654"/><path d="M142.322,136.544h0l-.136.121-.024-.023.137-.121Z" transform="translate(-125.102 -120.139)" fill="#8c959d" stroke="#485654" stroke-width="0.017"/><path d="M127.56,169.987a2.093,2.093,0,0,0-1.1.035C127.075,170.322,127.572,170.193,127.56,169.987Z" transform="translate(-111.288 -149.536)" fill="#67923d" stroke="#24420e" stroke-width="0.017"/><path d="M127.554,170.461c.012.207-.48.333-1.09.034A3.5,3.5,0,0,0,127.554,170.461Z" transform="translate(-111.288 -150.006)" fill="#406325" stroke="#24420e" stroke-width="0.017"/><path d="M163.415,171.025a2.093,2.093,0,0,1,1.1.035C163.9,171.359,163.4,171.231,163.415,171.025Z" transform="translate(-143.805 -150.449)" fill="#67923d" stroke="#24420e" stroke-width="0.017"/><path d="M163.46,171.49c-.012.207.48.333,1.09.034A3.462,3.462,0,0,1,163.46,171.49Z" transform="translate(-143.845 -150.911)" fill="#406325" stroke="#24420e" stroke-width="0.017"/><path d="M137.975,150.047a8.906,8.906,0,0,0-2.854-2.55,1.438,1.438,0,0,1,.55.223,12.244,12.244,0,0,1,2.462,2.243,1.313,1.313,0,0,1-.129.114Z" transform="translate(-118.906 -129.798)" fill="#b2b6ba" stroke="#485654" stroke-width="0.017"/><path d="M138.065,150.044l-.054.052a10.458,10.458,0,0,0-2.875-2.592,9.647,9.647,0,0,1,2.926,2.537Z" transform="translate(-118.92 -129.804)" fill="#8c959d"/><path d="M138.051,150.017l-.054.052h0c-.2-.256-.412-.5-.632-.74s-.45-.468-.689-.688-.485-.431-.743-.628c-.129-.1-.26-.194-.4-.284a4.5,4.5,0,0,0-.417-.249l0-.007a5.056,5.056,0,0,1,.839.5,7.89,7.89,0,0,1,.751.624c.238.222.466.455.687.694S137.837,149.772,138.051,150.017Zm0,0c-.215-.244-.431-.488-.653-.726s-.45-.471-.688-.692a7.9,7.9,0,0,0-.751-.622,5.051,5.051,0,0,0-.839-.5l0-.007a4.508,4.508,0,0,1,.418.25c.135.09.267.186.4.284.257.2.5.409.742.63s.468.451.688.689.431.486.63.742h0Z" transform="translate(-118.906 -129.776)" fill="#485654"/><path d="M158.437,167.208a.687.687,0,0,0-.2.084.185.185,0,0,1-.135.124l-.022-.029a0,0,0,0,0-.006,0l-.021.013a.057.057,0,0,0-.062.037c-.014.036.014.084.046.116s.052.04.092.034a.128.128,0,0,0,.072-.057,2.382,2.382,0,0,0,.421.4c.079,0,.121-.049.095-.105a.043.043,0,0,0-.05-.024.039.039,0,0,0,0-.017c.092-.085.132-.191.034-.37-.083-.151-.177-.2-.266-.2Zm.234.17c.016.028.026.052.038.077a.215.215,0,0,1-.087.289s0,0-.008,0c.015-.026-.031-.081-.055-.061.011-.028-.025-.076-.055-.064.016-.026-.02-.071-.053-.057a.044.044,0,0,0-.047-.063.046.046,0,0,0-.051-.06.058.058,0,0,0-.019-.054,1.3,1.3,0,0,1,.129-.1c.1-.044.165.04.207.094Z" transform="translate(-139.031 -147.143)" fill="#fab81c" stroke="#6c301e" stroke-width="0.017"/><path d="M163.853,169.223c-.019-.01-.028-.029-.022-.042s.026-.016.046-.007.03.028.024.041a.036.036,0,0,1-.047.007Z" transform="translate(-144.17 -148.869)" fill="#fab81c" stroke="#6c301e" stroke-width="0.017"/><path d="M159.773,168.829a.231.231,0,0,1,.132-.143" transform="translate(-140.6 -148.444)" fill="#fab81c"/><path d="M159.773,168.829a.249.249,0,0,1,.02-.046.271.271,0,0,1,.029-.041.208.208,0,0,1,.037-.034.126.126,0,0,1,.045-.021.149.149,0,0,0-.044.024.225.225,0,0,0-.036.034A.342.342,0,0,0,159.773,168.829Z" transform="translate(-140.6 -148.444)" fill="#6c301e"/><path d="M160.217,169.744c.062.014.123-.046.147-.09" transform="translate(-140.991 -149.296)" fill="#fab81c"/><path d="M160.217,169.744a.1.1,0,0,0,.045,0,.144.144,0,0,0,.04-.021.215.215,0,0,0,.034-.03.243.243,0,0,0,.028-.036.174.174,0,0,1-.026.039.2.2,0,0,1-.034.031.136.136,0,0,1-.042.02A.085.085,0,0,1,160.217,169.744Z" transform="translate(-140.991 -149.296)" fill="#6c301e"/><path d="M160.681,170.245a.156.156,0,0,0,.14-.09" transform="translate(-141.399 -149.736)" fill="#fab81c"/><path d="M160.681,170.245a.161.161,0,0,0,.043-.007.145.145,0,0,0,.039-.019.175.175,0,0,0,.032-.029.249.249,0,0,0,.026-.035.171.171,0,0,1-.056.067.131.131,0,0,1-.04.019A.127.127,0,0,1,160.681,170.245Z" transform="translate(-141.399 -149.736)" fill="#6c301e"/><path d="M161.155,170.71a.165.165,0,0,0,.137-.091" transform="translate(-141.816 -150.145)" fill="#fab81c"/><path d="M161.155,170.71a.154.154,0,0,0,.079-.029.2.2,0,0,0,.032-.028.158.158,0,0,0,.025-.035.128.128,0,0,1-.023.037.181.181,0,0,1-.032.029.159.159,0,0,1-.039.019A.115.115,0,0,1,161.155,170.71Z" transform="translate(-141.816 -150.145)" fill="#6c301e"/><path d="M161.611,171.244a.147.147,0,0,0,.136-.078" transform="translate(-142.218 -150.626)" fill="#fab81c"/><path d="M161.611,171.244a.268.268,0,0,0,.04-.007.169.169,0,0,0,.038-.015.137.137,0,0,0,.033-.024.133.133,0,0,0,.024-.033.109.109,0,0,1-.022.035.133.133,0,0,1-.033.025A.168.168,0,0,1,161.611,171.244Z" transform="translate(-142.218 -150.626)" fill="#6c301e"/><path d="M162.123,171.748a.136.136,0,0,0,.129-.07" transform="translate(-142.668 -151.077)" fill="#fab81c"/><path d="M162.123,171.747a.179.179,0,0,0,.038,0,.16.16,0,0,0,.036-.013.145.145,0,0,0,.031-.022.114.114,0,0,0,.024-.03.094.094,0,0,1-.022.032.133.133,0,0,1-.032.023.139.139,0,0,1-.037.013A.128.128,0,0,1,162.123,171.747Z" transform="translate(-142.668 -151.076)" fill="#6c301e"/><path d="M159.845,169.24a.163.163,0,0,0,.143-.1" transform="translate(-140.664 -148.846)" fill="#fab81c"/><path d="M159.845,169.24a.086.086,0,0,0,.044-.007.18.18,0,0,0,.039-.022.218.218,0,0,0,.034-.03.148.148,0,0,0,.025-.038.118.118,0,0,1-.023.04.2.2,0,0,1-.034.031.177.177,0,0,1-.041.022A.079.079,0,0,1,159.845,169.24Z" transform="translate(-140.664 -148.846)" fill="#6c301e"/><path d="M162.679,172.191a.119.119,0,0,0,.118-.071" transform="translate(-143.158 -151.466)" fill="#fab81c"/><path d="M162.679,172.191a.143.143,0,0,0,.036,0,.12.12,0,0,0,.033-.014.127.127,0,0,0,.028-.023.149.149,0,0,0,.021-.03.114.114,0,0,1-.046.056.109.109,0,0,1-.034.014A.114.114,0,0,1,162.679,172.191Z" transform="translate(-143.158 -151.466)" fill="#6c301e"/><path d="M163.757,168.9c-.019-.01-.028-.029-.022-.041s.026-.016.046-.007.03.028.024.041a.036.036,0,0,1-.047.007Z" transform="translate(-144.085 -148.587)" fill="#fab81c" stroke="#6c301e" stroke-width="0.017"/><path d="M163.563,168.549a.034.034,0,0,1-.022-.041c.006-.013.026-.016.046-.007s.03.028.024.041a.036.036,0,0,1-.047.007Z" transform="translate(-143.915 -148.276)" fill="#fab81c" stroke="#6c301e" stroke-width="0.017"/><path d="M163.32,168.231a.034.034,0,0,1-.022-.042c.006-.013.026-.016.046-.007s.03.028.024.041a.036.036,0,0,1-.047.007Z" transform="translate(-143.701 -147.996)" fill="#fab81c" stroke="#6c301e" stroke-width="0.017"/><path d="M163,167.894a.034.034,0,0,1-.022-.041s0-.005,0,0,.024.007.022-.005-.005-.009,0-.005a.079.079,0,0,1,.024.008c.019.01.03.028.024.041a.036.036,0,0,1-.047.007Z" transform="translate(-143.419 -147.696)" fill="#fab81c" stroke="#6c301e" stroke-width="0.017"/><path d="M127.674,126.329a1.967,1.967,0,0,0,.73-.672C127.82,125.813,127.551,126.195,127.674,126.329Z" transform="translate(-112.328 -110.578)" fill="#406325" stroke="#24420e" stroke-width="0.017"/><path d="M127.668,126.355c-.125-.134.142-.513.725-.668a3.213,3.213,0,0,0-.725.668Z" transform="translate(-112.321 -110.605)" fill="#67923d" stroke="#24420e" stroke-width="0.017"/><path d="M169.149,127.249a1.878,1.878,0,0,0-.584-.747C168.669,127.071,169.012,127.355,169.149,127.249Z" transform="translate(-148.337 -111.322)" fill="#406325" stroke="#24420e" stroke-width="0.017"/><path d="M169.171,127.287c-.137.108-.477-.174-.581-.741A3.077,3.077,0,0,0,169.171,127.287Z" transform="translate(-148.359 -111.36)" fill="#67923d" stroke="#24420e" stroke-width="0.017"/><path d="M137.061,170.531l.034.065" transform="translate(-120.614 -150.067)" fill="none" stroke="#000" stroke-width="0.017"/><path d="M139.531,150.522a8.9,8.9,0,0,1,3-2.375,1.438,1.438,0,0,0-.562.19,12.24,12.24,0,0,0-2.592,2.093,1.316,1.316,0,0,0,.122.122Z" transform="translate(-122.653 -130.368)" fill="#b2b6ba" stroke="#485654" stroke-width="0.017"/><path d="M140.017,150.519l.051.055a10.458,10.458,0,0,1,3.024-2.416,9.647,9.647,0,0,0-3.072,2.358Z" transform="translate(-123.215 -130.379)" fill="#8c959d"/><path d="M140.017,150.491l.051.055h0c.214-.244.439-.479.673-.7s.477-.441.728-.647.51-.4.779-.585c.134-.091.271-.178.412-.26a4.519,4.519,0,0,1,.432-.225l0,.008a5.043,5.043,0,0,0-.867.445,7.875,7.875,0,0,0-.787.576c-.251.207-.492.426-.728.65S140.246,150.26,140.017,150.491Zm0,0c.228-.232.457-.463.693-.688s.476-.444.727-.651a7.9,7.9,0,0,1,.787-.578,5.043,5.043,0,0,1,.867-.447l0,.007a4.506,4.506,0,0,0-.432.224c-.14.082-.277.169-.411.26-.269.182-.528.378-.779.583s-.494.421-.729.645-.461.457-.675.7h0Z" transform="translate(-123.215 -130.351)" fill="#485654"/><path d="M135.83,166.492a.057.057,0,0,0-.06-.04l-.021-.014a0,0,0,0,0-.006,0l-.024.027a.185.185,0,0,1-.127-.132.689.689,0,0,0-.192-.1h0c-.089-.006-.185.04-.277.186-.108.173-.075.281.012.372a.04.04,0,0,0,0,.017.043.043,0,0,0-.051.021c-.03.054.01.106.088.111a2.386,2.386,0,0,0,.444-.373.127.127,0,0,0,.069.062c.04.008.058,0,.094-.029S135.842,166.529,135.83,166.492Zm-.361-.016a.046.046,0,0,0-.054.057.044.044,0,0,0-.05.06c-.032-.017-.07.026-.057.054-.029-.014-.068.031-.058.06-.023-.021-.072.032-.058.058,0,0,0,0-.008,0a.215.215,0,0,1-.07-.294c.014-.024.025-.048.043-.075h0c.045-.052.113-.132.213-.082a1.263,1.263,0,0,1,.123.11A.058.058,0,0,0,135.469,166.476Z" transform="translate(-118.848 -146.29)" fill="#fab81c" stroke="#6c301e" stroke-width="0.017"/><path d="M138.821,167.92a.231.231,0,0,0-.123-.15" transform="translate(-122.054 -147.638)" fill="#fab81c"/><path d="M138.821,167.92a.346.346,0,0,0-.047-.088.226.226,0,0,0-.034-.036.147.147,0,0,0-.042-.026.127.127,0,0,1,.044.024.208.208,0,0,1,.035.036.278.278,0,0,1,.026.043A.255.255,0,0,1,138.821,167.92Z" transform="translate(-122.054 -147.638)" fill="#6c301e"/><path d="M138.206,168.8c-.063.011-.12-.053-.142-.1" transform="translate(-121.496 -148.457)" fill="#fab81c"/><path d="M138.206,168.8a.085.085,0,0,1-.046,0,.138.138,0,0,1-.041-.023.194.194,0,0,1-.032-.033.172.172,0,0,1-.023-.04.236.236,0,0,0,.026.038.21.21,0,0,0,.032.032.141.141,0,0,0,.039.023A.094.094,0,0,0,138.206,168.8Z" transform="translate(-121.496 -148.457)" fill="#6c301e"/><path d="M137.766,169.275a.156.156,0,0,1-.135-.1" transform="translate(-121.115 -148.876)" fill="#fab81c"/><path d="M137.767,169.275a.126.126,0,0,1-.044-.006.137.137,0,0,1-.039-.021.169.169,0,0,1-.052-.07.245.245,0,0,0,.024.037.171.171,0,0,0,.031.03.147.147,0,0,0,.038.021A.156.156,0,0,0,137.767,169.275Z" transform="translate(-121.116 -148.876)" fill="#6c301e"/><path d="M137.291,169.713a.165.165,0,0,1-.131-.1" transform="translate(-120.701 -149.26)" fill="#fab81c"/><path d="M137.291,169.713a.115.115,0,0,1-.042-.008.159.159,0,0,1-.038-.022.182.182,0,0,1-.031-.031.124.124,0,0,1-.021-.038.155.155,0,0,0,.023.036.193.193,0,0,0,.031.03A.153.153,0,0,0,137.291,169.713Z" transform="translate(-120.701 -149.26)" fill="#6c301e"/><path d="M136.811,170.219a.147.147,0,0,1-.131-.086" transform="translate(-120.278 -149.717)" fill="#fab81c"/><path d="M136.811,170.219a.168.168,0,0,1-.079-.023.131.131,0,0,1-.032-.027.109.109,0,0,1-.02-.036.133.133,0,0,0,.022.034.139.139,0,0,0,.031.025.172.172,0,0,0,.037.017A.264.264,0,0,0,136.811,170.219Z" transform="translate(-120.278 -149.717)" fill="#6c301e"/><path d="M136.318,170.694a.136.136,0,0,1-.125-.077" transform="translate(-119.85 -150.143)" fill="#fab81c"/><path d="M136.318,170.694a.128.128,0,0,1-.039,0,.137.137,0,0,1-.036-.015.132.132,0,0,1-.03-.025.1.1,0,0,1-.02-.033.117.117,0,0,0,.022.031.146.146,0,0,0,.03.024.155.155,0,0,0,.035.016A.174.174,0,0,0,136.318,170.694Z" transform="translate(-119.85 -150.143)" fill="#6c301e"/><path d="M138.643,168.321a.163.163,0,0,1-.137-.105" transform="translate(-121.885 -148.03)" fill="#fab81c"/><path d="M138.643,168.32a.079.079,0,0,1-.045-.007.171.171,0,0,1-.039-.024.2.2,0,0,1-.032-.033.118.118,0,0,1-.021-.041.139.139,0,0,0,.023.039.211.211,0,0,0,.032.032.181.181,0,0,0,.038.024A.087.087,0,0,0,138.643,168.32Z" transform="translate(-121.885 -148.029)" fill="#6c301e"/><path d="M135.821,171.109a.119.119,0,0,1-.113-.078" transform="translate(-119.423 -150.507)" fill="#fab81c"/><path d="M135.821,171.109a.11.11,0,0,1-.07-.019.114.114,0,0,1-.043-.059.148.148,0,0,0,.019.031.121.121,0,0,0,.026.024.114.114,0,0,0,.032.016A.15.15,0,0,0,135.821,171.109Z" transform="translate(-119.423 -150.507)" fill="#6c301e"/><path d="M135.133,168.116c.02-.008.03-.027.024-.04s-.025-.018-.045-.009-.032.026-.026.039a.036.036,0,0,0,.047.01Z" transform="translate(-118.874 -147.894)" fill="#fab81c" stroke="#6c301e" stroke-width="0.017"/><path d="M135.248,167.8c.02-.008.03-.027.024-.04s-.025-.018-.045-.009-.032.026-.026.039a.036.036,0,0,0,.047.01Z" transform="translate(-118.976 -147.618)" fill="#fab81c" stroke="#6c301e" stroke-width="0.017"/><path d="M135.463,167.461c.02-.008.03-.027.024-.04s-.025-.018-.045-.009-.032.026-.026.039a.036.036,0,0,0,.047.01Z" transform="translate(-119.165 -147.318)" fill="#fab81c" stroke="#6c301e" stroke-width="0.017"/><path d="M135.725,167.157c.02-.008.03-.027.024-.04s-.025-.018-.045-.009-.032.026-.026.039a.036.036,0,0,0,.047.01Z" transform="translate(-119.395 -147.051)" fill="#fab81c" stroke="#6c301e" stroke-width="0.017"/><path d="M136.062,166.842c.02-.008.03-.027.024-.04s0-.005,0,0-.025.006-.022-.006.006-.008,0-.005a.082.082,0,0,0-.024.007c-.02.008-.032.026-.026.039a.036.036,0,0,0,.047.01Z" transform="translate(-119.692 -146.771)" fill="#fab81c" stroke="#6c301e" stroke-width="0.017"/><path d="M139.813,136.1" transform="translate(-123.035 -119.772)" fill="#f9f0aa" stroke="#726d51" stroke-width="0.017"/><path d="M139.063,150.487s-.231.025-.3-.294c-.069-.341.2-.377.2-.377s.3-.029.493-.034l.084.673Z" transform="translate(-122.105 -131.808)" fill="#f9f0aa" stroke="#999270" stroke-width="0.017"/><path d="M140.724,150.029" transform="translate(-123.837 -132.026)" fill="#f9f0aa" stroke="#726d51" stroke-width="0.017"/><path d="M139.063,150.487s-.231.025-.3-.294c-.069-.341.2-.377.2-.377s.3-.029.493-.034l.084.673Z" transform="translate(-122.105 -131.808)" stroke="#999270" stroke-width="0.017" fill="url(#b)"/><path d="M140.224,151.869s-.149.029-.18-.208c-.022-.168.082-.192.082-.192l.346.059,0,.309Z" transform="translate(-123.236 -133.293)" fill="#f9f0aa" stroke="#999270" stroke-width="0.017"/><path d="M140.224,151.869s-.149.029-.18-.208c-.022-.168.082-.192.082-.192l.346.059,0,.309Z" transform="translate(-123.236 -133.293)" stroke="#999270" stroke-width="0.017" fill="url(#c)"/><path d="M140.749,151.241s.221-.016.337-.031l.048.214-.266.017S140.85,151.247,140.749,151.241Z" transform="translate(-123.859 -133.065)" fill="#f9f0aa" stroke="#999270" stroke-width="0.017"/><path d="M140.749,151.241s.221-.016.337-.031l.048.214-.266.017S140.85,151.247,140.749,151.241Z" transform="translate(-123.859 -133.065)" stroke="#999270" stroke-width="0.017" fill="url(#d)"/><path d="M140.362,149.711a.253.253,0,0,1,.319.243.329.329,0,0,1-.175.319l.52-.055-.047-.563-.175.015A3.11,3.11,0,0,0,140.362,149.711Z" transform="translate(-123.519 -131.697)" fill="#f9f0aa" stroke="#999270" stroke-width="0.017"/><path d="M140.362,149.711a.253.253,0,0,1,.319.243.329.329,0,0,1-.175.319l.52-.055-.047-.563-.175.015A3.11,3.11,0,0,0,140.362,149.711Z" transform="translate(-123.519 -131.697)" stroke="#999270" stroke-width="0.017" fill="url(#e)"/><path d="M138.039,134.237s1.946-.131,2.146-.123c.59-.324,0-1.6-.5-2.307.057-.16-1.12-.521-1.652-.488l-.193.013c-.289.031-.292.4-.174.635s1.137,2.067.418,2.262Z" transform="translate(-121.082 -115.559)" fill="#f9f0aa" stroke="#999270" stroke-width="0.017"/><path d="M140.124,132.559a5.566,5.566,0,0,0-.439-.752c.057-.16-1.12-.521-1.652-.488l-.193.013c-.289.031-.292.4-.174.635.036.071.161.3.294.59" transform="translate(-121.082 -115.559)" fill="url(#f)"/><path d="M140.109,132.539q-.1-.2-.206-.384c-.074-.125-.152-.248-.235-.367h0a.037.037,0,0,0,0-.025.079.079,0,0,0-.013-.022.218.218,0,0,0-.039-.036.674.674,0,0,0-.09-.055,1.9,1.9,0,0,0-.194-.085,4.178,4.178,0,0,0-.4-.129c-.137-.036-.275-.068-.414-.092-.07-.012-.14-.023-.21-.03a2.017,2.017,0,0,0-.212-.013c-.035,0-.071,0-.106,0l-.106.007-.053,0a.315.315,0,0,0-.052.01.244.244,0,0,0-.093.048.258.258,0,0,0-.063.083.372.372,0,0,0-.031.1.6.6,0,0,0,.005.21.7.7,0,0,0,.07.2c.033.063.066.126.1.189.064.126.126.254.185.382-.06-.128-.122-.255-.187-.381l-.1-.188a.7.7,0,0,1-.071-.2.6.6,0,0,1-.006-.212.379.379,0,0,1,.032-.1.262.262,0,0,1,.064-.085.245.245,0,0,1,.094-.05.3.3,0,0,1,.053-.01l.053,0,.106-.007c.035,0,.071,0,.106,0a2.053,2.053,0,0,1,.212.013c.07.008.141.018.21.03.14.024.278.056.415.093a4.156,4.156,0,0,1,.4.13,1.893,1.893,0,0,1,.194.086.667.667,0,0,1,.091.056.222.222,0,0,1,.039.036.084.084,0,0,1,.014.023.04.04,0,0,1,0,.027v0q.124.179.234.368T140.109,132.539Z" transform="translate(-121.067 -115.539)" fill="#999270"/><path d="M141.427,145.278c.208.549.325,1.129-.062,1.234l-.044.009s1.946-.131,2.146-.123c.32-.176.292-.63.12-1.123" transform="translate(-124.362 -127.842)" fill="url(#g)"/><path d="M141.423,145.278c.042.111.081.222.114.336a2.164,2.164,0,0,1,.073.347,1.092,1.092,0,0,1,.007.177.578.578,0,0,1-.033.174.322.322,0,0,1-.1.144.317.317,0,0,1-.077.044l-.042.014-.044.009v0l.536-.036.536-.034.536-.031.268-.014.134-.006c.045,0,.09,0,.134,0h0a.436.436,0,0,0,.119-.094.452.452,0,0,0,.079-.129.752.752,0,0,0,.047-.3,1.556,1.556,0,0,0-.04-.3,2.666,2.666,0,0,0-.085-.294,2.693,2.693,0,0,1,.086.294,1.567,1.567,0,0,1,.041.3.933.933,0,0,1-.008.153.626.626,0,0,1-.039.148.46.46,0,0,1-.08.131.439.439,0,0,1-.12.1h0c-.045,0-.089,0-.134,0l-.134.006-.268.014-.536.032-.536.034-.536.035v0l.043-.009.042-.014a.311.311,0,0,0,.076-.043.318.318,0,0,0,.1-.142.577.577,0,0,0,.033-.173,1.09,1.09,0,0,0-.006-.177,2.212,2.212,0,0,0-.072-.347C141.5,145.5,141.465,145.389,141.423,145.278Z" transform="translate(-124.359 -127.842)" fill="#999270"/><path d="M146.959,142.744a.044.044,0,0,0,.008.013l.01.007.013,0,.017,0,.006,0,0,0a.008.008,0,0,1,0,.005s0,0,0,0h-.068l-.014,0-.014,0H146.9a.008.008,0,0,1-.007,0l0-.005a.007.007,0,0,1,0-.005s0,0,0,0l.015,0,.01-.005a.013.013,0,0,0,0-.008.026.026,0,0,0,0-.013l-.049-.117,0-.009,0,0-.006,0h-.017l-.011,0a.009.009,0,0,1-.007,0l0-.006a.01.01,0,0,1,0,0s0,0,0,0l.028-.011.028-.011h.007a.009.009,0,0,1,.006.006Z" transform="translate(-129.201 -125.468)" fill="#b07e09"/><path d="M148.172,142.424h.073l.006,0,0,0a.013.013,0,0,0,0,0,.038.038,0,0,0,0,0s0,0,0,0h0l0,0a.008.008,0,0,1,0,0v.008s0,.006,0,.008a.069.069,0,0,1,0,.009.025.025,0,0,1,0,.008.016.016,0,0,1-.005.006l-.01,0h-.064l.006.017.008.02,0,.005v0s0,0,0,0l.007,0,.008,0h.009a.1.1,0,0,1,.029,0,.109.109,0,0,1,.029.012.1.1,0,0,1,.024.019.084.084,0,0,1,.017.026.076.076,0,0,1,.007.031.04.04,0,0,1-.008.024.048.048,0,0,1-.021.015.106.106,0,0,1-.032.007h-.016l-.017,0-.016-.008a.029.029,0,0,1-.011-.013.021.021,0,0,1,0-.012.01.01,0,0,1,.01-.008h.007l.007,0,.006,0,0,.006a.01.01,0,0,1,0,0,.009.009,0,0,1,0,0v0h0l0,0,.006,0h.017c.014,0,.022-.006.024-.015a.065.065,0,0,0-.006-.039.077.077,0,0,0-.025-.033.059.059,0,0,0-.039-.011l-.014,0-.007,0a.015.015,0,0,1-.01,0,.02.02,0,0,1-.006-.008l-.015-.04c0-.013-.009-.026-.013-.039a.006.006,0,0,1,0,0s0,0,.006,0Z" transform="translate(-130.386 -125.318)" fill="#b07e09"/><path d="M149.985,142.457l-.008-.017a.048.048,0,0,0-.009-.012.031.031,0,0,0-.011-.007l-.014,0-.006,0,0-.005a.009.009,0,0,1,0-.005s0,0,0,0h.037l.024,0,.023,0a.146.146,0,0,1,.049.006.173.173,0,0,1,.045.02.168.168,0,0,1,.037.033.152.152,0,0,1,.026.042.118.118,0,0,1,.01.045.055.055,0,0,1-.036.053.114.114,0,0,1-.039.008h-.078l-.01,0a.009.009,0,0,1-.007,0l0-.006a.009.009,0,0,1,0,0s0,0,0,0l.01,0,.006,0a.011.011,0,0,0,0-.007.043.043,0,0,0,0-.012Zm.076.092a.228.228,0,0,0,.01.023.038.038,0,0,0,.009.012.024.024,0,0,0,.012,0h.019a.037.037,0,0,0,.021-.006.031.031,0,0,0,.012-.017.064.064,0,0,0,0-.026.141.141,0,0,0-.01-.036.2.2,0,0,0-.019-.037.107.107,0,0,0-.025-.027.1.1,0,0,0-.032-.015.138.138,0,0,0-.042,0l-.005,0s0,0,0,.006Z" transform="translate(-131.941 -125.312)" fill="#b07e09"/><path d="M151.936,142.311h.006a.011.011,0,0,1,.007.008v0l0,.006,0,0,.006.013.005.012a0,0,0,0,1,0,0h-.01a.009.009,0,0,1,0,0l-.011-.017a.034.034,0,0,0-.009-.009l-.01,0h-.046l-.005,0s0,0,0,0l0,.011.02.052,0,0h0l.02,0a.017.017,0,0,0,.009,0,.009.009,0,0,0,0-.007.089.089,0,0,0,0-.013,0,0,0,0,1,0,0h.01a.008.008,0,0,1,0,0l0,.009,0,.008,0,.008,0,.009.007.016,0,.009,0,.01s0,0,0,0l0,0h-.006a.009.009,0,0,1,0,0l-.007-.013a.023.023,0,0,0-.007-.007l-.012,0H151.9v0l.015.039a.17.17,0,0,0,.009.021.029.029,0,0,0,.009.01.027.027,0,0,0,.012,0h.034l.008,0,.008,0a.014.014,0,0,0,0-.006.02.02,0,0,0,0-.009.079.079,0,0,0,0-.014,0,0,0,0,1,0,0h.012a.007.007,0,0,1,0,0l.007.024a.214.214,0,0,0,.008.022v0a0,0,0,0,1,0,0l0,0h0l-.107,0H151.9l-.019,0a.009.009,0,0,1-.006,0l0-.006a.009.009,0,0,1,0,0s0,0,0,0l.01,0,.006,0a.011.011,0,0,0,0-.007.036.036,0,0,0,0-.011l-.045-.115-.005-.012-.006-.011-.007-.008-.009,0H151.8a.007.007,0,0,1-.006,0l0,0a.009.009,0,0,1,0-.005s0,0,0,0h.037Z" transform="translate(-133.575 -125.233)" fill="#b07e09"/><path d="M148.585,149.361a.149.149,0,0,0-.005-.017.041.041,0,0,0-.007-.011.025.025,0,0,0-.009-.006l-.014,0a.007.007,0,0,1-.006,0l0-.005a.011.011,0,0,1,0-.005,0,0,0,0,1,0,0h.037l.024,0,.023,0a.14.14,0,0,1,.089.025.133.133,0,0,1,.032.032.123.123,0,0,1,.019.042.111.111,0,0,1,0,.045.069.069,0,0,1-.015.033.073.073,0,0,1-.029.021.127.127,0,0,1-.041.009h-.078l-.011,0a.008.008,0,0,1-.006,0,.013.013,0,0,1,0-.006.009.009,0,0,1,0,0,.006.006,0,0,1,0,0l.011,0,.006,0a.013.013,0,0,0,0-.007.038.038,0,0,0,0-.012Zm.062.091a.206.206,0,0,0,.007.023.03.03,0,0,0,.007.012.02.02,0,0,0,.011,0h.019a.044.044,0,0,0,.021-.007.04.04,0,0,0,.014-.017.069.069,0,0,0,.006-.027.13.13,0,0,0,0-.036.168.168,0,0,0-.013-.037.084.084,0,0,0-.021-.026.076.076,0,0,0-.03-.015.125.125,0,0,0-.041,0l-.006,0s0,0,0,.006Z" transform="translate(-130.716 -131.386)" fill="#b07e09"/><path d="M150.546,149.166h.006a.008.008,0,0,1,.006.008v.015l0,.013,0,.012a0,0,0,0,1,0,0l0,0h-.005a.008.008,0,0,1,0,0l-.008-.017a.028.028,0,0,0-.007-.009l-.01,0h-.046l-.005,0a.006.006,0,0,0,0,0,.1.1,0,0,0,0,.011l.012.052v0h0l.02,0,.009,0a.01.01,0,0,0,0-.007.078.078,0,0,0,0-.013,0,0,0,0,1,0,0l.005,0h.006a.007.007,0,0,1,0,0l0,.009v.015l0,.009a.139.139,0,0,0,0,.016l0,.009,0,.01a0,0,0,0,1,0,0l0,0h-.006a.007.007,0,0,1,0,0l-.005-.013a.016.016,0,0,0-.006-.007l-.011,0h-.021s0,0,0,0l.009.039a.15.15,0,0,0,.006.021.023.023,0,0,0,.007.01.023.023,0,0,0,.012,0h.034l.008,0,.008,0,.005-.006a.023.023,0,0,0,0-.009.079.079,0,0,0,0-.014,0,0,0,0,1,0,0l.005,0h.006a.006.006,0,0,1,0,0l0,.024a.159.159,0,0,0,0,.022.005.005,0,0,1,0,0v0l0,0h0l-.107.006-.022,0-.019,0a.007.007,0,0,1-.006,0,.012.012,0,0,1,0-.005.009.009,0,0,1,0,0,.005.005,0,0,1,0,0l.011,0,.006,0a.013.013,0,0,0,0-.007.038.038,0,0,0,0-.011l-.027-.115,0-.012a.061.061,0,0,0,0-.011.029.029,0,0,0-.006-.008.015.015,0,0,0-.008,0h-.013a.006.006,0,0,1-.005,0,.01.01,0,0,1,0,0,.009.009,0,0,1,0-.005,0,0,0,0,1,0,0h.037Z" transform="translate(-132.351 -131.266)" fill="#b07e09"/><path d="M152.814,149.226a.037.037,0,0,0,.005.013.023.023,0,0,0,.008.007l.012,0,.016,0,.006,0a.012.012,0,0,1,0,0,.009.009,0,0,1,0,.005.005.005,0,0,1-.005,0h-.069l-.015,0-.014,0h-.013a.008.008,0,0,1-.006,0,.013.013,0,0,1,0-.005.008.008,0,0,1,0-.005.006.006,0,0,1,0,0l.015,0,.011-.005a.015.015,0,0,0,.006-.008.024.024,0,0,0,0-.013l-.027-.117a.064.064,0,0,0,0-.009l0,0-.005,0h-.029a.008.008,0,0,1-.007,0,.013.013,0,0,1,0-.006.009.009,0,0,1,0,0s0,0,0,0l.03-.01.03-.011h.007a.007.007,0,0,1,.005.006Z" transform="translate(-134.376 -131.173)" fill="#b07e09"/><path d="M154.151,149.048a.049.049,0,0,0-.012-.024.028.028,0,0,0-.022-.007.023.023,0,0,0-.018.009.029.029,0,0,0,0,.023.028.028,0,0,0,.005.012l.01.009.014.008.018.008h0a.03.03,0,0,0,.009-.015.043.043,0,0,0,0-.022Zm.031.108a.036.036,0,0,0-.007-.015.055.055,0,0,0-.013-.011l-.016-.009-.02-.009h0a.044.044,0,0,0-.013.018.035.035,0,0,0,0,.022.058.058,0,0,0,.016.031.038.038,0,0,0,.028.01.027.027,0,0,0,.023-.011A.031.031,0,0,0,154.183,149.157Zm.033-.008a.045.045,0,0,1-.013.045.059.059,0,0,1-.021.012.086.086,0,0,1-.025,0,.107.107,0,0,1-.026,0,.081.081,0,0,1-.023-.009.063.063,0,0,1-.019-.016.06.06,0,0,1-.011-.024.047.047,0,0,1,0-.035.046.046,0,0,1,.027-.021.1.1,0,0,1-.029-.018.054.054,0,0,1-.017-.029.048.048,0,0,1,0-.023.04.04,0,0,1,.01-.018.048.048,0,0,1,.018-.012.07.07,0,0,1,.023,0,.081.081,0,0,1,.023,0,.074.074,0,0,1,.021.009.064.064,0,0,1,.017.016.055.055,0,0,1,.01.022.035.035,0,0,1,0,.015.04.04,0,0,1-.005.014.051.051,0,0,1-.01.012.026.026,0,0,1-.012.006.056.056,0,0,1,.017.006.085.085,0,0,1,.017.012.072.072,0,0,1,.014.016.065.065,0,0,1,.008.021Z" transform="translate(-135.575 -131.119)" fill="#b07e09"/><path d="M155.5,149.122a.022.022,0,0,0,.017-.007.04.04,0,0,0,0-.024.005.005,0,0,1,0,0l0,0,.007,0a.008.008,0,0,1,0,.005.1.1,0,0,1,0,.021.067.067,0,0,1,0,.02.034.034,0,0,1-.008.015.022.022,0,0,1-.016.006h-.04l-.018,0h-.015a.037.037,0,0,0-.015,0l-.006,0-.006,0a.009.009,0,0,1-.009,0,.022.022,0,0,1,0-.007.016.016,0,0,1,0-.005.1.1,0,0,1,.008-.025.11.11,0,0,1,.012-.02.108.108,0,0,1,.013-.016l.014-.014.012-.012a.057.057,0,0,0,.009-.013.05.05,0,0,0,0-.015.056.056,0,0,0,0-.02.062.062,0,0,0-.014-.031.039.039,0,0,0-.031-.012.03.03,0,0,0-.024.011.024.024,0,0,0,0,.009.015.015,0,0,0,0,.007v0l0,0,0,0h.006a.017.017,0,0,1,.013,0,.019.019,0,0,1,.006.01.016.016,0,0,1,0,.013.014.014,0,0,1-.013.006.03.03,0,0,1-.015,0,.036.036,0,0,1-.01-.008.041.041,0,0,1-.006-.01l0-.009a.045.045,0,0,1,0-.022.042.042,0,0,1,.009-.018.051.051,0,0,1,.018-.013.069.069,0,0,1,.025-.005.1.1,0,0,1,.03,0,.07.07,0,0,1,.023.011.061.061,0,0,1,.016.018.077.077,0,0,1,.009.023.055.055,0,0,1,0,.032.076.076,0,0,1-.014.024.148.148,0,0,1-.021.02l-.01.008-.011.009a.09.09,0,0,0-.015.017.021.021,0,0,0,0,.017s0,0,0,0l.018,0h.04Z" transform="translate(-136.734 -131.072)" fill="#b07e09"/><path d="M156.777,149.068a.034.034,0,0,0,0,.013.025.025,0,0,0,.008.007l.012,0,.016,0,.005,0,0,0a.008.008,0,0,1,0,.005.005.005,0,0,1-.005,0h-.11a.008.008,0,0,1-.006,0,.011.011,0,0,1,0-.005.007.007,0,0,1,0-.005.006.006,0,0,1,0,0l.015,0,.011,0a.017.017,0,0,0,.006-.008.024.024,0,0,0,0-.013l-.024-.117a.048.048,0,0,0,0-.009l0-.005-.005,0h-.029a.008.008,0,0,1-.007,0,.012.012,0,0,1,0-.006.01.01,0,0,1,0,0,.005.005,0,0,1,0,0l.031-.009.031-.01h.007a.007.007,0,0,1,0,.006Z" transform="translate(-137.865 -131.033)" fill="#b07e09"/><path d="M142.913,139.43l-.007-.015a.038.038,0,0,0-.008-.01l-.009-.005h-.014a.008.008,0,0,1-.006,0l0-.005a.01.01,0,0,1,0-.005s0,0,0,0h.087a.007.007,0,0,1,.006,0l0,0a.011.011,0,0,1,0,.006,0,0,0,0,1,0,0l-.012,0a.008.008,0,0,0,0,.006.018.018,0,0,0,0,.01.128.128,0,0,0,.006.016l.044.1.007.015.007.009.008.005.011,0h.019l.016,0a.018.018,0,0,0,.009-.007.024.024,0,0,0,0-.013.086.086,0,0,0,0-.021s0,0,0,0h.011a.007.007,0,0,1,0,0l.009.026a.256.256,0,0,0,.009.024v0a0,0,0,0,1,0,0l0,0h0l-.105.008-.021,0-.02,0a.009.009,0,0,1-.007,0l0-.005a.007.007,0,0,1,0-.005,0,0,0,0,1,0,0l.013,0a.01.01,0,0,0,.006,0,.011.011,0,0,0,0-.007.105.105,0,0,0-.005-.014l-.05-.117Z" transform="translate(-125.72 -122.652)" fill="#b07e09"/><path d="M144.421,139.325l-.007-.015a.035.035,0,0,0-.007-.009l-.01-.005-.014,0a.008.008,0,0,1-.006,0l0-.005a.009.009,0,0,1,0-.005s0,0,0,0h.087a.008.008,0,0,1,.006,0l0,.005a.012.012,0,0,1,0,.005,0,0,0,0,1,0,0l-.012,0a.009.009,0,0,0-.005.006.02.02,0,0,0,0,.01l.006.016.049.117a.1.1,0,0,0,.007.014.022.022,0,0,0,.006.007l.009,0h.014l.006,0,0,.005a.008.008,0,0,1,0,.005s0,0,0,0h-.044l-.022,0-.021,0a.008.008,0,0,1-.006,0l0-.005a.011.011,0,0,1,0-.005,0,0,0,0,1,0,0l.013,0a.01.01,0,0,0,.006,0,.011.011,0,0,0,0-.008.1.1,0,0,0-.005-.015Z" transform="translate(-127.047 -122.559)" fill="#b07e09"/><path d="M145.418,139.3l0,0h.009l.016,0a.02.02,0,0,0,.01-.006.018.018,0,0,0,0-.012.053.053,0,0,0,0-.019.073.073,0,0,0-.009-.016.045.045,0,0,0-.011-.01l-.014-.005h-.029v0l0,.006Zm.025.06c0,.011.008.019.011.025a.047.047,0,0,0,.009.012.017.017,0,0,0,.009,0h.015c.012,0,.02,0,.022-.01a.04.04,0,0,0,0-.028.079.079,0,0,0-.013-.022.055.055,0,0,0-.016-.012.053.053,0,0,0-.018-.006h-.025l0,0a.02.02,0,0,0,0,.008Zm-.076-.089-.006-.012-.006-.011-.007-.008-.009,0h-.013a.008.008,0,0,1-.006,0l0-.005a.009.009,0,0,1,0-.005s0,0,0,0h.094l.018,0,.018,0,.017.009a.074.074,0,0,1,.015.013.068.068,0,0,1,.011.018.047.047,0,0,1,0,.018.03.03,0,0,1,0,.014.031.031,0,0,1-.008.01l-.011.007s0,0,0,0h0a.126.126,0,0,1,.045.017.079.079,0,0,1,.029.037.057.057,0,0,1,.005.027.031.031,0,0,1-.008.018.042.042,0,0,1-.018.01l-.024,0h-.084l-.011,0a.007.007,0,0,1-.006,0l0-.006a.01.01,0,0,1,0-.005,0,0,0,0,1,0,0l.011,0,.006,0a.012.012,0,0,0,0-.007.042.042,0,0,0,0-.012Z" transform="translate(-127.877 -122.508)" fill="#b07e09"/><path d="M147,139.1h.006a.011.011,0,0,1,.007.008v0l0,.006,0,0,.006.013.005.012s0,0,0,0h-.01a.01.01,0,0,1-.005,0l-.011-.017a.034.034,0,0,0-.009-.009l-.01,0h-.046l-.005,0a.006.006,0,0,0,0,0l0,.011.021.052,0,0h0l.02,0a.015.015,0,0,0,.009,0,.009.009,0,0,0,0-.007.082.082,0,0,0,0-.013,0,0,0,0,1,0,0l0,0H147a.008.008,0,0,1,0,0l0,.009,0,.008,0,.007,0,.009.007.016,0,.008,0,.01s0,0,0,0l0,0h-.006l0,0-.008-.013a.021.021,0,0,0-.007-.007l-.012,0h-.021v0l.016.039a.188.188,0,0,0,.01.021.028.028,0,0,0,.009.01.027.027,0,0,0,.012,0h.034l.008,0,.007,0a.013.013,0,0,0,0-.006.021.021,0,0,0,0-.009.078.078,0,0,0,0-.014,0,0,0,0,1,0,0l0,0h.006a.007.007,0,0,1,0,0l.007.024a.212.212,0,0,0,.008.022v0a0,0,0,0,1,0,0l0,0h0l-.106.006-.021,0-.019,0a.009.009,0,0,1-.007,0l0-.005a.01.01,0,0,1,0,0s0,0,0,0l.01,0,.006,0a.011.011,0,0,0,0-.007.04.04,0,0,0,0-.011l-.047-.114-.006-.012-.006-.011-.007-.008-.009,0h-.014l-.006,0,0,0a.01.01,0,0,1,0-.005s0,0,0,0h.036Z" transform="translate(-129.233 -122.405)" fill="#b07e09"/><path d="M148.407,139.089l-.006-.012-.006-.011-.007-.008-.009,0h-.014a.008.008,0,0,1-.006,0l0-.005a.008.008,0,0,1,0-.005s0,0,0,0h.065l.022,0,.025,0a.1.1,0,0,1,.025.009.087.087,0,0,1,.022.017.076.076,0,0,1,.016.025.057.057,0,0,1,0,.021.032.032,0,0,1,0,.016.031.031,0,0,1-.011.011l-.016.007h0l.02.01.016.011.012.012.009.012.008.012.007.012a.028.028,0,0,0,.008.009l.006,0,0,0a.012.012,0,0,0,0-.008,0,0,0,0,1,0,0l0,0,.007,0a.01.01,0,0,1,.005.006.031.031,0,0,1,0,.014.022.022,0,0,1,0,.01.024.024,0,0,1-.009.006l-.012,0h-.01l-.01,0-.009-.005-.008-.008-.008-.011-.008-.012-.007-.011-.007-.011a.1.1,0,0,0-.023-.025.038.038,0,0,0-.024-.006l-.006,0s0,0,0,.006l.016.04a.07.07,0,0,0,.008.015.031.031,0,0,0,.009.008l.011,0h.014a.008.008,0,0,1,.006,0l0,.005a.009.009,0,0,1,0,.006s0,0,0,0h-.048l-.021,0-.021,0a.008.008,0,0,1-.006,0l0-.005a.01.01,0,0,1,0,0,0,0,0,0,1,0,0l.012,0a.01.01,0,0,0,.005,0,.013.013,0,0,0,0-.008.085.085,0,0,0,0-.014Zm.053.033s0,.006,0,.006h.012l.017,0a.015.015,0,0,0,.008-.007.021.021,0,0,0,0-.013.1.1,0,0,0-.006-.019.1.1,0,0,0-.009-.018.042.042,0,0,0-.011-.011.034.034,0,0,0-.013-.006h-.017c-.007,0-.011,0-.012,0s0,.005,0,.011Z" transform="translate(-130.553 -122.348)" fill="#b07e09"/><path d="M150.191,139.1l.007.015a.02.02,0,0,0,.006.007l.009,0,.015,0,.006,0,0,.005a.008.008,0,0,1,0,.005s0,0,0,0h-.045l-.022,0-.021,0a.008.008,0,0,1-.006,0l0-.005a.009.009,0,0,1,0-.005,0,0,0,0,1,0,0l.013,0a.01.01,0,0,0,.006,0,.01.01,0,0,0,0-.007.1.1,0,0,0,0-.015l-.053-.132a.018.018,0,0,0-.009-.011.046.046,0,0,0-.017,0l-.016,0a.014.014,0,0,0-.008.006.02.02,0,0,0,0,.011.107.107,0,0,0,0,.019s0,0,0,0h-.005l-.005,0a.008.008,0,0,1,0,0l-.008-.022a.215.215,0,0,0-.01-.022s0-.006,0-.008l.01,0,.157-.007h.012a.011.011,0,0,1,.008.007l0,.009,0,.011.005.013.006.012a0,0,0,0,1,0,0l0,0h-.006a.008.008,0,0,1,0,0,.13.13,0,0,0-.012-.019.044.044,0,0,0-.011-.011l-.013,0h-.016a.039.039,0,0,0-.016,0s0,.006,0,.012Z" transform="translate(-132.013 -122.262)" fill="#b07e09"/><path d="M152.3,138.977h0s0,0,0,0v.035a.022.022,0,0,0,0,.006l0,0,.005,0,.007,0h.008a.009.009,0,0,1,.007,0l0,.005a.009.009,0,0,1,0,.005s0,0,0,0h-.034l-.014,0-.015,0a.008.008,0,0,1-.006,0,.015.015,0,0,1,0-.006.007.007,0,0,1,0,0,0,0,0,0,1,0,0h0l.006,0,0,0a.018.018,0,0,0,0-.007.09.09,0,0,0,0-.015v-.17s0,0,.006,0a.018.018,0,0,1,.011,0l.032.041.034.044.034.043.034.042.011.013.009.006.007,0h.008l.006,0,0,.005a.012.012,0,0,1,0,.005s0,0,0,0h-.039l-.023,0-.021,0a.009.009,0,0,1-.007,0l0-.006a.007.007,0,0,1,0,0s0,0,0,0l.012,0s0,0,0-.007l0,0,0-.007-.009-.012-.014-.018,0,0h-.007Zm.044-.019h0l-.053-.07h0v.071s0,0,0,0h.05Z" transform="translate(-133.98 -122.172)" fill="#b07e09"/><path d="M153.6,138.9l-.007-.017a.045.045,0,0,0-.008-.012.03.03,0,0,0-.01-.007l-.014,0a.008.008,0,0,1-.006,0l0-.005a.01.01,0,0,1,0-.005s0,0,0,0h.085a.152.152,0,0,1,.049.007.174.174,0,0,1,.045.022.17.17,0,0,1,.037.033.15.15,0,0,1,.025.043.112.112,0,0,1,.008.045.058.058,0,0,1-.011.032.06.06,0,0,1-.027.019.12.12,0,0,1-.04.007h-.09a.008.008,0,0,1-.007,0,.014.014,0,0,1,0-.006.007.007,0,0,1,0,0s0,0,0,0l.01,0,.006,0a.011.011,0,0,0,0-.007.046.046,0,0,0,0-.012Zm.074.093a.2.2,0,0,0,.01.023.034.034,0,0,0,.009.012.024.024,0,0,0,.012,0h.019a.039.039,0,0,0,.021-.006.031.031,0,0,0,.012-.016.061.061,0,0,0,0-.026.138.138,0,0,0-.009-.036.2.2,0,0,0-.018-.038.1.1,0,0,0-.024-.027.1.1,0,0,0-.032-.016.144.144,0,0,0-.042,0h-.005s0,0,0,.006Z" transform="translate(-135.123 -122.183)" fill="#b07e09"/><path d="M144.231,146.4a.036.036,0,0,0,.008.013l.012.009.014.006.015.005.027.01.025.013a.1.1,0,0,1,.021.018.081.081,0,0,1,.015.027.051.051,0,0,1,0,.028.039.039,0,0,1-.011.02.053.053,0,0,1-.02.012.1.1,0,0,1-.025.005h-.02a.09.09,0,0,1-.022-.006h-.007a.009.009,0,0,0,0,.005.005.005,0,0,1,0,0h0l-.005,0a.008.008,0,0,1,0,0l0-.014a.131.131,0,0,0,0-.015l-.006-.015-.007-.016a.005.005,0,0,1,0-.006l0,0h.006l0,0a.111.111,0,0,0,.014.022.08.08,0,0,0,.017.015.07.07,0,0,0,.018.009.049.049,0,0,0,.019,0l.013,0a.027.027,0,0,0,.01-.007.02.02,0,0,0,0-.01.029.029,0,0,0,0-.014.046.046,0,0,0-.01-.017.074.074,0,0,0-.015-.012l-.017-.008-.018-.007-.022-.008-.022-.011a.087.087,0,0,1-.019-.016.072.072,0,0,1-.013-.024.048.048,0,0,1,0-.026.034.034,0,0,1,.01-.018.051.051,0,0,1,.019-.011.107.107,0,0,1,.025,0h.015l.014,0h.013a0,0,0,0,1,0,0h.009a.006.006,0,0,1,0,0,.057.057,0,0,0,0,.01l0,.011.006.014.007.015a0,0,0,0,1,0,0l0,0h-.005l0,0a.189.189,0,0,0-.013-.021.05.05,0,0,0-.012-.012.036.036,0,0,0-.014-.005h-.017l-.012,0-.009.006a.017.017,0,0,0,0,.009.023.023,0,0,0,0,.012Z" transform="translate(-126.893 -128.791)" fill="#b07e09"/><path d="M145.509,146.257h.006a.009.009,0,0,1,.007.008v0l0,.006,0,0,0,.013,0,.012a0,0,0,0,1,0,0l0,0h-.005a.009.009,0,0,1,0,0l-.01-.016a.029.029,0,0,0-.008-.009l-.01,0h-.046l-.005,0a.006.006,0,0,0,0,0,.088.088,0,0,0,0,.011l.018.052v0h0l.02,0a.017.017,0,0,0,.009,0,.009.009,0,0,0,0-.007.075.075,0,0,0,0-.013,0,0,0,0,1,0,0l0,0h.006a.007.007,0,0,1,0,0l0,.009,0,.008,0,.007,0,.009a.132.132,0,0,0,.006.016l0,.008,0,.01a0,0,0,0,1,0,0l0,0h-.006a.008.008,0,0,1,0,0l-.007-.013a.019.019,0,0,0-.007-.007l-.012,0h-.021s0,0,0,0l.013.039a.176.176,0,0,0,.008.021.026.026,0,0,0,.008.01.025.025,0,0,0,.012,0h.034l.008,0,.008-.005a.016.016,0,0,0,0-.006.02.02,0,0,0,0-.009.08.08,0,0,0,0-.014,0,0,0,0,1,0,0l.005,0h.006a.006.006,0,0,1,0,0l.005.024a.172.172,0,0,0,.006.022v0a0,0,0,0,1,0,0l0,0h0l-.106.008-.021,0-.019,0a.008.008,0,0,1-.006,0,.014.014,0,0,1,0-.005.009.009,0,0,1,0,0s0,0,0,0l.01,0,.006,0a.013.013,0,0,0,0-.007.037.037,0,0,0,0-.011l-.039-.114,0-.012-.006-.011-.007-.008-.008,0h-.013a.006.006,0,0,1-.006,0l0,0a.011.011,0,0,1,0-.005s0,0,0,0h.036Z" transform="translate(-127.92 -128.706)" fill="#b07e09"/><path d="M146.984,146.343a.064.064,0,0,0,.007.015.026.026,0,0,0,.008.008l.011,0h.014a.007.007,0,0,1,.006,0l0,.005a.008.008,0,0,1,0,.005,0,0,0,0,1,0,0h-.05l-.021,0-.021,0a.007.007,0,0,1-.006,0l0,0a.01.01,0,0,1,0-.005,0,0,0,0,1,0,0l.012,0a.011.011,0,0,0,.006,0,.012.012,0,0,0,0-.008.07.07,0,0,0,0-.014l-.037-.111,0-.013-.006-.011-.007-.008-.008,0h-.014l-.006,0,0-.005a.008.008,0,0,1,0-.005s0,0,0,0h.039l.026,0,.022,0h.025a.074.074,0,0,1,.024.008.07.07,0,0,1,.034.041.054.054,0,0,1,0,.03.036.036,0,0,1-.012.02.062.062,0,0,1-.024.012l-.032.006h0v0Zm-.021-.064h0l.022,0a.024.024,0,0,0,.012-.008.021.021,0,0,0,0-.013.076.076,0,0,0,0-.02.063.063,0,0,0-.018-.031.043.043,0,0,0-.03-.007c-.007,0-.011,0-.012,0s0,0,0,.01Z" transform="translate(-129.238 -128.637)" fill="#b07e09"/><path d="M148.417,146.229l.006.015a.018.018,0,0,0,.006.007l.009,0h.015l.006,0,0,.005a.009.009,0,0,1,0,.005,0,0,0,0,1,0,0h-.044l-.022,0-.021,0a.007.007,0,0,1-.006,0l0-.005a.011.011,0,0,1,0-.005,0,0,0,0,1,0,0l.013,0a.011.011,0,0,0,.006,0,.012.012,0,0,0,0-.008.088.088,0,0,0,0-.014l-.043-.132a.016.016,0,0,0-.008-.011.045.045,0,0,0-.017,0l-.016,0a.016.016,0,0,0-.009.006.021.021,0,0,0,0,.011.105.105,0,0,0,0,.019s0,0,0,0h-.01a.007.007,0,0,1,0,0c0-.007,0-.015-.006-.022a.183.183,0,0,0-.009-.022s0-.007,0-.008l.01,0,.157-.009h.012a.009.009,0,0,1,.007.007l0,.009,0,.011,0,.013.005.012a0,0,0,0,1,0,0l0,0h-.006a.007.007,0,0,1,0,0,.125.125,0,0,0-.011-.019.037.037,0,0,0-.011-.01.031.031,0,0,0-.012,0h-.016a.038.038,0,0,0-.016,0s0,.006,0,.012Z" transform="translate(-130.463 -128.534)" fill="#b07e09"/><path d="M149.95,146.049a.125.125,0,0,0-.006-.015.032.032,0,0,0-.007-.009l-.009-.005-.014,0a.007.007,0,0,1-.006,0,.012.012,0,0,1,0-.005.009.009,0,0,1,0-.005s0,0,0,0H150a.007.007,0,0,1,.006,0,.012.012,0,0,1,0,.005.011.011,0,0,1,0,.005,0,0,0,0,1,0,0l-.013,0a.01.01,0,0,0-.006.006.016.016,0,0,0,0,.009.139.139,0,0,0,0,.016l.038.117a.1.1,0,0,0,.006.014.021.021,0,0,0,.006.007l.009,0h.014l.006,0,0,.005a.008.008,0,0,1,0,.005s0,0,0,0h-.044l-.022,0-.021,0a.007.007,0,0,1-.006,0l0-.005a.011.011,0,0,1,0-.005,0,0,0,0,1,0,0l.013,0,.006,0a.01.01,0,0,0,0-.007.081.081,0,0,0,0-.015Z" transform="translate(-131.917 -128.477)" fill="#b07e09"/><path d="M151.006,145.931h.006a.009.009,0,0,1,.007.008v0l0,.006,0,0,0,.013,0,.012a0,0,0,0,1,0,0h-.01a.009.009,0,0,1,0,0l-.009-.017a.032.032,0,0,0-.008-.009l-.01,0h-.046l-.005,0a.006.006,0,0,0,0,0l0,.011.017.052v0h0l.02,0a.018.018,0,0,0,.009,0,.01.01,0,0,0,0-.007.105.105,0,0,0,0-.013,0,0,0,0,1,0,0l0,0H151a.008.008,0,0,1,0,0l0,.009,0,.008,0,.007,0,.009.006.016,0,.009,0,.01a0,0,0,0,1,0,0l0,0h-.006a.009.009,0,0,1,0,0l-.006-.013a.018.018,0,0,0-.007-.007l-.012,0h-.021s0,0,0,0l.012.039a.174.174,0,0,0,.008.021.021.021,0,0,0,.02.014h.034l.008,0,.008,0a.016.016,0,0,0,0-.006.022.022,0,0,0,0-.009.088.088,0,0,0,0-.014,0,0,0,0,1,0,0l.005,0h.006a.006.006,0,0,1,0,0l0,.024a.171.171,0,0,0,.006.022,0,0,0,0,1,0,0,0,0,0,0,1,0,0l0,0h0l-.107.006-.021,0-.019,0a.008.008,0,0,1-.006,0l0-.005a.009.009,0,0,1,0,0s0,0,0,0l.01,0,.006,0a.012.012,0,0,0,0-.007.032.032,0,0,0,0-.011l-.037-.115,0-.012a.057.057,0,0,0-.005-.011l-.007-.008-.008,0h-.014l-.006,0,0-.005a.01.01,0,0,1,0-.005s0,0,0,0h.037Z" transform="translate(-132.756 -128.419)" fill="#b07e09"/><path d="M152.408,145.865a.07.07,0,0,0-.005-.013l-.006-.006-.008,0h-.012a.008.008,0,0,1-.006,0,.012.012,0,0,1,0-.005.007.007,0,0,1,0-.005,0,0,0,0,1,0,0h.06a.009.009,0,0,1,.007,0l.1.139h0l.014-.144s0,0,.008,0l.018,0,.02,0h.015a.007.007,0,0,1,.006,0l0,.005a.009.009,0,0,1,0,0,0,0,0,0,1,0,0l-.014,0a.008.008,0,0,0-.006,0,.02.02,0,0,0,0,.01l.006.022.034.11a.1.1,0,0,0,.006.015.022.022,0,0,0,.006.007l.009,0,.014,0,.006,0,0,.005a.009.009,0,0,1,0,.005s0,0,0,0h-.045l-.022,0-.022,0-.006,0a.012.012,0,0,1,0-.005.01.01,0,0,1,0-.005,0,0,0,0,1,0,0l.013,0a.011.011,0,0,0,.006,0,.011.011,0,0,0,0-.008.081.081,0,0,0,0-.014l-.035-.111h0l-.011.1c0,.007,0,.015,0,.023s0,.017,0,.025a0,0,0,0,1,0,0h-.009l0,0-.112-.147h0l.035.111a.069.069,0,0,0,.006.016.025.025,0,0,0,.007.008l.008,0h.012l.005,0,0,0a.01.01,0,0,1,0,.005s0,0,0,0h-.033l-.019,0-.015,0a.007.007,0,0,1-.006,0l0,0a.008.008,0,0,1,0-.005,0,0,0,0,1,0,0l.012,0,.006,0a.013.013,0,0,0,0-.008.086.086,0,0,0,0-.016Z" transform="translate(-134.083 -128.317)" fill="#b07e09"/><path d="M154.741,145.866l0,0h.009l.016,0a.024.024,0,0,0,.011-.006.018.018,0,0,0,.005-.011.048.048,0,0,0,0-.019.063.063,0,0,0-.007-.016.039.039,0,0,0-.01-.011.037.037,0,0,0-.013-.006h-.03a.007.007,0,0,0,0,0l0,.006Zm.018.06c0,.011.006.019.009.025a.039.039,0,0,0,.007.012.016.016,0,0,0,.009,0h.015q.019,0,.024-.01a.039.039,0,0,0,0-.028.067.067,0,0,0-.011-.022.048.048,0,0,0-.014-.013.05.05,0,0,0-.017-.006h-.03a.018.018,0,0,0,0,.008Zm-.066-.09,0-.012a.06.06,0,0,0-.005-.011l-.006-.008-.008,0h-.013a.007.007,0,0,1-.006,0l0-.005a.009.009,0,0,1,0-.005s0,0,0,0h.1l.018,0,.018.005.016.009a.067.067,0,0,1,.013.013.059.059,0,0,1,.009.018.047.047,0,0,1,0,.017.035.035,0,0,1,0,.013.039.039,0,0,1-.009.01l-.012.007s0,0,0,0h0a.117.117,0,0,1,.044.018.069.069,0,0,1,.025.037.053.053,0,0,1,0,.027.033.033,0,0,1-.01.018.046.046,0,0,1-.019.009l-.024,0h-.086l-.011,0a.007.007,0,0,1-.006,0l0-.006a.009.009,0,0,1,0-.005,0,0,0,0,1,0,0l.011,0,.006,0a.012.012,0,0,0,0-.007.045.045,0,0,0,0-.012Z" transform="translate(-136.088 -128.286)" fill="#b07e09"/><path d="M156.257,145.781l0-.012-.005-.011-.006-.008-.008,0h-.014a.007.007,0,0,1-.006,0l0-.005a.009.009,0,0,1,0-.005s0,0,0,0h.088a.108.108,0,0,1,.025,0,.082.082,0,0,1,.024.009.075.075,0,0,1,.021.017.069.069,0,0,1,.013.025.052.052,0,0,1,0,.021.032.032,0,0,1-.006.016.035.035,0,0,1-.012.011l-.016.006h0l.019.01.015.011.011.012.008.012.006.012.006.012a.025.025,0,0,0,.007.009l.006,0,0,0a.013.013,0,0,0,0-.008,0,0,0,0,1,0,0h0l.007,0a.009.009,0,0,1,0,.006.03.03,0,0,1,0,.014.022.022,0,0,1-.006.01.024.024,0,0,1-.01.006l-.012,0h-.01l-.01,0-.009-.006-.007-.008-.007-.011-.007-.012-.006-.012-.006-.011a.085.085,0,0,0-.02-.025.036.036,0,0,0-.023-.007l-.006,0s0,0,0,.006l.012.04a.06.06,0,0,0,.006.015.029.029,0,0,0,.008.008l.01,0,.014,0a.007.007,0,0,1,.006,0l0,.005a.008.008,0,0,1,0,.005,0,0,0,0,1,0,0h-.049l-.021,0-.021,0a.007.007,0,0,1-.006,0l0-.005a.008.008,0,0,1,0,0s0,0,0,0l.012,0a.01.01,0,0,0,.006,0,.012.012,0,0,0,0-.008.069.069,0,0,0,0-.013Zm.049.034s0,.006,0,.006h.012l.018,0a.016.016,0,0,0,.009-.007.021.021,0,0,0,0-.012.085.085,0,0,0,0-.019.09.09,0,0,0-.007-.018.039.039,0,0,0-.009-.011.03.03,0,0,0-.013-.006H156.3a.023.023,0,0,0-.012,0s0,.005,0,.011Z" transform="translate(-137.465 -128.239)" fill="#b07e09"/><path d="M158.074,145.685h.006a.009.009,0,0,1,.006.008v0l0,.006v0l0,.013,0,.012a0,0,0,0,1,0,0h-.01a.008.008,0,0,1,0,0l-.009-.017a.028.028,0,0,0-.008-.009l-.01,0h-.046l-.005,0a.006.006,0,0,0,0,0l0,.011.015.052v0h0l.021,0a.018.018,0,0,0,.009,0,.009.009,0,0,0,0-.007.075.075,0,0,0,0-.012,0,0,0,0,1,0,0h.011a.007.007,0,0,1,0,0l0,.009,0,.008,0,.007,0,.009.005.016,0,.008,0,.01s0,0,0,0h-.011a.008.008,0,0,1,0,0l-.006-.013a.018.018,0,0,0-.006-.007l-.012,0h-.022s0,0,0,0l.011.039a.168.168,0,0,0,.007.021.025.025,0,0,0,.008.01.026.026,0,0,0,.012,0h.034l.008,0,.008,0,.005-.006a.022.022,0,0,0,0-.009.078.078,0,0,0,0-.014,0,0,0,0,1,0,0h.012a.007.007,0,0,1,0,0l0,.024a.167.167,0,0,0,.005.022v0l0,0h0l-.108,0h-.041a.008.008,0,0,1-.006,0,.013.013,0,0,1,0-.006.009.009,0,0,1,0,0,0,0,0,0,1,0,0l.011,0,.006,0a.011.011,0,0,0,0-.007.037.037,0,0,0,0-.011l-.033-.115,0-.012-.005-.011-.006-.008-.008,0h-.013a.007.007,0,0,1-.006,0l0,0a.01.01,0,0,1,0-.005,0,0,0,0,1,0,0h.037Z" transform="translate(-138.975 -128.203)" fill="#b07e09"/><path d="M138.546,132.218c-.139,0-.175.134-.173.218.005.222.173.232.173.232l.224-.012.107-.456Z" transform="translate(-121.769 -116.336)" fill="#f9f0aa" stroke="#999270" stroke-width="0.017"/><path d="M138.546,132.206c-.139,0-.175.134-.173.218.005.222.173.232.173.232l.224-.012.107-.456Z" transform="translate(-121.769 -116.325)" stroke="#999270" stroke-width="0.017" fill="url(#h)"/><path d="M139.813,132.218l.331-.018.034.341-.289.013S139.983,132.281,139.813,132.218Z" transform="translate(-123.035 -116.336)" fill="#f9f0aa" stroke="#999270" stroke-width="0.017"/><path d="M139.813,132.218l.331-.018.034.341-.289.013S139.983,132.281,139.813,132.218Z" transform="translate(-123.035 -116.336)" stroke="#999270" stroke-width="0.017" fill="url(#i)"/><path d="M141.64,131.573c.251-.04.247-.378.076-.513-.581-.021-1.346-.005-1.9.036a.238.238,0,0,1,.257.244.307.307,0,0,1-.115.262.26.26,0,0,1-.146.055.949.949,0,0,0,.135,0c.028,0,.1-.01.115-.012a10.265,10.265,0,0,1,1.575-.068h0Z" transform="translate(-123.035 -115.325)" fill="#f9f0aa" stroke="#999270" stroke-width="0.017"/><path d="M141.64,131.573c.251-.04.247-.378.076-.513-.581-.021-1.346-.005-1.9.036a.238.238,0,0,1,.257.244.307.307,0,0,1-.115.262.26.26,0,0,1-.146.055.949.949,0,0,0,.135,0c.028,0,.1-.01.115-.012a10.265,10.265,0,0,1,1.575-.068h0Z" transform="translate(-123.035 -115.325)" stroke="#999270" stroke-width="0.017" fill="url(#j)"/><path d="M147.577,124.814l-.141.168c-.045.2.067.345.287.473a.659.659,0,0,0,.612,0l-.514-.443Z" transform="translate(-129.735 -109.836)" fill="#a50a0a" stroke="#4c0505" stroke-width="0.017"/><path d="M147.577,124.814l-.141.168c-.045.2.067.345.287.473a.68.68,0,0,0,.612.049l-.514-.49Z" transform="translate(-129.735 -109.836)" stroke="#4c0505" stroke-width="0.017" fill="url(#k)"/><path d="M147.838,166.291l-.076-.091a3.777,3.777,0,0,1-1.223,1.072A2.824,2.824,0,0,0,147.838,166.291Z" transform="translate(-128.954 -146.256)" fill="#448127" stroke="#34541f" stroke-width="0.017"/><path d="M152.544,168.506c.2-.4.44-.808.683-1.212l-.08-.1A3.693,3.693,0,0,0,152.544,168.506Z" transform="translate(-134.239 -147.132)" fill="#448127" stroke="#34541f" stroke-width="0.017"/><path d="M149.412,124.337a2.341,2.341,0,0,0-.162-.49,2.972,2.972,0,0,0-.444-.63,4.749,4.749,0,0,0-1.2-1.022l0-.005,0,0h.006l-.006-.008h.018l-.01-.01h.016l-.013-.015h.017l-.012-.012h.018l-.01-.014h.015l-.014-.015.021,0-.017-.01.018,0-.015-.01.022-.007-.019-.012.024-.011-.024-.017.025-.009-.027-.011.023-.012-.027,0,.018-.021h-.026l.012-.022-.025,0,0,0,.014-.017-.025,0,.011-.023-.024.012.007-.027-.024.016,0-.027-.022.019,0-.026-.019.02,0-.027-.019.023,0-.027-.015.021-.008-.025-.013.025-.006-.027-.012.027-.006-.027-.01.027-.008-.025-.008.025-.006-.022-.009.027-.008-.025-.009.029-.011-.026,0,.031-.013-.025,0,.03-.014-.023v.03l-.015-.021v.026l-.016-.014.008.028-.02-.012.007.024-.016-.009.006.024-.015,0,.008.018v0l-.011,0,.006.014h0a.338.338,0,0,0-.013.132c0,.009.022.017.026.023a.037.037,0,0,1,.008.025.58.58,0,0,0-.119.282c.048-.061.1-.135.167-.135-.034.058-.051.231-.012.258l.029-.051a.251.251,0,0,0,.015.087.553.553,0,0,1,.036-.065.26.26,0,0,0,.026.124.17.17,0,0,1,.061-.059.261.261,0,0,0-.015.1.607.607,0,0,1,.072-.094.326.326,0,0,0,.016.17c.015-.078.021-.086.057-.119a.856.856,0,0,0,.005.176c.033-.063.055-.054.074-.094a.55.55,0,0,0,0,.176.168.168,0,0,1,.073-.1c0,.082.021.069-.03.139a.287.287,0,0,0,.135-.031c-.019.044-.014.079-.033.11a.444.444,0,0,0,.109-.087c-.016.051-.057.1-.036.152a.121.121,0,0,1,.084-.093c-.006.027-.009.081-.048.108.092.009.128-.052.174-.1a.18.18,0,0,0,.058.163c-.013-.091.009-.072.05-.127a.349.349,0,0,0,.127.226.227.227,0,0,1-.022-.182c.011.055.063.122.076.174a.506.506,0,0,1,.036-.152.764.764,0,0,1,.051.21.652.652,0,0,0,.044-.116,1.961,1.961,0,0,1,.094,2.8c.291-.2.367-.509.528-.775a3.284,3.284,0,0,1-.507,1.028,2.806,2.806,0,0,0,.489-.67,6.332,6.332,0,0,1-.743,1.453l.177.195.154-.257A3.293,3.293,0,0,0,149.412,124.337Z" transform="translate(-129.542 -107.257)" fill="#448127" stroke="#34541f" stroke-width="0.017"/><path d="M147.28,123.527a.134.134,0,0,0-.079.054.459.459,0,0,0,.095.01c.01,0,.013-.013.011-.022l0-.036c0-.008-.023-.007-.033,0Z" transform="translate(-129.537 -108.703)" fill="#eac102" stroke="#a08307" stroke-width="0.017"/><path d="M149.063,123.379a.03.03,0,0,0,0-.061.03.03,0,0,0,0,.061Z" transform="translate(-131.15 -108.52)" stroke="#000" stroke-width="0.017"/><path d="M152.556,168.86q.026-.084.057-.167c.021-.055.043-.109.067-.163.047-.108.1-.213.155-.316s.114-.205.175-.306l.092-.15.094-.149-.091.151-.09.151c-.06.1-.118.2-.173.306s-.108.208-.156.315q-.036.08-.069.162T152.556,168.86Z" transform="translate(-134.249 -147.496)" fill="#34541f"/><path d="M146.669,167.536q.093-.041.183-.089t.176-.1a2.7,2.7,0,0,0,.327-.241,3.156,3.156,0,0,0,.291-.284c.046-.05.09-.1.133-.154s.086-.105.127-.159c-.041.054-.082.108-.124.161s-.087.1-.132.155a3.082,3.082,0,0,1-.29.286,2.613,2.613,0,0,1-.33.24q-.087.053-.178.1C146.793,167.481,146.732,167.509,146.669,167.536Z" transform="translate(-129.069 -146.527)" fill="#34541f"/><path d="M158.319,158.33c.029-.04.056-.082.083-.124s.053-.084.079-.126q.077-.127.148-.257c.048-.087.095-.174.141-.262l.138-.264-.065.134-.067.133q-.067.132-.139.263c-.048.087-.1.173-.15.257S158.379,158.25,158.319,158.33Z" transform="translate(-139.321 -138.421)" fill="#34541f"/><path d="M160.161,141.642a2.2,2.2,0,0,0,.176-.241,2.262,2.262,0,0,0,.143-.261,2.721,2.721,0,0,0,.186-.565c.005-.024.011-.049.016-.073s.008-.049.011-.074q.01-.074.015-.148a2.038,2.038,0,0,0,0-.3,1.886,1.886,0,0,0-.046-.294,2.016,2.016,0,0,0-.09-.284,2,2,0,0,1,.094.283,1.881,1.881,0,0,1,.048.295,2.034,2.034,0,0,1,0,.3c0,.05-.008.1-.014.149,0,.025-.007.049-.011.074s-.01.049-.015.073a2.724,2.724,0,0,1-.19.566,2.241,2.241,0,0,1-.144.261A2.173,2.173,0,0,1,160.161,141.642Z" transform="translate(-140.942 -122.676)" fill="#34541f"/><path d="M159.648,140.632a1.348,1.348,0,0,0,.184-.219,1.961,1.961,0,0,0,.142-.248c.042-.086.079-.174.114-.263q.026-.067.051-.134l.012-.034c0-.011.008-.023.011-.034s.013-.046.022-.069h0a1.564,1.564,0,0,0,.03-.288,1.722,1.722,0,0,0-.021-.289,2.191,2.191,0,0,0-.065-.282c-.027-.093-.06-.184-.1-.274.037.089.071.18.1.273a2.153,2.153,0,0,1,.066.283,1.707,1.707,0,0,1,.023.29,1.549,1.549,0,0,1-.029.289h0c-.008.022-.015.045-.022.068s-.007.023-.011.034l-.013.033q-.025.067-.052.134c-.035.089-.073.177-.115.263a1.936,1.936,0,0,1-.144.248A1.35,1.35,0,0,1,159.648,140.632Z" transform="translate(-140.49 -121.879)" fill="#34541f"/><path d="M157.828,140.242l.134-.187.067-.094c.022-.031.045-.062.065-.095.04-.065.075-.134.109-.2s.068-.138.1-.207c.067-.138.132-.278.186-.421a2.824,2.824,0,0,0,.129-.441c.032-.15.053-.3.071-.455a2.193,2.193,0,0,0,0-.459,1.965,1.965,0,0,0-.1-.448,2.713,2.713,0,0,0-.191-.418,2.735,2.735,0,0,1,.195.417,1.968,1.968,0,0,1,.1.448,2.205,2.205,0,0,1,0,.461c-.017.153-.038.305-.069.456a2.834,2.834,0,0,1-.131.442c-.055.144-.12.283-.188.421-.034.069-.068.138-.1.207s-.069.137-.11.2c-.02.033-.044.063-.066.095l-.067.093Z" transform="translate(-138.889 -120.395)" fill="#34541f"/><path d="M158.689,138.7c.089-.144.177-.288.261-.434s.168-.293.243-.445a3.081,3.081,0,0,0,.187-.47q.037-.121.062-.245.013-.062.022-.124t.018-.125a3.882,3.882,0,0,0,.035-.5,2.735,2.735,0,0,0-.045-.5,2.163,2.163,0,0,0-.149-.482,2.029,2.029,0,0,0-.261-.433,2.028,2.028,0,0,1,.265.431,2.162,2.162,0,0,1,.151.483,2.744,2.744,0,0,1,.046.5,3.855,3.855,0,0,1-.033.506c-.005.042-.012.084-.018.126s-.014.084-.023.125q-.026.124-.063.246a3.091,3.091,0,0,1-.189.47c-.075.152-.159.3-.244.444S158.779,138.562,158.689,138.7Z" transform="translate(-139.646 -118.745)" fill="#34541f"/><path d="M149.239,123.436a.013.013,0,0,0,0-.026.013.013,0,0,0,0,.026Z" transform="translate(-131.319 -108.601)" fill="url(#l)"/><line y1="0.018" x2="0.08" transform="translate(17.664 14.859)" fill="none"/><path d="M147.2,123.843l.04-.011.04-.007a.35.35,0,0,1-.039.011Z" transform="translate(-129.537 -108.966)" fill="#a08307"/><path d="M150,125.24a.305.305,0,0,1,.053,0l.052.011a.713.713,0,0,1,.1.036.975.975,0,0,1,.184.109,1.358,1.358,0,0,1,.16.142q.037.039.071.079c.023.027.045.055.066.084-.022-.028-.045-.055-.069-.081s-.048-.053-.073-.078a1.418,1.418,0,0,0-.16-.14,1,1,0,0,0-.181-.11.719.719,0,0,0-.1-.038A.435.435,0,0,0,150,125.24Z" transform="translate(-132.001 -110.212)" fill="#34541f"/><path d="M154.2,128.558a.274.274,0,1,1-.125-.008" transform="translate(-135.584 -113.124)" fill="#448127"/><path d="M154.2,128.558a.532.532,0,0,1,.052.033c.017.012.033.025.048.038a.5.5,0,0,1,.044.044.381.381,0,0,1,.037.049l.005.008-.009,0a.548.548,0,0,1-.085-.027.587.587,0,0,1-.08-.039.515.515,0,0,1-.136-.113.57.57,0,0,0,.14.108.69.69,0,0,0,.08.037.551.551,0,0,0,.084.026l0,.006a.42.42,0,0,0-.036-.049c-.013-.015-.028-.03-.042-.044s-.03-.027-.046-.04S154.215,128.569,154.2,128.558Z" transform="translate(-135.584 -113.124)" fill="#34541f"/><path d="M152.995,128.339s.271.173.31.187a.414.414,0,0,0-.189-.186" transform="translate(-134.636 -112.938)" fill="#448127"/><path d="M152.995,128.339l.155.093.078.047.039.023a.376.376,0,0,0,.04.021l0,.005a.4.4,0,0,0-.035-.057.5.5,0,0,0-.043-.052.413.413,0,0,0-.051-.044.344.344,0,0,0-.058-.035.318.318,0,0,1,.06.032.378.378,0,0,1,.052.043.416.416,0,0,1,.045.052.406.406,0,0,1,.036.058l0,.009-.009,0a.711.711,0,0,1-.08-.044l-.077-.047C153.1,128.406,153.045,128.373,152.995,128.339Z" transform="translate(-134.636 -112.938)" fill="#34541f"/><path d="M152.972,127.614s.141.06.173.164a1.355,1.355,0,0,1-.3-.163" transform="translate(-134.504 -112.3)" fill="#448127"/><path d="M152.972,127.614a.4.4,0,0,1,.055.027.418.418,0,0,1,.05.036.275.275,0,0,1,.043.045.184.184,0,0,1,.029.055l0,.008-.008,0-.078-.035-.077-.038c-.025-.013-.05-.027-.075-.042l-.036-.024a.16.16,0,0,1-.032-.029.168.168,0,0,0,.033.027l.036.022c.025.014.05.027.076.039.051.025.1.049.155.071l-.005,0a.181.181,0,0,0-.027-.053.286.286,0,0,0-.041-.044.4.4,0,0,0-.048-.037A.48.48,0,0,0,152.972,127.614Z" transform="translate(-134.504 -112.3)" fill="#34541f"/><path d="M152.112,128.517a1.258,1.258,0,0,0,.323.178.492.492,0,0,0-.2-.178" transform="translate(-133.859 -113.095)" fill="#448127"/><path d="M152.112,128.517l.078.051.079.049c.026.016.053.031.081.045l.042.019a.136.136,0,0,0,.043.011l0,.006a.473.473,0,0,0-.04-.054.6.6,0,0,0-.047-.049.486.486,0,0,0-.053-.042.4.4,0,0,0-.059-.034.4.4,0,0,1,.116.072.485.485,0,0,1,.048.049.477.477,0,0,1,.041.055l0,.006h-.007a.14.14,0,0,1-.046-.011l-.042-.02c-.028-.014-.054-.03-.081-.046l-.078-.051C152.162,128.554,152.137,128.536,152.112,128.517Z" transform="translate(-133.859 -113.095)" fill="#34541f"/><path d="M152.112,128.479s.13.11.2.11a.492.492,0,0,0-.2-.178" transform="translate(-133.859 -113.001)" fill="#448127"/><path d="M152.112,128.479l.048.034.049.031a.428.428,0,0,0,.052.027l.027.009a.105.105,0,0,0,.028,0l0,.006a.46.46,0,0,0-.04-.054.564.564,0,0,0-.047-.049.5.5,0,0,0-.053-.042.412.412,0,0,0-.059-.034.4.4,0,0,1,.116.072.488.488,0,0,1,.048.049.465.465,0,0,1,.041.055l0,.006h-.007a.146.146,0,0,1-.058-.015.442.442,0,0,1-.052-.028l-.048-.033C152.142,128.5,152.126,128.492,152.112,128.479Z" transform="translate(-133.859 -113.001)" fill="#34541f"/><path d="M151.571,126.931s.27.192.3.3a1.415,1.415,0,0,1-.29-.169" transform="translate(-133.382 -111.699)" fill="#448127"/><path d="M151.571,126.931c.03.02.058.041.086.063s.056.044.083.068a.957.957,0,0,1,.077.075.436.436,0,0,1,.034.042.17.17,0,0,1,.026.048l0,.009-.008,0-.076-.037-.075-.039c-.024-.014-.049-.028-.072-.043l-.035-.024a.17.17,0,0,1-.031-.029.185.185,0,0,0,.032.027l.035.023c.024.015.048.028.073.041.05.026.1.051.151.074l-.006,0a.172.172,0,0,0-.024-.046.451.451,0,0,0-.033-.041c-.024-.026-.05-.051-.076-.075s-.053-.047-.081-.069S151.6,126.953,151.571,126.931Z" transform="translate(-133.382 -111.699)" fill="#34541f"/><path d="M133.446,171.35a1.582,1.582,0,0,1-.767.18C133.052,171.22,133.419,171.212,133.446,171.35Z" transform="translate(-116.758 -150.713)" fill="#406325" stroke="#24420e" stroke-width="0.017"/><path d="M133.451,171.343c-.027-.138-.392-.129-.764.179a2.607,2.607,0,0,1,.764-.179Z" transform="translate(-116.765 -150.707)" fill="#67923d" stroke="#24420e" stroke-width="0.017"/><path d="M160.869,172.7a1.79,1.79,0,0,0,.88.28C161.354,172.576,160.92,172.535,160.869,172.7Z" transform="translate(-141.565 -151.896)" fill="#406325" stroke="#24420e" stroke-width="0.017"/><path d="M160.9,172.678c.051-.165.48-.125.876.28A2.994,2.994,0,0,0,160.9,172.678Z" transform="translate(-141.595 -151.876)" fill="#67923d" stroke="#24420e" stroke-width="0.017"/></g></g></svg>