<svg xmlns="http://www.w3.org/2000/svg" xmlns:xlink="http://www.w3.org/1999/xlink" width="36" height="36" viewBox="0 0 36 36"><defs><clipPath id="a"><circle cx="18" cy="18" r="18" fill="none"/></clipPath></defs><g clip-path="url(#a)"><g transform="translate(-6)"><rect width="48" height="36"/><path d="M-50,0H-2V36Z" transform="translate(50)" fill="#ce1126"/><path d="M157.878,38.877c-.355.458-1.194-.461-2.2-.482s-1.717.963-2.01,1.3a10.667,10.667,0,0,0-1.214,2.282c.021.189.586-.523.8-.649.021.251-.23.544-.168.628s.733-.5.963-.523c.063.168-.126.335-.063.586.084.084.461-.419.712-.523.042.189-.23.544-.084.775.1.021.733-.712.942-.8s-.1.691,0,.754c.188-.126.775-.8.963-.879s-.021.858.063.858a6.274,6.274,0,0,0,.879-1.089c.063-.126-.063,1.214.586,1.926a9.406,9.406,0,0,0,1.738,1.528c.126-.23-.042-.712.063-.691a3.53,3.53,0,0,0,.963.775c.126,0-.084-.5.084-.5a7.059,7.059,0,0,0,3.183,2.115c-.126-.356-.4-.67-.419-.837a5.729,5.729,0,0,0,.649.209c.084-.021-.921-1.256-.859-1.424.23-.021.335.126.419.021-.1-.168-.984-1.152-.984-1.382s.272.042.356,0-.335-.921-.251-1.026,1,.565,1.235.565.063-.817.168-.858.879.44,1.047.44.147-.356.209-.314,1.884,1.863,1.256,4a2.69,2.69,0,0,1-3.727,1.675,2.334,2.334,0,0,0,2.157.691,2.863,2.863,0,0,0,2.219-3.224,4.157,4.157,0,0,0-.942-2.7c-.1-.314.168.084.4.168s-.042-.44-.1-.67.691.482.879.544-.44-1.717-.628-1.842.188.042.314.084-1.152-1.947-1.424-1.947.23-.1.377-.1a6.221,6.221,0,0,0-1.738-1.3c-.272,0,.586-.335.67-.356a3.827,3.827,0,0,0-3.664.021c-.1-.084.848-.743.879-1.026.01-.073-.314-.23-.335-.314s.5-.335.523-.523c-.126-.168-.356-.1-.482-.147-.031-.157.44-.544.4-.712-.031-.094-.377-.126-.461-.063s.22-.44.168-.586c-.042-.063-.209-.021-.377.021-.1-.021.544-.921.419-1.047a5.117,5.117,0,0,0-2.533,2.094,4.157,4.157,0,0,0-.23,2.512c-.084.4-.189.8-.461.8a2.582,2.582,0,0,1-1.11-.628c-.209-.209-.251-.356-.544-.44a4.6,4.6,0,0,0-1.214.188c-.251.021-1.235-.188-1.3-.126a8.235,8.235,0,0,0,1.194.565c.23.126.251.293.419.4S158.381,38.228,157.878,38.877Zm6.135,2.952c.5.5,3.894,2.764,3.894,5.527s-2.471,2.68-3.183,2.6a2.59,2.59,0,0,0,3.811-2.6c0-2.764-3.894-5.527-4.4-5.779S163.51,41.327,164.013,41.829Z" transform="translate(-128.161 -28.417)" fill="#fcd116"/><path d="M78.683,147.4l.525,1.8h1.814l-1.432,1.1.525,1.752-1.432-1.1L77.251,152l.525-1.7-1.432-1.1H78.11Z" transform="translate(-61.183 -129.708)" fill="#fff"/><path d="M33.068,230.729l.525,1.8h1.814l-1.432,1.1.525,1.752-1.432-1.1-1.432,1.051.525-1.7-1.432-1.1H32.5Z" transform="translate(-21.042 -203.042)" fill="#fff"/><path d="M62.107,198.827l.262.9h.907l-.716.551.263.876-.716-.551-.716.526.263-.851-.716-.551h.883Z" transform="translate(-47.625 -174.968)" fill="#fff"/><path d="M33.068,92.967l.525,1.8h1.814l-1.432,1.1.525,1.752-1.432-1.1-1.432,1.051.525-1.7-1.432-1.1H32.5Z" transform="translate(-21.042 -81.811)" fill="#fff"/><path d="M-12.766,151.562l.525,1.8h1.814l-1.432,1.1.525,1.752-1.432-1.1-1.432,1.051.525-1.7-1.432-1.1h1.766Z" transform="translate(19.292 -133.375)" fill="#fff"/></g></g></svg>