<svg xmlns="http://www.w3.org/2000/svg" xmlns:xlink="http://www.w3.org/1999/xlink" width="36" height="36" viewBox="0 0 36 36"><defs><clipPath id="a"><circle cx="18" cy="18" r="18" fill="none"/></clipPath></defs><g clip-path="url(#a)"><g transform="translate(0)"><rect width="68.4" height="36" fill="#fff"/><rect width="68.4" height="2.769" fill="#b22234"/><rect width="68.4" height="2.769" transform="translate(0 5.538)" fill="#b22234"/><rect width="68.4" height="2.769" transform="translate(0 11.077)" fill="#b22234"/><rect width="68.4" height="2.769" transform="translate(0 16.615)" fill="#b22234"/><rect width="68.4" height="2.769" transform="translate(0 22.154)" fill="#b22234"/><rect width="68.4" height="2.769" transform="translate(0 27.692)" fill="#b22234"/><rect width="68.4" height="2.769" transform="translate(0 33.231)" fill="#b22234"/><rect width="27.36" height="19.385" fill="#3c3b6e"/><path d="M10.712,7.5l.652.474-.249.766.652-.474.652.474-.249-.766.652-.474h-.806l-.249-.766-.249.766Z" transform="translate(-9.426 -5.922)" fill="#fff"/><path d="M48.512,7.5l.652.474-.249.766.652-.474.652.474-.249-.766.652-.474h-.806l-.249-.766-.249.766Z" transform="translate(-42.69 -5.922)" fill="#fff"/><path d="M86.312,7.5l.652.474-.249.766.652-.474.652.474-.249-.766.652-.474h-.806l-.249-.766-.249.766Z" transform="translate(-75.954 -5.922)" fill="#fff"/><path d="M124.112,7.5l.652.474-.249.766.652-.474.652.474-.249-.766.652-.474h-.806l-.249-.766-.249.766Z" transform="translate(-109.219 -5.922)" fill="#fff"/><path d="M161.912,7.5l.652.474-.249.766.652-.474.652.474-.249-.766.652-.474h-.806l-.249-.766-.249.766Z" transform="translate(-142.482 -5.922)" fill="#fff"/><path d="M199.712,7.5l.652.474-.249.766.652-.474.652.474-.249-.766.652-.474h-.806l-.249-.766-.249.766Z" transform="translate(-175.746 -5.922)" fill="#fff"/><path d="M29.612,23.7l.652.474-.249.766.652-.474.652.474-.249-.766.652-.474h-.806l-.249-.766-.249.766Z" transform="translate(-26.058 -20.178)" fill="#fff"/><path d="M67.412,23.7l.652.474-.249.766.652-.474.652.474-.249-.766.652-.474h-.806l-.249-.766-.249.766Z" transform="translate(-59.322 -20.178)" fill="#fff"/><path d="M105.212,23.7l.652.474-.249.766.652-.474.652.474-.249-.766.652-.474h-.806l-.249-.766-.249.766Z" transform="translate(-92.587 -20.178)" fill="#fff"/><path d="M143.012,23.7l.652.474-.249.766.652-.474.652.474-.249-.766.652-.474h-.806l-.249-.766-.249.766Z" transform="translate(-125.85 -20.178)" fill="#fff"/><path d="M180.812,23.7l.652.474-.249.766.652-.474.652.474-.249-.766.652-.474h-.806l-.249-.766-.249.766Z" transform="translate(-159.114 -20.178)" fill="#fff"/><path d="M10.712,39.9l.652.474-.249.766.652-.474.652.474-.249-.766.652-.474h-.806l-.249-.766-.249.766Z" transform="translate(-9.426 -34.434)" fill="#fff"/><path d="M48.512,39.9l.652.474-.249.766.652-.474.652.474-.249-.766.652-.474h-.806l-.249-.766-.249.766Z" transform="translate(-42.69 -34.434)" fill="#fff"/><path d="M86.312,39.9l.652.474-.249.766.652-.474.652.474-.249-.766.652-.474h-.806l-.249-.766-.249.766Z" transform="translate(-75.954 -34.434)" fill="#fff"/><path d="M124.112,39.9l.652.474-.249.766.652-.474.652.474-.249-.766.652-.474h-.806l-.249-.766-.249.766Z" transform="translate(-109.219 -34.434)" fill="#fff"/><path d="M161.912,39.9l.652.474-.249.766.652-.474.652.474-.249-.766.652-.474h-.806l-.249-.766-.249.766Z" transform="translate(-142.482 -34.434)" fill="#fff"/><path d="M199.712,39.9l.652.474-.249.766.652-.474.652.474-.249-.766.652-.474h-.806l-.249-.766-.249.766Z" transform="translate(-175.746 -34.434)" fill="#fff"/><path d="M30.078,56.149l.652.474-.249.766.652-.474.652.474-.249-.766.652-.474h-.806l-.249-.766-.249.766Z" transform="translate(-26.469 -48.737)" fill="#fff"/><path d="M67.878,56.149l.652.474-.249.766.652-.474.652.474-.249-.766.652-.474h-.806l-.249-.766-.249.766Z" transform="translate(-59.733 -48.737)" fill="#fff"/><path d="M105.678,56.149l.652.474-.249.766.652-.474.652.474-.249-.766.652-.474h-.806l-.249-.766-.249.766Z" transform="translate(-92.997 -48.737)" fill="#fff"/><path d="M143.478,56.149l.652.474-.249.766.652-.474.652.474-.249-.766.652-.474h-.806l-.249-.766-.249.766Z" transform="translate(-126.261 -48.737)" fill="#fff"/><path d="M181.278,56.149l.652.474-.249.766.652-.474.652.474-.249-.766.652-.474h-.806l-.249-.766-.249.766Z" transform="translate(-159.525 -48.737)" fill="#fff"/><path d="M11.286,72.214l.652.474-.249.766.652-.474.652.474-.249-.766.652-.474h-.806l-.249-.766-.249.766Z" transform="translate(-9.931 -62.874)" fill="#fff"/><path d="M49.085,72.214l.652.474-.249.766.652-.474.652.474-.249-.766.652-.474h-.806l-.249-.766-.249.766Z" transform="translate(-43.195 -62.874)" fill="#fff"/><path d="M86.886,72.214l.652.474-.249.766.652-.474.652.474-.249-.766.652-.474h-.806l-.249-.766-.249.766Z" transform="translate(-76.459 -62.874)" fill="#fff"/><path d="M124.686,72.214l.652.474-.249.766.652-.474.652.474-.249-.766.652-.474h-.806l-.249-.766-.249.766Z" transform="translate(-109.723 -62.874)" fill="#fff"/><path d="M162.485,72.214l.652.474-.249.766.652-.474.652.474-.249-.766.652-.474h-.806l-.249-.766-.249.766Z" transform="translate(-142.987 -62.874)" fill="#fff"/><path d="M200.285,72.214l.652.474-.249.766.652-.474.652.474-.249-.766.652-.474h-.806l-.249-.766-.249.766Z" transform="translate(-176.251 -62.874)" fill="#fff"/><path d="M11.64,104.1l.652.474-.249.766.652-.474.652.474-.249-.766.652-.474h-.806l-.249-.766-.249.766Z" transform="translate(-10.243 -90.935)" fill="#fff"/><path d="M49.44,104.1l.652.474-.249.766.652-.474.652.474-.249-.766.652-.474h-.806l-.249-.766-.249.766Z" transform="translate(-43.507 -90.935)" fill="#fff"/><path d="M87.24,104.1l.652.474-.249.766.652-.474.652.474-.249-.766.652-.474h-.806l-.249-.766-.249.766Z" transform="translate(-76.771 -90.935)" fill="#fff"/><path d="M125.04,104.1l.652.474-.249.766.652-.474.652.474-.249-.766.652-.474h-.806l-.249-.766-.249.766Z" transform="translate(-110.035 -90.935)" fill="#fff"/><path d="M162.84,104.1l.652.474-.249.766.652-.474.652.474-.249-.766.652-.474h-.806l-.249-.766-.249.766Z" transform="translate(-143.299 -90.935)" fill="#fff"/><path d="M200.639,104.1l.652.474-.249.766.652-.474.652.474-.249-.766.652-.474h-.806l-.249-.766-.249.766Z" transform="translate(-176.563 -90.935)" fill="#fff"/><path d="M11.178,136.363l.652.474-.249.766.652-.474.652.474-.249-.766.652-.474h-.806l-.249-.766-.249.766Z" transform="translate(-9.837 -119.325)" fill="#fff"/><path d="M48.978,136.363l.652.474-.249.766.652-.474.652.474-.249-.766.652-.474h-.806l-.249-.766-.249.766Z" transform="translate(-43.1 -119.325)" fill="#fff"/><path d="M86.778,136.363l.652.474-.249.766.652-.474.652.474-.249-.766.652-.474h-.806l-.249-.766-.249.766Z" transform="translate(-76.365 -119.325)" fill="#fff"/><path d="M124.578,136.363l.652.474-.249.766.652-.474.652.474-.249-.766.652-.474h-.806l-.249-.766-.249.766Z" transform="translate(-109.629 -119.325)" fill="#fff"/><path d="M162.378,136.363l.652.474-.249.766.652-.474.652.474-.249-.766.652-.474h-.806l-.249-.766-.249.766Z" transform="translate(-142.892 -119.325)" fill="#fff"/><path d="M200.178,136.363l.652.474-.249.766.652-.474.652.474-.249-.766.652-.474h-.806l-.249-.766-.249.766Z" transform="translate(-176.156 -119.325)" fill="#fff"/><path d="M30.19,88l.652.474-.249.766.652-.474.652.474-.249-.766L32.3,88h-.806l-.249-.766L31,88Z" transform="translate(-26.567 -76.763)" fill="#fff"/><path d="M67.99,88l.652.474-.249.766.652-.474.652.474-.249-.766L70.1,88h-.806l-.249-.766L68.8,88Z" transform="translate(-59.832 -76.763)" fill="#fff"/><path d="M105.791,88l.652.474-.249.766.652-.474.652.474-.249-.766L107.9,88h-.806l-.249-.766L106.6,88Z" transform="translate(-93.096 -76.763)" fill="#fff"/><path d="M143.59,88l.652.474-.249.766.652-.474.652.474-.249-.766L145.7,88h-.806l-.249-.766L144.4,88Z" transform="translate(-126.359 -76.763)" fill="#fff"/><path d="M181.39,88l.652.474-.249.766.652-.474.652.474-.249-.766L183.5,88h-.806l-.249-.766L182.2,88Z" transform="translate(-159.623 -76.763)" fill="#fff"/><path d="M30.078,120.209l.652.474-.249.766.652-.474.652.474-.249-.766.652-.474h-.806l-.249-.766-.249.766Z" transform="translate(-26.469 -105.11)" fill="#fff"/><path d="M67.878,120.209l.652.474-.249.766.652-.474.652.474-.249-.766.652-.474h-.806l-.249-.766-.249.766Z" transform="translate(-59.733 -105.11)" fill="#fff"/><path d="M105.679,120.209l.652.474-.249.766.652-.474.652.474-.249-.766.652-.474h-.806l-.249-.766-.249.766Z" transform="translate(-92.997 -105.11)" fill="#fff"/><path d="M143.478,120.209l.652.474-.249.766.652-.474.652.474-.249-.766.652-.474h-.806l-.249-.766-.249.766Z" transform="translate(-126.261 -105.11)" fill="#fff"/><path d="M181.278,120.209l.652.474-.249.766.652-.474.652.474-.249-.766.652-.474h-.806l-.249-.766-.249.766Z" transform="translate(-159.525 -105.11)" fill="#fff"/></g></g></svg>