<svg xmlns="http://www.w3.org/2000/svg" xmlns:xlink="http://www.w3.org/1999/xlink" width="36" height="36" viewBox="0 0 36 36"><defs><clipPath id="a"><circle cx="18" cy="18" r="18" transform="translate(2012 389)" fill="#fff" stroke="#707070" stroke-width="1"/></clipPath><clipPath id="b"><rect width="61.714" height="36" fill="none"/></clipPath></defs><g transform="translate(-2012 -389)" clip-path="url(#a)"><g transform="translate(1669.542 110.96)"><g transform="translate(329.458 278.04)" clip-path="url(#b)"><rect width="61.714" height="36" fill="#fff"/><rect width="61.714" height="12" fill="#f0953e"/><rect width="61.714" height="12" transform="translate(0 24)" fill="#3b8916"/><path d="M369.171,295.024a5.4,5.4,0,1,0,5.4,5.4,5.4,5.4,0,0,0-5.4-5.4m-.006.526-.137,2.712.145,1.546.143-1.546-.137-2.712c.139,0,.275.007.411.019a.163.163,0,0,0,0,.027.223.223,0,0,0,.444.031c.135.024.265.053.4.087l-.835,2.585-.262,1.533.54-1.458.568-2.655c.132.035.262.076.391.122a.217.217,0,0,0-.017.082.223.223,0,0,0,.427.088c.125.058.245.121.364.188l-1.475,2.28-.651,1.413.9-1.268,1.236-2.418c.117.068.23.141.342.219a.223.223,0,1,0,.353.272c.1.088.206.18.3.277l-2.014,1.819-.994,1.2,1.2-.993,1.818-2.015c.1.1.188.2.275.3a.224.224,0,0,0,.141.4.22.22,0,0,0,.131-.044c.079.111.153.226.22.345l-2.416,1.236-1.269.9,1.413-.649,2.281-1.477c.071.123.135.252.2.383a.223.223,0,0,0,.169.413c.044.12.083.245.116.369l-2.657.568-1.457.539L371.3,300l2.585-.835c.035.131.065.263.091.4a.223.223,0,0,0,.032.444.115.115,0,0,0,.023,0c.011.135.019.271.019.409l-2.711-.138-1.549.145,1.548.143,2.712-.137c0,.137-.007.275-.019.41H374a.223.223,0,0,0-.033.444c-.025.135-.054.266-.089.4l-.921-.3-1.662-.538-1.531-.262.005,0h-.005l1.456.54,2.657.568c-.036.132-.077.26-.123.388a.185.185,0,0,0-.035-.01h0a.224.224,0,0,0-.269.218.205.205,0,0,0,.018.086h0a.2.2,0,0,0,.062.085h0a.089.089,0,0,0,.016.013h0l.018.01h0a.038.038,0,0,0,.014.009c-.058.125-.12.245-.188.362l-2.278-1.473h0l-1.413-.651.005,0,.738.522.525.374h0l2.415,1.235c-.069.12-.143.237-.223.35a.224.224,0,0,0-.354.182.221.221,0,0,0,.081.171c-.087.1-.175.2-.269.3l-1.82-2.014-1.194-.99.988,1.194,2.015,1.82c-.093.093-.192.182-.294.268a.226.226,0,0,0-.14-.05.224.224,0,0,0-.223.223.236.236,0,0,0,.02.094c-.117.082-.237.16-.361.23l-1.237-2.415-.9-1.269h0l.651,1.413,1.473,2.281c-.116.067-.236.129-.358.185a.223.223,0,0,0-.426.091.236.236,0,0,0,.014.08c-.128.046-.26.088-.392.125l-.568-2.657-.54-1.456h0l.263,1.531.835,2.585q-.2.052-.4.091a.224.224,0,0,0-.445.032c0,.008,0,.016,0,.023-.134.011-.271.019-.408.019l.139-2.711-.145-1.548-.145,1.548.139,2.711c-.14,0-.278-.007-.416-.019a.116.116,0,0,0,0-.023.223.223,0,0,0-.444-.033c-.132-.025-.263-.054-.39-.089l.835-2.583.261-1.531-.539,1.456-.569,2.657c-.132-.036-.263-.077-.39-.123a.214.214,0,0,0,.016-.082.222.222,0,0,0-.222-.223.226.226,0,0,0-.206.134c-.123-.058-.245-.12-.363-.188l1.476-2.279.649-1.413-.9,1.268-1.236,2.416c-.119-.068-.235-.143-.348-.221a.235.235,0,0,0,.044-.134.224.224,0,0,0-.225-.223.22.22,0,0,0-.172.084c-.1-.087-.2-.177-.3-.271l2.016-1.82.993-1.2h0l-1.2.994-1.821,2.014c-.095-.1-.188-.2-.277-.3a.222.222,0,0,0-.137-.4.224.224,0,0,0-.134.045c-.078-.112-.151-.228-.22-.346l2.419-1.236,1.266-.9-1.411.649-2.28,1.475c-.066-.116-.127-.234-.185-.355a.223.223,0,0,0-.076-.433.226.226,0,0,0-.1.022c-.046-.131-.088-.263-.125-.4l2.655-.57,1.459-.54-1.533.262-2.586.836c-.035-.132-.064-.263-.088-.4a.224.224,0,0,0-.032-.445h-.024c-.01-.134-.018-.271-.019-.408l2.712.137,1.546-.143-1.546-.145-2.712.139c0-.138.008-.274.019-.409a.31.31,0,0,0,.038,0,.223.223,0,0,0,.019-.446c.025-.135.053-.267.088-.4l2.586.835,1.533.261-1.458-.539-2.656-.569c.036-.132.077-.263.123-.39a.213.213,0,0,0,.081.016.221.221,0,0,0,.223-.222.226.226,0,0,0-.133-.206c.058-.123.12-.245.188-.363l2.28,1.476,1.413.649-1.268-.9-2.419-1.236c.07-.119.144-.234.222-.346a.219.219,0,0,0,.135.045.222.222,0,0,0,.136-.4c.088-.1.179-.2.274-.3L367.54,299l1.2.993-.993-1.2-2.016-1.821c.1-.1.2-.188.3-.276a.222.222,0,0,0,.4-.139.218.218,0,0,0-.042-.132c.111-.079.226-.151.344-.22l1.236,2.418.9,1.266-.648-1.411-1.477-2.281q.175-.1.357-.185a.221.221,0,0,0,.207.14.224.224,0,0,0,.225-.222.25.25,0,0,0-.019-.091c.128-.047.262-.088.4-.123l.569,2.654.539,1.459-.261-1.533-.835-2.585c.131-.034.263-.065.4-.088a.223.223,0,0,0,.444-.033.141.141,0,0,0,0-.025q.2-.017.407-.018" transform="translate(-338.314 -282.424)" fill="#16007e"/><path d="M370.774,301.215a.809.809,0,1,1-.81.809.808.808,0,0,1,.81-.809" transform="translate(-339.913 -284.021)" fill="#fff"/><path d="M370.836,301.463a.627.627,0,1,1-.628.628.627.627,0,0,1,.628-.628" transform="translate(-339.975 -284.085)" fill="#16007e"/></g></g></g></svg>