<svg xmlns="http://www.w3.org/2000/svg" xmlns:xlink="http://www.w3.org/1999/xlink" width="36" height="36" viewBox="0 0 36 36"><defs><clipPath id="a"><circle cx="18" cy="18" r="18" transform="translate(1272 907)" fill="#fff" stroke="#707070" stroke-width="1"/></clipPath><clipPath id="b"><rect width="61.716" height="36" fill="none"/></clipPath></defs><g transform="translate(-1272 -907)" clip-path="url(#a)"><g transform="translate(929.542 786.545)"><g transform="translate(329.458 120.455)" clip-path="url(#b)"><rect width="61.716" height="36" fill="#fff"/><rect width="61.716" height="9" transform="translate(0 27)" fill="#e53633"/><rect width="61.716" height="9" fill="#e53633"/><path d="M367.672,132.586l-.294.492a3.7,3.7,0,0,1-.874.9,5.4,5.4,0,0,0-.85.745l-.278.335.294-.077a4.307,4.307,0,0,0,.47-.152c.1-.041.177-.019.177.052v.007a.039.039,0,0,1,0,.013,2.106,2.106,0,0,1-.95.738,2.851,2.851,0,0,0-1.031.742l0,.014v.036l0,0v0h0l.006,0a.492.492,0,0,0,.313.005c.251-.056.353-.021.438.149.126.262.053.38-.24.38a1.122,1.122,0,0,0-.923.654c-.046.2-.239.364-.652.552a5.055,5.055,0,0,0-1.607,1.079.038.038,0,0,0,0,.017c0,.257.57.239,1.393-.045.185-.064.267,0,.406.318.174.393.171.4-.23.921a1.426,1.426,0,0,1-.8.6c-.532.112-.7.22-1.391.911a3.015,3.015,0,0,1-.74.607.1.1,0,0,0-.059.014v0l0,0v.007h0v.012l0,.007v.005l0,0a1.05,1.05,0,0,0,.626.3,2.07,2.07,0,0,0,.815-.383c.52-.368.545-.373.755-.164a.84.84,0,0,1,.219.513c0,.246-.131.359-.814.707a6.688,6.688,0,0,0-1.564,1.163c-.625.624-.8.739-1.066.7a.748.748,0,0,0-.292-.022l0,0,0,0,0,0v.01c0,.032.057.1.157.208a.759.759,0,0,0,.493.191,6.906,6.906,0,0,0,2.454-.913,1.047,1.047,0,0,1,1.2-.183c.539.318-.361.958-2.057,1.464a11.943,11.943,0,0,0-1.233.413l0,0,0,0h0v0c-.024.04.012.146.084.244.179.234,1.07.246,1.829.021.3-.091,1.062-.4,1.686-.679,1.127-.513,1.131-.512,1.525-.3.918.479.833,1.319-.269,2.7a2.693,2.693,0,0,1-1.68,1.059c-.286.07-.875.625-.875.824a.154.154,0,0,0,.008.05h.2a.643.643,0,0,0,.132-.136,1.6,1.6,0,0,1,1.235-.543,2.724,2.724,0,0,0,1.7-.764c.436-.406.876-.527,1.209-.332a.6.6,0,0,0,.572.036c.4-.15.591-.077.591.218a.6.6,0,0,0,.329.418,4.564,4.564,0,0,1,.72.565c.162.157.281.23.343.23h.013l.007,0,0,0,.009,0,0,0v0l0,0v0l0,0v0l0-.005v-.016a.854.854,0,0,0-.172-.4.52.52,0,0,1-.1-.289l0-.01v-.007l0,0,0-.006v0l0,0,0,0,0,0a3.577,3.577,0,0,1,.835.033,1.331,1.331,0,0,1,1.2.6,1.732,1.732,0,0,0,.509.45h.283a.187.187,0,0,0,.113-.105v-.026a5.942,5.942,0,0,0-.94-.894,2.636,2.636,0,0,1-1.315-2.609c0-.785.035-.987.219-1.189.287-.316.444-.308,1.146.059.532.277.7.3,1.9.275,1.3-.028,1.333-.02,1.985.362.365.214.812.5.994.64.4.3.813.323.909.046.114-.327-.652-.963-2.091-1.73s-1.583-.976-.923-1.323c.377-.2.4-.194,1,.138a1.3,1.3,0,0,0,1,.26l.392-.082-.861-.7a10.149,10.149,0,0,1-1.017-.916,1.559,1.559,0,0,0-1.215-.562.945.945,0,0,1-.491-.1l-.006-.006,0,0v-.005c-.135-.24.271-.354,1.4-.4,1.522-.06,1.73-.238.681-.577-.419-.134-1.046-.306-1.4-.381-.424-.092-.661-.191-.719-.307a.111.111,0,0,1-.013-.042.119.119,0,0,1,0-.033.226.226,0,0,1,.068-.124c.071-.079.413-.07.994.027.651.111,1.008.135,1.073.059s-.234-.3-.9-.671a9.471,9.471,0,0,1-1.715-1.218,5.328,5.328,0,0,0-1.133-.857c-.368-.174-.487-.292-.441-.428.084-.238.662-.241,1.037-.005a2.049,2.049,0,0,0,.886.171l.608,0-.4-.164a6.42,6.42,0,0,1-1.584-1.12.018.018,0,0,1,0-.011v-.012l0,0v0a1.728,1.728,0,0,1,.6-.03l.608.035-.877-.677a3.642,3.642,0,0,0-1.492-.806c-.341-.072-.729-.157-.865-.19a2.6,2.6,0,0,1-1.223-1.276Zm-2,3.414h.044a.3.3,0,0,1,.228.07l0,.005v0a.07.07,0,0,1,.009.021l0,.007v.017l0,.011v.007a.9.9,0,0,1-.286.318c-.1.074-.162.115-.2.11l-.008,0,0,0-.006-.006a.506.506,0,0,1-.027-.24c0-.246.044-.314.243-.32m2.959.3h.006a.281.281,0,0,1,.313.216c.029.166-.041.213-.313.213-.152,0-.24-.016-.284-.059a.17.17,0,0,1-.026-.154.279.279,0,0,1,.3-.216m-.867.073c.149-.012.21.077.21.267,0,.229-.087.3-.5.405a1.475,1.475,0,0,1-.55.072l0,0h0c-.142-.157-.018-.359.338-.546a1.515,1.515,0,0,1,.505-.194m1.994,0c.22-.007.248.1.14.405a.367.367,0,0,1-.341.192c-.219,0-.265-.053-.237-.274.026-.2.122-.286.341-.314a.854.854,0,0,1,.1-.01m-3.363.6h.023c.266,0,.1.5-.242.733-.306.206-.629.293-.72.213l0,0a.067.067,0,0,1-.015-.021l0-.005v-.019a.032.032,0,0,1,0-.012v0c.007-.275.649-.858.965-.885m2.5,1.163c.125-.015.207.125.162.38a.351.351,0,0,1-.341.265c-.146.019-.236.012-.271-.028v0l0-.007v-.005l0,0v-.01c-.017-.068.053-.194.208-.4a.43.43,0,0,1,.254-.19m-1,.057h.017c.255,0,.3.224.065.361a1.045,1.045,0,0,1-.243.114l0,0,0,0-.312-.1-.277-.093.312-.141a1.7,1.7,0,0,1,.447-.138m2.147.281a.864.864,0,0,1,.378.07c.231.1.275.18.232.433-.06.343-.248.382-.889.177-.315-.1-.347-.148-.246-.355a.6.6,0,0,1,.525-.325m-4.753.084h.02c.467,0,.532.081.3.38a2.463,2.463,0,0,1-.323.337c-.157.129-.2.116-.3-.089-.119-.244-.157-.4-.1-.5s.184-.125.4-.127m-1.227.206c.2-.005.321.089.479.361l.223.384-.333.129c-.3.117-.357.095-.608-.26-.159-.224-.22-.372-.177-.467,0-.007.009-.018.015-.026l.007-.007.006-.007a.575.575,0,0,1,.346-.1l.041-.005m7.343,1.151a.36.36,0,0,1,.415.388c-.042.319-.39.411-.675.181-.171-.138-.179-.189-.045-.389a.4.4,0,0,1,.306-.18m-4.169.6h.024a.171.171,0,0,1,.053.008c.008,0,.019.009.027.015l.008.007,0,0,0,0,0,.005a.29.29,0,0,1,.032.22c-.044.328-.261.424-.354.157-.084-.239,0-.409.2-.421m-1.394.252a.618.618,0,0,1,.4.179.331.331,0,0,1,.148.234c0,.006,0,.013,0,.019v.012l0,.009a.03.03,0,0,1-.007.011v.005l0,.005-.013.014,0,0c-.064.05-.2.038-.355-.082a.682.682,0,0,1-.243-.295v-.01a.1.1,0,0,1,.088-.106m2.215.047c.044,0,.089.039.164.122a1.351,1.351,0,0,1,.246.446c.1.338-.056.478-.356.325a.456.456,0,0,1-.214-.72c.07-.111.114-.168.16-.173m.774.459c.082-.011.193.111.22.318a.335.335,0,0,1-.037.256h0l0,0,0,0,0,0H369c-.157,0-.248-.142-.248-.4,0-.121.041-.18.091-.187m-4.855.487a2.2,2.2,0,0,1,.4.028.6.6,0,0,1,.307.129.177.177,0,0,1,.026.037l.006.021a.1.1,0,0,1,0,.042c-.019.1-.155.211-.407.345a3.489,3.489,0,0,1-.792.281c-.374.07-.424.044-.581-.289a2.532,2.532,0,0,1-.169-.421v-.01l0,0v0a3.572,3.572,0,0,1,1.2-.157m7.53,1.1c.436-.02.672.275.2.641a.856.856,0,0,1-1.03.021c-.2-.16-.19-.184.174-.428a1.316,1.316,0,0,1,.658-.234m1.59.344a.118.118,0,0,1,.023,0,.739.739,0,0,1,.33.171c.211.17.21.18-.052.489a1.172,1.172,0,0,1-.323.3h-.009c-.034-.011-.227-.041-.424-.068-.22-.03-.359-.119-.359-.228a.07.07,0,0,1,0-.016,1.512,1.512,0,0,1,.812-.644m-7.989.487h.071c.3,0,.465.247.465.7,0,.6-.369.555-.538-.07-.148-.545-.162-.616,0-.625m2.284.171a1.59,1.59,0,0,1,.675.164v0l0,0v.012a1.967,1.967,0,0,1-.262.426l-.26.349-.137-.45a1.884,1.884,0,0,1-.1-.477v0l0,0v-.007l0,0h0l0,0,0,0a.183.183,0,0,1,.061-.01m-1.111.2a.765.765,0,0,1,.155.016.365.365,0,0,1,.3.268.457.457,0,0,1-.026.316l-.01.013a.051.051,0,0,1-.013.012l-.006.005a.1.1,0,0,1-.026.011l-.012,0h-.021c-.073-.009-.169-.1-.252-.278-.1-.2-.14-.3-.125-.342a.022.022,0,0,1,.007-.009.054.054,0,0,1,.033-.014" transform="translate(-337.061 -123.586)" fill="#419f43"/></g></g></g></svg>