<svg xmlns="http://www.w3.org/2000/svg" xmlns:xlink="http://www.w3.org/1999/xlink" width="36" height="36" viewBox="0 0 36 36"><defs><clipPath id="a"><circle cx="18" cy="18" r="18" transform="translate(2019 408)" fill="#fff" stroke="#707070" stroke-width="1"/></clipPath><clipPath id="b"><rect width="61.716" height="36" fill="none"/></clipPath></defs><g transform="translate(-2019 -408)" clip-path="url(#a)"><g transform="translate(1377.167 -106.419)"><g transform="translate(628.834 514.419)"><g clip-path="url(#b)"><rect width="61.716" height="36" fill="#1a0095"/><rect width="61.716" height="18" transform="translate(0 8.999)" fill="#ba0019"/><rect width="22.887" height="3.7" transform="translate(19.414 17.966)" fill="#fff"/><path d="M677.918,542.366H654.986l-.046-3.746,22.933-.046Zm-.091-3.746-22.841.046.045,3.654,22.8-.045Z" transform="translate(-635.572 -520.653)" fill="#ba0019"/><path d="M654.852,543.623l-.37.871H678.14l-.369-.871Z" transform="translate(-635.453 -521.956)" fill="#fff"/><path d="M678.184,544.523h-23.8l.4-.934,22.96-.028Zm-23.66-.091h23.522l-.343-.808-22.876.028Z" transform="translate(-635.429 -521.94)" fill="#ba0019"/><path d="M679.193,543.623l-.448.871h5.38l-.448-.871Z" transform="translate(-641.715 -521.956)" fill="#fff"/><path d="M684.174,544.523h-5.53l.482-.938,4.525-.024Zm-5.383-.091h5.234l-.415-.8-4.443.024Z" transform="translate(-641.689 -521.94)" fill="#ba0019"/><path d="M681.018,543.623l-.226.871H683.5l-.226-.871Z" transform="translate(-642.243 -521.956)" fill="#fff"/><path d="M683.561,544.523h-2.769l.182-.928,2.3-.034Zm-.329-.905-2.214.034-.182.837,2.608-.056Z" transform="translate(-642.244 -521.94)" fill="#ba0019"/><path d="M681.586,543.623l-.145.871h1.752l-.146-.871Z" transform="translate(-642.411 -521.956)" fill="#fff"/><path d="M683.246,544.524H681.44l.1-.924,1.505-.038Zm-.245-.91-1.415.039-.1.832,1.654-.051Z" transform="translate(-642.411 -521.94)" fill="#ba0019"/><path d="M667.084,543.623l-.471.871h5.657l-.472-.871Z" transform="translate(-638.584 -521.956)" fill="#fff"/><path d="M672.32,544.523h-5.809l.507-.939,4.755-.024Zm-5.659-.091h5.507l-.435-.8-4.675.024Z" transform="translate(-638.558 -521.94)" fill="#ba0019"/><rect width="23.143" height="0.871" transform="translate(19.286 17.91)" fill="#fff"/><path d="M678,539.459H654.813l-.045-.916,23.189-.046Zm-.091-.916-23.1.046.046.825,23.051-.045Z" transform="translate(-635.527 -520.633)" fill="#ba0019"/><rect width="4.536" height="3.686" transform="translate(37.443 17.974)" fill="#fff"/><path d="M683.867,542.361h-4.582l-.045-3.731,4.582-.046Zm-.091-3.731-4.491.046.046,3.64,4.445-.045Z" transform="translate(-641.843 -520.656)" fill="#ba0019"/><rect width="0.453" height="1.959" transform="translate(40.688 19.702)" fill="#fff"/><path d="M684.16,542.962h-.5l-.045-2,.5-.046Zm-.091-2-.408.046.046,1.913.362-.041Z" transform="translate(-642.972 -521.256)" fill="#ba0019"/><rect width="0.453" height="1.959" transform="translate(38.692 19.702)" fill="#fff"/><path d="M681.469,542.962h-.5l-.045-2,.5-.046Zm-.091-2-.408.046.046,1.913.362-.041Z" transform="translate(-642.278 -521.256)" fill="#ba0019"/><path d="M668.727,543.623l-.236.871h2.842l-.237-.871Z" transform="translate(-639.069 -521.956)" fill="#fff"/><path d="M671.391,544.523h-2.9l.193-.928,2.412-.034Zm-.34-.905-2.325.034-.193.837,2.74-.056Z" transform="translate(-639.069 -521.94)" fill="#ba0019"/><path d="M669.373,543.623l-.148.871h1.782l-.148-.871Z" transform="translate(-639.258 -521.956)" fill="#fff"/><path d="M671.06,544.524h-1.836l.1-.924,1.531-.038Zm-.247-.909-1.44.038-.1.833,1.683-.052Z" transform="translate(-639.258 -521.94)" fill="#ba0019"/><rect width="4.779" height="3.7" transform="translate(28.445 17.966)" fill="#fff"/><path d="M671.983,542.366h-4.825l-.045-3.746,4.825-.046Zm-.091-3.746-4.733.046.046,3.654,4.687-.045Z" transform="translate(-638.713 -520.653)" fill="#ba0019"/><rect width="0.453" height="1.959" transform="translate(32.253 19.701)" fill="#fff"/><path d="M672.79,542.961h-.5l-.045-2,.5-.046Zm-.091-2-.409.046.046,1.913.363-.041Z" transform="translate(-640.038 -521.256)" fill="#ba0019"/><rect width="0.453" height="1.959" transform="translate(29.096 19.701)" fill="#fff"/><path d="M668.536,542.961h-.5l-.045-2,.5-.046Zm-.091-2-.408.046.046,1.913.362-.041Z" transform="translate(-638.94 -521.256)" fill="#ba0019"/><rect width="2.314" height="4.595" transform="translate(29.7 17.071)" fill="#fff"/><path d="M671.21,542.053h-2.36l-.045-4.641,2.36-.046Zm-.091-4.641-2.269.046.046,4.549,2.223-.044Z" transform="translate(-639.15 -520.341)" fill="#ba0019"/><rect width="0.453" height="1.959" transform="translate(31.436 19.701)" fill="#fff"/><path d="M671.689,542.961h-.5l-.045-2,.5-.046Zm-.091-2-.408.046.046,1.913.362-.041Z" transform="translate(-639.754 -521.256)" fill="#ba0019"/><rect width="0.454" height="1.959" transform="translate(29.913 19.701)" fill="#fff"/><path d="M669.636,542.961h-.5l-.045-2,.5-.046Zm-.091-2-.409.046.046,1.913.363-.041Z" transform="translate(-639.224 -521.256)" fill="#ba0019"/><path d="M669.069,538.423l.977,1.412,1.036-1.412Z" transform="translate(-639.218 -520.614)" fill="#fff"/><path d="M670.015,539.9l-1.062-1.536h2.189Zm-.89-1.445.892,1.288.945-1.288Z" transform="translate(-639.188 -520.598)" fill="#ba0019"/><rect width="1.285" height="4.571" transform="translate(39.244 17.966)" fill="#fff"/><path d="M683.043,543.237h-1.331l-.045-4.617,1.331-.046Zm-.091-4.617-1.24.046.046,4.525,1.194-.043Z" transform="translate(-642.469 -520.653)" fill="#ba0019"/><rect width="0.856" height="4.571" transform="translate(39.457 17.966)" fill="#fff"/><path d="M682.9,543.237H682l-.045-4.617.9-.046Zm-.091-4.617-.811.046.046,4.525.765-.042Z" transform="translate(-642.543 -520.653)" fill="#ba0019"/><path d="M655.239,543.623l-.448.871h5.381l-.448-.871Z" transform="translate(-635.533 -521.956)" fill="#fff"/><path d="M660.221,544.523H654.69l.482-.938,4.526-.024Zm-5.384-.091h5.235l-.415-.8-4.444.024Z" transform="translate(-635.507 -521.94)" fill="#ba0019"/><path d="M656.773,543.623l-.211.871h2.53l-.211-.871Z" transform="translate(-635.99 -521.956)" fill="#fff"/><path d="M659.151,544.523h-2.588l.166-.927,2.153-.035Zm-.313-.906-2.064.035-.167.836,2.429-.055Z" transform="translate(-635.99 -521.94)" fill="#ba0019"/><path d="M657.305,543.623l-.135.871h1.615l-.135-.871Z" transform="translate(-636.147 -521.956)" fill="#fff"/><path d="M658.839,544.524H657.17l.091-.924,1.391-.038Zm-.232-.91-1.3.039-.089.832,1.516-.051Z" transform="translate(-636.147 -521.94)" fill="#ba0019"/><rect width="4.5" height="3.7" transform="translate(19.672 17.966)" fill="#fff"/><path d="M659.878,542.366h-4.546l-.045-3.746,4.546-.046Zm-.091-3.746-4.454.046.046,3.654,4.409-.045Z" transform="translate(-635.661 -520.653)" fill="#ba0019"/><rect width="0.453" height="1.959" transform="translate(20.549 19.702)" fill="#fff"/><path d="M657.015,542.962h-.5l-.045-2,.5-.046Zm-.091-2-.408.046.046,1.913.362-.041Z" transform="translate(-635.966 -521.256)" fill="#ba0019"/><rect width="0.453" height="1.959" transform="translate(22.636 19.702)" fill="#fff"/><path d="M659.828,542.962h-.5l-.045-2,.5-.046Zm-.091-2-.408.046.046,1.913.362-.041Z" transform="translate(-636.692 -521.256)" fill="#ba0019"/><rect width="1.285" height="4.571" transform="translate(21.215 17.966)" fill="#fff"/><path d="M658.744,543.237h-1.331l-.045-4.617,1.331-.046Zm-.091-4.617-1.24.046.046,4.525,1.194-.043Z" transform="translate(-636.198 -520.653)" fill="#ba0019"/><rect width="0.856" height="4.571" transform="translate(21.428 17.966)" fill="#fff"/><path d="M658.6,543.237h-.9l-.045-4.617.9-.046Zm-.091-4.617-.811.046.046,4.525.765-.042Z" transform="translate(-636.272 -520.653)" fill="#ba0019"/><rect width="23.657" height="0.87" transform="translate(19.029 17.096)" fill="#fff"/><path d="M678.17,538.362h-23.7l-.046-.916,23.7-.046Zm-.091-.916-23.611.046.045.824,23.566-.045Z" transform="translate(-635.438 -520.35)" fill="#ba0019"/><rect width="24.876" height="1.12" transform="translate(18.372 22.32)" fill="#fff"/><path d="M678.5,545.653H653.58l-.045-1.166,24.922-.046Zm-.091-1.166-24.831.046.046,1.074,24.785-.045Z" transform="translate(-635.209 -522.167)" fill="#ba0019"/><rect width="25.636" height="1.12" transform="translate(17.992 22.559)" fill="#fff"/><path d="M678.75,545.976H653.069l-.046-1.166,25.682-.046Zm-.091-1.166-25.59.046.045,1.074,25.545-.045Z" transform="translate(-635.077 -522.251)" fill="#ba0019"/><rect width="27.06" height="1.12" transform="translate(17.327 23.199)" fill="#fff"/><path d="M679.279,546.838H652.174l-.046-1.166,27.106-.046Zm-.091-1.166-27.014.046.045,1.074,26.969-.046Z" transform="translate(-634.846 -522.473)" fill="#ba0019"/><rect width="28.958" height="1.12" transform="translate(16.379 23.999)" fill="#fff"/><path d="M679.9,547.915h-29l-.045-1.165,29-.046Zm-.091-1.165-28.913.046.046,1.074,28.867-.046Z" transform="translate(-634.516 -522.751)" fill="#ba0019"/><rect width="30.844" height="1.107" transform="translate(15.436 25.125)" fill="#fff"/><path d="M680.513,549.421h-30.89l-.045-1.153,30.89-.046Zm-.091-1.153-30.8.046.046,1.061,30.753-.045Z" transform="translate(-634.187 -523.143)" fill="#ba0019"/><rect width="1.285" height="3.918" transform="translate(21.215 22.32)" fill="#fff"/><path d="M658.744,548.451h-1.331l-.045-3.964,1.331-.046Zm-.091-3.964-1.24.046.046,3.872,1.194-.043Z" transform="translate(-636.198 -522.167)" fill="#ba0019"/><rect width="0.858" height="3.918" transform="translate(21.429 22.32)" fill="#fff"/><path d="M658.6,548.451h-.9l-.044-3.964.9-.046Zm-.091-3.964-.813.046.047,3.872.766-.042Z" transform="translate(-636.272 -522.167)" fill="#ba0019"/><rect width="1.285" height="3.918" transform="translate(39.215 22.32)" fill="#fff"/><path d="M683.005,548.451h-1.331l-.045-3.964,1.331-.046Zm-.091-3.964-1.24.046.046,3.872,1.194-.043Z" transform="translate(-642.46 -522.167)" fill="#ba0019"/><rect width="0.858" height="3.918" transform="translate(39.429 22.32)" fill="#fff"/><path d="M682.866,548.451h-.9l-.045-3.964.9-.046Zm-.091-3.964-.812.046.046,3.872.766-.042Z" transform="translate(-642.534 -522.167)" fill="#ba0019"/><rect width="1.033" height="8.272" transform="translate(30.382 17.966)" fill="#fff"/><path d="M670.848,546.937h-1.079l-.046-8.318,1.079-.046Zm-.091-8.318-.988.046.045,8.226.942-.043Z" transform="translate(-639.387 -520.653)" fill="#ba0019"/><path d="M679.7,537.886l.013-2.268s.23.445,2.021.542c1.695-.057,1.976-.33,2.053-.57l-.07,2.305Z" transform="translate(-641.961 -519.883)" fill="#fff"/><path d="M683.746,537.892l-4.06-.009-.033-2.313,0-.171.084.149s.26.425,1.984.519c1.644-.056,1.936-.317,2.007-.539l.089.016Zm-4-2.209-.012,2.154,3.926-.036.064-2.076c-.184.21-.659.387-2,.433a3.53,3.53,0,0,1-1.978-.474" transform="translate(-641.949 -519.833)" fill="#ba0019"/><path d="M681.065,534.727l-.554-.445c.185-.116.528.083.528.083a1.02,1.02,0,0,1,1.953,0s.343-.2.528-.083l-.555.445Z" transform="translate(-642.171 -519.379)" fill="#fff"/><path d="M682.972,534.758h-1.916l-.582-.455a.167.167,0,0,1,.171-.117.966.966,0,0,1,.4.121c-.028-.048.186-.519.949-.726a1.446,1.446,0,0,1,1.023.734.533.533,0,0,1,.518-.086Zm-2.327-.482a.226.226,0,0,0-.119.03l.559.371,1.856-.01.488-.392a.558.558,0,0,1-.061,0,.9.9,0,0,0-.362.113,1.742,1.742,0,0,0-1.011-.721,1.329,1.329,0,0,0-.922.7c-.076.021-.263-.089-.427-.089" transform="translate(-642.161 -519.364)" fill="#ba0019"/><path d="M680.622,536.132l-.72-.624c.241-.162.686.116.686.116a1.3,1.3,0,0,1,2.54,0s.447-.277.687-.116l-.721.624Z" transform="translate(-642.014 -519.629)" fill="#fff"/><path d="M683.1,536.162h-2.488l-.75-.635a.219.219,0,0,1,.216-.13,1.175,1.175,0,0,1,.519.17c-.036-.049.231-.724,1.237-1.018a1.89,1.89,0,0,1,1.319,1.028.689.689,0,0,1,.676-.122Zm-3.022-.674a.286.286,0,0,0-.161.043l.725.552,2.425-.012.689-.6a.259.259,0,0,1-.138.013,1.119,1.119,0,0,0-.476.159,2.2,2.2,0,0,0-1.306-1.01,1.79,1.79,0,0,0-1.215.987c-.07.025-.327-.136-.542-.136" transform="translate(-642.003 -519.614)" fill="#ba0019"/><path d="M682.42,530.42c.023,0,.862,1.5,0,1.524s0-1.478,0-1.524" transform="translate(-642.565 -518.549)" fill="#fff"/><path d="M682.385,531.985a.377.377,0,0,1-.346-.16c-.2-.326.148-1.058.282-1.333.021-.044.036-.074.039-.085a.056.056,0,0,1,.043.01h.047a.071.071,0,0,1-.01.033,2.186,2.186,0,0,1,.4,1.065.408.408,0,0,1-.433.471Zm.027-1.475-.01.02c-.114.239-.464.962-.286,1.246a.288.288,0,0,0,.269.118v.045l.017-.046a.308.308,0,0,0,.308-.169c.144-.318-.177-1-.3-1.215" transform="translate(-642.549 -518.545)" fill="#ba0019"/><path d="M681.423,532.788l-.426-.234a.707.707,0,0,1,.406.043s.142-.268.751-.381c.609.114.751.381.751.381a.71.71,0,0,1,.407-.043l-.427.234Z" transform="translate(-642.296 -519.012)" fill="#fff"/><path d="M682.859,532.819h-1.473l-.53-.285.085-.037a.809.809,0,0,1,.433.041c-.015-.032.161-.275.734-.381a1.153,1.153,0,0,1,.79.391.514.514,0,0,1,.393-.05l.085.037Zm-1.755-.252.3.167,1.428-.006.293-.161a1.03,1.03,0,0,0-.245.058,1.368,1.368,0,0,0-.775-.378c-.559.107-.7.355-.7.358a1.52,1.52,0,0,1-.3-.038" transform="translate(-642.26 -518.997)" fill="#ba0019"/><path d="M682.047,533.045l-.01-.191a.385.385,0,0,1,.771,0l-.01.191Z" transform="translate(-642.565 -519.078)" fill="#fff"/><path d="M682.824,533.076h-.793l-.056-.234a.646.646,0,0,1,.416-.426.654.654,0,0,1,.444.412Zm-.433-.574a.568.568,0,0,0-.326.35l.012.177.662-.041.008-.15a.584.584,0,0,0-.355-.336" transform="translate(-642.549 -519.064)" fill="#ba0019"/><path d="M681.538,533.748l-.021-.254a.84.84,0,0,1,1.543,0l-.021.254Z" transform="translate(-642.431 -519.211)" fill="#fff"/><path d="M683.065,533.779h-1.543l-.066-.3c.01-.036.165-.4.806-.556a1.1,1.1,0,0,1,.824.535Zm-.8-.763a1.017,1.017,0,0,0-.719.481l.024.233,1.415-.041.018-.212h0a1.1,1.1,0,0,0-.737-.461" transform="translate(-642.415 -519.196)" fill="#ba0019"/><path d="M681.538,534.262l-.021-.254a.84.84,0,0,1,1.543,0l-.021.254Z" transform="translate(-642.431 -519.344)" fill="#fff"/><path d="M683.065,534.292h-1.543l-.066-.3c.01-.036.165-.4.806-.556a1.1,1.1,0,0,1,.824.535Zm-.8-.763a1.017,1.017,0,0,0-.719.481l.024.233,1.415-.041.018-.212h0a1.1,1.1,0,0,0-.737-.461" transform="translate(-642.415 -519.328)" fill="#ba0019"/><path d="M681.423,535.538l-.426-.624c.142-.162.406.116.406.116a.786.786,0,1,1,1.5,0s.265-.277.407-.116l-.427.624Z" transform="translate(-642.296 -519.476)" fill="#fff"/><path d="M682.9,535.569H681.41l-.464-.644c.116-.274.318-.077.418.005a1.559,1.559,0,0,1,.757-.972,1.543,1.543,0,0,1,.8.973c.1-.083.311-.182.415-.061Zm-1.8-.674a.1.1,0,0,0-.077.035l.43.568,1.4-.019.407-.6c-.017.02-.039.012-.067.012a.486.486,0,0,0-.263.152l-.06.063-.017-.085a1.528,1.528,0,0,0-.726-.985,1.57,1.57,0,0,0-.687.985l-.016.086-.061-.064a.484.484,0,0,0-.262-.152" transform="translate(-642.283 -519.462)" fill="#ba0019"/><path d="M681.423,536.564l-.426-.623c.142-.162.406.115.406.115a.785.785,0,1,1,1.5,0s.265-.277.407-.115l-.427.623Z" transform="translate(-642.296 -519.741)" fill="#fff"/><path d="M682.9,536.6H681.41l-.464-.643c.116-.276.318-.078.418.005a.8.8,0,1,1,1.553,0c.1-.083.312-.18.415-.06Zm-1.8-.674a.1.1,0,0,0-.077.035l.43.568,1.4-.019.407-.595c-.018.021-.04.012-.068.012a.485.485,0,0,0-.263.151l-.06.063-.017-.085a1.526,1.526,0,0,0-.726-.984,1.568,1.568,0,0,0-.687.984l-.016.085-.061-.063a.483.483,0,0,0-.262-.151" transform="translate(-642.283 -519.727)" fill="#ba0019"/><path d="M681.538,537.973l-.021-.634a.869.869,0,1,1,1.543,0l-.021.634Z" transform="translate(-642.431 -520.007)" fill="#fff"/><path d="M683.067,538h-1.545l-.067-.679a2.033,2.033,0,0,1,.794-1.31,1.97,1.97,0,0,1,.84,1.3Zm-.818-1.91a2.069,2.069,0,0,0-.7,1.238l.022.626,1.411-.043.02-.592a1.981,1.981,0,0,0-.749-1.229" transform="translate(-642.415 -519.993)" fill="#ba0019"/><path d="M681.423,538.238,681,537.77c.142-.121.406.087.406.087a.751.751,0,1,1,1.5,0s.265-.208.407-.087l-.427.467Z" transform="translate(-642.296 -520.271)" fill="#fff"/><path d="M682.893,538.268h-1.482l-.459-.483c.042-.1.089-.113.144-.113a.55.55,0,0,1,.271.1.776.776,0,0,1,1.55,0c.094-.062.3-.142.413-.05Zm-1.8-.506a.118.118,0,0,0-.081.027l.43.4,1.407-.014.38-.416a.2.2,0,0,1-.043,0,.538.538,0,0,0-.267.115l-.055.043-.018-.067a.708.708,0,1,0-1.415,0l-.017.067-.055-.043a.56.56,0,0,0-.266-.115" transform="translate(-642.285 -520.256)" fill="#ba0019"/><path d="M656.838,534.508l-.554-.446c.185-.115.528.083.528.083a1.02,1.02,0,0,1,1.953,0s.344-.2.528-.083l-.554.446Z" transform="translate(-635.918 -519.323)" fill="#fff"/><path d="M658.745,534.54h-1.917l-.582-.456a.168.168,0,0,1,.171-.117.972.972,0,0,1,.4.12c-.028-.047.186-.519.949-.725a1.446,1.446,0,0,1,1.023.734.536.536,0,0,1,.518-.086Zm-2.328-.482a.224.224,0,0,0-.119.029l.559.372,1.857-.01.487-.392c-.019,0-.039,0-.061,0a.9.9,0,0,0-.362.112,1.743,1.743,0,0,0-1.011-.72,1.33,1.33,0,0,0-.922.7c-.074.022-.263-.088-.427-.088" transform="translate(-635.909 -519.308)" fill="#ba0019"/><path d="M656.4,535.912l-.722-.623c.241-.162.688.115.688.115a1.3,1.3,0,0,1,2.539,0s.446-.277.686-.115l-.721.623Z" transform="translate(-635.761 -519.573)" fill="#fff"/><path d="M658.874,535.942h-2.487l-.751-.634a.219.219,0,0,1,.217-.13,1.178,1.178,0,0,1,.519.169c-.036-.049.231-.724,1.237-1.018a1.89,1.89,0,0,1,1.32,1.028.691.691,0,0,1,.675-.121Zm-3.021-.674a.288.288,0,0,0-.162.043l.726.551,2.424-.011.689-.6c-.036.024-.084.013-.138.013a1.117,1.117,0,0,0-.476.159,2.206,2.206,0,0,0-1.307-1.01,1.783,1.783,0,0,0-1.214.987c-.064.029-.326-.135-.542-.135" transform="translate(-635.751 -519.557)" fill="#ba0019"/><path d="M655.678,537.886l.013-2.268s.23.445,2.02.542c1.695-.057,1.976-.33,2.053-.57l-.07,2.305Z" transform="translate(-635.762 -519.883)" fill="#fff"/><path d="M659.727,537.892l-4.061-.009-.033-2.313,0-.171.084.149s.26.425,1.983.519c1.644-.056,1.936-.317,2.007-.539l.089.016Zm-4-2.209-.013,2.154,3.926-.036.064-2.076c-.184.21-.659.387-2,.433a3.523,3.523,0,0,1-1.977-.474" transform="translate(-635.751 -519.833)" fill="#ba0019"/><path d="M658.158,530.42c.023,0,.862,1.5,0,1.524s0-1.478,0-1.524" transform="translate(-636.303 -518.549)" fill="#fff"/><path d="M658.124,531.985a.377.377,0,0,1-.346-.16c-.2-.326.148-1.058.282-1.333.021-.044.036-.074.039-.085a.055.055,0,0,1,.043.01h.047a.071.071,0,0,1-.01.033,2.186,2.186,0,0,1,.4,1.065.408.408,0,0,1-.432.471Zm.027-1.475-.01.02c-.114.239-.464.962-.286,1.246a.288.288,0,0,0,.269.118v.045l.017-.046a.308.308,0,0,0,.308-.169c.144-.318-.177-1-.3-1.215" transform="translate(-636.288 -518.545)" fill="#ba0019"/><path d="M657.162,532.788l-.426-.234a.707.707,0,0,1,.406.043s.142-.268.751-.381c.609.114.752.381.752.381a.707.707,0,0,1,.406-.043l-.426.234Z" transform="translate(-636.035 -519.012)" fill="#fff"/><path d="M658.6,532.819h-1.473l-.53-.285.085-.037a.808.808,0,0,1,.433.041c-.015-.032.161-.275.734-.381a1.158,1.158,0,0,1,.791.391.513.513,0,0,1,.393-.05l.085.037Zm-1.755-.252.3.167,1.429-.006.293-.161a.991.991,0,0,0-.245.058,1.373,1.373,0,0,0-.776-.378c-.559.107-.7.355-.7.358a1.52,1.52,0,0,1-.3-.038" transform="translate(-635.999 -518.997)" fill="#ba0019"/><path d="M657.785,533.045l-.01-.191a.385.385,0,0,1,.771,0l-.01.191Z" transform="translate(-636.303 -519.078)" fill="#fff"/><path d="M658.563,533.076h-.793l-.056-.234a.646.646,0,0,1,.416-.426.654.654,0,0,1,.444.412Zm-.433-.574a.569.569,0,0,0-.326.35l.012.177.662-.041.008-.15a.584.584,0,0,0-.355-.336" transform="translate(-636.287 -519.064)" fill="#ba0019"/><path d="M657.276,533.748l-.021-.254a.84.84,0,0,1,1.543,0l-.022.254Z" transform="translate(-636.169 -519.211)" fill="#fff"/><path d="M658.8,533.779H657.26l-.066-.3c.01-.036.165-.4.806-.556a1.1,1.1,0,0,1,.824.535Zm-.8-.763a1.015,1.015,0,0,0-.719.481l.024.233,1.415-.041.018-.212h0a1.1,1.1,0,0,0-.737-.461" transform="translate(-636.153 -519.196)" fill="#ba0019"/><path d="M657.276,534.262l-.021-.254a.84.84,0,0,1,1.543,0l-.022.254Z" transform="translate(-636.169 -519.344)" fill="#fff"/><path d="M658.8,534.292H657.26l-.066-.3c.01-.036.165-.4.806-.556a1.1,1.1,0,0,1,.824.535Zm-.8-.763a1.015,1.015,0,0,0-.719.481l.024.233,1.415-.041.018-.212h0a1.1,1.1,0,0,0-.737-.461" transform="translate(-636.153 -519.328)" fill="#ba0019"/><path d="M657.162,535.538l-.426-.624c.142-.162.406.116.406.116a.786.786,0,1,1,1.5,0s.264-.277.406-.116l-.426.624Z" transform="translate(-636.035 -519.476)" fill="#fff"/><path d="M658.635,535.569h-1.486l-.464-.644c.114-.274.318-.077.418.005a.8.8,0,1,1,1.554,0c.1-.083.309-.182.415-.061Zm-1.8-.674a.1.1,0,0,0-.076.035l.43.568,1.4-.019.407-.6c-.017.02-.038.012-.067.012a.481.481,0,0,0-.263.152l-.06.063-.017-.085a1.533,1.533,0,0,0-.727-.985,1.571,1.571,0,0,0-.687.985l-.016.086-.061-.064a.483.483,0,0,0-.263-.152" transform="translate(-636.022 -519.462)" fill="#ba0019"/><path d="M657.162,536.564l-.426-.623c.142-.162.406.115.406.115a.786.786,0,1,1,1.5,0s.264-.277.406-.115l-.426.623Z" transform="translate(-636.035 -519.741)" fill="#fff"/><path d="M658.635,536.6h-1.486l-.464-.643c.115-.276.318-.078.418.005a.8.8,0,1,1,1.554,0c.1-.082.309-.182.415-.06Zm-1.8-.674a.1.1,0,0,0-.076.035l.43.568,1.4-.019.407-.595c-.017.021-.041.012-.067.012a.48.48,0,0,0-.263.151l-.06.063-.017-.085a1.531,1.531,0,0,0-.727-.984,1.568,1.568,0,0,0-.687.984l-.016.085-.061-.063a.483.483,0,0,0-.263-.151" transform="translate(-636.022 -519.727)" fill="#ba0019"/><path d="M657.276,537.973l-.021-.634a.869.869,0,1,1,1.543,0l-.022.634Z" transform="translate(-636.169 -520.007)" fill="#fff"/><path d="M658.806,538h-1.545l-.067-.679a2.03,2.03,0,0,1,.794-1.31,1.97,1.97,0,0,1,.84,1.3Zm-.818-1.91a2.065,2.065,0,0,0-.7,1.238l.022.626,1.411-.043.02-.592a1.981,1.981,0,0,0-.749-1.229" transform="translate(-636.153 -519.993)" fill="#ba0019"/><path d="M657.162,538.238l-.426-.467c.142-.121.406.087.406.087a.751.751,0,1,1,1.5,0s.264-.208.406-.087l-.426.467Z" transform="translate(-636.035 -520.271)" fill="#fff"/><path d="M658.633,538.268H657.15l-.459-.483c.042-.1.089-.113.143-.113a.55.55,0,0,1,.272.1.776.776,0,0,1,1.551,0c.094-.062.3-.142.412-.05Zm-1.8-.506a.118.118,0,0,0-.08.027l.43.4,1.408-.014.379-.416a.2.2,0,0,1-.043,0,.56.56,0,0,0-.267.115l-.054.043-.018-.067a.708.708,0,1,0-1.416,0l-.017.067-.055-.043a.56.56,0,0,0-.267-.115" transform="translate(-636.023 -520.256)" fill="#ba0019"/><path d="M666.735,537.259h5.235a.468.468,0,0,1,0,.936h-5.235a.468.468,0,1,1,0-.936" transform="translate(-638.495 -520.314)" fill="#fff"/><path d="M671.954,538.225h-5.235a.514.514,0,0,1,0-1.028h5.235a.514.514,0,0,1,0,1.028m-5.235-.936a.423.423,0,1,0,0,.845h5.235a.423.423,0,0,0,0-.845Z" transform="translate(-638.479 -520.298)" fill="#ba0019"/><path d="M672.483,536.927l.039-3.086s-.119.757-.476.757H666.57c-.357,0-.476-.757-.476-.757l.039,3.086Z" transform="translate(-638.45 -519.432)" fill="#fff"/><path d="M672.511,536.969h-6.395l-.085-3.13.091-.008c.031.2.171.719.431.719h5.476c.261,0,.4-.519.431-.719l.091.008Zm-6.383-2.767.035,2.721,6.259-.045.034-2.677c-.078.212-.212.439-.426.439h-5.476c-.214,0-.348-.227-.426-.439" transform="translate(-638.434 -519.429)" fill="#ba0019"/><path d="M671.492,535.582l.013-1.007s.683-.185.588-.45-.918.333-.918.333h-3.289s-.824-.6-.918-.333.589.45.589.45l.012,1.007Z" transform="translate(-638.673 -519.488)" fill="#fff"/><path d="M671.522,535.612h-3.969l-.056-1.05a.846.846,0,0,1-.574-.307.194.194,0,0,1-.013-.16.15.15,0,0,1,.156-.1,2.312,2.312,0,0,1,.831.409l3.263-.009a2.069,2.069,0,0,1,.8-.4.151.151,0,0,1,.156.1.2.2,0,0,1-.013.161c-.111.211-.587.342-.607.346l.021.964Zm-4.455-1.524c-.05,0-.064.019-.071.037a.107.107,0,0,0,.008.088c.076.146.423.267.55.3l.046,1.05,3.833-.044.011-.963c.161-.078.508-.2.585-.345a.106.106,0,0,0,.007-.088c-.007-.019-.02-.037-.07-.037a2.17,2.17,0,0,0-.777.392l-3.316.009a2.383,2.383,0,0,0-.8-.4" transform="translate(-638.658 -519.472)" fill="#ba0019"/><path d="M671.707,536.756l.014-1.067s.821-.125.707-.39-1.1.332-1.1.332h-3.948s-.987-.6-1.1-.332.706.39.706.39l.014,1.067Z" transform="translate(-638.495 -519.791)" fill="#fff"/><path d="M671.735,536.786h-4.753l-.06-1.112c-.021.03-.582-.056-.7-.26a.158.158,0,0,1-.007-.148.172.172,0,0,1,.178-.095,3.01,3.01,0,0,1,.987.407l3.925-.007a2.787,2.787,0,0,1,.964-.4.171.171,0,0,1,.178.095.159.159,0,0,1-.007.148c-.113.2-.672.3-.735.3l.025,1.023Zm-5.337-1.524c-.078,0-.091.03-.1.04.081.208.513.3.671.326l.054,1.111,4.617-.044.013-1.023c.2-.069.63-.163.708-.3,0-.361-1.025.28-1.034.286l-3.971.007a3.276,3.276,0,0,0-.964-.4" transform="translate(-638.479 -519.775)" fill="#ba0019"/><path d="M670.8,529.339l0-.424c-.482,0-.362-.463-.362-.639a.439.439,0,0,0-.214-.7c-.388.2-.358.521-.215.686,0,.194.159.653-.37.653l0,.424Z" transform="translate(-639.365 -517.814)" fill="#fff"/><path d="M670.825,529.371h-1.2l-.05-.47a.656.656,0,0,0,.328-.139.516.516,0,0,0,.052-.4c0-.044-.009-.085-.01-.118a.389.389,0,0,1-.09-.344.56.56,0,0,1,.329-.383.516.516,0,0,1,.369.354.5.5,0,0,1-.1.415.228.228,0,0,1,0,.068.558.558,0,0,0,.069.41.333.333,0,0,0,.254.085l.042.471Zm-.637-1.768a.535.535,0,0,0-.242.319.355.355,0,0,0,.08.3c.012.059.016.1.021.138a.6.6,0,0,1-.076.468.451.451,0,0,1-.35.122l.05.378,1.062-.042,0-.382a.238.238,0,0,1-.275-.069.633.633,0,0,1-.093-.479l.005-.089a.459.459,0,0,0,.091-.366.45.45,0,0,0-.278-.294" transform="translate(-639.349 -517.8)" fill="#ba0019"/><path d="M671.181,533.251l.009-.814s.484-.162.416-.378-.649.272-.649.272h-2.33s-.583-.488-.65-.272.417.378.417.378l.009.814Z" transform="translate(-638.935 -518.958)" fill="#fff"/><path d="M671.21,533.281h-2.823l-.054-.859c-.02.025-.493-.141-.416-.392a.12.12,0,0,1,.124-.088c.19,0,.557.3.6.338l2.3-.011a1.311,1.311,0,0,1,.569-.327.12.12,0,0,1,.124.088c.078.251-.392.416-.446.434l.022.772Zm-3.169-1.247c-.081.165.237.306.352.345l.039.855,2.688-.044.008-.77c.145-.081.463-.222.419-.364-.168-.036-.472.206-.577.294l-2.359.01a1.7,1.7,0,0,0-.57-.327" transform="translate(-638.919 -518.942)" fill="#ba0019"/><path d="M671.333,534.211l.01-.873s.581-.1.5-.318-.779.272-.779.272h-2.8s-.7-.488-.78-.272.5.318.5.318l.01.873Z" transform="translate(-638.808 -519.205)" fill="#fff"/><path d="M671.361,534.241h-3.379l-.056-.919a.615.615,0,0,1-.486-.2.156.156,0,0,1-.011-.136.134.134,0,0,1,.139-.085,2,2,0,0,1,.709.336l2.77-.009a1.784,1.784,0,0,1,.683-.327.136.136,0,0,1,.14.085.159.159,0,0,1-.012.136c-.094.164-.48.236-.524.244l.027.829Zm-3.793-1.247-.049.084c.055.1.312.174.461.2l.047.917,3.244-.044.01-.83c.145-.063.437-.135.5-.243l-.049-.084a1.869,1.869,0,0,0-.657.319l-2.823.008a2.1,2.1,0,0,0-.683-.327" transform="translate(-638.792 -519.189)" fill="#ba0019"/><path d="M670.915,531.645l.005-.533s.314-.13.27-.276-.421.185-.421.185h-1.508s-.376-.332-.42-.185.269.276.269.276l.006.533Z" transform="translate(-639.158 -518.646)" fill="#fff"/><path d="M670.944,531.675H669.1l-.052-.578c-.008.026-.321-.108-.267-.289l.01-.033.086-.038c.126,0,.354.2.4.234l1.478-.011a.761.761,0,0,1,.369-.223h.033l.062.07c.054.18-.26.315-.3.331l.023.491Zm-2.066-.847c-.033.086.145.189.234.226l.034.573,1.708-.043,0-.49c.118-.078.3-.182.272-.262a1.4,1.4,0,0,0-.348.205l-1.537.012a1.132,1.132,0,0,0-.368-.223" transform="translate(-639.142 -518.63)" fill="#ba0019"/><path d="M671.013,532.3l.007-.533s.376-.129.323-.276-.5.185-.5.185h-1.81s-.452-.332-.5-.185.324.276.324.276l.007.533Z" transform="translate(-639.076 -518.815)" fill="#fff"/><path d="M671.044,532.327h-2.2l-.052-.579c0,.031-.252-.059-.314-.187l-.008-.016v-.088a.1.1,0,0,1,.105-.068,1.243,1.243,0,0,1,.469.232l1.783-.009a1.032,1.032,0,0,1,.442-.223h.032l.073.068a.132.132,0,0,1-.007.1c-.062.129-.316.22-.345.229l.024.491Zm-2.471-.847c.019.114.182.193.276.226l.038.575,2.067-.043.006-.49c.125-.074.289-.153.323-.224-.1-.044-.318.089-.431.171l-1.836.01a1.365,1.365,0,0,0-.442-.223" transform="translate(-639.063 -518.799)" fill="#ba0019"/><path d="M670.771,530.41l0-.484s.222-.118.191-.237-.3.151-.3.151H669.6s-.266-.272-.3-.151.191.237.191.237l0,.424Z" transform="translate(-639.278 -518.352)" fill="#fff"/><path d="M670.8,530.443l-1.321-.062-.047-.47c0,.025-.228-.1-.189-.249l.007-.035.073-.03c.093,0,.248.15.294.2l1.034-.014c.013-.032.168-.182.262-.182h.034l.047.065c.037.15-.189.274-.214.289l.019.445Zm-1.476-.755c-.01.06.115.151.174.183l.029.464,1.183.016,0-.44c.087-.073.209-.161.193-.226a.8.8,0,0,0-.222.173l-1.1.013a.924.924,0,0,0-.261-.183" transform="translate(-639.262 -518.336)" fill="#ba0019"/><path d="M670.841,530.884l.005-.425s.266-.117.229-.237-.358.152-.358.152h-1.282s-.32-.272-.357-.152.23.237.23.237l0,.425Z" transform="translate(-639.22 -518.489)" fill="#fff"/><path d="M670.87,530.914H669.3l-.05-.47c-.022.009-.274-.1-.227-.251l.01-.033.077-.03c.109,0,.3.161.342.193l1.252-.011a.641.641,0,0,1,.314-.182h.033l.054.063c.047.151-.2.269-.254.291l.022.385Zm-1.763-.694c-.017.052.108.139.2.181l.032.466,1.438-.044,0-.381c.124-.083.249-.17.231-.223a.824.824,0,0,0-.286.173l-1.31.011a1.012,1.012,0,0,0-.313-.182" transform="translate(-639.204 -518.474)" fill="#ba0019"/><path d="M669.8,530.927l-.237-.267c.079-.069.225.05.225.05a.418.418,0,1,1,.835,0s.147-.119.226-.05l-.237.267Z" transform="translate(-639.345 -518.511)" fill="#fff"/><path d="M670.593,530.958h-.832l-.338-.359.162-.021a.3.3,0,0,1,.141.045.742.742,0,0,1,.425-.407.751.751,0,0,1,.456.407.3.3,0,0,1,.142-.046l.09.033Zm-1.008-.289.21.213.757-.014.223-.253c-.076.054-.141.1-.162.116l-.054.044-.019-.068a.636.636,0,0,0-.389-.4.649.649,0,0,0-.358.4l-.018.068-.054-.044a.284.284,0,0,0-.136-.062" transform="translate(-639.31 -518.496)" fill="#ba0019"/><path d="M669.544,531.514l-.331-.267c.11-.069.315.05.315.05a.61.61,0,0,1,1.169,0s.206-.119.315-.05l-.332.267Z" transform="translate(-639.255 -518.662)" fill="#fff"/><path d="M670.687,531.545h-1.152l-.36-.277c.034-.093.071-.1.114-.1a.568.568,0,0,1,.24.07c-.018-.048.124-.314.563-.433a.9.9,0,0,1,.625.436.3.3,0,0,1,.309-.046Zm-1.381-.289.257.207,1.092-.009.245-.2a.558.558,0,0,0-.19.064,1.189,1.189,0,0,0-.618-.431.76.76,0,0,0-.53.407c-.062.021-.167-.034-.256-.041" transform="translate(-639.245 -518.647)" fill="#ba0019"/><path d="M669.418,532.464l-.379-.356c.127-.092.361.065.361.065a.674.674,0,0,1,1.335,0s.235-.157.362-.065l-.38.356Z" transform="translate(-639.21 -518.851)" fill="#fff"/><path d="M670.724,532.5h-1.317l-.41-.37c.039-.094.081-.107.13-.107a.6.6,0,0,1,.275.094c-.024-.057.134-.417.641-.578a1.066,1.066,0,0,1,.713.579.324.324,0,0,1,.357-.059Zm-1.6-.386a.121.121,0,0,0-.072.02l.384.286,1.249-.012.314-.295a.739.739,0,0,0-.252.087,1.434,1.434,0,0,0-.707-.574.955.955,0,0,0-.611.551c-.07.024-.2-.063-.306-.063" transform="translate(-639.199 -518.836)" fill="#ba0019"/><path d="M669.166,533.649l-.474-.445c.158-.116.452.083.452.083a.843.843,0,0,1,1.669,0s.292-.2.45-.083l-.473.445Z" transform="translate(-639.121 -519.101)" fill="#fff"/><path d="M670.8,533.68h-1.643l-.505-.457c.045-.1.1-.115.154-.115a.74.74,0,0,1,.344.121c-.028-.058.159-.521.8-.726a1.308,1.308,0,0,1,.881.729.406.406,0,0,1,.444-.079ZM668.8,533.2a.162.162,0,0,0-.1.027l.479.375,1.575-.012.416-.392a.162.162,0,0,1-.047,0,.667.667,0,0,0-.3.111,1.664,1.664,0,0,0-.874-.72,1.2,1.2,0,0,0-.778.7c-.072.02-.236-.088-.372-.088" transform="translate(-639.11 -519.086)" fill="#ba0019"/><path d="M669.174,535.066l.9,1.124.956-1.124Z" transform="translate(-639.245 -519.748)" fill="#fff"/><path d="M670.042,536.245l-1-1.24H671.1Zm-.806-1.149.808,1.007.857-1.007Z" transform="translate(-639.212 -519.732)" fill="#ba0019"/><path d="M668.914,534.812l-.569-.5c.19-.128.542.092.542.092a1.024,1.024,0,0,1,2,0s.352-.22.542-.092l-.568.5Z" transform="translate(-639.031 -519.369)" fill="#fff"/><path d="M670.871,534.843H668.9l-.6-.508a.174.174,0,0,1,.177-.119.923.923,0,0,1,.412.135c-.031-.053.187-.579.97-.809a1.513,1.513,0,0,1,1.049.816.521.521,0,0,1,.532-.094Zm-2.388-.537a.213.213,0,0,0-.122.033l.573.424,1.9-.01.513-.45a.341.341,0,0,1-.075,0,.859.859,0,0,0-.37.125,1.837,1.837,0,0,0-1.039-.8,1.41,1.41,0,0,0-.945.78c-.073.026-.27-.1-.438-.1" transform="translate(-639.021 -519.354)" fill="#ba0019"/><path d="M669.069,536.732l.977,1.411,1.036-1.411Z" transform="translate(-639.218 -520.178)" fill="#fff"/><path d="M670.015,538.206l-1.062-1.535h2.189Zm-.889-1.444.891,1.287.945-1.287Z" transform="translate(-639.188 -520.162)" fill="#ba0019"/><path d="M668.789,536.415l-.616-.624c.2-.162.586.116.586.116a1.088,1.088,0,0,1,2.171,0s.381-.278.586-.116l-.616.624Z" transform="translate(-638.987 -519.703)" fill="#fff"/><path d="M670.907,536.445h-2.13l-.648-.637a.193.193,0,0,1,.192-.128.851.851,0,0,1,.4.141,1.116,1.116,0,0,1,2.218,0c.121-.075.434-.2.591-.081Zm-2.586-.674a.209.209,0,0,0-.131.041l.62.556,2.06-.013.588-.6c-.03.023-.067.013-.114.013a.848.848,0,0,0-.4.158l-.052.038-.018-.062a1.043,1.043,0,0,0-2.083,0l-.018.062-.052-.038a.852.852,0,0,0-.4-.158" transform="translate(-638.975 -519.688)" fill="#ba0019"/><path d="M668.789,538.1l-.616-.623c.2-.162.586.115.586.115a1.088,1.088,0,0,1,2.171,0s.381-.277.586-.115l-.616.623Z" transform="translate(-638.987 -520.139)" fill="#fff"/><path d="M670.907,538.135h-2.13l-.648-.637a.193.193,0,0,1,.192-.128.848.848,0,0,1,.4.14,1.116,1.116,0,0,1,2.218,0c.12-.074.432-.2.591-.08Zm-2.586-.674a.209.209,0,0,0-.131.041l.62.556,2.06-.013.588-.6c-.03.024-.068.013-.114.013a.858.858,0,0,0-.4.157l-.052.038-.018-.062a1.043,1.043,0,0,0-2.083,0l-.018.062-.053-.038a.858.858,0,0,0-.4-.157" transform="translate(-638.975 -520.124)" fill="#ba0019"/><rect width="0.453" height="1.959" transform="translate(24.565 19.702)" fill="#fff"/><path d="M662.428,542.962h-.5l-.045-2,.5-.046Zm-.091-2-.408.046.046,1.913.362-.041Z" transform="translate(-637.363 -521.256)" fill="#ba0019"/><rect width="0.453" height="1.959" transform="translate(26.107 19.701)" fill="#fff"/><path d="M664.507,542.961h-.5l-.045-2,.5-.046Zm-.091-2-.408.046.046,1.913.362-.041Z" transform="translate(-637.9 -521.256)" fill="#ba0019"/><rect width="0.453" height="1.959" transform="translate(25.382 19.701)" fill="#fff"/><path d="M663.529,542.961h-.5l-.045-2,.5-.046Zm-.091-2-.408.046.046,1.913.362-.041Z" transform="translate(-637.648 -521.256)" fill="#ba0019"/><rect width="0.453" height="1.959" transform="translate(33.621 19.701)" fill="#fff"/><path d="M674.635,542.962h-.5l-.045-2,.5-.046Zm-.091-2-.408.046.046,1.913.362-.041Z" transform="translate(-640.514 -521.256)" fill="#ba0019"/><rect width="0.453" height="1.959" transform="translate(36.706 19.701)" fill="#fff"/><path d="M678.792,542.961h-.5l-.045-2,.5-.046Zm-.091-2-.408.046.046,1.913.362-.041Z" transform="translate(-641.587 -521.256)" fill="#ba0019"/><rect width="0.453" height="1.959" transform="translate(35.164 19.701)" fill="#fff"/><path d="M676.714,542.961h-.5l-.045-2,.5-.046Zm-.091-2-.408.046.046,1.913.362-.041Z" transform="translate(-641.05 -521.256)" fill="#ba0019"/><rect width="0.453" height="1.959" transform="translate(34.438 19.701)" fill="#fff"/><path d="M675.736,542.961h-.5l-.045-2,.5-.046Zm-.091-2-.408.046.046,1.913.362-.041Z" transform="translate(-640.798 -521.256)" fill="#ba0019"/><rect width="0.453" height="1.959" transform="translate(35.889 19.701)" fill="#fff"/><path d="M677.692,542.961h-.5l-.045-2,.5-.046Zm-.091-2-.408.046.046,1.913.362-.041Z" transform="translate(-641.303 -521.256)" fill="#ba0019"/><rect width="0.453" height="1.959" transform="translate(27.65 19.701)" fill="#fff"/><path d="M666.585,542.962h-.5l-.045-2,.5-.046Zm-.091-2-.408.046.046,1.913.362-.041Z" transform="translate(-638.436 -521.256)" fill="#ba0019"/><rect width="0.453" height="1.959" transform="translate(26.833 19.701)" fill="#fff"/><path d="M665.485,542.961h-.5l-.045-2,.5-.046Zm-.091-2-.408.046.046,1.913.362-.041Z" transform="translate(-638.152 -521.256)" fill="#ba0019"/><rect width="0.942" height="0.357" transform="translate(30.384 10.756)" fill="#fff"/><path d="M670.758,529.3h-.987l-.046-.4.988-.046Zm-.091-.4-.9.046.046.311.85-.042Z" transform="translate(-639.387 -518.145)" fill="#ba0019"/><rect width="0.694" height="0.341" transform="translate(30.508 10.405)" fill="#fff"/><path d="M670.678,528.815h-.74l-.046-.387.74-.046Zm-.091-.387-.648.046.046.3.6-.042Z" transform="translate(-639.43 -518.023)" fill="#ba0019"/></g></g></g></g></svg>