<svg xmlns="http://www.w3.org/2000/svg" xmlns:xlink="http://www.w3.org/1999/xlink" width="36" height="36" viewBox="0 0 36 36"><defs><clipPath id="a"><circle cx="18" cy="18" r="18" transform="translate(3252 726)" fill="#fff" stroke="#707070" stroke-width="1"/></clipPath><clipPath id="b"><rect width="61.714" height="36" fill="none"/></clipPath></defs><g transform="translate(-3252 -726)" clip-path="url(#a)"><g transform="translate(2709.956 605.545)"><g transform="translate(529.044 120.455)" clip-path="url(#b)"><rect width="61.714" height="36" fill="#4a5bb5"/><rect width="61.714" height="23.144" transform="translate(0 6.428)" fill="#f6d928"/><rect width="61.714" height="18" transform="translate(0 8.999)" fill="#a1001d"/><path d="M541.878,144.2h42.954a.385.385,0,0,1,0,.771H541.878a.385.385,0,0,1,0-.771" transform="translate(-532.258 -126.582)" fill="#f6d928" fill-rule="evenodd"/><path d="M584.816,145H541.862a.434.434,0,0,1,0-.868h42.954a.434.434,0,0,1,0,.868m-42.954-.771a.337.337,0,0,0,0,.674h42.954a.337.337,0,0,0,0-.674Z" transform="translate(-532.241 -126.565)"/><path d="M593.27,139.172l-2.185.771,2.185.771,2.185-.771Z" transform="translate(-545.056 -125.285)" fill="#fff" fill-rule="evenodd"/><path d="M593.225,140.745l-2.313-.817,2.3-.811,2.328.811Zm-2.057-.817,2.057.726,2.057-.726-2.071-.73Z" transform="translate(-545.011 -125.271)"/><path d="M549.426,139.865h31.583a.257.257,0,1,1,0,.513H549.426a.257.257,0,1,1,0-.513" transform="translate(-534.232 -125.464)" fill="#f6d928" fill-rule="evenodd"/><path d="M580.992,140.407H549.41a.3.3,0,1,1,0-.6h31.583a.3.3,0,1,1,0,.6m-31.583-.513a.212.212,0,1,0,0,.422h31.583a.212.212,0,1,0,0-.422Z" transform="translate(-534.216 -125.449)"/><path d="M590.737,140.409v-.091a.212.212,0,1,0,0-.424v-.09a.3.3,0,1,1,0,.6m.515,0v-.091a.211.211,0,1,0,0-.422v-.09a.3.3,0,1,1,0,.6m-.257,0v-.091a.211.211,0,0,0,0-.422v-.09a.3.3,0,1,1,0,.6" transform="translate(-544.966 -125.449)"/><path d="M590.5,141.25l-2.185.772,2.185.771,2.186-.771Z" transform="translate(-544.34 -125.822)" fill="#fff" fill-rule="evenodd"/><path d="M590.451,142.824l-2.313-.817,2.3-.812,2.33.812Zm-2.057-.817,2.057.726,2.059-.726-2.073-.732Z" transform="translate(-544.295 -125.808)"/><path d="M546.652,141.943h31.585a.258.258,0,1,1,0,.514H546.652a.258.258,0,1,1,0-.514" transform="translate(-533.517 -126.001)" fill="#f6d928" fill-rule="evenodd"/><path d="M578.221,142.487H546.636a.3.3,0,1,1,0-.6h31.585a.3.3,0,1,1,0,.6m-31.585-.514a.213.213,0,1,0,0,.424h31.585a.213.213,0,1,0,0-.424Z" transform="translate(-533.501 -125.985)"/><path d="M588.478,142.488v-.09a.212.212,0,1,0,0-.424v-.091a.3.3,0,1,1,0,.6m-.256,0v-.09a.212.212,0,0,0,0-.424v-.091a.3.3,0,0,1,0,.6m-.258,0v-.09a.212.212,0,1,0,0-.424v-.091a.3.3,0,1,1,0,.6" transform="translate(-544.25 -125.985)"/><path d="M595.544,144.3c-.389.674.3-.225,1.979.9a1.615,1.615,0,0,1,.582,1.149c-.078-.054-.137-.171-.225-.248-.122.123.117.683.152.946-.263-.146-.237-.216-.324-.4a4.22,4.22,0,0,0,.059,1.052c-.207-.059-.194-.226-.3-.26.072.263-.065.548-.029.842-.12-.12-.249-.213-.306-.263-.009.141-.232.51-.238.643a.34.34,0,0,1-.148-.223,4.426,4.426,0,0,0-.608.932c-.351-.307-1.245-1.059-1.361-1.458-.1.226-.252.3-.548.468-.117-.632-.551-1.342-.319-1.884a5.533,5.533,0,0,0-.465.315,3.733,3.733,0,0,1,2.1-2.52" transform="translate(-545.665 -126.61)" fill="#485ba3" fill-rule="evenodd"/><path d="M596.172,149.437l-.139-.122a5.09,5.09,0,0,1-1.278-1.393c-.042.233-.194.318-.47.472l-.041.023-.037-.03a4.845,4.845,0,0,0-.178-.626,1.875,1.875,0,0,1-.139-1.277,2.049,2.049,0,0,1-.405.35,3.526,3.526,0,0,1,2.055-2.571c.012.1-.071.246-.056.269,0,0,.012.012.085.012l.193,0a3.063,3.063,0,0,1,1.791.628,1.652,1.652,0,0,1,.6,1.177.209.209,0,0,1-.177-.1.868.868,0,0,0-.1-.118,2.315,2.315,0,0,0,.125.577,2.814,2.814,0,0,1,.084.339c-.228-.074-.285-.14-.325-.229a1.2,1.2,0,0,1,0,.128,2.248,2.248,0,0,0,.056.746.254.254,0,0,1-.265-.134c-.028-.044-.047-.07-.078-.079a.536.536,0,0,1,.038.416,1.426,1.426,0,0,0-.023.389,1.1,1.1,0,0,1-.295-.178l-.067-.055c.051.053-.007.18-.068.315a1.225,1.225,0,0,0-.114.3.269.269,0,0,1-.214-.216,9.064,9.064,0,0,0-.542.928Zm-1.415-1.538a6.9,6.9,0,0,0,1.321,1.365l.053.046a5.656,5.656,0,0,1,.6-.892c.076.07.1.158.192.215-.047-.045.009-.169.069-.3a1.3,1.3,0,0,0,.117-.314l.122.03a2.707,2.707,0,0,1,.242.211.527.527,0,0,1-.035-.379,1.026,1.026,0,0,0,.007-.43.121.121,0,0,1,.157.065.3.3,0,0,0,.186.152c-.116-.12-.109-.458-.1-.729,0-.118.005-.221,0-.289l.109.085c.044.11.068.17.266.28a.645.645,0,0,1-.132-.3c-.08-.282-.157-.549-.061-.645a.333.333,0,0,1,.159.125.59.59,0,0,0,.109.118,1.871,1.871,0,0,0-.62-1.093,3,3,0,0,0-1.753-.617l-.193,0c-.062,0-.12,0-.145-.045s0-.119.1-.29a3.945,3.945,0,0,0-2.036,2.543,1.306,1.306,0,0,1,.415-.351,2.344,2.344,0,0,0,.188,1.272,4.861,4.861,0,0,1,.181.635c.251-.191.387-.268.484-.476" transform="translate(-545.675 -126.599)"/><path d="M594.315,148.371c.162-.323.312-.424.416-.634.184-.365.211-.656.372-.614s.159.193-.047.553a1.554,1.554,0,0,1-.74.7" transform="translate(-545.889 -127.336)" fill="#980015" fill-rule="evenodd"/><path d="M595.781,149.5c-.02-.246.05-.349.038-.507-.022-.28-.137-.47.011-.484s.219.081.219.362a.777.777,0,0,1-.268.629" transform="translate(-546.261 -127.695)" fill="#980015" fill-rule="evenodd"/><path d="M596.842,150.007c-.065-.344-.016-.5-.058-.717-.073-.39-.214-.646-.077-.683s.22.091.273.486a1.4,1.4,0,0,1-.138.914" transform="translate(-546.492 -127.719)" fill="#980015" fill-rule="evenodd"/><path d="M597.759,147.057c-.2-.154-.322-.164-.452-.263-.231-.174-.346-.359-.421-.266s-.022.193.219.352a.908.908,0,0,0,.654.177" transform="translate(-546.545 -127.178)" fill="#980015" fill-rule="evenodd"/><path d="M597.655,148.5c-.108-.222-.219-.278-.289-.421-.122-.251-.122-.468-.254-.412s-.144.169,0,.412.216.286.545.421" transform="translate(-546.584 -127.475)" fill="#980015" fill-rule="evenodd"/><path d="M543.519,145.006c-.022-.2.02-.219-.1-.368.177.074.182.269.4.131.079-.041.114-.042.018-.26.223.01.953.261,1.071.266.307.013.868-.323,1.258.092.372.376.248.769.248,1.292-.15-.073-.077-.108-.237-.295a8.792,8.792,0,0,1-.007,1.766c-.061-.117-.052-.067-.111-.188-.159.444-.351.535-.351,1.058-.058-.206,0-.162-.065-.271-.155.336-1.194.624-.794.962-.361-.212-.519-.19-.684-.38a.694.694,0,0,0-.191.249c-.634-.292-.408-.921-.905-1.344a2.558,2.558,0,0,0-.141.439,8,8,0,0,0-.24-.946c-.1.162-.09.1-.266.346-.074-.487-.194-.6-.147-.923-.188.134-.065.08-.253.243.178-1.246.95-2.166,1.5-1.872" transform="translate(-532.392 -126.663)" fill="#485ba3" fill-rule="evenodd"/><path d="M544.8,149.216a2.519,2.519,0,0,0-.356-.173.786.786,0,0,1-.34-.217.832.832,0,0,1-.116.241.924.924,0,0,1-.614-.706,1.269,1.269,0,0,0-.361-.624.272.272,0,0,1,0,.175c-.012.05-.027.116-.069.243l-.05.152-.039-.155c-.035-.139-.061-.262-.085-.374a4.092,4.092,0,0,0-.122-.482.552.552,0,0,1-.059.071,2.079,2.079,0,0,0-.158.2l-.065.092-.018-.112a3.5,3.5,0,0,0-.1-.435,1.216,1.216,0,0,1-.062-.395.183.183,0,0,0-.035.04.64.64,0,0,1-.131.138l-.094.081.017-.122c.168-1.174.911-2.141,1.5-1.939l0-.051a.271.271,0,0,0-.083-.215l-.117-.142.171.071a.5.5,0,0,1,.154.113c.072.072.1.082.2.022.064-.033.073-.037,0-.2l-.03-.068.075,0a4.378,4.378,0,0,1,.694.168,3.579,3.579,0,0,0,.377.1,2.583,2.583,0,0,0,.309-.049,1.026,1.026,0,0,1,.98.154,1.164,1.164,0,0,1,.272,1.014c-.005.1-.01.2-.01.31v.073l-.067-.032a.244.244,0,0,1-.133-.12,6.525,6.525,0,0,1-.018,1.008c-.014.2-.026.389-.026.542v.189l-.088-.168a.415.415,0,0,0-.051-.084l-.012-.017a3.012,3.012,0,0,1-.132.275,1.218,1.218,0,0,0-.18.674v.334l-.091-.321a.64.64,0,0,1-.032-.179v0a1.827,1.827,0,0,1-.407.312c-.2.129-.413.263-.421.383a.165.165,0,0,0,.074.131Zm-.686-.459a1.428,1.428,0,0,0,.366.2c.061.025.129.053.209.094a.251.251,0,0,1,0-.047c.012-.166.231-.306.464-.455a1.231,1.231,0,0,0,.426-.355l.037-.08.044.076,0,.006a1.405,1.405,0,0,1,.166-.429,2.637,2.637,0,0,0,.162-.356l.037-.1.048.1c.011.024.02.04.027.053.005-.12.013-.254.023-.392a4.434,4.434,0,0,0-.018-1.206l-.05-.194.13.153a.744.744,0,0,1,.121.184.188.188,0,0,0,.036.057c0-.08.006-.157.01-.232a1.083,1.083,0,0,0-.245-.945.936.936,0,0,0-.895-.128,1.466,1.466,0,0,1-.312.051,2.445,2.445,0,0,1-.418-.1c-.2-.059-.45-.13-.6-.155.055.142.039.191-.056.238-.154.1-.23.059-.3,0a.6.6,0,0,1,.005.079c0,.033,0,.071.007.122l.01.087-.077-.042c-.461-.243-1.2.5-1.415,1.7a.176.176,0,0,0,.018-.024.452.452,0,0,1,.141-.126l.088-.062-.016.107a.992.992,0,0,0,.048.464c.025.092.054.2.08.338.047-.062.076-.093.1-.12a.672.672,0,0,0,.1-.135l.049-.08.033.088a3.7,3.7,0,0,1,.158.581c.013.065.028.132.045.2.008-.029.013-.052.018-.072a.818.818,0,0,1,.076-.21,1.025,1.025,0,0,1,.46.65.947.947,0,0,0,.507.672.332.332,0,0,1,.146-.246" transform="translate(-532.37 -126.646)"/><path d="M542.989,147.38c.164-.4.31-.526.416-.786.186-.453.217-.815.375-.76s.154.242-.056.689a1.755,1.755,0,0,1-.734.858" transform="translate(-532.643 -127.004)" fill="#980015" fill-rule="evenodd"/><path d="M543.823,148.78c.067-.359.17-.491.211-.723.076-.407.033-.71.18-.694s.179.169.083.575a1.483,1.483,0,0,1-.474.842" transform="translate(-532.858 -127.399)" fill="#980015" fill-rule="evenodd"/><path d="M544.823,149.73c.019-.348.1-.484.111-.709.024-.4-.053-.678.086-.68s.188.14.146.536a1.414,1.414,0,0,1-.344.852" transform="translate(-533.116 -127.652)" fill="#980015" fill-rule="evenodd"/><path d="M546.49,146.748c-.3-.3-.488-.359-.684-.555-.346-.342-.513-.664-.636-.549s-.05.284.315.61a1.713,1.713,0,0,0,1.005.494" transform="translate(-533.192 -126.95)" fill="#980015" fill-rule="evenodd"/><path d="M546.378,148.317c-.2-.3-.344-.384-.471-.579-.226-.344-.3-.641-.432-.567s-.1.228.145.561a1.438,1.438,0,0,0,.758.585" transform="translate(-533.265 -127.347)" fill="#980015" fill-rule="evenodd"/><path d="M579.019,142.033c-2.571,2.571-6,7.714-12.857,7.714-6,0-10.285-5.144-12.856-7.714,2.571-2.572,6.857-7.714,12.856-7.714,6.858,0,10.287,5.142,12.857,7.714" transform="translate(-535.306 -124.033)" fill="#fff" fill-rule="evenodd"/><path d="M566.151,149.776c-5.394,0-9.387-4.123-12.029-6.851-.3-.315-.59-.61-.857-.877.266-.327.551-.621.853-.933,2.644-2.73,6.638-6.855,12.033-6.855,5.818,0,9.175,3.688,11.627,6.38.447.491.864.95,1.261,1.347-.4.458-.815.918-1.263,1.41-2.452,2.692-5.809,6.379-11.625,6.379m0-15.43c-5.36,0-9.339,4.109-11.971,6.828-.3.313-.588.608-.855.874a8.982,8.982,0,0,1,.858.816c2.632,2.718,6.61,6.826,11.968,6.826,5.778,0,9.12-3.671,11.561-6.351.448-.493.867-.953,1.266-1.352a14.817,14.817,0,0,1-1.263-1.288c-2.441-2.681-5.784-6.353-11.563-6.353" transform="translate(-535.295 -124.018)"/><path d="M565.265,137c.684.769.113,1.079.838,1.13.763.057.33.813.972.839.45.021-.044,1.815.389,2.405.441.618.809.182.817.628s-1.2.415-1.22,1.835c-.036.818-1.019.871-1.065,1.4-.058.5,1.936.774,1.91,1.217s-2.154.372-2.247.877c-.047.453,2.92.824,3.159,2.134a11.915,11.915,0,0,1-2.655.283c-6,0-10.287-5.144-12.857-7.715,2.571-2.572,6.857-7.714,12.857-7.714,0,0-1.782,1.627-.9,2.684" transform="translate(-535.306 -124.033)" fill-rule="evenodd"/><rect width="0.623" height="2.057" transform="translate(22.799 15.257)" fill="#fff"/><rect width="0.623" height="2.057" transform="translate(22.799 18.685)" fill="#fff"/><rect width="0.623" height="2.057" transform="translate(24.047 15.257)" fill="#fff"/><rect width="0.623" height="2.057" transform="translate(24.047 18.685)" fill="#fff"/><rect width="0.623" height="2.057" transform="translate(25.293 15.257)" fill="#fff"/><rect width="0.623" height="2.057" transform="translate(25.293 18.685)" fill="#fff"/><rect width="0.625" height="2.057" transform="translate(26.539 15.257)" fill="#fff"/><rect width="0.625" height="2.057" transform="translate(26.539 18.685)" fill="#fff"/><rect width="0.623" height="2.057" transform="translate(27.787 15.257)" fill="#fff"/><rect width="0.623" height="2.057" transform="translate(27.787 18.685)" fill="#fff"/><rect width="0.623" height="2.057" transform="translate(29.033 15.257)" fill="#fff"/><rect width="0.623" height="2.057" transform="translate(29.033 18.685)" fill="#fff"/><rect width="0.623" height="2.057" transform="translate(32.228 15.257)"/><rect width="0.623" height="2.057" transform="translate(32.228 18.685)"/><rect width="0.625" height="2.057" transform="translate(33.475 15.257)"/><rect width="0.625" height="2.057" transform="translate(33.475 18.685)"/><rect width="0.623" height="2.057" transform="translate(34.722 15.257)"/><rect width="0.623" height="2.057" transform="translate(34.722 18.685)"/><rect width="0.623" height="2.057" transform="translate(35.968 15.257)"/><rect width="0.623" height="2.057" transform="translate(35.968 18.685)"/><rect width="0.623" height="2.057" transform="translate(37.216 15.257)"/><rect width="0.623" height="2.057" transform="translate(37.216 18.685)"/><rect width="0.623" height="2.057" transform="translate(38.462 15.257)"/><rect width="0.623" height="2.057" transform="translate(38.462 18.685)"/><path d="M564.363,136.164c-.356.69.623-.229,2.16.924a2.656,2.656,0,0,1,.693,1.453,4.631,4.631,0,0,1-.907-.392,2.425,2.425,0,0,1,.68,1.466c-.239-.151-.359-.128-.439-.313,0,.255.213.416.213.809a3.321,3.321,0,0,0-.467-.312c.226.393-.413,1.154-.093,1.409a2,2,0,0,1-1.359-.832.381.381,0,0,0-.137.344c.017.014-.852-.645-.772-.9a.806.806,0,0,0-.16.438,2.361,2.361,0,0,1-.719-1.038c-.142.185-.151.185-.292.369a1.476,1.476,0,0,1,.105-1.175,5.172,5.172,0,0,0-.424.322,3.748,3.748,0,0,1,1.919-2.574" transform="translate(-537.664 -124.509)" fill="#485ba3" fill-rule="evenodd"/><path d="M566.332,141.249l-.126-.018a2.027,2.027,0,0,1-1.384-.849.615.615,0,0,0-.073.327c-.062.044-.487-.333-.618-.476-.174-.188-.247-.326-.226-.423a3.053,3.053,0,0,0-.089.441,1.986,1.986,0,0,1-.786-1.033.34.34,0,0,1-.09.2l-.191.241-.016-.1a1.459,1.459,0,0,1,.1-1.134,2.554,2.554,0,0,1-.357.324,3.564,3.564,0,0,1,1.881-2.632c-.012.161-.033.231-.017.258s.089.03.159.03l.237,0a2.884,2.884,0,0,1,1.819.643,2.677,2.677,0,0,1,.707,1.481,2.982,2.982,0,0,1-.882-.321,2.05,2.05,0,0,1,.654,1.395.867.867,0,0,1-.258-.078.524.524,0,0,1-.181-.114c.031.057.057.115.085.179a1.148,1.148,0,0,1,.127.508c-.228-.109-.373-.2-.518-.281.164.157.069.438-.024.711s-.177.523-.03.64Zm-1.5-.913a2.185,2.185,0,0,0,1.29.81c-.088-.156-.008-.392.076-.639s.177-.526.076-.7a1.132,1.132,0,0,1,.519.267,3.965,3.965,0,0,0-.177-.453.8.8,0,0,1-.093-.329,1,1,0,0,0,.28.172,1.553,1.553,0,0,1,.211.112,2.685,2.685,0,0,0-.722-1.413c.049-.054.621.267.938.335a3.065,3.065,0,0,0-.72-1.393,2.818,2.818,0,0,0-1.778-.629l-.237,0c-.095,0-.182,0-.218-.062s-.015-.131.062-.28a3.988,3.988,0,0,0-1.854,2.594,1.136,1.136,0,0,1,.372-.355l.09-.06-.053.139a1.4,1.4,0,0,0-.094,1.1l.085-.174c.039-.047.076-.093.149-.188a3.081,3.081,0,0,0,.77,1.033.476.476,0,0,1,.108-.433c0,.222.649.768.82.89a.267.267,0,0,1,.1-.344" transform="translate(-537.672 -124.498)"/><path d="M563.847,140.047c.056-.474.181-.654.217-.959.067-.538-.012-.93.18-.92s.245.208.151.745a1.931,1.931,0,0,1-.548,1.134" transform="translate(-538.026 -125.026)" fill="#980015" fill-rule="evenodd"/><path d="M565.158,141.309c-.039-.4.035-.571.01-.829-.042-.454-.182-.761-.016-.79s.249.125.269.583a1.6,1.6,0,0,1-.263,1.036" transform="translate(-538.343 -125.418)" fill="#980015" fill-rule="evenodd"/><path d="M566.965,142.366c-.17-.348-.315-.45-.423-.674-.193-.392-.234-.711-.381-.654s-.14.223.074.607a1.546,1.546,0,0,0,.73.72" transform="translate(-538.597 -125.766)" fill="#980015" fill-rule="evenodd"/><path d="M567.366,138.366c-.429-.228-.651-.231-.927-.375-.488-.255-.772-.543-.872-.384s.033.315.536.548a2.037,2.037,0,0,0,1.263.211" transform="translate(-538.462 -124.87)" fill="#980015" fill-rule="evenodd"/><path d="M567.728,140.059c-.313-.261-.5-.3-.7-.467-.357-.294-.533-.582-.652-.465s-.039.271.335.549a1.661,1.661,0,0,0,1.017.383" transform="translate(-538.666 -125.267)" fill="#980015" fill-rule="evenodd"/></g></g></g></svg>