<svg xmlns="http://www.w3.org/2000/svg" xmlns:xlink="http://www.w3.org/1999/xlink" width="36" height="36" viewBox="0 0 36 36"><defs><clipPath id="a"><circle cx="18" cy="18" r="18" transform="translate(3221 618)" fill="#fff" stroke="#707070" stroke-width="1"/></clipPath><clipPath id="b"><rect width="61.714" height="36" fill="none"/></clipPath></defs><g transform="translate(-3221 -618)" clip-path="url(#a)"><g transform="translate(3078.128 103.581)"><g transform="translate(129.872 514.419)" clip-path="url(#b)"><rect width="61.715" height="36" fill="#bc0030"/><path d="M173.776,538.525c.9.241,2.264.181,2.876.9-.9-.242-2.011,1.215-2.876.9.763.535-11.114,0-10.16,0-.9-.242-2.266-.181-2.876-.9.9.24,2.011-1.215,2.876-.9-.766-.535-2.091-.949-2.4-1.825.764.535,2.318-.458,3.009.142-.535-.764-1.652-1.6-1.628-2.536.535.765,2.336.355,2.78,1.163-.242-.9-.969-2.063-.663-2.939.242.9,2.056,1.125,2.214,2.043.082-.93-.246-2.275.383-2.988-.08.929,1.557,1.759,1.383,2.678.394-.846.611-2.212,1.381-2.678-.4.845.891,2.18.381,2.988.66-.66,1.3-1.881,2.215-2.043-.66.66.043,2.339-.663,2.939.846-.394,1.843-1.324,2.779-1.163-.845.395-.761,2.217-1.627,2.536.929-.082,2.177-.608,3.008-.142-.929.081-1.444,1.825-2.4,1.825" transform="translate(-137.839 -518.849)" fill="#f3d02f"/><path d="M171.21,540.553c-1.844,0-6.855-.143-7.654-.241v0l0,0h-.01v0l-.038-.01a.189.189,0,0,1-.048-.013c-.241-.058-.51-.1-.795-.139a3.223,3.223,0,0,1-2.025-.754l-.127-.148.188.05a2.088,2.088,0,0,0,1.378-.455,2.735,2.735,0,0,1,1.206-.489c-.165-.1-.346-.2-.533-.3-.7-.375-1.419-.762-1.643-1.4l-.062-.178.154.108a2.189,2.189,0,0,0,1.455.042,2.89,2.89,0,0,1,1.292-.049c-.122-.149-.259-.3-.4-.461a3.054,3.054,0,0,1-1.059-1.879l.005-.183.1.15c.247.353.807.446,1.349.535a2.69,2.69,0,0,1,1.236.4c-.062-.18-.135-.367-.211-.562a3.273,3.273,0,0,1-.364-2.133l.065-.185.05.189c.112.416.6.693,1.079.961a2.7,2.7,0,0,1,1.03.8c0-.193-.005-.4-.013-.612a3.027,3.027,0,0,1,.4-2.122l.122-.138-.016.183c-.037.429.33.855.686,1.269a2.68,2.68,0,0,1,.7,1.11c.069-.178.135-.369.2-.565a3.394,3.394,0,0,1,1.088-1.871l.171-.1-.085.18a1.973,1.973,0,0,0,.216,1.408,2.62,2.62,0,0,1,.278,1.286c.122-.142.244-.3.372-.457.49-.619,1-1.259,1.666-1.377l.189-.033-.136.136a2.031,2.031,0,0,0-.3,1.419,2.714,2.714,0,0,1-.182,1.292c.169-.093.344-.2.525-.315a3.161,3.161,0,0,1,2.038-.723l.19.033-.174.082c-.393.183-.583.718-.766,1.235a2.735,2.735,0,0,1-.611,1.151c.19-.03.39-.072.6-.115a3.479,3.479,0,0,1,2.166.016l.171.1-.2.016c-.429.038-.781.47-1.122.889a2.653,2.653,0,0,1-.982.882c.187.036.387.066.594.1a3.219,3.219,0,0,1,2.029.755l.127.148-.188-.051a2.1,2.1,0,0,0-1.379.455,2.2,2.2,0,0,1-1.395.47c-.033.08-.211.21-2.593.21m-7.64-.349c.533.042,4.714.229,7.64.229a7.6,7.6,0,0,0,2.486-.148l.041-.086c.391.143.911-.14,1.4-.43a2.676,2.676,0,0,1,1.284-.5,3.639,3.639,0,0,0-1.83-.588,8.035,8.035,0,0,1-.891-.163l.016-.119c.459,0,.829-.454,1.187-.893a2.53,2.53,0,0,1,1.019-.895,3.844,3.844,0,0,0-1.922.073,7.962,7.962,0,0,1-.892.152l-.027-.117c.413-.153.6-.677.795-1.23a2.6,2.6,0,0,1,.668-1.208,3.828,3.828,0,0,0-1.778.725,8.094,8.094,0,0,1-.789.451l-.065-.1c.338-.286.332-.841.327-1.43a2.578,2.578,0,0,1,.215-1.36,3.6,3.6,0,0,0-1.422,1.289,8.379,8.379,0,0,1-.59.694l-.094-.076c.247-.391.042-.919-.174-1.479a2.53,2.53,0,0,1-.273-1.32,3.9,3.9,0,0,0-.89,1.7,8.963,8.963,0,0,1-.321.844l-.114-.036c.084-.441-.281-.865-.668-1.314a2.539,2.539,0,0,1-.711-1.178,3.366,3.366,0,0,0-.266,1.9,7.689,7.689,0,0,1,0,.916l-.119.005c-.076-.441-.562-.714-1.077-1a2.574,2.574,0,0,1-1.067-.858,3.705,3.705,0,0,0,.409,1.876,8.49,8.49,0,0,1,.3.855l-.111.044c-.213-.386-.764-.476-1.348-.573a2.561,2.561,0,0,1-1.309-.449,3.43,3.43,0,0,0,1.02,1.627,7.913,7.913,0,0,1,.588.7l-.09.08c-.284-.246-.866-.185-1.457-.076a2.764,2.764,0,0,1-1.386.026,3.543,3.543,0,0,0,1.517,1.178,7.83,7.83,0,0,1,.788.46l-.056.105c-.389-.142-.91.141-1.4.431a2.543,2.543,0,0,1-1.285.5,3.632,3.632,0,0,0,1.827.587,8.2,8.2,0,0,1,.894.163Z" transform="translate(-137.778 -518.787)" fill="#b49b21"/><path d="M164.56,539.487l-3.249-1.329,3.507-.137-2.6-2.359,3.343,1.071-1.636-3.1,2.775,2.149-.475-3.478,1.873,2.969.743-3.43.744,3.43,1.873-2.969-.475,3.478,2.774-2.149-1.635,3.1,3.343-1.071-2.6,2.359,3.508.137-3.25,1.329,3.25,1.328H161.311Z" transform="translate(-137.986 -518.915)" fill="#f3d02f"/><path d="M176.368,540.87H161.3l-.023-.116,3.112-1.272-3.112-1.273.021-.116,3.359-.131-2.489-2.26.059-.1,3.2,1.025-1.566-2.974.09-.076,2.658,2.058-.455-3.331.111-.04,1.793,2.844.712-3.286h.118l.713,3.286,1.793-2.844.111.04-.454,3.331,2.657-2.058.091.076-1.567,2.974,3.2-1.025.059.1-2.489,2.26,3.359.131.02.116-3.112,1.273,3.112,1.272Zm-14.756-.12H176.06l-3.1-1.268,3.129-1.28-3.377-.131,2.5-2.271-3.218,1.031,1.574-2.99-2.671,2.069.457-3.348-1.8,2.858-.717-3.3-.715,3.3-1.8-2.858.456,3.348-2.672-2.069,1.574,2.99-3.218-1.031,2.5,2.271-3.376.131,3.127,1.28Z" transform="translate(-137.978 -518.91)" fill="#b49b21"/><path d="M174.237,540.667a4.254,4.254,0,1,1-4.253-4.254,4.254,4.254,0,0,1,4.253,4.254" transform="translate(-139.126 -520.095)" fill="#f3d02f"/><path d="M169.963,544.96a4.314,4.314,0,1,1,4.314-4.314,4.32,4.32,0,0,1-4.314,4.314m0-8.508a4.194,4.194,0,1,0,4.193,4.194,4.2,4.2,0,0,0-4.193-4.194" transform="translate(-139.105 -520.074)" fill="#b49b21"/><rect width="61.715" height="14.019" transform="translate(0 21.982)" fill="#223e84"/><path d="M129.872,544.35c2.057,0,4.114,1.323,6.171,1.323s4.114-1.323,6.172-1.323,4.114,1.323,6.171,1.323,4.114-1.323,6.171-1.323,4.114,1.323,6.171,1.323,4.115-1.323,6.171-1.323,4.115,1.323,6.172,1.323,4.114-1.323,6.171-1.323,4.115,1.323,6.171,1.323,4.115-1.323,6.172-1.323v-2.2c-2.057,0-4.114,1.323-6.172,1.323s-4.114-1.323-6.171-1.323-4.114,1.323-6.171,1.323-4.114-1.323-6.172-1.323-4.114,1.323-6.171,1.323-4.114-1.323-6.171-1.323-4.114,1.323-6.171,1.323-4.115-1.323-6.171-1.323-4.115,1.323-6.172,1.323-4.115-1.323-6.171-1.323Z" transform="translate(-129.872 -521.575)" fill="#fff"/><path d="M129.872,550.292c2.057,0,4.114,1.322,6.171,1.322s4.114-1.322,6.172-1.322,4.114,1.322,6.171,1.322,4.114-1.322,6.171-1.322,4.114,1.322,6.171,1.322,4.115-1.322,6.171-1.322,4.115,1.322,6.172,1.322,4.114-1.322,6.171-1.322,4.115,1.322,6.171,1.322,4.115-1.322,6.172-1.322v-2.2c-2.057,0-4.114,1.323-6.172,1.323s-4.114-1.323-6.171-1.323-4.114,1.323-6.171,1.323-4.114-1.323-6.172-1.323-4.114,1.323-6.171,1.323-4.114-1.323-6.171-1.323-4.114,1.323-6.171,1.323-4.115-1.323-6.171-1.323-4.115,1.323-6.172,1.323-4.115-1.323-6.171-1.323Z" transform="translate(-129.872 -523.108)" fill="#fff"/><path d="M129.872,556.234c2.057,0,4.114,1.322,6.171,1.322s4.114-1.322,6.172-1.322,4.114,1.322,6.171,1.322,4.114-1.322,6.171-1.322,4.114,1.322,6.171,1.322,4.115-1.322,6.171-1.322,4.115,1.322,6.172,1.322,4.114-1.322,6.171-1.322,4.115,1.322,6.171,1.322,4.115-1.322,6.172-1.322v-2.2c-2.057,0-4.114,1.323-6.172,1.323s-4.114-1.323-6.171-1.323-4.114,1.323-6.171,1.323-4.114-1.323-6.172-1.323-4.114,1.323-6.171,1.323-4.114-1.323-6.171-1.323-4.114,1.323-6.171,1.323-4.115-1.323-6.171-1.323-4.115,1.323-6.172,1.323-4.115-1.323-6.171-1.323Z" transform="translate(-129.872 -524.642)" fill="#fff"/><path d="M173.349,528.15l2.281.016c.015-.1-.2-.289-.375-.317a10.926,10.926,0,0,0-1.711.1Z" transform="translate(-141.093 -517.879)" fill="#f3d02f"/><path d="M175.632,528.2l-2.477-.017.3-.3c.335-.021.576-.055.81-.088a3.005,3.005,0,0,1,.953-.033c.191.03.448.237.426.384Zm-2.2-.136,2.069.014a.533.533,0,0,0-.3-.2,2.936,2.936,0,0,0-.918.033,5.744,5.744,0,0,1-.783.071Z" transform="translate(-141.043 -517.857)" fill="#b49b21"/><path d="M166.682,527.278a3.449,3.449,0,0,0,2.566,1.154c1.338.008,2.82-1.074,4.613-1.406l-5.854-.12c-.757-.519-1.332-.453-1.724-.131l-1.12.034c-.158.086.131.447.365.459Z" transform="translate(-138.968 -517.543)" fill="#f3d02f"/><path d="M169.244,528.473h-.017a3.487,3.487,0,0,1-2.613-1.176l-1.106.013a.594.594,0,0,1-.465-.392.153.153,0,0,1,.071-.18l1.146-.041a1.418,1.418,0,0,1,1.761.141l5.821.111.01.119a11.526,11.526,0,0,0-2.28.751,6.538,6.538,0,0,1-2.327.656m-2.29-1.908a1,1,0,0,0-.653.237l-1.156.047a.508.508,0,0,0,.367.339l1.15.01a3.488,3.488,0,0,0,2.566,1.153l.016.06v-.06a6.48,6.48,0,0,0,2.282-.646,14.4,14.4,0,0,1,1.814-.649l-5.354-.11a1.936,1.936,0,0,0-1.032-.381" transform="translate(-138.947 -517.524)" fill="#b49b21"/><path d="M168.283,526.216a2.023,2.023,0,0,0-1.943-1.526,37.88,37.88,0,0,1-5.271-.772,6.607,6.607,0,0,0,3.283,1.225,6.609,6.609,0,0,1,3.052,1.065Z" transform="translate(-137.923 -516.871)" fill="#f3d02f"/><path d="M168.343,526.259l-.954-.01a6.741,6.741,0,0,0-3.06-1.065,6.768,6.768,0,0,1-3.316-1.242l.059-.1a26.3,26.3,0,0,0,4.2.655c.418.042.783.079,1.059.115a2.059,2.059,0,0,1,1.994,1.573Zm-7.048-2.232a7.4,7.4,0,0,0,3.051,1.036,6.7,6.7,0,0,1,3.08,1.077l.765,0a1.961,1.961,0,0,0-1.875-1.406c-.274-.036-.637-.073-1.055-.115a28.779,28.779,0,0,1-3.967-.59" transform="translate(-137.909 -516.851)" fill="#b49b21"/><path d="M169.837,526.788c.349.448.89.423,1.472.032s1.21-1.486,1.514-1.5a15.944,15.944,0,0,0,5.932-1.716,34.4,34.4,0,0,1-4.671.477c-2.68.01-3,1.231-4.089,2.086Z" transform="translate(-140.186 -516.788)" fill="#f3d02f"/><path d="M170.468,527.158a.858.858,0,0,1-.7-.353.061.061,0,0,1,.01-.085.062.062,0,0,1,.085.011c.424.542,1.054.246,1.391.018a4.668,4.668,0,0,0,.824-.852c.3-.364.537-.651.72-.663a16.151,16.151,0,0,0,5.6-1.547l-.186.027a30.034,30.034,0,0,1-4.15.4,3.859,3.859,0,0,0-3.345,1.406,6.721,6.721,0,0,1-.707.668.06.06,0,0,1-.085-.01.061.061,0,0,1,.01-.085,6.537,6.537,0,0,0,.694-.657A4,4,0,0,1,174.063,524a30.12,30.12,0,0,0,4.134-.4l.529-.076.038.113a16.015,16.015,0,0,1-5.958,1.723c-.13.008-.387.319-.634.619a4.7,4.7,0,0,1-.851.875,1.566,1.566,0,0,1-.853.308" transform="translate(-140.165 -516.768)" fill="#b49b21"/><path d="M170.377,526.336a.06.06,0,0,1-.033-.111,8.8,8.8,0,0,0,.933-.72c.208-.175.414-.351.633-.513a4.863,4.863,0,0,1,3.041-.7,20.36,20.36,0,0,0,3.494-.611l.1-.022a.058.058,0,0,1,.073.045.061.061,0,0,1-.046.073l-.1.023a20.425,20.425,0,0,1-3.52.614,4.78,4.78,0,0,0-2.971.677c-.216.161-.422.335-.627.509a8.706,8.706,0,0,1-.946.729.056.056,0,0,1-.032.01" transform="translate(-140.31 -516.803)" fill="#b49b21"/><path d="M167.363,526.186c-.156-.81-.9-1.085-1.973-1.247-.3-.045-.6-.085-.9-.125a18.49,18.49,0,0,1-2.508-.453,4.043,4.043,0,0,1-.55-.209c-.088-.039-.175-.077-.263-.112l.044-.113c.091.036.18.075.269.113a3.988,3.988,0,0,0,.533.2,18.565,18.565,0,0,0,2.492.449c.3.041.6.081.9.125,1.121.171,1.9.464,2.073,1.344Z" transform="translate(-137.95 -516.873)" fill="#b49b21"/><path d="M170.365,528.507c-.1,0-.2,0-.311-.012a.061.061,0,0,1-.056-.065.059.059,0,0,1,.065-.056,4.895,4.895,0,0,0,2.712-.684.061.061,0,0,1,.054.109,5.326,5.326,0,0,1-2.465.707" transform="translate(-140.228 -517.843)" fill="#b49b21"/><path d="M166.486,527.189h-1.334a.06.06,0,0,1,0-.12h1.334a.06.06,0,1,1,0,.12" transform="translate(-138.962 -517.684)" fill="#b49b21"/><path d="M167.655,526.9a.167.167,0,1,1-.167-.167.167.167,0,0,1,.167.167" transform="translate(-139.537 -517.597)" fill="#b49b21"/><path d="M167.468,527.1a.227.227,0,1,1,.227-.226.227.227,0,0,1-.227.226m0-.333a.106.106,0,0,0-.106.107c0,.117.212.117.212,0a.106.106,0,0,0-.106-.107" transform="translate(-139.516 -517.576)" fill="#b49b21"/></g></g></g></svg>