<svg xmlns="http://www.w3.org/2000/svg" xmlns:xlink="http://www.w3.org/1999/xlink" width="36" height="36" viewBox="0 0 36 36"><defs><clipPath id="a"><circle cx="18" cy="18" r="18" transform="translate(1434 195)" fill="#fff" stroke="#707070" stroke-width="1"/></clipPath><clipPath id="b"><rect width="63.282" height="36.914" transform="translate(30.079 514.419)" fill="none"/></clipPath></defs><g transform="translate(-1434 -195)" clip-path="url(#a)"><g transform="translate(1428.921 -24.419)"><g transform="translate(-29 -295)" clip-path="url(#b)"><rect width="63.283" height="36.914" transform="translate(30.079 514.419)" fill="#fff"/><rect width="63.283" height="24.611" transform="translate(30.079 526.723)" fill="#2534a4"/><rect width="63.283" height="12.305" transform="translate(30.079 539.029)" fill="#bc0030"/><path d="M42.379,525.824c-.743.056-.533.959-.625,1.471-.263,3.528-.626,7.172.453,10.609a11.88,11.88,0,0,0,5.345,6.539,8.742,8.742,0,0,0,1.866.943,9.224,9.224,0,0,0,1.955-1,11.838,11.838,0,0,0,5.255-6.484c1.1-3.495.7-7.2.44-10.784-.039-.493.035-1.349-.695-1.3Z" transform="translate(-2.727 -2.728)" fill="#fff"/><path d="M49.593,526.55v18.456c-8.535-4.135-7.6-10.984-7.039-18.456Zm0,0v18.456c8.535-4.135,7.6-10.984,7.039-18.456Z" transform="translate(-2.902 -2.902)" fill="#bc0030"/><path d="M51.752,532.608a14.022,14.022,0,0,1,2.694.339,3.3,3.3,0,0,1,0-2.234,14.012,14.012,0,0,1-2.694.339H49.758a14,14,0,0,1-2.694-.339,3.3,3.3,0,0,1,0,2.234,14.007,14.007,0,0,1,2.694-.339Z" transform="translate(-4.063 -3.898)" fill="#fff"/><path d="M52.281,537.026a14.013,14.013,0,0,1,2.7.339,3.278,3.278,0,0,1,0-2.234,14.022,14.022,0,0,1-2.7.339H48.738a14.022,14.022,0,0,1-2.694-.339,3.3,3.3,0,0,1,0,2.234,14.012,14.012,0,0,1,2.694-.339Z" transform="translate(-3.819 -4.955)" fill="#fff"/><path d="M50.438,527.479a13.889,13.889,0,0,1,.34,2.682v11.431h1.565V530.161a13.889,13.889,0,0,1,.34-2.682,3.326,3.326,0,0,1-2.245,0" transform="translate(-4.871 -3.124)" fill="#fff"/><path d="M46.681,542.384a1.826,1.826,0,0,0-1.83,1.822,1.8,1.8,0,0,0,.021.224,10.708,10.708,0,0,0,1.241,1.5,1.822,1.822,0,1,0,.569-3.55" transform="translate(-3.534 -6.69)" fill="#2534a4"/><path d="M51.182,540.968a2.321,2.321,0,1,0,2.329,2.323,2.329,2.329,0,0,0-2.329-2.323" transform="translate(-4.491 -6.352)" fill="#2534a4"/><path d="M56,542.384a1.824,1.824,0,1,0,.568,3.55,10.668,10.668,0,0,0,1.244-1.506,1.526,1.526,0,0,0,.022-.221A1.829,1.829,0,0,0,56,542.384" transform="translate(-5.762 -6.69)" fill="#2534a4"/><path d="M45.257,545.594a13.408,13.408,0,0,0,5.065,3.969,13.39,13.39,0,0,0,5.064-3.969Z" transform="translate(-3.631 -7.458)" fill="#2534a4"/></g></g></g></svg>