<svg xmlns="http://www.w3.org/2000/svg" xmlns:xlink="http://www.w3.org/1999/xlink" width="36" height="36" viewBox="0 0 36 36"><defs><clipPath id="a"><circle cx="18" cy="18" r="18" transform="translate(2655 565)" fill="#fff" stroke="#707070" stroke-width="1"/></clipPath><clipPath id="b"><rect width="61.713" height="36" fill="none"/></clipPath></defs><g transform="translate(-2655 -565)" clip-path="url(#a)"><g transform="translate(2425.335 129.375)"><g transform="translate(229.665 435.625)" clip-path="url(#b)"><rect width="61.714" height="35.999" transform="translate(0 0.001)" fill="#fff"/><path d="M229.665,469.018h61.714v-4H229.665Zm0-8h61.714v-4H229.665Zm20.006-8h41.707v-4H249.671Zm0-8h41.707v-4H249.671Z" transform="translate(-229.665 -437.017)" fill="#3e73b7"/><path d="M242.2,449.143l.174,2.957c-2.724,1.971-1.043,3.13-3.015,3.767,1.334-1.332-.406-1.332,1.1-4.348" transform="translate(-232.166 -439.114)" fill="#eac126" fill-rule="evenodd"/><path d="M242.175,449.144l.174,2.957h-.116L242,449.144Zm.174,2.957h0v.058l-.058-.058Zm0,.058a3.915,3.915,0,0,0-1.8,2.434h-.174a4.085,4.085,0,0,1,1.855-2.551Zm-1.8,2.434a1.51,1.51,0,0,1-1.218,1.333l-.058-.116a1.368,1.368,0,0,0,1.1-1.217Zm-1.218,1.333-.289.116.174-.174h.058Zm-.116-.058c.58-.637.58-.985.464-1.449h.174a1.482,1.482,0,0,1-.522,1.507Zm.464-1.449a4.365,4.365,0,0,1,.637-2.9l.116.058a4.056,4.056,0,0,0-.58,2.841Z" transform="translate(-232.086 -439.114)" fill="#292c2f"/><path d="M241.27,452.17a6.534,6.534,0,0,0-.927,2.9l-.174-.058a8.016,8.016,0,0,1,.985-2.9Zm-.927,2.9c-.116.754-.232,1.333-.927,1.623l-.059-.116c.638-.289.7-.812.813-1.565Z" transform="translate(-232.166 -439.88)" fill="#292c2f"/><path d="M243.105,446.783l-.231-3.014c2.725-1.971,1.044-3.132,3.015-3.77-1.276,1.393.406,1.393-1.1,4.349" transform="translate(-233.074 -436.754)" fill="#eac126" fill-rule="evenodd"/><path d="M242.97,446.743l-.174-2.956.116-.058.231,3.014Zm-.174-2.956v-.058h.058Zm0-.058a3.636,3.636,0,0,0,1.8-2.492l.175.058a4.011,4.011,0,0,1-1.856,2.492Zm1.8-2.492a1.57,1.57,0,0,1,1.218-1.335l.058.116a1.376,1.376,0,0,0-1.1,1.277Zm1.218-1.335.289-.058-.174.174-.058-.058Zm.116.116c-.579.637-.579.929-.464,1.393l-.174.058a1.575,1.575,0,0,1,.522-1.566Zm-.464,1.393a4.551,4.551,0,0,1-.637,2.956l-.116-.058a4.083,4.083,0,0,0,.58-2.84Z" transform="translate(-233.054 -436.714)" fill="#292c2f"/><path d="M244.359,444.445a7.824,7.824,0,0,0,.987-2.84h.115a7.684,7.684,0,0,1-.985,2.9Zm.987-2.84c.115-.812.174-1.335.869-1.683l.058.116c-.638.291-.7.812-.812,1.566Z" transform="translate(-233.457 -436.734)" fill="#292c2f"/><path d="M240.826,448.155l-3.015.174c-1.972-2.724-3.132-1.043-3.77-3.014,1.392,1.333,1.334-.348,4.35,1.1" transform="translate(-230.794 -438.126)" fill="#eac126" fill-rule="evenodd"/><path d="M240.766,448.152l-3.015.232v-.174l2.957-.174Zm-3.015.232h0l-.058-.058.058-.058Zm-.058-.058a3.65,3.65,0,0,0-2.435-1.8v-.116a3.738,3.738,0,0,1,2.551,1.855Zm-2.435-1.8a1.568,1.568,0,0,1-1.334-1.217l.116-.058a1.52,1.52,0,0,0,1.218,1.159Zm-1.334-1.217-.116-.231.231.174h-.058Zm.116-.058a1.369,1.369,0,0,0,1.392.464l.058.116a1.575,1.575,0,0,1-1.565-.522Zm1.392.464a4.047,4.047,0,0,1,2.957.579l-.116.116a4.314,4.314,0,0,0-2.784-.579Z" transform="translate(-230.734 -438.066)" fill="#292c2f"/><path d="M238.486,447.285a6.859,6.859,0,0,0-2.841-.985v-.174a7.046,7.046,0,0,1,2.9,1.043Zm-2.841-.985c-.812-.116-1.334-.231-1.682-.927l.116-.058c.289.637.811.754,1.565.812Z" transform="translate(-230.774 -438.126)" fill="#292c2f"/><path d="M243.186,449.062l2.957-.231c1.973,2.724,3.132,1.1,3.77,3.015-1.392-1.277-1.333.406-4.349-1.1" transform="translate(-233.155 -439.033)" fill="#eac126" fill-rule="evenodd"/><path d="M243.109,448.984l3.015-.232v.116l-2.957.232Zm3.015-.232h.058l-.058.058Zm.058,0a3.8,3.8,0,0,0,2.436,1.855v.116a3.947,3.947,0,0,1-2.551-1.855Zm2.436,1.855a1.431,1.431,0,0,1,1.334,1.219h-.116a1.368,1.368,0,0,0-1.218-1.1Zm1.334,1.219.116.231-.231-.174.058-.058Zm-.116.058a1.341,1.341,0,0,0-1.392-.465l-.058-.116a1.413,1.413,0,0,1,1.565.464Zm-1.392-.465a4.364,4.364,0,0,1-2.9-.637l.058-.116a4.117,4.117,0,0,0,2.784.638Z" transform="translate(-233.135 -439.013)" fill="#292c2f"/><path d="M246.216,450.315a7.716,7.716,0,0,0,2.9.985l-.058.116a7.037,7.037,0,0,1-2.9-.985Zm2.9.985c.754.116,1.276.174,1.623.927l-.116.059c-.289-.7-.812-.755-1.565-.871Z" transform="translate(-233.922 -439.417)" fill="#292c2f"/><path d="M240.826,449.143l-1.971,2.261c-3.363-.579-3.016,1.45-4.813.523,1.914-.059.7-1.219,3.827-2.32" transform="translate(-230.794 -439.114)" fill="#eac126" fill-rule="evenodd"/><path d="M240.726,449.124l-1.913,2.26-.116-.058,1.971-2.261Zm-1.913,2.26-.059.059v-.059Zm-.059.059a3.691,3.691,0,0,0-3.015.465l-.116-.116a3.953,3.953,0,0,1,3.131-.523Zm-3.015.465a1.615,1.615,0,0,1-1.855.058l.058-.118a1.43,1.43,0,0,0,1.682-.056Zm-1.855.058-.231-.118h.289v.06Zm.058-.118a1.38,1.38,0,0,0,1.334-.7l.116.116a1.425,1.425,0,0,1-1.45.7Zm1.334-.7a4.408,4.408,0,0,1,2.493-1.623l.058.116a3.966,3.966,0,0,0-2.435,1.623Z" transform="translate(-230.694 -439.094)" fill="#292c2f"/><path d="M238.565,450.431a7.359,7.359,0,0,0-2.726,1.333l-.058-.116a7.359,7.359,0,0,1,2.726-1.333Zm-2.726,1.333c-.637.465-1.044.813-1.8.523v-.117c.7.233,1.1-.056,1.74-.522Z" transform="translate(-230.795 -439.417)" fill="#292c2f"/><path d="M243.186,448.069l1.914-2.261c3.363.522,3.016-1.507,4.813-.579-1.913.058-.7,1.275-3.827,2.318" transform="translate(-233.155 -438.04)" fill="#eac126" fill-rule="evenodd"/><path d="M243.108,448l1.914-2.26.116.116-1.973,2.2Zm1.914-2.26h.059v.058Zm.059,0a3.955,3.955,0,0,0,3.015-.464l.116.116a4.015,4.015,0,0,1-3.131.464Zm3.015-.464a1.615,1.615,0,0,1,1.855-.117l-.058.117a1.42,1.42,0,0,0-1.682.116Zm1.855-.117.231.117-.289.058v-.116Zm-.058.174a1.358,1.358,0,0,0-1.334.637l-.116-.058a1.616,1.616,0,0,1,1.45-.754Zm-1.334.637a4.408,4.408,0,0,1-2.494,1.623l-.058-.116a3.98,3.98,0,0,0,2.436-1.565Z" transform="translate(-233.135 -438.024)" fill="#292c2f"/><path d="M246.157,447.063a5.933,5.933,0,0,0,2.726-1.333l.058.116a6.528,6.528,0,0,1-2.726,1.391Zm2.726-1.333c.637-.464,1.1-.754,1.8-.522v.116c-.7-.231-1.1.116-1.74.522Z" transform="translate(-233.922 -438.077)" fill="#292c2f"/><path d="M242.112,446.783l-2.261-1.97c.522-3.362-1.508-3.014-.58-4.813.058,1.915,1.276.7,2.32,3.827" transform="translate(-232.081 -436.754)" fill="#eac126" fill-rule="evenodd"/><path d="M242.029,446.762l-2.261-1.971.116-.116,2.2,1.971Zm-2.261-1.971h0v-.059h.058Zm0-.059a4.242,4.242,0,0,0-.464-3.014l.116-.058a4.119,4.119,0,0,1,.464,3.071Zm-.464-3.014a1.44,1.44,0,0,1-.117-1.8l.117.058a1.446,1.446,0,0,0,.116,1.683Zm-.117-1.8.117-.232v.232h-.117Zm.117,0a1.382,1.382,0,0,0,.7,1.335l-.058.116a1.545,1.545,0,0,1-.755-1.45Zm.7,1.335a4.4,4.4,0,0,1,1.623,2.492l-.116.059a4.507,4.507,0,0,0-1.565-2.435Z" transform="translate(-232.056 -436.674)" fill="#292c2f"/><path d="M241.106,444.524a5.925,5.925,0,0,0-1.334-2.724l.116-.058a6.447,6.447,0,0,1,1.392,2.782Zm-1.334-2.724c-.464-.637-.755-1.043-.522-1.8h.116c-.232.7.058,1.1.522,1.74Z" transform="translate(-232.118 -436.754)" fill="#292c2f"/><path d="M243.186,449.143l2.2,1.913c-.522,3.363,1.508,3.016.579,4.812-.058-1.855-1.276-.637-2.319-3.827" transform="translate(-233.155 -439.114)" fill="#eac126" fill-rule="evenodd"/><path d="M243.167,449.065l2.261,1.913-.058.116-2.261-1.913Zm2.261,1.913.059.059-.059.058-.058-.058Zm0,.116a4.327,4.327,0,0,0,.464,3.015l-.116.058a4.3,4.3,0,0,1-.464-3.131Zm.464,3.015a1.438,1.438,0,0,1,.116,1.8l-.116-.058a1.434,1.434,0,0,0-.116-1.681Zm.116,1.8-.116.232v-.29h.059Zm-.116-.058a1.447,1.447,0,0,0-.7-1.333l.058-.058a1.442,1.442,0,0,1,.754,1.391Zm-.7-1.333c-.464-.29-1.044-.754-1.623-2.494h.116a4.79,4.79,0,0,0,1.565,2.436Z" transform="translate(-233.135 -439.094)" fill="#292c2f"/><path d="M244.475,452.112a6.566,6.566,0,0,0,1.334,2.726l-.116.116a6.536,6.536,0,0,1-1.335-2.784Zm1.334,2.726a1.894,1.894,0,0,1,.521,1.855l-.115-.058c.231-.7-.058-1.1-.522-1.681Z" transform="translate(-233.457 -439.88)" fill="#292c2f"/><path d="M242.723,449.143H244l-1.276,7.3-1.333-7.3h1.333v7.3" transform="translate(-232.691 -439.114)" fill="#eac126" fill-rule="evenodd"/><path d="M242.683,449.065h1.276v.116h-1.276Zm1.275,0h.116v.058h-.116Zm.116.058-1.333,7.3h-.174l1.334-7.3Zm-1.333,7.3-.058.348-.116-.348h.174Zm-.174,0-1.333-7.3h.174l1.333,7.3Zm-1.333-7.363h.116v.058h-.116Zm.116,0h1.333v.116h-1.333Zm1.333,0h.058v.058h-.058Zm.058,7.363h-.174v-7.3h.174Z" transform="translate(-232.651 -439.094)" fill="#292c2f"/><path d="M242.723,446.582h-1.333l1.333-7.363L244,446.582h-1.276v-7.363" transform="translate(-232.691 -436.553)" fill="#eac126" fill-rule="evenodd"/><path d="M242.683,446.519h-1.333V446.4h1.333Zm-1.333,0h-.116v-.058h.116Zm-.116-.058,1.333-7.363.174.059-1.333,7.3Zm1.333-7.363.116-.347.058.347h-.174Zm.174,0,1.333,7.363H243.9l-1.334-7.3Zm1.333,7.42h-.116v-.058h.116Zm-.116,0h-1.276V446.4h1.276Zm-1.275,0h-.116v-.058h.116Zm-.116-7.42h.174v7.363h-.174Z" transform="translate(-232.651 -436.432)" fill="#292c2f"/><path d="M240.624,448.68v1.333l-7.365-1.333,7.365-1.333v1.333h-7.365" transform="translate(-230.593 -438.65)" fill="#eac126" fill-rule="evenodd"/><path d="M240.562,449.972h-.174v-1.333h.174Zm0,0v.058h-.116l.059-.058Zm-.116.058-7.306-1.333.059-.116,7.306,1.333Zm-7.306-1.333-.348-.058.348-.058v.116Zm0-.116,7.306-1.333.059.116L233.2,448.7Zm7.306-1.333.116-.058v.116H240.5Zm.116,1.391h-.174v-1.333h.174Zm0,.058H240.5v-.058h.058Zm-.058,0h-7.365v-.116H240.5Z" transform="translate(-230.472 -438.61)" fill="#292c2f"/><path d="M243.186,448.68v-1.333l7.307,1.333-7.307,1.333V448.68h7.307" transform="translate(-233.155 -438.65)" fill="#eac126" fill-rule="evenodd"/><path d="M243.03,447.306h.174v1.333h-.174Zm0,0v-.116l.116.058v.058Zm.116-.058,7.306,1.333-.058.116-7.307-1.332Zm7.306,1.333.349.058-.349.058v-.116Zm0,.116-7.306,1.333-.059-.116,7.307-1.333Zm-7.306,1.333h-.116v-.058h.116Zm-.116-1.391h.174v1.333h-.174Zm0-.058h.116v.058h-.116Zm.116,0h7.307v.116h-7.307Z" transform="translate(-233.114 -438.61)" fill="#292c2f"/><path d="M241.371,448.8l.928.927-6.147,4.233,4.233-6.145.985.985-5.219,5.16" transform="translate(-231.339 -438.771)" fill="#eac126" fill-rule="evenodd"/><path d="M241.29,448.722l.986.927-.116.116-.928-.927Zm.986.927.058.058-.116.058v-.058Zm-.058.116L236.129,454l-.058-.116,6.089-4.233ZM236.129,454l-.29.232.174-.348.058.058Zm-.116-.116,4.233-6.087.116.058L236.129,454Zm4.233-6.087.058-.058.058.058h-.116Zm.116,0,.927.927-.058.116-.985-.985Zm.927.927.058.058-.058.058v-.116Zm0,.116L236.129,454l-.058-.116,5.161-5.16Z" transform="translate(-231.258 -438.751)" fill="#292c2f"/><path d="M242.844,447.329l-.985-.985,6.147-4.231-4.233,6.144-.928-.927,5.161-5.216" transform="translate(-232.812 -437.299)" fill="#eac126" fill-rule="evenodd"/><path d="M242.765,447.305l-.985-.985.116-.058.927.927Zm-.985-.985v-.058h.058Zm.058-.058,6.089-4.289.058.116L241.9,446.32Zm6.089-4.289.29-.174-.174.29-.058-.058Zm.116.116-4.233,6.144-.116-.116,4.233-6.086Zm-4.233,6.144-.058.058-.058-.058.058-.058Zm-.116,0-.928-.927.058-.116.986.927Zm-.928-.927-.058-.058.058-.058.058.058Zm0-.116,5.161-5.158.116.058-5.219,5.216Z" transform="translate(-232.792 -437.219)" fill="#292c2f"/><path d="M241.371,447.329l-.985.927-4.233-6.144,6.147,4.231-.928.985-5.219-5.216" transform="translate(-231.339 -437.299)" fill="#eac126" fill-rule="evenodd"/><path d="M241.29,447.305l-.927.927-.116-.116.985-.927Zm-.927.927-.058.058-.058-.058.058-.058Zm-.116,0-4.233-6.144.116-.058,4.233,6.086Zm-4.233-6.144-.174-.29.29.174-.058.058Zm.116-.116,6.089,4.289-.058.058-6.089-4.231Zm6.089,4.289h.116l-.058.058Zm.058.058-.986.985-.058-.116.928-.927Zm-.986.985h-.058l.058-.058Zm-.058,0-5.161-5.216.058-.058,5.161,5.158Z" transform="translate(-231.258 -437.219)" fill="#292c2f"/><path d="M242.844,448.8l.928-.985,4.233,6.145-6.147-4.233.985-.927,5.161,5.16" transform="translate(-232.812 -438.771)" fill="#eac126" fill-rule="evenodd"/><path d="M242.765,448.722l.928-.927.116.058-.986.985Zm.928-.927.058-.058.058.058h-.116Zm.116,0,4.233,6.087-.116.116-4.233-6.145Zm4.233,6.087.174.348-.29-.232.058-.058Zm-.116.116-6.089-4.233.058-.116,6.089,4.233Zm-6.089-4.233-.058-.058v-.058l.058.058Zm-.058-.116.985-.927.058.116-.927.927Zm.985-.927.058-.058v.116Zm.058,0,5.219,5.16-.116.116-5.161-5.16Z" transform="translate(-232.792 -438.751)" fill="#292c2f"/><path d="M244.755,448.3a2.465,2.465,0,0,0-4.929,0,2.465,2.465,0,0,0,4.929,0" transform="translate(-232.288 -438.267)" fill="#eac126" fill-rule="evenodd"/><path d="M244.619,448.256a2.143,2.143,0,0,0-.7-1.68l.116-.116a2.542,2.542,0,0,1,.754,1.8Zm-.7-1.68a2.108,2.108,0,0,0-1.624-.7v-.174a2.516,2.516,0,0,1,1.74.754Zm-1.624-.7a2.147,2.147,0,0,0-1.682.7l-.116-.116a2.546,2.546,0,0,1,1.8-.754Zm-1.682.7a2.144,2.144,0,0,0-.7,1.68h-.174a2.542,2.542,0,0,1,.754-1.8Zm-.7,1.68a2.322,2.322,0,0,0,.7,1.681l-.116.058a2.409,2.409,0,0,1-.754-1.739Zm.7,1.681a2.36,2.36,0,0,0,1.682.7v.116a2.546,2.546,0,0,1-1.8-.754Zm1.682.7a2.327,2.327,0,0,0,1.624-.7l.116.058a2.516,2.516,0,0,1-1.74.754Zm1.624-.7a2.321,2.321,0,0,0,.7-1.681h.174a2.409,2.409,0,0,1-.754,1.739Z" transform="translate(-232.267 -438.227)" fill="#292c2f"/><path d="M245.006,447.69c-.116.174-.232-.116-.755-.116-.579,0-.637.289-.754.231-.058-.058.464-.464.638-.464a1.132,1.132,0,0,1,.87.348" transform="translate(-233.234 -438.646)" fill="#292c2f" fill-rule="evenodd"/><path d="M244.512,448.05c.174.174.058.464-.116.464s-.464-.29-.29-.464" transform="translate(-233.378 -438.832)" fill="#292c2f" fill-rule="evenodd"/><path d="M243.734,448.241c0-.29.231-.348.579-.348s.522.29.639.348c-.117,0-.291-.231-.639-.231s-.348,0-.579.231" transform="translate(-233.296 -438.791)" fill="#292c2f" fill-rule="evenodd"/><path d="M243.811,448.413c.057-.116.173.116.464.116a.809.809,0,0,0,.521-.174c.116-.116-.231.289-.464.289s-.579-.174-.521-.232" transform="translate(-233.314 -438.905)" fill="#292c2f" fill-rule="evenodd"/><path d="M244.828,448.455c.29-.116.116-.348,0-.406.058.058.231.29,0,.406" transform="translate(-233.579 -438.832)" fill="#292c2f" fill-rule="evenodd"/><path d="M243.146,450.373c.116,0,.174-.058.349-.058s.579.289.811.174c-.522.232-.289.058-1.16.058h-.116" transform="translate(-233.114 -439.417)" fill="#292c2f" fill-rule="evenodd"/><path d="M244.805,450.721a2.89,2.89,0,0,0-.29-.406.6.6,0,0,1,.29.406" transform="translate(-233.498 -439.417)" fill="#292c2f" fill-rule="evenodd"/><path d="M243.146,450.955c.522,0,.464-.116,1.16-.406a8.207,8.207,0,0,1-1.16.232h-.116" transform="translate(-233.114 -439.477)" fill="#292c2f" fill-rule="evenodd"/><path d="M243.186,449.822c.116,0,.174-.116.349-.116a.81.81,0,0,1,.522.174c.058,0-.058-.174-.232-.174-.174-.058-.116-.348-.289-.406,0,.116.058.116.058.231s-.175.117-.233,0c.058.174-.116.174-.174.174" transform="translate(-233.155 -439.155)" fill="#292c2f" fill-rule="evenodd"/><path d="M240.764,447.69c.116.174.231-.116.755-.116.579,0,.637.289.753.231.058-.058-.464-.464-.637-.464a1.132,1.132,0,0,0-.87.348" transform="translate(-232.53 -438.646)" fill="#292c2f" fill-rule="evenodd"/><path d="M241.594,448.05c-.174.174-.058.464.116.464s.464-.29.29-.464" transform="translate(-232.722 -438.832)" fill="#292c2f" fill-rule="evenodd"/><path d="M242.137,448.241c0-.29-.231-.348-.579-.348s-.522.29-.639.348c.174,0,.291-.231.639-.231s.348,0,.579.231" transform="translate(-232.57 -438.791)" fill="#292c2f" fill-rule="evenodd"/><path d="M242.132,448.413c-.058-.116-.174.116-.464.116a.813.813,0,0,1-.522-.174c-.116-.116.232.289.464.289.29,0,.579-.174.522-.232" transform="translate(-232.622 -438.905)" fill="#292c2f" fill-rule="evenodd"/><path d="M241.413,448.455c-.291-.116-.116-.348,0-.406-.058.058-.231.29,0,.406" transform="translate(-232.656 -438.832)" fill="#292c2f" fill-rule="evenodd"/><path d="M242.762,450.373c-.174,0-.231-.058-.406-.058s-.579.289-.812.174c.522.232.29.058,1.217.058h.058" transform="translate(-232.731 -439.417)" fill="#292c2f" fill-rule="evenodd"/><path d="M241.39,450.721a3.988,3.988,0,0,0,.29-.406.888.888,0,0,0-.29.406" transform="translate(-232.691 -439.417)" fill="#292c2f" fill-rule="evenodd"/><path d="M242.762,450.955c-.579,0-.464-.116-1.217-.406a7.589,7.589,0,0,0,1.217.232h.058" transform="translate(-232.731 -439.477)" fill="#292c2f" fill-rule="evenodd"/><path d="M242.858,449.822c-.174,0-.231-.116-.406-.116a.81.81,0,0,0-.522.174c-.058,0,.058-.174.232-.174.174-.058.116-.348.289-.406,0,.116-.058.116-.058.231s.174.117.232,0c-.059.174.116.174.231.174" transform="translate(-232.827 -439.155)" fill="#292c2f" fill-rule="evenodd"/><path d="M243.113,451.409c-.116,0-.406.058,0,.058.349,0,.058-.058,0-.058" transform="translate(-233.082 -439.699)" fill="#292c2f" fill-rule="evenodd"/></g></g></g></svg>