<svg xmlns="http://www.w3.org/2000/svg" xmlns:xlink="http://www.w3.org/1999/xlink" width="36" height="36" viewBox="0 0 36 36"><defs><clipPath id="a"><circle cx="18" cy="18" r="18" transform="translate(3212 869)" fill="#fff" stroke="#707070" stroke-width="1"/></clipPath><clipPath id="b"><rect width="61.713" height="36" fill="none"/></clipPath></defs><g transform="translate(-3212 -869)" clip-path="url(#a)"><g transform="translate(2779.748 433.375)"><g transform="translate(429.252 435.625)" clip-path="url(#b)"><rect width="61.713" height="35.999" transform="translate(0 0.001)" fill="#1c2a7d"/><path d="M448.369,473.91l-.777-3.1-2.224,2.3.88-3.075-3.075.878,2.3-2.223-3.1-.777,3.1-.777-2.3-2.223,3.075.878-.88-3.075,2.224,2.3.777-3.1.777,3.1,2.223-2.3-.878,3.075,3.075-.878-2.3,2.223,3.1.777-3.1.777,2.3,2.223-3.075-.878.878,3.075-2.223-2.3Z" transform="translate(-432.637 -442.409)" fill="#fff"/><rect width="61.713" height="3" transform="translate(0 16.501)" fill="#f4c533"/></g></g></g></svg>