<svg xmlns="http://www.w3.org/2000/svg" xmlns:xlink="http://www.w3.org/1999/xlink" width="36" height="36" viewBox="0 0 36 36"><defs><clipPath id="a"><circle cx="18" cy="18" r="18" transform="translate(1072 188)" fill="#fff" stroke="#707070" stroke-width="1"/></clipPath><clipPath id="b"><rect width="61.714" height="36" fill="none"/></clipPath></defs><g transform="translate(-1072 -188)" clip-path="url(#a)"><g transform="translate(642.748 67.545)"><g transform="translate(429.252 120.455)" clip-path="url(#b)"><rect width="61.714" height="4" transform="translate(0 32)" fill="#16007e"/><rect width="61.714" height="4" transform="translate(0 28.001)" fill="#fff"/><rect width="61.714" height="4" transform="translate(0 24)" fill="#16007e"/><rect width="61.714" height="4" transform="translate(0 20)" fill="#fff"/><rect width="61.714" height="4" transform="translate(0 16)" fill="#16007e"/><rect width="61.714" height="4" transform="translate(0 12)" fill="#fff"/><rect width="61.714" height="4" transform="translate(0 8)" fill="#16007e"/><rect width="61.714" height="4" transform="translate(0 4)" fill="#fff"/><rect width="61.714" height="4" transform="translate(0 -0.001)" fill="#16007e"/><rect width="20" height="20.001" fill="#16007e"/><rect width="20" height="4" transform="translate(0 8)" fill="#fff"/><rect width="4.001" height="20.001" transform="translate(7.999)" fill="#fff"/></g></g></g></svg>