<svg xmlns="http://www.w3.org/2000/svg" xmlns:xlink="http://www.w3.org/1999/xlink" width="36" height="36" viewBox="0 0 36 36"><defs><clipPath id="a"><circle cx="18" cy="18" r="18" transform="translate(802 191)" fill="#fff" stroke="#707070" stroke-width="1"/></clipPath><clipPath id="b"><rect width="61.921" height="36.121" fill="none"/></clipPath></defs><g transform="translate(-802 -191)" clip-path="url(#a)"><g transform="translate(365.747 -8.241)"><g transform="translate(429.253 199.241)" clip-path="url(#b)"><rect width="40.265" height="36.121" transform="translate(21.656)" fill="#ea0020"/><rect width="21.656" height="36.121" fill="#2a680b"/><path d="M462.571,227.5c-2.726-.081-15.227-7.891-15.312-9.134l.69-1.151c1.24,1.8,14.019,9.4,15.274,9.127Z" transform="translate(-433.855 -203.834)" fill="#fcff2c"/><path d="M447.763,216.927c-.244.659,3.263,2.829,7.48,5.4s7.857,4.154,8.127,3.927a2.334,2.334,0,0,0,.121-.228c-.049.077-.173.1-.365.045a42.293,42.293,0,0,1-7.795-3.928c-3.681-2.235-6.884-4.294-7.381-5.169a.533.533,0,0,1-.055-.257h-.012l-.106.186-.015.029ZM462.595,227.4c-.046.084-.133.087-.295.07-1.021-.114-4.115-1.62-7.776-3.812-4.259-2.553-7.778-4.878-7.4-5.486l.1-.184.021.006c-.343,1.03,6.944,5.2,7.373,5.465,4.216,2.614,7.771,4.141,8.085,3.744Z" transform="translate(-433.815 -203.707)" fill="#fcff2c"/><path d="M462.418,227.5a1.254,1.254,0,0,1-.13-.008c-1.039-.116-4.168-1.65-7.786-3.816-4.833-2.9-7.263-4.64-7.428-5.329a.25.25,0,0,1,.023-.193l.1-.182a.26.26,0,0,0,0,.059l-.057.15a.191.191,0,0,0-.017.154c.161.675,2.583,2.407,7.4,5.3,3.612,2.163,6.733,3.694,7.766,3.808.154.017.231.012.27-.055l.069-.119a.316.316,0,0,1-.137.022c-.859,0-4.047-1.425-7.894-3.81-.039-.025-.14-.084-.289-.172-4.708-2.776-7.1-4.536-7.107-5.237.1.459,1.2,1.7,7.133,5.192.15.088.25.147.291.173,3.838,2.38,7.014,3.8,7.866,3.8a.239.239,0,0,0,.185-.052l0,.006a.08.08,0,0,1-.016.054l-.054.167a.2.2,0,0,1-.191.089m.853-1.211c-.634,0-4.085-1.539-8.049-3.952-4.54-2.764-7.735-4.771-7.491-5.428l.122-.217.008.013-.069.2c-.26.693,3.84,3.189,7.457,5.391,3.957,2.408,7.394,3.945,8.022,3.945a.124.124,0,0,0,.075-.016l.069-.128a.475.475,0,0,1-.3-.01,43.039,43.039,0,0,1-7.8-3.931c-3.359-2.038-6.863-4.248-7.391-5.178a.565.565,0,0,1-.059-.269c.05.089.072.188.1.244.526.925,4.217,3.243,7.373,5.159a42.994,42.994,0,0,0,7.789,3.926c.167.048.29.033.336-.034.054.018.056.021-.049.205-.056.075-.091.084-.141.084" transform="translate(-433.806 -203.702)"/><path d="M455.621,219.1a25.7,25.7,0,0,0,8.033-1.146l-.418-.679c-1.146.633-4.53,1.051-7.638,1.114-3.676-.034-6.269-.377-7.571-1.249l-.394.723a19.844,19.844,0,0,0,7.987,1.237" transform="translate(-433.951 -203.815)" fill="#fcff2c"/><path d="M463.729,217.939a11.766,11.766,0,0,1-3.191.864,32.785,32.785,0,0,1-4.964.359,34.883,34.883,0,0,1-4.754-.3,13.822,13.822,0,0,1-3.335-.884c.035-.07.058-.121.093-.186a14.5,14.5,0,0,0,3.272.868,34.893,34.893,0,0,0,4.718.3,33.322,33.322,0,0,0,4.927-.366,7.985,7.985,0,0,0,3.1-.89Zm-.366-.689a9.606,9.606,0,0,1-3.052.823,32.79,32.79,0,0,1-4.717.331,31.391,31.391,0,0,1-4.555-.294,12.549,12.549,0,0,1-3.176-.8c.036-.061.071-.121.109-.182a10.843,10.843,0,0,0,3.089.788,32.753,32.753,0,0,0,4.534.281,32.128,32.128,0,0,0,4.682-.333,8.192,8.192,0,0,0,2.954-.834Z" transform="translate(-433.913 -203.788)" fill="#fcff2c"/><path d="M455.518,219.182a34.964,34.964,0,0,1-4.7-.3,14.009,14.009,0,0,1-3.307-.871l-.016-.117.061-.12a15.938,15.938,0,0,0,3.3.855,35.034,35.034,0,0,0,4.685.3,33.586,33.586,0,0,0,4.953-.366,8.07,8.07,0,0,0,3.082-.88l.178.237a10.1,10.1,0,0,1-3.21.9,33.14,33.14,0,0,1-4.967.36Zm-7.946-1.373-.06.173a16.623,16.623,0,0,0,3.316.847,34.944,34.944,0,0,0,4.69.3v.026l.06-.026a33.144,33.144,0,0,0,4.96-.358,12.126,12.126,0,0,0,3.173-.852l-.135-.207c-.1.178-1.064.578-3.071.9a33.606,33.606,0,0,1-4.932.366,35.151,35.151,0,0,1-4.722-.3,14.507,14.507,0,0,1-3.278-.869m7.993.613a31.945,31.945,0,0,1-4.526-.294,12.349,12.349,0,0,1-3.03-.746l-.15-.056.064-.17c.007-.012.051-.058.064-.06a10.6,10.6,0,0,0,3.08.785,34.684,34.684,0,0,0,9.209-.051,8.326,8.326,0,0,0,2.942-.829l.171.228a8.446,8.446,0,0,1-3.07.861,32.607,32.607,0,0,1-4.721.331Zm-7.6-1.279-.074.171.138.019a12.307,12.307,0,0,0,3.019.743,31.835,31.835,0,0,0,4.519.294v.026l.033-.026a32.814,32.814,0,0,0,4.713-.33,9.562,9.562,0,0,0,3.039-.817l-.139-.188a7.208,7.208,0,0,1-2.928.847,34.785,34.785,0,0,1-9.224.051,10.654,10.654,0,0,1-3.1-.791" transform="translate(-433.916 -203.781)"/><path d="M446.326,223.9c1.678.9,5.406,1.358,8.933,1.39,3.211,0,7.4-.5,8.96-1.327l-.043-.9c-.489.766-4.973,1.5-8.952,1.47s-7.673-.644-8.905-1.441Z" transform="translate(-433.615 -205.329)" fill="#fcff2c"/><path d="M464.271,223.742v.217a9.839,9.839,0,0,1-3.559,1.006,36.809,36.809,0,0,1-5.528.378,34.6,34.6,0,0,1-5.247-.361,13.081,13.081,0,0,1-3.753-1.013v-.252a13.344,13.344,0,0,0,3.783,1.066,34.515,34.515,0,0,0,5.217.359,36.629,36.629,0,0,0,5.5-.377,11.387,11.387,0,0,0,3.588-1.024m0-.766v.215a9.824,9.824,0,0,1-3.559,1.006,36.611,36.611,0,0,1-5.528.379,34.684,34.684,0,0,1-5.247-.362,13.09,13.09,0,0,1-3.754-1.013v-.252a13.357,13.357,0,0,0,3.782,1.065,34.411,34.411,0,0,0,5.218.36,36.394,36.394,0,0,0,5.5-.377,11.453,11.453,0,0,0,3.59-1.022" transform="translate(-433.581 -205.301)" fill="#fcff2c"/><path d="M455.175,225.368a34.874,34.874,0,0,1-5.25-.361,13.226,13.226,0,0,1-3.764-1.017l-.012-.274a14.827,14.827,0,0,0,3.814,1.041,34.75,34.75,0,0,0,5.212.357,36.767,36.767,0,0,0,5.5-.375,11.4,11.4,0,0,0,3.575-1.017l.044.236a9.478,9.478,0,0,1-3.581,1.031,36.906,36.906,0,0,1-5.532.379m-9.014-1.63.039.23a13.962,13.962,0,0,0,3.731.988,34.9,34.9,0,0,0,5.244.36,37,37,0,0,0,5.524-.377,10.06,10.06,0,0,0,3.543-1l-.007-.2a10.218,10.218,0,0,1-3.558,1.049,36.773,36.773,0,0,1-5.5.375,34.643,34.643,0,0,1-5.22-.358,13.122,13.122,0,0,1-3.794-1.07m9.015.863a34.893,34.893,0,0,1-5.25-.362,13.15,13.15,0,0,1-3.764-1.017l-.012-.274a14.9,14.9,0,0,0,3.812,1.041,34.769,34.769,0,0,0,5.214.359,36.431,36.431,0,0,0,5.494-.377,11.414,11.414,0,0,0,3.575-1.016l.045.234a9.453,9.453,0,0,1-3.581,1.032,36.714,36.714,0,0,1-5.532.38m-9.014-1.631.039.23a13.881,13.881,0,0,0,3.731.988,34.911,34.911,0,0,0,5.244.362,36.7,36.7,0,0,0,5.524-.379,10.053,10.053,0,0,0,3.543-1l-.007-.2a10.268,10.268,0,0,1-3.56,1.048,36.526,36.526,0,0,1-5.5.377,34.765,34.765,0,0,1-5.221-.36,13.123,13.123,0,0,1-3.793-1.07" transform="translate(-433.572 -205.301)"/><path d="M455.618,230.4a30.733,30.733,0,0,1-7.865-1.223l.51.8a21.108,21.108,0,0,0,7.392,1.208c2.932-.086,5.5-.314,7.3-1.194l.523-.826a27.809,27.809,0,0,1-7.862,1.237" transform="translate(-433.982 -206.888)" fill="#fcff2c"/><path d="M463.1,229.763c-.077.116-.156.232-.234.346a20.905,20.905,0,0,1-2.761.708,25.078,25.078,0,0,1-4.536.416,21.8,21.8,0,0,1-7.534-1.292l-.107-.183.017-.028.18.07a24.242,24.242,0,0,0,7.463,1.233,25.3,25.3,0,0,0,4.447-.412,13.14,13.14,0,0,0,3-.824Zm.452-.747a.015.015,0,0,1,.006.007c-.057.1-.116.194-.176.293a19.228,19.228,0,0,1-3.489.776,27.514,27.514,0,0,1-4.283.364,29.35,29.35,0,0,1-7.967-1.191l-.1-.194a33.613,33.613,0,0,0,8.069,1.185,30,30,0,0,0,4.254-.366,22.315,22.315,0,0,0,3.475-.772.211.211,0,0,1-.013-.019Z" transform="translate(-433.927 -206.851)" fill="#fcff2c"/><path d="M455.561,231.25h0a21.605,21.605,0,0,1-7.543-1.293l-.119-.194c.006-.01.034-.063.047-.063h0l.18.07A23.962,23.962,0,0,0,455.581,231h0a25.642,25.642,0,0,0,4.44-.411,12.474,12.474,0,0,0,3-.822.175.175,0,0,1,.045-.014l.009-.013.021.013,0,.005c.012,0,.03,0,.025.009-.077.116-.156.232-.234.346a20.222,20.222,0,0,1-2.777.718,24.91,24.91,0,0,1-4.541.416m-7.633-1.5.121.175a22.171,22.171,0,0,0,7.513,1.28,25.246,25.246,0,0,0,4.53-.416,20.72,20.72,0,0,0,2.758-.706c.051-.079.107-.165.166-.252a13.2,13.2,0,0,1-2.984.813,25.485,25.485,0,0,1-4.381.412,24.126,24.126,0,0,1-7.543-1.235Zm7.674.727h0a29.776,29.776,0,0,1-7.974-1.192l-.116-.205a35.728,35.728,0,0,0,8.092,1.149,28.438,28.438,0,0,0,3.864-.313l.386-.054a22.506,22.506,0,0,0,3.429-.758l.255-.116-.007.018-.2.113a18.923,18.923,0,0,1-3.467.792l-.386.054a28.3,28.3,0,0,1-3.872.313,33.586,33.586,0,0,1-8.077-1.185l.13.158a30.136,30.136,0,0,0,7.946,1.178,25.557,25.557,0,0,0,3.774-.293l.505-.071a19.486,19.486,0,0,0,3.485-.775l.161-.279-.131.316a19.022,19.022,0,0,1-3.507.788l-.506.071a25.418,25.418,0,0,1-3.78.293Z" transform="translate(-433.92 -206.844)"/><path d="M455.3,212.44a8.03,8.03,0,1,1-8.022,8.03,8.026,8.026,0,0,1,8.022-8.03m0-.8a8.825,8.825,0,1,1-8.817,8.825,8.838,8.838,0,0,1,8.817-8.825" transform="translate(-433.656 -202.411)" fill="#fcff2c"/><path d="M455.265,211.5a8.943,8.943,0,1,1-8.934,8.942,8.956,8.956,0,0,1,8.934-8.942m0,.2a8.744,8.744,0,1,1-8.738,8.744,8.775,8.775,0,0,1,8.738-8.744" transform="translate(-433.618 -202.375)" fill="#fcff2c"/><path d="M455.256,229.4a8.968,8.968,0,1,1,8.96-8.968,8.974,8.974,0,0,1-8.96,8.968m0-17.885a8.916,8.916,0,1,0,8.908,8.917,8.923,8.923,0,0,0-8.908-8.917m0,17.687a8.77,8.77,0,1,1,8.764-8.77,8.777,8.777,0,0,1-8.764,8.77m0-17.489a8.719,8.719,0,1,0,8.712,8.719,8.725,8.725,0,0,0-8.712-8.719" transform="translate(-433.609 -202.366)"/><path d="M455.535,212.5a8.191,8.191,0,1,1-8.184,8.19,8.219,8.219,0,0,1,8.184-8.19m0,.2a7.994,7.994,0,1,1-7.987,7.993,8.022,8.022,0,0,1,7.987-7.993" transform="translate(-433.879 -202.631)" fill="#fcff2c"/><path d="M455.526,228.9a8.217,8.217,0,1,1,8.209-8.217,8.223,8.223,0,0,1-8.209,8.217m0-16.383a8.166,8.166,0,1,0,8.156,8.166,8.171,8.171,0,0,0-8.156-8.166m0,16.186a8.019,8.019,0,1,1,8.013-8.019,8.026,8.026,0,0,1-8.013,8.019m0-15.988a7.968,7.968,0,1,0,7.96,7.968,7.974,7.974,0,0,0-7.96-7.968" transform="translate(-433.87 -202.621)"/><rect width="0.778" height="17.992" transform="translate(21.285 9.085)" fill="#fcff2c"/><path d="M458.462,211.317h.2v18.174h-.2Zm-.76,0h.2v18.174h-.2Z" transform="translate(-436.525 -202.328)" fill="#fcff2c"/><path d="M458.65,229.508h-.2l-.028-18.2.221-.026.028,18.2a.024.024,0,0,1-.008.018.026.026,0,0,1-.018.008m-.028-18.2-.169.026.028,18.148.142-.022Zm-.732,18.2h-.2l-.026-18.2.223-.026.028,18.2a.026.026,0,0,1-.007.018.027.027,0,0,1-.019.008m-.028-18.2-.17.026.027,18.148.145-.022Z" transform="translate(-436.516 -202.319)"/><path d="M446.288,222.425c1.121-1.032,5.255-1.7,8.922-1.685s8.011.772,8.955,1.664l.01.769c-.791-.744-4.165-1.632-8.957-1.643s-8.273.9-8.93,1.663Z" transform="translate(-433.607 -204.736)" fill="#fcff2c"/><path d="M446.3,223.708l-.052-.665c0-.028.052-.028.052,0Z" transform="translate(-433.598 -205.32)"/><path d="M470.362,223.745l-.052-.665c0-.028.052-.028.052,0Z" transform="translate(-439.747 -205.329)"/><path d="M455.232,221.391a31.1,31.1,0,0,1,5.781.517,6.717,6.717,0,0,1,3.258,1.225v.234c-.488-.587-2.074-1.017-3.3-1.262a30.694,30.694,0,0,0-5.743-.511,32,32,0,0,0-5.864.523c-1.274.253-2.973.756-3.185,1.252v-.243c.116-.343,1.381-.856,3.156-1.211a32.071,32.071,0,0,1,5.893-.523m0-.766a30.922,30.922,0,0,1,5.781.516,6.738,6.738,0,0,1,3.258,1.226v.232c-.486-.586-2.074-1.015-3.295-1.26a30.826,30.826,0,0,0-5.743-.513,31.816,31.816,0,0,0-5.855.525c-1.229.232-3,.756-3.2,1.25v-.243c.118-.339,1.407-.869,3.158-1.211a32.072,32.072,0,0,1,5.893-.522" transform="translate(-433.58 -204.707)" fill="#fcff2c"/><path d="M446.174,223.385h-.005a.026.026,0,0,1-.021-.025v-.243c.127-.377,1.462-.894,3.177-1.237a32.244,32.244,0,0,1,5.9-.523,31.241,31.241,0,0,1,5.786.517c1.75.351,2.882.777,3.272,1.234l.007.251c-.562-.6-2.323-1.035-3.327-1.236a30.639,30.639,0,0,0-5.671-.511,32.194,32.194,0,0,0-5.925.523c-1.388.275-2.972.781-3.167,1.236a.026.026,0,0,1-.024.016m9.049-1.827a30.908,30.908,0,0,1,5.748.512c1.01.2,2.785.639,3.31,1.271l-.046-.218a6.794,6.794,0,0,0-3.237-1.2,31.055,31.055,0,0,0-5.731-.516,32.259,32.259,0,0,0-5.932.523c-1.9.38-3.037.9-3.137,1.194v.14c.377-.511,2.13-.98,3.155-1.183a32.166,32.166,0,0,1,5.869-.524m-9.047,1.061h-.005a.027.027,0,0,1-.021-.026v-.244c.129-.38,1.494-.907,3.177-1.236a32.264,32.264,0,0,1,5.9-.523,31.113,31.113,0,0,1,5.786.517c1.749.351,2.882.778,3.273,1.235l.005.249c-.558-.6-2.32-1.032-3.326-1.235a30.779,30.779,0,0,0-5.692-.513,32.159,32.159,0,0,0-5.895.525c-1.408.266-3,.79-3.176,1.236a.026.026,0,0,1-.024.016m9.049-1.828a30.974,30.974,0,0,1,5.748.514c1.012.2,2.787.639,3.309,1.27l-.045-.217a6.8,6.8,0,0,0-3.237-1.2,30.8,30.8,0,0,0-5.709-.516,32.375,32.375,0,0,0-5.954.521c-1.83.357-3.032.888-3.137,1.194v.14c.359-.494,2.052-.97,3.164-1.181a32.016,32.016,0,0,1,5.86-.526" transform="translate(-433.571 -204.698)"/><path d="M455.551,215.371c3.324-.017,6.224.465,7.552,1.144l.484.839c-1.153-.622-4.282-1.269-8.031-1.172-3.055.019-6.318.336-7.958,1.211l.579-.968c1.343-.7,4.513-1.051,7.374-1.054" transform="translate(-433.942 -203.364)" fill="#fcff2c"/><path d="M455.577,216.038a30.013,30.013,0,0,1,5.186.366,9.336,9.336,0,0,1,2.836.836l.144.252a10.444,10.444,0,0,0-3.008-.894,29,29,0,0,0-5.163-.356,29.763,29.763,0,0,0-5.229.354,9.209,9.209,0,0,0-2.817.878l.141-.269a9.387,9.387,0,0,1,2.637-.805,30.455,30.455,0,0,1,5.272-.363m0-.766a29.289,29.289,0,0,1,5,.348,8.082,8.082,0,0,1,2.589.847l.211.333a6.862,6.862,0,0,0-2.886-.983,31.662,31.662,0,0,0-4.918-.348,29.841,29.841,0,0,0-5.031.371,8.161,8.161,0,0,0-2.5.772l.185-.279a8.863,8.863,0,0,1,2.282-.691,30.1,30.1,0,0,1,5.063-.369" transform="translate(-433.924 -203.338)" fill="#fcff2c"/><path d="M463.749,217.509a.031.031,0,0,1-.014,0,10.315,10.315,0,0,0-3-.891,28.191,28.191,0,0,0-4.987-.356h-.363a29.17,29.17,0,0,0-5.032.354,9.154,9.154,0,0,0-2.8.874l.1-.3a9.43,9.43,0,0,1,2.656-.82,29.914,29.914,0,0,1,5.276-.363h.11a29.915,29.915,0,0,1,5.081.367,9.255,9.255,0,0,1,2.851.844l.147.258a.026.026,0,0,1-.005.032.025.025,0,0,1-.017.007m-8.057-1.455h-.11a29.884,29.884,0,0,0-5.267.363,9.575,9.575,0,0,0-2.63.8l-.128.258a7.436,7.436,0,0,1,2.786-.916,29.212,29.212,0,0,1,5.042-.355h.363a28.231,28.231,0,0,1,5,.357,11.421,11.421,0,0,1,2.932.846l-.1-.167a9.585,9.585,0,0,0-2.818-.823,29.8,29.8,0,0,0-5.072-.366m7.693.763a.027.027,0,0,1-.019-.008,6.953,6.953,0,0,0-2.871-.974,31.111,31.111,0,0,0-4.915-.349,29.88,29.88,0,0,0-5.026.371,8.411,8.411,0,0,0-2.49.768l.15-.315a8.7,8.7,0,0,1,2.3-.7,29.96,29.96,0,0,1,5.068-.37h.147a28.641,28.641,0,0,1,4.862.348,8.044,8.044,0,0,1,2.6.852l.217.339a.028.028,0,0,1-.006.035.032.032,0,0,1-.016,0m-7.8-1.383a31.121,31.121,0,0,1,4.923.349,8.469,8.469,0,0,1,2.765.872l-.115-.182a8.1,8.1,0,0,0-2.573-.836,28.688,28.688,0,0,0-4.853-.347h-.147a29.924,29.924,0,0,0-5.058.368,8.808,8.808,0,0,0-2.275.689l-.175.27a6.8,6.8,0,0,1,2.472-.811,29.753,29.753,0,0,1,5.036-.371" transform="translate(-433.929 -203.33)"/><path d="M460.043,228.133a23.209,23.209,0,0,0-4.44-.337c-5.541.064-7.331,1.138-7.55,1.463l-.415-.675c1.411-1.024,4.428-1.6,7.993-1.539a28.161,28.161,0,0,1,4.794.415Z" transform="translate(-433.952 -206.346)" fill="#fcff2c"/><path d="M455.544,227.659a26.928,26.928,0,0,1,4.515.359l-.106.188a23.405,23.405,0,0,0-4.4-.339,21.277,21.277,0,0,0-5.914.692c-.569.159-1.51.523-1.606.826l-.1-.174c.031-.177.6-.548,1.661-.848a21.452,21.452,0,0,1,5.957-.7m.07-.776a27.689,27.689,0,0,1,4.849.421l-.109.2a25.212,25.212,0,0,0-4.729-.413,22.667,22.667,0,0,0-6.207.726c-.639.186-1.742.589-1.778.907l-.1-.186c.024-.29.979-.668,1.836-.918a22.822,22.822,0,0,1,6.243-.732" transform="translate(-433.926 -206.306)" fill="#fcff2c"/><path d="M448.022,229.4a.025.025,0,0,1-.021-.012l-.1-.174c.031-.218.631-.59,1.676-.884a21.263,21.263,0,0,1,5.963-.7,27.072,27.072,0,0,1,4.519.359l-.089.225a24.743,24.743,0,0,0-4.227-.327h-.432a20.738,20.738,0,0,0-5.673.692c-.607.169-1.5.531-1.588.809a.026.026,0,0,1-.022.017Zm7.513-1.726a21.213,21.213,0,0,0-5.949.7c-1.076.3-1.618.674-1.644.829l.076.118c.184-.338,1.207-.687,1.6-.8a20.776,20.776,0,0,1,5.686-.695h.432a23.045,23.045,0,0,1,4.21.339l.08-.175a31.058,31.058,0,0,0-4.493-.322m-7.9,1.06a.026.026,0,0,1-.022-.013l-.1-.186c.028-.394,1.424-.829,1.851-.954a22.414,22.414,0,0,1,6.251-.733,27.76,27.76,0,0,1,4.853.421l-.092.232a27.211,27.211,0,0,0-4.752-.4,22.171,22.171,0,0,0-6.2.725c-.828.241-1.731.622-1.761.887a.025.025,0,0,1-.019.021h-.005m7.974-1.836a22.353,22.353,0,0,0-6.235.732c-1.087.316-1.8.668-1.819.9l.071.123c.178-.392,1.609-.82,1.779-.869a22.233,22.233,0,0,1,6.214-.727,25.569,25.569,0,0,1,4.734.413l.082-.182a31.358,31.358,0,0,0-4.827-.385" transform="translate(-433.918 -206.298)"/><path d="M456.165,227.557a.112.112,0,0,1,.028-.066.088.088,0,0,1,.059-.028.074.074,0,0,1,.039.007.052.052,0,0,1,.025.029.081.081,0,0,1,.006.044.124.124,0,0,1-.013.045.087.087,0,0,1-.032.034.089.089,0,0,1-.039.013.072.072,0,0,1-.041-.007.063.063,0,0,1-.025-.029.075.075,0,0,1-.006-.041m.022,0a.065.065,0,0,0,.011.047.049.049,0,0,0,.039.013.057.057,0,0,0,.041-.021.082.082,0,0,0,.02-.051.067.067,0,0,0,0-.035.036.036,0,0,0-.017-.022.056.056,0,0,0-.028-.006.064.064,0,0,0-.041.019.087.087,0,0,0-.022.055m.211.027.02,0a.025.025,0,0,0,.007.019.028.028,0,0,0,.02.006.05.05,0,0,0,.022-.007.024.024,0,0,0,.007-.013.009.009,0,0,0,0-.012l-.019-.006-.03-.007a.022.022,0,0,1-.01-.011.021.021,0,0,1,0-.016.019.019,0,0,1,.006-.014c0-.006.006-.009.01-.013a.12.12,0,0,1,.013-.006.063.063,0,0,1,.017,0,.051.051,0,0,1,.025,0,.02.02,0,0,1,.013.01.051.051,0,0,1,.006.018l-.021,0a.019.019,0,0,0-.006-.014.028.028,0,0,0-.017,0,.05.05,0,0,0-.02.006.021.021,0,0,0-.007.011v.007l.007,0a.046.046,0,0,0,.017,0,.1.1,0,0,1,.028.009.023.023,0,0,1,.013.01.03.03,0,0,1,0,.016.033.033,0,0,1-.007.02.052.052,0,0,1-.019.015.063.063,0,0,1-.025.005.048.048,0,0,1-.034-.007.05.05,0,0,1-.013-.029m.2-.015.021,0a.061.061,0,0,1-.022.029.051.051,0,0,1-.035.012.042.042,0,0,1-.039-.015.053.053,0,0,1-.009-.045.076.076,0,0,1,.02-.048.065.065,0,0,1,.041-.019.05.05,0,0,1,.038.014.062.062,0,0,1,.008.047v.006l-.089,0a.045.045,0,0,0,.009.03.023.023,0,0,0,.023.008.03.03,0,0,0,.019-.006.056.056,0,0,0,.014-.02m-.061-.029.066,0a.036.036,0,0,0-.006-.023.025.025,0,0,0-.023-.01.033.033,0,0,0-.023.01.044.044,0,0,0-.013.026m.1.074h.019a.017.017,0,0,0,0,.013.039.039,0,0,0,.021,0,.049.049,0,0,0,.022-.006.036.036,0,0,0,.012-.017s0-.012,0-.026a.046.046,0,0,1-.035.017.034.034,0,0,1-.034-.016.065.065,0,0,1-.009-.042.115.115,0,0,1,.01-.032.055.055,0,0,1,.02-.023.047.047,0,0,1,.028-.009.036.036,0,0,1,.033.015v-.015h.017l-.011.1a.1.1,0,0,1-.01.04.056.056,0,0,1-.02.019.054.054,0,0,1-.031.008.042.042,0,0,1-.032-.008.026.026,0,0,1-.01-.028Zm.025-.074a.049.049,0,0,0,0,.035.026.026,0,0,0,.022.01.047.047,0,0,0,.025-.013.057.057,0,0,0,.013-.033.045.045,0,0,0-.006-.034.025.025,0,0,0-.022-.01.032.032,0,0,0-.023.012.059.059,0,0,0-.013.033m.1.057.016-.121h.019l0,.018a.042.042,0,0,1,.016-.015.044.044,0,0,1,.022-.007.028.028,0,0,1,.02.006.022.022,0,0,1,.01.015.049.049,0,0,1,.039-.022.031.031,0,0,1,.027.009.049.049,0,0,1,0,.031l-.01.083h-.021l.01-.075a.034.034,0,0,0,0-.018.009.009,0,0,0-.006-.008l-.007,0a.042.042,0,0,0-.026.008.05.05,0,0,0-.011.028l-.009.069h-.02l.01-.078a.031.031,0,0,0,0-.021.013.013,0,0,0-.014-.005.038.038,0,0,0-.016,0,.032.032,0,0,0-.013.013.092.092,0,0,0-.006.026l-.009.063Zm.275-.049h.02a.051.051,0,0,1-.022.029.052.052,0,0,1-.035.011.044.044,0,0,1-.038-.014.065.065,0,0,1-.01-.045.081.081,0,0,1,.022-.048.062.062,0,0,1,.042-.019.043.043,0,0,1,.036.016.057.057,0,0,1,.009.047v0l-.087,0a.045.045,0,0,0,.007.031.022.022,0,0,0,.023.009.027.027,0,0,0,.019-.006.048.048,0,0,0,.015-.019m-.06-.031.065,0a.028.028,0,0,0-.006-.022.024.024,0,0,0-.022-.012.039.039,0,0,0-.025.01.037.037,0,0,0-.013.025Zm.1.068.016-.122h.019l0,.017a.046.046,0,0,1,.039-.02.033.033,0,0,1,.021,0s.008.005.011.008l0,.016s0,.01,0,.019l-.01.074h-.021l.01-.074a.039.039,0,0,0,0-.019.02.02,0,0,0-.007-.009.017.017,0,0,0-.013,0,.036.036,0,0,0-.024.009.046.046,0,0,0-.013.032l-.009.066Zm.173-.024v.018l-.016,0a.019.019,0,0,1-.016,0,.022.022,0,0,1-.007-.009.19.19,0,0,1,0-.025l.01-.068h-.015l0-.016h.015l0-.031.022-.012-.006.042h.019v.016h-.021l-.01.07v.014h.017Zm.019-.043a.073.073,0,0,1,.025-.05.058.058,0,0,1,.039-.014.041.041,0,0,1,.036.016.054.054,0,0,1,.009.045.085.085,0,0,1-.012.036.061.061,0,0,1-.023.02.067.067,0,0,1-.029.009.049.049,0,0,1-.038-.016.056.056,0,0,1-.007-.046m.021,0a.04.04,0,0,0,0,.034.023.023,0,0,0,.022.011.038.038,0,0,0,.026-.011.062.062,0,0,0,.016-.036.058.058,0,0,0,0-.033.027.027,0,0,0-.023-.01.037.037,0,0,0-.027.012.059.059,0,0,0-.014.035m.252.019h.02a.07.07,0,0,1-.023.029.053.053,0,0,1-.035.01.04.04,0,0,1-.038-.016.055.055,0,0,1-.009-.045.075.075,0,0,1,.024-.047.059.059,0,0,1,.042-.017.039.039,0,0,1,.035.016.055.055,0,0,1,.009.045v.006h-.087a.048.048,0,0,0,.006.031.027.027,0,0,0,.023.01.057.057,0,0,0,.02-.005.109.109,0,0,0,.015-.019m-.06-.033h.064a.037.037,0,0,0,0-.023.029.029,0,0,0-.024-.012.042.042,0,0,0-.025.01.037.037,0,0,0-.013.025m.1.068.028-.166h.019l-.028.166Zm.074-.142,0-.024h.019l0,.024Zm-.023.142.019-.121h.021l-.021.121Zm.049,0,.021-.121h.017l0,.017a.049.049,0,0,1,.018-.014.032.032,0,0,1,.022-.006.026.026,0,0,1,.019.006.025.025,0,0,1,.01.016.051.051,0,0,1,.039-.022.031.031,0,0,1,.025.01.034.034,0,0,1,0,.031l-.013.083h-.02l.013-.076a.032.032,0,0,0,0-.017.01.01,0,0,0,0-.009.017.017,0,0,0-.012,0,.028.028,0,0,0-.022.009.046.046,0,0,0-.013.028l-.012.07h-.019l.012-.078a.032.032,0,0,0,0-.021.019.019,0,0,0-.016-.007.033.033,0,0,0-.016,0,.031.031,0,0,0-.012.015.06.06,0,0,0-.007.025l-.01.063Zm.211-.142,0-.024h.021l0,.024Zm-.023.142.021-.121h.019l-.019.121Zm.051,0,.022-.121h.017l0,.017a.048.048,0,0,1,.041-.019.036.036,0,0,1,.019,0,.024.024,0,0,1,.01.01.022.022,0,0,1,0,.014.145.145,0,0,1,0,.02l-.013.074H458l.013-.074a.042.042,0,0,0,0-.019.019.019,0,0,0-.006-.01l-.009,0a.048.048,0,0,0-.028.007.052.052,0,0,0-.016.032l-.012.066Zm.2-.012a.047.047,0,0,1-.023.013.059.059,0,0,1-.022,0,.038.038,0,0,1-.028-.01.032.032,0,0,1-.005-.025.047.047,0,0,1,.005-.016.057.057,0,0,1,.013-.013l.016-.006.018,0a.159.159,0,0,0,.036-.006v-.005a.023.023,0,0,0,0-.018.03.03,0,0,0-.021-.007.041.041,0,0,0-.022,0,.031.031,0,0,0-.013.018l-.019,0a.051.051,0,0,1,.013-.021.038.038,0,0,1,.019-.011.086.086,0,0,1,.028,0l.024,0a.025.025,0,0,1,.011.01s0,.009,0,.013a.129.129,0,0,1,0,.019l0,.028a.2.2,0,0,0-.006.036.051.051,0,0,0,0,.015h-.02a.056.056,0,0,1,0-.016m.007-.045a.133.133,0,0,1-.034.007l-.018,0a.015.015,0,0,0-.008.007l-.006.009a.025.025,0,0,0,0,.015.028.028,0,0,0,.016.005.079.079,0,0,0,.022,0,.053.053,0,0,0,.014-.015.057.057,0,0,0,.007-.02Zm.115.061,0-.016a.035.035,0,0,1-.035.018.036.036,0,0,1-.025-.009.034.034,0,0,1-.015-.022.125.125,0,0,1,0-.033.2.2,0,0,1,.012-.032.055.055,0,0,1,.022-.022.038.038,0,0,1,.028-.007.032.032,0,0,1,.018,0,.035.035,0,0,1,.012.011l.011-.06h.019l-.031.166Zm-.051-.061a.053.053,0,0,0,0,.035.023.023,0,0,0,.02.011.039.039,0,0,0,.025-.01.067.067,0,0,0,.015-.034.053.053,0,0,0,0-.036.022.022,0,0,0-.02-.013.034.034,0,0,0-.024.012.059.059,0,0,0-.016.033Zm.1,0a.074.074,0,0,1,.028-.048.065.065,0,0,1,.039-.013.039.039,0,0,1,.035.017.05.05,0,0,1,.007.045.1.1,0,0,1-.013.036.066.066,0,0,1-.023.02.07.07,0,0,1-.029.007.047.047,0,0,1-.036-.018.061.061,0,0,1-.007-.048m.021,0a.053.053,0,0,0,0,.035.026.026,0,0,0,.023.011.034.034,0,0,0,.026-.011.069.069,0,0,0,.013-.068.025.025,0,0,0-.022-.012.035.035,0,0,0-.028.01.064.064,0,0,0-.016.035m.163.066.022-.121h.017l0,.019a.06.06,0,0,1,.016-.017l.009,0a.044.044,0,0,1,.023.007l-.01.019-.009,0a.028.028,0,0,0-.017,0,.021.021,0,0,0-.009.01.071.071,0,0,0-.008.023l-.01.064Zm.161-.035.021,0a.058.058,0,0,1-.024.028.055.055,0,0,1-.034.01.046.046,0,0,1-.038-.019.056.056,0,0,1-.006-.046.094.094,0,0,1,.025-.047.065.065,0,0,1,.042-.014.038.038,0,0,1,.035.017.067.067,0,0,1,.005.048v0l-.088,0a.04.04,0,0,0,.006.031.025.025,0,0,0,.022.011.03.03,0,0,0,.019-.006.036.036,0,0,0,.016-.017m-.057-.036.064,0a.037.037,0,0,0,0-.023.028.028,0,0,0-.022-.013.037.037,0,0,0-.025.009.039.039,0,0,0-.015.025m.095.038h.02a.025.025,0,0,0,0,.019.038.038,0,0,0,.021.007.028.028,0,0,0,.02-.006.019.019,0,0,0,.01-.013s0-.007,0-.01-.009,0-.019-.009l-.028-.01a.023.023,0,0,1-.01-.013.054.054,0,0,1,0-.016l.007-.015a.04.04,0,0,1,.012-.01.027.027,0,0,1,.013-.005.063.063,0,0,1,.017,0,.1.1,0,0,1,.023.005.022.022,0,0,1,.013.012.026.026,0,0,1,0,.019l-.019,0a.018.018,0,0,0-.022-.022.037.037,0,0,0-.02,0s-.007.006-.007.01v.007a.015.015,0,0,0,.007.006l.016.006.028.01a.025.025,0,0,1,.01.011.024.024,0,0,1,0,.018.036.036,0,0,1-.01.019.049.049,0,0,1-.019.015.055.055,0,0,1-.025,0,.05.05,0,0,1-.034-.01.048.048,0,0,1-.009-.031m.1.087.034-.167h.017l0,.016.018-.015a.068.068,0,0,1,.02,0,.038.038,0,0,1,.025.009.041.041,0,0,1,.012.023.117.117,0,0,1,0,.032.122.122,0,0,1-.013.034.083.083,0,0,1-.023.022.074.074,0,0,1-.028.007l-.016-.005a.058.058,0,0,1-.011-.012l-.012.058Zm.039-.1a.053.053,0,0,0,0,.035.024.024,0,0,0,.021.012.036.036,0,0,0,.025-.01.06.06,0,0,0,.016-.036.056.056,0,0,0,0-.034.021.021,0,0,0-.019-.012.032.032,0,0,0-.025.012.061.061,0,0,0-.016.034m.182.028.019,0a.061.061,0,0,1-.023.028.07.07,0,0,1-.035.009.051.051,0,0,1-.038-.017.067.067,0,0,1-.006-.047.082.082,0,0,1,.025-.046.064.064,0,0,1,.042-.016.042.042,0,0,1,.035.019.057.057,0,0,1,.006.046v.006l-.086,0a.037.037,0,0,0,0,.032.022.022,0,0,0,.022.01.021.021,0,0,0,.019,0,.061.061,0,0,0,.018-.019m-.058-.035.063,0a.044.044,0,0,0,0-.024.024.024,0,0,0-.022-.013.044.044,0,0,0-.025.008.043.043,0,0,0-.014.025m.124-.067,0-.023h.021l-.006.023Zm-.03.142.025-.121h.019l-.023.121Zm.1-.014v.019h-.011a.089.089,0,0,1-.021,0,.014.014,0,0,1-.005-.01.067.067,0,0,1,0-.025l.013-.068H459.1l0-.016h.015l.006-.031.023-.012-.009.042h.019l0,.016h-.019l-.014.071v.01l0,0h.006s.005,0,.008,0m.092.007a.088.088,0,0,1-.025.013.054.054,0,0,1-.022,0,.036.036,0,0,1-.028-.01.031.031,0,0,1,0-.026.034.034,0,0,1,.007-.016.025.025,0,0,1,.011-.01.054.054,0,0,1,.016-.007h.017a.3.3,0,0,0,.036-.006v-.005c0-.009,0-.015,0-.018a.031.031,0,0,0-.022-.009.039.039,0,0,0-.021,0,.071.071,0,0,0-.014.018l-.019,0a.067.067,0,0,1,.013-.021.1.1,0,0,1,.02-.011l.027,0a.058.058,0,0,1,.025,0,.037.037,0,0,1,.011.01.045.045,0,0,1,0,.015l0,.019-.005.027c0,.019-.006.032-.006.036a.054.054,0,0,0,0,.015h-.021a.056.056,0,0,1,0-.016m.007-.045a.137.137,0,0,1-.034.006l-.017,0a.023.023,0,0,0-.01.005l0,.009a.017.017,0,0,0,0,.015.023.023,0,0,0,.016.005.062.062,0,0,0,.022,0,.031.031,0,0,0,.016-.013.057.057,0,0,0,.007-.02Zm.1.006a.072.072,0,0,1,.028-.048.057.057,0,0,1,.039-.011.04.04,0,0,1,.036.017.064.064,0,0,1,.006.045.089.089,0,0,1-.014.036.068.068,0,0,1-.023.021.071.071,0,0,1-.03.006.037.037,0,0,1-.036-.018.054.054,0,0,1-.006-.048m.02,0a.044.044,0,0,0,0,.035.026.026,0,0,0,.022.013.032.032,0,0,0,.027-.012.057.057,0,0,0,.017-.033.05.05,0,0,0,0-.035.026.026,0,0,0-.022-.013.035.035,0,0,0-.028.012.059.059,0,0,0-.016.034m.151.113.036-.166h.018l0,.016a.039.039,0,0,1,.016-.013.049.049,0,0,1,.02,0,.035.035,0,0,1,.025.009.05.05,0,0,1,.011.025.07.07,0,0,1,0,.031.077.077,0,0,1-.014.033.056.056,0,0,1-.051.028.029.029,0,0,1-.016,0,.049.049,0,0,1-.01-.011l-.013.058Zm.041-.1a.044.044,0,0,0,0,.035.023.023,0,0,0,.019.013.035.035,0,0,0,.025-.01.06.06,0,0,0,.017-.035.053.053,0,0,0,0-.035.022.022,0,0,0-.019-.013.03.03,0,0,0-.025.01.068.068,0,0,0-.017.034m.093.067.026-.121h.018l0,.019a.055.055,0,0,1,.016-.016.015.015,0,0,1,.013,0,.029.029,0,0,1,.019.007l-.01.019a.02.02,0,0,0-.008-.006.049.049,0,0,0-.018,0,.038.038,0,0,0-.01.012.119.119,0,0,0-.007.023l-.015.063h-.019Zm.08-.055a.079.079,0,0,1,.028-.049.064.064,0,0,1,.039-.01.043.043,0,0,1,.036.017.061.061,0,0,1,0,.047.1.1,0,0,1-.015.036.057.057,0,0,1-.023.019.074.074,0,0,1-.03.006.043.043,0,0,1-.035-.019.055.055,0,0,1,0-.046m.021,0a.049.049,0,0,0,0,.036.023.023,0,0,0,.022.011.027.027,0,0,0,.026-.01.054.054,0,0,0,.018-.034.065.065,0,0,0,0-.035.026.026,0,0,0-.022-.013.041.041,0,0,0-.028.01.064.064,0,0,0-.016.033m.128-.073,0-.023h.021l-.006.025Zm-.065.188.007-.017.006,0c.006,0,.01,0,.012,0a.046.046,0,0,0,.009-.02l.026-.127h.02l-.028.127a.061.061,0,0,1-.013.031.026.026,0,0,1-.025.01.039.039,0,0,1-.014,0m.171-.077.019,0a.058.058,0,0,1-.024.028.051.051,0,0,1-.035.009.046.046,0,0,1-.037-.019.058.058,0,0,1,0-.046.079.079,0,0,1,.025-.045.054.054,0,0,1,.044-.014.037.037,0,0,1,.034.017.066.066,0,0,1,0,.048v0l-.087,0a.047.047,0,0,0,0,.031.028.028,0,0,0,.022.012.026.026,0,0,0,.021,0,.045.045,0,0,0,.016-.017m-.057-.038.064,0a.036.036,0,0,0,0-.023.029.029,0,0,0-.022-.013.037.037,0,0,0-.025.009.042.042,0,0,0-.015.023" transform="translate(-436.131 -206.439)"/><path d="M461.428,227.645l.019,0a.063.063,0,0,1-.023.032.057.057,0,0,1-.035.01.045.045,0,0,1-.035-.019.061.061,0,0,1,0-.047.1.1,0,0,1,.015-.035.055.055,0,0,1,.023-.02.063.063,0,0,1,.029-.006.044.044,0,0,1,.029.012.045.045,0,0,1,.009.029l-.02,0a.025.025,0,0,0-.006-.019.018.018,0,0,0-.015-.007.037.037,0,0,0-.026.008.062.062,0,0,0-.017.035.058.058,0,0,0,0,.036.022.022,0,0,0,.02.012.036.036,0,0,0,.022-.006.055.055,0,0,0,.015-.022m.072.033v.019h-.011a.028.028,0,0,1-.019,0,.019.019,0,0,1-.007-.01.142.142,0,0,1,0-.025l.016-.068h-.015l0-.016h.015l.006-.031.023-.01-.01.042h.019l0,.016H461.5l-.016.07v.012l0,0h.014Zm.022-.04a.073.073,0,0,1,.029-.048.055.055,0,0,1,.039-.01.04.04,0,0,1,.034.019.06.06,0,0,1,0,.047.083.083,0,0,1-.014.034.056.056,0,0,1-.025.019.054.054,0,0,1-.03.006.043.043,0,0,1-.036-.019.056.056,0,0,1,0-.048m.02,0a.046.046,0,0,0,0,.035.034.034,0,0,0,.022.014.039.039,0,0,0,.028-.01.062.062,0,0,0,.018-.034.041.041,0,0,0,0-.034.027.027,0,0,0-.022-.015.038.038,0,0,0-.027.01.055.055,0,0,0-.017.033m.232.081,0-.014a.046.046,0,0,1-.036.016.039.039,0,0,1-.024-.01.038.038,0,0,1-.013-.023.065.065,0,0,1,0-.033.136.136,0,0,1,.013-.032.056.056,0,0,1,.022-.022.064.064,0,0,1,.028-.006.029.029,0,0,1,.017.006.048.048,0,0,1,.012.013l.013-.06h.019l-.038.166Zm-.048-.064a.053.053,0,0,0,0,.035.022.022,0,0,0,.02.013.032.032,0,0,0,.024-.009.067.067,0,0,0,.017-.033.057.057,0,0,0,0-.036.019.019,0,0,0-.019-.013.028.028,0,0,0-.025.008.081.081,0,0,0-.018.035m.185.038.021,0a.1.1,0,0,1-.025.028.059.059,0,0,1-.036.006.041.041,0,0,1-.035-.019.063.063,0,0,1,0-.048.085.085,0,0,1,.028-.045.057.057,0,0,1,.042-.013.039.039,0,0,1,.033.02.055.055,0,0,1,0,.047v.005l-.084-.008a.038.038,0,0,0,0,.032.031.031,0,0,0,.02.013.052.052,0,0,0,.021,0,.035.035,0,0,0,.016-.017m-.055-.039.064.006a.038.038,0,0,0,0-.023.027.027,0,0,0-.022-.015.042.042,0,0,0-.025.007.055.055,0,0,0-.016.025m.281.042.02.007a.085.085,0,0,1-.035.039.065.065,0,0,1-.045.01.059.059,0,0,1-.038-.015.064.064,0,0,1-.017-.033.17.17,0,0,1,0-.047.106.106,0,0,1,.022-.044.067.067,0,0,1,.034-.026.085.085,0,0,1,.04-.007.049.049,0,0,1,.036.017.052.052,0,0,1,.015.038l-.022,0a.041.041,0,0,0-.01-.028.031.031,0,0,0-.023-.012.061.061,0,0,0-.034.006.071.071,0,0,0-.024.023.152.152,0,0,0-.013.032.109.109,0,0,0,0,.036.045.045,0,0,0,.012.026.039.039,0,0,0,.026.01.052.052,0,0,0,.032-.007.107.107,0,0,0,.025-.031Zm.039,0a.076.076,0,0,1,.031-.048.064.064,0,0,1,.039-.008.042.042,0,0,1,.035.02.06.06,0,0,1,0,.046.088.088,0,0,1-.017.036.054.054,0,0,1-.025.018.05.05,0,0,1-.03,0,.037.037,0,0,1-.033-.021.056.056,0,0,1,0-.048m.02,0a.051.051,0,0,0,0,.036.028.028,0,0,0,.02.014.039.039,0,0,0,.028-.01.053.053,0,0,0,.019-.033.044.044,0,0,0,0-.034.025.025,0,0,0-.02-.015.038.038,0,0,0-.027.01.052.052,0,0,0-.019.032m.093.072.044-.164h.019l-.044.165Zm.124.016,0-.018a.05.05,0,0,1-.041.016.067.067,0,0,1-.019-.006l-.01-.012a.049.049,0,0,1,0-.016.058.058,0,0,1,0-.019l.019-.074h.021l-.019.067a.077.077,0,0,0,0,.022.021.021,0,0,0,0,.013.018.018,0,0,0,.013.005.027.027,0,0,0,.017,0,.02.02,0,0,0,.015-.012.053.053,0,0,0,.01-.022l.017-.066.019,0-.032.119Zm.045.006.032-.121.017,0,0,.016.018-.012a.036.036,0,0,1,.022,0,.027.027,0,0,1,.02.007.033.033,0,0,1,.007.018.049.049,0,0,1,.041-.018.029.029,0,0,1,.023.013.041.041,0,0,1,0,.031l-.023.083h-.019l.021-.075a.073.073,0,0,0,0-.019.012.012,0,0,0,0-.009l-.006,0a.041.041,0,0,0-.028.005.046.046,0,0,0-.015.027l-.019.069-.019,0,.021-.077a.037.037,0,0,0,0-.022.022.022,0,0,0-.015-.009.053.053,0,0,0-.016,0,.031.031,0,0,0-.013.013.058.058,0,0,0-.01.025l-.016.061Zm.2.026-.017,0,.046-.164.019,0-.016.058a.044.044,0,0,1,.035-.011.046.046,0,0,1,.019.007.024.024,0,0,1,.012.015.044.044,0,0,1,0,.02.128.128,0,0,1,0,.025.091.091,0,0,1-.029.045.051.051,0,0,1-.039.013.03.03,0,0,1-.026-.022Zm.018-.061a.051.051,0,0,0,0,.032c0,.011.008.017.019.019a.031.031,0,0,0,.026-.009.068.068,0,0,0,.019-.033.055.055,0,0,0,0-.035.021.021,0,0,0-.018-.015.027.027,0,0,0-.025.009.056.056,0,0,0-.019.032m.165.071a.128.128,0,0,1-.025.01h-.023a.032.032,0,0,1-.025-.014.026.026,0,0,1,0-.025.107.107,0,0,1,.008-.016.042.042,0,0,1,.013-.01l.016-.006h.018a.159.159,0,0,0,.036,0l0,0a.021.021,0,0,0,0-.019.025.025,0,0,0-.021-.008.035.035,0,0,0-.02,0,.04.04,0,0,0-.015.016l-.019,0a.049.049,0,0,1,.015-.019.031.031,0,0,1,.02-.01.057.057,0,0,1,.028,0,.067.067,0,0,1,.022.007.023.023,0,0,1,.01.01.021.021,0,0,1,0,.014.059.059,0,0,1,0,.019l-.007.028c-.006.019-.008.031-.01.036a.05.05,0,0,0,0,.015l-.021,0v-.015Zm.01-.046a.16.16,0,0,1-.034,0H462.8a.024.024,0,0,0-.01.006.015.015,0,0,0,0,.008.017.017,0,0,0,0,.015.019.019,0,0,0,.016.007.033.033,0,0,0,.021,0,.028.028,0,0,0,.017-.012.109.109,0,0,0,.009-.02Zm.032.07.036-.119.017,0,0,.016a.043.043,0,0,1,.041-.013.028.028,0,0,1,.017.006.028.028,0,0,1,.01.013.051.051,0,0,1,0,.016.116.116,0,0,1-.006.019l-.022.074-.019,0,.022-.072a.068.068,0,0,0,0-.019.022.022,0,0,0-.006-.01.016.016,0,0,0-.007-.006.039.039,0,0,0-.028,0,.041.041,0,0,0-.019.029l-.021.065Zm.131-.042a.07.07,0,0,1,.032-.046.059.059,0,0,1,.039-.007.047.047,0,0,1,.034.022.062.062,0,0,1,0,.047.089.089,0,0,1-.017.036.09.09,0,0,1-.026.018.064.064,0,0,1-.029,0,.045.045,0,0,1-.034-.022.069.069,0,0,1,0-.049m.019,0a.051.051,0,0,0,0,.036.022.022,0,0,0,.02.014.031.031,0,0,0,.026-.007.065.065,0,0,0,.021-.034.047.047,0,0,0,0-.035.024.024,0,0,0-.019-.016.033.033,0,0,0-.028.009.061.061,0,0,0-.02.032" transform="translate(-437.456 -206.472)"/><path d="M464.22,228.37a.039.039,0,0,1-.021-.005.042.042,0,0,1-.016-.057l.488-.866a.043.043,0,0,1,.074.042l-.488.865a.042.042,0,0,1-.037.022" transform="translate(-438.18 -206.443)" fill="#ea0020"/><path d="M448.042,216.772c2.745-.035,15.423,7.752,15.459,9.187l-.785,1.2c-.354-1.664-13.218-9.242-15.341-9.1Z" transform="translate(-433.885 -203.722)" fill="#fcff2c"/><path d="M468.1,230.289l.621-1.062a.028.028,0,0,1,.036-.008.026.026,0,0,1,.008.036Z" transform="translate(-439.181 -206.903)"/><path d="M447.441,218.016l.574-1.173a.027.027,0,0,1,.035-.01.025.025,0,0,1,.01.035Z" transform="translate(-433.902 -203.737)"/><path d="M447.233,217.97c.511-.346,4.254,1.323,8.171,3.687s7.641,5.049,7.3,5.551l-.11.174-.051.041c.01-.007.067-.077-.006-.261-.165-.55-2.815-2.664-7.208-5.32-4.285-2.556-7.854-4.1-8.212-3.657ZM463.515,226c.323-.636-3.15-3.255-7.456-5.8-4.405-2.5-7.579-3.969-8.159-3.53l-.129.234c0,.013.005-.014.032-.036a.572.572,0,0,1,.359-.088c1,.015,3.85,1.328,7.851,3.624,1.753,1.022,7.406,4.65,7.384,5.67,0,.087.007.106-.026.15Z" transform="translate(-433.82 -203.675)" fill="#fcff2c"/><path d="M462.572,227.433l-.028-.033c-.007,0-.011,0-.006-.006s.054-.058-.014-.234c-.17-.562-2.97-2.749-7.2-5.305-3.621-2.16-6.966-3.728-7.954-3.728a.287.287,0,0,0-.224.066l0-.012a.1.1,0,0,1,.01-.034l.056-.2a.378.378,0,0,1,.232-.06c1,0,4.5,1.641,7.975,3.736,3.518,2.135,7.166,4.69,7.332,5.445a.181.181,0,0,1-.019.144l-.11.173a.181.181,0,0,1-.035.019.134.134,0,0,1-.019.027m-15.2-9.357c1,0,4.353,1.571,7.98,3.735,4.3,2.6,7.044,4.751,7.22,5.333a.46.46,0,0,1,.038.176l.083-.133a.13.13,0,0,0,.012-.1c-.162-.732-3.886-3.335-7.308-5.411-3.464-2.091-6.956-3.729-7.949-3.729a.355.355,0,0,0-.2.041l-.066.133a.314.314,0,0,1,.185-.039m16.022,8.136a.023.023,0,0,1-.013,0l0,0-.007-.031h0l-.016.023.016-.023a.166.166,0,0,0,.007-.08c.022-1.047-5.739-4.729-7.372-5.681-3.986-2.285-6.843-3.6-7.839-3.619a.549.549,0,0,0-.342.081h-.006a.38.38,0,0,1,.328-.134c1.024.014,3.89,1.336,7.884,3.626,1.155.673,7.421,4.581,7.4,5.694v.022l.07-.106c.3-.585-2.975-3.119-7.447-5.768-4.733-2.683-7.609-3.923-8.131-3.531l-.107.2c-.023.008-.064.026-.064.016l.133-.248a.524.524,0,0,1,.334-.09c1.233,0,4.956,1.964,7.861,3.61,3.887,2.3,7.825,5.13,7.466,5.838l-.129.2a.026.026,0,0,1-.022.012" transform="translate(-433.827 -203.666)"/><path d="M451.143,222.38a5.357,5.357,0,0,0,10.714,0v-7.151l-10.716-.013Z" transform="translate(-434.848 -203.325)" fill="#fff"/><path d="M456.48,227.761a5.429,5.429,0,0,1-5.378-5.386l0-7.16,10.746-.017.031,7.18a5.4,5.4,0,0,1-5.4,5.382m5.336-12.532-10.685.017.032,7.129a5.327,5.327,0,0,0,10.653,0Z" transform="translate(-434.837 -203.32)"/><path d="M451.413,222.472v0a5.139,5.139,0,0,0,10.279,0v-6.938H451.419Zm8.213-4.854v4.414l0,.467a3.391,3.391,0,0,1-.022.382,2.99,2.99,0,0,1-.88,1.78,3.072,3.072,0,0,1-5.225-2.177v-4.878Z" transform="translate(-434.917 -203.407)" fill="#ea0020"/><path d="M456.547,227.614a5.184,5.184,0,0,1-5.165-5.145l.005-6.935,10.3-.022.024,6.961a5.161,5.161,0,0,1-5.16,5.141m5.113-12.079-10.25.022.017,6.907a5.116,5.116,0,0,0,10.233.009Zm-5.116,10.04a3.065,3.065,0,0,1-2.166-.919,3.106,3.106,0,0,1-.913-2.18v-4.9l6.154.012.023,4.437,0,.467a3.293,3.293,0,0,1-.022.384,3.016,3.016,0,0,1-.886,1.795,3.077,3.077,0,0,1-2.186.9m-3.034-7.953v4.855a3.055,3.055,0,0,0,.9,2.147,3.009,3.009,0,0,0,4.288.015,2.98,2.98,0,0,0,.873-1.767,3.349,3.349,0,0,0,.021-.379l0-4.882Z" transform="translate(-434.909 -203.4)"/><path d="M457.452,223.459h0a.755.755,0,0,0,.2.513.641.641,0,0,0,.957,0,.75.75,0,0,0,.2-.514v-.971h-1.352l0,.973Z" transform="translate(-436.461 -205.183)" fill="#1a0095"/><path d="M458.83,222.8a.134.134,0,1,0,.135.135.135.135,0,0,0-.135-.135" transform="translate(-436.779 -205.264)" fill="#fff"/><path d="M458.326,223.289a.134.134,0,1,0,0,.269.134.134,0,0,0,0-.269" transform="translate(-436.649 -205.388)" fill="#fff"/><path d="M458.829,223.795a.134.134,0,1,0,.134.135.136.136,0,0,0-.134-.135" transform="translate(-436.778 -205.517)" fill="#fff"/><path d="M457.846,223.8a.134.134,0,1,0,.134.134.133.133,0,0,0-.134-.134" transform="translate(-436.527 -205.517)" fill="#fff"/><path d="M457.844,222.8a.134.134,0,1,0,.134.134.133.133,0,0,0-.134-.134" transform="translate(-436.527 -205.264)" fill="#fff"/><path d="M457.442,226.588h0a.75.75,0,0,0,.2.514.641.641,0,0,0,.957,0,.749.749,0,0,0,.2-.513v-.973h-1.352Z" transform="translate(-436.458 -205.982)" fill="#1a0095"/><path d="M458.822,225.934a.134.134,0,1,0,.134.134.133.133,0,0,0-.134-.134" transform="translate(-436.777 -206.064)" fill="#fff"/><path d="M458.316,226.418a.134.134,0,1,0,.134.134.133.133,0,0,0-.134-.134" transform="translate(-436.647 -206.187)" fill="#fff"/><path d="M458.82,226.924a.134.134,0,1,0,.134.134.133.133,0,0,0-.134-.134" transform="translate(-436.776 -206.317)" fill="#fff"/><path d="M457.838,226.924a.134.134,0,1,0,.134.135.135.135,0,0,0-.134-.135" transform="translate(-436.525 -206.317)" fill="#fff"/><path d="M457.835,225.932a.134.134,0,1,0,.134.134.136.136,0,0,0-.134-.134" transform="translate(-436.524 -206.063)" fill="#fff"/><path d="M454.931,223.467h0a.753.753,0,0,0,.2.513.656.656,0,0,0,.478.216.648.648,0,0,0,.479-.214.745.745,0,0,0,.2-.513V222.5h-1.352Z" transform="translate(-435.816 -205.184)" fill="#1a0095"/><path d="M456.308,222.813a.134.134,0,1,0,.135.134.134.134,0,0,0-.135-.134" transform="translate(-436.134 -205.266)" fill="#fff"/><path d="M455.8,223.3a.134.134,0,1,0,.134.134.133.133,0,0,0-.134-.134" transform="translate(-436.005 -205.39)" fill="#fff"/><path d="M456.308,223.8a.134.134,0,1,0,.134.134.133.133,0,0,0-.134-.134" transform="translate(-436.134 -205.519)" fill="#fff"/><path d="M455.324,223.8a.134.134,0,1,0,.135.134.135.135,0,0,0-.135-.134" transform="translate(-435.882 -205.519)" fill="#fff"/><path d="M455.322,222.811a.134.134,0,1,0,.135.134.135.135,0,0,0-.135-.134" transform="translate(-435.882 -205.265)" fill="#fff"/><path d="M459.967,223.465h0a.749.749,0,0,0,.2.514.641.641,0,0,0,.957,0,.751.751,0,0,0,.2-.513v-.973h-1.353l0,.973Z" transform="translate(-437.103 -205.184)" fill="#1a0095"/><path d="M461.346,222.811a.134.134,0,1,0,.134.134.133.133,0,0,0-.134-.134" transform="translate(-437.422 -205.265)" fill="#fff"/><path d="M460.84,223.295a.134.134,0,1,0,.135.134.134.134,0,0,0-.135-.134" transform="translate(-437.292 -205.389)" fill="#fff"/><path d="M461.344,223.8a.134.134,0,1,0,.135.134.133.133,0,0,0-.135-.134" transform="translate(-437.421 -205.519)" fill="#fff"/><path d="M460.361,223.8a.134.134,0,1,0,.134.134.133.133,0,0,0-.134-.134" transform="translate(-437.17 -205.519)" fill="#fff"/><path d="M460.358,222.809a.134.134,0,1,0,0,.269.134.134,0,0,0,0-.269" transform="translate(-437.169 -205.265)" fill="#fff"/><path d="M457.452,220.3h0a.748.748,0,0,0,.2.513.639.639,0,0,0,.957,0,.756.756,0,0,0,.2-.514v-.971h-1.353Z" transform="translate(-436.461 -204.376)" fill="#1a0095"/><path d="M458.83,219.649a.134.134,0,1,0,.134.135.135.135,0,0,0-.134-.135" transform="translate(-436.779 -204.457)" fill="#fff"/><path d="M458.324,220.135a.134.134,0,1,0,.134.134.133.133,0,0,0-.134-.134" transform="translate(-436.649 -204.581)" fill="#fff"/><path d="M458.828,220.639a.134.134,0,1,0,.135.135.136.136,0,0,0-.135-.135" transform="translate(-436.778 -204.71)" fill="#fff"/><path d="M457.846,220.641a.134.134,0,1,0,.134.134.134.134,0,0,0-.134-.134" transform="translate(-436.527 -204.711)" fill="#fff"/><path d="M457.844,219.649a.134.134,0,1,0,.134.134.133.133,0,0,0-.134-.134" transform="translate(-436.527 -204.457)" fill="#fff"/><path d="M452.308,217.763a.625.625,0,0,1,.368-.618.617.617,0,0,1,.381.622Z" transform="translate(-435.146 -203.817)" fill="#fcff2c"/><path d="M451.876,217.156l-.063.573h.374a.509.509,0,0,1,.368-.551.549.549,0,0,1,.369.551h.375l-.068-.577Z" transform="translate(-435.019 -203.819)" fill="#fcff2c"/><path d="M453.324,217.745h-.4a.581.581,0,0,0-.372-.552.49.49,0,0,0-.342.529l-.4.021.04-.6,1.377-.022Zm-.81-.586-.637.011-.04.553.351-.024a.5.5,0,0,1,.326-.54m.071,0a.575.575,0,0,1,.362.564l.326-.021-.064-.554Z" transform="translate(-435.02 -203.812)"/><path d="M451.76,217.93h1.53a.066.066,0,0,1,.058.071.065.065,0,0,1-.058.069h-1.53A.065.065,0,0,1,451.7,218a.066.066,0,0,1,.058-.071" transform="translate(-434.991 -204.018)" fill="#fcff2c"/><path d="M453.282,218.085h-1.53a.087.087,0,0,1-.08-.092.088.088,0,0,1,.08-.094h1.53a.088.088,0,0,1,.08.094.087.087,0,0,1-.08.092m-1.53-.141v.1h1.53c.019,0,.036-.022.036-.048Z" transform="translate(-434.983 -204.01)"/><path d="M452.528,217.794a.249.249,0,1,1,.418,0Z" transform="translate(-435.202 -203.885)" fill="#fcff2c"/><path d="M452.967,217.809h-.44a.267.267,0,1,1,.44-.022Zm-.245-.386a.416.416,0,0,0-.172.363l.371-.022a.374.374,0,0,0-.2-.342" transform="translate(-435.202 -203.878)"/><path d="M451.8,216.838h1.467a.059.059,0,0,1,.055.063.06.06,0,0,1-.055.064H451.8a.064.064,0,0,1,0-.127" transform="translate(-435.003 -203.739)" fill="#fcff2c"/><path d="M453.264,216.979H451.8a.086.086,0,0,1,0-.172h1.467a.086.086,0,0,1,0,.172m-1.467-.127v.081h1.467a.038.038,0,0,0,.033-.041Z" transform="translate(-434.995 -203.731)"/><path d="M451.848,217.008h1.4a.065.065,0,0,1,0,.128h-1.4a.065.065,0,0,1,0-.128" transform="translate(-435.014 -203.782)" fill="#fcff2c"/><path d="M453.241,217.15h-1.4a.087.087,0,0,1,0-.173h1.4a.087.087,0,0,1,0,.173m-1.4-.128v.083h1.4c.016,0,.031-.019.031-.041Z" transform="translate(-435.007 -203.774)"/><path d="M452.474,215.725h.112v.078h.08v-.08h.113v.08h.082v-.08h.113v.182a.048.048,0,0,1-.05.047h-.4a.053.053,0,0,1-.052-.048Z" transform="translate(-435.188 -203.454)" fill="#fcff2c"/><path d="M452.917,215.966H452.5l-.052-.071v-.179l.134-.022.023.1.057-.022-.023-.057.136-.022.022.1.059-.022-.022-.057.136-.022.022.226Zm-.361-.249-.089.022.022.156.428.048.027-.047v-.182l-.091.022.023.057-.1.023-.022-.1-.091.022.022.057-.1.023Z" transform="translate(-435.181 -203.446)"/><path d="M452.909,216.051l.025.583h-.388l.026-.583Z" transform="translate(-435.207 -203.537)" fill="#fcff2c"/><path d="M452.958,216.649h-.412l0-.607.36-.02Zm-.071-.6-.315.02,0,.561.342-.021Z" transform="translate(-435.207 -203.53)"/><path d="M453.122,216.107h.108v.078h.078v-.08h.112v.08h.079v-.08h.112v.182a.048.048,0,0,1-.049.047h-.39a.05.05,0,0,1-.049-.048Z" transform="translate(-435.354 -203.552)" fill="#fcff2c"/><path d="M453.553,216.349h-.412l-.05-.071V216.1l.13-.022.023.1.056-.022-.023-.057.135-.022.022.1.057-.022-.023-.057.135-.022.022.226Zm-.354-.249-.085.022.022.156.417.048.027-.047V216.1l-.089.022.022.057-.1.023-.022-.1-.089.022.022.057-.1.023Z" transform="translate(-435.346 -203.544)"/><path d="M453.559,216.412l.013.314H453.2l.01-.314Z" transform="translate(-435.374 -203.63)" fill="#fcff2c"/><path d="M453.591,216.741h-.4l-.013-.337.373-.022Zm-.057-.336-.328.022.012.293.327-.022Z" transform="translate(-435.369 -203.622)"/><path d="M451.835,216.107h.109v.08h.079v-.081h.11v.08h.08v-.081h.11v.182a.047.047,0,0,1-.048.048h-.39a.051.051,0,0,1-.051-.048Z" transform="translate(-435.025 -203.552)" fill="#fcff2c"/><path d="M452.268,216.351h-.412l-.051-.071v-.18l.131-.021.023.1.056-.022-.023-.059.133-.021.022.1.058-.022-.023-.059.133-.022.022.227Zm-.354-.249-.086.021.022.158.418.048.025-.048V216.1l-.088.022.022.059-.1.023-.022-.1-.088.021.022.059-.1.023Z" transform="translate(-435.017 -203.544)"/><path d="M452.274,216.412l.012.316h-.372l.01-.316Z" transform="translate(-435.045 -203.63)" fill="#fcff2c"/><path d="M452.3,216.742h-.4l-.013-.339.373-.022Zm-.057-.337-.328.022.012.294.327-.022Z" transform="translate(-435.04 -203.622)"/><path d="M452.757,216.284a.039.039,0,1,1,.077,0v.138h-.077Z" transform="translate(-435.261 -203.586)"/><path d="M453.4,216.555a.037.037,0,1,1,.074,0v.106H453.4Z" transform="translate(-435.425 -203.656)"/><path d="M452.11,216.555a.037.037,0,1,1,.074,0v.108h-.074Z" transform="translate(-435.095 -203.656)"/><path d="M458.015,215.725h.112v.08h.08v-.081h.113v.081h.082v-.081h.113v.182a.048.048,0,0,1-.05.048h-.4a.051.051,0,0,1-.051-.048Z" transform="translate(-436.605 -203.454)" fill="#fcff2c"/><path d="M458.458,215.968h-.419l-.054-.069v-.182l.134-.022.023.1.057-.022-.023-.059.136-.022.022.1.059-.022-.022-.059.136-.022.022.226Zm-.361-.251-.089.022.022.158.428.048.027-.048v-.182l-.091.022.023.059-.1.023-.022-.1-.091.022.022.059-.1.023Z" transform="translate(-436.597 -203.446)"/><path d="M458.45,216.052l.025.581h-.388l.026-.581Z" transform="translate(-436.623 -203.538)" fill="#fcff2c"/><path d="M458.5,216.649h-.412l0-.605.36-.02Zm-.071-.6-.315.02,0,.56.342-.021Z" transform="translate(-436.623 -203.53)"/><path d="M458.663,216.107h.108v.078h.08v-.08h.11v.08h.079v-.08h.112v.182a.046.046,0,0,1-.048.047h-.39a.051.051,0,0,1-.051-.048Z" transform="translate(-436.77 -203.552)" fill="#fcff2c"/><path d="M459.094,216.349h-.412l-.05-.069v-.18l.13-.022.023.1.057-.022-.023-.059.133-.022.022.1.057-.022-.023-.059.135-.022.022.226Zm-.354-.249-.085.022.022.158.417.047.027-.047V216.1l-.089.022.022.059-.1.023-.022-.1-.088.022.022.059-.1.023Z" transform="translate(-436.762 -203.544)"/><path d="M459.1,216.412l.012.314h-.372l.01-.316Z" transform="translate(-436.79 -203.63)" fill="#fcff2c"/><path d="M458.71,216.743l.01-.339.373-.022.034.336Zm.361-.338-.328.022.011.27h.351Z" transform="translate(-436.782 -203.622)"/><path d="M457.376,216.109h.109v.078h.079v-.08h.112v.08h.079v-.08h.112v.182a.046.046,0,0,1-.048.047h-.39a.052.052,0,0,1-.051-.048Z" transform="translate(-436.441 -203.552)" fill="#fcff2c"/><path d="M457.809,216.351H457.4l-.051-.071V216.1l.131-.022.023.1.056-.022-.023-.057.133-.022.022.1.058-.022-.023-.057.133-.022.022.226Zm-.354-.249-.086.022.022.156.418.048.025-.047V216.1l-.088.022.022.057-.1.023-.022-.1-.088.022.022.057-.1.023Z" transform="translate(-436.434 -203.545)"/><path d="M457.815,216.414l.012.314h-.372l.01-.314Z" transform="translate(-436.461 -203.63)" fill="#fcff2c"/><path d="M457.845,216.743h-.4l-.011-.337.371-.022Zm-.057-.336-.326.022.01.293.327-.022Z" transform="translate(-436.457 -203.623)"/><path d="M457.849,217.764a.628.628,0,0,1,.368-.619.62.62,0,0,1,.381.624Z" transform="translate(-436.562 -203.817)" fill="#fcff2c"/><path d="M457.418,217.156l-.061.574h.373a.509.509,0,0,1,.366-.551.55.55,0,0,1,.369.551h.375l-.068-.577Z" transform="translate(-436.436 -203.819)" fill="#fcff2c"/><path d="M458.866,217.744h-.4a.578.578,0,0,0-.373-.552.493.493,0,0,0-.342.529l-.4.022.04-.6,1.377-.025Zm-.814-.584-.635.012-.04.552.351-.025a.5.5,0,0,1,.324-.54m.076,0a.575.575,0,0,1,.36.563l.328-.02-.065-.554Z" transform="translate(-436.436 -203.811)"/><path d="M457.3,217.93h1.53a.073.073,0,0,1,0,.142H457.3a.073.073,0,0,1,0-.142" transform="translate(-436.407 -204.018)" fill="#fcff2c"/><path d="M458.823,218.087h-1.53a.095.095,0,0,1,0-.188h1.53a.095.095,0,0,1,0,.188m-1.53-.142v.1h1.53c.019,0,.036-.022.036-.049Z" transform="translate(-436.4 -204.01)"/><path d="M458.069,217.8a.249.249,0,1,1,.418,0Z" transform="translate(-436.618 -203.885)" fill="#fcff2c"/><path d="M458.508,217.811h-.44a.267.267,0,1,1,.44-.022Zm-.245-.386a.416.416,0,0,0-.172.363l.371-.022a.374.374,0,0,0-.2-.342" transform="translate(-436.618 -203.878)"/><path d="M457.347,216.838h1.466a.065.065,0,0,1,0,.128h-1.466a.065.065,0,0,1,0-.128" transform="translate(-436.419 -203.739)" fill="#fcff2c"/><path d="M458.8,216.98h-1.467a.087.087,0,0,1,0-.173H458.8a.087.087,0,0,1,0,.173m-1.467-.128v.083H458.8a.038.038,0,0,0,.033-.041Z" transform="translate(-436.412 -203.731)"/><path d="M457.389,217.01h1.4a.064.064,0,0,1,0,.127h-1.4a.064.064,0,0,1,0-.127" transform="translate(-436.431 -203.783)" fill="#fcff2c"/><path d="M458.782,217.151h-1.4a.08.08,0,0,1-.077-.085.082.082,0,0,1,.077-.087h1.4a.083.083,0,0,1,.076.087.081.081,0,0,1-.076.085m-1.4-.127v.081h1.4a.037.037,0,0,0,.031-.039Z" transform="translate(-436.423 -203.775)"/><path d="M458.3,216.284a.039.039,0,1,1,.077,0v.139H458.3Z" transform="translate(-436.677 -203.586)"/><path d="M458.94,216.555a.038.038,0,1,1,.076,0v.108h-.076Z" transform="translate(-436.841 -203.656)"/><path d="M457.651,216.557a.037.037,0,1,1,.074,0v.108h-.074Z" transform="translate(-436.511 -203.656)"/><path d="M463.495,215.729h.11v.078h.082v-.08h.113v.08h.08v-.08h.113v.182a.046.046,0,0,1-.049.047h-.4a.05.05,0,0,1-.052-.047Z" transform="translate(-438.005 -203.455)" fill="#fcff2c"/><path d="M463.936,215.97h-.421l-.051-.069v-.18l.133-.022.023.1.059-.022-.023-.057.136-.022.022.1.057-.022-.022-.057.136-.022.022.226Zm-.361-.249-.088.022.022.158.427.047.027-.047v-.182l-.091.022.023.057-.1.023-.022-.1-.091.022.022.057-.1.023Z" transform="translate(-437.998 -203.447)"/><path d="M463.931,216.055l.025.583h-.388l.026-.581Z" transform="translate(-438.024 -203.539)" fill="#fcff2c"/><path d="M463.979,216.652h-.412l0-.605.36-.022Zm-.071-.6-.315.022,0,.56.342-.021Z" transform="translate(-438.024 -203.531)"/><path d="M464.142,216.111h.109v.078h.079v-.08h.11v.08h.08v-.08h.11v.182a.046.046,0,0,1-.048.047h-.39a.049.049,0,0,1-.049-.047Z" transform="translate(-438.171 -203.553)" fill="#fcff2c"/><path d="M464.575,216.353h-.412l-.051-.069v-.18l.131-.022.023.1.056-.022-.023-.057.133-.022.022.1.058-.022-.023-.057.133-.022.022.226Zm-.354-.249-.086.022.022.158.418.047.025-.047V216.1l-.088.022.022.057-.1.023-.022-.1-.088.022.022.057-.1.023Z" transform="translate(-438.163 -203.545)"/><path d="M464.58,216.416l.012.314h-.372l.01-.314Z" transform="translate(-438.191 -203.631)" fill="#fcff2c"/><path d="M464.611,216.745h-.4l-.011-.337.372-.022Zm-.057-.336-.326.022.01.293.327-.022Z" transform="translate(-438.187 -203.623)"/><path d="M462.856,216.113h.108v.078h.08v-.08h.11v.08h.08v-.08h.11v.182a.047.047,0,0,1-.048.047h-.39a.051.051,0,0,1-.051-.048Z" transform="translate(-437.842 -203.553)" fill="#fcff2c"/><path d="M463.29,216.355h-.412l-.051-.071v-.179l.13-.022.023.1.057-.022-.023-.057.133-.022.022.1.058-.022-.023-.057.133-.022.022.226Zm-.356-.249-.085.022.022.156.418.048.025-.047V216.1l-.088.022.022.057-.1.023-.022-.1-.088.022.022.057-.1.023Z" transform="translate(-437.834 -203.546)"/><path d="M463.3,216.418l.012.314h-.372l.01-.314Z" transform="translate(-437.862 -203.632)" fill="#fcff2c"/><path d="M463.326,216.747h-.4l-.013-.337.373-.022Zm-.057-.336-.328.022.012.293.327-.022Z" transform="translate(-437.858 -203.624)"/><path d="M463.327,217.768a.63.63,0,0,1,.369-.619.622.622,0,0,1,.38.624Z" transform="translate(-437.962 -203.818)" fill="#fcff2c"/><path d="M462.9,217.159l-.061.574h.374a.509.509,0,0,1,.368-.551.555.555,0,0,1,.369.551h.374l-.067-.577Z" transform="translate(-437.836 -203.82)" fill="#fcff2c"/><path d="M464.345,217.749h-.4a.584.584,0,0,0-.373-.552.491.491,0,0,0-.342.529l-.4.022.039-.6,1.379-.022Zm-.81-.586-.639.011-.039.553.351-.024a.5.5,0,0,1,.326-.54m.071,0a.574.574,0,0,1,.362.564l.326-.021-.064-.554Z" transform="translate(-437.836 -203.813)"/><path d="M462.782,217.934h1.53a.073.073,0,0,1,0,.142h-1.53a.073.073,0,0,1,0-.142" transform="translate(-437.808 -204.019)" fill="#fcff2c"/><path d="M464.3,218.091h-1.53a.095.095,0,0,1,0-.188h1.53a.095.095,0,0,1,0,.188m-1.53-.142v.1h1.53c.019,0,.036-.022.036-.049Z" transform="translate(-437.8 -204.011)"/><path d="M463.548,217.8a.248.248,0,1,1,.418,0Z" transform="translate(-438.019 -203.887)" fill="#fcff2c"/><path d="M463.988,217.815h-.441a.267.267,0,1,1,.441-.021Zm-.245-.386a.418.418,0,0,0-.173.362l.373-.02a.375.375,0,0,0-.2-.342" transform="translate(-438.018 -203.879)"/><path d="M462.826,216.842h1.466a.065.065,0,0,1,0,.128h-1.466a.065.065,0,0,1,0-.128" transform="translate(-437.82 -203.74)" fill="#fcff2c"/><path d="M464.284,216.984h-1.466a.087.087,0,0,1,0-.173h1.466a.087.087,0,0,1,0,.173m-1.466-.128v.083h1.466a.038.038,0,0,0,.034-.041Z" transform="translate(-437.812 -203.732)"/><path d="M462.868,217.014h1.4a.064.064,0,0,1,0,.127h-1.4a.064.064,0,0,1,0-.127" transform="translate(-437.831 -203.784)" fill="#fcff2c"/><path d="M464.263,217.155h-1.4a.087.087,0,0,1,0-.172h1.4a.087.087,0,0,1,0,.172m-1.4-.127v.081h1.4a.037.037,0,0,0,.031-.041Z" transform="translate(-437.823 -203.776)"/><path d="M463.776,216.288a.039.039,0,1,1,.078,0v.139h-.078Z" transform="translate(-438.077 -203.587)"/><path d="M464.421,216.559a.037.037,0,1,1,.074,0v.108h-.074Z" transform="translate(-438.242 -203.657)"/><path d="M463.13,216.56a.038.038,0,1,1,.076,0v.108h-.076Z" transform="translate(-437.912 -203.657)"/><path d="M452.478,221.341h.109v.08h.08v-.081h.113v.081h.082v-.081h.113v.182a.047.047,0,0,1-.049.047h-.4a.05.05,0,0,1-.051-.047Z" transform="translate(-435.189 -204.889)" fill="#fcff2c"/><path d="M452.92,221.582H452.5l-.051-.068v-.18l.131-.021.022.1.059-.02-.022-.061.135-.021.021.1.06-.02-.021-.061.135-.021.021.223Zm-.36-.248-.089.021.021.159.428.047.028-.047v-.182l-.092.021.022.06-.1.021-.021-.1-.092.021.021.06-.1.021Z" transform="translate(-435.182 -204.882)"/><path d="M452.912,221.668l.026.583h-.388l.025-.583h.337Z" transform="translate(-435.208 -204.973)" fill="#fcff2c"/><path d="M452.962,222.266h-.412l0-.605.36-.022Zm-.072-.6-.315.022,0,.56.342-.021Z" transform="translate(-435.208 -204.966)"/><path d="M453.124,221.724h.109v.078h.079v-.08h.11v.08h.08v-.08h.11v.182a.046.046,0,0,1-.048.047h-.39a.05.05,0,0,1-.051-.047Z" transform="translate(-435.354 -204.987)" fill="#fcff2c"/><path d="M453.558,221.965h-.411l-.051-.068v-.18l.13-.022.022.1.057-.021-.022-.059.132-.022.022.1.059-.021-.022-.059.132-.022.021.225Zm-.353-.248-.088.022.021.159.42.047.027-.047v-.182l-.089.022.021.058-.1.022-.021-.1-.089.022.021.058-.1.022Z" transform="translate(-435.347 -204.98)"/><path d="M453.563,222.03l.012.314H453.2l.01-.314Z" transform="translate(-435.374 -205.066)" fill="#fcff2c"/><path d="M453.592,222.358H453.2l-.011-.336.371-.02Zm-.054-.334-.329.02.01.294.33-.02Z" transform="translate(-435.37 -205.059)"/><path d="M451.839,221.727h.108v.078h.08v-.08h.11v.08h.079v-.08h.112v.182a.048.048,0,0,1-.049.047h-.389a.05.05,0,0,1-.051-.048Z" transform="translate(-435.026 -204.988)" fill="#fcff2c"/><path d="M452.272,221.967h-.411l-.051-.069v-.179l.129-.022.022.1.059-.021-.022-.059.132-.022.021.1.06-.021-.022-.059.132-.022.021.225Zm-.354-.248-.086.022.021.157.42.048.027-.047v-.182l-.089.022.021.058-.1.022-.021-.1-.089.022.021.058-.1.022Z" transform="translate(-435.019 -204.98)"/><path d="M452.278,222.032l.012.314h-.372l.01-.314Z" transform="translate(-435.046 -205.066)" fill="#fcff2c"/><path d="M452.307,222.359h-.394l-.011-.336.371-.02Zm-.054-.334-.329.02.01.294.33-.02Z" transform="translate(-435.042 -205.059)"/><path d="M452.31,223.381a.628.628,0,0,1,.368-.619.62.62,0,0,1,.381.624Z" transform="translate(-435.146 -205.253)" fill="#fcff2c"/><path d="M451.878,222.773l-.061.574h.374a.509.509,0,0,1,.366-.551.551.551,0,0,1,.369.551h.375l-.067-.577Z" transform="translate(-435.02 -205.255)" fill="#fcff2c"/><path d="M453.328,223.361h-.4a.579.579,0,0,0-.374-.552.491.491,0,0,0-.34.529l-.4.022.039-.6,1.379-.023Zm-.811-.585-.638.011-.039.554.351-.025a.494.494,0,0,1,.325-.54m.071,0a.576.576,0,0,1,.363.564l.327-.02-.065-.554Z" transform="translate(-435.021 -205.247)"/><path d="M451.764,223.547h1.528a.072.072,0,0,1,0,.142h-1.528a.072.072,0,0,1,0-.142" transform="translate(-434.991 -205.454)" fill="#fcff2c"/><path d="M453.284,223.7h-1.528a.095.095,0,0,1,0-.188h1.528a.095.095,0,0,1,0,.188m-1.528-.142v.1h1.528a.044.044,0,0,0,.037-.049Z" transform="translate(-434.984 -205.446)"/><path d="M452.53,223.411a.249.249,0,1,1,.418,0Z" transform="translate(-435.203 -205.321)" fill="#fcff2c"/><path d="M452.971,223.428h-.441c-.02-.33.186-.427.205-.427a.416.416,0,0,1,.235.406Zm-.244-.386a.415.415,0,0,0-.175.362l.374-.02a.377.377,0,0,0-.2-.342" transform="translate(-435.202 -205.314)"/><path d="M451.808,222.455h1.466a.061.061,0,0,1,.057.064.06.06,0,0,1-.057.063h-1.466a.059.059,0,0,1-.057-.063.06.06,0,0,1,.057-.064" transform="translate(-435.003 -205.174)" fill="#fcff2c"/><path d="M453.266,222.6H451.8a.081.081,0,0,1-.079-.085.083.083,0,0,1,.079-.087h1.466a.085.085,0,0,1,.079.087.082.082,0,0,1-.079.085m-1.466-.127v.081h1.466a.037.037,0,0,0,.034-.039Z" transform="translate(-434.996 -205.167)"/><path d="M451.85,222.627h1.4a.059.059,0,0,1,.055.063.06.06,0,0,1-.055.064h-1.4a.064.064,0,0,1,0-.127" transform="translate(-435.015 -205.218)" fill="#fcff2c"/><path d="M453.243,222.768h-1.4a.087.087,0,0,1,0-.172h1.4a.087.087,0,0,1,0,.172m-1.4-.127v.081h1.4a.037.037,0,0,0,.031-.041Z" transform="translate(-435.007 -205.211)"/><path d="M452.759,221.9a.039.039,0,1,1,.078,0v.138h-.078Z" transform="translate(-435.261 -205.022)"/><path d="M453.4,222.172a.037.037,0,1,1,.074,0v.108H453.4Z" transform="translate(-435.426 -205.092)"/><path d="M452.112,222.174a.037.037,0,1,1,.074,0v.106h-.074Z" transform="translate(-435.096 -205.092)"/><path d="M463.125,227.27l.077.078-.056.056.057.057.057-.057.08.08-.057.057.058.058.057-.057.08.08-.128.128a.048.048,0,0,1-.069,0l-.282-.282a.053.053,0,0,1,0-.07l.127-.127Z" transform="translate(-437.875 -206.405)" fill="#fcff2c"/><path d="M463.311,227.781l-.051-.022-.3-.3.011-.086.129-.127.109.078-.055.087.057.025.025-.057.112.08-.055.088.057.027.025-.057.112.08Zm-.208-.5-.1.127.3.352.017-.031.128-.128-.08-.048-.025.057-.089-.059.055-.088-.08-.048-.025.057-.089-.057.056-.087Z" transform="translate(-437.869 -206.4)"/><path d="M463.108,227.814l-.394.429-.273-.275.43-.394Z" transform="translate(-437.736 -206.483)" fill="#fcff2c"/><path d="M462.709,228.27l-.29-.292.431-.427.268.24Zm.14-.686-.4.395.257.226.378-.412Z" transform="translate(-437.73 -206.477)"/><path d="M463.31,228l.077.076-.056.057.056.055.057-.057.078.078-.057.057.057.057.057-.057.079.079-.128.128a.048.048,0,0,1-.068,0l-.275-.275a.053.053,0,0,1,0-.07Z" transform="translate(-437.923 -206.591)" fill="#fcff2c"/><path d="M463.492,228.5l-.051-.022-.29-.29.012-.086.127-.127.109.076-.055.088.055.024.025-.057.11.078-.057.089.057.025.025-.057.111.079Zm-.2-.494-.095.127.3.344.015-.029.13-.129-.079-.047-.025.057-.089-.057.057-.089-.078-.046-.025.057-.087-.055.056-.089Z" transform="translate(-437.917 -206.586)"/><path d="M463.378,228.526l-.214.23-.264-.264.229-.215Z" transform="translate(-437.853 -206.663)" fill="#fcff2c"/><path d="M463.159,228.783l-.28-.28.229-.247.28.249Zm-.051-.5-.2.216.246.215.2-.214Z" transform="translate(-437.848 -206.657)"/><path d="M462.4,227.088l.077.077-.056.055.056.057.057-.057.078.078-.057.057.057.056.057-.057.079.079-.128.13a.05.05,0,0,1-.068,0l-.275-.276a.051.051,0,0,1,0-.068Z" transform="translate(-437.69 -206.359)" fill="#fcff2c"/><path d="M462.586,227.593l-.051-.02-.275-.287,0-.091.126-.127.109.077-.055.087.055.025.025-.057.11.078-.057.089.057.023.025-.057.111.079Zm-.2-.494-.095.128.3.343.016-.029.13-.13-.079-.047-.025.057-.089-.055.057-.089-.078-.046-.025.057-.087-.057.056-.086Z" transform="translate(-437.689 -206.353)"/><path d="M462.467,227.617l-.212.232-.264-.264.229-.215Z" transform="translate(-437.621 -206.431)" fill="#fcff2c"/><path d="M462.249,227.875l-.28-.28.229-.247.278.247Zm-.051-.5-.2.216.246.215.2-.215Z" transform="translate(-437.615 -206.425)"/><path d="M461.464,228.667a.424.424,0,1,1,.526.534Z" transform="translate(-437.486 -206.707)" fill="#fcff2c"/><path d="M461.6,227.873l-.45.362.264.265a.51.51,0,0,1,.65-.13.551.551,0,0,1-.128.65l.265.266.359-.456Z" transform="translate(-437.406 -206.559)" fill="#fcff2c"/><path d="M462.2,229.314l-.283-.284a.582.582,0,0,0,.126-.652.433.433,0,0,0-.216-.055.568.568,0,0,0-.4.187l-.3-.265.452-.4.989.958Zm-.1-.933a.547.547,0,0,1,.041.17.606.606,0,0,1-.187.48l.246.217.345-.438Zm-.514-.5-.419.363.265.232a.57.57,0,0,1,.61-.153Z" transform="translate(-437.4 -206.553)"/><path d="M461.084,228.333l1.08,1.082a.066.066,0,0,1-.007.092.067.067,0,0,1-.092.009l-1.082-1.082a.072.072,0,0,1,.1-.1" transform="translate(-437.36 -206.673)" fill="#fcff2c"/><path d="M462.1,229.544l-.054-.021-1.082-1.082a.087.087,0,0,1,.009-.124l.069-.031,1.134,1.1a.089.089,0,0,1-.007.124Zm-1.1-1.134,1.1,1.112.038-.039-1.073-1.141-.084.084Z" transform="translate(-437.352 -206.665)"/><path d="M461.653,228.815a.392.392,0,0,1,.418-.125.4.4,0,0,1-.121.421Z" transform="translate(-437.534 -206.764)" fill="#fcff2c"/><path d="M461.945,229.132l-.311-.313c.229-.287.434-.165.438-.164a.4.4,0,0,1-.112.46Zm.016-.45a.414.414,0,0,0-.295.137l.278.249a.375.375,0,0,0,.1-.379s-.036-.007-.084-.007" transform="translate(-437.529 -206.753)"/><path d="M461.889,227.591l1.037,1.037a.062.062,0,0,1,0,.086.061.061,0,0,1-.085,0l-1.036-1.037a.06.06,0,0,1,0-.084.062.062,0,0,1,.086-.006Z" transform="translate(-437.568 -206.484)" fill="#fcff2c"/><path d="M462.868,228.755l-.055-.022-1.036-1.037a.082.082,0,0,1,0-.116l.116-.006,1.037,1.038a.092.092,0,0,1,0,.116Zm-1-1.149-.057.058,1.059,1.068.03-.036Z" transform="translate(-437.56 -206.483)"/><path d="M461.8,227.741l.992.993a.06.06,0,0,1-.007.083.058.058,0,0,1-.083.006l-.992-.992a.058.058,0,0,1,.007-.083.06.06,0,0,1,.083-.007" transform="translate(-437.545 -206.522)" fill="#fcff2c"/><path d="M462.729,228.859l-.053-.022-.99-.991a.08.08,0,0,1,.007-.115l.115-.007.992.993a.084.084,0,0,1-.007.115Zm-.953-1.1-.058.058,1.011,1.022.031-.036Z" transform="translate(-437.537 -206.521)"/><path d="M462.932,227.853a.039.039,0,1,1,.055.055l-.1.1-.055-.055Z" transform="translate(-437.836 -206.551)"/><path d="M463.2,228.5a.038.038,0,1,1,.054.052l-.075.077-.054-.054Z" transform="translate(-437.911 -206.716)"/><path d="M462.291,227.587a.037.037,0,1,1,.052.052l-.075.077-.053-.054Z" transform="translate(-437.678 -206.483)"/><path d="M463.487,221.343h.11v.078h.08v-.08h.113v.08h.082v-.08h.113v.182a.048.048,0,0,1-.049.047h-.4a.051.051,0,0,1-.051-.048Z" transform="translate(-438.003 -204.89)" fill="#fcff2c"/><path d="M463.928,221.585h-.421l-.051-.071v-.179l.133-.022.023.1.057-.022-.023-.057.136-.022.022.1.059-.022-.022-.057.136-.022.022.226Zm-.361-.249-.088.022.022.156.427.048.027-.047v-.182l-.091.022.023.057-.1.023-.022-.1-.091.022.022.057-.1.023Z" transform="translate(-437.995 -204.882)"/><path d="M463.923,221.67l.025.583h-.388l.025-.583Z" transform="translate(-438.022 -204.973)" fill="#fcff2c"/><path d="M463.972,222.268h-.412l0-.607.36-.02Zm-.072-.6-.315.02,0,.561.342-.021Z" transform="translate(-438.022 -204.966)"/><path d="M464.134,221.727h.109v.078h.079v-.08h.11v.08h.08v-.08h.11v.182a.046.046,0,0,1-.048.047h-.39a.051.051,0,0,1-.051-.048Z" transform="translate(-438.169 -204.988)" fill="#fcff2c"/><path d="M464.567,221.968h-.412l-.051-.071v-.179l.131-.022.023.1.056-.022-.023-.057.133-.022.022.1.058-.022-.023-.057.133-.022.022.226Zm-.354-.249-.086.022.022.156.418.048.025-.047v-.182l-.088.022.022.057-.1.023-.022-.1-.088.022.022.057-.1.023Z" transform="translate(-438.161 -204.98)"/><path d="M464.573,222.032l.012.314h-.372l.01-.314Z" transform="translate(-438.189 -205.066)" fill="#fcff2c"/><path d="M464.6,222.36h-.4l-.013-.337.373-.022Zm-.057-.336-.328.022.012.293.327-.022Z" transform="translate(-438.184 -205.058)"/><path d="M462.849,221.727h.108v.078h.08v-.08h.11v.08h.08v-.08h.11v.182a.047.047,0,0,1-.049.047h-.39a.05.05,0,0,1-.049-.047Z" transform="translate(-437.84 -204.988)" fill="#fcff2c"/><path d="M463.28,221.968h-.412l-.05-.069v-.18l.13-.022.023.1.056-.022-.023-.057.135-.022.022.1.058-.022-.023-.057.133-.022.022.226Zm-.354-.249-.085.022.022.158.417.047.027-.047v-.182l-.088.022.022.057-.1.023-.022-.1-.089.022.022.057-.1.023Z" transform="translate(-437.832 -204.98)"/><path d="M463.287,222.033l.012.313h-.372l.01-.316Z" transform="translate(-437.86 -205.066)" fill="#fcff2c"/><path d="M462.9,222.363l.01-.339.373-.02.034.334Zm.361-.336-.328.02.011.27h.351Z" transform="translate(-437.852 -205.059)"/><path d="M463.319,223.382a.627.627,0,0,1,.368-.618.617.617,0,0,1,.381.622Z" transform="translate(-437.96 -205.253)" fill="#fcff2c"/><path d="M462.888,222.775l-.061.573h.374a.511.511,0,0,1,.366-.552.556.556,0,0,1,.371.552h.374l-.067-.577Z" transform="translate(-437.834 -205.256)" fill="#fcff2c"/><path d="M464.337,223.363h-.4a.577.577,0,0,0-.371-.552.488.488,0,0,0-.342.529l-.4.021.039-.6,1.377-.023Zm-.811-.585-.638.011-.039.552.351-.023a.494.494,0,0,1,.325-.54m.077,0a.583.583,0,0,1,.356.564l.327-.021-.065-.553Z" transform="translate(-437.834 -205.248)"/><path d="M462.774,223.549H464.3a.066.066,0,0,1,.06.071.065.065,0,0,1-.06.069h-1.528a.066.066,0,0,1-.06-.069.067.067,0,0,1,.06-.071" transform="translate(-437.806 -205.454)" fill="#fcff2c"/><path d="M464.294,223.7h-1.528a.094.094,0,0,1,0-.186h1.528a.094.094,0,0,1,0,.186m-1.528-.141v.1h1.528a.044.044,0,0,0,.037-.048Z" transform="translate(-437.798 -205.446)"/><path d="M463.54,223.413a.249.249,0,1,1,.418,0Z" transform="translate(-438.017 -205.321)" fill="#fcff2c"/><path d="M463.981,223.428h-.441a.267.267,0,1,1,.441-.022Zm-.245-.386a.416.416,0,0,0-.173.363l.373-.022a.375.375,0,0,0-.2-.342" transform="translate(-438.016 -205.314)"/><path d="M462.818,222.457h1.466a.06.06,0,0,1,.057.063.061.061,0,0,1-.057.064h-1.466a.061.061,0,0,1-.057-.064.06.06,0,0,1,.057-.063" transform="translate(-437.818 -205.175)" fill="#fcff2c"/><path d="M464.276,222.6H462.81a.084.084,0,0,1-.079-.086.082.082,0,0,1,.079-.086h1.466a.083.083,0,0,1,.079.086.084.084,0,0,1-.079.086m-1.466-.127v.081h1.466a.04.04,0,0,0,.034-.041Z" transform="translate(-437.81 -205.167)"/><path d="M462.86,222.627h1.4a.065.065,0,0,1,0,.128h-1.4a.065.065,0,0,1,0-.128" transform="translate(-437.829 -205.218)" fill="#fcff2c"/><path d="M464.253,222.769h-1.4a.087.087,0,0,1,0-.173h1.4a.087.087,0,0,1,0,.173m-1.4-.128v.083h1.4a.037.037,0,0,0,.031-.041Z" transform="translate(-437.821 -205.211)"/><path d="M463.769,221.9a.039.039,0,1,1,.078,0v.139h-.078Z" transform="translate(-438.075 -205.022)"/><path d="M464.411,222.174a.038.038,0,1,1,.076,0v.106h-.076Z" transform="translate(-438.239 -205.092)"/><path d="M463.122,222.174a.037.037,0,1,1,.074,0v.108h-.074Z" transform="translate(-437.91 -205.092)"/><path d="M453.021,227.613l.077-.078.057.055.056-.057-.056-.057.08-.08.057.057.057-.058-.057-.057.08-.08.128.128a.046.046,0,0,1,0,.068l-.282.282a.051.051,0,0,1-.07,0Z" transform="translate(-435.328 -206.402)" fill="#fcff2c"/><path d="M453.173,227.769l-.048-.019-.126-.127.078-.11.087.055.025-.057-.057-.025.082-.112.089.057.025-.058-.057-.025.08-.112.176.144-.018.085Zm-.1-.224-.046.078.142.124.022-.031.282-.282-.127-.165-.048.08.057.025-.057.089-.089-.057-.05.08.057.025-.057.089Z" transform="translate(-435.322 -206.397)"/><path d="M453.565,227.569l.429.394-.275.273-.394-.429Z" transform="translate(-435.406 -206.482)" fill="#fcff2c"/><path d="M453.713,228.262l-.41-.446.24-.269.46.393Zm-.169-.683-.208.237.378.381.258-.258Z" transform="translate(-435.4 -206.476)"/><path d="M453.749,227.428l.076-.077.057.056.055-.056-.057-.057.078-.078.057.057.057-.057-.059-.057.08-.079.128.13a.046.046,0,0,1,0,.067l-.275.276a.052.052,0,0,1-.07,0Z" transform="translate(-435.514 -206.357)" fill="#fcff2c"/><path d="M453.9,227.585l-.049-.02-.127-.126.076-.109.089.054.023-.055-.057-.025.079-.111.089.057.025-.057-.058-.025.08-.11.16.139v.089Zm-.1-.223-.044.077.144.124.022-.031.274-.276-.127-.164-.048.078.058.025-.057.089-.089-.057-.047.079.057.025-.055.087Z" transform="translate(-435.509 -206.351)"/><path d="M454.277,227.365l.23.214-.264.264-.215-.23Z" transform="translate(-435.586 -206.43)" fill="#fcff2c"/><path d="M454.237,227.87l-.232-.246.249-.279.261.213Zm.019-.493-.217.246.2.182.248-.248Z" transform="translate(-435.58 -206.424)"/><path d="M452.839,228.338l.077-.077.057.057.055-.057-.057-.057.078-.078.057.057.057-.055-.059-.057.079-.079.13.128a.049.049,0,0,1,0,.067l-.276.276a.049.049,0,0,1-.068,0Z" transform="translate(-435.282 -206.59)" fill="#fcff2c"/><path d="M452.995,228.5l-.05-.02-.128-.126.077-.109.089.057.023-.056-.057-.025.079-.111.089.057.025-.056-.058-.025.078-.11.162.137,0,.09Zm-.1-.223-.045.077.146.124.02-.031.275-.277-.128-.162-.046.078.058.025-.057.088-.089-.057-.047.079.057.025-.055.089Z" transform="translate(-435.276 -206.584)"/><path d="M453.367,228.276l.231.214-.263.264-.215-.23Z" transform="translate(-435.353 -206.662)" fill="#fcff2c"/><path d="M453.33,228.78l-.232-.246.248-.279.263.213Zm.017-.493-.216.246.2.182.248-.248Z" transform="translate(-435.348 -206.657)"/><path d="M454.418,229.188a.627.627,0,0,1-.177-.7.617.617,0,0,1,.709.171Z" transform="translate(-435.629 -206.705)" fill="#fcff2c"/><path d="M453.624,228.825l.362.45.265-.265a.509.509,0,0,1-.131-.648.551.551,0,0,1,.651.128l.264-.265-.455-.36Z" transform="translate(-435.482 -206.557)" fill="#fcff2c"/><path d="M453.978,229.3l-.378-.469.958-.991.485.358-.263.3a.713.713,0,0,0-.434-.176.486.486,0,0,0-.22.05.5.5,0,0,0,.134.615Zm.1-.922-.44.456.348.4.247-.247a.512.512,0,0,1-.2-.464.472.472,0,0,1,.042-.144m.273-.1a.615.615,0,0,1,.433.189l.234-.264-.453-.327-.43.445a.561.561,0,0,1,.217-.043" transform="translate(-435.476 -206.552)"/><path d="M454.084,229.407l1.08-1.082a.066.066,0,0,1,.092.009.066.066,0,0,1,.009.092l-1.082,1.082a.064.064,0,0,1-.09-.009.066.066,0,0,1-.009-.092" transform="translate(-435.596 -206.671)" fill="#fcff2c"/><path d="M454.139,229.54l-.07-.031a.1.1,0,0,1-.007-.123l1.08-1.082c.079-.021.1-.01.124.008a.1.1,0,0,1,.008.124Zm1.057-1.211-1.1,1.09-.007.075.053.024.02-.03,1.083-1.082.007-.076Z" transform="translate(-435.589 -206.667)"/><path d="M454.565,229.1a.4.4,0,0,1-.127-.416.4.4,0,0,1,.421.121Z" transform="translate(-435.686 -206.763)" fill="#fcff2c"/><path d="M454.557,229.124l-.016-.016a.413.413,0,0,1-.131-.441c.029-.027.228-.112.458.114Zm-.118-.427a.41.41,0,0,0,.118.363l.279-.279a.473.473,0,0,0-.4-.084" transform="translate(-435.678 -206.753)"/><path d="M453.342,228.62l1.037-1.037a.06.06,0,0,1,.084,0,.063.063,0,0,1,.006.086l-1.037,1.036a.06.06,0,0,1-.084,0,.062.062,0,0,1-.006-.086" transform="translate(-435.406 -206.481)" fill="#fcff2c"/><path d="M453.393,228.748l-.063-.038-.005-.106,1.037-1.036.116,0a.085.085,0,0,1,.006.118Zm0-.045v.022l.022-.031,1.037-1.036.01-.07-.046,0-1.059,1.045-.01.068Z" transform="translate(-435.406 -206.481)"/><path d="M453.492,228.728l.992-.992a.058.058,0,0,1,.083.006.061.061,0,0,1,.007.084l-.992.992a.059.059,0,0,1-.083-.007.06.06,0,0,1-.007-.083" transform="translate(-435.445 -206.521)" fill="#fcff2c"/><path d="M453.54,228.853l-.064-.028a.082.082,0,0,1-.008-.114l.992-.992.116.006a.085.085,0,0,1,.007.115Zm0-.045v.022l.019-.029.992-.992.009-.068-.047,0-1.012,1-.008.066Z" transform="translate(-435.437 -206.52)"/><path d="M453.621,227.9a.039.039,0,1,1,.055-.055l.1.1-.055.055Z" transform="translate(-435.478 -206.549)"/><path d="M454.266,227.637a.037.037,0,1,1,.051-.054l.077.075-.054.054Z" transform="translate(-435.643 -206.482)"/><path d="M453.355,228.55a.037.037,0,1,1,.052-.052l.076.075-.052.054Z" transform="translate(-435.41 -206.715)"/></g></g></g></svg>