<svg xmlns="http://www.w3.org/2000/svg" xmlns:xlink="http://www.w3.org/1999/xlink" width="36" height="36" viewBox="0 0 36 36"><defs><clipPath id="a"><circle cx="18" cy="18" r="18" transform="translate(2537 326)" fill="#fff" stroke="#707070" stroke-width="1"/></clipPath><clipPath id="b"><rect width="61.713" height="36" fill="none"/></clipPath></defs><g transform="translate(-2537 -326)" clip-path="url(#a)"><g transform="translate(1795.373 -109.625)"><g transform="translate(728.628 435.625)" clip-path="url(#b)"><rect width="61.713" height="35.999" transform="translate(0 0.001)" fill="#fff"/><rect width="61.713" height="10.8" transform="translate(0 0)"/><rect width="61.713" height="10.8" transform="translate(0 25.2)" fill="#2a680b"/><path d="M761.2,466.193l.389.225,10.5-18.2c.613-.165.95-.749,1.288-1.335a13.066,13.066,0,0,0,1.513-3.974,13.037,13.037,0,0,0-2.68,3.3,2.423,2.423,0,0,0-.51,1.784Z" transform="translate(-737.035 -437.504)"/><path d="M761.6,466.45l-.416-.24,10.49-18.246a2.41,2.41,0,0,1,.51-1.782,12.924,12.924,0,0,1,2.688-3.307,11.376,11.376,0,0,1-1.467,4.011c-.335.579-.68,1.18-1.307,1.348Zm13.261-23.559a15,15,0,0,0-2.625,3.32,2.416,2.416,0,0,0-.507,1.761l-10.5,18.228.352.17,10.487-18.18c.62-.177.96-.766,1.289-1.335a12.869,12.869,0,0,0,1.509-3.964" transform="translate(-737.03 -437.496)"/><path d="M761.2,466.193l.389.225,10.5-18.2c.613-.165.95-.749,1.288-1.335a13.066,13.066,0,0,0,1.513-3.974,13.037,13.037,0,0,0-2.68,3.3,2.423,2.423,0,0,0-.51,1.784Z" transform="translate(-737.035 -437.504)" fill="#fff"/><path d="M773.758,466.193l-.39.225-10.5-18.2c-.614-.165-.95-.749-1.287-1.335a13.03,13.03,0,0,1-1.515-3.974,13.038,13.038,0,0,1,2.682,3.3,2.426,2.426,0,0,1,.51,1.784Z" transform="translate(-736.742 -437.504)"/><path d="M773.346,466.46l-.015-.026-10.5-18.2c-.608-.154-.953-.754-1.287-1.332a12.97,12.97,0,0,1-1.519-3.985,11.328,11.328,0,0,1,2.738,3.278,2.46,2.46,0,0,1,.513,1.807l10.5,18.182Zm-13.31-23.531a15.053,15.053,0,0,0,1.56,3.936c.329.571.668,1.159,1.269,1.321l10.5,18.191.364-.209L763.221,448a2.458,2.458,0,0,0-.51-1.784,12.869,12.869,0,0,0-2.675-3.292" transform="translate(-736.732 -437.506)"/><path d="M773.758,466.193l-.39.225-10.5-18.2c-.614-.165-.95-.749-1.287-1.335a13.03,13.03,0,0,1-1.515-3.974,13.038,13.038,0,0,1,2.682,3.3,2.426,2.426,0,0,1,.51,1.784Z" transform="translate(-736.742 -437.504)" fill="#fff"/><path d="M728.628,450.731v10.8h26.32c.675,1.8,2.922,5.4,4.271,5.4s3.6-3.6,4.27-5.4h26.851v-10.8H763.49c-.674-1.8-2.921-5.4-4.27-5.4s-3.6,3.6-4.271,5.4Z" transform="translate(-728.628 -438.13)" fill="#aa0017"/><path d="M775.227,463.41a13.527,13.527,0,0,0,0-10.8,13.544,13.544,0,0,0,0,10.8" transform="translate(-740.365 -440.009)"/><path d="M763.713,463.41a13.543,13.543,0,0,1,0-10.8,13.527,13.527,0,0,1,0,10.8" transform="translate(-737.393 -440.009)"/><path d="M769.549,458.068c.5,0,.9.6.9,1.35s-.4,1.351-.9,1.351-.9-.605-.9-1.351.4-1.35.9-1.35" transform="translate(-738.957 -441.418)" fill="#fff"/><path d="M770.165,461.662a12.873,12.873,0,0,1,0,9.45Z" transform="translate(-739.349 -442.345)" fill="#fff"/><path d="M769.247,454.826a12.855,12.855,0,0,1,0-9.45Z" transform="translate(-738.879 -438.142)" fill="#fff"/><path d="M769.247,461.662a12.853,12.853,0,0,0,0,9.45Z" transform="translate(-738.879 -442.345)" fill="#fff"/><path d="M770.165,454.826a12.875,12.875,0,0,0,0-9.45Z" transform="translate(-739.349 -438.142)" fill="#fff"/></g></g></g></svg>