<svg xmlns="http://www.w3.org/2000/svg" xmlns:xlink="http://www.w3.org/1999/xlink" width="36" height="36" viewBox="0 0 36 36"><defs><clipPath id="a"><circle cx="18" cy="18" r="18" transform="translate(2429 223)" fill="#fff" stroke="#707070" stroke-width="1"/></clipPath><clipPath id="b"><rect width="61.714" height="36" fill="none"/></clipPath></defs><g transform="translate(-2429 -223)" clip-path="url(#a)"><g transform="translate(2086.542 23.753)"><g transform="translate(329.458 199.247)" clip-path="url(#b)"><path d="M329.458,199.247v27.335l47.05-27.335Z" transform="translate(-329.458 -199.247)" fill="#42a04b"/><path d="M349.224,238.261h47.05V210.925Z" transform="translate(-334.559 -202.261)" fill="#4694d2"/><path d="M412.6,199.247l.01.013.023-.013Z" transform="translate(-350.916 -199.247)" fill="#eac126"/><path d="M329.458,247.755l.023-.013-.023-.03Z" transform="translate(-329.458 -211.756)" fill="#eac126"/><path d="M376.508,199.247l-47.05,27.335v2.779l51.749-30.114Z" transform="translate(-329.458 -199.247)" fill="#eac126"/><path d="M329.458,247.766h.033l-.01-.013Z" transform="translate(-329.458 -211.766)" fill="#eac126"/><path d="M412.634,199.247l-.023.013.023.03Z" transform="translate(-350.92 -199.247)" fill="#eac126"/><path d="M342.89,237.294h4.7l47.05-27.336v-2.779Z" transform="translate(-332.925 -201.294)" fill="#eac126"/><path d="M381.207,199.247l-51.749,30.114V235.2l.023.03.01.013h9.932l51.749-30.113v-5.842l-.024-.03-.01-.013Z" transform="translate(-329.458 -199.247)"/></g></g></g></svg>