<svg xmlns="http://www.w3.org/2000/svg" xmlns:xlink="http://www.w3.org/1999/xlink" width="36" height="36" viewBox="0 0 36 36"><defs><clipPath id="a"><circle cx="18" cy="18" r="18" transform="translate(2955 361)" fill="#fff" stroke="#707070" stroke-width="1"/></clipPath><clipPath id="b"><rect width="61.714" height="36" fill="none"/></clipPath></defs><g transform="translate(-2955 -361)" clip-path="url(#a)"><g transform="translate(2812.128 -153.419)"><g transform="translate(129.872 514.419)" clip-path="url(#b)"><rect width="61.714" height="12" transform="translate(0 24)" fill="#3564c2"/><rect width="61.714" height="12.001" transform="translate(0 -0.001)" fill="#3564c2"/><rect width="61.714" height="12" transform="translate(0 12)" fill="#fff"/><path d="M166.585,539.316l3.62-6.268,3.618,6.268Z" transform="translate(-139.347 -519.227)" fill="#f5cd28"/><path d="M167.065,539.254l3.261-5.65,3.264,5.65Z" transform="translate(-139.471 -519.37)" fill="#95d4fd"/><path d="M167.856,540.474a.85.85,0,0,1-.137-.015l-.1-.025-.007-.066.119.033a1.774,1.774,0,0,0,.3.03.361.361,0,0,1-.174.044" transform="translate(-139.613 -521.116)" fill="#95d4fd"/><path d="M167.5,541l-.075-.044c.04-.013.068-.056.116-.112a.261.261,0,0,1,.174,0,.481.481,0,0,0,.112.02.26.26,0,0,0,.226,0l.094-.01-.068.064a.3.3,0,0,1-.271,0,.342.342,0,0,1-.109-.018.237.237,0,0,0-.129-.009c-.03.044-.056.085-.071.108" transform="translate(-139.564 -521.234)" fill="#95d4fd"/><path d="M168.218,541.112a1.448,1.448,0,0,0-.255-.013l-.092-.027v.03c-.065,0-.09,0-.106-.005l-.015.005v-.032a.289.289,0,0,1,.119-.028l.093,0c.107,0,.193,0,.256.073" transform="translate(-139.648 -521.289)" fill="#95d4fd"/><path d="M169.425,540.4c-.128,0-.168-.043-.2-.171a.37.37,0,0,0-.2.02l-.1,0-.023-.059h.111a.31.31,0,0,1,.253,0c.042.138.067.151.162.154.005-.022.05-.045.09-.065l.079.025a.584.584,0,0,0-.147.089h-.031" transform="translate(-139.947 -521.064)" fill="#95d4fd"/><path d="M169.3,540.845l-.075-.043c.04-.014.068-.058.118-.113a.3.3,0,0,1,.292-.072c.116.089.148.114.235.124a.623.623,0,0,0,.135-.016.817.817,0,0,1,.1-.015c-.031.062-.059.068-.088.074a.733.733,0,0,1-.149.016.356.356,0,0,1-.217-.1.213.213,0,0,0-.26.026.854.854,0,0,0-.089.117" transform="translate(-140.028 -521.177)" fill="#95d4fd"/><path d="M170.063,541.153a.554.554,0,0,1-.234-.06l-.083-.034a.226.226,0,0,1-.076.048l-.024-.044h.022c0-.018.029-.033.073-.059l.112.033a.518.518,0,0,0,.209.056.477.477,0,0,0,.08-.015.528.528,0,0,1,.115-.016.136.136,0,0,1-.1.074.6.6,0,0,1-.093.016" transform="translate(-140.137 -521.28)" fill="#95d4fd"/><path d="M171.121,540.291a.8.8,0,0,0-.282-.03h-.111l-.022-.059h.109a.9.9,0,0,1,.316.032l.3,0Z" transform="translate(-140.411 -521.073)" fill="#95d4fd"/><path d="M171.224,540.733a.391.391,0,0,1-.22-.088l-.066-.045a.419.419,0,0,0-.245-.086.41.41,0,0,1-.084.049l-.023-.046h.023c-.007-.017.027-.032.073-.059a.455.455,0,0,1,.3.1l.059.039a.338.338,0,0,0,.185.078.657.657,0,0,1,.143-.062l-.05.087a.172.172,0,0,1-.093.034" transform="translate(-140.38 -521.139)" fill="#95d4fd"/><path d="M171.48,540.971a.673.673,0,0,1-.227-.03.208.208,0,0,0-.211.026l-.035-.047a.259.259,0,0,1,.272-.032.853.853,0,0,0,.266.026c.037-.013.073-.029.11-.046a.587.587,0,0,0,.136-.072l.008-.007h.076l-.065.059a.407.407,0,0,1-.129.075.894.894,0,0,0-.1.046l-.1,0" transform="translate(-140.488 -521.225)" fill="#95d4fd"/><path d="M172.6,540.449a.773.773,0,0,0-.3-.031l-.031-.029.029-.031a.759.759,0,0,1,.313.035.33.33,0,0,0,.154-.125l.05-.056a.484.484,0,0,1,.252.023.657.657,0,0,1-.23.027c-.08.109-.131.169-.234.187" transform="translate(-140.813 -521.074)" fill="#95d4fd"/><path d="M172.83,540.9l-.016-.058a1.208,1.208,0,0,1,.157-.033c.065-.079.116-.041.158-.009a.19.19,0,0,0,.073.042.355.355,0,0,0,.183-.2.24.24,0,0,1-.182.26.237.237,0,0,1-.11-.05c-.04-.03-.049-.039-.1.01-.082.017-.166.041-.166.041" transform="translate(-140.955 -521.187)" fill="#95d4fd"/><path d="M173.174,540.572l-.025-.038h.022c-.012-.024.021-.047.067-.086l.058-.05a.224.224,0,0,1,.156-.082c.053-.07.119-.013.158.023-.088,0-.1-.005-.133.027a.213.213,0,0,0-.139.073.437.437,0,0,1-.063.056,1.106,1.106,0,0,1-.1.076" transform="translate(-141.041 -521.094)" fill="#95d4fd"/><path d="M173.786,540.9l-.059-.01c0-.025.045-.163.067-.223.068-.048.114-.075.164-.06s.073.047.11.119a.3.3,0,0,1,.1.047.735.735,0,0,0,.122.063.127.127,0,0,1-.153-.012.722.722,0,0,0-.109-.056c-.043-.068-.068-.1-.089-.1s-.055.01-.1.039c-.008.042-.047.173-.05.2" transform="translate(-141.19 -521.177)" fill="#95d4fd"/><path d="M174.43,540.442c-.079-.136-.106-.2-.183-.22a.393.393,0,0,1-.036.129l-.073-.032a.454.454,0,0,0,.091-.14c.139.013.176.1.215.189a.219.219,0,0,0,.206-.04c-.027.109-.107.114-.22.114" transform="translate(-141.296 -521.067)" fill="#95d4fd"/><path d="M175.3,540.849a.246.246,0,0,1-.157-.07.3.3,0,0,0-.1-.069c-.045-.028-.079-.016-.133.1l-.055-.024c.032-.07.082-.162.146-.168l.077.045a.259.259,0,0,1,.106.07.406.406,0,0,0,.1.075c-.018-.042.013-.056.069-.065-.032.065-.042.07-.055.1" transform="translate(-141.481 -521.181)" fill="#95d4fd"/><path d="M172.321,540.948l-.025-.044h.022c0-.019.029-.033.072-.059a.574.574,0,0,0,.185-.207.414.414,0,0,1,.157,0,.878.878,0,0,0,.153.016.157.157,0,0,1-.162.043,1.19,1.19,0,0,0-.122-.015.371.371,0,0,1-.152.192.885.885,0,0,1-.126.073" transform="translate(-140.821 -521.184)" fill="#95d4fd"/><path d="M168.547,540.49l-.059-.006c0-.033.033-.06.146-.121.039-.043.084-.029.125-.016l.063.073a.288.288,0,0,1-.081-.016l0,0-.076.009a.416.416,0,0,0-.116.073" transform="translate(-139.838 -521.107)" fill="#95d4fd"/><path d="M168.933,540.913a.131.131,0,0,1-.066-.024.272.272,0,0,0-.09-.04.318.318,0,0,1-.08.048l-.023-.045h.022c-.007-.017.026-.033.072-.059a.275.275,0,0,1,.13.044.293.293,0,0,0,.109.047.126.126,0,0,1-.074.029" transform="translate(-139.886 -521.226)" fill="#95d4fd"/><path d="M171.472,537.99l-.03-4.31h.03Z" transform="translate(-140.601 -519.39)" fill="#fff"/><path d="M169.364,537.268v-.03h3.114Z" transform="translate(-140.064 -520.308)" fill="#fff"/><path d="M173.4,538.365l-3.491-1.981.015-.026Z" transform="translate(-140.205 -520.081)" fill="#fff"/><path d="M168.324,538.395l3.5-2.056.015.026Z" transform="translate(-139.796 -520.076)" fill="#fff"/><path d="M170.525,538.132l-.026-.015,1.317-2.279Z" transform="translate(-140.357 -519.947)" fill="#fff"/><path d="M172.07,538.277l-1.5-2.533.027-.015Z" transform="translate(-140.376 -519.919)" fill="#fff"/><path d="M171.776,537.092a.48.48,0,1,1-.481-.481.481.481,0,0,1,.481.481" transform="translate(-140.439 -520.146)" fill="#95d4fd"/><path d="M174.5,539.843l-1.616.026s.009.237.115.246a7.471,7.471,0,0,1,1.5.091c.056.108-1.3.164-1.3.164a6.253,6.253,0,0,1,1.262.082c.065.091-.659.108-.6.125s.847-.017.92.074-.358.148-.358.148.652.064.669.061c-.157-.274-.585-1.017-.585-1.017" transform="translate(-140.973 -520.981)" fill="#487ba2"/><path d="M171.124,536.823c-.052.035.122.056.106.171a1.06,1.06,0,0,1-.147.264c-.04.074.187.344.4.2a.331.331,0,0,0,.115-.461c-.17-.111-.278-.28-.473-.171" transform="translate(-140.507 -520.192)" fill="#c0003b"/><path d="M171.439,537.6a.462.462,0,0,0-.139-.136c-.052-.033-.136-.055-.16-.037,0,0,0,.027-.007.03s-.01.018-.013.011a.223.223,0,0,1,.008-.055c.036-.031.137.01.18.036s.139.105.129.151" transform="translate(-140.518 -520.351)"/><path d="M169.076,538.151c.19-.045.243.178.306.216s.226.055.268.079.208.136.208.136.073-.2.16-.216.452.234.452.234.042-.234.14-.2a5.85,5.85,0,0,1,.587.4.234.234,0,0,1,.128-.167c.1-.036.465.185.465.185s.042-.18.116-.18c.211,0,.905.754,1.059.769.071.007-.254.1-.254.1s.056.049.025.093a7.5,7.5,0,0,1-.99.006s.027.065.011.087c-.027.038-4.173.065-4.173.065a4.349,4.349,0,0,1,1.493-1.61" transform="translate(-139.605 -520.542)" fill="#5b7133"/><path d="M171.539,539.912c.146-.038.044-.441-.751-1.052,1.258.87.459.99,1.745,1.026-.231.016-.994.026-.994.026" transform="translate(-140.432 -520.727)" fill="#263732"/><path d="M171.528,538.819s1.19.919,1.238.964l.255.009a7.022,7.022,0,0,1-1.493-.973" transform="translate(-140.623 -520.716)" fill="#263732"/><path d="M172.483,539.061s1,.787.838.789a4.4,4.4,0,0,0,.671-.007c-.646-.038-.513-.064-1.508-.783" transform="translate(-140.869 -520.779)" fill="#263732"/><path d="M173.3,539.1l.885.655s.137-.039.209-.068c-.264.038-.31-.081-1.094-.587" transform="translate(-141.08 -520.789)" fill="#263732"/><path d="M169.484,538.269c.068.047.085.136.129.161a2.834,2.834,0,0,1,.678.45c.226.235.568.532.446.57s-.239-.093-.239-.093.171.278-.055.3-.781-.821-.781-.821.269.76-.073.729-.306-.573-.306-.573-.092.259-.158.254,0-.34,0-.34-.392.654-.545.581.6-1.266.9-1.212" transform="translate(-139.857 -520.574)" fill="#93c438"/><path d="M170.9,538.558c-.01-.064.049-.042.171.019a6.01,6.01,0,0,1,1.081.9c-.024.079-1.2-.556-1.252-.92" transform="translate(-140.461 -520.639)" fill="#93c438"/><path d="M171.882,538.743c-.074-.016.781.853.982.8s-.927-.785-.982-.8" transform="translate(-140.713 -520.697)" fill="#93c438"/><path d="M172.681,538.844c-.094-.009.83.827,1.032.784s-.886-.772-1.032-.784" transform="translate(-140.919 -520.723)" fill="#93c438"/><path d="M173.412,538.908c-.1.017.691.628.788.622s-.552-.664-.788-.622" transform="translate(-141.107 -520.739)" fill="#93c438"/><path d="M169.726,536.357a1.74,1.74,0,0,1,2.578,0l-.194-.342a1.7,1.7,0,0,0-2.183-.006Z" transform="translate(-140.158 -519.889)" fill="#b0008a"/><path d="M172.041,535.765a1.582,1.582,0,0,0-.973-.3,1.554,1.554,0,0,0-.97.3l-.162.275a1.716,1.716,0,0,1,2.268,0Z" transform="translate(-140.212 -519.851)" fill="#c0003b"/><path d="M171.968,535.461a1.507,1.507,0,0,0-.85-.239,1.428,1.428,0,0,0-.818.216l-.171.3a1.717,1.717,0,0,1,1.981,0Z" transform="translate(-140.262 -519.788)" fill="#f3cd2d"/><path d="M171.864,535.187l.152.263a1.526,1.526,0,0,0-.853-.233,1.506,1.506,0,0,0-.861.246l.156-.266a1.242,1.242,0,0,1,.7-.161,1.281,1.281,0,0,1,.7.151" transform="translate(-140.306 -519.74)" fill="#93c438"/><path d="M171.8,534.963l.131.223a1.742,1.742,0,0,0-.725-.158,1.619,1.619,0,0,0-.745.2l.125-.215a1.281,1.281,0,0,1,.62-.131,1.586,1.586,0,0,1,.594.085" transform="translate(-140.347 -519.699)" fill="#6091be"/><path d="M171.771,534.807l.1.181a1.618,1.618,0,0,0-1.26,0l.106-.187a1.668,1.668,0,0,1,.523-.07,1.531,1.531,0,0,1,.527.076" transform="translate(-140.387 -519.661)" fill="#2f4791"/><path d="M170.214,540.4l1.628.016s-.284.033-.277.067a3.635,3.635,0,0,0,.579.05,1.4,1.4,0,0,0-.358.058c-.009.032.162.049.162.049s-.318.032-.318.065.407.05.375.05a2.23,2.23,0,0,0-.538.049c0,.042.363.128.363.128l-2.139.038s.335-.05.335-.115-.236-.082-.236-.082a7.108,7.108,0,0,0,.911-.024c.041-.042-.182-.071-.182-.071s.346.02.371-.02-.465-.108-.465-.108.286.009.326-.04-.538-.108-.538-.108" transform="translate(-140.149 -521.124)" fill="#fff"/><path d="M169.225,540.421a12.711,12.711,0,0,0-1.742.14c-.139.091.9.182.9.182a4.883,4.883,0,0,0-1.148.107c-.082.1.636.082.636.082l-.8.057.384-.662Z" transform="translate(-139.471 -521.105)" fill="#487ba2"/><path d="M165.1,540.57a.108.108,0,0,1-.07.133.106.106,0,0,1-.131-.07.108.108,0,0,1,.068-.134.106.106,0,0,1,.132.07" transform="translate(-138.91 -521.149)" fill="#f3cd2d"/><path d="M165.221,541.751c-.063.059-.111.1-.069.19l-.035.017-.173-.367.035-.016c.033.065.054.073.085.059a.227.227,0,0,0,.055-.041l.1-.1-.125-.265-.076.007a.308.308,0,0,0-.1.022c-.052.024-.05.082-.032.131l-.035.016-.131-.277.035-.017c.073.085.134.081.234.072l.631-.055.12.129Zm.323-.558-.389.036.107.227Z" transform="translate(-138.868 -521.309)" fill="#f3cd2d"/><path d="M165.141,541.966l-.173-.366a.4.4,0,0,1,.049.019l.131.338.03-.015c-.044-.086,0-.125.058-.18l.536-.5-.12-.122-.7.062a.191.191,0,0,1-.11-.03.345.345,0,0,0,.11.019l.706-.059.125.131-.527.5c-.068.063-.106.1-.068.184l-.035.017Zm-.071-.314a.057.057,0,0,1-.043-.028.114.114,0,0,0,.043.017l.177-.142-.126-.26-.071.01a.321.321,0,0,0-.093.021c-.061.028-.038.1-.029.123l-.031-.045a.1.1,0,0,1,.056-.088.266.266,0,0,1,.083-.021l.091-.008.13.268Z" transform="translate(-138.897 -521.313)"/><path d="M165.931,542.791c-.064.047-.067.085-.019.152l-.03.023-.243-.333.03-.023c.05.068.086.075.151.027l.482-.358v0l-.749.233-.024-.033.424-.642h0l-.375.278c-.148.11-.159.132-.107.222l-.03.022-.171-.236.029-.022c.076.07.1.077.246-.033l.353-.263c.07-.05.065-.091.02-.154l.03-.022.2.272-.315.464.533-.162.193.267-.03.022c-.053-.064-.08-.08-.149-.028Z" transform="translate(-139.007 -521.441)" fill="#f3cd2d"/><path d="M165.9,542.978l-.242-.334.051.011.2.312.026-.019c-.052-.063-.047-.1.019-.152l.445-.331c.058-.044.088-.04.125-.007a.251.251,0,0,0-.054-.015l-.51.361c-.061.046-.065.079-.018.145Zm-.127-.3a.077.077,0,0,1-.053-.024.229.229,0,0,0,.053.013l.519-.366-.446.345a.127.127,0,0,1-.073.032m-.2-.157.028-.049.717-.194,0,0Zm1.005-.053a.387.387,0,0,1-.049-.01l-.152-.251-.528.165.309-.472-.03-.04.039.04-.315.47.527-.17Zm-1.085-.132-.045-.044c0-.062.033-.1.144-.178l.375-.278,0,0-.367.283c-.148.11-.156.128-.105.214m-.09-.177a.1.1,0,0,1-.059-.024c.072.016.081.027.213-.07l.353-.263c.069-.05.061-.089.019-.147l.045.048a.11.11,0,0,1-.058.108l-.354.264c-.076.056-.122.085-.16.085" transform="translate(-139.028 -521.449)"/><path d="M166.336,543.392c.061.056.1.056.152,0l.367-.415c.053-.059.05-.1-.013-.154l.024-.029.514.464-.088.209-.036-.012a.439.439,0,0,0-.12-.358c-.075-.07-.1-.044-.155.02l-.148.168.016.016c.086.077.137.1.243.035l.033.03-.22.249-.033-.03a.173.173,0,0,0-.056-.242l-.019-.018-.161.183c-.043.05-.068.088-.007.142a.474.474,0,0,0,.388.1l.013.032-.206.1-.514-.464Z" transform="translate(-139.276 -521.741)" fill="#f3cd2d"/><path d="M166.822,543.9l0,0-.514-.464a.249.249,0,0,1,.053,0l.467.456.047-.024Zm.167-.127a.2.2,0,0,0-.055,0,.459.459,0,0,1-.31-.109.12.12,0,0,1,.007-.15l.161-.183c.07.06.108.107.11.165a.251.251,0,0,0-.09-.139l-.172.164a.107.107,0,0,0-.007.134.449.449,0,0,0,.384.1Zm-.576-.325a.087.087,0,0,1-.049-.017c.062,0,.076.01.119-.039l.367-.415a.106.106,0,0,0,.036-.073.118.118,0,0,0-.048-.073l.051.04a.094.094,0,0,1,.007.033.115.115,0,0,1-.038.081l-.367.416a.112.112,0,0,1-.079.048m.838-.138a.47.47,0,0,0-.12-.2c-.072-.068-.093-.044-.147.019l-.059.068.051-.075c.057-.066.085-.091.162-.021a.381.381,0,0,1,.113.212" transform="translate(-139.275 -521.752)"/><path d="M167.883,544.382c-.006.09-.01.171.069.23l-.02.032-.239-.151a1.045,1.045,0,0,1,.01-.109l.018-.159c.02-.162-.01-.2-.05-.223l-.137.219c-.042.07-.032.105.038.151l-.019.032-.347-.22.02-.032c.07.044.107.038.149-.03l.293-.473c.042-.068.032-.105-.038-.149l.019-.032.418.263c.143.091.182.226.119.329a.224.224,0,0,1-.3.058.284.284,0,0,1,.007.128Zm-.167-.415c.16.1.24.079.306-.025s.026-.17-.076-.237c-.064-.039-.083-.017-.118.039l-.13.21Z" transform="translate(-139.507 -521.916)" fill="#f3cd2d"/><path d="M167.946,544.661l-.24-.151a.456.456,0,0,1,.006-.1l.019-.176c.02-.16-.01-.194-.048-.218l-.128.217c-.04.066-.032.1.036.143l-.062-.03a.115.115,0,0,1,.016-.119l.137-.219c.049.024.082.06.061.227l-.018.159a.852.852,0,0,0-.01.108l.231.144.018-.027c-.082-.055-.076-.139-.07-.228l.013-.139a.267.267,0,0,0-.007-.125c.145.032.242.026.3-.063.065-.105.019-.234-.117-.321l-.094-.059.1.05a.247.247,0,0,1,.121.336.23.23,0,0,1-.3.06.164.164,0,0,1,.016.108l-.015.154c-.005.085-.01.167.068.226Zm-.631-.464a.112.112,0,0,1-.045-.011.271.271,0,0,1,.045,0c.026,0,.047-.017.071-.056l.293-.472c.04-.065.031-.1-.036-.142l.063.032a.114.114,0,0,1-.018.116l-.292.472c-.026.042-.05.061-.081.061m.59-.146h0a.342.342,0,0,1-.174-.067l0-.005a.387.387,0,0,0,.172.061.15.15,0,0,0,.129-.088c.056-.09.033-.159-.075-.229l-.05-.019c-.024,0-.039.022-.06.056l-.053.085.044-.091c.022-.037.04-.062.069-.062l.056.021c.113.073.137.148.079.243a.162.162,0,0,1-.139.093" transform="translate(-139.524 -521.928)"/><path d="M168.633,544.2c.033-.074.017-.108-.058-.143l.016-.035.372.171-.014.035c-.076-.035-.112-.023-.145.05l-.227.508c-.033.074-.018.109.056.143l-.015.033-.372-.171.014-.035c.076.035.111.023.145-.049Z" transform="translate(-139.776 -522.059)" fill="#f3cd2d"/><path d="M168.614,544.981l-.372-.171.016-.005.356.164.013-.028c-.076-.03-.091-.068-.056-.144l.227-.507c.024-.051.048-.073.083-.073l.059-.008-.059.019c-.03,0-.052.019-.073.065l-.228.508c-.032.07-.019.1.054.136Zm-.347-.179.059-.018c.031,0,.052-.019.073-.065l.228-.508c.032-.07.019-.1-.055-.136l.067.021a.116.116,0,0,1,0,.119l-.228.507c-.023.05-.048.071-.083.071Z" transform="translate(-139.775 -522.073)"/><path d="M169.721,544.725h-.053a.344.344,0,0,0-.191-.306c-.165-.053-.269.146-.312.275-.084.266.012.418.134.458a.3.3,0,0,0,.283-.081l.022.03a.387.387,0,0,1-.4.113.4.4,0,0,1-.243-.514.438.438,0,0,1,.52-.329.306.306,0,0,1,.091.05.285.285,0,0,0,.067.042.191.191,0,0,0,.087,0h.015Z" transform="translate(-139.953 -522.145)" fill="#f3cd2d"/><path d="M169.312,545.238a.373.373,0,0,1-.118-.02.407.407,0,0,1-.246-.521.443.443,0,0,1,.527-.332.329.329,0,0,1,.093.05l.064.047v-.005l.085,0-.088.006-.068-.043a.325.325,0,0,0-.091-.048.431.431,0,0,0-.513.325.4.4,0,0,0,.24.508.349.349,0,0,0,.288-.029.272.272,0,0,1-.174.059m-.137-.194a.4.4,0,0,1-.018-.352c.021-.068.106-.288.263-.288a.366.366,0,0,1,.054.02h-.013c-.193,0-.272.207-.293.272a.439.439,0,0,0,.007.349" transform="translate(-139.951 -522.143)"/><path d="M170.495,545.3c.013.087.015.148.116.167l-.006.037-.4-.063.007-.038c.073.008.091,0,.1-.038a.264.264,0,0,0,0-.068l-.02-.14-.287-.047-.036.067a.277.277,0,0,0-.037.093c-.01.058.039.09.088.1l-.007.038-.3-.05.006-.038c.11-.013.142-.065.191-.154l.315-.558.173-.027Zm-.269-.585-.193.345.248.041Z" transform="translate(-140.154 -522.204)" fill="#f3cd2d"/><path d="M170.636,545.509l-.4-.064.1-.076a.046.046,0,0,1-.053.042l.346.087,0-.032c-.093-.013-.1-.069-.114-.148l-.1-.735-.166.032-.311.556a.281.281,0,0,1-.111.132.466.466,0,0,0,.1-.138l.315-.557.176-.03.108.721c.014.094.022.145.112.162Zm-.586-.143H170a.1.1,0,0,1-.043-.1.279.279,0,0,1,.039-.095l.036-.067.292.044.024.145a.6.6,0,0,1-.005.068h0l-.024-.207-.281-.042-.03.065a.261.261,0,0,0-.038.091c-.012.068.062.09.085.1" transform="translate(-140.185 -522.203)"/><path d="M172.1,544.873l-.051.018a.339.339,0,0,0-.288-.213c-.174.01-.2.235-.192.37.018.28.162.387.289.378a.3.3,0,0,0,.232-.18l.032.02a.387.387,0,0,1-.336.254.4.4,0,0,1-.411-.39.441.441,0,0,1,.366-.5.3.3,0,0,1,.1.013.253.253,0,0,0,.076.013.189.189,0,0,0,.082-.032l.013-.006Z" transform="translate(-140.584 -522.214)" fill="#f3cd2d"/><path d="M171.761,545.527a.4.4,0,0,1-.392-.4.449.449,0,0,1,.372-.5.141.141,0,0,1,.106.013l.073.012a.165.165,0,0,0,.075-.027l0,.007a.144.144,0,0,1-.076.033l-.077-.014a.3.3,0,0,0-.085-.013.438.438,0,0,0-.379.492.391.391,0,0,0,.381.385v.005l.025-.006a.344.344,0,0,0,.223-.094.3.3,0,0,1-.222.1Zm.1-.095c-.132,0-.275-.1-.293-.384-.01-.175.037-.366.2-.374h0a.292.292,0,0,1,.212.1.323.323,0,0,0-.2-.09c-.209.012-.2.306-.2.364.017.276.155.373.269.373a.294.294,0,0,0,.243-.177.6.6,0,0,1-.019.072.322.322,0,0,1-.209.116Z" transform="translate(-140.582 -522.214)"/><path d="M172.5,545.371c.079-.019.1-.05.084-.129l-.125-.542c-.017-.08-.05-.1-.131-.079l-.007-.038.671-.157.117.194-.03.024a.43.43,0,0,0-.359-.108c-.1.023-.091.056-.073.14l.051.219.023,0c.11-.027.155-.057.166-.18l.044-.01.076.326-.044.01c-.056-.108-.119-.12-.229-.094l-.023.006.053.237c.015.065.032.107.112.088a.48.48,0,0,0,.306-.262l.033.008-.035.229-.671.158Z" transform="translate(-140.828 -522.164)" fill="#f3cd2d"/><path d="M172.529,545.452l-.01-.043a.152.152,0,0,0,.081-.048.107.107,0,0,0,0-.081l-.125-.542c-.013-.059-.033-.081-.076-.081l.024-.008a.106.106,0,0,1,.063.086l.125.542a.1.1,0,0,1-.088.136l.006.027.676-.2v.043Zm.359-.134c-.08,0-.094-.042-.105-.093l-.053-.237c.176-.059.173-.027.218.02a.222.222,0,0,0-.188-.022l.035.237c.013.059.027.089.072.089a.479.479,0,0,0,.335-.263v.052a.559.559,0,0,1-.3.217h-.013m-.192-.521-.03-.082c-.019-.085-.027-.123.076-.148a.532.532,0,0,1,.249.037.6.6,0,0,0-.176-.034c-.164.03-.157.058-.138.142Z" transform="translate(-140.848 -522.2)"/><path d="M174.2,544.544l-.154-.354c-.039-.09-.07-.137-.177-.1l-.016-.036.275-.122.016.035c-.093.061-.084.105-.044.2l.255.59-.1.042-.681-.416.175.407c.051.114.073.132.193.106l.015.036-.3.13-.016-.035c.094-.061.1-.1.056-.2l-.21-.487a.236.236,0,0,0-.151-.021l-.016-.035.267-.117Z" transform="translate(-141.088 -522.036)" fill="#f3cd2d"/><path d="M173.662,545.1l-.019-.04c.095-.067.1-.1.056-.2l-.21-.487a.249.249,0,0,0-.1-.022l-.039-.027a.554.554,0,0,1,.147.042l.213.49c.042.1.039.142-.059.2l.01.025.065-.029Zm.247-.157a.121.121,0,0,0-.039,0c-.062,0-.085-.036-.122-.119l-.176-.407.689.41.091-.043-.257-.582c-.029-.065-.042-.108-.016-.149a.2.2,0,0,0,.025.145l.255.59-.1.05-.686-.417.183.4c.052.116.056.133.187.1Zm.294-.37-.611-.369-.254.114-.012-.007.267-.117.608.376-.162-.347c-.028-.066-.052-.109-.108-.109l-.035-.017.035.006c.062,0,.088.048.118.116Z" transform="translate(-141.087 -522.066)"/><path d="M175.03,543.358l.18.157-.027.033a.377.377,0,0,0-.33-.012l.367.542c.045.067.082.072.151.025l.02.032-.338.233-.02-.032c.068-.046.076-.084.032-.151l-.367-.542a.4.4,0,0,0-.108.315l-.042.014-.083-.223Z" transform="translate(-141.381 -521.888)" fill="#f3cd2d"/><path d="M175.05,544.375l-.024-.037c.068-.052.075-.087.033-.151l-.367-.542a.427.427,0,0,0-.1.312l-.028-.044a.491.491,0,0,1,.127-.275l.374.543c.047.068.038.11-.033.158l.015.023.076-.053Zm.244-.237c-.029,0-.053-.018-.08-.059l-.367-.542a.28.28,0,0,1,.259-.024.464.464,0,0,0-.252.025l.368.534c.045.067.076.07.143.024l-.042.037a.149.149,0,0,1-.029,0m-.817-.361-.018-.027.567-.4.187.157a.47.47,0,0,1-.053.005l-.134-.154-.559.392Z" transform="translate(-141.379 -521.886)"/><path d="M176.221,543.147c.085.026.162.05.237-.014l.026.027-.2.2c-.035-.008-.068-.023-.1-.035l-.148-.055c-.152-.058-.193-.036-.226,0l.178.184c.057.058.094.056.154,0l.026.027-.293.29-.026-.027c.059-.058.061-.1.006-.154l-.386-.4c-.056-.058-.094-.055-.154,0l-.026-.027.351-.348c.122-.12.259-.128.345-.041a.236.236,0,0,1-.015.306.23.23,0,0,1,.123.022Zm-.438.067c.135-.134.134-.219.047-.306s-.156-.067-.243.02c-.055.054-.036.077.009.123l.172.178Z" transform="translate(-141.593 -521.722)" fill="#f3cd2d"/><path d="M175.882,543.774l-.03-.032c.058-.063.059-.1.006-.154l-.386-.4c-.055-.056-.085-.056-.146,0l.039-.046a.1.1,0,0,1,.115.036l.386.4c.057.06.056.1-.007.16l.019.021.065-.065Zm.188-.275a.116.116,0,0,1-.079-.044l-.178-.184c.04-.055.1-.059.232-.007l.249.095,0,0,.045-.045-.04.056-.254-.091c-.129-.05-.182-.042-.22,0l.178.177c.056.057.087.057.145,0l-.037.047a.124.124,0,0,1-.038.007m-.272-.283,0,0c.139-.151.117-.229.044-.3s-.143-.07-.235.021c-.05.049-.037.068.009.116l.07.073-.079-.066c-.046-.047-.067-.074-.008-.131.1-.1.171-.1.251-.02s.08.186-.047.312m.562-.038a.471.471,0,0,1-.13-.027l-.131-.045a.274.274,0,0,0-.1-.024c0-.007.013,0,.02,0a.212.212,0,0,1,.078.017l.133.046a.233.233,0,0,0,.232-.014l-.028.039a.321.321,0,0,1-.078.012m-.339-.163a.228.228,0,0,0-.032-.237.235.235,0,0,0-.338.04l-.079.079.071-.085a.244.244,0,0,1,.352-.041.211.211,0,0,1,.024.245" transform="translate(-141.603 -521.721)"/><path d="M177.077,542.2c.082.027.137.052.2-.03l.03.021-.232.33-.03-.022c.041-.062.038-.084.01-.1a.2.2,0,0,0-.062-.027l-.134-.045-.169.239.045.064a.3.3,0,0,0,.065.075c.047.033.1,0,.128-.036l.03.024-.175.249-.03-.022a.233.233,0,0,0-.052-.242l-.355-.532.053-.168Zm-.639-.015.219.327.145-.207Z" transform="translate(-141.865 -521.531)" fill="#f3cd2d"/><path d="M176.78,542.949l-.035-.025a.238.238,0,0,0-.054-.243l-.354-.532.053-.172.688.222c.105.036.142.038.191-.028l-.026.05a.206.206,0,0,1-.155-.007l-.694-.231-.047.165.354.528a.235.235,0,0,1,.053.246l.021.016.039-.055Zm.058-.225a.227.227,0,0,1-.111-.092l-.046-.064.171-.245.139.043a.406.406,0,0,1,.056.036l-.194-.071-.163.237.045.059a.329.329,0,0,0,.064.073.108.108,0,0,0,.12-.036l-.019.041a.142.142,0,0,1-.062.019m-.177-.2-.237-.341.378.125Z" transform="translate(-141.864 -521.531)"/><path d="M177.373,541.908c.036-.076.026-.111-.045-.148l-.493-.248c-.072-.036-.107-.021-.143.053l-.035-.017.183-.371.033.017c-.036.076-.026.111.045.148l.494.248c.061.03.088.044.125-.033a.484.484,0,0,0-.019-.4l.022-.02.172.165-.306.624Z" transform="translate(-141.946 -521.314)" fill="#f3cd2d"/><path d="M177.423,541.941l-.039-.019c.033-.081.023-.114-.045-.148l-.493-.248c-.088-.017-.112,0-.136.051l.022-.06a.09.09,0,0,1,.054-.02l.558.267c.073.037.085.076.047.155l.024.012.306-.624-.03-.029.039.028Zm.069-.312-.562-.272c-.049-.025-.071-.051-.068-.089a.121.121,0,0,0,.073.079l.494.248c.084.025.1.009.116-.03a.467.467,0,0,0-.019-.4l.036.024a.52.52,0,0,1-.007.378c-.019.043-.038.061-.063.061" transform="translate(-141.96 -521.322)"/><path d="M177.733,540.572a.1.1,0,0,1,.132-.068.106.106,0,0,1-.064.2.108.108,0,0,1-.068-.133" transform="translate(-142.223 -521.15)" fill="#f3cd2d"/><path d="M177.832,540.715l-.033-.005a.112.112,0,0,1,.033-.217c.092.024.124.086.105.145a.109.109,0,0,1-.105.078" transform="translate(-142.221 -521.148)"/><path d="M164.962,539.125c.07-.055.134-.1.125-.2l.038-.006.044.283a.718.718,0,0,1-.087.063l-.131.091c-.137.091-.141.137-.134.185l.252-.039c.079-.013.1-.045.087-.128l.038-.006.062.409-.036.006c-.013-.083-.042-.106-.122-.094l-.543.087c-.08.012-.1.045-.088.126l-.037.006-.076-.49c-.026-.17.048-.289.167-.307s.2.082.237.188a.25.25,0,0,1,.09-.088Zm-.2.4c-.029-.188-.1-.234-.219-.216s-.145.09-.126.213c.012.074.041.074.106.064l.242-.039Z" transform="translate(-138.77 -520.741)" fill="#f3cd2d"/><path d="M164.424,539.906l-.075-.49c-.026-.167.043-.292.171-.313s.217.119.243.191c.008-.039.044-.064.078-.088l.115-.084c.071-.056.132-.1.124-.2l.019.058a.391.391,0,0,1-.137.15l-.112.082a.243.243,0,0,0-.088.086c-.036-.07-.095-.188-.214-.188-.15.022-.215.142-.191.3l.075.484.032,0a.1.1,0,0,1,.007-.089.112.112,0,0,1,.081-.037l.543-.087a.1.1,0,0,1,.108.036.1.1,0,0,0-.073-.028l-.577.089a.1.1,0,0,0-.073.033.112.112,0,0,0-.009.088Zm.075-.314c-.067,0-.082-.02-.089-.068a.216.216,0,0,1,.022-.163.157.157,0,0,1,.109-.056l.046,0c.1,0,.154.068.179.225h-.007c-.03-.155-.08-.215-.172-.215v-.005l-.045.008a.144.144,0,0,0-.1.053.205.205,0,0,0-.021.155c.009.053.026.064.056.064l.154-.024-.108.029H164.5m.318-.048c-.014-.053-.009-.1.13-.2l.13-.09a.727.727,0,0,0,.087-.063l-.007-.047.016.05a.356.356,0,0,1-.066.053l-.154.105c-.133.089-.138.135-.131.18l.246-.043c.076-.013.095-.042.082-.122l.019.068a.11.11,0,0,1-.1.064Z" transform="translate(-138.769 -520.743)"/><path d="M165.074,538.584c0-.084-.022-.113-.1-.116l-.55-.022c-.079,0-.105.025-.108.109h-.038l.026-.7.216-.065.015.036a.444.444,0,0,0-.2.323c0,.1.03.1.114.108l.223.008v-.023c0-.116-.013-.167-.128-.211v-.045l.33.013v.044c-.117.028-.145.086-.149.2v.024l.24.01c.067,0,.112,0,.115-.085a.489.489,0,0,0-.17-.368l.018-.03.208.094-.026.7Z" transform="translate(-138.751 -520.451)" fill="#f3cd2d"/><path d="M165.132,538.6l-.043,0c0-.088-.024-.114-.1-.116l-.55-.021a.1.1,0,0,0-.1.1l0-.074a.1.1,0,0,1,.095-.041l.562.022c.082,0,.11.033.107.122h.027l.026-.7-.033-.014.041.009ZM165,538.3l-.257-.01a.241.241,0,0,1,.055-.191.258.258,0,0,0-.047.16l.234.029h0c.075,0,.1-.013.107-.08a.5.5,0,0,0-.168-.364l.046.012a.571.571,0,0,1,.132.352c0,.085-.05.091-.1.091m-.533-.02c-.084,0-.122,0-.119-.113a.391.391,0,0,1,.091-.225.482.482,0,0,0-.079.225c0,.1.025.1.109.1l.087,0Z" transform="translate(-138.765 -520.464)"/><path d="M164.857,537.066l.236.053c.076.017.108,0,.126-.085l.036.007-.088.4-.038-.008c.019-.082,0-.115-.079-.132l-.537-.122c-.077-.018-.109,0-.126.085l-.036-.007.088-.405c.056-.254.183-.326.293-.3.206.047.181.252.146.413Zm-.044-.009.015-.067c.03-.134-.006-.208-.137-.239a.158.158,0,0,0-.213.133c-.021.091.014.1.091.117Z" transform="translate(-138.77 -520.131)" fill="#f3cd2d"/><path d="M165.185,537.451l-.043-.01a.148.148,0,0,0-.007-.094.107.107,0,0,0-.071-.039l-.537-.122c-.087,0-.106.019-.119.082l.006-.065a.092.092,0,0,1,.072-.032l.581.128a.111.111,0,0,1,.079.042.128.128,0,0,1,0,.1l.027.006.02-.091Zm-.036-.322h0l-.28-.059.017-.1c.039-.176.051-.363-.142-.406-.155-.005-.243.1-.286.3l-.02.092.009-.095c.044-.2.137-.309.257-.309.246.05.233.243.194.424l-.022.1.231.047c.086,0,.106-.018.119-.082l-.007.066a.092.092,0,0,1-.071.032m-.567-.123c-.076-.016-.117-.026-.1-.124a.159.159,0,0,1,.16-.144l.059.007c.131.03.172.1.14.246h-.009c.02-.153-.022-.209-.134-.235l-.057-.007a.147.147,0,0,0-.149.136c-.02.086.011.094.087.111l.037.008Z" transform="translate(-138.785 -520.129)"/><path d="M165.216,536.035c.191.082.271.044.319-.071.062-.155-.013-.242-.167-.307L165,535.5c-.074-.03-.108-.014-.139.062l-.036-.013.107-.264.035.015c-.032.076-.019.113.055.143l.38.158a.269.269,0,0,1,.164.406c-.085.213-.223.28-.387.211l-.4-.167c-.073-.03-.107-.013-.139.064l-.035-.014.155-.383.035.015c-.03.076-.019.113.055.143Z" transform="translate(-138.834 -519.805)" fill="#f3cd2d"/><path d="M165.307,536.272a.3.3,0,0,1-.119-.026l-.4-.166c-.088-.014-.109.007-.131.061l.017-.062a.088.088,0,0,1,.059-.024l.462.181c.164.068.3-.006.38-.209a.318.318,0,0,0,.019-.249.309.309,0,0,0-.18-.15l-.38-.158a.112.112,0,0,1-.069-.056.082.082,0,0,1,0-.054c.007.023.007.038.012.05a.107.107,0,0,0,.064.05l.38.158a.315.315,0,0,1,.185.156.328.328,0,0,1-.019.257c-.063.157-.158.24-.275.24m.092-.17h0a.452.452,0,0,1-.171-.044l-.372-.154c-.05-.021-.074-.044-.074-.082a.121.121,0,0,0,.079.073l.372.154a.427.427,0,0,0,.166.043.15.15,0,0,0,.145-.111c.056-.138.007-.228-.164-.3l-.371-.152c-.09-.014-.111.006-.132.059l.013-.058a.1.1,0,0,1,.062-.027l.433.168c.174.075.227.171.169.315a.159.159,0,0,1-.155.118" transform="translate(-138.848 -519.824)"/><path d="M165.813,535.424l-.032-.021c.044-.069.038-.108-.03-.152l-.464-.3c-.068-.044-.1-.032-.149.038l-.032-.021.223-.353c.157-.249.266-.255.352-.2s.081.2.045.293l0,0c.088-.1.2-.181.329-.1.114.072.135.2.016.394Zm-.206-.567c.076-.123.071-.2-.029-.268s-.171-.027-.231.066a.135.135,0,0,0-.024.082.094.094,0,0,0,.045.045l.2.131Zm.213.214c.084.053.119.079.183-.022a.18.18,0,0,0-.067-.275c-.085-.056-.171-.068-.284.11l-.034.056Z" transform="translate(-138.965 -519.573)" fill="#f3cd2d"/><path d="M165.828,535.428l-.036-.023c.041-.076.033-.111-.031-.152l-.464-.3c-.092-.024-.114-.007-.141.036l.026-.056a.112.112,0,0,1,.05-.016l.07.027.464.3c.07.044.078.086.033.16l.022.015.261-.416c.111-.176.105-.31-.014-.387s-.245.012-.323.1v-.007a.249.249,0,0,1,.326-.1c.124.079.131.222.018.4Zm.105-.306a.209.209,0,0,1-.1-.044l-.209-.135c.146-.248.2-.252.324-.175a.186.186,0,0,1,.069.283c-.032.05-.058.071-.088.071m-.085-.381c-.059,0-.116.045-.178.144l.166.18c.092.057.117.07.175-.02a.176.176,0,0,0-.065-.269.183.183,0,0,0-.1-.035m-.223.116-.008,0c.073-.141.057-.208-.028-.264s-.157-.038-.223.065a.243.243,0,0,0-.023.05.087.087,0,0,1,.013-.056c.07-.109.144-.128.238-.068s.111.147.03.275m-.328-.162.041-.085c.132-.211.244-.276.36-.2s.076.214.051.286c.015-.075.045-.211-.057-.277s-.217-.007-.345.2Z" transform="translate(-138.978 -519.571)"/><path d="M166.434,534.49c.055-.061.056-.1,0-.154l-.409-.375c-.059-.053-.1-.049-.152.013l-.027-.026.274-.308.027.027c-.055.061-.055.1,0,.155l.409.374c.049.046.073.065.129,0a.48.48,0,0,0,.088-.391l.029-.013.12.207-.462.516Z" transform="translate(-139.156 -519.38)" fill="#f3cd2d"/><path d="M166.473,534.552l-.031-.03a.15.15,0,0,0,.039-.085.1.1,0,0,0-.042-.068l-.409-.375c-.059-.053-.089-.05-.145.013l.035-.05c.045-.018.071-.012.117.028l.409.375a.116.116,0,0,1,.046.076.124.124,0,0,1-.043.086l.019.019.462-.516-.02-.034.029.035Zm.162-.28c-.022,0-.042-.016-.07-.044l-.409-.372c-.041-.039-.055-.07-.042-.106a.123.123,0,0,0,.05.1l.409.374c.027.026.045.041.063.041a.438.438,0,0,0,.145-.426l.03.036a.522.522,0,0,1-.108.358c-.027.03-.047.043-.066.043" transform="translate(-139.166 -519.408)"/><path d="M166.842,533.133c-.05-.062-.088-.064-.152-.01l-.024-.03.315-.263.024.029c-.064.053-.07.091-.018.154l.351.429c.052.062.09.062.154.01l.023.029-.315.263-.023-.029c.062-.053.068-.091.018-.154Z" transform="translate(-139.368 -519.17)" fill="#f3cd2d"/><path d="M167.208,533.778l-.027-.033c.062-.06.066-.094.018-.154l-.352-.427c-.05-.063-.081-.065-.144-.01l.039-.043c.047-.011.073,0,.114.045l.352.427c.053.065.047.105-.018.162l.016.02.071-.059Zm.214-.258a.109.109,0,0,1-.08-.05l-.351-.43c-.035-.042-.045-.075-.028-.108a.122.122,0,0,0,.037.1l.351.429c.049.06.079.063.145.01l-.039.042a.17.17,0,0,1-.035.006" transform="translate(-139.377 -519.197)"/><path d="M168.021,532.39l-.035.042a.335.335,0,0,0-.355-.047c-.147.094-.061.3.01.418.148.236.326.259.433.189a.305.305,0,0,0,.119-.271h.038a.4.4,0,0,1-.174.387.391.391,0,0,1-.546-.141.445.445,0,0,1,.084-.614.331.331,0,0,1,.1-.039.241.241,0,0,0,.073-.026.19.19,0,0,0,.056-.067l.007-.011Z" transform="translate(-139.564 -519.011)" fill="#f3cd2d"/><path d="M167.855,533.18a.421.421,0,0,1-.35-.2.454.454,0,0,1,.086-.622.316.316,0,0,1,.1-.04l.072-.025a.2.2,0,0,0,.053-.061l0,0a.15.15,0,0,1-.051.066l-.075.027a.318.318,0,0,0-.094.039.442.442,0,0,0-.082.607.4.4,0,0,0,.539.139.349.349,0,0,0,.151-.2.3.3,0,0,1-.145.2.377.377,0,0,1-.2.062m.1-.143c-.066,0-.2-.03-.32-.227-.092-.148-.143-.338-.008-.424a.312.312,0,0,1,.28,0,.39.39,0,0,0-.275.008c-.165.106-.019.36.013.41.2.317.341.243.425.188a.3.3,0,0,0,.116-.266.574.574,0,0,1,.017.073.326.326,0,0,1-.128.2.222.222,0,0,1-.121.036" transform="translate(-139.563 -519.016)"/><path d="M169.252,532.339c.055.067.087.12.184.082l.014.036-.372.152-.014-.035c.067-.03.078-.051.065-.083a.324.324,0,0,0-.038-.058l-.09-.11-.269.111,0,.077a.319.319,0,0,0,.015.1c.022.055.079.056.128.039l.014.036-.282.116-.013-.036c.087-.068.087-.131.084-.232l-.017-.64.134-.114Zm-.532-.359.013.4.231-.1Z" transform="translate(-139.866 -518.899)" fill="#f3cd2d"/><path d="M168.6,532.807l-.015-.042a.236.236,0,0,0,.083-.234l-.017-.64.135-.119.463.561c.049.06.075.092.122.092l.039.02a.21.21,0,0,1-.157-.09l-.467-.576-.125.116.019.636a.233.233,0,0,1-.086.236l.008.027.282-.116c-.092-.016-.128-.024-.145-.068a.313.313,0,0,1-.015-.1l0-.079.272-.117.1.111a.286.286,0,0,1,.028.064l-.126-.166-.263.113.007.072a.342.342,0,0,0,.014.1.071.071,0,0,0,.071.045h0l.067.031Zm.128-.428-.021-.417.254.312Z" transform="translate(-139.864 -518.898)"/><path d="M170.167,532.232c.083-.01.108-.038.1-.119l-.061-.553c-.009-.08-.039-.1-.122-.093l0-.038.4-.045a.559.559,0,0,1,.2.008.412.412,0,0,1,.3.371.406.406,0,0,1-.206.409.49.49,0,0,1-.2.052l-.4.045Zm.284-.152c.009.087.012.111.111.1.142-.016.24-.108.2-.424-.032-.282-.145-.343-.3-.326-.088.01-.084.044-.076.116Z" transform="translate(-140.249 -518.796)" fill="#f3cd2d"/><path d="M170.18,532.273l-.005-.043c.086-.016.107-.042.1-.119l-.061-.553c-.007-.067-.029-.091-.084-.091l.037-.009a.109.109,0,0,1,.057.1l.061.553c.009.082-.017.114-.1.125l0,.033v-.005l.4-.045a.485.485,0,0,0,.194-.052.4.4,0,0,0,.2-.4.4.4,0,0,0-.293-.367.555.555,0,0,0-.2-.009l-.079.01.077-.019a.53.53,0,0,1,.2.008.418.418,0,0,1,.3.375.414.414,0,0,1-.209.415.5.5,0,0,1-.2.052Zm.385-.091c-.1,0-.1-.033-.106-.1l-.059-.533c-.007-.073-.011-.111.082-.122l.046,0c.153,0,.232.1.258.333.03.278-.034.41-.209.43h-.011m-.038-.758-.045.008c-.082.009-.079.036-.072.108l.059.536c.007.073.01.1.068.1.151-.016.276-.074.237-.42-.025-.223-.1-.323-.247-.323Z" transform="translate(-140.262 -518.794)"/><path d="M171.355,532.125c.082.006.113-.019.117-.1l.038-.556c0-.081-.022-.107-.1-.113l0-.038.687.047.058.22-.036.013a.43.43,0,0,0-.313-.208c-.1-.006-.1.027-.108.113l-.015.225.022,0c.114.007.165-.009.211-.123l.045,0-.022.333-.045,0c-.024-.119-.08-.149-.191-.157l-.024,0-.016.243c0,.067,0,.112.08.117a.481.481,0,0,0,.369-.16l.03.017-.1.208-.688-.046Z" transform="translate(-140.577 -518.781)" fill="#f3cd2d"/><path d="M172.044,532.229h0l-.688-.046a.475.475,0,0,0,.056-.033l.63.069.023-.047Zm-.277-.065c-.113-.007-.116-.056-.112-.124l.016-.243c.091,0,.15.015.186.059a.25.25,0,0,0-.157-.053l-.035.237c0,.066,0,.107.075.113h0a.492.492,0,0,0,.361-.16l-.013.049a.579.579,0,0,1-.326.122m-.348-.024a.119.119,0,0,0,.048-.1l.037-.557c0-.076-.018-.1-.1-.107h.074a.116.116,0,0,1,.036.108l-.038.557c0,.056-.02.088-.059.1m.28-.585-.009-.037c.006-.08.008-.119.093-.119a.4.4,0,0,1,.236.1.469.469,0,0,0-.215-.085h0c-.093,0-.1.03-.1.106Z" transform="translate(-140.577 -518.796)"/><path d="M173.56,532.305l.122-.365c.032-.094.041-.149-.064-.2l.012-.036.286.1-.013.036c-.109-.017-.132.02-.164.117l-.2.61-.1-.033-.228-.772-.14.421c-.039.119-.035.146.071.208l-.012.036-.306-.1.011-.036c.109.019.139-.007.173-.108l.168-.5a.224.224,0,0,0-.1-.117l.013-.036.275.094Z" transform="translate(-140.957 -518.834)" fill="#f3cd2d"/><path d="M173.538,532.59l-.1-.036-.231-.775-.131.421c-.038.115-.036.14.069.2l-.062-.011c-.054-.059-.049-.1-.018-.194l.141-.421.237.772.09.028.2-.605c.023-.07.042-.116.1-.125a.187.187,0,0,0-.094.128Zm-.522-.21-.2-.036v0l.068-.037c.058,0,.083-.025.111-.109l.168-.5a.233.233,0,0,0-.1-.111l.045.008a.387.387,0,0,1,.061.1l-.168.507c-.026.079-.051.117-.122.117Zm.548-.059-.206-.687-.047-.015.053.008.2.691.111-.365c.033-.1.038-.145-.061-.189l.063.011c.045.055.033.108.008.181Z" transform="translate(-140.956 -518.848)"/><path d="M174.327,532.161c.036-.073.022-.108-.05-.145l.016-.035.365.187-.016.033c-.074-.038-.111-.027-.146.045l-.248.5c-.036.073-.022.109.052.146l-.018.033-.365-.185.018-.035c.072.038.11.028.145-.043Z" transform="translate(-141.239 -518.951)" fill="#f3cd2d"/><path d="M174.279,532.942l-.365-.185.053-.015.313.187.015-.027c-.076-.033-.09-.073-.053-.146l.248-.5c.024-.049.049-.07.082-.07l.02.006-.02.005c-.029,0-.05.018-.073.063l-.248.5c-.034.069-.022.1.05.139Zm-.277-.2-.019-.006.019-.005c.029,0,.05-.018.072-.062l.248-.5c.034-.068.022-.1-.049-.137l.065.023a.112.112,0,0,1-.007.119l-.248.5c-.022.047-.047.068-.081.068" transform="translate(-141.239 -518.965)"/><path d="M175.434,532.975l-.052-.016a.346.346,0,0,0-.1-.348c-.143-.1-.3.064-.374.177-.155.231-.106.4,0,.477a.305.305,0,0,0,.295,0l.011.034a.384.384,0,0,1-.418-.007.4.4,0,0,1-.091-.562.436.436,0,0,1,.59-.168.356.356,0,0,1,.075.074.289.289,0,0,0,.052.058.2.2,0,0,0,.085.026l.013,0Z" transform="translate(-141.423 -519.087)" fill="#f3cd2d"/><path d="M174.995,533.367a.351.351,0,0,1-.2-.067.406.406,0,0,1-.093-.569.449.449,0,0,1,.6-.17.328.328,0,0,1,.074.073l.053.059a.193.193,0,0,0,.08.024v.006c-.019-.014-.062-.005-.085-.022l-.049-.062,0,0a.3.3,0,0,0-.073-.073.44.44,0,0,0-.582.167.4.4,0,0,0,.09.555.358.358,0,0,0,.326.043.245.245,0,0,1-.127.032m.04-.056a.223.223,0,0,1-.132-.042c-.111-.076-.155-.255,0-.484.087-.133.254-.266.381-.178a.281.281,0,0,1,.109.22.321.321,0,0,0-.115-.211c-.122-.084-.282.046-.366.176-.151.223-.109.4,0,.47a.325.325,0,0,0,.289,0,.265.265,0,0,1-.03.033c-.044,0-.088.014-.134.014" transform="translate(-141.421 -519.086)"/><path d="M175.9,534.078c-.041.079-.074.129,0,.2l-.026.027-.287-.283.026-.027c.053.049.076.05.1.026a.2.2,0,0,0,.036-.058l.065-.126-.208-.206-.068.035a.3.3,0,0,0-.082.053c-.042.042-.02.1.015.134l-.028.027-.217-.214.026-.028a.227.227,0,0,0,.245-.015l.573-.274.157.079Zm.111-.636-.354.17.18.177Z" transform="translate(-141.578 -519.306)" fill="#f3cd2d"/><path d="M175.894,534.311l-.287-.282a.311.311,0,0,1,.049,0l.242.273.022-.024c-.071-.065-.044-.116-.006-.188l.332-.658-.154-.073-.57.274a.248.248,0,0,1-.212.032.278.278,0,0,1,.068,0,.349.349,0,0,0,.14-.044l.574-.274.161.079-.322.652c-.044.084-.068.13,0,.2l-.027.028h0Zm-.187-.266a.074.074,0,0,1-.042-.017c.022,0,.033.006.042.006l.127-.2-.208-.2-.062.036a.3.3,0,0,0-.082.052c-.049.05,0,.109.015.126l-.044-.031a.1.1,0,0,1,.022-.1.245.245,0,0,1,.075-.05l.077-.04.215.208Z" transform="translate(-141.599 -519.304)"/><path d="M176.676,534.981c-.04.079-.076.152-.027.237l-.03.021-.16-.234a.876.876,0,0,1,.051-.1l.079-.138c.084-.14.068-.186.042-.226l-.211.146c-.067.046-.071.084-.025.154l-.03.02-.23-.341.03-.021c.046.068.082.078.149.032l.455-.315c.065-.045.071-.084.024-.152l.032-.021.277.41c.1.142.079.281-.021.349a.224.224,0,0,1-.294-.067.26.26,0,0,1-.044.12Zm.012-.448c.106.157.19.17.29.1s.091-.145.022-.246c-.042-.062-.068-.05-.122-.012l-.2.139Z" transform="translate(-141.811 -519.484)" fill="#f3cd2d"/><path d="M176.634,535.251l-.16-.234a.358.358,0,0,1,.036-.078l.093-.162c.082-.137.068-.181.042-.22l-.2.148c-.063.044-.069.078-.024.146l-.045-.053a.115.115,0,0,1,.062-.1l.212-.146c.035.044.05.091-.034.233l-.08.138a.8.8,0,0,0-.05.1l.156.225.026-.019c-.053-.082-.014-.156.026-.235l.067-.122a.259.259,0,0,0,.043-.118c.112.094.214.122.3.062.1-.069.11-.207.019-.341l-.061-.091.07.085c.094.14.085.283-.022.356-.087.061-.2.035-.3-.068a.154.154,0,0,1-.027.105l-.074.137c-.039.076-.076.148-.027.231Zm.257-.565c-.062,0-.122-.045-.188-.142l0,0c.114.149.181.168.286.1.087-.06.093-.134.021-.239l-.052-.047-.142.091.145-.1.058.046c.076.11.068.191-.023.254a.2.2,0,0,1-.11.041m-.626-.11a.078.078,0,0,1-.054-.025.178.178,0,0,0,.054.014l.521-.342c.032-.021.048-.041.051-.062a.111.111,0,0,0-.029-.082l.04.049a.114.114,0,0,1,0,.036.111.111,0,0,1-.056.069l-.455.315a.133.133,0,0,1-.073.03" transform="translate(-141.831 -519.493)"/><path d="M177.266,536.342c-.066.055-.117.088-.081.185l-.035.014-.152-.375.035-.014c.03.067.05.076.082.064a.189.189,0,0,0,.056-.038l.11-.09-.11-.272-.077,0a.35.35,0,0,0-.1.016c-.053.022-.055.079-.039.129l-.034.014-.116-.285.035-.015a.227.227,0,0,0,.231.085l.633-.019.113.135Zm.354-.539-.391.013.094.234Z" transform="translate(-141.985 -519.906)" fill="#f3cd2d"/><path d="M177.178,536.565l-.152-.375a.49.49,0,0,1,.047.022l.114.344.03-.013c-.039-.088.006-.125.068-.174l.564-.473-.114-.127-.629.021a.315.315,0,0,1-.175-.032.36.36,0,0,0,.132.022l.677-.02.117.137-.553.47c-.073.059-.113.092-.08.179Zm-.051-.318a.054.054,0,0,1-.044-.03.106.106,0,0,0,.044.018l.183-.131-.112-.266-.071.007a.348.348,0,0,0-.095.015c-.062.026-.044.1-.036.123l-.028-.047a.1.1,0,0,1,.06-.085.284.284,0,0,1,.085-.016l.091,0,.115.277Z" transform="translate(-142.017 -519.927)"/><path d="M178.026,537.413l-.022-.035c.114-.131.174-.214.152-.318s-.145-.2-.43-.142-.368.165-.344.292.119.125.223.1.1-.044.084-.133l.043-.009.077.384-.044.009c-.029-.09-.056-.1-.142-.078l-.165.034a.42.42,0,0,0-.056-.152.531.531,0,0,1-.067-.165.383.383,0,0,1,.322-.477.444.444,0,0,1,.54.316.321.321,0,0,1,0,.091.224.224,0,0,0,0,.073.213.213,0,0,0,.051.088Z" transform="translate(-142.119 -520.174)" fill="#f3cd2d"/><path d="M177.761,537.565c-.02-.063-.039-.082-.078-.082l-.223.042a.516.516,0,0,0-.057-.145.565.565,0,0,1-.072-.177.4.4,0,0,1,.05-.311.413.413,0,0,1,.275-.171.445.445,0,0,1,.547.32.3.3,0,0,1,0,.084l0,.08a.213.213,0,0,0,.05.085l-.225.126.028-.055.19-.073a.145.145,0,0,1-.053-.082l0-.074a.319.319,0,0,0,0-.089.438.438,0,0,0-.534-.312.408.408,0,0,0-.268.168.393.393,0,0,0-.05.3.518.518,0,0,0,.066.163.436.436,0,0,1,.057.154l.159-.039c.1-.011.126.015.147.077l.039-.007-.007-.036.014.041Zm-.242-.237a.13.13,0,0,1-.142-.119c-.028-.145.089-.245.348-.3.32-.067.424.086.437.147a.244.244,0,0,1-.047.186.276.276,0,0,0,.036-.184c-.012-.059-.111-.2-.424-.139-.252.05-.367.147-.339.286.02.1.1.122.217.1.09-.019.091-.042.079-.128l.024.069c-.014.037-.037.056-.1.068a.411.411,0,0,1-.088.01" transform="translate(-142.117 -520.172)"/><path d="M177.767,538.16c-.206,0-.265.07-.263.194,0,.166.105.217.272.214l.4-.009c.079,0,.1-.03.1-.114h.038l.006.284-.038,0c0-.085-.027-.112-.107-.111l-.41.007c-.2,0-.306-.082-.31-.307s.1-.346.274-.349l.433-.009c.08,0,.1-.032.1-.114h.038l.008.413h-.038c0-.084-.027-.112-.107-.11Z" transform="translate(-142.153 -520.466)" fill="#f3cd2d"/><path d="M178.278,538.731c0-.079-.025-.105-.1-.105l-.415.008h0c-.215,0-.311-.1-.315-.313a.381.381,0,0,1,.085-.279.265.265,0,0,1,.2-.076l.433-.009c.075,0,.1-.027.1-.109l.01.07a.113.113,0,0,1-.107.051l-.433.008a.254.254,0,0,0-.188.072.371.371,0,0,0-.081.271c0,.208.093.3.291.3l.424-.007c.082,0,.11.029.113.11h.032v-.03l.007.036-.038,0Zm-.505-.157c-.192,0-.274-.068-.277-.22a.18.18,0,0,1,.045-.136.311.311,0,0,1,.225-.063l.4-.007c.055,0,.085.013.1.047a.114.114,0,0,0-.094-.036l-.409.008a.3.3,0,0,0-.217.059.169.169,0,0,0-.041.129c0,.145.082.209.254.209l.415-.009c.076,0,.1-.027.1-.109l.012.065a.11.11,0,0,1-.109.055Z" transform="translate(-142.151 -520.466)"/><path d="M177.512,539.754c-.085.012-.147.015-.165.116l-.038-.005.065-.4.036.005c-.009.074,0,.093.036.1a.266.266,0,0,0,.068,0l.139-.019.048-.292-.068-.037a.341.341,0,0,0-.09-.038c-.058-.01-.088.039-.1.088l-.038-.006.05-.3.036.006c.013.11.065.143.152.192l.551.321.026.174Zm.579-.272-.341-.194-.041.249Z" transform="translate(-142.115 -520.753)" fill="#f3cd2d"/><path d="M177.351,539.908l-.042-.007.06-.406.026.052-.08.349.032.005h-.005c.019-.1.077-.108.157-.119l.721-.1-.03-.168-.548-.317a.289.289,0,0,1-.132-.113.468.468,0,0,0,.137.1l.551.32.029.177-.714.108c-.091.013-.143.019-.16.111Zm.165-.306a.25.25,0,0,1-.067-.008l.2-.021.043-.287-.065-.032a.353.353,0,0,0-.088-.038.113.113,0,0,0-.093.085v-.049a.1.1,0,0,1,.079-.047.3.3,0,0,1,.1.037l.072.039-.045.3Z" transform="translate(-142.115 -520.784)"/></g></g></g></svg>