<svg xmlns="http://www.w3.org/2000/svg" xmlns:xlink="http://www.w3.org/1999/xlink" width="36" height="36" viewBox="0 0 36 36"><defs><clipPath id="a"><circle cx="18" cy="18" r="18" transform="translate(1072 480)" fill="#fff" stroke="#707070" stroke-width="1"/></clipPath><clipPath id="b"><rect width="61.713" height="36" fill="none"/></clipPath></defs><g transform="translate(-1072 -480)" clip-path="url(#a)"><g transform="translate(629.748 280.753)"><g transform="translate(429.252 199.247)" clip-path="url(#b)"><rect width="61.713" height="35.999" transform="translate(0 0.001)" fill="#c0001a"/><path d="M481.708,235.246h9.257l-30.856-18Zm-52.456-36,30.857,18-21.6-18Z" transform="translate(-429.252 -199.247)" fill="#f8e72a"/><path d="M466.684,235.246h6.171l-3.085-18Zm0-36,3.086,18,3.085-18Z" transform="translate(-438.913 -199.247)" fill="#f8e72a"/><path d="M429.252,235.246h9.256l21.6-18Zm52.456-36-21.6,18,30.856-18Z" transform="translate(-429.252 -199.247)" fill="#f8e72a"/><path d="M429.252,225.858l30.857-3.6-30.857-3.6Zm30.857-3.6,30.856,3.6v-7.2Z" transform="translate(-429.252 -204.257)" fill="#f8e72a"/><path d="M468.607,214.845a6.429,6.429,0,1,1-6.429,6.428,6.428,6.428,0,0,1,6.429-6.428" transform="translate(-437.75 -203.273)" fill="#c0001a"/><path d="M469.054,216.577a5.142,5.142,0,1,1-5.144,5.143,5.143,5.143,0,0,1,5.144-5.143" transform="translate(-438.197 -203.72)" fill="#f8e72a"/></g></g></g></svg>