<svg xmlns="http://www.w3.org/2000/svg" xmlns:xlink="http://www.w3.org/1999/xlink" width="36" height="36" viewBox="0 0 36 36"><defs><clipPath id="a"><circle cx="18" cy="18" r="18" transform="translate(2537 326)" fill="#fff" stroke="#707070" stroke-width="1"/></clipPath><clipPath id="b"><rect width="61.714" height="36" fill="none"/></clipPath></defs><g transform="translate(-2537 -326)" clip-path="url(#a)"><g transform="translate(2204.542 -109.625)"><g transform="translate(329.458 435.625)" clip-path="url(#b)"><rect width="61.714" height="35.999" transform="translate(0 0.001)" fill="#d6003f"/><path d="M345.124,464.883a1.513,1.513,0,0,0-1.213,1.388l3.831-.015a1.509,1.509,0,0,0-1.236-1.4c3.75-.078,7.009-1.482,7.6-2.384-.587-.254-1.263.155-1.746.061,1.146-.53,4.582-2.753,4.023-5.138a5.563,5.563,0,0,1-2.31,2.714c1.284-1.948,3.037-3.978,1.516-5.549a2.371,2.371,0,0,1-.867,1.988c.744-2.06,1.454-4.644-.158-6.349.211.616.126,2.354-.165,2.432-.09-1.4-.329-4.345-1.8-4.3a4.159,4.159,0,0,1,.684,2.7,4.178,4.178,0,0,0-1.534-1.961,8.6,8.6,0,0,0-3.013-3.07,3.226,3.226,0,0,0,1.529,2.607c-.671-.042-1.342-1.315-2.061-1.35-.571-.027-1.019.517-1.951.2.1.308.539.444.63.672-.2.137-.674-.022-1.068-.227a2.242,2.242,0,0,0,2.1,1.027,3.758,3.758,0,0,1,2.626.417,4.609,4.609,0,0,1-1.637.044,2.056,2.056,0,0,0,1.715.841c.781-.005,1.191-.417,1.393-.162a13.3,13.3,0,0,1,1.231,1.845c-.906.1-.634-1.024-1.642-1.6-.567,1.173.652,2.564,1.481,3.143a4.659,4.659,0,0,0,.514,2.29,2.9,2.9,0,0,1,.455,2.026,3.008,3.008,0,0,1-.8-2.551c-.621.17-.865,1.263-.572,1.813a1.879,1.879,0,0,1,.113,1.579c-.246.333-.272.3-.268,1.013a1.811,1.811,0,0,1-.622,1.289,2.6,2.6,0,0,0,.084-1.147c-.309.523-1.082,1.065-1.326,1.628s-.3,1.54-1.458,1.765a12.639,12.639,0,0,0-2.962.946c-.105-.729.213-2.246.822-2.159.594.105,2.395-.622,1.752-2.14a1.268,1.268,0,0,1-1.011.967c.5-.644,1.381-1.31.949-2.389a3.077,3.077,0,0,1-1.189,1.318c.614-1.174.073-1.525-.656-.558a5.835,5.835,0,0,0-.614,2.07c-.287-.772-.267-1.789-.606-2.614-.353-.893.47-1.128.856-1.057.95.254,2.534.253,2.417-1.314a1.776,1.776,0,0,1-1.9.5c.871-.636,1.559-1.832.588-2.458a2.257,2.257,0,0,1-1.23,1.748,3.67,3.67,0,0,1-.024-1.8,5.241,5.241,0,0,0-.884,2.192,7.339,7.339,0,0,1,.294-2.125c.2-.739.7-.258,1.458-.2.734.042,1.743-.364,1.551-1.358a1.359,1.359,0,0,1-1.289.505c.631-.384,1.735-1.064,1.13-2.111-.254.4-.336.735-1.071.857.193-.441.225-1.068.794-1.315-1.017-.2-1.6.465-1.894,1.51a14.518,14.518,0,0,1-.291-1.522,1.2,1.2,0,0,0-.584-2.071,2.555,2.555,0,0,0,.085,1.264,1.605,1.605,0,0,0-1.869-.045,1.35,1.35,0,0,0,1.752.3c-.2.654-.72.543-1.436.293a1.4,1.4,0,0,0,1.6.872c.318.841.332,1.479-.6,2.7a2.22,2.22,0,0,0-.616-1.942c-.517-.507-.939.022-.129,1.149a3.46,3.46,0,0,1-1.214-1.829,3.35,3.35,0,0,0,.486,2.573c-.238.254-.507-.027-.906-.648.151,1.986,1,2.369,2.136,1.927.032,1.09.032,2.1.1,3.416A5.5,5.5,0,0,0,343,456.773c-.145.534.4,1.23.713,1.619a6.242,6.242,0,0,1-1.49-.875c-.1.886,1.042,1.706,1.781,2.072a2.442,2.442,0,0,1-1.812-.906c.01,2.454,2.659,2.028,3.156,1.65.065,1.209.157,2.606.221,3.815-.749-.131-.689-.356-1.331-.415-1.778-.07-3.188-2.135-3.656-3.655-.134.25-.027.512-.149.819a6.247,6.247,0,0,0-1.154-2.157,4.916,4.916,0,0,1,.1,1.689,3.462,3.462,0,0,1-.339-1.306c.011-.474.458-.824.433-1.491-.019-.488-.462-1.544-.527-2.361a9.076,9.076,0,0,1-.681,2.249,9.418,9.418,0,0,1,.388-2.123,2.36,2.36,0,0,0,.38-1.847c-.2.248-.135.473-.648,1.077-.111-.656.664-1.706,1.417-2.127.53-.28,1.2-1.281.763-1.966a10.637,10.637,0,0,0-1.428,1.67,3.062,3.062,0,0,1,3.375-2.487c.346,0,1.043-.126,1.238-.584a2.637,2.637,0,0,1-1.425.1c.338-.5,1.049-.431,1.711-.434a1.659,1.659,0,0,0,1.66-.812,3.7,3.7,0,0,1-2.246.137c.991-.513,2.542-.568,3.337-1.242-.907-.677-3.175.158-4.608,1.141a10.006,10.006,0,0,0,1.383-1.541c-.784-.375-2.767,1.82-3.449,3.125a3.265,3.265,0,0,0-1.159,1.341c.344-1.168.381-2.015.669-2.977-2.223.765-1.3,4.873-1.782,5.856a6.4,6.4,0,0,0-.436-3.2c-.684.522-.739,3.6-.1,6.156a12.878,12.878,0,0,1-.81-2.157c-1.014,1.848.594,4.029,1.937,5.751a8.547,8.547,0,0,1-2.669-2.611c.181,3.308,3.635,4,4.172,4.809-.728-.339-2.119-1.01-2.71-.307a7.178,7.178,0,0,1,2.347.884c.9,1.12,2.594,1.608,5.551,1.732" transform="translate(-331.086 -438.303)" fill="#f4c638"/><path d="M329.458,477.887l61.714-.022,0-17.978Z" transform="translate(-329.458 -441.887)" fill="#5784d9"/><path d="M329.458,435.626l61.714.022,0,17.978Z" transform="translate(-329.458 -435.625)" fill="#49ae32"/></g></g></g></svg>