<svg xmlns="http://www.w3.org/2000/svg" xmlns:xlink="http://www.w3.org/1999/xlink" width="36" height="36" viewBox="0 0 36 36"><defs><clipPath id="a"><circle cx="18" cy="18" r="18" transform="translate(3108 267)" fill="#fff" stroke="#707070" stroke-width="1"/></clipPath><clipPath id="b"><rect width="61.714" height="36" fill="none"/></clipPath></defs><g transform="translate(-3108 -267)" clip-path="url(#a)"><g transform="translate(2366.372 146.545)"><g transform="translate(728.628 120.455)" clip-path="url(#b)"><rect width="61.714" height="12" transform="translate(0 12)" fill="#fff"/><rect width="61.714" height="12" transform="translate(0 24)" fill="#2534a4"/><rect width="61.714" height="12" transform="translate(0 0)" fill="#bc0030"/><path d="M773.2,143.127a4.572,4.572,0,1,1-4.573-4.572,4.573,4.573,0,0,1,4.573,4.572" transform="translate(-737.771 -125.126)" fill="#fff"/><path d="M768.6,147.747a4.647,4.647,0,1,1,4.649-4.647,4.652,4.652,0,0,1-4.649,4.647m0-9.143a4.5,4.5,0,1,0,4.5,4.5,4.5,4.5,0,0,0-4.5-4.5" transform="translate(-737.745 -125.1)"/><path d="M768.855,139.433a3.92,3.92,0,1,0,3.921,3.92,3.921,3.921,0,0,0-3.921-3.92m0,6.86a2.94,2.94,0,1,1,2.94-2.94,2.941,2.941,0,0,1-2.94,2.94" transform="translate(-737.998 -125.353)" fill="#bc0030"/><path d="M768.853,147.276a3.925,3.925,0,1,1,3.925-3.925,3.928,3.928,0,0,1-3.925,3.925m0-7.84a3.915,3.915,0,1,0,3.917,3.915,3.919,3.919,0,0,0-3.917-3.915m0,6.86a2.945,2.945,0,1,1,2.945-2.945,2.949,2.949,0,0,1-2.945,2.945m0-5.88a2.935,2.935,0,1,0,2.936,2.936,2.939,2.939,0,0,0-2.936-2.936" transform="translate(-737.997 -125.351)"/><path d="M770.574,141.837s1.762.76,1.455,2.329a1.948,1.948,0,0,1-1.674,1.732c-.385.173-.651.421-.8.387a1.624,1.624,0,0,1-.352-.152.3.3,0,0,0,.293.3c.31.047.716-.407.911-.457a1.981,1.981,0,0,0,1.684-1.777c.341-1.7-1.5-2.316-1.514-2.366" transform="translate(-739.099 -125.973)" fill="#2a690b"/><path d="M769.537,146.445h0l-.047,0a.308.308,0,0,1-.3-.309,2.371,2.371,0,0,0,.358.148.841.841,0,0,0,.387-.161,3.66,3.66,0,0,1,.413-.226,2.076,2.076,0,0,1,.24-.082,1.8,1.8,0,0,0,1.432-1.648,2.155,2.155,0,0,0-1.218-2.2l-.141-.071c-.071-.035-.093-.046-.1-.054a.994.994,0,0,1,.241.117l0,.008a2.108,2.108,0,0,1-.344,4.008.974.974,0,0,0-.341.186,1.174,1.174,0,0,1-.582.288m-.341-.309a.311.311,0,0,0,.3.3l.046,0a1.163,1.163,0,0,0,.577-.286,1.091,1.091,0,0,1,.286-.174,2.106,2.106,0,0,0,.4-4.012,2.14,2.14,0,0,1,1.226,2.2,1.809,1.809,0,0,1-1.437,1.655,2.018,2.018,0,0,0-.239.081,3.759,3.759,0,0,0-.412.225.894.894,0,0,1-.362.165,1.567,1.567,0,0,1-.385-.156" transform="translate(-739.097 -125.973)"/><path d="M772.2,142.207c.033.13.035.236,0,.239s-.085-.1-.119-.229-.033-.237,0-.24.085.1.117.23" transform="translate(-739.837 -126.009)" fill="#2a690b"/><path d="M772.2,142.452c-.041,0-.092-.117-.122-.233a.4.4,0,0,1-.013-.235.03.03,0,0,1,.016,0,.341.341,0,0,0,.006.232c.036.139.087.226.113.226v0l.009-.011a.4.4,0,0,0-.015-.227.545.545,0,0,0-.093-.215.428.428,0,0,1,.1.213.385.385,0,0,1,.013.235Z" transform="translate(-739.836 -126.011)"/><path d="M772.108,142.238c.061.123.087.231.058.243s-.1-.081-.162-.2-.087-.232-.058-.243.1.081.162.2" transform="translate(-739.805 -126.024)" fill="#2a690b"/><path d="M772.159,142.489c-.039,0-.11-.1-.162-.208a.431.431,0,0,1-.067-.237.058.058,0,0,1,.016,0,.35.35,0,0,0,.059.233c.062.125.128.2.153.2v0l0-.005a.386.386,0,0,0-.061-.237.65.65,0,0,0-.125-.186.493.493,0,0,1,.134.183.44.44,0,0,1,.066.237Z" transform="translate(-739.803 -126.027)"/><path d="M771.852,142.457c.125.036.223.093.22.126s-.108.03-.232-.007-.223-.093-.22-.125.107-.03.231.007" transform="translate(-739.724 -126.126)" fill="#2a690b"/><path d="M772.009,142.612a.639.639,0,0,1-.171-.03c-.113-.032-.227-.09-.223-.13l.059-.012c-.044.045.042.1.167.134a.661.661,0,0,0,.169.03v0l.057-.023c0-.027-.085-.082-.217-.122a.823.823,0,0,0-.131-.027.424.424,0,0,1,.134.019c.112.033.227.091.223.131Z" transform="translate(-739.722 -126.128)"/><path d="M771.887,142.346c.113.076.194.161.18.188s-.117-.012-.23-.088-.2-.161-.181-.188.117.011.232.088" transform="translate(-739.732 -126.08)" fill="#2a690b"/><path d="M772.044,142.55a.518.518,0,0,1-.211-.1c-.1-.069-.2-.16-.183-.194h.024c-.027.029.044.108.163.188a.512.512,0,0,0,.207.1v0l.016-.011c.012-.022-.059-.1-.177-.183a.605.605,0,0,0-.2-.095.462.462,0,0,1,.2.088c.1.068.2.16.182.194Z" transform="translate(-739.731 -126.081)"/><path d="M771.991,142.288c.1.1.158.2.136.221s-.116-.042-.214-.143-.157-.2-.136-.22.116.042.213.142" transform="translate(-739.763 -126.052)" fill="#2a690b"/><path d="M772.115,142.517a.481.481,0,0,1-.2-.148c-.088-.091-.163-.2-.136-.228.052-.008.135.056.22.142s.163.2.136.228Zm-.326-.372c-.025.02.026.113.128.217a.464.464,0,0,0,.2.145v.005l.008-.008c.018-.017-.034-.109-.136-.214a.46.46,0,0,0-.2-.145" transform="translate(-739.762 -126.052)"/><path d="M772.145,142.532a.637.637,0,0,1-.084.044c-.016.005-.036-.021-.082,0a.193.193,0,0,0-.085.091c-.01.024.012.034.067.008s.068-.068.094-.085a.656.656,0,0,1,.1-.05,1.161,1.161,0,0,1,.064-.1c.018-.029.09-.077.116-.134s.015-.085-.016-.068a.291.291,0,0,0-.089.1c-.017.033,0,.076-.023.108s-.053.091-.058.091" transform="translate(-739.794 -126.076)" fill="#2a690b"/><path d="M771.91,142.7l-.02-.008a.166.166,0,0,1,.088-.114l.078,0a.572.572,0,0,0,.086-.043l.062-.088,0,0,.023-.107a.287.287,0,0,1,.09-.1l.022.075a.348.348,0,0,1-.079.095l-.061.076a.563.563,0,0,0-.039.065.821.821,0,0,0-.1.052.335.335,0,0,1-.094.085Z" transform="translate(-739.793 -126.076)"/><path d="M772.911,142.748c0,.2-.03.354-.077.342s-.084-.181-.087-.381.032-.353.077-.343.084.182.087.382" transform="translate(-740.014 -126.11)" fill="#2a690b"/><path d="M772.837,143.1h-.007c-.053-.012-.088-.206-.09-.386a.624.624,0,0,1,.056-.338.042.042,0,0,1,.018,0,.536.536,0,0,0-.066.333c0,.215.045.369.083.377l0,.005.015-.012a.65.65,0,0,0,.053-.331,1.022,1.022,0,0,0-.047-.326.823.823,0,0,1,.056.326.628.628,0,0,1-.056.337Z" transform="translate(-740.013 -126.111)"/><path d="M772.781,142.748c.044.2.044.371,0,.373s-.114-.162-.158-.365-.043-.372,0-.373.114.161.158.365" transform="translate(-739.974 -126.114)" fill="#2a690b"/><path d="M772.778,143.127c-.052,0-.123-.188-.162-.369a.672.672,0,0,1-.013-.369.032.032,0,0,1,.016,0,.6.6,0,0,0,.006.365c.046.217.117.362.153.362v0l.012-.012a.693.693,0,0,0-.016-.361,1.017,1.017,0,0,0-.119-.334.857.857,0,0,1,.128.332.679.679,0,0,1,.013.369Z" transform="translate(-739.972 -126.116)"/><path d="M772.355,142.949c.161.108.28.233.263.279s-.156-.005-.318-.114-.278-.233-.264-.278.158,0,.319.113" transform="translate(-739.83 -126.227)" fill="#2a690b"/><path d="M772.584,143.253a.688.688,0,0,1-.289-.131c-.164-.111-.281-.235-.266-.283l.034,0c-.029.056.072.17.236.28a.693.693,0,0,0,.284.13v0l.028-.019c.014-.039-.088-.157-.261-.274a1.026,1.026,0,0,0-.216-.115.689.689,0,0,1,.22.108c.166.111.283.236.266.284Z" transform="translate(-739.829 -126.231)"/><path d="M772.44,142.8c.132.16.216.318.187.351s-.158-.069-.292-.23-.216-.318-.188-.351.159.07.293.23" transform="translate(-739.858 -126.162)" fill="#2a690b"/><path d="M772.61,143.166c-.048,0-.163-.1-.279-.237s-.221-.317-.188-.356c.064-.012.182.089.3.229s.221.317.187.357Zm-.448-.593c-.036.033.035.178.176.349.113.136.227.234.272.234v0l.012-.009c.024-.028-.045-.173-.187-.345-.113-.136-.228-.234-.273-.234" transform="translate(-739.857 -126.163)"/><path d="M772.605,142.766c.1.187.152.356.116.378s-.148-.114-.249-.3-.152-.356-.116-.378.148.113.249.3" transform="translate(-739.911 -126.135)" fill="#2a690b"/><path d="M772.711,143.15c-.046,0-.148-.128-.244-.3s-.158-.358-.115-.384c.043-.007.158.122.255.3s.158.358.114.385Zm-.347-.683c-.037.019,0,.174.111.374s.2.3.237.3v0l.007-.006c.03-.018-.011-.172-.119-.372-.093-.171-.194-.3-.235-.3" transform="translate(-739.909 -126.135)"/><path d="M772.688,143.251a.953.953,0,0,1-.131.025c-.023,0-.044-.046-.114-.033a.251.251,0,0,0-.148.091c-.022.031.006.056.09.042s.117-.067.159-.079a.793.793,0,0,1,.148-.028c.023-.029.088-.086.123-.119s.149-.07.2-.138.048-.116,0-.107a.364.364,0,0,0-.154.1c-.036.04-.029.108-.067.142s-.105.108-.111.105" transform="translate(-739.896 -126.249)" fill="#2a690b"/><path d="M772.342,143.383l-.056-.02a.148.148,0,0,1,.013-.027l.043.042.042-.008a.237.237,0,0,0,.11-.05.608.608,0,0,1,.2-.056.8.8,0,0,1,.085-.085.407.407,0,0,1,.1-.075.445.445,0,0,0,.136-.1.157.157,0,0,0,.033-.065.093.093,0,0,1-.026.07.457.457,0,0,1-.14.1.335.335,0,0,0-.066.041c-.068.064-.105.1-.122.119a1.018,1.018,0,0,0-.15.029.423.423,0,0,1-.16.079Zm-.036-.057a.208.208,0,0,1,.136-.088l.092.022a.479.479,0,0,0,.151-.013l.111-.105a.143.143,0,0,0,.033-.069.172.172,0,0,1,.033-.073.357.357,0,0,1,.156-.1.144.144,0,0,1,.018.019.272.272,0,0,0-.168.088.153.153,0,0,0-.031.069.163.163,0,0,1-.036.074l-.114.106a.869.869,0,0,1-.131.025l-.091-.036a.264.264,0,0,0-.16.082" transform="translate(-739.895 -126.247)"/><path d="M773.3,143.727c-.033.2-.1.343-.138.323s-.049-.2-.016-.394.094-.344.136-.323.051.2.017.394" transform="translate(-740.111 -126.359)" fill="#2a690b"/><path d="M773.165,144.055l-.01,0c-.05-.022-.049-.22-.019-.4s.082-.329.133-.329c.06.025.059.223.03.4s-.089.329-.134.329m.11-.72c-.04,0-.1.123-.13.32-.036.213-.022.373.014.389h.006c.033,0,.092-.123.125-.321s.026-.371-.016-.389" transform="translate(-740.109 -126.357)"/><path d="M773.182,143.7c.006.21-.024.375-.067.369s-.082-.182-.09-.391.025-.375.068-.369.082.181.088.391" transform="translate(-740.086 -126.353)" fill="#2a690b"/><path d="M773.116,144.074h0c-.052-.008-.087-.21-.093-.4a.715.715,0,0,1,.051-.364h0a.058.058,0,0,1,.016,0,.631.631,0,0,0-.059.361c.008.232.051.381.086.387l.013-.006a.739.739,0,0,0,.048-.358,1.087,1.087,0,0,0-.054-.351.87.87,0,0,1,.063.351.711.711,0,0,1-.051.364Z" transform="translate(-740.085 -126.355)"/><path d="M772.742,143.817c.138.138.231.284.207.326s-.154-.034-.291-.173-.231-.284-.208-.326.154.035.292.174" transform="translate(-739.937 -126.436)" fill="#2a690b"/><path d="M772.925,144.161a.591.591,0,0,1-.271-.185c-.142-.142-.233-.287-.208-.332a.1.1,0,0,1,.024,0c-.032.048.045.183.19.327a.6.6,0,0,0,.265.183v0l.019-.013c.02-.036-.059-.173-.206-.321a.907.907,0,0,0-.22-.171.652.652,0,0,1,.226.165c.141.141.232.286.208.331Z" transform="translate(-739.936 -126.439)"/><path d="M772.85,143.688c.1.184.155.355.12.383s-.142-.1-.243-.283-.154-.355-.12-.383.143.1.243.283" transform="translate(-739.976 -126.377)" fill="#2a690b"/><path d="M772.958,144.079c-.045,0-.144-.122-.236-.289s-.16-.355-.12-.389c.075,0,.159.116.25.284s.161.355.12.388Zm-.341-.673c-.037.026.005.183.113.38.089.162.188.284.229.284v0l.008-.007c.029-.023-.013-.18-.121-.377-.089-.162-.187-.284-.229-.284" transform="translate(-739.974 -126.377)"/><path d="M773.018,143.683c.065.2.085.381.045.4s-.123-.139-.188-.344-.085-.381-.045-.4.125.14.188.344" transform="translate(-740.031 -126.361)" fill="#2a690b"/><path d="M773.057,144.083c-.05,0-.134-.18-.188-.348s-.091-.383-.042-.4h0c.052,0,.132.149.194.346.058.181.092.384.042.4Zm-.223-.741c-.036.013-.024.172.044.39s.145.341.179.341v.005l0-.006c.033-.012.021-.171-.048-.39s-.144-.341-.179-.341" transform="translate(-740.029 -126.36)"/><path d="M772.986,144.226a.962.962,0,0,1-.132,0c-.023,0-.035-.054-.1-.055a.252.252,0,0,0-.162.061c-.026.027,0,.056.081.059s.126-.045.17-.047a1,1,0,0,1,.149,0c.027-.024.1-.067.142-.094s.16-.04.225-.1.068-.106.02-.105a.353.353,0,0,0-.168.068c-.044.033-.048.1-.091.129s-.123.085-.129.082" transform="translate(-739.971 -126.518)" fill="#2a690b"/><path d="M772.856,144.247l.078-.013.033-.005h-.1c-.042-.035-.06-.055-.1-.055a.254.254,0,0,0-.139.043.181.181,0,0,1,.224-.013l.084.018a.23.23,0,0,0,.133-.044c.083-.053.093-.077.106-.1a.172.172,0,0,1,.045-.066.368.368,0,0,1,.172-.069.09.09,0,0,1,.016.021.253.253,0,0,0-.181.055.17.17,0,0,0-.043.063.158.158,0,0,1-.048.067l-.062.04-.025.018.045-.025a.408.408,0,0,1,.126-.063.426.426,0,0,0,.151-.068.137.137,0,0,0,.045-.061.089.089,0,0,1-.039.068.436.436,0,0,1-.154.07.319.319,0,0,0-.071.027c-.088.056-.124.079-.142.093Z" transform="translate(-739.982 -126.516)"/><path d="M773.295,144.832c-.108.17-.219.279-.249.243s.032-.2.14-.372.217-.279.249-.243-.031.2-.139.372" transform="translate(-740.089 -126.649)" fill="#2a690b"/><path d="M773.059,145.085l-.019-.008c-.036-.042.042-.224.139-.378s.19-.252.237-.252a.043.043,0,0,1,.011.014.544.544,0,0,0-.24.243c-.114.182-.165.337-.139.366l.012.005c.037,0,.128-.085.231-.249a.941.941,0,0,0,.145-.329.76.76,0,0,1-.139.335c-.094.148-.191.252-.237.252" transform="translate(-740.088 -126.647)"/><path d="M773.212,144.748c-.076.2-.167.338-.2.315s0-.2.072-.4.167-.338.2-.315,0,.2-.073.4" transform="translate(-740.078 -126.621)" fill="#2a690b"/><path d="M773.015,145.068l-.011,0c-.044-.029,0-.229.07-.405s.155-.32.2-.32c.054.032.01.231-.059.409s-.155.319-.2.319m.264-.717c-.042,0-.122.117-.2.312-.082.211-.1.375-.074.395h.007c.035,0,.116-.117.191-.314s.105-.375.075-.395Z" transform="translate(-740.076 -126.619)"/><path d="M772.841,144.668c.071.185.1.358.062.388s-.126-.1-.2-.28-.1-.359-.061-.389.125.1.2.281" transform="translate(-739.984 -126.63)" fill="#2a690b"/><path d="M772.889,145.065c-.045,0-.125-.121-.188-.289-.073-.189-.1-.362-.06-.393h0c.059,0,.137.119.2.283.073.188.1.362.061.393Zm-.233-.678c-.042.028-.023.188.053.387s.146.283.18.283v0l.01-.008c.03-.024.013-.185-.064-.383-.068-.177-.144-.283-.179-.283" transform="translate(-739.982 -126.63)"/><path d="M772.981,144.594c.02.211,0,.392-.039.4s-.091-.151-.11-.362,0-.394.039-.4.091.151.11.362" transform="translate(-740.034 -126.591)" fill="#2a690b"/><path d="M772.937,145c-.048,0-.094-.187-.11-.367s-.007-.4.042-.409h0c.056,0,.1.188.115.366s.007.4-.042.41Zm-.062-.768c-.039.01-.061.172-.039.4s.068.358.1.358V145l0-.005c.035-.01.058-.172.036-.4s-.068-.358-.1-.358" transform="translate(-740.033 -126.59)"/><path d="M773.114,144.66c-.022.216-.071.388-.113.386s-.058-.182-.038-.4.071-.388.113-.385.058.18.038.4" transform="translate(-740.068 -126.599)" fill="#2a690b"/><path d="M773,145.048l-.017-.01a.806.806,0,0,1-.026-.392c.019-.194.066-.39.117-.39a.629.629,0,0,1,.043.4c-.019.194-.066.39-.116.39m.082-.776c-.044,0-.093.145-.116.375a.8.8,0,0,0,.024.386l.01.011v0c.033,0,.084-.146.108-.381a.806.806,0,0,0-.023-.386h0" transform="translate(-740.066 -126.598)"/><path d="M772.868,145.236a.952.952,0,0,1-.12-.054c-.018-.013-.01-.065-.074-.094a.241.241,0,0,0-.169-.011c-.035.014-.024.051.05.088s.132.013.171.027a.784.784,0,0,1,.136.062c.035-.01.119-.021.165-.029a1.013,1.013,0,0,0,.24,0c.068-.02.1-.069.058-.089a.342.342,0,0,0-.178-.007c-.05.013-.081.074-.132.082s-.145.028-.148.023" transform="translate(-739.947 -126.807)" fill="#2a690b"/><path d="M772.86,145.257h0a.778.778,0,0,0-.132-.06.436.436,0,0,1,.135.052,1,1,0,0,1,.115-.021l.127,0a.733.733,0,0,0,.091.007.277.277,0,0,0,.136-.05.082.082,0,0,1-.062.049.661.661,0,0,1-.166,0l-.075,0a1.615,1.615,0,0,0-.165.029Zm.01-.018a.755.755,0,0,1-.126-.056c-.023-.047-.033-.075-.074-.094a.237.237,0,0,0-.1-.021l-.084.028c0,.018.025.041.068.062a.218.218,0,0,0,.1.022l.066.013a.4.4,0,0,1-.171-.027c-.047-.024-.073-.05-.072-.07l.093-.037a.239.239,0,0,1,.1.022.107.107,0,0,1,.062.072.427.427,0,0,0,.13.076.279.279,0,0,0,.078-.011c.095-.016.114-.033.135-.052a.161.161,0,0,1,.066-.041.342.342,0,0,1,.181.007.108.108,0,0,1,.006.024.212.212,0,0,0-.185-.023c-.082.059-.1.077-.132.082-.1.018-.134.024-.145.024" transform="translate(-739.945 -126.805)"/><path d="M772.965,145.948c-.174.149-.333.229-.355.179s.1-.211.275-.36.333-.229.355-.179-.1.211-.274.36" transform="translate(-739.978 -126.937)" fill="#2a690b"/><path d="M772.637,146.144l-.033-.018c-.022-.053.1-.216.275-.366a.755.755,0,0,1,.329-.194.065.065,0,0,1,.01.02.776.776,0,0,0-.333.182c-.186.16-.292.312-.272.355l.024.013a.765.765,0,0,0,.323-.193,1.3,1.3,0,0,0,.24-.26.984.984,0,0,1-.234.267.749.749,0,0,1-.329.2" transform="translate(-739.977 -126.936)"/><path d="M772.891,145.814c-.148.19-.294.312-.327.272s.062-.225.21-.415.3-.312.327-.273-.061.226-.21.415" transform="translate(-739.966 -126.891)" fill="#2a690b"/><path d="M772.58,146.1l-.022-.009c-.037-.046.077-.25.21-.421s.26-.281.314-.281a.035.035,0,0,1,.01.015h0c-.066,0-.191.115-.315.272-.159.2-.237.377-.211.41l.015.006c.051,0,.18-.117.306-.278a1.2,1.2,0,0,0,.211-.355,1.007,1.007,0,0,1-.2.361c-.129.165-.258.281-.313.281" transform="translate(-739.964 -126.889)"/><path d="M772.572,145.558c.017.23-.01.432-.061.45s-.106-.151-.123-.38.009-.432.059-.452.106.151.125.381" transform="translate(-739.92 -126.835)" fill="#2a690b"/><path d="M772.5,146.014c-.052,0-.1-.162-.119-.387s.01-.435.063-.456h0c.068,0,.114.194.129.385.018.235-.01.436-.064.456Zm-.047-.835c-.05.018-.084.2-.063.448s.071.378.11.378v0l.007-.006c.043-.016.076-.2.057-.446s-.072-.378-.111-.378" transform="translate(-739.919 -126.834)"/><path d="M772.711,145.531c-.047.24-.128.434-.177.432s-.051-.2,0-.441.128-.434.177-.432.05.2,0,.441" transform="translate(-739.95 -126.813)" fill="#2a690b"/><path d="M772.534,145.966l-.019-.012a.8.8,0,0,1,.011-.434c.043-.214.122-.436.18-.436a.1.1,0,0,1,.013.016.726.726,0,0,0-.184.421.835.835,0,0,0-.014.427l.013.013v0c.042,0,.121-.172.171-.428a1.211,1.211,0,0,0,.028-.395.961.961,0,0,1-.019.4c-.042.214-.122.436-.18.436" transform="translate(-739.948 -126.812)"/><path d="M772.812,145.659c-.094.231-.206.4-.251.385s0-.22.09-.452.206-.4.251-.384,0,.22-.09.451" transform="translate(-739.962 -126.843)" fill="#2a690b"/><path d="M772.569,146.048h-.009a.737.737,0,0,1,.087-.458c.089-.222.2-.389.248-.389.062.024.007.252-.078.459s-.2.389-.248.389m.331-.838c-.046,0-.149.146-.244.382a.933.933,0,0,0-.1.434l.016.013c.04,0,.141-.144.239-.384s.129-.43.093-.445Z" transform="translate(-739.962 -126.841)"/><path d="M772.427,146.2a1.013,1.013,0,0,1-.114-.1c-.018-.022.01-.075-.051-.131a.271.271,0,0,0-.183-.073c-.042,0-.044.046.026.115s.141.061.182.091a1.024,1.024,0,0,1,.127.118,1.93,1.93,0,0,1,.191.028c.053.007.167.089.266.09.081,0,.134-.041.093-.078a.393.393,0,0,0-.194-.071c-.059-.005-.114.052-.172.042-.042-.01-.168-.021-.17-.028" transform="translate(-739.834 -127.02)" fill="#2a690b"/><path d="M772.9,146.341h-.006a.485.485,0,0,1-.184-.058.391.391,0,0,0-.082-.033,1.644,1.644,0,0,0-.191-.027,1.134,1.134,0,0,0-.129-.118.608.608,0,0,1,.133.111c.034,0,.083.008.131.017a.434.434,0,0,1,.141.042.463.463,0,0,0,.18.057l.006,0v0a.148.148,0,0,0,.074-.016.093.093,0,0,1-.074.026m.088-.056a.3.3,0,0,0-.2-.093c-.036-.019-.059.011-.082.021a.2.2,0,0,1-.076.022l-.1-.014c-.082-.011-.09-.013-.091-.019a1.206,1.206,0,0,1-.114-.1c-.009-.061-.011-.095-.05-.131a.282.282,0,0,0-.143-.069.223.223,0,0,1,.149.062.132.132,0,0,1,.045.1.526.526,0,0,0,.119.131.418.418,0,0,0,.086.016c.033,0,.065.009.083.013a.167.167,0,0,0,.085-.02.2.2,0,0,1,.078-.022.408.408,0,0,1,.205.073.128.128,0,0,1,0,.03" transform="translate(-739.857 -127.022)"/><path d="M772.172,146.969c-.249.042-.447.025-.441-.036s.213-.142.462-.184.445-.025.439.036-.213.142-.461.184" transform="translate(-739.752 -127.235)" fill="#2a690b"/><path d="M771.923,146.995a.286.286,0,0,1-.185-.039.063.063,0,0,1,0-.02c.051.066.22.062.432.027a1.248,1.248,0,0,0,.409-.128,1.011,1.011,0,0,1-.407.137,1.588,1.588,0,0,1-.252.023m-.132-.119a1.062,1.062,0,0,1,.4-.133.682.682,0,0,1,.435.016.063.063,0,0,1,0,.02c-.05-.067-.22-.062-.431-.027a1.321,1.321,0,0,0-.405.124" transform="translate(-739.754 -127.234)"/><path d="M772.15,146.789c-.249.095-.457.126-.465.07s.18-.179.429-.273.454-.126.464-.07-.182.179-.428.273" transform="translate(-739.74 -127.174)" fill="#2a690b"/><path d="M771.753,146.891c-.046,0-.071-.01-.074-.031-.011-.06.179-.182.432-.278s.46-.128.471-.067-.18.181-.432.278a1.326,1.326,0,0,1-.4.1m.724-.382a1.023,1.023,0,0,0-.364.081c-.266.1-.435.22-.426.269l.065.024a1.289,1.289,0,0,0,.394-.1c.265-.1.435-.22.426-.268a.6.6,0,0,0-.1-.007" transform="translate(-739.739 -127.173)"/><path d="M771.986,146.274c-.108.229-.245.405-.3.394s-.02-.206.088-.434.245-.406.3-.394.02.2-.088.434" transform="translate(-739.732 -127.006)" fill="#2a690b"/><path d="M771.688,146.671h-.006a.084.084,0,0,1-.01-.02l.016.012c.06,0,.192-.177.3-.392a1.262,1.262,0,0,0,.112-.329.954.954,0,0,1-.1.332c-.106.223-.239.4-.3.4m-.028-.086a.933.933,0,0,1,.107-.355c.105-.223.239-.4.3-.4a.1.1,0,0,1,.013.022h0c-.082,0-.208.171-.306.378a1.162,1.162,0,0,0-.115.352" transform="translate(-739.734 -127.005)"/><path d="M772.1,146.356c-.177.2-.359.34-.406.309s.059-.219.237-.42.361-.339.407-.309-.061.219-.239.42" transform="translate(-739.74 -127.03)" fill="#2a690b"/><path d="M771.715,146.672l-.019-.005a.077.077,0,0,1,0-.023l.022.019a.967.967,0,0,0,.385-.312,1.7,1.7,0,0,0,.213-.29,1.205,1.205,0,0,1-.206.3.952.952,0,0,1-.392.315m-.014-.078a1.084,1.084,0,0,1,.232-.355.953.953,0,0,1,.394-.314.073.073,0,0,1,.007.026h0c-.09,0-.245.128-.392.294a1.3,1.3,0,0,0-.238.349" transform="translate(-739.742 -127.029)"/><path d="M772.133,146.564c-.217.165-.42.263-.452.22s.116-.211.332-.378.418-.263.452-.221-.116.213-.332.378" transform="translate(-739.738 -127.093)" fill="#2a690b"/><path d="M771.708,146.8l-.031-.013a.134.134,0,0,1,0-.027v.005l.027.026a1.092,1.092,0,0,0,.422-.23,1.828,1.828,0,0,0,.258-.234.423.423,0,0,0,.072-.1.237.237,0,0,1-.065.11,1.99,1.99,0,0,1-.26.235,1.091,1.091,0,0,1-.428.231m-.019-.062a1.535,1.535,0,0,1,.748-.566.061.061,0,0,1,.015.016,1.423,1.423,0,0,0-.437.223,1.3,1.3,0,0,0-.326.327" transform="translate(-739.738 -127.092)"/><path d="M771.612,146.789a1.157,1.157,0,0,1-.053-.164c-.006-.03.05-.066.023-.154a.319.319,0,0,0-.138-.174c-.042-.022-.068.018-.037.124s.1.14.125.192a1.157,1.157,0,0,1,.059.186c.039.024.122.1.169.137s.112.18.206.238c.078.05.154.04.133-.019a.46.46,0,0,0-.149-.18c-.055-.04-.137-.017-.188-.06s-.151-.117-.149-.125" transform="translate(-739.665 -127.123)" fill="#2a690b"/><path d="M772.057,147.213a.189.189,0,0,1-.095-.033.555.555,0,0,1-.146-.162.45.45,0,0,0-.061-.076c-.093-.079-.142-.12-.168-.137a1.323,1.323,0,0,0-.059-.182.682.682,0,0,1,.065.177,1.242,1.242,0,0,1,.118.093.475.475,0,0,1,.111.12.567.567,0,0,0,.144.159.183.183,0,0,0,.091.032v0l.006,0Zm.03-.039a.379.379,0,0,0-.142-.193.188.188,0,0,0-.09-.028.188.188,0,0,1-.1-.032l-.07-.058c-.075-.059-.082-.066-.081-.072h0a1.181,1.181,0,0,1-.053-.162c.023-.064.041-.1.023-.154a.323.323,0,0,0-.089-.138.255.255,0,0,1,.1.135.147.147,0,0,1-.013.122.592.592,0,0,0,.042.2.678.678,0,0,0,.079.067l.07.058a.175.175,0,0,0,.093.03.206.206,0,0,1,.1.03.457.457,0,0,1,.151.182Zm-.564-.559a.52.52,0,0,1-.123-.191.156.156,0,0,1,0-.123.235.235,0,0,1,.031.008c-.038.022-.035.062-.02.113a.318.318,0,0,0,.082.134c.013.02.023.04.033.059" transform="translate(-739.663 -127.125)"/><path d="M771.16,147.507c-.255,0-.464-.052-.462-.126s.207-.137.464-.139.462.053.462.126-.207.136-.464.139" transform="translate(-739.486 -127.368)" fill="#2a690b"/><path d="M771.137,147.51a.7.7,0,0,1-.421-.092.091.091,0,0,1,0-.028.6.6,0,0,0,.421.111v0l.027-.005c.253,0,.459-.064.459-.135s-.194-.122-.435-.122a1.182,1.182,0,0,0-.4.064.866.866,0,0,1,.381-.073h0c.271,0,.465.058.465.131s-.206.141-.468.145Z" transform="translate(-739.49 -127.367)"/><path d="M771.1,146.875c-.162.209-.338.342-.393.3s.033-.252.194-.461.338-.342.393-.3-.032.252-.194.461" transform="translate(-739.483 -127.152)" fill="#2a690b"/><path d="M770.731,147.183l-.031-.01c-.056-.047.028-.253.194-.468.14-.181.291-.307.368-.307a.066.066,0,0,1,.018.017c-.094-.027-.246.123-.378.3-.16.208-.247.412-.2.455l.025.008c.073,0,.225-.128.361-.3a1.141,1.141,0,0,0,.2-.367.912.912,0,0,1-.2.372c-.14.181-.291.307-.368.307" transform="translate(-739.482 -127.15)"/><path d="M771.16,147.206c-.237.1-.452.131-.479.062s.147-.206.384-.309.452-.131.479-.062-.147.206-.384.309" transform="translate(-739.481 -127.27)" fill="#2a690b"/><path d="M770.778,147.308c-.057,0-.092-.014-.1-.041-.027-.07.142-.208.387-.314s.458-.13.484-.06-.144.209-.387.315a1.088,1.088,0,0,1-.381.1m.666-.446a1.075,1.075,0,0,0-.378.1c-.234.1-.407.238-.381.3s.245.033.472-.065.405-.239.381-.3c-.009-.022-.042-.034-.094-.034" transform="translate(-739.479 -127.269)"/><path d="M771.4,141.834c.117.106.188.2.158.222s-.149-.056-.266-.162-.19-.2-.16-.222.151.056.268.162" transform="translate(-739.596 -125.93)" fill="#2a690b"/><path d="M771.547,142.066a.636.636,0,0,1-.259-.166c-.1-.093-.171-.18-.168-.214l.021,0c-.01.039.047.115.153.211a.655.655,0,0,0,.253.163v0l.009-.007c.007-.034-.047-.114-.159-.214a.992.992,0,0,0-.208-.149.653.653,0,0,1,.214.143c.1.091.17.18.166.214Z" transform="translate(-739.594 -125.933)"/><path d="M771.209,142.048c.159.021.293.065.3.1s-.117.042-.277.022-.292-.064-.3-.1.119-.043.278-.022" transform="translate(-739.546 -126.025)" fill="#2a690b"/><path d="M771.381,142.179a1.233,1.233,0,0,1-.153-.011c-.142-.019-.294-.061-.3-.1.045-.075.176-.043.283-.028.142.019.3.06.3.1-.02.035-.089.038-.129.038m-.325-.142a.213.213,0,0,0-.12.021c0,.035.125.079.294.1a.519.519,0,0,0,.271-.01c0-.034-.123-.079-.294-.1a1.173,1.173,0,0,0-.151-.011" transform="translate(-739.544 -126.02)"/><path d="M771.277,141.917c.151.076.26.16.243.185s-.151-.015-.3-.091-.258-.16-.242-.185.151.014.3.091" transform="translate(-739.557 -125.968)" fill="#2a690b"/><path d="M771.5,142.12a.844.844,0,0,1-.28-.1.614.614,0,0,1-.245-.178.144.144,0,0,1,.028-.005c0,.046.1.114.221.175a.818.818,0,0,0,.275.1v0l.013-.007Zm.019-.016c-.01-.036-.1-.1-.241-.177a1.17,1.17,0,0,0-.211-.088.736.736,0,0,1,.216.079.622.622,0,0,1,.246.177Z" transform="translate(-739.556 -125.973)"/><path d="M768.567,146.946a6.463,6.463,0,0,1,.726.206c.338.123.85.544.988.568a.431.431,0,0,0,.45-.269c-.239.064-.381.16-.608.035a6.374,6.374,0,0,0-.632-.4,7.381,7.381,0,0,0-.87-.274Z" transform="translate(-738.936 -127.258)" fill="#2a690b"/><path d="M770.308,147.724h-.027a1.655,1.655,0,0,1-.367-.211,3.564,3.564,0,0,0-.623-.357,6.449,6.449,0,0,0-.726-.206l.052-.139a6.494,6.494,0,0,1,.875.272,2.689,2.689,0,0,1,.476.3,1.034,1.034,0,0,0,.155.1.539.539,0,0,0,.47.006l.135-.041a.42.42,0,0,1-.422.278m-1.736-.777a5.062,5.062,0,0,1,.723.2,3.566,3.566,0,0,1,.625.357,1.647,1.647,0,0,0,.363.21h.026a.423.423,0,0,0,.419-.266l-.13.047a.55.55,0,0,1-.476-.007.99.99,0,0,1-.156-.1,2.768,2.768,0,0,0-.476-.294,7.179,7.179,0,0,0-.869-.274l-.049.13h0" transform="translate(-738.935 -127.257)"/><path d="M769.09,142.179s.447-.236.447-.236l-.493.126-.057.087Z" transform="translate(-739.044 -126.001)" fill="#2a690b"/><path d="M769.092,142.183l-.1-.024.053-.093.495-.128c0,.008-.429.233-.442.243Zm.443-.245-.489.134-.054.085.1.016c.018-.013.1-.057.444-.236" transform="translate(-739.044 -125.999)"/><path d="M769.484,142.2c-.172-.032-.439-.09-.608-.1.117-.13.28-.349.378-.484a3.935,3.935,0,0,0-.208.42,3.992,3.992,0,0,0,.439.167" transform="translate(-739.015 -125.917)" fill="#2a690b"/><path d="M769.484,142.208l-.131-.025a4.821,4.821,0,0,0-.477-.077c.114-.138.276-.357.375-.491l-.057.125a2.236,2.236,0,0,0-.144.3,2.615,2.615,0,0,0,.287.109l.149.052Zm-.234-.594a4.7,4.7,0,0,1-.37.489,3.3,3.3,0,0,1,.476.07l.07.013-.091-.032a1.987,1.987,0,0,1-.29-.114,1.724,1.724,0,0,1,.142-.3Z" transform="translate(-739.015 -125.916)"/><path d="M768.981,142.192s.4-.308.4-.308l-.461.206-.041.1Z" transform="translate(-739.015 -125.985)" fill="#2a690b"/><path d="M768.981,142.2l-.1-.006.036-.1.463-.208c.005.007-.381.3-.391.314Zm.394-.316-.456.214-.039.093h.1c.016-.015.087-.071.395-.307" transform="translate(-739.015 -125.984)"/><path d="M769.376,142.191c-.174-.033-.442-.094-.613-.108.116-.134.274-.361.371-.5a3.819,3.819,0,0,0-.2.433,4.393,4.393,0,0,0,.445.174" transform="translate(-738.986 -125.908)" fill="#2a690b"/><path d="M769.375,142.2l-.139-.027a4.64,4.64,0,0,0-.474-.081c.11-.138.262-.355.36-.494l0,0a4.971,4.971,0,0,1-.354.49,3.18,3.18,0,0,1,.471.073l.08.016-.095-.034a2.04,2.04,0,0,1-.295-.119,1.931,1.931,0,0,1,.141-.32l.044-.088-.036.093a2.241,2.241,0,0,0-.142.313,2.724,2.724,0,0,0,.291.113l.151.055Z" transform="translate(-738.986 -125.911)"/><path d="M768.894,142.264s.467-.2.467-.2l-.5.083-.065.081Z" transform="translate(-738.994 -126.033)" fill="#2a690b"/><path d="M768.895,142.267l-.1-.033.063-.088.506-.084c-.123.06-.451.2-.463.2Zm.464-.2-.5.091-.062.079.1.025c.019-.012.105-.048.464-.2" transform="translate(-738.993 -126.031)"/><path d="M769.3,142.2c-.177-.015-.449-.047-.619-.045.1-.148.228-.395.307-.546a3.826,3.826,0,0,0-.149.462,4.414,4.414,0,0,0,.461.128" transform="translate(-738.966 -125.915)" fill="#2a690b"/><path d="M769.312,142.213l-.155-.015c-.146-.014-.312-.03-.435-.03v0a3.515,3.515,0,0,1,.435.024l.1.009-.1-.025a1.932,1.932,0,0,1-.3-.089,1.861,1.861,0,0,1,.1-.342l.027-.076-.018.079a2.209,2.209,0,0,0-.1.335,2.594,2.594,0,0,0,.3.083l.157.04ZM768.8,142c.06-.123.132-.259.185-.359v0c-.053.111-.119.241-.183.355" transform="translate(-738.975 -125.922)"/><path d="M768.828,142.2s.318-.386.318-.386l-.4.3-.019.1Z" transform="translate(-738.976 -125.967)" fill="#2a690b"/><path d="M768.718,142.22l.02-.108.4-.3c-.079.109-.3.378-.31.391Zm.422-.41-.395.306-.016.093.1-.016s.029-.042.315-.384" transform="translate(-738.975 -125.966)"/><path d="M769.285,142.224c-.188,0-.481-.02-.663,0,.091-.168.2-.447.272-.619a4.678,4.678,0,0,0-.112.516,4.382,4.382,0,0,0,.5.108" transform="translate(-738.95 -125.912)" fill="#2a690b"/><path d="M769.285,142.237l-.158,0a4.95,4.95,0,0,0-.5,0c.082-.168.186-.428.257-.6v.005a5.31,5.31,0,0,1-.252.594,2.442,2.442,0,0,1,.5-.007l.106,0-.118-.021a2.1,2.1,0,0,1-.335-.076,2.05,2.05,0,0,1,.07-.361l.023-.1-.014.1a2.433,2.433,0,0,0-.073.355,2.711,2.711,0,0,0,.33.07c.06.01.118.021.169.032Z" transform="translate(-738.95 -125.92)"/><path d="M768.739,142.33s.384-.369.384-.369l-.465.257-.032.111Z" transform="translate(-738.951 -126.005)" fill="#2a690b"/><path d="M768.739,142.333h-.113l.027-.116.467-.26c-.145.149-.37.364-.378.375Zm.381-.377-.46.264-.03.108.108,0c.014-.019.083-.085.382-.368" transform="translate(-738.951 -126.004)"/><path d="M769.153,142.223c-.2,0-.516-.01-.713.013.131-.188.31-.5.42-.689a6.01,6.01,0,0,0-.227.571,4.1,4.1,0,0,0,.52.105" transform="translate(-738.903 -125.899)" fill="#2a690b"/><path d="M768.428,142.242l.006-.008c.129-.187.306-.492.416-.683v0c-.1.2-.276.492-.4.677a3.522,3.522,0,0,1,.358-.013l.325,0c-.033,0-.093-.012-.154-.022a1.976,1.976,0,0,1-.346-.075,2.623,2.623,0,0,1,.154-.41l.062-.149-.055.153a3.346,3.346,0,0,0-.156.4,2.48,2.48,0,0,0,.343.07c.062.01.121.019.174.03l-.168.007H768.8a3.418,3.418,0,0,0-.367.014Z" transform="translate(-738.9 -125.9)"/><path d="M768.56,142.35s.491-.417.491-.417l-.555.3-.056.122Z" transform="translate(-738.903 -125.998)" fill="#2a690b"/><path d="M768.431,142.355l.059-.129.557-.3c-.161.146-.476.412-.485.423Zm.616-.427-.55.3-.052.114h.112s.047-.045.49-.416" transform="translate(-738.901 -125.997)"/><path d="M769.057,142.259c-.2.029-.511.062-.706.111.1-.2.237-.528.32-.73a5.927,5.927,0,0,0-.145.588,4.234,4.234,0,0,0,.53.03" transform="translate(-738.88 -125.923)" fill="#2a690b"/><path d="M768.339,142.383l0-.009c.1-.2.23-.51.313-.712v0a7.485,7.485,0,0,1-.3.7c.148-.036.355-.063.534-.087l.163-.022a1.721,1.721,0,0,1-.177,0,1.978,1.978,0,0,1-.353-.025,2.636,2.636,0,0,1,.1-.428l.032-.118-.023.12a3.15,3.15,0,0,0-.1.422,2.568,2.568,0,0,0,.348.02c.063,0,.124,0,.178.005l-.162.031a5.07,5.07,0,0,0-.542.09Z" transform="translate(-738.877 -125.928)"/><path d="M768.474,142.423s.38-.525.38-.525l-.474.427-.025.131Z" transform="translate(-738.881 -125.989)" fill="#2a690b"/><path d="M768.346,142.462l.026-.138.476-.43c-.1.147-.366.515-.372.529Zm.5-.568-.467.433-.021.122.111-.032s.036-.056.378-.523" transform="translate(-738.879 -125.988)"/><path d="M768.9,142.337c-.2.019-.514.036-.71.076.114-.2.266-.516.359-.712a5.918,5.918,0,0,0-.177.58,4.4,4.4,0,0,0,.528.056" transform="translate(-738.839 -125.938)" fill="#2a690b"/><path d="M768.183,142.418l.005-.009c.114-.2.266-.516.358-.712l-.049.179a3.21,3.21,0,0,0-.119.4,2.613,2.613,0,0,0,.339.036c.065,0,.129.008.185.015l-.169.024a5.088,5.088,0,0,0-.541.061Zm.364-.72a7.227,7.227,0,0,1-.346.707c.146-.027.354-.045.532-.059l.169-.015c-.055,0-.12,0-.184-.006a2,2,0,0,1-.344-.042,2.53,2.53,0,0,1,.116-.41Z" transform="translate(-738.836 -125.937)"/><path d="M768.381,142.534s.482-.417.482-.417l-.547.3-.055.123Z" transform="translate(-738.857 -126.046)" fill="#2a690b"/><path d="M768.251,142.54l.058-.13.55-.3c-.158.146-.468.413-.477.423Zm.607-.427-.542.3-.05.114h.112s.049-.047.481-.416" transform="translate(-738.854 -126.045)"/><path d="M768.827,142.385c-.2.042-.516.1-.708.158.094-.206.213-.538.287-.741a5.462,5.462,0,0,0-.116.59,4.518,4.518,0,0,0,.538-.007" transform="translate(-738.82 -125.964)" fill="#2a690b"/><path d="M768.106,142.565l0-.01c.088-.191.2-.492.271-.7v.007c-.077.236-.176.505-.257.685.148-.047.362-.088.543-.124l.157-.031a1.655,1.655,0,0,1-.183.016,2.016,2.016,0,0,1-.355,0,2.579,2.579,0,0,1,.076-.43l.016-.073-.007.075a3.334,3.334,0,0,0-.079.424c.091,0,.226,0,.349,0,.065,0,.128-.007.184-.007l-.155.04a5.519,5.519,0,0,0-.552.127Z" transform="translate(-738.817 -125.979)"/><path d="M768.273,142.51s.309-.572.309-.572l-.417.495-.006.131Z" transform="translate(-738.83 -125.999)" fill="#2a690b"/><path d="M768.153,142.569l.007-.138.418-.5c-.1.2-.3.562-.3.576Zm.424-.634-.41.5,0,.12.107-.05s.028-.061.308-.571" transform="translate(-738.829 -125.998)"/><path d="M768.809,142.411c-.217.056-.553.131-.757.207.078-.234.168-.609.223-.841a6.189,6.189,0,0,0-.055.665,4.873,4.873,0,0,0,.59-.031" transform="translate(-738.803 -125.958)" fill="#2a690b"/><path d="M768.042,142.626l0-.01c.079-.234.168-.608.223-.84l-.012.194a3.4,3.4,0,0,0-.034.472c.024,0,.055,0,.087,0,.092,0,.2-.01.3-.019.072-.007.141-.013.2-.016l-.182.054a5.926,5.926,0,0,0-.575.162Zm.226-.849a8.439,8.439,0,0,1-.211.833,5.871,5.871,0,0,1,.567-.158l.183-.046c-.06.012-.129.019-.2.025a2.291,2.291,0,0,1-.389.015,2.917,2.917,0,0,1,.03-.478Z" transform="translate(-738.8 -125.958)"/><path d="M768.188,142.688s.387-.573.387-.573l-.495.463-.021.145Z" transform="translate(-738.805 -126.045)" fill="#2a690b"/><path d="M768.052,142.728l.021-.152.5-.465c-.1.159-.373.561-.38.577Zm.518-.617-.489.469-.019.135.122-.032s.037-.065.386-.572" transform="translate(-738.803 -126.044)"/><path d="M768.7,142.512c-.211.068-.545.159-.743.246.067-.236.14-.611.183-.843a5.591,5.591,0,0,0-.023.659,4.768,4.768,0,0,0,.584-.062" transform="translate(-738.777 -125.993)" fill="#2a690b"/><path d="M767.944,142.765l0-.009c.067-.237.139-.611.182-.842l0,.2c-.007.1-.014.2-.016.3a2.212,2.212,0,0,1,.006-.3l.013-.2a8.364,8.364,0,0,1-.171.835,5.616,5.616,0,0,1,.551-.186l.183-.057c-.059.015-.126.025-.2.036a2.574,2.574,0,0,1-.35.037l0-.007a3.321,3.321,0,0,0,.351-.039c.07-.01.139-.021.2-.027l-.182.065a5.5,5.5,0,0,0-.559.19Z" transform="translate(-738.775 -125.993)"/><path d="M768.085,142.781s.294-.633.294-.633l-.418.545v.145Z" transform="translate(-738.779 -126.054)" fill="#2a690b"/><path d="M767.956,142.845v-.153l.419-.548c-.073.174-.283.619-.286.635Zm.417-.7-.411.55,0,.135.116-.054s.026-.066.293-.631" transform="translate(-738.778 -126.053)"/><path d="M768.583,142.612c-.219.05-.558.113-.763.184.087-.229.192-.6.257-.824a5.877,5.877,0,0,0-.082.655,4.934,4.934,0,0,0,.588-.015" transform="translate(-738.743 -126.008)" fill="#2a690b"/><path d="M767.809,142.806l0-.009c.086-.226.191-.589.256-.816v0a8.321,8.321,0,0,1-.243.808,5.8,5.8,0,0,1,.566-.14l.189-.041c-.061.01-.131.014-.2.019a2.2,2.2,0,0,1-.387,0,2.889,2.889,0,0,1,.05-.476l.025-.158-.016.16a3.4,3.4,0,0,0-.054.47c.1,0,.246,0,.381-.008.07-.005.14-.01.2-.011l-.188.05a5.311,5.311,0,0,0-.574.143Z" transform="translate(-738.74 -126.011)"/><path d="M767.988,142.911s.481-.495.481-.495l-.568.367-.047.139Z" transform="translate(-738.752 -126.123)" fill="#2a690b"/><path d="M767.846,142.925l.048-.145.57-.369c-.125.139-.466.487-.475.5Zm.618-.514-.563.374-.042.13.125-.01s.048-.057.479-.494" transform="translate(-738.75 -126.121)"/><path d="M768.453,142.707c-.216.029-.551.06-.757.111.1-.224.226-.59.3-.813a5.757,5.757,0,0,0-.123.658,4.658,4.658,0,0,0,.575.044" transform="translate(-738.711 -126.017)" fill="#2a690b"/><path d="M767.685,142.839l0-.008c.094-.211.211-.545.289-.771v.007c-.082.257-.188.561-.277.759a5.581,5.581,0,0,1,.566-.087l.182-.022a1.709,1.709,0,0,1-.194,0,2.1,2.1,0,0,1-.381-.034,2.983,2.983,0,0,1,.082-.49l.018-.081-.009.083a3.508,3.508,0,0,0-.085.484,2.659,2.659,0,0,0,.376.029c.068,0,.135,0,.2.01l-.183.031a5.343,5.343,0,0,0-.573.089Z" transform="translate(-738.708 -126.031)"/><path d="M767.862,142.8s.327-.62.327-.62l-.444.521-.007.148Z" transform="translate(-738.721 -126.062)" fill="#2a690b"/><path d="M767.731,142.856l.007-.155.446-.524c-.082.171-.315.606-.32.623Zm.453-.678-.437.526-.006.138.117-.046s.031-.07.326-.618" transform="translate(-738.72 -126.061)"/><path d="M768.467,142.628c-.234.1-.6.231-.821.349.072-.279.149-.72.2-.991a7.125,7.125,0,0,0-.02.765,5.3,5.3,0,0,0,.646-.122" transform="translate(-738.698 -126.012)" fill="#2a690b"/><path d="M767.635,142.985l0-.01c.073-.279.15-.72.2-.99l0,.217a3.967,3.967,0,0,0-.01.548,3.008,3.008,0,0,0,.42-.079c.077-.019.154-.036.222-.048l-.2.089c-.211.084-.456.18-.619.268Zm.2-1c-.037.269-.112.7-.184.982.164-.087.4-.181.611-.263l.2-.081c-.066.021-.142.039-.219.057a2.491,2.491,0,0,1-.426.075,3.469,3.469,0,0,1,0-.553Z" transform="translate(-738.695 -126.011)"/><path d="M767.8,143.021s.393-.711.393-.711l-.519.6-.014.168Z" transform="translate(-738.701 -126.095)" fill="#2a690b"/><path d="M767.648,143.086l.016-.176.519-.6c-.126.243-.38.7-.385.714Zm.535-.779-.511.606-.013.159.133-.056s.032-.068.392-.709" transform="translate(-738.698 -126.094)"/><path d="M768.352,142.762c-.231.108-.591.261-.806.39.061-.279.117-.718.152-.988a6.814,6.814,0,0,0,.013.755,5.506,5.506,0,0,0,.64-.157" transform="translate(-738.672 -126.058)" fill="#2a690b"/><path d="M767.537,143.164l0-.01c.06-.276.116-.71.151-.98h0c-.027.276-.082.7-.14.97.161-.1.4-.2.606-.3l.191-.087c-.064.024-.139.046-.215.068a2.471,2.471,0,0,1-.423.1,3.284,3.284,0,0,1-.02-.548l0-.187.008.188a4.039,4.039,0,0,0,.014.542,2.971,2.971,0,0,0,.417-.1c.076-.022.151-.044.219-.06l-.188.1a6.6,6.6,0,0,0-.614.3Z" transform="translate(-738.67 -126.06)"/><path d="M767.686,143.148s.287-.765.287-.765l-.429.683.01.165Z" transform="translate(-738.672 -126.114)" fill="#2a690b"/><path d="M767.548,143.238l-.01-.174.43-.685c-.09.26-.276.75-.279.767Zm.418-.858-.421.686.01.156.124-.079s.022-.069.286-.763" transform="translate(-738.67 -126.114)"/><path d="M768.216,142.849c-.229.109-.588.266-.8.4.058-.279.111-.718.143-.988a7.15,7.15,0,0,0,.019.755,5.611,5.611,0,0,0,.639-.163" transform="translate(-738.638 -126.082)" fill="#2a690b"/><path d="M767.406,143.256l0-.01c.058-.279.111-.718.143-.988l.01.229a3.888,3.888,0,0,0,.018.526,3.056,3.056,0,0,0,.416-.105c.076-.023.151-.045.218-.062l-.183.095c-.209.1-.454.211-.616.309Zm.145-1a9.809,9.809,0,0,1-.133.979c.162-.1.4-.208.608-.3l.185-.087c-.064.025-.138.047-.214.07a2.422,2.422,0,0,1-.422.1,3.136,3.136,0,0,1-.024-.53Z" transform="translate(-738.636 -126.082)"/><path d="M767.6,143.3s.444-.674.444-.674l-.559.552-.027.168Z" transform="translate(-738.649 -126.177)" fill="#2a690b"/><path d="M767.448,143.351l.029-.174.561-.555c-.143.231-.43.662-.436.679Zm.589-.729-.553.558-.025.157.134-.042s.039-.069.443-.673" transform="translate(-738.647 -126.176)"/><path d="M768.2,142.87c-.2.163-.528.4-.713.582,0-.282-.038-.715-.059-.982a6.244,6.244,0,0,0,.174.717,5.791,5.791,0,0,0,.6-.318" transform="translate(-738.641 -126.137)" fill="#2a690b"/><path d="M767.48,143.487v-.01c0-.258-.032-.643-.053-.911l0,.007c.033.314.059.655.06.894.139-.134.352-.3.535-.442l.171-.134c-.058.04-.127.08-.2.122a2.615,2.615,0,0,1-.4.2,3,3,0,0,1-.137-.519l-.014-.067.023.065a3.639,3.639,0,0,0,.131.514,3.4,3.4,0,0,0,.388-.2c.072-.042.141-.082.2-.115l-.165.142c-.186.145-.4.314-.542.448Z" transform="translate(-738.641 -126.162)"/><path d="M767.623,143.3c-.006,0,.05-.808.05-.808l-.213.786.059.148Z" transform="translate(-738.65 -126.142)" fill="#2a690b"/><path d="M767.516,143.433l-.062-.155.213-.789c-.007.219-.045.789-.042.807Zm.151-.943-.2.788.056.138.1-.12s0-.055.05-.806" transform="translate(-738.648 -126.142)"/><path d="M768.12,142.968c-.2.162-.529.4-.714.579,0-.282-.035-.716-.056-.983a6.61,6.61,0,0,0,.171.719,5.91,5.91,0,0,0,.6-.315" transform="translate(-738.621 -126.161)" fill="#2a690b"/><path d="M767.4,143.568v-.011c0-.272-.033-.685-.054-.954v.005c.031.289.062.677.062.939.136-.131.346-.291.526-.43l.181-.142c-.057.04-.125.079-.2.119a2.709,2.709,0,0,1-.4.2,3.075,3.075,0,0,1-.132-.51l-.028-.133.037.131a3.8,3.8,0,0,0,.126.506,3.617,3.617,0,0,0,.392-.2c.071-.041.14-.08.2-.112l-.176.148c-.185.142-.4.306-.533.438Z" transform="translate(-738.62 -126.171)"/><path d="M767.556,143.489s.207-.789.207-.789l-.358.726.029.162Z" transform="translate(-738.636 -126.196)" fill="#2a690b"/><path d="M767.43,143.6l-.03-.169.358-.729c-.062.268-.2.774-.2.791Zm.327-.9-.349.73.027.151.116-.093s.013-.071.206-.788" transform="translate(-738.634 -126.196)"/><path d="M768.065,143.023c-.194.191-.5.475-.675.68-.029-.289-.114-.729-.167-1a6.652,6.652,0,0,0,.257.717,6.325,6.325,0,0,0,.585-.395" transform="translate(-738.589 -126.196)" fill="#2a690b"/><path d="M767.386,143.722v-.011c-.028-.28-.11-.7-.162-.978v0c.064.289.141.691.169.963.129-.151.329-.344.5-.51l.166-.162c-.057.048-.125.1-.2.15a2.822,2.822,0,0,1-.385.252,3.019,3.019,0,0,1-.194-.507l-.047-.144.056.141a3.637,3.637,0,0,0,.187.5,3.627,3.627,0,0,0,.378-.254c.07-.051.138-.1.2-.142l-.162.168c-.175.169-.379.365-.508.518Z" transform="translate(-738.589 -126.205)"/><path d="M767.551,143.608c-.006,0,.039-.84.039-.84l-.208.816.064.154Z" transform="translate(-738.63 -126.214)" fill="#2a690b"/><path d="M767.445,143.747l-.067-.161.207-.819c-.007.283-.034.821-.03.839Zm.14-.979-.2.818.061.144.1-.123s0-.077.039-.838" transform="translate(-738.629 -126.213)"/><path d="M767.993,143.18c-.207.171-.536.424-.722.612-.007-.292-.055-.743-.085-1.02a6.732,6.732,0,0,0,.2.744,5.955,5.955,0,0,0,.611-.336" transform="translate(-738.579 -126.215)" fill="#2a690b"/><path d="M767.266,143.8v-.01c-.007-.293-.055-.743-.085-1.02l.06.217a3.864,3.864,0,0,0,.144.525,3.473,3.473,0,0,0,.4-.22c.071-.042.14-.084.2-.118l-.172.151c-.188.151-.406.328-.544.468Zm-.085-1.03c.039.273.086.715.094,1.008.139-.139.353-.312.539-.461l.176-.144c-.057.042-.126.083-.2.125a2.733,2.733,0,0,1-.41.219,3.315,3.315,0,0,1-.15-.529Z" transform="translate(-738.578 -126.215)"/><path d="M771.187,143.96a1.476,1.476,0,1,1-1.476-1.476,1.476,1.476,0,0,1,1.476,1.476" transform="translate(-738.85 -126.14)" fill="#3e60bd"/><path d="M767.475,143.755s.293-.789.293-.789l-.439.7.011.173Z" transform="translate(-738.616 -126.265)" fill="#2a690b"/><path d="M767.335,143.846l-.012-.18.44-.7c-.092.269-.282.775-.285.792Zm.427-.882-.431.7.013.162.126-.079s.023-.074.292-.788" transform="translate(-738.615 -126.264)"/><path d="M767.993,143.214c-.185.194-.477.482-.64.691-.029-.294-.11-.74-.16-1.016a6.87,6.87,0,0,0,.243.726,6.172,6.172,0,0,0,.556-.4" transform="translate(-738.581 -126.245)" fill="#2a690b"/><path d="M767.351,143.931v-.011c-.027-.28-.1-.7-.152-.974l0,.006c.062.3.131.69.158.956.122-.157.315-.355.48-.525l.151-.158c-.053.049-.117.1-.184.152a2.656,2.656,0,0,1-.365.257,3.3,3.3,0,0,1-.186-.52l-.033-.111.042.108a3.862,3.862,0,0,0,.18.516,3.318,3.318,0,0,0,.357-.259c.067-.052.132-.1.191-.145l-.145.165c-.168.173-.364.375-.487.533Z" transform="translate(-738.582 -126.26)"/><path d="M767.483,143.794s-.035-.835-.035-.835l-.135.832.077.145Z" transform="translate(-738.612 -126.263)" fill="#2a690b"/><path d="M767.388,143.945l-.081-.152.135-.835c.019.281.04.818.044.834Zm.054-.986-.126.832.073.135.088-.134s-.007-.077-.035-.833" transform="translate(-738.61 -126.263)"/><path d="M767.868,143.3c-.178.2-.462.487-.617.7-.038-.293-.132-.74-.19-1.015a6.993,6.993,0,0,0,.266.725,5.771,5.771,0,0,0,.542-.407" transform="translate(-738.547 -126.269)" fill="#2a690b"/><path d="M767.247,144.012V144c-.038-.291-.131-.732-.188-1.008h0c.068.277.157.706.2.993.117-.157.3-.357.464-.529l.147-.16c-.05.047-.111.1-.174.149a2.693,2.693,0,0,1-.363.265,3.253,3.253,0,0,1-.2-.513l-.065-.189.073.187a3.855,3.855,0,0,0,.192.509,3.2,3.2,0,0,0,.355-.266c.063-.051.125-.1.18-.142l-.141.166a7.07,7.07,0,0,0-.47.537Z" transform="translate(-738.546 -126.272)"/><path d="M767.425,143.9c-.006,0,.093-.849.093-.849l-.249.8.05.165Z" transform="translate(-738.6 -126.287)" fill="#2a690b"/><path d="M767.316,144.028l-.053-.172.249-.8c-.024.286-.086.83-.084.849Zm.2-.976-.24.8.048.154.1-.112s0-.074.093-.847" transform="translate(-738.599 -126.287)"/><path d="M767.809,143.373c-.162.212-.423.53-.562.754-.061-.288-.188-.723-.266-.99a7,7,0,0,0,.319.694,5.633,5.633,0,0,0,.51-.458" transform="translate(-738.526 -126.309)" fill="#2a690b"/><path d="M767.245,144.146l0-.011c-.059-.28-.182-.7-.26-.97l0,0c.091.281.207.68.266.953.1-.167.274-.382.419-.568l.137-.177c-.046.053-.1.108-.161.165a2.571,2.571,0,0,1-.344.3,3.372,3.372,0,0,1-.24-.5L767,143.2l.068.137a4.142,4.142,0,0,0,.233.5,3.3,3.3,0,0,0,.336-.3c.058-.056.116-.112.168-.158l-.131.182c-.148.189-.321.41-.425.577Z" transform="translate(-738.527 -126.316)"/><path d="M767.418,144.007s-.053-.849-.053-.849l-.108.843.077.148Z" transform="translate(-738.598 -126.314)" fill="#2a690b"/><path d="M767.332,144.158,767.25,144l.108-.845c.025.286.057.832.062.848Zm.027-1-.1.843.073.139.079-.134s-.008-.076-.053-.847" transform="translate(-738.596 -126.314)"/><path d="M767.781,143.453c-.152.222-.4.555-.527.788-.075-.286-.226-.717-.318-.984a7.128,7.128,0,0,0,.355.683,6.052,6.052,0,0,0,.49-.487" transform="translate(-738.515 -126.34)" fill="#2a690b"/><path d="M767.251,144.254l0-.01c-.069-.261-.2-.642-.292-.908l-.026-.076.105.194a4.11,4.11,0,0,0,.257.485,3.638,3.638,0,0,0,.32-.318c.056-.062.112-.121.164-.171l-.122.19c-.14.2-.3.429-.4.6Zm-.32-.993.035.072c.09.263.219.637.289.9.1-.174.257-.4.394-.6l.128-.184c-.044.056-.1.116-.156.177a2.8,2.8,0,0,1-.327.317,3.324,3.324,0,0,1-.265-.487Z" transform="translate(-738.513 -126.341)"/><path d="M767.492,144.113s.087-.853.087-.853l-.243.8.05.167Z" transform="translate(-738.618 -126.341)" fill="#2a690b"/><path d="M767.382,144.238l-.053-.175.243-.8c-.021.289-.079.836-.078.854Zm.191-.979-.234.8.048.157.1-.11s0-.074.087-.852" transform="translate(-738.616 -126.34)"/><path d="M767.734,143.6c-.131.242-.345.607-.452.857-.1-.275-.289-.683-.4-.934a6.767,6.767,0,0,0,.414.63,6.051,6.051,0,0,0,.442-.553" transform="translate(-738.5 -126.409)" fill="#2a690b"/><path d="M767.282,144.474l0-.011c-.1-.271-.284-.673-.4-.925h0c.126.253.3.642.4.91.079-.183.214-.424.33-.634l.118-.214c-.038.062-.087.128-.136.2a2.992,2.992,0,0,1-.3.364,3.084,3.084,0,0,1-.3-.441l-.1-.164.11.16a3.628,3.628,0,0,0,.3.438,3.876,3.876,0,0,0,.29-.362c.05-.068.1-.134.144-.191l-.11.22c-.119.213-.256.458-.334.642Z" transform="translate(-738.499 -126.412)"/><path d="M767.422,144.223s-.237-.809-.237-.809l.081.854.108.12Z" transform="translate(-738.579 -126.38)" fill="#2a690b"/><path d="M767.374,144.4l-.114-.126-.082-.856c.087.272.237.791.246.806Zm-.2-.982.09.852.1.112.047-.156s-.024-.065-.237-.808" transform="translate(-738.577 -126.38)"/><path d="M767.72,143.728c-.137.241-.359.605-.473.855-.1-.274-.289-.68-.407-.931a6.405,6.405,0,0,0,.422.628,6.705,6.705,0,0,0,.458-.551" transform="translate(-738.49 -126.442)" fill="#2a690b"/><path d="M767.246,144.6l0-.011c-.1-.273-.29-.68-.407-.93l.124.179a3.685,3.685,0,0,0,.306.444,3.92,3.92,0,0,0,.3-.355c.053-.07.106-.139.156-.2l-.114.217c-.125.213-.267.459-.35.643Zm-.41-.941c.124.243.31.643.412.916.084-.183.223-.424.346-.634l.122-.211c-.042.063-.095.131-.149.2a2.945,2.945,0,0,1-.3.355,3.072,3.072,0,0,1-.312-.446Z" transform="translate(-738.489 -126.443)"/><path d="M767.463,144.415c-.007,0-.089-.851-.089-.851l-.079.851.086.145Z" transform="translate(-738.607 -126.419)" fill="#2a690b"/><path d="M767.38,144.569l-.088-.152.077-.854c.036.286.09.832.1.85Zm-.011-1.005-.07.851.082.137.076-.137s-.013-.074-.088-.85" transform="translate(-738.607 -126.419)"/><path d="M767.74,143.821c-.142.237-.371.6-.487.844-.1-.276-.28-.688-.393-.941a6.688,6.688,0,0,0,.412.638,6.68,6.68,0,0,0,.468-.541" transform="translate(-738.495 -126.46)" fill="#2a690b"/><path d="M767.252,144.678l0-.01c-.095-.275-.278-.685-.391-.938h0c.121.248.3.649.4.924.091-.191.246-.444.376-.658l.106-.176c-.043.062-.1.129-.153.2a2.849,2.849,0,0,1-.309.348,3.28,3.28,0,0,1-.3-.45l-.11-.182.118.177a.315.315,0,1,0,.6.1c.056-.07.11-.137.16-.194l-.1.181c-.133.217-.291.476-.381.667Z" transform="translate(-738.494 -126.462)"/><path d="M767.451,144.512s-.158-.836-.158-.836l-.007.856.1.135Z" transform="translate(-738.605 -126.448)" fill="#2a690b"/><path d="M767.383,144.676l-.1-.141.007-.859c.061.281.16.818.167.834Zm-.095-1v.855l.092.126.064-.147s-.018-.071-.158-.835" transform="translate(-738.604 -126.448)"/><path d="M767.661,143.962c-.152.229-.4.571-.526.809-.082-.283-.246-.706-.346-.967a6.767,6.767,0,0,0,.38.665,6.052,6.052,0,0,0,.493-.507" transform="translate(-738.477 -126.481)" fill="#2a690b"/><path d="M767.137,144.8l0-.01c-.078-.268-.229-.662-.33-.924l0,.006c.119.289.257.651.332.905.1-.177.254-.409.391-.608l.13-.191c-.044.058-.1.119-.157.183a2.831,2.831,0,0,1-.329.331,3.167,3.167,0,0,1-.283-.475l-.051-.095.059.09a3.8,3.8,0,0,0,.276.473,3.443,3.443,0,0,0,.321-.33c.057-.064.113-.125.165-.177l-.123.2c-.139.2-.3.44-.4.617Z" transform="translate(-738.481 -126.496)"/><path d="M767.354,144.631c-.006,0,.07-.854.07-.854l-.232.809.056.165Z" transform="translate(-738.581 -126.474)" fill="#2a690b"/><path d="M767.246,144.76l-.059-.172.232-.812c-.016.289-.064.835-.061.854Zm.172-.984-.223.812.053.154.1-.114s0-.078.07-.852" transform="translate(-738.579 -126.474)"/><path d="M767.67,144.033c-.129.247-.342.62-.447.874-.108-.27-.311-.668-.434-.913a6.47,6.47,0,0,0,.438.61,6.584,6.584,0,0,0,.442-.571" transform="translate(-738.477 -126.53)" fill="#2a690b"/><path d="M767.231,144.931l0-.01c-.1-.249-.282-.61-.406-.856l0,.006c.15.281.312.6.406.837.077-.185.209-.43.325-.645l.117-.22c-.038.064-.087.131-.137.2a2.96,2.96,0,0,1-.3.374,3.043,3.043,0,0,1-.321-.427l-.047-.069.055.065a3.41,3.41,0,0,0,.314.424,3.64,3.64,0,0,0,.289-.373c.05-.07.1-.138.145-.2l-.11.225c-.117.217-.253.468-.329.654Z" transform="translate(-738.485 -126.542)"/><path d="M767.281,144.746c-.006,0-.263-.8-.263-.8l.1.846.114.116Z" transform="translate(-738.536 -126.519)" fill="#2a690b"/><path d="M767.233,144.922l-.118-.121-.1-.849c.095.266.26.776.27.792Zm-.22-.969.108.844.107.107.047-.157s-.027-.062-.263-.794" transform="translate(-738.535 -126.519)"/><path d="M767.625,144.133c-.091.271-.245.684-.309.956-.148-.241-.407-.588-.565-.8a5.859,5.859,0,0,0,.523.5c.122-.171.243-.458.351-.657" transform="translate(-738.467 -126.566)" fill="#2a690b"/><path d="M767.317,145.1l-.006-.01c-.134-.218-.359-.522-.517-.737l-.048-.065.154.145a3.224,3.224,0,0,0,.375.352,4.263,4.263,0,0,0,.225-.42c.041-.084.081-.165.119-.234l-.066.218c-.085.246-.186.534-.235.741Zm-.57-.812.055.059c.157.212.377.511.511.729.05-.207.148-.49.232-.732l.074-.214c-.03.073-.07.154-.111.237a3.389,3.389,0,0,1-.232.423,2.839,2.839,0,0,1-.383-.352Z" transform="translate(-738.466 -126.565)"/><path d="M767.588,144.838c-.007,0-.285-.786-.285-.786l.125.842.117.111Z" transform="translate(-738.609 -126.545)" fill="#2a690b"/><path d="M767.545,145.014l-.121-.117-.126-.844c.1.263.282.766.292.782Zm-.247-.96.134.84.109.1.042-.16s-.028-.06-.284-.783" transform="translate(-738.608 -126.545)"/><path d="M767.622,144.244c-.088.272-.239.687-.3.959-.149-.239-.41-.584-.571-.8a5.883,5.883,0,0,0,.528.5,7.359,7.359,0,0,0,.345-.66" transform="translate(-738.466 -126.595)" fill="#2a690b"/><path d="M767.32,145.214l-.005-.009c-.15-.239-.41-.584-.571-.8l.159.145a3.139,3.139,0,0,0,.375.345,4.37,4.37,0,0,0,.225-.43c.039-.082.076-.16.113-.229l-.069.235c-.082.243-.177.525-.224.727Zm-.576-.8a9.472,9.472,0,0,1,.572.781c.047-.2.141-.479.221-.717l.078-.231c-.027.072-.065.151-.1.231a3.322,3.322,0,0,1-.232.433,2.747,2.747,0,0,1-.382-.344Z" transform="translate(-738.465 -126.594)"/><path d="M767.561,145.037s-.365-.734-.365-.734l.213.814.128.092Z" transform="translate(-738.582 -126.61)" fill="#2a690b"/><path d="M767.539,145.217l-.134-.1-.214-.817c.13.244.362.715.372.729Zm-.349-.912.222.811.119.085.024-.165s-.032-.053-.365-.732" transform="translate(-738.58 -126.61)"/><path d="M767.594,144.336c-.056.283-.158.716-.188.995-.175-.216-.475-.519-.658-.707a5.49,5.49,0,0,0,.58.416,7.472,7.472,0,0,0,.266-.7" transform="translate(-738.466 -126.618)" fill="#2a690b"/><path d="M767.408,145.341l-.007-.008c-.158-.194-.417-.459-.6-.648l-.057-.059.168.116a3.034,3.034,0,0,0,.417.292,4.221,4.221,0,0,0,.173-.456c.03-.088.059-.172.088-.246l-.042.242c-.053.253-.115.547-.139.755Zm-.665-.714.064.052c.181.185.436.447.594.64.024-.208.084-.5.137-.746l.05-.239c-.021.076-.049.161-.079.248a3.331,3.331,0,0,1-.18.46,2.651,2.651,0,0,1-.425-.292Z" transform="translate(-738.465 -126.618)"/><path d="M767.653,145.161c-.006,0-.2-.824-.2-.824l.032.855.1.128Z" transform="translate(-738.649 -126.619)" fill="#2a690b"/><path d="M767.59,145.329l-.108-.134-.033-.858c.073.276.2.8.2.821Zm-.14-.991.041.854.1.119.059-.151s-.023-.069-.2-.822" transform="translate(-738.647 -126.619)"/><path d="M767.607,144.455c-.03.289-.09.733-.1,1.015-.194-.191-.519-.453-.717-.615a4.982,4.982,0,0,0,.614.336c.082-.2.137-.513.2-.736" transform="translate(-738.478 -126.649)" fill="#2a690b"/><path d="M767.526,145.48l-.007-.007c-.185-.182-.487-.427-.687-.59l.005,0a8.271,8.271,0,0,1,.68.574c.005-.214.04-.517.07-.775l.026-.231c-.013.08-.034.169-.056.26a3.484,3.484,0,0,1-.134.478,2.471,2.471,0,0,1-.452-.234l-.083-.049.088.042a3.015,3.015,0,0,0,.444.236,4.231,4.231,0,0,0,.128-.474c.022-.091.043-.181.064-.259l-.016.232c-.031.262-.066.57-.07.784Z" transform="translate(-738.488 -126.649)"/><path d="M767.552,145.321s-.52-.594-.52-.594l.392.72.143.049Z" transform="translate(-738.539 -126.719)" fill="#2a690b"/><path d="M767.571,145.5l-.15-.051-.4-.722c.182.2.513.578.527.588Zm-.545-.772.4.714.134.045-.016-.167s-.043-.042-.519-.592" transform="translate(-738.538 -126.72)"/><path d="M767.62,144.591c-.03.289-.093.732-.1,1.015-.193-.193-.517-.457-.716-.62a5.082,5.082,0,0,0,.614.341c.082-.2.139-.513.2-.735" transform="translate(-738.481 -126.684)" fill="#2a690b"/><path d="M767.536,145.616l-.007-.007c-.182-.183-.484-.43-.683-.594l.005,0a8.287,8.287,0,0,1,.677.577c.005-.207.039-.5.069-.749l.03-.255c-.013.077-.033.163-.054.252a3.48,3.48,0,0,1-.139.485,2.562,2.562,0,0,1-.45-.237l-.08-.047.085.039a2.96,2.96,0,0,0,.442.24,4.338,4.338,0,0,0,.133-.481c.021-.089.042-.175.063-.251l-.02.257c-.03.256-.065.551-.07.758Z" transform="translate(-738.491 -126.684)"/><path d="M767.674,145.465c-.006,0-.4-.717-.4-.717l.251.8.132.086Z" transform="translate(-738.602 -126.725)" fill="#2a690b"/><path d="M767.658,145.647l-.137-.091-.253-.806c.114.191.393.7.407.711Zm-.39-.9.259.8.124.08.016-.166s-.036-.052-.4-.714" transform="translate(-738.6 -126.725)"/><path d="M767.66,144.751c-.019.29-.063.737-.057,1.02-.2-.18-.536-.425-.74-.576a5,5,0,0,0,.626.3c.073-.2.118-.521.171-.747" transform="translate(-738.496 -126.725)" fill="#2a690b"/><path d="M767.619,145.781l-.008-.007c-.191-.17-.5-.4-.706-.55h.005a8.423,8.423,0,0,1,.7.535c0-.21.02-.506.039-.762l.018-.249c-.01.08-.027.169-.045.261a3.683,3.683,0,0,1-.117.488,2.458,2.458,0,0,1-.457-.208l-.081-.042.085.034a2.87,2.87,0,0,0,.45.211,4.709,4.709,0,0,0,.111-.484c.018-.092.035-.181.053-.26l-.009.249c-.02.26-.043.562-.039.772Z" transform="translate(-738.507 -126.725)"/><path d="M767.71,145.672s-.494-.626-.494-.626l.359.743.141.058Z" transform="translate(-738.587 -126.802)" fill="#2a690b"/><path d="M767.72,145.856l-.148-.06-.362-.746c.172.206.487.608.5.62Zm-.509-.8.367.739.131.053-.005-.168s-.043-.045-.493-.624" transform="translate(-738.585 -126.803)"/><path d="M767.666,144.93c-.017.291-.056.738-.049,1.021-.2-.179-.538-.42-.745-.57a5.024,5.024,0,0,0,.628.3,7.458,7.458,0,0,0,.165-.749" transform="translate(-738.498 -126.772)" fill="#2a690b"/><path d="M767.621,145.961l-.008-.007c-.2-.179-.538-.42-.745-.569l.183.084a2.872,2.872,0,0,0,.45.206,4.648,4.648,0,0,0,.11-.5c.016-.088.033-.174.049-.249l-.006.231c-.018.264-.039.576-.034.791Zm-.752-.576a8.191,8.191,0,0,1,.742.556c0-.216.016-.522.035-.782l.015-.229c-.007.076-.024.162-.04.25a3.543,3.543,0,0,1-.117.5,2.479,2.479,0,0,1-.456-.2Z" transform="translate(-738.497 -126.771)"/><path d="M767.819,145.771s-.346-.755-.346-.755l.193.827.125.1Z" transform="translate(-738.653 -126.794)" fill="#2a690b"/><path d="M767.792,145.951l-.13-.1-.194-.829c.123.251.344.737.355.751Zm-.324-.933.2.824.118.092.027-.162s-.032-.058-.346-.753" transform="translate(-738.652 -126.794)"/><path d="M767.7,145.047c.01.292.012.743.045,1.023-.216-.151-.573-.346-.79-.467a4.755,4.755,0,0,0,.651.211c.052-.214.064-.535.094-.768" transform="translate(-738.52 -126.802)" fill="#2a690b"/><path d="M767.761,146.078l-.009-.006c-.206-.143-.539-.328-.758-.449H767a7.624,7.624,0,0,1,.75.435c-.024-.208-.03-.5-.036-.762l-.007-.252c0,.082-.01.174-.019.268a3.783,3.783,0,0,1-.066.5,2.284,2.284,0,0,1-.473-.142l-.1-.034.1.025a2.731,2.731,0,0,0,.466.145,4.75,4.75,0,0,0,.062-.5c.008-.093.016-.185.027-.267l.016.253c.006.261.013.563.038.771Z" transform="translate(-738.53 -126.801)"/><path d="M767.8,145.844c0,.005-.633-.433-.633-.433l.536.591.149.007Z" transform="translate(-738.575 -126.896)" fill="#2a690b"/><path d="M767.862,146.015l-.156-.007-.54-.593c.175.111.619.419.636.426Zm-.7-.6.542.585.139.005-.051-.159c-.01,0-.4-.27-.631-.431" transform="translate(-738.574 -126.897)"/><path d="M767.737,145.09c.025.29.05.74.1,1.018-.225-.142-.591-.323-.816-.436a4.895,4.895,0,0,0,.663.187c.042-.216.038-.536.055-.769" transform="translate(-738.536 -126.813)" fill="#2a690b"/><path d="M767.857,146.117l-.009-.005c-.211-.134-.546-.3-.772-.414h.006a7.723,7.723,0,0,1,.762.4c-.035-.213-.059-.52-.078-.781l-.018-.228c0,.077,0,.164,0,.254a3.749,3.749,0,0,1-.043.516,2.4,2.4,0,0,1-.481-.124l-.078-.024.081.016a2.811,2.811,0,0,0,.474.127,4.56,4.56,0,0,0,.037-.51c0-.09.007-.177.013-.254l.027.228c.02.265.044.577.08.789Z" transform="translate(-738.551 -126.813)"/><path d="M767.93,146s-.527-.605-.527-.605l.4.727.145.053Z" transform="translate(-738.635 -126.892)" fill="#2a690b"/><path d="M767.951,146.183l-.151-.056-.4-.729c.182.2.519.589.533.6Zm-.553-.784.407.723.136.048-.016-.167s-.045-.043-.527-.6" transform="translate(-738.634 -126.892)"/><path d="M767.809,145.239c.036.289.081.737.14,1.013-.23-.129-.6-.287-.832-.386a5.023,5.023,0,0,0,.668.146c.033-.218.014-.539.023-.773" transform="translate(-738.562 -126.851)" fill="#2a690b"/><path d="M767.967,146.261l-.009,0c-.22-.123-.568-.273-.8-.372h.006a7.609,7.609,0,0,1,.788.358c-.044-.214-.082-.527-.113-.789l-.025-.214c.006.08.007.171.007.265a3.513,3.513,0,0,1-.021.508,2.277,2.277,0,0,1-.474-.092l-.1-.026.1.016a2.687,2.687,0,0,0,.468.1,4.417,4.417,0,0,0,.016-.5c0-.094,0-.185,0-.266l.035.214c.031.267.068.585.114.8Z" transform="translate(-738.573 -126.851)"/><path d="M768.039,146.195s-.628-.444-.628-.444l.529.6.149.011Z" transform="translate(-738.637 -126.984)" fill="#2a690b"/><path d="M768.094,146.368l-.156-.011-.533-.6c.216.144.617.43.633.436Zm-.688-.611.536.593.139.009-.048-.16c-.009,0-.345-.24-.626-.441" transform="translate(-738.636 -126.985)"/><path d="M767.851,145.4c.056.286.131.73.208,1-.237-.107-.619-.231-.852-.307a4.667,4.667,0,0,0,.674.082c.017-.221-.023-.54-.03-.775" transform="translate(-738.585 -126.894)" fill="#2a690b"/><path d="M768.079,146.412l-.01,0c-.226-.1-.582-.218-.816-.3h.005a7.69,7.69,0,0,1,.806.283c-.057-.2-.113-.5-.159-.752l-.046-.239c.012.081.019.174.024.268a3.643,3.643,0,0,1,.015.507,2.543,2.543,0,0,1-.483-.047l-.1-.016.1.006a2.914,2.914,0,0,0,.444.053,1.588,1.588,0,0,0,.015-.5c-.007-.095-.014-.187-.016-.269l.054.238c.049.258.1.558.163.76Z" transform="translate(-738.596 -126.894)"/><path d="M768.17,146.255s-.52-.616-.52-.616l.39.734.144.055Z" transform="translate(-738.699 -126.955)" fill="#2a690b"/><path d="M768.185,146.436l-.15-.058-.392-.737c.181.2.513.6.527.61Zm-.542-.794.4.729.134.05-.013-.165s-.043-.044-.519-.614" transform="translate(-738.697 -126.955)"/><path d="M767.923,145.511c.082.277.2.712.3.972-.245-.076-.631-.149-.87-.194a4.605,4.605,0,0,0,.674-.007c0-.223-.073-.536-.1-.771" transform="translate(-738.622 -126.922)" fill="#2a690b"/><path d="M768.235,146.49l-.01,0c-.239-.073-.614-.145-.854-.191h0a7.088,7.088,0,0,1,.844.18c-.074-.192-.154-.476-.225-.721l-.07-.242c.018.079.034.171.049.264a3.413,3.413,0,0,1,.061.505,2.058,2.058,0,0,1-.485.016l-.136,0,.137-.005a2.781,2.781,0,0,0,.48-.011,4.774,4.774,0,0,0-.065-.5c-.016-.093-.03-.185-.041-.266l.079.24c.07.249.153.536.228.729Z" transform="translate(-738.627 -126.922)"/><path d="M768.135,146.416c0,.006-.726-.156-.726-.156l.69.343.141-.052Z" transform="translate(-738.637 -127.115)" fill="#2a690b"/><path d="M768.1,146.61l-.692-.344c.245.045.707.147.728.147l.108.137Zm-.691-.344.691.333.139-.051-.106-.128c-.015,0-.7-.148-.723-.154" transform="translate(-738.636 -127.116)"/><path d="M767.987,145.627c.08.278.194.713.294.973-.244-.077-.632-.152-.87-.2a4.528,4.528,0,0,0,.674,0c0-.223-.07-.536-.1-.771" transform="translate(-738.637 -126.951)" fill="#2a690b"/><path d="M768.308,146.607l-.01,0c-.228-.071-.58-.141-.819-.188h.006a7.467,7.467,0,0,1,.807.177c-.076-.2-.157-.488-.228-.737l-.065-.226c.018.077.033.165.047.255a3.645,3.645,0,0,1,.06.514,1.933,1.933,0,0,1-.482.013l-.075,0,.075-.007c.081,0,.164.006.243.006a1.412,1.412,0,0,0,.234-.015,4.9,4.9,0,0,0-.064-.508c-.015-.091-.029-.179-.039-.257l.073.225c.07.253.154.549.231.746Z" transform="translate(-738.655 -126.952)"/><path d="M768.306,146.456c0,.005-.694-.335-.694-.335l.622.505.15-.014Z" transform="translate(-738.689 -127.079)" fill="#2a690b"/><path d="M768.231,146.632l-.623-.506c.191.084.679.323.7.327l.081.158Zm-.622-.506.625.5.147-.013-.08-.149c-.014,0-.533-.255-.692-.334" transform="translate(-738.688 -127.08)"/><path d="M768,145.693c.138.254.339.654.493.884-.254-.019-.648,0-.89,0a4.606,4.606,0,0,0,.655-.155c-.05-.218-.181-.509-.258-.732" transform="translate(-738.687 -126.969)" fill="#2a690b"/><path d="M767.6,146.585v0h.01l-.01,0h0l.188-.039a2.682,2.682,0,0,0,.466-.116,4.772,4.772,0,0,0-.168-.479c-.034-.087-.068-.171-.094-.248l.12.206c.122.231.266.5.381.674-.251,0-.615,0-.858.009l-.015,0ZM768,145.7c.034.073.068.157.1.244a3.821,3.821,0,0,1,.165.484,2.307,2.307,0,0,1-.47.122l-.135.027c.244-.008.6-.019.835,0a6.667,6.667,0,0,1-.385-.668Z" transform="translate(-738.687 -126.969)"/><path d="M768.443,146.607c0,.006-.722-.2-.722-.2l.678.384.142-.044Z" transform="translate(-738.717 -127.153)" fill="#2a690b"/><path d="M768.4,146.8h0l-.678-.383c.2.046.7.19.723.191l.1.142Zm-.679-.384.68.374.139-.043-.1-.134c-.006.007-.646-.176-.72-.2" transform="translate(-738.717 -127.154)"/><path d="M768.1,145.838c.14.253.344.651.5.881-.254-.017-.648,0-.89.01a4.565,4.565,0,0,0,.654-.161c-.05-.217-.184-.507-.263-.73" transform="translate(-738.714 -127.006)" fill="#2a690b"/><path d="M767.711,146.734v0h.006l-.006,0h0l.192-.041a2.614,2.614,0,0,0,.461-.119,4.418,4.418,0,0,0-.174-.486c-.033-.084-.065-.165-.092-.239l.134.229c.122.224.259.481.372.648-.082,0-.173,0-.269,0-.208,0-.438.01-.6.016l-.006,0Zm.387-.893c.034.07.067.151.1.234a3.91,3.91,0,0,1,.171.493,2.242,2.242,0,0,1-.465.125l-.139.03c.243-.01.6-.024.835-.008a6.635,6.635,0,0,1-.377-.643Z" transform="translate(-738.714 -127.006)"/><path d="M768.584,146.616s-.671-.4-.671-.4l.587.562h.151Z" transform="translate(-738.767 -127.103)" fill="#2a690b"/><path d="M768.656,146.783H768.5l-.59-.563c.23.129.66.389.674.395Zm-.746-.564.592.554h.141l-.065-.154c-.008,0-.422-.25-.668-.4" transform="translate(-738.766 -127.104)"/><path d="M768.209,145.924c.161.235.4.609.573.82-.25.016-.634.085-.872.126a4.506,4.506,0,0,0,.627-.247c-.07-.212-.23-.486-.329-.7" transform="translate(-738.766 -127.028)" fill="#2a690b"/><path d="M767.912,146.875v0l.006,0-.007,0h0l.178-.063a2.7,2.7,0,0,0,.448-.183,4.343,4.343,0,0,0-.214-.458c-.042-.082-.083-.162-.117-.236l.139.189c.144.215.312.467.443.626-.246.022-.616.088-.854.13h-.007Zm.294-.948c.042.068.082.149.125.231a3.815,3.815,0,0,1,.212.464,2.349,2.349,0,0,1-.451.189l-.128.045c.239-.042.586-.1.819-.116a6.366,6.366,0,0,1-.447-.619Z" transform="translate(-738.766 -127.029)"/><path d="M768.632,146.829c0,.006-.725-.017-.725-.017l.717.212.128-.079Z" transform="translate(-738.765 -127.257)" fill="#2a690b"/><path d="M768.625,147.029l-.72-.213c0-.009.575.01.7.01l.008.007c-.161.005-.709-.016-.709-.016l.717.2.126-.078-.033-.029.038.03Z" transform="translate(-738.765 -127.258)"/><path d="M769.42,142.067l.522-.087-.519.012-.09.047Z" transform="translate(-739.133 -126.01)" fill="#2a690b"/><path d="M769.419,142.07l-.088-.028.089-.055.521-.013c0,.009-.508.092-.52.1Zm.521-.1-.518.022-.088.045.086.021c.019-.006.111-.021.519-.088" transform="translate(-739.133 -126.009)"/><path d="M769.651,142.106c-.151-.045-.38-.122-.535-.156.165-.066.409-.182.559-.254-.116.073-.284.166-.374.239a3.487,3.487,0,0,0,.349.171" transform="translate(-739.077 -125.937)" fill="#2a690b"/><path d="M769.649,142.109l-.139-.043c-.132-.041-.283-.088-.4-.113.164-.074.406-.189.556-.261h0a6.027,6.027,0,0,1-.554.261,2.834,2.834,0,0,1,.4.1l.074.022-.056-.025a1.77,1.77,0,0,1-.232-.117,1.719,1.719,0,0,1,.266-.18l.1-.064-.1.072a2.475,2.475,0,0,0-.266.172c.057.032.146.071.231.109l.118.054Z" transform="translate(-739.077 -125.936)"/><path d="M769.387,142.074l.5-.139-.523.067-.079.055Z" transform="translate(-739.122 -125.999)" fill="#2a690b"/><path d="M769.388,142.076l-.1-.017.076-.062.525-.068c0,.009-.487.14-.5.147Zm.5-.147-.521.076-.076.053.095.01c.018-.007.1-.03.5-.139" transform="translate(-739.122 -125.997)"/><path d="M769.653,142.13c-.177-.016-.448-.05-.623-.053.132-.116.316-.311.429-.43a3.955,3.955,0,0,0-.249.368c.119.047.309.079.444.115" transform="translate(-739.055 -125.924)" fill="#2a690b"/><path d="M769.652,142.133l-.151-.016c-.158-.016-.341-.036-.472-.037.128-.122.309-.315.422-.435v0a4.976,4.976,0,0,1-.418.431,3.652,3.652,0,0,1,.47.03l.082.009-.09-.022a2.267,2.267,0,0,1-.288-.078,1.474,1.474,0,0,1,.167-.263l.073-.1-.065.107a1.972,1.972,0,0,0-.168.255c.075.024.182.048.284.071l.157.037Z" transform="translate(-739.055 -125.924)"/><path d="M769.139,142.143l.526-.059-.511-.016-.1.042Z" transform="translate(-739.062 -126.033)" fill="#2a690b"/><path d="M769.138,142.147l-.082-.033.095-.05.513.015c0,.009-.51.065-.525.069Z" transform="translate(-739.062 -126.032)"/><path d="M769.494,142.189c-.162-.03-.406-.084-.57-.1.155-.076.381-.207.519-.286a4.2,4.2,0,0,0-.334.256c.1.049.269.093.384.134" transform="translate(-739.028 -125.964)" fill="#2a690b"/><path d="M769.493,142.193l-.146-.029c-.142-.028-.3-.06-.424-.074.151-.082.372-.211.51-.291l0,0a5.771,5.771,0,0,1-.5.289,3.2,3.2,0,0,1,.422.066l.072.014-.056-.019a2.018,2.018,0,0,1-.257-.092,1.525,1.525,0,0,1,.229-.188l.088-.065-.082.072a2.321,2.321,0,0,0-.23.18c.065.025.162.056.255.084l.128.042Z" transform="translate(-739.027 -125.964)"/><path d="M769.07,142.094l.462-.2-.508.134-.059.062Z" transform="translate(-739.038 -125.988)" fill="#2a690b"/><path d="M769.07,142.1l-.1,0,.056-.07.51-.134c0,.009-.445.2-.458.206Zm.461-.208-.5.142-.057.061.1,0c.016-.009.091-.042.461-.2" transform="translate(-739.038 -125.987)"/><path d="M769.507,142.211c-.134-.056-.339-.149-.471-.188.1-.1.246-.262.336-.365a2.908,2.908,0,0,0-.2.337,3.57,3.57,0,0,0,.333.217" transform="translate(-739.057 -125.927)" fill="#2a690b"/><path d="M769.505,142.218l-.1-.042c-.123-.053-.269-.116-.372-.146.1-.1.236-.26.326-.363l0,0a3.572,3.572,0,0,1-.32.359,2.438,2.438,0,0,1,.371.139l.044.019-.062-.039a1.75,1.75,0,0,1-.22-.147,1.4,1.4,0,0,1,.138-.249l.044-.07-.036.074a1.691,1.691,0,0,0-.138.243,2.328,2.328,0,0,0,.218.141l.113.07Z" transform="translate(-739.056 -125.929)"/><path d="M769.114,142.156s.359-.156.359-.156l-.391.053-.047.07Z" transform="translate(-739.056 -126.015)" fill="#2a690b"/><path d="M769.114,142.159l-.082-.033.046-.076.394-.056c-.137.068-.347.157-.356.163Zm.357-.165-.389.062-.045.068.076.025c.013-.007.075-.035.358-.155" transform="translate(-739.056 -126.014)"/><path d="M768.476,146.745c0,.006-.745.006-.745.006l.755.185.123-.082Z" transform="translate(-738.72 -127.24)" fill="#2a690b"/><path d="M768.487,146.939l-.757-.185c.2-.009.726-.01.744-.014l.138.11Zm-.013-.191s-.077.006-.743.006l.755.176.122-.08Z" transform="translate(-738.72 -127.239)"/><path d="M768.654,146.749c0,.006-.757-.175-.757-.175l.726.355.142-.045Z" transform="translate(-738.763 -127.196)" fill="#2a690b"/><path d="M768.622,146.936h0l-.726-.355c.256.052.739.167.758.167l.116.136Zm-.726-.356.726.346.141-.045-.114-.128c-.029,0-.724-.166-.754-.174" transform="translate(-738.762 -127.197)"/><path d="M768.823,146.866c0,.006-.752-.038-.752-.038l.752.226.128-.073Z" transform="translate(-738.808 -127.261)" fill="#2a690b"/><path d="M768.823,147.06l-.755-.226c0-.012.663.029.745.029l.139.116Zm-.753-.226.752.217.126-.073-.128-.108C768.7,146.858,768.07,146.833,768.07,146.833Z" transform="translate(-738.807 -127.262)"/><path d="M768.382,146.163c.194.215.487.559.693.749-.252.038-.632.139-.867.2a4.49,4.49,0,0,0,.6-.3c-.1-.2-.3-.453-.427-.653" transform="translate(-738.843 -127.09)" fill="#2a690b"/><path d="M768.209,147.119v0l.009,0h-.011l.173-.078a2.583,2.583,0,0,0,.427-.22,4.688,4.688,0,0,0-.279-.429c-.053-.076-.105-.15-.148-.217l.157.163c.176.2.384.434.541.579-.243.044-.6.139-.838.2h-.012Zm.169-.952c.051.062.1.137.156.212a3.829,3.829,0,0,1,.279.436,2.308,2.308,0,0,1-.431.226l-.123.055c.236-.062.58-.153.814-.188a6.9,6.9,0,0,1-.545-.572Z" transform="translate(-738.842 -127.091)"/><path d="M768.963,146.844c0,.005-.751-.246-.751-.246l.706.419.148-.031Z" transform="translate(-738.844 -127.202)" fill="#2a690b"/><path d="M768.916,147.024h0l-.706-.419c.255.076.735.235.753.237l.106.145Zm-.706-.42.708.41.146-.03-.105-.136c-.019,0-.674-.219-.749-.244" transform="translate(-738.843 -127.204)"/><path d="M768.512,146.229c.213.194.533.507.754.673-.243.07-.6.22-.824.312a4.346,4.346,0,0,0,.555-.376c-.119-.191-.339-.422-.485-.608" transform="translate(-738.903 -127.107)" fill="#2a690b"/><path d="M768.443,147.219l0,0,.005,0h-.007l.159-.1a2.607,2.607,0,0,0,.4-.275,4.251,4.251,0,0,0-.315-.4c-.061-.071-.12-.142-.171-.206l.188.162c.189.177.408.381.571.5-.237.076-.585.22-.806.312h-.005Zm.065-.985c.057.059.117.128.177.2a3.665,3.665,0,0,1,.315.4,2.256,2.256,0,0,1-.4.283l-.113.071c.222-.092.548-.226.773-.291a6.307,6.307,0,0,1-.574-.5Z" transform="translate(-738.903 -127.108)"/><path d="M769.059,146.992c0,.006-.712.14-.712.14l.751.051.105-.1Z" transform="translate(-738.879 -127.304)" fill="#2a690b"/><path d="M769.1,147.187h0l-.751-.051c.191-.045.693-.14.709-.148l.149.087Zm-.042-.191s-.056.017-.709.14l.749.042.1-.1Z" transform="translate(-738.879 -127.302)"/><path d="M768.847,146.931c0,.006-.743.057-.743.057l.766.132.117-.089Z" transform="translate(-738.816 -127.288)" fill="#2a690b"/><path d="M768.872,147.123l-.769-.132c.2-.023.725-.06.742-.065l.145.1Zm-.026-.189s-.074.011-.742.057l.765.123.116-.088Z" transform="translate(-738.816 -127.287)"/><path d="M769.023,146.941c0,.006-.768-.123-.768-.123l.752.3.139-.055Z" transform="translate(-738.855 -127.259)" fill="#2a690b"/><path d="M769.007,147.13h0l-.752-.3c.013-.007.737.115.768.114l.128.128Zm-.753-.306.753.3.137-.055-.125-.119h0c-.039,0-.735-.117-.765-.122" transform="translate(-738.855 -127.26)"/><path d="M769.2,147.041c0,.006-.754.015-.754.015l.767.173.123-.081Z" transform="translate(-738.905 -127.316)" fill="#2a690b"/><path d="M769.216,147.232l-.769-.173c.2-.012.735-.019.753-.023l.14.107Zm-.016-.188s-.076.007-.752.015l.766.164.122-.08Z" transform="translate(-738.905 -127.315)"/><path d="M768.734,146.372c.211.2.529.523.748.7-.249.056-.62.183-.849.262a4.622,4.622,0,0,0,.579-.338c-.116-.193-.334-.432-.477-.621" transform="translate(-738.952 -127.144)" fill="#2a690b"/><path d="M768.633,147.336l0,0,0,0h-.007l.171-.092a2.668,2.668,0,0,0,.407-.246,4.993,4.993,0,0,0-.312-.407c-.059-.072-.117-.143-.166-.207l.185.165c.188.183.406.395.57.525-.245.062-.6.185-.834.264h-.005Zm.1-.96c.056.059.113.129.172.2a3.759,3.759,0,0,1,.311.415,2.242,2.242,0,0,1-.409.252l-.122.066c.23-.079.566-.192.8-.244a6.474,6.474,0,0,1-.573-.519Z" transform="translate(-738.952 -127.145)"/><path d="M769.339,147.015c0,.006-.768-.193-.768-.193l.736.369.145-.041Z" transform="translate(-738.937 -127.26)" fill="#2a690b"/><path d="M769.306,147.2l-.738-.37c.259.057.748.183.769.184l.117.137Zm-.737-.37.738.361.142-.041-.115-.128c-.027,0-.735-.183-.766-.191" transform="translate(-738.936 -127.261)"/><path d="M768.866,146.431c.228.179.571.468.8.62-.236.086-.582.26-.8.367A4.539,4.539,0,0,0,769.4,147c-.134-.183-.37-.4-.53-.574" transform="translate(-739.013 -127.159)" fill="#2a690b"/><path d="M768.874,147.422l0,0,.01-.007-.013,0,.157-.115a2.549,2.549,0,0,0,.367-.3,4.562,4.562,0,0,0-.349-.381c-.064-.065-.127-.128-.181-.188l.2.151c.2.162.435.35.606.462-.224.09-.546.25-.762.357Zm-.012-.986c.06.052.122.116.187.181a3.847,3.847,0,0,1,.35.387,2.287,2.287,0,0,1-.368.3l-.116.084c.216-.107.531-.263.751-.344a6.454,6.454,0,0,1-.608-.454Z" transform="translate(-739.012 -127.16)"/><path d="M769.45,147.138c0,.006-.7.189-.7.189h.753l.1-.111Z" transform="translate(-738.983 -127.341)" fill="#2a690b"/><path d="M768.748,147.331v-.009c.19-.05.684-.18.7-.188l.156.076-.1.118Zm.7-.189s-.07.024-.665.18h.717l.095-.11Z" transform="translate(-738.982 -127.34)"/><path d="M770.6,145.035l-.8-.553-.8.553.3-.885-.7-.553h.9l.3-.886.3.886h.9l-.7.553Z" transform="translate(-738.944 -126.199)" fill="#f5cd28"/><path d="M770.611,145.046l-.813-.561-.794.553.292-.89-.7-.549.9-.008.3-.882.31.885.9,0-.7.562Zm-.815-2.334-.292.885-.905,0,.7.545-.3.89.792-.559.8.545-.3-.872.7-.558-.9.008Z" transform="translate(-738.943 -126.198)"/><path d="M774.238,145.664l.258.1.429-.079-.033.088-.223.039c-.041.007-.082.013-.123.017.026.027.055.061.085.1l.141.171-.03.083-.272-.345-.258-.1Z" transform="translate(-740.392 -126.961)" fill="#f8e72a"/><path d="M774.991,144.2l.007.076-.372.041a.462.462,0,0,1-.157,0,.18.18,0,0,1-.1-.06.227.227,0,0,1-.05-.13.252.252,0,0,1,.017-.135.172.172,0,0,1,.082-.082.507.507,0,0,1,.16-.04l.372-.041.009.076-.372.041a.418.418,0,0,0-.123.027.124.124,0,0,0-.056.054.146.146,0,0,0-.012.085.148.148,0,0,0,.056.114.274.274,0,0,0,.168.018Z" transform="translate(-740.419 -126.486)" fill="#f8e72a"/><path d="M774.43,143.2l.073-.016.049.24-.236.048a.418.418,0,0,1-.1-.1.314.314,0,0,1-.05-.115.3.3,0,0,1,.01-.16.255.255,0,0,1,.095-.126.4.4,0,0,1,.164-.068.431.431,0,0,1,.18,0,.258.258,0,0,1,.141.075.291.291,0,0,1,.07.142.261.261,0,0,1,0,.115.176.176,0,0,1-.046.09.269.269,0,0,1-.095.064l-.034-.062a.258.258,0,0,0,.07-.048.116.116,0,0,0,.033-.062.189.189,0,0,0,0-.082.2.2,0,0,0-.035-.085.167.167,0,0,0-.059-.05.228.228,0,0,0-.07-.024.4.4,0,0,0-.133,0,.366.366,0,0,0-.137.055.185.185,0,0,0-.07.093.211.211,0,0,0-.006.111.206.206,0,0,0,.04.091.22.22,0,0,0,.059.061l.119-.024Z" transform="translate(-740.38 -126.247)" fill="#f8e72a"/><path d="M770.851,140.318l.111-.64.076.013-.1.565.278.049-.013.076Z" transform="translate(-739.525 -125.416)" fill="#f8e72a"/><path d="M770,140.257v-.65h.416v.077h-.341v.2h.318v.077h-.318v.22h.353v.077Z" transform="translate(-739.305 -125.398)" fill="#f8e72a"/><path d="M767.4,140.935l.071-.033a.29.29,0,0,1,.04.179.224.224,0,0,1-.079.141.258.258,0,0,1-.143.067.276.276,0,0,1-.148-.037.488.488,0,0,1-.136-.113.413.413,0,0,1-.09-.157.255.255,0,0,1,.081-.272.22.22,0,0,1,.142-.056.27.27,0,0,1,.154.053l-.044.064a.215.215,0,0,0-.111-.04.141.141,0,0,0-.094.037.17.17,0,0,0-.061.1.2.2,0,0,0,.014.114.486.486,0,0,0,.178.2.177.177,0,0,0,.111.026.164.164,0,0,0,.094-.04.149.149,0,0,0,.055-.1.211.211,0,0,0-.033-.134" transform="translate(-738.506 -125.668)" fill="#f8e72a"/><path d="M767.036,141.634l-.484-.435.052-.056.482.434Z" transform="translate(-738.416 -125.794)" fill="#f8e72a"/><path d="M766.6,142.142l-.514-.4.046-.061.453.349.174-.225.061.047Z" transform="translate(-738.296 -125.934)" fill="#f8e72a"/><path d="M765.431,142.793l.029-.071.348.139a.488.488,0,0,1,.137.075.185.185,0,0,1,.062.1.23.23,0,0,1-.017.139.245.245,0,0,1-.077.111.179.179,0,0,1-.111.035.5.5,0,0,1-.161-.04l-.349-.138.029-.07.347.137a.422.422,0,0,0,.122.033.115.115,0,0,0,.076-.022.184.184,0,0,0,.055-.2.278.278,0,0,0-.14-.094Z" transform="translate(-738.09 -126.202)" fill="#f8e72a"/><path d="M765.764,144.788l-.649.006,0-.418h.077l0,.341.2,0V144.4h.076l0,.318h.221l0-.353h.076Z" transform="translate(-738.043 -126.624)" fill="#f8e72a"/><path d="M769.218,140.368l-.129-.637.194-.039a.424.424,0,0,1,.1-.011.2.2,0,0,1,.093.029.283.283,0,0,1,.089.1.511.511,0,0,1,.052.148.49.49,0,0,1,.012.131.318.318,0,0,1-.021.1.2.2,0,0,1-.039.068.184.184,0,0,1-.061.045.331.331,0,0,1-.088.029Zm.059-.091.12-.024a.285.285,0,0,0,.085-.03.116.116,0,0,0,.044-.043.2.2,0,0,0,.026-.089.434.434,0,0,0-.01-.126.309.309,0,0,0-.061-.147.144.144,0,0,0-.084-.058.259.259,0,0,0-.1.006l-.119.024Z" transform="translate(-739.07 -125.417)" fill="#f8e72a"/><path d="M772.092,140.755l.3-.576.192.1a.611.611,0,0,1,.075.046.158.158,0,0,1,.048.06.138.138,0,0,1,.012.076.208.208,0,0,1-.025.087.215.215,0,0,1-.107.1.211.211,0,0,1-.176-.027l-.131-.068-.122.234Zm.227-.267.132.069a.136.136,0,0,0,.106.021.117.117,0,0,0,.068-.063.131.131,0,0,0,.016-.07.081.081,0,0,0-.025-.056.3.3,0,0,0-.061-.039l-.13-.068Z" transform="translate(-739.845 -125.545)" fill="#f8e72a"/><path d="M772.54,141.07l.6-.336.061.055-.259.642-.064-.059.081-.191-.18-.161-.178.1Zm.3-.088.145.131.076-.174c.023-.053.043-.095.059-.127a.886.886,0,0,1-.106.071Z" transform="translate(-739.961 -125.689)" fill="#f8e72a"/><path d="M773.167,141.638l.516-.4.155.2a.308.308,0,0,1,.058.1.148.148,0,0,1-.01.088.207.207,0,0,1-.064.078.177.177,0,0,1-.116.04.2.2,0,0,1-.123-.061.188.188,0,0,1,0,.056.443.443,0,0,1-.03.1l-.079.188-.058-.076.061-.142c.017-.042.03-.075.038-.1a.173.173,0,0,0,.01-.057.1.1,0,0,0-.007-.038.142.142,0,0,0-.023-.036l-.053-.07-.229.175Zm.335-.16.1.13a.208.208,0,0,0,.058.057.094.094,0,0,0,.059.012.108.108,0,0,0,.055-.024.1.1,0,0,0,.042-.069.124.124,0,0,0-.033-.093l-.111-.145Z" transform="translate(-740.123 -125.82)" fill="#f8e72a"/><path d="M773.636,142.331l.675-.124.039.072-.452.522-.042-.076.139-.154-.118-.21-.2.04Zm.315.015.094.171.128-.14c.039-.043.072-.076.1-.1a.818.818,0,0,1-.123.033Z" transform="translate(-740.244 -126.069)" fill="#f8e72a"/><path d="M774.386,144.642l.623.287-.007.082-.671.168.009-.087.2-.047.024-.239-.188-.083Zm.249.193-.022.194.185-.041c.056-.013.1-.021.139-.027a1.067,1.067,0,0,1-.12-.045Z" transform="translate(-740.423 -126.697)" fill="#f8e72a"/><path d="M765.886,145.57l-.634.141-.056-.25a.292.292,0,0,1-.007-.118.119.119,0,0,1,.046-.076.2.2,0,0,1,.09-.045.183.183,0,0,1,.123.014.187.187,0,0,1,.084.107.274.274,0,0,1,.022-.052.488.488,0,0,1,.07-.08l.151-.137.021.094-.116.1c-.033.03-.059.055-.076.073a.192.192,0,0,0-.035.047.09.09,0,0,0-.009.038.193.193,0,0,0,.006.042l.019.088.283-.062Zm-.371,0-.035-.16a.22.22,0,0,0-.03-.077.088.088,0,0,0-.047-.036.115.115,0,0,0-.059,0,.1.1,0,0,0-.068.045.13.13,0,0,0-.009.1l.039.178Z" transform="translate(-738.063 -126.809)" fill="#f8e72a"/><path d="M765.8,143.994l-.648-.056.019-.216a.5.5,0,0,1,.014-.087.148.148,0,0,1,.036-.068.143.143,0,0,1,.067-.04.21.21,0,0,1,.09-.01.215.215,0,0,1,.136.059.209.209,0,0,1,.042.174l-.013.147.263.022Zm-.333-.105.013-.148a.147.147,0,0,0-.022-.108.115.115,0,0,0-.084-.038.131.131,0,0,0-.071.012.082.082,0,0,0-.042.045.226.226,0,0,0-.013.07l-.012.147Z" transform="translate(-738.053 -126.407)" fill="#f8e72a"/><path d="M766.2,142.645l-.54-.361.119-.18a.219.219,0,0,1,.076-.076.138.138,0,0,1,.085-.019.183.183,0,0,1,.084.029.16.16,0,0,1,.053.06.143.143,0,0,1,.016.084.149.149,0,0,1,.094-.034.164.164,0,0,1,.1.031.18.18,0,0,1,.061.062.165.165,0,0,1,.027.068.149.149,0,0,1-.009.07.3.3,0,0,1-.042.083Zm-.272-.273.07-.1a.274.274,0,0,0,.035-.065.083.083,0,0,0,0-.054.1.1,0,0,0-.039-.044.106.106,0,0,0-.055-.02.069.069,0,0,0-.05.014.3.3,0,0,0-.056.068l-.064.1Zm.251.166.079-.119a.322.322,0,0,0,.027-.045.155.155,0,0,0,.01-.046.113.113,0,0,0-.014-.044.126.126,0,0,0-.039-.04.119.119,0,0,0-.062-.022.088.088,0,0,0-.056.018.224.224,0,0,0-.055.064l-.074.111Z" transform="translate(-738.186 -126.018)" fill="#f8e72a"/><path d="M767.778,140.939l-.158-.668.07-.043.545.424-.073.047-.161-.131-.2.128.051.2Zm0-.315.165-.1-.147-.121c-.044-.036-.079-.067-.105-.092a.982.982,0,0,1,.039.122Z" transform="translate(-738.691 -125.558)" fill="#f8e72a"/></g></g></g></svg>