<svg xmlns="http://www.w3.org/2000/svg" xmlns:xlink="http://www.w3.org/1999/xlink" width="36" height="36" viewBox="0 0 36 36"><defs><clipPath id="a"><circle cx="18" cy="18" r="18" transform="translate(524 556)" fill="#fff" stroke="#707070" stroke-width="1"/></clipPath><clipPath id="b"><rect width="67.232" height="36.005" fill="none"/></clipPath></defs><g transform="translate(-524 -556)" clip-path="url(#a)"><g transform="translate(-206.628 435.545)"><g transform="translate(728.628 120.455)" clip-path="url(#b)"><rect width="67.232" height="36.005" fill="#1c2a7d"/><path d="M744.893,130.153l-.12,3.751h-4.146a5.366,5.366,0,0,1-.932-2.73,1.67,1.67,0,0,1,1.833-1.572,17.278,17.278,0,0,1,3.364.551" transform="translate(-730.75 -122.815)" fill="#f6d849"/><path d="M740.31,130.577v0Z" transform="translate(-730.868 -123.066)" fill="#f6d849"/><path d="M740.3,132.775a.048.048,0,0,1-.05-.045v-2.165c0-.05.1-.05.1,0v2.165a.048.048,0,0,1-.05.045" transform="translate(-730.856 -123.053)"/><path d="M740.722,130.279v0Z" transform="translate(-730.947 -122.989)" fill="#f6d849"/><path d="M740.71,133.194a.048.048,0,0,1-.05-.045v-2.883c0-.05.1-.05.1,0v2.883a.048.048,0,0,1-.05.045" transform="translate(-730.935 -122.976)"/><path d="M741.134,130.075v0Z" transform="translate(-731.026 -122.937)" fill="#f6d849"/><path d="M741.122,133.541a.048.048,0,0,1-.05-.045v-3.434c0-.05.1-.05.1,0V133.5a.048.048,0,0,1-.05.045" transform="translate(-731.014 -122.924)"/><path d="M741.546,129.979v0Z" transform="translate(-731.105 -122.912)" fill="#f6d849"/><path d="M741.534,132.7a.048.048,0,0,1-.05-.045v-2.694c0-.05.1-.05.1,0v2.694a.048.048,0,0,1-.05.045" transform="translate(-731.093 -122.899)"/><path d="M741.958,129.962v0Z" transform="translate(-731.184 -122.908)" fill="#f6d849"/><path d="M741.946,132.714a.048.048,0,0,1-.05-.045v-2.719c0-.05.1-.05.1,0v2.719a.048.048,0,0,1-.05.045" transform="translate(-731.172 -122.895)"/><path d="M742.37,129.834v0Z" transform="translate(-731.263 -122.875)" fill="#f6d849"/><path d="M742.358,132.679a.048.048,0,0,1-.05-.045v-2.813c0-.05.1-.05.1,0v2.813a.048.048,0,0,1-.05.045" transform="translate(-731.251 -122.862)"/><path d="M742.782,129.834v0Z" transform="translate(-731.342 -122.875)" fill="#f6d849"/><path d="M742.77,132.679a.048.048,0,0,1-.05-.045v-2.813c0-.05.1-.05.1,0v2.813a.048.048,0,0,1-.05.045" transform="translate(-731.33 -122.862)"/><path d="M743.192,129.871v0Z" transform="translate(-731.421 -122.884)" fill="#f6d849"/><path d="M743.18,132.716a.048.048,0,0,1-.05-.045v-2.813c0-.05.1-.05.1,0v2.813a.048.048,0,0,1-.05.045" transform="translate(-731.409 -122.871)"/><path d="M743.6,129.908v0Z" transform="translate(-731.5 -122.894)" fill="#f6d849"/><path d="M743.592,132.753a.048.048,0,0,1-.05-.045V129.9c0-.05.1-.05.1,0v2.813a.048.048,0,0,1-.05.045" transform="translate(-731.488 -122.881)"/><path d="M744.017,130.149v0Z" transform="translate(-731.579 -122.956)" fill="#f6d849"/><path d="M744.005,133a.048.048,0,0,1-.05-.045v-2.814c0-.05.1-.05.1,0v2.814a.048.048,0,0,1-.05.045" transform="translate(-731.567 -122.943)"/><path d="M744.429,130.186v0Z" transform="translate(-731.658 -122.965)" fill="#f6d849"/><path d="M744.417,133.391a.048.048,0,0,1-.05-.045v-3.172c0-.05.1-.05.1,0v3.172a.048.048,0,0,1-.05.045" transform="translate(-731.646 -122.953)"/><path d="M744.841,130.186v0Z" transform="translate(-731.737 -122.965)" fill="#f6d849"/><path d="M744.829,133.032a.048.048,0,0,1-.05-.045v-2.814c0-.05.1-.05.1,0v2.814a.048.048,0,0,1-.05.045" transform="translate(-731.725 -122.952)"/><path d="M745.253,130.186v0Z" transform="translate(-731.816 -122.965)" fill="#f6d849"/><path d="M745.241,133.032a.048.048,0,0,1-.05-.045v-2.814c0-.05.1-.05.1,0v2.814a.048.048,0,0,1-.05.045" transform="translate(-731.804 -122.952)"/><path d="M742.334,129.992c.7.107,2.248.77,2.072,1.668-.251,1.273-1.06.762-2.132.58l-.812.248c-.29.272-.719.521-1.007.193h-.48V134.4h5.317V130.24Z" transform="translate(-730.804 -122.915)"/><path d="M745.28,134.434h-5.317l-.049-1.77.529-.045c.379.347.776,0,.972-.179l.831-.259c.231.033.429.081.614.125a3.435,3.435,0,0,0,.749.128c.286,0,.6-.095.736-.8a.784.784,0,0,0-.181-.643,3.321,3.321,0,0,0-1.851-.972.046.046,0,0,1-.04-.05c0-.025.024-.039.053-.04l2.958.248.045,4.21a.048.048,0,0,1-.05.045m-4.875-1.741-.441.016.05,1.679,5.217-.045v-4.12l-2.4-.167a3.122,3.122,0,0,1,1.419.884.865.865,0,0,1,.2.711c-.119.6-.377.873-.834.873a3.564,3.564,0,0,1-.774-.131c-.183-.044-.378-.091-.582-.125l-.787.246a1.133,1.133,0,0,1-.691.351.476.476,0,0,1-.37-.173" transform="translate(-730.792 -122.9)"/><path d="M746.084,129.49a.324.324,0,1,1-.323-.3.309.309,0,0,1,.323.3Z" transform="translate(-731.851 -122.709)" fill="#f6d849"/><path d="M745.75,129.815a.343.343,0,1,1,.372-.343.359.359,0,0,1-.372.343m0-.594a.252.252,0,1,0,.274.252.264.264,0,0,0-.274-.252" transform="translate(-731.839 -122.693)"/><path d="M745.186,129.274a.324.324,0,0,1-.646,0,.324.324,0,0,1,.646,0Z" transform="translate(-731.679 -122.654)" fill="#f6d849"/><path d="M744.851,129.6a.343.343,0,1,1,.372-.343.322.322,0,0,1-.107.242.389.389,0,0,1-.264.1m0-.594a.264.264,0,0,0-.274.252.289.289,0,0,0,.468.177.234.234,0,0,0,.078-.177.263.263,0,0,0-.272-.252" transform="translate(-731.667 -122.638)"/><path d="M744.276,129.044a.324.324,0,0,1-.646,0h0a.324.324,0,0,1,.646,0" transform="translate(-731.505 -122.594)" fill="#f6d849"/><path d="M743.941,129.37h0a.343.343,0,1,1,.373-.342.358.358,0,0,1-.373.342m0-.593a.252.252,0,1,0,.274.251.263.263,0,0,0-.274-.251" transform="translate(-731.493 -122.579)"/><path d="M743.362,128.892a.324.324,0,0,1-.646,0h0a.324.324,0,0,1,.646,0Z" transform="translate(-731.329 -122.555)" fill="#f6d849"/><path d="M743.027,129.218a.343.343,0,1,1,.372-.343.359.359,0,0,1-.372.343m0-.593a.252.252,0,1,0,.274.251.263.263,0,0,0-.274-.251" transform="translate(-731.317 -122.539)"/><path d="M742.448,128.8a.324.324,0,0,1-.646,0h0a.324.324,0,0,1,.646,0" transform="translate(-731.154 -122.532)" fill="#f6d849"/><path d="M742.112,129.128a.343.343,0,1,1,.373-.343.359.359,0,0,1-.373.343m0-.594a.252.252,0,1,0,.274.251.264.264,0,0,0-.274-.251" transform="translate(-731.142 -122.516)"/><path d="M741.551,128.853a.324.324,0,0,1-.646,0h0a.324.324,0,0,1,.646,0Z" transform="translate(-730.982 -122.545)" fill="#f6d849"/><path d="M741.216,129.183a.358.358,0,0,1-.372-.341.322.322,0,0,1,.107-.241.394.394,0,0,1,.638.24.359.359,0,0,1-.373.343m0-.593a.284.284,0,0,0-.194.074.234.234,0,0,0-.078.177.274.274,0,1,0,.272-.251" transform="translate(-730.97 -122.533)"/><path d="M740.7,129.146a.324.324,0,1,1-.323-.3.31.31,0,0,1,.323.3Z" transform="translate(-730.818 -122.621)" fill="#f6d849"/><path d="M740.361,129.476a.359.359,0,0,1-.374-.342.393.393,0,0,1,.635-.242.326.326,0,0,1,.11.241.359.359,0,0,1-.372.343m0-.593a.252.252,0,1,0,.272.251.264.264,0,0,0-.272-.251" transform="translate(-730.806 -122.609)"/><path d="M739.975,129.675a.324.324,0,0,1-.646,0h0a.324.324,0,0,1,.646,0Z" transform="translate(-730.68 -122.757)" fill="#f6d849"/><path d="M739.64,130a.343.343,0,1,1,.372-.343.359.359,0,0,1-.372.343m0-.593a.252.252,0,1,0,.272.251.264.264,0,0,0-.272-.251" transform="translate(-730.668 -122.741)"/><path d="M739.465,130.414a.324.324,0,1,1-.323-.3.311.311,0,0,1,.323.3Z" transform="translate(-730.582 -122.948)" fill="#f6d849"/><path d="M739.13,130.744a.359.359,0,0,1-.372-.342.326.326,0,0,1,.108-.241.393.393,0,0,1,.638.24.359.359,0,0,1-.373.343m0-.594a.286.286,0,0,0-.194.074.235.235,0,0,0-.078.177.274.274,0,1,0,.272-.252" transform="translate(-730.57 -122.936)"/><path d="M739.218,131.283a.325.325,0,0,1-.647,0h0a.325.325,0,0,1,.647,0Z" transform="translate(-730.534 -123.172)" fill="#f6d849"/><path d="M738.883,131.608a.343.343,0,1,1,.373-.343.362.362,0,0,1-.373.343m0-.593a.252.252,0,1,0,.274.251.264.264,0,0,0-.274-.251" transform="translate(-730.523 -123.156)"/><path d="M739.227,132.184a.324.324,0,1,1-.322-.3.309.309,0,0,1,.322.3" transform="translate(-730.536 -123.404)" fill="#f6d849"/><path d="M738.892,132.51a.343.343,0,1,1,.372-.342.359.359,0,0,1-.372.342m0-.594a.252.252,0,1,0,.272.252.264.264,0,0,0-.272-.252" transform="translate(-730.524 -123.389)"/><path d="M739.4,133.067a.324.324,0,1,1-.322-.3.309.309,0,0,1,.322.3Z" transform="translate(-730.569 -123.632)" fill="#f6d849"/><path d="M739.064,133.392a.343.343,0,1,1,.372-.343.359.359,0,0,1-.372.343m0-.594a.252.252,0,1,0,.272.252.264.264,0,0,0-.272-.252" transform="translate(-730.557 -123.616)"/><path d="M744.754,129.93l-.03.387a19.776,19.776,0,0,0-3-.525c-.98,0-1.743.361-1.743,1.268a4.678,4.678,0,0,0,.961,2.538l-.57.248a5.36,5.36,0,0,1-.931-2.729,1.86,1.86,0,0,1,2.042-1.738,16.35,16.35,0,0,1,3.274.551" transform="translate(-730.701 -122.757)" fill="#f6d849"/><path d="M740.356,133.876a.052.052,0,0,1-.044-.025,5.448,5.448,0,0,1-.937-2.75,1.906,1.906,0,0,1,2.093-1.783,11.563,11.563,0,0,1,2.566.392c.249.058.49.114.719.161l.008.433h-.006a4.4,4.4,0,0,1-1.025-.163,9.064,9.064,0,0,0-2.021-.319c-.632,0-1.693.159-1.693,1.223a4.706,4.706,0,0,0,.955,2.514l-.592.312a.05.05,0,0,1-.021,0m1.111-4.468a1.813,1.813,0,0,0-1.993,1.693,5.3,5.3,0,0,0,.9,2.67l.527-.229a4.269,4.269,0,0,1-.99-2.5c0-.835.654-1.313,1.793-1.313a9.128,9.128,0,0,1,2.046.322c.352.084.681.162.965.2l-.026-.344h0a3.288,3.288,0,0,1-.681-.114,11.532,11.532,0,0,0-2.542-.389" transform="translate(-730.689 -122.741)"/><path d="M747.03,130.153l.12,3.751H751.3a5.366,5.366,0,0,0,.932-2.73,1.669,1.669,0,0,0-1.833-1.572,17.28,17.28,0,0,0-3.364.551" transform="translate(-732.156 -122.815)" fill="#f6d849"/><path d="M752.847,130.577v0Z" transform="translate(-733.272 -123.066)" fill="#f6d849"/><path d="M752.835,132.775a.048.048,0,0,1-.05-.045v-2.165c0-.05.1-.05.1,0v2.165a.048.048,0,0,1-.05.045" transform="translate(-733.26 -123.053)"/><path d="M752.435,130.279v0Z" transform="translate(-733.193 -122.989)" fill="#f6d849"/><path d="M752.423,133.194a.048.048,0,0,1-.05-.045v-2.883c0-.05.1-.05.1,0v2.883a.048.048,0,0,1-.05.045" transform="translate(-733.181 -122.976)"/><path d="M752.023,130.075v0Z" transform="translate(-733.114 -122.937)" fill="#f6d849"/><path d="M752.011,133.541a.047.047,0,0,1-.05-.045v-3.434c0-.05.1-.05.1,0V133.5a.047.047,0,0,1-.049.045" transform="translate(-733.102 -122.924)"/><path d="M751.61,129.979v0Z" transform="translate(-733.035 -122.912)" fill="#f6d849"/><path d="M751.6,132.7a.048.048,0,0,1-.05-.045v-2.694c0-.05.1-.05.1,0v2.694a.048.048,0,0,1-.05.045" transform="translate(-733.023 -122.899)"/><path d="M751.2,129.962v0Z" transform="translate(-732.956 -122.908)" fill="#f6d849"/><path d="M751.188,132.714a.048.048,0,0,1-.05-.045v-2.719c0-.05.1-.05.1,0v2.719a.048.048,0,0,1-.05.045" transform="translate(-732.944 -122.895)"/><path d="M750.788,129.834v0Z" transform="translate(-732.877 -122.875)" fill="#f6d849"/><path d="M750.776,132.679a.048.048,0,0,1-.05-.045v-2.813c0-.05.1-.05.1,0v2.813a.048.048,0,0,1-.05.045" transform="translate(-732.865 -122.862)"/><path d="M750.376,129.834v0Z" transform="translate(-732.798 -122.875)" fill="#f6d849"/><path d="M750.364,132.679a.048.048,0,0,1-.05-.045v-2.813c0-.05.1-.05.1,0v2.813a.048.048,0,0,1-.05.045" transform="translate(-732.786 -122.862)"/><path d="M749.964,129.871v0Z" transform="translate(-732.719 -122.884)" fill="#f6d849"/><path d="M749.952,132.716a.048.048,0,0,1-.05-.045v-2.813c0-.05.1-.05.1,0v2.813a.048.048,0,0,1-.05.045" transform="translate(-732.707 -122.871)"/><path d="M749.552,129.908v0Z" transform="translate(-732.64 -122.894)" fill="#f6d849"/><path d="M749.54,132.753a.048.048,0,0,1-.05-.045V129.9c0-.05.1-.05.1,0v2.813a.048.048,0,0,1-.05.045" transform="translate(-732.628 -122.881)"/><path d="M749.14,130.149v0Z" transform="translate(-732.561 -122.956)" fill="#f6d849"/><path d="M749.128,133a.048.048,0,0,1-.05-.045v-2.814c0-.05.1-.05.1,0v2.814a.048.048,0,0,1-.05.045" transform="translate(-732.549 -122.943)"/><path d="M748.727,130.186v0Z" transform="translate(-732.482 -122.965)" fill="#f6d849"/><path d="M748.715,133.391a.048.048,0,0,1-.05-.045v-3.172c0-.05.1-.05.1,0v3.172a.048.048,0,0,1-.05.045" transform="translate(-732.47 -122.953)"/><path d="M748.315,130.186v0Z" transform="translate(-732.403 -122.965)" fill="#f6d849"/><path d="M748.3,133.032a.048.048,0,0,1-.05-.045v-2.814c0-.05.1-.05.1,0v2.814a.048.048,0,0,1-.05.045" transform="translate(-732.391 -122.952)"/><path d="M747.9,130.186v0Z" transform="translate(-732.324 -122.965)" fill="#f6d849"/><path d="M747.891,133.032a.048.048,0,0,1-.05-.045v-2.814c0-.05.1-.05.1,0v2.814a.048.048,0,0,1-.05.045" transform="translate(-732.312 -122.952)"/><path d="M749.563,129.992c-.7.107-2.249.77-2.072,1.668.249,1.273,1.059.762,2.132.58l.81.248c.291.272.719.521,1.007.193h.48V134.4H746.6V130.24Z" transform="translate(-732.075 -122.915)"/><path d="M751.907,134.434H746.59l-.049-4.21,3-.293a.051.051,0,0,1,.054.04.047.047,0,0,1-.041.05,3.324,3.324,0,0,0-1.852.973.787.787,0,0,0-.18.643c.137.7.449.8.735.8a3.442,3.442,0,0,0,.75-.128c.186-.045.383-.092.591-.127l.834.249c.224.2.693.5.953.207l.518-.017.05,1.77a.048.048,0,0,1-.05.045m-2.89-4.368-2.422.2.045,4.12,5.217-.045v-1.679l-.431.046a.383.383,0,0,1-.331.156,1.2,1.2,0,0,1-.711-.362l-.79-.237c-.18.036-.375.083-.558.127a3.525,3.525,0,0,1-.775.131c-.457,0-.714-.269-.833-.873a.868.868,0,0,1,.2-.711,3.1,3.1,0,0,1,1.391-.875" transform="translate(-732.063 -122.9)"/><path d="M746.919,129.49a.324.324,0,1,0,.323-.3.311.311,0,0,0-.323.3Z" transform="translate(-732.135 -122.709)" fill="#f6d849"/><path d="M747.23,129.815a.343.343,0,1,1,.372-.342.359.359,0,0,1-.372.342m0-.594a.252.252,0,1,0,.272.252.264.264,0,0,0-.272-.252" transform="translate(-732.123 -122.693)"/><path d="M747.817,129.274a.324.324,0,1,0,.322-.3.309.309,0,0,0-.322.3Z" transform="translate(-732.307 -122.654)" fill="#f6d849"/><path d="M748.128,129.6a.343.343,0,1,1,.373-.342.359.359,0,0,1-.373.342m0-.594a.252.252,0,1,0,.274.252.263.263,0,0,0-.274-.252" transform="translate(-732.296 -122.638)"/><path d="M748.727,129.044a.324.324,0,0,0,.646,0h0a.324.324,0,0,0-.646,0" transform="translate(-732.482 -122.594)" fill="#f6d849"/><path d="M749.041,129.37a.343.343,0,1,1,.37-.342.329.329,0,0,1-.108.242.384.384,0,0,1-.262.1m0-.593a.252.252,0,1,0,0,.5h0a.279.279,0,0,0,.192-.073.237.237,0,0,0,.079-.177.263.263,0,0,0-.272-.252" transform="translate(-732.47 -122.579)"/><path d="M749.642,128.892a.324.324,0,0,0,.646,0h0a.324.324,0,0,0-.646,0Z" transform="translate(-732.657 -122.555)" fill="#f6d849"/><path d="M749.953,129.223a.359.359,0,0,1-.373-.342.393.393,0,0,1,.638-.24.322.322,0,0,1,.107.241.359.359,0,0,1-.372.341m0-.593a.252.252,0,1,0,.272.252.235.235,0,0,0-.078-.177.284.284,0,0,0-.194-.074" transform="translate(-732.645 -122.544)"/><path d="M750.558,128.8a.324.324,0,0,0,.646,0h0a.324.324,0,0,0-.646,0" transform="translate(-732.833 -122.532)" fill="#f6d849"/><path d="M750.868,129.128a.389.389,0,0,1-.264-.1.327.327,0,0,1-.108-.242.374.374,0,1,1,.372.343m0-.594a.263.263,0,0,0-.272.251.235.235,0,0,0,.078.178.289.289,0,0,0,.468-.177.265.265,0,0,0-.274-.252" transform="translate(-732.821 -122.516)"/><path d="M751.454,128.853a.324.324,0,0,0,.646,0h0a.324.324,0,0,0-.646,0Z" transform="translate(-733.005 -122.545)" fill="#f6d849"/><path d="M751.764,129.178a.343.343,0,1,1,.373-.342.359.359,0,0,1-.373.342m0-.593a.252.252,0,1,0,.274.252.262.262,0,0,0-.274-.252" transform="translate(-732.993 -122.529)"/><path d="M752.308,129.146a.324.324,0,1,0,.323-.3.311.311,0,0,0-.323.3Z" transform="translate(-733.168 -122.621)" fill="#f6d849"/><path d="M752.619,129.471a.343.343,0,1,1,.372-.342.359.359,0,0,1-.372.342m0-.593a.285.285,0,0,0-.194.073.238.238,0,0,0-.08.177.274.274,0,1,0,.274-.25" transform="translate(-733.157 -122.605)"/><path d="M753.028,129.675a.324.324,0,0,0,.646,0h0a.324.324,0,0,0-.646,0Z" transform="translate(-733.306 -122.757)" fill="#f6d849"/><path d="M753.339,130a.343.343,0,1,1,.373-.342.359.359,0,0,1-.373.342m0-.593a.252.252,0,1,0,.272.252.263.263,0,0,0-.272-.252" transform="translate(-733.295 -122.741)"/><path d="M753.54,130.414a.324.324,0,1,0,.322-.3.309.309,0,0,0-.322.3Z" transform="translate(-733.405 -122.948)" fill="#f6d849"/><path d="M753.85,130.74a.343.343,0,1,1,.373-.342.359.359,0,0,1-.373.342m0-.594a.252.252,0,1,0,.274.252.263.263,0,0,0-.274-.252" transform="translate(-733.393 -122.932)"/><path d="M753.786,131.283a.324.324,0,0,0,.646,0h0a.324.324,0,0,0-.646,0Z" transform="translate(-733.452 -123.172)" fill="#f6d849"/><path d="M754.1,131.608a.343.343,0,1,1,.373-.342.359.359,0,0,1-.373.342m0-.593a.252.252,0,1,0,.274.252.262.262,0,0,0-.274-.252" transform="translate(-733.44 -123.156)"/><path d="M753.776,132.184a.324.324,0,1,0,.323-.3.309.309,0,0,0-.323.3" transform="translate(-733.45 -123.404)" fill="#f6d849"/><path d="M754.087,132.51a.343.343,0,1,1,.373-.342.359.359,0,0,1-.373.342m0-.594a.252.252,0,1,0,.272.252.264.264,0,0,0-.272-.252" transform="translate(-733.438 -123.389)"/><path d="M753.6,133.067a.324.324,0,1,0,.323-.3.309.309,0,0,0-.323.3Z" transform="translate(-733.417 -123.632)" fill="#f6d849"/><path d="M753.915,133.392a.343.343,0,1,1,.373-.342.359.359,0,0,1-.373.342m0-.594a.252.252,0,1,0,.272.252.264.264,0,0,0-.272-.252" transform="translate(-733.405 -123.616)"/><path d="M747.142,129.93l.03.387a19.814,19.814,0,0,1,3-.525c.982,0,1.743.361,1.743,1.268a4.677,4.677,0,0,1-.961,2.538l.57.248a5.345,5.345,0,0,0,.931-2.729,1.86,1.86,0,0,0-2.042-1.738,16.348,16.348,0,0,0-3.274.551" transform="translate(-732.178 -122.757)" fill="#f6d849"/><path d="M751.516,133.875a.045.045,0,0,1-.021,0l-.571-.248a5.306,5.306,0,0,0,.933-2.578c0-1.064-1.061-1.223-1.693-1.223a9.008,9.008,0,0,0-2.021.32c-.356.085-.689.163-.976.2l-.087-.428a6.563,6.563,0,0,1,.757-.208,11.57,11.57,0,0,1,2.567-.393A1.906,1.906,0,0,1,752.5,131.1a5.43,5.43,0,0,1-.937,2.751.051.051,0,0,1-.044.024m-1.351-4.144c1.139,0,1.792.479,1.792,1.313a4.794,4.794,0,0,1-.968,2.561l.5.168a5.28,5.28,0,0,0,.906-2.673,1.814,1.814,0,0,0-1.992-1.693,11.488,11.488,0,0,0-2.543.39c-.25.058-.491.114-.721.161l.069.339a9.234,9.234,0,0,1,.909-.243,9.087,9.087,0,0,1,2.046-.323" transform="translate(-732.166 -122.741)"/><rect width="67.232" height="18.003" transform="translate(0 18.003)" fill="#bc0030"/><path d="M746.5,124.751l-.338.58.338.577.336-.577Zm0,1.463-.338.577.338.58.336-.58Z" transform="translate(-731.99 -121.563)" fill="#f6d849"/><path d="M746.488,127.4a.051.051,0,0,1-.044-.024l-.338-.58.338-.62a.051.051,0,0,1,.044-.024.05.05,0,0,1,.044.024l.336.577-.336.623a.05.05,0,0,1-.044.024m0-1.109-.3.506.292.465.294-.508Zm0-.353a.052.052,0,0,1-.044-.024l-.338-.577.338-.622a.051.051,0,0,1,.044-.024.05.05,0,0,1,.044.024l.336.579-.336.62a.051.051,0,0,1-.044.024m0-1.109-.3.507.292.463.294-.506Z" transform="translate(-731.979 -121.548)"/><path d="M745.093,126.408l.53.309.53-.309-.53-.309Zm1.34,0,.53.309.532-.309-.532-.309Z" transform="translate(-731.785 -121.911)" fill="#f6d849"/><path d="M746.951,126.75a.057.057,0,0,1-.027-.007l-.53-.309a.046.046,0,0,1-.023-.039.045.045,0,0,1,.023-.039l.53-.309.585.309a.045.045,0,0,1,.023.039.046.046,0,0,1-.023.039l-.532.309a.054.054,0,0,1-.027.007m-.442-.357.442.258.44-.256-.466-.271Zm-.9.357a.055.055,0,0,1-.027-.007l-.531-.309a.047.047,0,0,1-.023-.039.046.046,0,0,1,.023-.039l.531-.309.584.309a.045.045,0,0,1,.023.039.046.046,0,0,1-.023.039l-.53.309a.057.057,0,0,1-.027.007m-.442-.357.442.258.438-.256-.465-.271Z" transform="translate(-731.773 -121.898)"/><path d="M746.773,126.445a.256.256,0,1,1-.254-.234.244.244,0,0,1,.254.234" transform="translate(-732.009 -121.94)" fill="#f6d849"/><path d="M746.506,126.709a.28.28,0,1,1,.3-.28.294.294,0,0,1-.3.28m0-.468a.2.2,0,0,0-.206.188c0,.207.41.209.411,0a.2.2,0,0,0-.2-.188" transform="translate(-731.997 -121.924)"/><path d="M747.1,128.325a.686.686,0,1,1-.684-.628.658.658,0,0,1,.684.628" transform="translate(-731.908 -122.323)" fill="#f6d849"/><path d="M746.405,128.981a.675.675,0,1,1,.733-.672.705.705,0,0,1-.733.672m0-1.255a.584.584,0,1,0,.634.582.61.61,0,0,0-.634-.582" transform="translate(-731.896 -122.308)"/><path d="M747.072,128.517h-.008a4.276,4.276,0,0,0-1.309,0,.045.045,0,1,1-.016-.089,4.345,4.345,0,0,1,1.341,0,.046.046,0,0,1,.04.052.048.048,0,0,1-.049.038m0-.318h-.008a4.116,4.116,0,0,0-.481-.046l-.047-.444c0-.05.1-.05.1,0v.4a1.077,1.077,0,0,1,.444,0,.047.047,0,0,1,.04.053.048.048,0,0,1-.048.038m-1.32,0a.049.049,0,0,1-.049-.038.048.048,0,0,1,.041-.053,4.593,4.593,0,0,1,.492-.047l-.047-.094v-.258c0-.05.1-.05.1,0l0,.4c-.212.052-.372.068-.528.092h-.008" transform="translate(-731.901 -122.317)"/><path d="M745.6,129.972a6.742,6.742,0,0,1-.63,2.829l.706-.263a17.085,17.085,0,0,0,.374-2.5Zm1.337,0-.45.07a17.548,17.548,0,0,0,.374,2.5l.707.263a6.729,6.729,0,0,1-.631-2.829" transform="translate(-731.762 -122.91)" fill="#f6d849"/><path d="M744.96,132.831a.051.051,0,0,1-.036-.015.041.041,0,0,1-.007-.051,6.782,6.782,0,0,0,.625-2.81l.507.027a2.709,2.709,0,0,1-.018.58,11.791,11.791,0,0,1-.316,1.972l-.736.293a.051.051,0,0,1-.019,0m.622-2.829a6.162,6.162,0,0,1-.519,2.7l.585-.217a14.3,14.3,0,0,0,.284-1.927c.02-.209.04-.393.059-.533Zm1.977,2.829a.052.052,0,0,1-.019,0l-.707-.263a10.063,10.063,0,0,1-.344-1.987c-.022-.214-.04-.4-.061-.545l.491-.119a7.81,7.81,0,0,0,.683,2.852.042.042,0,0,1-.007.051.053.053,0,0,1-.036.015m-.681-2.871-.393.111a1.357,1.357,0,0,1,.1.5,11.588,11.588,0,0,0,.311,1.942l.559.191a7.115,7.115,0,0,1-.58-2.742" transform="translate(-731.75 -122.895)"/><path d="M745,132.965c-.845,0-1.465.365-1.5,1.3-.207-.333-1.08-1.382-1.895-1.241a1.259,1.259,0,0,0-.838,1.406,1.529,1.529,0,0,0-2.433-.606c.761.575,1.1,2.271,1.739,3.007h9.854c.641-.735.982-2.432,1.743-3.007a1.529,1.529,0,0,0-2.433.606,1.261,1.261,0,0,0-.843-1.406c-.813-.14-1.684.908-1.891,1.241-.036-.931-.658-1.3-1.5-1.3" transform="translate(-730.488 -123.682)" fill="#f6d849"/><path d="M749.914,136.856h-9.853a4.895,4.895,0,0,1-.781-1.387,4.252,4.252,0,0,0-.991-1.629,1.573,1.573,0,0,1,1.1-.443,1.457,1.457,0,0,1,1.312.775,1.26,1.26,0,0,1,.886-1.212c.793-.137,1.575.748,1.864,1.143.087-.775.628-1.2,1.541-1.2s1.456.424,1.541,1.2c.289-.4,1.086-1.279,1.862-1.143a1.265,1.265,0,0,1,.888,1.213,1.458,1.458,0,0,1,1.313-.776,1.887,1.887,0,0,1,1.1.372,5.312,5.312,0,0,0-.993,1.7,5.589,5.589,0,0,1-.743,1.369.05.05,0,0,1-.039.017m-10.528-3.369a1.775,1.775,0,0,0-1.034.352,3.541,3.541,0,0,1,1.019,1.6,5.557,5.557,0,0,0,.728,1.347l9.791-.017a5.7,5.7,0,0,0,.714-1.329,4.328,4.328,0,0,1,1.022-1.667,2.382,2.382,0,0,0-1.034-.282,1.382,1.382,0,0,0-1.321.938.052.052,0,0,1-.057.029.046.046,0,0,1-.039-.048,1.218,1.218,0,0,0-.8-1.357c-.735-.128-1.583.807-1.838,1.219a.051.051,0,0,1-.056.022.05.05,0,0,1-.038-.043c-.039-1.035-.812-1.253-1.452-1.253s-1.411.217-1.452,1.253a.049.049,0,0,1-.038.043.051.051,0,0,1-.054-.022c-.162-.259-1.023-1.365-1.843-1.219a1.214,1.214,0,0,0-.8,1.357.045.045,0,0,1-.038.048.051.051,0,0,1-.057-.029,1.382,1.382,0,0,0-1.321-.938" transform="translate(-730.481 -123.667)"/><path d="M750.325,137.991c0,.335-2.2.7-4.911.7s-4.913-.368-4.913-.7,2.2-.51,4.913-.51,4.911.175,4.911.51" transform="translate(-730.905 -124.847)"/><path d="M745.4,138.723c-2.644,0-4.963-.35-4.963-.749,0-.515,3.8-.555,4.963-.555s4.961.04,4.961.555c0,.4-2.318.749-4.961.749m0-1.214c-3.193,0-4.863.234-4.863.465,0,.266,2.042.659,4.863.659s4.862-.393,4.862-.659c0-.231-1.67-.465-4.862-.465" transform="translate(-730.893 -124.831)"/><path d="M746.753,129.638a.229.229,0,1,1-.229-.211.22.22,0,0,1,.229.211" transform="translate(-732.016 -122.77)" fill="#f6d849"/><path d="M746.513,129.881a.269.269,0,0,1-.279-.255.243.243,0,0,1,.079-.18.3.3,0,0,1,.479.18.269.269,0,0,1-.279.255m0-.421a.186.186,0,0,0-.129.05.154.154,0,0,0-.051.115c0,.183.359.183.359,0a.173.173,0,0,0-.179-.165" transform="translate(-732.004 -122.757)"/><path d="M746.764,130.246a.245.245,0,1,1-.243-.225.235.235,0,0,1,.243.225Z" transform="translate(-732.012 -122.923)" fill="#f6d849"/><path d="M746.509,130.5a.27.27,0,1,1,.293-.269.283.283,0,0,1-.293.269m0-.448a.188.188,0,0,0-.195.18c0,.2.389.2.388,0a.187.187,0,0,0-.193-.18" transform="translate(-732 -122.907)"/><path d="M746.782,130.9a.268.268,0,0,1-.533,0h0a.268.268,0,0,1,.533,0" transform="translate(-732.007 -123.086)" fill="#f6d849"/><path d="M746.5,131.172h0a.291.291,0,1,1,0-.58.291.291,0,1,1,0,.58m0-.49a.211.211,0,0,0-.217.2c0,.222.435.219.435,0a.211.211,0,0,0-.217-.2" transform="translate(-731.995 -123.07)"/><path d="M746.81,131.621a.305.305,0,0,1-.608,0h0a.3.3,0,0,1,.608,0Z" transform="translate(-731.998 -123.263)" fill="#f6d849"/><path d="M746.495,131.929h0a.326.326,0,1,1,.355-.325.339.339,0,0,1-.355.325m0-.559a.246.246,0,0,0-.255.234.255.255,0,1,0,.255-.234" transform="translate(-731.986 -123.248)"/><path d="M746.833,132.428a.335.335,0,0,1-.668,0h0a.335.335,0,0,1,.668,0" transform="translate(-731.991 -123.465)" fill="#f6d849"/><path d="M746.488,132.765a.354.354,0,1,1,.383-.352.37.37,0,0,1-.383.352m0-.614a.263.263,0,1,0,.284.262.275.275,0,0,0-.284-.262" transform="translate(-731.979 -123.449)"/><path d="M745,133.331a.062.062,0,0,0-.06.08c.009.062.023.18.036.259s.07.068.085,0a1.2,1.2,0,0,0,.013-.243c0-.065-.038-.094-.074-.094m.267,0c-.036,0-.076.029-.074.094a1.325,1.325,0,0,0,.013.243c.014.07.071.092.085,0s.027-.2.038-.259a.062.062,0,0,0-.061-.08m-.5.033a.074.074,0,0,0-.065.068c0,.06.022.132.028.222s.079.056.085,0a1.074,1.074,0,0,0,.01-.234c0-.039-.022-.056-.044-.059h-.014m.726,0c-.022,0-.04.019-.042.059a1.055,1.055,0,0,0,.007.234c.006.053.079.09.086,0s.025-.162.028-.222a.074.074,0,0,0-.065-.068h-.015m-1.009.105a.065.065,0,0,0-.049.079,1.144,1.144,0,0,1,.033.238c0,.066.063.042.066,0s.009-.145.009-.234c0-.068-.03-.086-.06-.079m1.287,0c-.022.005-.041.029-.041.079,0,.089.006.188.01.234s.066.07.066,0a1.049,1.049,0,0,1,.035-.238.067.067,0,0,0-.049-.079.046.046,0,0,0-.02,0m-3.863.01c-.036,0-.061.045-.036.094.04.08.082.13.121.215s.091.029.074-.024a1.961,1.961,0,0,0-.091-.226c-.021-.042-.046-.059-.068-.06m6.458,0c-.02,0-.046.019-.066.06a1.76,1.76,0,0,0-.093.226c-.018.053.038.1.074.024s.083-.135.123-.215c.023-.05,0-.095-.038-.094m-6.2,0a.051.051,0,0,0-.025.075c.031.073.078.148.112.226s.094.05.071-.013-.028-.1-.071-.22c-.022-.059-.06-.077-.086-.069m5.916,0c-.023,0-.048.024-.066.069-.042.119-.049.157-.071.22s.043.082.071.013.081-.154.114-.226a.052.052,0,0,0-.027-.075.04.04,0,0,0-.021,0m-5.588.058c-.035.006-.06.053-.038.111.03.073.071.142.107.225s.095.066.081.013-.031-.141-.076-.274c-.019-.058-.049-.079-.074-.075m5.282,0c-.027,0-.057.017-.075.075-.044.133-.062.221-.076.274s.046.07.082-.013.078-.152.106-.225c.023-.057,0-.1-.036-.111m-6.092.042a.07.07,0,0,0-.047.1c.036.067.06.088.095.16s.076.016.061-.031-.033-.1-.052-.166c-.013-.049-.035-.064-.057-.062m6.9,0c-.022,0-.044.013-.057.062-.019.067-.036.12-.05.166s.025.1.06.031.058-.093.095-.16a.071.071,0,0,0-.048-.1m-4.38.167a.075.075,0,0,0-.067.091c.023.07.056.131.081.221s.082.04.079-.013a1.529,1.529,0,0,0-.038-.238c-.01-.042-.033-.061-.055-.061m1.862,0c-.023,0-.045.019-.055.061a1.578,1.578,0,0,0-.04.238c0,.053.058.093.081.013s.057-.151.078-.221a.073.073,0,0,0-.065-.091m-.931.072c-.048,0-.054.058-.056.105a.7.7,0,0,1-.135.378c-.059.075-.147.055-.23.015a1.531,1.531,0,0,1-.216-.13c-.087-.059-.152-.025-.049.111a2.087,2.087,0,0,1,.63,1.376c0,.083.016.109.056.109s.057-.026.057-.109a2.085,2.085,0,0,1,.627-1.376c.1-.136.037-.171-.049-.111a1.493,1.493,0,0,1-.217.13c-.082.04-.169.06-.229-.015a.7.7,0,0,1-.134-.378c0-.047-.01-.105-.055-.105m-2.307-.1-.012,0c-.018.005-.03.024-.023.058.011.06.057.179.076.235s.093.044.074-.032-.016-.1-.038-.186a.1.1,0,0,0-.078-.078m4.613,0a.1.1,0,0,0-.078.078c-.021.085-.021.108-.038.186s.057.088.076.032.063-.175.074-.235c.008-.033,0-.053-.022-.058l-.008,0Zm-5.983.024c-.038,0-.066.047-.027.111s.112.157.145.206.089.017.049-.046-.053-.136-.1-.226a.073.073,0,0,0-.066-.045m7.353,0a.073.073,0,0,0-.068.045c-.048.09-.061.162-.1.226s.015.1.048.046.1-.137.146-.206.011-.108-.027-.111m-9.426.2c-.043,0-.057.07-.016.118a1.21,1.21,0,0,0,.169.163c.055.044.071-.014.044-.059s-.066-.09-.122-.165c-.03-.042-.055-.057-.075-.058m11.5,0c-.02,0-.045.016-.076.058-.053.075-.093.12-.12.165s-.013.1.043.059a1.255,1.255,0,0,0,.169-.163c.04-.048.028-.12-.016-.118m-11.167.06c-.035,0-.059.024-.031.079.04.078.09.167.123.226s.131.08.091-.013-.047-.141-.083-.227a.11.11,0,0,0-.1-.065m10.839,0a.111.111,0,0,0-.1.065c-.036.086-.044.134-.084.227s.061.073.092.013.083-.148.123-.226c.027-.055,0-.079-.03-.079m-11.476.02c-.051,0-.056.048-.01.077s.129.084.2.135.114,0,.07-.045a.5.5,0,0,0-.194-.15.152.152,0,0,0-.065-.017m12.112,0a.155.155,0,0,0-.065.017.491.491,0,0,0-.194.15c-.044.05-.013.105.07.045s.14-.095.2-.135c.044-.03.04-.077-.011-.077m-7.167.044a.052.052,0,0,0-.041.071c.022.069.046.143.061.216s.1.07.087.007-.021-.142-.046-.238c-.01-.036-.03-.053-.05-.056a.019.019,0,0,0-.011,0m2.21,0c-.02,0-.04.019-.049.056-.026.1-.033.176-.048.238s.073.062.088-.007.04-.147.061-.216a.052.052,0,0,0-.041-.071.019.019,0,0,0-.011,0m-4.177-.119c-.022.006-.036.045-.019.1a1.465,1.465,0,0,1,.1.538c-.016.075-.061.085-.12.06a1.176,1.176,0,0,1-.184-.1c-.054-.034-.111.007-.033.065a1.95,1.95,0,0,1,.777,1.054c.022.085.08.094.063,0a2.143,2.143,0,0,1,.028-1.218c.052-.1,0-.2-.081-.034-.055.109-.141.153-.213.058a2.707,2.707,0,0,1-.259-.461c-.017-.044-.036-.063-.053-.066h-.01m6.146,0c-.016,0-.036.022-.053.066a2.77,2.77,0,0,1-.26.461c-.07.095-.158.051-.212-.058-.082-.165-.133-.068-.082.034a2.135,2.135,0,0,1,.028,1.218c-.016.094.041.085.063,0a1.95,1.95,0,0,1,.777-1.054c.078-.059.02-.1-.033-.065a1.207,1.207,0,0,1-.183.1c-.06.025-.1.015-.121-.06a1.449,1.449,0,0,1,.1-.538c.017-.055,0-.093-.018-.1h-.01m-8.137.145c-.035,0-.065.023-.049.073.027.079.08.166.1.216s.078.027.066-.043-.016-.111-.032-.188a.08.08,0,0,0-.084-.058m10.136,0a.079.079,0,0,0-.083.058c-.015.076-.021.117-.032.188s.047.093.066.043.071-.137.1-.216c.015-.05-.013-.073-.049-.073m-8.908-.1c-.041-.007-.048.091-.013.131s.112.118.179.189.086.007.055-.042-.08-.1-.167-.229c-.022-.031-.04-.047-.053-.048m7.68,0c-.015,0-.031.017-.053.048-.086.126-.136.179-.167.229s0,.1.056.042.129-.136.176-.189.031-.138-.012-.131m-8.627.237c-.027,0-.049.017-.038.065.016.067.038.122.055.186s.067.052.067-.007a1.151,1.151,0,0,0-.024-.19.067.067,0,0,0-.06-.053m9.576,0a.066.066,0,0,0-.061.053,1.137,1.137,0,0,0-.023.19c0,.059.048.07.065.007s.04-.119.056-.186c.01-.048-.011-.068-.036-.065m-8.72.085c-.041.006-.076.042-.029.1.076.089.158.152.188.186s.1.021.055-.049-.121-.157-.153-.21a.061.061,0,0,0-.061-.025m7.847,0a.057.057,0,0,0-.044.025c-.033.053-.106.139-.154.21s.026.082.056.049.112-.1.188-.186c.048-.056.011-.092-.03-.1h-.015m-9.2.251c-.032,0-.043.021,0,.075a1.108,1.108,0,0,1,.213.388c.008.079-.036.078-.075.078-.119,0-.177-.079-.286-.1s-.125.029-.047.081a3.352,3.352,0,0,1,.956.83c.065.11.154.15.1.045a1.317,1.317,0,0,1-.153-.756,2.024,2.024,0,0,0,.07-.37c0-.094-.063-.088-.088,0a.6.6,0,0,1-.07.169c-.02.03-.109.046-.191-.056a3.059,3.059,0,0,0-.361-.351.166.166,0,0,0-.073-.032m10.565,0a.157.157,0,0,0-.071.032,2.882,2.882,0,0,0-.363.351c-.082.1-.169.086-.191.056a.6.6,0,0,1-.07-.169c-.024-.088-.082-.094-.089,0a1.932,1.932,0,0,0,.073.37,1.351,1.351,0,0,1-.153.756c-.049.1.038.065.1-.045a3.375,3.375,0,0,1,.956-.83c.078-.052.061-.1-.047-.081s-.166.1-.286.1c-.04,0-.082,0-.076-.078a1.126,1.126,0,0,1,.213-.388c.043-.054.032-.078,0-.075" transform="translate(-730.623 -123.777)"/><path d="M740.768,137.5l.128.371Zm.263-.069.112.373Zm.282-.043.079.382Zm.263-.049.082.381Zm.336-.03.068.384Zm.359,0,.073.384Zm.35-.108.053.386Zm.331.02.052.386Zm.317-.039.054.385Zm.321-.03.028.387Zm.343,0,.023.387Zm.309-.02.021.388Zm.341-.019.018.388Zm.394-.01.017.389Zm5.184.4-.127.371Zm-.263-.069-.112.373Zm-.282-.043-.078.382Zm-.263-.049-.082.381Zm-.336-.03-.068.384Zm-.359,0-.073.384Zm-.35-.108-.052.386Zm-.329.02-.053.386Zm-.318-.039-.053.385Zm-.321-.03-.028.387Zm-.341,0-.025.387Zm-.31-.02-.021.388Zm-.341-.019-.018.388Zm-.393-.01-.018.389Zm-.488-.025v0Z" transform="translate(-730.956 -124.744)" fill="#ed00fd"/><path d="M750.021,137.908l-.015,0a.045.045,0,0,1-.032-.056l.126-.371a.05.05,0,0,1,.062-.03.045.045,0,0,1,.032.057l-.126.371a.05.05,0,0,1-.048.032m-9.137,0a.05.05,0,0,1-.048-.032l-.128-.371a.044.044,0,0,1,.032-.056.05.05,0,0,1,.062.029l.128.371a.045.045,0,0,1-.032.057l-.015,0m8.889-.067h-.014a.044.044,0,0,1-.034-.056l.112-.374a.046.046,0,0,1,.061-.032.045.045,0,0,1,.034.056l-.112.374a.048.048,0,0,1-.047.033m-8.643,0a.048.048,0,0,1-.047-.033l-.112-.374a.045.045,0,0,1,.034-.056.047.047,0,0,1,.061.032l.112.374a.044.044,0,0,1-.034.056h-.014m.25-.035a.05.05,0,0,1-.049-.037l-.078-.381a.046.046,0,0,1,.04-.053.049.049,0,0,1,.058.036l.078.382a.045.045,0,0,1-.039.053h-.01m8.146,0h-.009a.047.047,0,0,1-.04-.053l.078-.382a.051.051,0,0,1,.057-.036.047.047,0,0,1,.04.053l-.077.381a.05.05,0,0,1-.049.037m-.268-.049h-.01a.046.046,0,0,1-.039-.053l.082-.381a.051.051,0,0,1,.057-.036.045.045,0,0,1,.039.053l-.082.381a.048.048,0,0,1-.049.037m-7.611,0a.048.048,0,0,1-.049-.037l-.082-.381a.045.045,0,0,1,.039-.053.051.051,0,0,1,.057.036l.082.381a.046.046,0,0,1-.039.053h-.01m6.925-.029h-.008a.045.045,0,0,1-.04-.052l.073-.383a.042.042,0,0,1,.057-.037.046.046,0,0,1,.04.052l-.073.384a.049.049,0,0,1-.049.037m-6.24,0a.049.049,0,0,1-.049-.037l-.073-.384a.046.046,0,0,1,.04-.052.044.044,0,0,1,.057.037l.073.383a.045.045,0,0,1-.04.052h-.008m6.6,0h-.008a.047.047,0,0,1-.041-.052l.068-.384a.05.05,0,0,1,.1.015l-.068.383a.048.048,0,0,1-.049.038m-6.967,0a.048.048,0,0,1-.048-.038l-.068-.383a.047.047,0,0,1,.041-.053.05.05,0,0,1,.057.038l.068.384a.047.047,0,0,1-.041.052h-.008m5.944-.086h-.006a.048.048,0,0,1-.043-.051l.054-.385a.05.05,0,0,1,.055-.039.047.047,0,0,1,.043.05l-.053.386a.048.048,0,0,1-.049.039m-4.921,0a.047.047,0,0,1-.048-.039l-.053-.386a.047.047,0,0,1,.043-.05.042.042,0,0,1,.055.039l.052.386a.047.047,0,0,1-.043.05h-.006m5.25-.019h-.007a.045.045,0,0,1-.042-.05l.052-.387c0-.024.013-.043.055-.039a.046.046,0,0,1,.043.05l-.052.386a.049.049,0,0,1-.049.04m-5.58,0a.049.049,0,0,1-.049-.04l-.052-.386a.046.046,0,0,1,.043-.05c.041,0,.052.015.055.039l.052.387a.045.045,0,0,1-.042.05h-.006m4.933-.019h-.006a.046.046,0,0,1-.043-.05l.052-.385a.041.041,0,0,1,.056-.04.046.046,0,0,1,.042.05l-.052.386a.048.048,0,0,1-.049.04m-4.284,0a.048.048,0,0,1-.049-.04l-.053-.385a.047.047,0,0,1,.042-.051.048.048,0,0,1,.056.039l.053.386a.046.046,0,0,1-.043.05h-.006m3.649-.029h0a.045.045,0,0,1-.045-.048l.025-.387c0-.025.011-.039.052-.043a.046.046,0,0,1,.046.048l-.025.388a.047.047,0,0,1-.049.042m.338,0h0a.045.045,0,0,1-.045-.048l.028-.387c0-.024.044-.039.052-.042a.046.046,0,0,1,.046.048l-.028.387a.047.047,0,0,1-.049.042m-3.692,0a.047.047,0,0,1-.049-.042l-.028-.387a.046.046,0,0,1,.046-.048c.044,0,.05.018.052.042l.028.387a.045.045,0,0,1-.045.048Zm.338,0a.048.048,0,0,1-.05-.042l-.023-.388a.048.048,0,0,1,.047-.048c.051,0,.051.018.053.043l.023.387a.047.047,0,0,1-.046.048Zm2.71-.019h0a.047.047,0,0,1-.048-.047l.02-.387c0-.025.027-.032.053-.043a.047.047,0,0,1,.047.047l-.02.388a.048.048,0,0,1-.05.043m-2.4,0a.048.048,0,0,1-.05-.043l-.02-.388a.047.047,0,0,1,.047-.047c.036.011.051.018.053.043l.02.387a.047.047,0,0,1-.047.047Zm1.2-.015a.048.048,0,0,1-.05-.045v-.428c0-.05.1-.05.1,0v.428a.048.048,0,0,1-.05.045m.863,0h0a.048.048,0,0,1-.047-.047l.017-.388c0-.025.019-.038.053-.044a.048.048,0,0,1,.047.047l-.017.388a.049.049,0,0,1-.05.044m-1.728,0a.049.049,0,0,1-.05-.044l-.017-.388a.048.048,0,0,1,.047-.047c.044.006.051.019.053.044l.017.388a.048.048,0,0,1-.047.047Zm1.335-.01h0a.048.048,0,0,1-.048-.047l.018-.389c0-.024.036-.039.052-.044a.048.048,0,0,1,.048.048l-.017.388a.049.049,0,0,1-.05.044m-.942,0a.049.049,0,0,1-.05-.044l-.017-.388a.048.048,0,0,1,.048-.048c.027,0,.05.019.052.044l.018.389a.048.048,0,0,1-.048.047Z" transform="translate(-730.944 -124.731)"/></g></g></g></svg>