<svg xmlns="http://www.w3.org/2000/svg" xmlns:xlink="http://www.w3.org/1999/xlink" width="36" height="36" viewBox="0 0 36 36"><defs><clipPath id="a"><circle cx="18" cy="18" r="18" transform="translate(2927 564)" fill="#fff" stroke="#707070" stroke-width="1"/></clipPath><clipPath id="b"><rect width="61.711" height="36" fill="none"/></clipPath></defs><g transform="translate(-2927 -564)" clip-path="url(#a)"><g transform="translate(2484.749 207.257)"><g transform="translate(429.251 356.743)" clip-path="url(#b)"><rect width="61.714" height="36" transform="translate(0 -0.001)" fill="#bc0030"/><rect width="61.714" height="30.857" transform="translate(0 2.571)" fill="#223e84"/><path d="M480.065,376.084a14.142,14.142,0,1,1-14.144-14.142,14.144,14.144,0,0,1,14.144,14.142" transform="translate(-435.066 -358.085)" fill="#fff"/><path d="M466.658,388.705A11.952,11.952,0,1,1,478.6,376.752a11.962,11.962,0,0,1-11.943,11.953m0-23.454a11.5,11.5,0,1,0,11.492,11.5,11.509,11.509,0,0,0-11.492-11.5" transform="translate(-435.823 -358.823)" fill="#502709"/><path d="M469.055,364.122c1.061-1.137,2.019.177,1.994.792s-1.1,1.974-2.064.881c1,.257,1.3-.865,1.811-.876-.507.011-.715-1.1-1.741-.8" transform="translate(-439.506 -358.532)" fill="#348010"/><path d="M468.985,366.234c1,.257,1.254-.851,1.762-.862-.3.352-1.069,1.254-1.762.862" transform="translate(-439.506 -358.97)" fill="#245a08"/><path d="M469.079,364.122c1.061-1.137,2.019.177,1.994.792-.861-1.5-1.131-1.269-1.994-.792" transform="translate(-439.531 -358.532)" fill="#245a08"/><path d="M454.165,375.768c-.557-1.447,1.054-1.718,1.6-1.422s1.3,1.848-.117,2.225c.675-.778-.2-1.542.011-2-.214.456-1.31.149-1.492,1.194" transform="translate(-435.651 -361.259)" fill="#348010"/><path d="M456.19,376.705c.675-.778-.214-1.492,0-1.948.188.42.66,1.505,0,1.948" transform="translate(-436.195 -361.392)" fill="#245a08"/><path d="M454.165,375.768c-.557-1.447,1.054-1.718,1.6-1.422-1.737.1-1.646.443-1.6,1.422" transform="translate(-435.651 -361.259)" fill="#245a08"/><path d="M485.654,374.372c1.453.569.566,1.932-.022,2.131s-2.25-.3-1.574-1.59c.122,1.02,1.283.892,1.477,1.357-.194-.464.774-1.059.118-1.9" transform="translate(-443.356 -361.293)" fill="#348010"/><path d="M484.11,375.1c.122,1.021,1.252.852,1.447,1.317-.439-.146-1.565-.533-1.447-1.317" transform="translate(-443.408 -361.481)" fill="#245a08"/><path d="M486.257,374.372c1.453.569.566,1.932-.022,2.131,1.1-1.34.782-1.5.022-2.131" transform="translate(-443.958 -361.293)" fill="#245a08"/><path d="M460.5,394.058c-1.554-.154-1.074-1.7-.564-2.056s2.247-.321,1.95,1.1c-.4-.95-1.478-.511-1.793-.907.315.4-.453,1.229.407,1.859" transform="translate(-437.044 -365.795)" fill="#348010"/><path d="M462.127,393.249c-.4-.949-1.439-.481-1.754-.875.463.022,1.652.091,1.754.875" transform="translate(-437.284 -365.939)" fill="#245a08"/><path d="M460.5,394.123c-1.554-.154-1.074-1.7-.564-2.056-.688,1.586-.339,1.659.564,2.056" transform="translate(-437.044 -365.86)" fill="#245a08"/><path d="M481.042,393.079c.022,1.549-1.585,1.253-1.994.789s-.579-2.178.882-2.048c-.9.5-.342,1.517-.7,1.872.36-.355,1.279.306,1.814-.613" transform="translate(-442.03 -365.794)" fill="#348010"/><path d="M480.1,391.822c-.9.5-.318,1.473-.677,1.829-.031-.458-.1-1.64.677-1.829" transform="translate(-442.195 -365.797)" fill="#245a08"/><path d="M481.142,393.519c.022,1.549-1.585,1.253-1.994.789,1.666.5,1.7.146,1.994-.789" transform="translate(-442.129 -366.235)" fill="#245a08"/><path d="M455.726,371.9c-.141-1.543,1.483-1.371,1.927-.939s.746,2.129-.722,2.109c.863-.567.226-1.537.557-1.919-.331.382-1.3-.208-1.763.749" transform="translate(-436.082 -360.336)" fill="#348010"/><path d="M457.354,373.258c.864-.567.2-1.493.534-1.874.067.454.223,1.627-.534,1.874" transform="translate(-436.504 -360.522)" fill="#245a08"/><path d="M455.726,371.9c-.141-1.543,1.483-1.371,1.927-.939-1.7-.369-1.706-.016-1.927.939" transform="translate(-436.082 -360.336)" fill="#245a08"/><path d="M457.629,391.068c-1.539-.258-.955-1.774-.421-2.09s2.262-.171,1.87,1.232c-.332-.973-1.441-.609-1.729-1.023.287.414-.536,1.194.279,1.881" transform="translate(-436.32 -365.027)" fill="#348010"/><path d="M459.339,390.342c-.332-.973-1.4-.575-1.689-.991.459.052,1.641.2,1.689.991" transform="translate(-436.581 -365.159)" fill="#245a08"/><path d="M457.629,391.117c-1.539-.258-.955-1.774-.421-2.09-.8,1.536-.452,1.633.421,2.09" transform="translate(-436.32 -365.076)" fill="#245a08"/><path d="M474.043,364.5c1.4-.691,1.824.876,1.58,1.443s-1.729,1.46-2.243.1c.844.593,1.527-.349,2-.181-.478-.168-.275-1.278-1.341-1.358" transform="translate(-440.641 -358.7)" fill="#348010"/><path d="M473.381,366.563c.844.593,1.476-.354,1.953-.184-.4.225-1.447.795-1.953.184" transform="translate(-440.641 -359.225)" fill="#245a08"/><path d="M474.274,364.5c1.4-.691,1.824.876,1.58,1.443-.267-1.706-.6-1.583-1.58-1.443" transform="translate(-440.871 -358.7)" fill="#245a08"/><path d="M477.63,395.5c-.694,1.388-1.988.4-2.137-.2s.488-2.2,1.728-1.424c-1.034.034-1,1.194-1.485,1.347.483-.152,1,.853,1.895.278" transform="translate(-441.18 -366.272)" fill="#348010"/><path d="M477.327,393.936c-1.034.035-.96,1.168-1.444,1.321.183-.423.668-1.5,1.444-1.321" transform="translate(-441.287 -366.337)" fill="#245a08"/><path d="M477.637,396.064c-.694,1.388-1.988.4-2.137-.2,1.254,1.2,1.445.9,2.137.2" transform="translate(-441.188 -366.84)" fill="#245a08"/><path d="M486.808,378.065c1.174,1.021-.123,2.008-.743,2s-2.019-1.033-.944-2.022c-.231,1,.905,1.269.93,1.771-.025-.5,1.088-.739.757-1.747" transform="translate(-443.569 -362.24)" fill="#348010"/><path d="M485.227,378.041c-.231,1,.89,1.221.916,1.724-.364-.284-1.292-1.026-.916-1.724" transform="translate(-443.676 -362.24)" fill="#245a08"/><path d="M487.273,378.073c1.174,1.021-.123,2.008-.743,2,1.488-.895,1.246-1.155.743-2" transform="translate(-444.035 -362.248)" fill="#245a08"/><path d="M460.947,366.751c.351-1.51,1.84-.844,2.126-.3s.039,2.254-1.349,1.782c1-.271.7-1.393,1.132-1.652-.434.26-1.17-.6-1.91.166" transform="translate(-437.432 -359.087)" fill="#348010"/><path d="M461.995,368.514c1-.272.663-1.356,1.1-1.617-.079.453-.3,1.616-1.1,1.617" transform="translate(-437.702 -359.364)" fill="#245a08"/><path d="M460.947,366.751c.351-1.51,1.84-.844,2.126-.3-1.5-.877-1.617-.544-2.126.3" transform="translate(-437.432 -359.087)" fill="#245a08"/><path d="M454.49,383.772c-1.368-.747-.313-1.988.294-2.111s2.2.579,1.36,1.775c.008-1.028-1.16-1.045-1.293-1.532.134.487-.9.953-.361,1.868" transform="translate(-435.592 -363.171)" fill="#348010"/><path d="M456.511,383.539c.008-1.028-1.134-1-1.268-1.488.417.2,1.485.727,1.268,1.488" transform="translate(-435.96 -363.275)" fill="#245a08"/><path d="M454.49,383.777c-1.368-.747-.313-1.988.294-2.111-1.258,1.191-.967,1.4-.294,2.111" transform="translate(-435.592 -363.176)" fill="#245a08"/><path d="M480.978,368.371c1.545-.222,1.457,1.4,1.047,1.86s-2.1.851-2.162-.6c.617.826,1.561.142,1.963.45-.4-.309.141-1.3-.848-1.706" transform="translate(-442.314 -359.739)" fill="#348010"/><path d="M479.863,370.071c.617.825,1.514.121,1.915.43-.453.088-1.624.307-1.915-.43" transform="translate(-442.314 -360.183)" fill="#245a08"/><path d="M481.366,368.371c1.545-.222,1.457,1.4,1.047,1.86.283-1.7-.073-1.692-1.047-1.86" transform="translate(-442.702 -359.739)" fill="#245a08"/><path d="M468.963,397.347c-1.426.631-1.787-.95-1.519-1.507s1.788-1.388,2.244,0c-.82-.627-1.539.286-2.01.1.47.188.222,1.289,1.284,1.413" transform="translate(-439.087 -366.638)" fill="#348010"/><path d="M469.817,395.994c-.82-.627-1.49.292-1.959.105.412-.21,1.479-.737,1.959-.105" transform="translate(-439.215 -366.796)" fill="#245a08"/><path d="M468.963,397.612c-1.426.631-1.787-.95-1.519-1.507.2,1.715.536,1.608,1.519,1.507" transform="translate(-439.087 -366.902)" fill="#245a08"/><path d="M485.965,386.238c.643,1.411-.949,1.778-1.51,1.513s-1.407-1.769-.016-2.228c-.628.817.3,1.527.108,1.994.188-.467,1.3-.226,1.418-1.28" transform="translate(-443.299 -364.171)" fill="#348010"/><path d="M484.6,385.524c-.629.817.3,1.477.114,1.945-.213-.408-.749-1.465-.114-1.945" transform="translate(-443.459 -364.171)" fill="#245a08"/><path d="M486.234,386.487c.643,1.411-.949,1.778-1.51,1.513,1.727-.2,1.617-.539,1.51-1.513" transform="translate(-443.569 -364.42)" fill="#245a08"/><path d="M453.791,379.736c-.9-1.27.6-1.922,1.2-1.766s1.711,1.482.43,2.187c.465-.917-.575-1.445-.478-1.94-.1.495-1.234.46-1.155,1.519" transform="translate(-435.513 -362.216)" fill="#348010"/><path d="M455.922,380.269c.465-.917-.572-1.4-.475-1.89.285.361,1.008,1.3.475,1.89" transform="translate(-436.01 -362.327)" fill="#245a08"/><path d="M453.791,379.736c-.9-1.27.6-1.922,1.2-1.766-1.66.517-1.489.828-1.2,1.766" transform="translate(-435.513 -362.216)" fill="#245a08"/><path d="M464.774,395.917c-1.467.535-1.718-1.068-1.414-1.6s1.88-1.263,2.241.146c-.775-.681-1.554.182-2.014-.037.459.22.135,1.3,1.187,1.5" transform="translate(-438.025 -366.266)" fill="#348010"/><path d="M465.737,394.622c-.775-.681-1.506.193-1.963-.027.427-.18,1.526-.636,1.963.027" transform="translate(-438.161 -366.43)" fill="#245a08"/><path d="M464.774,396.151c-1.467.535-1.718-1.068-1.414-1.6.08,1.724.427,1.64,1.414,1.6" transform="translate(-438.025 -366.5)" fill="#245a08"/><path d="M464.67,364.919c.869-1.288,2.022-.139,2.093.473s-.77,2.118-1.9,1.189c1.028.1,1.148-1.056,1.647-1.145-.5.089-.878-.974-1.844-.518" transform="translate(-438.393 -358.702)" fill="#348010"/><path d="M464.935,366.972c1.029.1,1.1-1.035,1.6-1.125-.235.4-.857,1.406-1.6,1.125" transform="translate(-438.461 -359.093)" fill="#245a08"/><path d="M464.67,364.919c.869-1.288,2.022-.139,2.093.473-1.086-1.348-1.315-1.078-2.093-.473" transform="translate(-438.393 -358.702)" fill="#245a08"/><path d="M484.109,390.193c.093,1.547-1.525,1.325-1.956.881s-.678-2.15.787-2.087c-.88.54-.272,1.531-.616,1.9.344-.371,1.294.248,1.785-.7" transform="translate(-442.819 -365.065)" fill="#348010"/><path d="M483.109,388.987c-.88.54-.249,1.486-.592,1.857-.051-.456-.171-1.632.592-1.857" transform="translate(-442.989 -365.065)" fill="#245a08"/><path d="M484.224,390.613c.093,1.547-1.525,1.325-1.956.881,1.687.421,1.706.068,1.956-.881" transform="translate(-442.935 -365.485)" fill="#245a08"/><path d="M483.668,371.024c1.531.306.9,1.8.355,2.1s-2.267.1-1.83-1.289c.3.983,1.421.654,1.695,1.078-.273-.424.573-1.178-.22-1.889" transform="translate(-442.897 -360.429)" fill="#348010"/><path d="M482.218,372.117c.3.983,1.384.62,1.657,1.044-.459-.067-1.634-.253-1.657-1.044" transform="translate(-442.922 -360.711)" fill="#245a08"/><path d="M484.206,371.024c1.531.306.9,1.8.355,2.1.843-1.509.5-1.617-.355-2.1" transform="translate(-443.435 -360.429)" fill="#245a08"/><path d="M458.243,369.093c.016-1.549,1.615-1.216,2.013-.743s.526,2.192-.931,2.028c.916-.479.379-1.508.748-1.854-.369.346-1.275-.338-1.83.569" transform="translate(-436.734 -359.637)" fill="#348010"/><path d="M459.7,370.59c.916-.479.352-1.467.72-1.812.019.458.059,1.641-.72,1.812" transform="translate(-437.11 -359.849)" fill="#245a08"/><path d="M458.243,369.093c.016-1.549,1.615-1.216,2.013-.743-1.654-.537-1.7-.185-2.013.743" transform="translate(-436.734 -359.637)" fill="#245a08"/><path d="M455.521,387.536c-1.393-.7-.384-1.974.221-2.119s2.212.5,1.419,1.728c-.025-1.028-1.194-1.006-1.344-1.488.15.482-.869.984-.3,1.879" transform="translate(-435.85 -364.139)" fill="#348010"/><path d="M457.517,387.25c-.025-1.028-1.167-.964-1.316-1.445.422.186,1.508.676,1.316,1.445" transform="translate(-436.207 -364.244)" fill="#245a08"/><path d="M455.521,387.543c-1.393-.7-.384-1.974.221-2.119-1.218,1.232-.919,1.426-.221,2.119" transform="translate(-435.85 -364.146)" fill="#245a08"/><path d="M477.9,366.042c1.459-.548,1.726,1.053,1.424,1.592s-1.867,1.281-2.241-.128c.782.675,1.555-.2,2.014.019-.458-.214-.145-1.3-1.2-1.484" transform="translate(-441.596 -359.114)" fill="#348010"/><path d="M477.083,368.046c.782.675,1.5-.2,1.963.011-.424.185-1.52.648-1.963-.011" transform="translate(-441.596 -359.654)" fill="#245a08"/><path d="M478.184,366.042c1.459-.548,1.726,1.053,1.424,1.592-.093-1.724-.438-1.636-1.424-1.592" transform="translate(-441.881 -359.114)" fill="#245a08"/><path d="M472.948,396.913c-1.253.921-1.95-.547-1.809-1.148s1.446-1.735,2.191-.483c-.936-.438-1.442.608-1.942.526.5.082.495,1.212,1.56,1.1" transform="translate(-440.058 -366.544)" fill="#348010"/><path d="M473.44,395.417c-.936-.438-1.39.6-1.891.521.358-.292,1.286-1.033,1.891-.521" transform="translate(-440.168 -366.679)" fill="#245a08"/><path d="M472.948,397.278c-1.253.921-1.95-.547-1.809-1.148.563,1.634.872,1.456,1.809,1.148" transform="translate(-440.058 -366.909)" fill="#245a08"/><path d="M486.671,381.863c1.066,1.132-.323,1.986-.941,1.915s-1.9-1.227-.735-2.106c-.331.974.775,1.352.749,1.855.027-.5,1.156-.628.927-1.664" transform="translate(-443.516 -363.177)" fill="#348010"/><path d="M485.116,381.673c-.331.973.763,1.3.738,1.806-.333-.319-1.183-1.148-.738-1.806" transform="translate(-443.637 -363.177)" fill="#245a08"/><path d="M487.092,381.929c1.066,1.132-.323,1.986-.941,1.915,1.57-.742,1.358-1.025.941-1.915" transform="translate(-443.937 -363.243)" fill="#245a08"/><path d="M460.288,387.141c.109.05,0-.358.036-.512s.358.395.512.468,1.144-.388,1.144-.388l.234-.441.124.361s.272-.315.352-.433,0,.233-.08.352.234.161.2.395.315-.16.315-.16l.91.08a3.1,3.1,0,0,1,.4-.864l.073.351.374-.381a3.067,3.067,0,0,0,6.115.2l.505.519a4.347,4.347,0,0,0,.469-.162,5.3,5.3,0,0,1,.931.3,1.385,1.385,0,0,1,.234.117c.08.059.022-.256.022-.256s.432.08.395.315c0,0,.1-.22.176-.257s.272.2.315.278.966.19,1.1.27a.437.437,0,0,1,.1.2s.2-.024.352-.024a.221.221,0,0,0-.117.184.292.292,0,0,1-.176.272c-.116.057,0,.1.154.117s0,.22-.315.336c0,0-.074.176.059.234,0,0-.272.022-.315-.059a.9.9,0,0,0-.1.279,3.988,3.988,0,0,1-.374-.139s-.117.117-.037.176c0,0-.533-.059-.637-.257,0,0-.19.059-.152.125a1.871,1.871,0,0,0-.491-.257l-.081.131a1.335,1.335,0,0,0-.337-.154c-.073,0-.015.119-.015.119l-.358-.22-.139.22a3.915,3.915,0,0,1-.375-.2c-.073-.059-.093.118-.154.139a.337.337,0,0,0-.278-.139.784.784,0,0,0-.037.257s-.453-.1-.533-.118-.036.1,0,.177a2.043,2.043,0,0,1-.41-.154l-.023.154a.9.9,0,0,1-.338-.081l-.174.242h-.257l-.058.213s-.491-.139-.536-.059a.281.281,0,0,0,.023.2s-.4,0-.432-.059l-.038.175s-.5-.154-.614-.08a1.011,1.011,0,0,1-.257.2c-.094.042,0-.059,0-.059l-.153-.213s-.176.1-.279.06-.41.153-.511.093c0,0,0-.138-.082-.175a.218.218,0,0,0-.272.059s-.058-.08-.161-.234-.234.015-.234.015l-.022-.191a2.175,2.175,0,0,1-.272-.022.235.235,0,0,1-.2-.16,3.011,3.011,0,0,1-.475.022l.1-.094a2.83,2.83,0,0,1-.688.073c-.124-.036.133-.2.133-.2s-.528-.133-.63-.154-.667.1-.749.1-.118-.134-.118-.134a.921.921,0,0,1-.255.154s-.094-.234-.036-.256c0,0-.373.1-.4.2,0,0-.093-.154-.081-.219a1.959,1.959,0,0,1-.256.337c-.08.059-.013-.139-.013-.139s-.22.279-.3.3v-.2s-.631.338-.806.293c0,0,0-.139.059-.177a3.271,3.271,0,0,1-.4-.021c-.095-.015-.213-.059-.315-.08s.139-.118.3-.074c0,0-.44-.161-.573-.08,0,0-.058-.161.177-.22,0,0-.3-.294-.476-.272a.494.494,0,0,1,.358-.059s-.183-.5-.3-.556a1.516,1.516,0,0,1,.535-.015" transform="translate(-437.109 -364.286)" fill="#479513"/><path d="M467.642,389.466l-.024-.014c0-.007-.01-.025.045-.086l-.152-.186a.351.351,0,0,1-.211.072l-.091-.015a.745.745,0,0,0-.2.053.812.812,0,0,1-.23.059l-.068-.029s0-.128-.07-.159a.166.166,0,0,0-.249.052c-.031,0-.089-.081-.191-.234-.064-.106-.178-.018-.2.017l-.053-.194a.7.7,0,0,1-.257-.011.252.252,0,0,1-.212-.172,2.262,2.262,0,0,1-.464.03l.089-.116a1.776,1.776,0,0,1-.676.1c-.052-.105.078-.2.12-.226a4.9,4.9,0,0,1-.617-.125,2.1,2.1,0,0,0-.492.059c-.119.019-.22.036-.251.036-.082,0-.123-.108-.134-.137a.508.508,0,0,1-.234.158.413.413,0,0,1-.073-.266c-.105.049-.333.134-.349.2a.3.3,0,0,1-.117-.2,1.032,1.032,0,0,1-.226.326c-.063-.022-.062-.081-.052-.125a.8.8,0,0,1-.268.289l-.024-.216a1.95,1.95,0,0,1-.75.316.151.151,0,0,1,0-.2,1.176,1.176,0,0,1-.375,0,1.355,1.355,0,0,1-.177-.044c-.047-.014-.094-.027-.139-.036-.03-.071.083-.112.184-.119a.951.951,0,0,0-.441-.038c-.028-.012-.05-.073-.016-.137a.254.254,0,0,1,.17-.113c-.044-.011-.289-.238-.446-.238v0c.181-.029.459.231.472.243a.4.4,0,0,0-.162.128.131.131,0,0,0-.01.1c0-.027.041-.035.093-.035a1.813,1.813,0,0,1,.467.1.127.127,0,0,1-.094.025.383.383,0,0,0-.217.057.571.571,0,0,1,.149.029,1.255,1.255,0,0,0,.174.042,2.977,2.977,0,0,0,.392.022.509.509,0,0,0-.041.194,3.257,3.257,0,0,0,.78-.309l.027.214c.031-.033.181-.2.269-.312.012.074,0,.134.007.145a2.118,2.118,0,0,0,.261-.341,1.6,1.6,0,0,0,.111.22c-.008-.095.312-.189.376-.206a.7.7,0,0,0,.058.267,1.766,1.766,0,0,0,.228-.16c.039.042.075.127.13.127.03,0,.129-.016.245-.036a4.211,4.211,0,0,1,.469-.063c.139.024.667.158.667.158-.073.082-.156.154-.151.182a.162.162,0,0,0,.1.024,4.269,4.269,0,0,0,.6-.082l-.085.125c.2-.024.46-.052.46-.052a.283.283,0,0,0,.2.161,1.987,1.987,0,0,0,.269.023l.036.182a.14.14,0,0,1,.237,0c.1.153.16.233.16.233.007-.084.171-.112.265-.064s.09.186.09.192a.982.982,0,0,0,.25-.065.744.744,0,0,1,.209-.054l.091.015a.567.567,0,0,0,.216-.065l.181.223-.034.054.007-.007a.953.953,0,0,0,.252-.194c.128-.084.616.07.632.076l.015-.162a1.666,1.666,0,0,0,.438.045.192.192,0,0,1-.028-.186c.05-.095.542.042.558.047l.036-.2.273-.013.162-.235a1.2,1.2,0,0,0,.354.073v-.137c.1.043.43.137.434.138-.067-.075-.079-.132-.06-.161.14.007.592.1.592.1-.042-.039.01-.223.016-.243a.355.355,0,0,1,.31.134.183.183,0,0,1,.03-.075c.022-.042.043-.083.082-.083.118.073.41.211.41.211l.116-.212.346.193a.078.078,0,0,1-.005-.076c.134-.03.365.117.392.134l.058-.125a1.765,1.765,0,0,1,.487.231,3.8,3.8,0,0,0-.473-.2l-.067.122a2.262,2.262,0,0,0-.35-.145c-.026.021-.012.065,0,.091l-.013-.007h0a.032.032,0,0,1-.023-.013l-.347-.177-.115.214c-.043.025-.32-.134-.4-.193-.028-.005-.052.028-.067.056s-.039.075-.07.087c-.022-.008-.119-.141-.254-.141a.452.452,0,0,0-.05.235,3.449,3.449,0,0,1-.556-.094c-.023.006-.031.034.022.151a1.062,1.062,0,0,1-.439-.132l.009.141a.657.657,0,0,1-.369-.069l-.148.24-.27.007-.041.2c-.019.012-.316-.07-.466-.07a.163.163,0,0,0-.048.2c-.113.025-.427.022-.463-.041l0,.17c-.033.013-.347-.085-.53-.085a.189.189,0,0,0-.093.016.935.935,0,0,1-.261.2Zm.341-.539a5,5,0,0,1-3.121-2.957l-.346.387-.1-.36a3.886,3.886,0,0,0-.359.866l-.928-.068c-.007.019-.2.235-.286.235a.082.082,0,0,1-.046-.1.252.252,0,0,0-.125-.24c-.056-.047-.114-.1-.068-.162a.972.972,0,0,0,.11-.323.516.516,0,0,1-.079.344c-.025.036,0,.06.062.114a.289.289,0,0,1,.138.273c.062.051.2-.087.283-.176l.924.074a2.528,2.528,0,0,1,.38-.857l.105.358.344-.39a3.066,3.066,0,0,0,6.112.2l.534.514c0-.01.378-.122.447-.164h.005a5.541,5.541,0,0,1,.941.3,1.31,1.31,0,0,1,.239.119c.019-.01.013-.123-.008-.239.037-.014.41.053.433.263a.4.4,0,0,1,.149-.224c.122,0,.3.214.338.286a2.6,2.6,0,0,0,.545.133,3.048,3.048,0,0,1,.548.13.465.465,0,0,1,.111.211,1.124,1.124,0,0,1,.333-.036c0,.036-.1.09-.1.2a.309.309,0,0,1-.186.287c-.036.042.012.07.148.083.065.009.077.043.079.062.01.089-.162.226-.389.31.006,0-.053.151.059.2l-.083.037c-.134,0-.216-.021-.248-.062,0,.039-.068.183-.068.26a1.329,1.329,0,0,1-.4-.123c0,.015-.042.069-.039.11v0a.147.147,0,0,1,.035-.142c.1.041.392.135.392.135-.024-.082.069-.262.073-.27a.476.476,0,0,0,.254.052l.074,0c-.123-.018-.1-.157-.073-.224.255-.1.382-.229.376-.282-.141-.039-.254-.061-.265-.111l0-.014.06-.056a.274.274,0,0,0,.166-.255.236.236,0,0,1,.127-.2c-.146.034-.341.057-.341.057a.632.632,0,0,0-.119-.206,3.459,3.459,0,0,0-.53-.122c-.381-.073-.551-.109-.571-.152-.043-.078-.2-.272-.28-.272-.072.03-.152.19-.178.249V387a.035.035,0,0,1,0-.022c-.034-.2-.41-.275-.414-.275a.331.331,0,0,1,.027.251l-.284-.114a6.829,6.829,0,0,0-.907-.3,4.836,4.836,0,0,1-.481.164l-.524-.525a4.9,4.9,0,0,1-3,2.752m6.289-.086c-.159,0-.469-.072-.548-.223-.027.024-.11.059-.122.092h0c.005-.075.123-.112.137-.116.094.154.44.224.583.247l-.045,0m-14.557-1.063c-.01-.048.209-.137.349-.088-.073-.113-.224-.476-.314-.523a.922.922,0,0,1,.551-.046c.033-.022.022-.137.014-.229a1,1,0,0,1,0-.273c.1-.042.174.049.293.2a1.13,1.13,0,0,0,.244.259h.009a4.528,4.528,0,0,0,1.12-.389l.226-.433.155.358c.006-.043.247-.323.321-.432a.037.037,0,0,1,.021.013,5.186,5.186,0,0,1-.344.441l-.155-.366-.2.443a4.688,4.688,0,0,1-1.107.407.766.766,0,0,1-.318-.28c-.08-.1-.18-.227-.219-.227a.74.74,0,0,0-.007.277c.013.137.019.224-.01.256-.084-.006-.136-.013-.207-.013a2.584,2.584,0,0,0-.372.037c.124.027.295.48.314.532a.368.368,0,0,1-.116.008.567.567,0,0,0-.244.069" transform="translate(-437.114 -364.282)" fill="#2a680b"/><path d="M467.022,385.7a5.278,5.278,0,0,1-.447-.973l3.172-2.793,3.172,2.785a4.9,4.9,0,0,1-.461,1l-.015.022c-.058-.022-.249-.073-.249-.073a.44.44,0,0,1-.184.1.273.273,0,0,1-.206-.094.4.4,0,0,1-.277.094.272.272,0,0,1-.2-.1s-.148.116-.249.093a.357.357,0,0,1-.162-.088.241.241,0,0,1-.211.088.755.755,0,0,1-.228-.088,1.424,1.424,0,0,1-.3.1c-.118.022-.22-.1-.22-.1a.719.719,0,0,1-.213.1,1.43,1.43,0,0,1-.278-.1,1.722,1.722,0,0,1-.308.073,1.45,1.45,0,0,1-.3-.1,1.743,1.743,0,0,1-.307.059.851.851,0,0,1-.249-.059.6.6,0,0,1-.27.059.905.905,0,0,1-.184-.059.733.733,0,0,1-.315.059.945.945,0,0,1-.256-.1s-.022.058-.25.1Z" transform="translate(-438.884 -363.246)" fill="#a7d5fd"/><path d="M471.807,385.918a.941.941,0,0,0,.243-.665.584.584,0,0,0-.265-.379l.018-.032a.614.614,0,0,1,.283.406.833.833,0,0,1-.279.67" transform="translate(-440.229 -363.995)"/><path d="M467.9,386.116a5.474,5.474,0,0,0,.652.263,4.648,4.648,0,0,0,1.553.2c1.384,0,1.364-.233,1.364-.233l-.492.5a14.421,14.421,0,0,1-2.329-.124,4.518,4.518,0,0,1-.748-.609Z" transform="translate(-439.225 -364.324)" fill="#69000e"/><path d="M470.794,386.87a11.374,11.374,0,0,1-2.16-.127,4.612,4.612,0,0,1-.752-.611,3.582,3.582,0,0,1,.67.233,4.641,4.641,0,0,0,1.547.206,3.166,3.166,0,0,0,1.27-.148l.081-.082c.032.02.031.064-.061.113l-.021-.028-.384.438Zm-2.909-.734a8,8,0,0,0,.765.576,12.126,12.126,0,0,0,2.144.122h.177l.4-.408c-.111.1-.442.182-1.269.182a4.644,4.644,0,0,1-1.558-.208,5.584,5.584,0,0,1-.655-.264" transform="translate(-439.221 -364.327)"/><path d="M468.8,386.154l.066-1.16-.878.878-.024-.026.908-.864Z" transform="translate(-439.242 -364.032)"/><path d="M469.716,386.026h-.036v-1.933Z" transform="translate(-439.686 -363.802)"/><path d="M471.809,385.985h-.036v-2.051Z" transform="translate(-440.226 -363.761)"/><path d="M470.754,385.982h-.036v-2.206Z" transform="translate(-439.953 -363.72)"/><path d="M469.561,384.229l-.41.134.41.043Z" transform="translate(-439.549 -363.837)" fill="#ea002a"/><path d="M469.579,384.42l-.43-.046.407-.168Zm-.036-.2-.387.151.387.008Z" transform="translate(-439.549 -363.831)"/><path d="M470.592,383.826l-.432.161.432.015Z" transform="translate(-439.81 -363.733)" fill="#ea002a"/><path d="M470.61,384.015l-.451-.016.427-.2Zm-.036-.2-.407.178.407-.019Z" transform="translate(-439.809 -363.727)"/><path d="M471.647,383.984l-.43.161.43.021Z" transform="translate(-440.082 -363.774)" fill="#ea002a"/><path d="M471.665,384.179l-.45-.022.425-.2Zm-.036-.2-.406.177.406-.013Z" transform="translate(-440.082 -363.768)"/><path d="M468.165,385.749l.769-.749-.037.447s-.4.256-.4.44l-.336-.14Z" transform="translate(-439.295 -364.036)" fill="#fff"/><path d="M468.517,385.91l-.361-.15.763-.778-.007.461c-.013.017-.4.268-.4.439Zm.4-.916-.737.763.307.1c.03-.188.386-.421.4-.431Z" transform="translate(-439.292 -364.031)"/><path d="M468.718,386.093a.7.7,0,0,1,.3-.352l-.023.469Z" transform="translate(-439.437 -364.227)" fill="#fff"/><path d="M469.01,386.231l-.3-.127a.57.57,0,0,1,.3-.384l0,.485Z" transform="translate(-439.435 -364.222)"/><path d="M470.183,384.461a2.07,2.07,0,0,1,.549,0,1.292,1.292,0,0,0,0,.373s-.432-.1-.608.059a.636.636,0,0,1,.059-.433" transform="translate(-439.797 -363.892)" fill="#fff"/><path d="M470.106,384.923l-.007-.032a.645.645,0,0,1,.063-.448,1.8,1.8,0,0,1,.567-.006,1.8,1.8,0,0,0,.012.381c-.019.026-.154,0-.3,0a.455.455,0,0,0-.312.087Zm.372-.47a2.458,2.458,0,0,0-.3.019.589.589,0,0,0-.048.381c.148-.105.588-.045.6-.043-.057-.035-.026-.325-.022-.358-.062.006-.149,0-.229,0" transform="translate(-439.79 -363.886)"/><path d="M469.292,384.569a2.076,2.076,0,0,1,.55,0,1.443,1.443,0,0,0-.023.41s-.351-.2-.527-.037c0,0-.118-.241,0-.373" transform="translate(-439.572 -363.92)" fill="#fff"/><path d="M469.865,385.023l-.061-.034s-.37-.166-.505-.039a.341.341,0,0,1-.027-.4,1.828,1.828,0,0,1,.568-.006,2.008,2.008,0,0,0-.012.418Zm-.4-.168a.792.792,0,0,1,.317.084,1.941,1.941,0,0,1,.032-.378c-.062.006-.148,0-.229,0a2.383,2.383,0,0,0-.3.02c-.1.115.013.345.014.347.021-.05.087-.073.167-.073" transform="translate(-439.566 -363.913)"/><path d="M469.258,385.123a2.44,2.44,0,0,1,.549,0,1.3,1.3,0,0,0,0,.374s-.41-.1-.585.058c0,0-.08-.293.036-.432" transform="translate(-439.561 -364.064)" fill="#fff"/><path d="M469.2,385.581l-.007-.028c0-.013-.08-.3.041-.448a2.043,2.043,0,0,1,.566-.006,1.837,1.837,0,0,0,.013.382c-.022.027-.146,0-.284,0a.461.461,0,0,0-.306.084Zm.351-.463a2.885,2.885,0,0,0-.3.016.539.539,0,0,0-.028.382,1.2,1.2,0,0,1,.579-.043c-.057-.036-.026-.326-.022-.359a1.882,1.882,0,0,1-.229,0" transform="translate(-439.554 -364.057)"/><path d="M470.114,385.039a3.33,3.33,0,0,1,.689-.022.542.542,0,0,0,.023.432s-.491-.132-.674.022c0,0-.153-.293-.037-.432" transform="translate(-439.786 -364.037)" fill="#fff"/><path d="M470.139,385.493l-.01-.02c-.006-.013-.157-.306-.035-.452a2.9,2.9,0,0,1,.706-.029c.013.027-.076.274.035.44a2.935,2.935,0,0,1-.4-.024.436.436,0,0,0-.277.07Zm.463-.477a4.437,4.437,0,0,0-.492.035c-.08.1.011.32.042.386.16-.109.658-.016.673-.012a.454.454,0,0,1-.046-.421.561.561,0,0,1-.177.013" transform="translate(-439.78 -364.031)"/><path d="M469.2,385.711a4.113,4.113,0,0,1,.61.045,2.214,2.214,0,0,0-.023.5s-.491-.117-.587.045c0,0-.16-.411,0-.6" transform="translate(-439.544 -364.22)" fill="#fff"/><path d="M469.194,386.341l-.013-.035c-.007-.017-.162-.423,0-.613a3.132,3.132,0,0,1,.628.039,2.933,2.933,0,0,0-.011.514c-.024.026-.192-.013-.349-.013-.126,0-.208.026-.238.076Zm0-.618c-.115.14-.027.444.006.54.108-.1.573-.029.585-.025-.056-.035-.01-.415,0-.49-.216-.024-.588-.024-.592-.024" transform="translate(-439.538 -364.214)"/><path d="M470.135,385.705a5.118,5.118,0,0,1,.769,0,.825.825,0,0,0,.016.631s-.688-.2-.784-.036c0,0-.162-.411,0-.6" transform="translate(-439.784 -364.214)" fill="#fff"/><path d="M470.95,386.357l-.042-.011c-.005,0-.7-.162-.763-.044-.04-.02-.2-.426-.03-.617a4.122,4.122,0,0,1,.786-.006,1.013,1.013,0,0,0,.028.64Zm-.619-.146a2.541,2.541,0,0,1,.548.089.846.846,0,0,1,0-.609,1.769,1.769,0,0,1-.29.01c-.227,0-.461.016-.461.016-.141.168.014.566.016.571,0-.052.067-.076.185-.076" transform="translate(-439.779 -364.207)"/><path d="M471.219,384.461a2.071,2.071,0,0,1,.549,0,1.292,1.292,0,0,0,0,.373s-.431-.1-.607.059a.634.634,0,0,1,.058-.433" transform="translate(-440.064 -363.892)" fill="#fff"/><path d="M471.143,384.923l-.007-.032a.644.644,0,0,1,.062-.448,1.8,1.8,0,0,1,.567-.006,1.8,1.8,0,0,0,.012.381c-.019.026-.152,0-.3,0a.455.455,0,0,0-.312.087Zm.372-.47a2.457,2.457,0,0,0-.3.019.587.587,0,0,0-.047.381c.147-.1.587-.045.6-.043-.057-.035-.026-.325-.022-.358-.063.006-.149,0-.229,0" transform="translate(-440.058 -363.886)"/><path d="M471.219,385.045a2.392,2.392,0,0,1,.549,0,1.292,1.292,0,0,0,0,.373s-.431-.1-.607.059a.632.632,0,0,1,.058-.432" transform="translate(-440.064 -364.043)" fill="#fff"/><path d="M471.143,385.5l-.007-.031a.642.642,0,0,1,.062-.447,2.04,2.04,0,0,1,.566-.006,1.83,1.83,0,0,0,.013.381c-.019.028-.151,0-.3,0a.472.472,0,0,0-.315.084Zm.372-.465a2.89,2.89,0,0,0-.3.016.588.588,0,0,0-.047.381,1.262,1.262,0,0,1,.6-.042c-.056-.036-.025-.326-.022-.358a2.251,2.251,0,0,1-.229,0" transform="translate(-440.058 -364.037)"/><path d="M471.274,385.655a2.09,2.09,0,0,1,.557,0,2.549,2.549,0,0,0-.045.549s-.358-.168-.527-.022c0,0-.1-.388.015-.527" transform="translate(-440.083 -364.2)" fill="#fff"/><path d="M471.829,386.241l-.056-.026s-.377-.139-.507-.025c-.033-.025-.134-.407-.011-.553a1.816,1.816,0,0,1,.574-.006,3.1,3.1,0,0,0-.033.557Zm-.255-.594a2.493,2.493,0,0,0-.3.019c-.1.125,0,.5,0,.505.047-.128.384-.045.484,0a3.364,3.364,0,0,1,.052-.522c-.064.007-.153,0-.234,0" transform="translate(-440.077 -364.194)"/><path d="M472.144,385.209c-.024-.088.256-.08.256-.08a.891.891,0,0,1,0,.476l-.235-.044a1.118,1.118,0,0,0-.021-.352" transform="translate(-440.321 -364.069)" fill="#ea002a"/><path d="M472.406,385.62l-.249-.047a2.787,2.787,0,0,0-.036-.365c.047-.1.182-.1.259-.1a.655.655,0,0,1,.032.5Zm-.028-.492a.455.455,0,0,0-.219.056,1.261,1.261,0,0,1,.019.373l.206.023a.9.9,0,0,0-.006-.452" transform="translate(-440.316 -364.063)"/><path d="M472.113,385.711s.1.375.234.418l-.176.212a.614.614,0,0,1-.234-.329.973.973,0,0,0,.176-.3" transform="translate(-440.268 -364.22)" fill="#fff"/><path d="M472.167,386.365l-.013-.01a.618.618,0,0,1-.242-.341,1.19,1.19,0,0,0,.177-.308c.062.1.157.372.258.406Zm-.079-.65a.609.609,0,0,1-.145.308.591.591,0,0,0,.218.292l.165-.2c-.132-.018-.234-.387-.238-.4" transform="translate(-440.262 -364.218)"/><path d="M472.6,387.024a4.974,4.974,0,0,1-2.7,2.125,5.05,5.05,0,0,1-2.726-2.163l.007-.007c.228-.044.25-.1.25-.1a1.031,1.031,0,0,0,.257.1.721.721,0,0,0,.315-.059,1.065,1.065,0,0,0,.182.059.587.587,0,0,0,.272-.059.851.851,0,0,0,.249.059,1.728,1.728,0,0,0,.307-.059,1.492,1.492,0,0,0,.3.094,1.711,1.711,0,0,0,.306-.072,1.451,1.451,0,0,0,.28.1.716.716,0,0,0,.211-.1s.1.125.219.1a1.379,1.379,0,0,0,.3-.1.74.74,0,0,0,.228.088.241.241,0,0,0,.211-.088.357.357,0,0,0,.162.088c.1.023.249-.094.249-.094a.272.272,0,0,0,.2.1.4.4,0,0,0,.278-.1.268.268,0,0,0,.2.1.432.432,0,0,0,.184-.1l.248.081Z" transform="translate(-439.039 -364.52)" fill="#3667c4"/><path d="M472.155,387.337a.216.216,0,0,1-.038,0,.346.346,0,0,1-.224-.123.331.331,0,0,1-.246.109.373.373,0,0,1-.182-.091.211.211,0,0,1-.212.091.631.631,0,0,1-.242-.091,1.172,1.172,0,0,1-.309.105c-.13.02-.24-.12-.244-.125a1.265,1.265,0,0,1-.33.1,1.159,1.159,0,0,1-.279-.1.423.423,0,0,1-.213.09,1.37,1.37,0,0,1-.329-.1,1.385,1.385,0,0,1-.315.059.932.932,0,0,1-.263-.059.607.607,0,0,1-.289.059,1.035,1.035,0,0,1-.188-.059.639.639,0,0,1-.326.059,1.052,1.052,0,0,1-.27-.1c0,.01-.048.056-.257.1.213-.083.245-.129.245-.129a1.744,1.744,0,0,0,.289.093.745.745,0,0,0,.32-.057c.015,0,.094.036.194.057a.561.561,0,0,0,.281-.057,1.306,1.306,0,0,0,.264.057,1.855,1.855,0,0,0,.318-.058,1.777,1.777,0,0,0,.326.1.591.591,0,0,0,.211-.085,1.7,1.7,0,0,0,.281.094,2.5,2.5,0,0,0,.339-.1c.021.008.108.136.229.117a2.106,2.106,0,0,0,.319-.1.948.948,0,0,0,.243.086.238.238,0,0,0,.2-.082c.028,0,.1.068.194.082.069.015.2-.067.24-.1a.569.569,0,0,0,.228.113.424.424,0,0,0,.271-.1c.03.013.033.055.134.06l0,.036a.128.128,0,0,1-.141-.071.3.3,0,0,1-.234.112" transform="translate(-439.097 -364.586)"/><path d="M469.633,377.613v3.209l-3.172,2.806a6.334,6.334,0,0,1-.331-2.037v-3.978Z" transform="translate(-438.769 -362.13)" fill="#fff"/><path d="M466.439,383.665l-.012-.036a6.266,6.266,0,0,1-.332-2.045v-3.977l3.528-.025.025,3.233Zm3.158-6.058-3.477.025.026,3.951a6.241,6.241,0,0,0,.316,1.993l3.144-2.781Z" transform="translate(-438.76 -362.121)"/><path d="M470.851,377.613v3.209l3.165,2.806a6.307,6.307,0,0,0,.328-2.037v-3.978Z" transform="translate(-439.988 -362.13)" fill="#f6d848"/><path d="M474.017,383.665l-3.192-2.831-.009-3.227,3.518-.025.025,4a6.265,6.265,0,0,1-.329,2.045Zm.292-6.058-3.468.025.025,3.183,3.128,2.762a6.248,6.248,0,0,0,.315-1.993Z" transform="translate(-439.979 -362.121)"/><path d="M466.452,378.6l1.991,2.162a.68.68,0,0,1,.184.483c0,.074.2.177.234.19.089.037.11-.131.1-.154a.588.588,0,0,0-.058-.109c.022-.021.079.067.168.1s.14-.067.1-.168a.247.247,0,0,0-.162-.176s-.228-.065-.264-.125a2.984,2.984,0,0,0-.3-.395l-1.5-2.242a.385.385,0,0,0-.483-.073.432.432,0,0,0-.013.5" transform="translate(-438.833 -362.24)" fill="#a54918"/><path d="M468.877,381.457l-.03-.007c-.165-.083-.246-.153-.246-.208a.667.667,0,0,0-.177-.469l-1.993-2.164a.4.4,0,0,1-.078-.3.35.35,0,0,1,.093-.229.413.413,0,0,1,.507.074l1.5,2.245a2.865,2.865,0,0,1,.3.4.692.692,0,0,0,.254.117.263.263,0,0,1,.174.188.173.173,0,0,1-.016.156l-.074.043a.414.414,0,0,1-.15-.083.439.439,0,0,1,.027.058.235.235,0,0,1-.035.15Zm-2.238-3.4a.281.281,0,0,0-.17.053.323.323,0,0,0-.079.2.367.367,0,0,0,.068.276l1.99,2.161a.694.694,0,0,1,.189.5c0,.03.058.091.221.174l.019.022.03-.035a.211.211,0,0,0,.032-.119.532.532,0,0,0-.056-.1l.088.006a.4.4,0,0,0,.1.069c.09-.053.094-.1.079-.145a.227.227,0,0,0-.151-.166c-.022-.005-.233-.068-.273-.132a2.809,2.809,0,0,0-.3-.392l-1.5-2.244a.42.42,0,0,0-.287-.122" transform="translate(-438.827 -362.235)"/><path d="M468.574,380.751l-2-2.438.029-.023Z" transform="translate(-438.885 -362.304)"/><path d="M466.6,381.665l1.954-2.323a.91.91,0,0,0,.256.234l-1.91,2.308s-.176.014-.3-.22" transform="translate(-438.89 -362.576)" fill="#69000e"/><path d="M466.884,381.9a.368.368,0,0,1-.31-.229l1.956-2.343a3.357,3.357,0,0,0,.28.229Zm1.645-2.551-1.925,2.324a.343.343,0,0,0,.28.19v.018l0-.018,1.9-2.3a.676.676,0,0,1-.258-.212" transform="translate(-438.884 -362.572)"/><path d="M468.964,378.817a.453.453,0,0,1,.373-.433,1.29,1.29,0,0,1,.726.631s-.154.433-.433.418a1.145,1.145,0,0,1-.666-.615" transform="translate(-439.501 -362.329)" fill="#fff"/><path d="M469.64,379.445h-.016a1.15,1.15,0,0,1-.683-.625.469.469,0,0,1,.384-.459,1.272,1.272,0,0,1,.749.642c-.007.03-.156.443-.435.443m-.315-1.05a.431.431,0,0,0-.349.415,1.135,1.135,0,0,0,.653.6h.011c.253,0,.4-.4.4-.406a1.285,1.285,0,0,0-.714-.607" transform="translate(-439.495 -362.322)"/><path d="M469.645,379.505l-.1-.059a1.277,1.277,0,0,1-.488-.514l.094-.041a1.129,1.129,0,0,0,.371.417.276.276,0,0,1,.076-.158.386.386,0,0,1,.358-.055l-.022.1a.3.3,0,0,0-.266.029.217.217,0,0,0-.047.17Z" transform="translate(-439.526 -362.459)" fill="#78497d"/><path d="M474.437,381.5a.635.635,0,0,1-.2.081c-.123-.146-.292-.367-.468-.557l-1.912-2.352.2-.19,1.72,2.014a9.54,9.54,0,0,1,.7.806s.045.133-.043.2" transform="translate(-440.248 -362.354)" fill="#69000e"/><path d="M474.225,381.6l-.134-.162c-.1-.125-.22-.272-.341-.4l-1.913-2.353.2-.215,1.746,2.016a9.355,9.355,0,0,1,.7.806.2.2,0,0,1-.047.223.621.621,0,0,1-.206.085Zm-2.189-3.108-.171.192,1.913,2.327c.122.131.24.278.343.4l.119.145a.58.58,0,0,0,.182-.076c.076-.056.037-.176.036-.177a9.625,9.625,0,0,0-.7-.8Z" transform="translate(-440.243 -362.35)"/><path d="M472.317,379.017l-.307-.365s-.234.028-.277.153a.778.778,0,0,1-.616.308,1.346,1.346,0,0,0,.643.8s.191-.534.375-.63c0,0,.19-.14.182-.264" transform="translate(-440.057 -362.398)" fill="#fff"/><path d="M471.765,379.932l-.019-.01a1.373,1.373,0,0,1-.652-.81.842.842,0,0,0,.618-.321c.044-.131.28-.16.29-.162l.323.372c.013.142-.177.285-.185.291-.178.093-.367.616-.369.621Zm-.651-.806a1.556,1.556,0,0,0,.631.755c.036-.1.206-.531.375-.619,0,0,.18-.135.173-.247l-.3-.355c0,.008-.211.038-.247.146a.785.785,0,0,1-.631.32" transform="translate(-440.051 -362.392)"/><path d="M472.318,379.3c-.069,0-.27-.26-.345-.335l.047-.047c.081.082.31.377.31.377a.018.018,0,0,1-.012,0" transform="translate(-440.277 -362.466)" fill="#78497d"/><path d="M471.439,379.37a3.025,3.025,0,0,1,.323-.266l.047.046a1.876,1.876,0,0,1-.371.22" transform="translate(-440.14 -362.514)" fill="#78497d"/><path d="M471.528,379.427a.976.976,0,0,1,.2-.215l.046.046a1.075,1.075,0,0,1-.246.169" transform="translate(-440.163 -362.542)" fill="#78497d"/><path d="M471.641,380.647l2.168-2.154.535.571s-.111-.043-.154-.015.042.139.042.139-.1-.036-.146-.007,0,.154,0,.154-.086-.065-.131-.035,0,.168,0,.168-.116-.037-.146-.007,0,.154,0,.154-.116-.058-.176,0,.03.139.03.139-.147-.059-.206.03a.144.144,0,0,0,.007.168s-.116-.059-.146-.03,0,.169,0,.169a.14.14,0,0,0-.168.016.1.1,0,0,0,.007.146s-.095-.059-.146-.03.014.168.014.168-.095-.066-.161,0a.111.111,0,0,0,0,.147.113.113,0,1,0-.16.16s-.117-.059-.162,0,.015.139.015.139-.088-.051-.147-.022,0,.16,0,.16-.088-.095-.124-.042.007.176.007.176-.08-.1-.125-.045.03.154.03.154-.147-.067-.11-.067c.007,0-.447-.505-.447-.505Z" transform="translate(-440.192 -362.357)" fill="#fff"/><path d="M472.248,381.259l-.063-.028c-.131-.061-.13-.071-.127-.086s-.264-.3-.435-.49l2.168-2.178.561.572c-.021.03-.082.006-.125.006-.042.016-.016.076.016.119-.022.027-.07.011-.111.011-.066.024-.051.1-.033.141-.043.011-.088-.019-.119-.019-.033.016-.026.092-.01.153-.024.021-.08,0-.122,0-.043.019-.038.088-.025.142-.024.02-.073,0-.122,0l-.071.007,0,.047a.138.138,0,0,0,.044.079c-.019.032-.065.013-.111.013a.1.1,0,0,0-.091.041.124.124,0,0,0,.006.146c-.04.017-.1-.007-.134-.007-.026.016-.021.092-.008.155-.028.019-.061,0-.1,0a.089.089,0,0,0-.07.032.082.082,0,0,0,.006.12c-.022.031-.079-.006-.124-.006-.05.019-.028.1,0,.151-.028.024-.065,0-.107,0-.111.083-.059.143-.057.145-.025.025-.057,0-.1,0-.125.093-.067.159-.064.162-.024.028-.07,0-.114,0a.092.092,0,0,0-.033.136c-.022.026-.073,0-.119,0-.065.023-.042.106-.024.144-.049,0-.088-.033-.112-.033-.045.044-.017.137-.005.166-.048,0-.085-.034-.111-.034-.05.038-.005.115.013.139Zm-.148-.105a.231.231,0,0,1,.046.019c-.019-.039-.033-.094,0-.127a.157.157,0,0,1,.116.019.138.138,0,0,1,0-.147.159.159,0,0,1,.116.016c-.024-.04-.037-.113.013-.138a.372.372,0,0,1,.134.01.085.085,0,0,1-.008-.124l.076-.032a.236.236,0,0,1,.076.016.1.1,0,0,1,.01-.145.142.142,0,0,1,.141-.029.094.094,0,0,1,.019-.117.154.154,0,0,1,.163-.015c-.033-.033-.063-.127-.013-.157a.37.37,0,0,1,.121.01.093.093,0,0,1,.014-.123c.054-.061.167-.032.188-.021a.154.154,0,0,1-.019-.165.343.343,0,0,1,.141.016.113.113,0,0,1,0-.151.175.175,0,0,1,.174-.052.106.106,0,0,1-.022-.059c.111-.192.191-.079.218-.067a.126.126,0,0,1-.017-.148.365.365,0,0,1,.165,0c-.033-.013-.059-.131-.017-.164a.2.2,0,0,1,.128.021c-.025-.034-.042-.113.006-.141a.478.478,0,0,1,.145,0c-.04-.019-.086-.1-.045-.131a.344.344,0,0,1,.171.012l-.554-.542-2.141,2.154c.453.479.456.484.45.5h0" transform="translate(-440.187 -362.352)"/><path d="M474.336,378.73l-.168.169.036.579s.037-.169.088-.053c0,0,.016-.139.051-.116a3.99,3.99,0,0,1-.007-.579" transform="translate(-440.844 -362.418)" fill="#78497d"/><path d="M473.928,379.155l-.125.116.044.579s.036-.219.088-.043c0,0-.007-.146-.007-.2Z" transform="translate(-440.75 -362.528)" fill="#78497d"/><path d="M472.161,380.9l-.116.124.03.352s.036-.228.087-.051c0,0-.016-.147-.016-.2,0,.036.016-.228.016-.228Z" transform="translate(-440.296 -362.978)" fill="#78497d"/><path d="M471.6,381.273a.192.192,0,0,0-.154.037c-.058.038-.131.023-.123-.051s0-.059.08-.11a.467.467,0,0,1,.367-.036Z" transform="translate(-440.11 -363.027)" fill="#69000e"/><path d="M471.379,381.341l-.06-.024-.016-.08c.005-.056.01-.06.073-.1a.48.48,0,0,1,.4-.047l-.162.191a.245.245,0,0,0-.158.039Zm.252-.24a.462.462,0,0,0-.223.056c-.066.043-.066.043-.07.082l.041.083.053-.036a.282.282,0,0,1,.13-.045l.191-.151a.3.3,0,0,1-.122.009" transform="translate(-440.105 -363.02)"/><path d="M474.453,378.431a.167.167,0,0,1,.022-.169c.051-.058.051-.161-.073-.111s-.168.191-.065.4Z" transform="translate(-440.873 -362.265)" fill="#69000e"/><path d="M474.324,378.586l-.011-.024a.407.407,0,0,1-.044-.309.2.2,0,0,1,.119-.12l.125.019a.121.121,0,0,1-.03.12.149.149,0,0,0-.019.151Zm.07-.435.007.016a.173.173,0,0,0-.1.1.346.346,0,0,0,.032.256l.1-.1a.144.144,0,0,1,.021-.167.09.09,0,0,0,.025-.082Z" transform="translate(-440.866 -362.264)"/><path d="M481.951,375.456c.037.014.139-.147.037-.22,0,0-.037-.139-.154-.148a.268.268,0,0,0-.234-.116s-.154-.11-.214-.1a.476.476,0,0,0-.219.213.25.25,0,0,0,.037.174c.044.037.073-.005.081-.073a.147.147,0,0,0,.059.161c.088.053.08.007.088-.051,0,0,.021.118.08.139s.094-.03.139-.03c0,0-.073.06-.023.1a.111.111,0,0,0,.148-.007c.043-.028.022-.124.176-.036" transform="translate(-442.65 -361.421)" fill="#69000e"/><path d="M481.687,375.536l-.077-.03a.149.149,0,0,1,0-.077l.082.07a.119.119,0,0,0,.071-.029c.053-.078.078-.1.2-.037a.157.157,0,0,0,.049-.081.1.1,0,0,0-.031-.109c-.007-.01-.042-.136-.145-.142-.015-.009-.093-.121-.2-.121a1.521,1.521,0,0,0-.236-.1.458.458,0,0,0-.208.2.245.245,0,0,0,.033.162l.05-.068c.028.062.031.119.085.15l.062-.024v-.007l0,.006.033-.013c.006.03.029.112.069.125l.075-.011.007.013-.059.04a.183.183,0,0,1-.109-.1.029.029,0,0,1-.032.029.228.228,0,0,1-.133-.125.033.033,0,0,1-.034.027.228.228,0,0,1-.085-.211.478.478,0,0,1,.233-.227h0a.567.567,0,0,1,.228.105.24.24,0,0,1,.238.123h0c.114,0,.154.145.156.151a.119.119,0,0,1,.036.146c-.016.048-.052.1-.085.1a.3.3,0,0,0-.1-.038l-.077.055.012.014a.155.155,0,0,1-.094.036" transform="translate(-442.644 -361.415)"/><path d="M481.348,375.22l-.035-.01a.291.291,0,0,1,.313-.217.337.337,0,0,0-.278.228" transform="translate(-442.688 -361.452)"/><path d="M481.522,375.341v-.016a.359.359,0,0,1,.308-.188l.07.026c-.165.024-.269.04-.318.122Z" transform="translate(-442.742 -361.49)"/><path d="M481.789,375.534l-.01-.016.094-.119a.4.4,0,0,1,.246-.053,1.065,1.065,0,0,0-.229.085.715.715,0,0,1-.1.1" transform="translate(-442.808 -361.543)"/><path d="M473.843,369.021s.043-.1.123-.043.1.313.1.313l-.116.059s.066-.095-.1-.329" transform="translate(-440.76 -359.896)" fill="#69000e"/><path d="M473.888,369.391l.036-.056s.055-.091-.1-.309c0-.021.029-.091.089-.091.138.083.16.322.162.349Zm.035-.407a.072.072,0,0,0-.069.039.409.409,0,0,1,.115.287l.079-.039c-.016-.053-.044-.241-.1-.284a.123.123,0,0,0-.027,0" transform="translate(-440.755 -359.89)"/><path d="M472.936,372.041s.059-.08-.021-.257l.116-.036a.485.485,0,0,1-.016.293Z" transform="translate(-440.521 -360.616)" fill="#69000e"/><path d="M473.023,372.054h-.093a.522.522,0,0,0-.038-.267l.128-.061a.354.354,0,0,1,.007.316Z" transform="translate(-440.515 -360.61)"/><path d="M474.069,368.891a.373.373,0,0,1-.169-.066Z" transform="translate(-440.775 -359.861)" fill="#88ff69"/><path d="M475.581,371.6l-.278.169.139.065.338-.2Z" transform="translate(-441.137 -360.578)" fill="#69000e"/><path d="M475.44,371.85l-.148-.069.277-.2.211.034Zm.135-.237-.265.166.126.032.332-.2Z" transform="translate(-441.134 -360.572)"/><path d="M469.661,372.085c-.073.059-.08.162-.124.22s-.148.139-.154.227a.469.469,0,0,0,.014.264,2.262,2.262,0,0,1,.154,1.033,1.119,1.119,0,0,0-.022.622c.028.059.116.22.169.22.116-.014.066-.05.109-.124a9.184,9.184,0,0,0-.051-2.073,2.038,2.038,0,0,0-.2-.631c-.013-.036-.043-.131-.065-.19a2.185,2.185,0,0,1-.242-1.04s-.358.081-.666-.615c-.161-.352-.4-.316-.673-.433l.124-.081a1.167,1.167,0,0,0,.352.118c.116,0,.079-.234.079-.234l.117-.118v.513c0,.234.322.556.512.651.119.059.272-.183.235-.417a2.547,2.547,0,0,1,0-.55l.161.094a.307.307,0,0,0-.044.162c.023.058.1-.058.162-.116,0,0,.014.014.073.014,0,0-.118.2-.176.3a1.986,1.986,0,0,0-.059.608c0,.138.05.461.05.564a2.2,2.2,0,0,0,.25.557c.037.072.124.263.124.263a2.694,2.694,0,0,1,.264.872c.015.073.029.352.05.536s.169.036.346-.088a.632.632,0,0,0,.176-.446s.139-.117.116-.052.074.146.074.146c-.111.25-.044.221.065.212a2.427,2.427,0,0,0,.492-.3c.05-.015.278-.015.241,0s-.1.133-.1.133l.249-.03c-.088.065-.418.257-.491.3a6.63,6.63,0,0,1-.643.307c-.169.073-.5.234-.513.4s.022.622,0,.769-.073.8-.073.8h-.784s.154-.571-.007-.724a6.835,6.835,0,0,0-.747-.792c-.234-.154.154-.037.154-.037v-.161l.358.433a.893.893,0,0,0,0-1.3c-.2-.234-.4-.592-.549-.63a.7.7,0,0,0-.512,0,1.175,1.175,0,0,1-1.224-.359l.234-.036.2-.081s-.08.279.476.279.63,0,.586-.513l.161-.081.117.118a.932.932,0,0,0-.037.4c.037.116.234.2.388.316a.245.245,0,0,0,.161.057c.066-.007.082-.007.17-.095a1.939,1.939,0,0,1,.233-.255,1.42,1.42,0,0,1,.082-.118Z" transform="translate(-438.945 -359.971)" fill="#69000e"/><path d="M470.119,375.469h-.784c-.016-.028.132-.586-.019-.73-.047-.048-.11-.122-.182-.206a3.951,3.951,0,0,0-.565-.584c-.076-.05-.088-.071-.082-.091a.567.567,0,0,1,.251.022l-.023-.144.39.421a.907.907,0,0,0-.028-1.274c-.064-.076-.127-.165-.189-.251-.123-.171-.251-.349-.349-.373a.7.7,0,0,0-.5,0,1.28,1.28,0,0,1-.339.042,1.068,1.068,0,0,1-.9-.409l.441-.143c.023.024.007.088.054.15s.154.128.429.128c.291,0,.452,0,.523-.078s.064-.2.045-.416l.171-.1.138.12a1.2,1.2,0,0,0-.033.4c.023.073.121.136.225.2.053.033.107.068.157.107a.229.229,0,0,0,.15.053c.062-.007.075-.007.157-.09.05-.055.076-.088.1-.114a.95.95,0,0,1,.137-.142s.049-.077.072-.106a.627.627,0,0,1-.052-.122l-.073-.187a2.023,2.023,0,0,1-.2-.8,2.747,2.747,0,0,0,.231.785l.074.19c.013.041.026.079.034.1l.06.131a1.946,1.946,0,0,1,.139.505,9.276,9.276,0,0,1,.049,2.084c-.028.1-.041.124-.123.134s-.176-.207-.187-.23c-.024-.044-.07-.2.019-.634a2.218,2.218,0,0,0-.151-1.023.489.489,0,0,1-.016-.273.32.32,0,0,1,.1-.172.489.489,0,0,0,.052-.062.368.368,0,0,0,.039-.08.342.342,0,0,1,.079-.136c-.013-.037-.026-.07-.038-.1h0l-.042-.093c.011.028-.045.116-.045.116a.918.918,0,0,0-.135.14c-.022.027-.049.061-.1.117-.089.088-.108.093-.178.1a.216.216,0,0,1-.177-.061c-.05-.039-.1-.072-.154-.1-.115-.072-.214-.135-.241-.22a.93.93,0,0,1,.037-.406l-.113-.1-.139.083c.03.211.026.349-.045.427s-.248.089-.55.089a.563.563,0,0,1-.458-.142.192.192,0,0,1-.036-.16l-.173.1-.238.039a1.116,1.116,0,0,0,.886.363,1.264,1.264,0,0,0,.329-.04.75.75,0,0,1,.484-.011c.151.038.277.214.41.4.062.086.125.174.188.249a.917.917,0,0,1,0,1.322l-.384-.435.032.149c-.024.018-.162-.024-.22-.024-.006-.006-.009,0,.058.045a3.972,3.972,0,0,1,.573.59c.071.085.134.158.179.206.166.159.017.718.011.743l.749-.023c.01-.1.059-.65.073-.783a3.91,3.91,0,0,0,0-.46c0-.123-.006-.24,0-.308.014-.165.292-.318.523-.418a6.686,6.686,0,0,0,.641-.307c.148-.086.414-.242.49-.3l-.234.062a.207.207,0,0,1,.062-.144c-.013,0-.028,0-.05,0a.774.774,0,0,0-.149.011,2.281,2.281,0,0,1-.493.3l-.073.005c-.08-.056-.068-.114-.012-.241a.155.155,0,0,1-.075-.145s-.05.038-.087.069a.588.588,0,0,1-.177.447l-.073.053c-.165.122-.281.172-.3.022-.01-.086-.019-.193-.027-.289s-.017-.2-.025-.243a1.93,1.93,0,0,0-.114-.517,1.22,1.22,0,0,1-.046-.124.94.94,0,0,0-.1-.226s-.088-.193-.125-.266a2.171,2.171,0,0,1-.251-.565c0-.047-.011-.14-.023-.24-.013-.119-.028-.248-.028-.323a1.815,1.815,0,0,1,.062-.617c.057-.1.176-.3.176-.3-.046.028-.065.012-.07.008-.066.1-.1.139-.129.139a.219.219,0,0,1,.009-.206l-.15-.067c.018.028-.01.314.022.528a.5.5,0,0,1-.1.38.161.161,0,0,1-.119.067c-.23-.1-.568-.424-.568-.678v-.513l-.085.131a.282.282,0,0,1-.027.21.8.8,0,0,1-.427-.091l-.106.08a.8.8,0,0,1,.2.038.622.622,0,0,1,.479.374c.242.547.51.606.614.606v.017c-.131.013-.408-.064-.649-.609a.583.583,0,0,0-.456-.353,1.871,1.871,0,0,1-.208-.071l.121-.113a1.669,1.669,0,0,0,.363.116.234.234,0,0,0,.062-.213l.121-.134.031.527c0,.22.3.537.5.635a.133.133,0,0,0,.121-.047.467.467,0,0,0,.088-.351,2.61,2.61,0,0,1,0-.555l.189.081c-.009.052-.047.131-.036.173h0c.019,0,.061-.048.087-.077l.1-.049.045.038s-.118.2-.176.3a2.048,2.048,0,0,0-.056.6c0,.074.015.2.028.319s.022.2.022.245a2.2,2.2,0,0,0,.248.547c.037.073.125.266.125.266a.907.907,0,0,1,.1.231c.013.039.026.078.045.12a2.019,2.019,0,0,1,.117.526c.007.038.016.134.025.245s.016.2.027.289c.008.067.033.067.043.067a.52.52,0,0,0,.2-.114l.074-.053a.622.622,0,0,0,.168-.432.3.3,0,0,1,.129-.09.281.281,0,0,0,.091.17c-.041.126-.059.188-.046.206l.1,0a2.3,2.3,0,0,0,.481-.3.643.643,0,0,1,.165-.016c.1,0,.106.008.109.023a.573.573,0,0,0-.107.147l.229-.056a2.039,2.039,0,0,1-.444.313,6.624,6.624,0,0,1-.682.33c-.309.134-.492.275-.5.387,0,.067,0,.182,0,.3a4.005,4.005,0,0,1,0,.466c-.016.146-.074.8-.074.8Zm-.471-3.362a.51.51,0,0,0-.058.116.332.332,0,0,1-.043.088.47.47,0,0,1-.055.067.3.3,0,0,0-.095.152.447.447,0,0,0,.014.256,2.265,2.265,0,0,1,.154,1.042c-.09.436-.041.578-.024.611.048.1.122.21.153.21.062-.007.064-.018.07-.048a8.368,8.368,0,0,0-.03-2.129,1.747,1.747,0,0,0-.086-.364" transform="translate(-438.94 -359.966)"/><path d="M470.811,372.116a1.676,1.676,0,0,0,.139-.234c.088-.147.189-.234.308-.418a.821.821,0,0,0,.108-.593l.1.059.007.278a1.731,1.731,0,0,1,.2-.147l.059.03a6.226,6.226,0,0,0-.851,1.187Z" transform="translate(-439.978 -360.389)" fill="#69000e"/><path d="M470.875,372.318l-.086-.194c.028-.045.081-.142.127-.228a1.609,1.609,0,0,1,.156-.22,2.389,2.389,0,0,0,.165-.223.8.8,0,0,0,.106-.579l.13.039.017.28a.532.532,0,0,1,.171-.148l.008,0,.068.033a10.129,10.129,0,0,0-.844,1.212Zm.477-1.431a.684.684,0,0,1-.085.587,2.445,2.445,0,0,1-.168.226,1.7,1.7,0,0,0-.14.192,1.567,1.567,0,0,1-.141.238l.059.11a6.269,6.269,0,0,1,.838-1.161.889.889,0,0,0-.231.143l-.038-.291Z" transform="translate(-439.972 -360.39)"/><path d="M465.618,370.481a1.33,1.33,0,0,0,.292.456l.118-.037s-.272-.315-.272-.454Z" transform="translate(-438.637 -360.28)" fill="#69000e"/><path d="M465.9,370.95l-.008-.007a1.063,1.063,0,0,1-.252-.37c-.015-.033-.03-.064-.043-.088l.149-.064a1.589,1.589,0,0,0,.29.46Zm-.281-.456c.024,0,.039.03.054.065a1.028,1.028,0,0,0,.236.352l.106-.033a.886.886,0,0,1-.283-.438l-.115.055Z" transform="translate(-438.632 -360.273)"/><path d="M466.526,370.259a1.08,1.08,0,0,1-.059.512l.116-.059a1.17,1.17,0,0,0,.058-.4Z" transform="translate(-438.856 -360.232)" fill="#69000e"/><path d="M466.469,370.787l-.023-.026a1.062,1.062,0,0,0,.056-.5l.142.04a1.058,1.058,0,0,1-.049.418Zm.046-.51a.807.807,0,0,1-.013.453l.067-.033a1.413,1.413,0,0,0,.049-.376Z" transform="translate(-438.851 -360.232)"/><path d="M471.748,368.669a3.118,3.118,0,0,0,.08.849l.139-.045a.125.125,0,0,1,.094-.139,1.9,1.9,0,0,0,.536-.269l-.044-.118a2.076,2.076,0,0,1-.316.211c-.094.038-.154.081-.234.059s-.177-.152-.117-.453Z" transform="translate(-440.219 -359.821)" fill="#69000e"/><path d="M471.811,369.54l-.006-.016a3.066,3.066,0,0,1-.082-.855l.168.079c-.051.323.049.435.111.453a.257.257,0,0,0,.163-.034,1.95,1.95,0,0,0,.37-.234l.073.126a1.64,1.64,0,0,1-.548.293.108.108,0,0,0-.082.119Zm-.076-.854a5.9,5.9,0,0,0,.1.809l.116-.037c-.011-.01-.014-.1.1-.141a1.933,1.933,0,0,0,.53-.267l-.048-.1a.9.9,0,0,1-.292.22.521.521,0,0,1-.2.067c-.125-.027-.24-.152-.176-.482Z" transform="translate(-440.212 -359.821)"/><path d="M473.835,371.985a3.38,3.38,0,0,0-.016.536l.124.028s-.028-.447.053-.484Z" transform="translate(-440.752 -360.677)" fill="#69000e"/><path d="M473.959,372.572l-.149-.034a2.653,2.653,0,0,1,0-.555l.187.066a1.168,1.168,0,0,0-.042.5Zm-.134-.57c.019.022-.013.365.007.516l.087.01c-.007-.127-.016-.443.065-.48Z" transform="translate(-440.748 -360.676)"/><path d="M474.489,372.361s-.139.241-.3.263l.255-.05a.758.758,0,0,0,.183-.154Z" transform="translate(-440.849 -360.774)" fill="#69000e"/><path d="M474.219,372.636l-.008-.036h0c.142-.038.266-.249.267-.252l.162.051a.586.586,0,0,1-.182.187Z" transform="translate(-440.855 -360.771)"/><path d="M471.341,370.355l.1.059.1.015s.109.1.234.2c.1.081.1-.013.1-.013l.059.234h.08a2.287,2.287,0,0,0-.022.235l.139-.119.16.139s.119-.1.177-.1a.092.092,0,0,0,.081-.059h.007c-.389-.184-.556-.375-.441-.572.191-.33.507-.118.609-.073l1.42.761s.1-.057.03-.117a.3.3,0,0,1-.081-.263c.021-.059.183.182.265.2s.262.052.262.052l-.007-.073s.234.16.234.242c0,0,.169-.088.111-.139s.257.125.277.22l.066-.073a.767.767,0,0,1,.1-.344.36.36,0,0,1,.154-.141s.072-.124.146-.124a.343.343,0,0,1-.1-.111.28.28,0,0,0-.125-.088,1.218,1.218,0,0,0,.139-.117.127.127,0,0,1,.059-.053.879.879,0,0,0-.286-.16s-.008-.191-.154-.206h.066s-.108-.2-.212-.212a.271.271,0,0,1,.125-.081.284.284,0,0,0-.294-.1l.111-.044s-.081-.088-.33-.043a.189.189,0,0,0-.088-.183s-.094.007-.094.081a.331.331,0,0,0-.2-.081c-.11,0,.038.116.038.116s-.148-.094-.235-.066a.306.306,0,0,0-.059-.257.362.362,0,0,0-.14.133l-.028-.073s-.148.174-.177.123a.608.608,0,0,1-.043-.154l-.089.133.015-.184a.523.523,0,0,0-.183.25.321.321,0,0,0-.1.182.1.1,0,0,0-.154,0c-.066.1,0,.08,0,.08a.171.171,0,0,1-.1.052l.013.06a.257.257,0,0,0-.168-.031l.036.088s-.19.015-.2-.139c0,0-.161-.08-.184.008,0,0-.131,0-.118.074a.17.17,0,0,0-.1-.088c-.074-.024-.016.094-.016.094a.216.216,0,0,0-.109-.131c-.088-.037-.014.08-.014.08s-.118-.094-.059-.168c0,0-.109.1-.059.2l-.073.052s-.037-.036-.03-.067-.124.088-.124.088-.081-.19,0-.19a.166.166,0,0,0-.161.162h0a.871.871,0,0,0-.184.036c-.094.03.067.1.067.1a.383.383,0,0,0-.22.015l.051.065s-.051-.052-.176-.007.03.058.03.058a.419.419,0,0,0-.2,0c-.067.03.021.082.021.082s-.241-.074-.278-.051.081.139.081.139-.148.036-.177.145l.133.052a.223.223,0,0,0-.088.088c-.028.058.088.03.088.03s-.162.116-.162.2a.216.216,0,0,0,.206-.05c.088-.089.029-.059.029-.059l.007.059s.169-.073.169-.119-.03.06-.03.06l.168-.089Z" transform="translate(-439.944 -359.874)" fill="#479513"/><path d="M475.214,371.215l-.007-.035c-.013-.061-.191-.177-.251-.207a.4.4,0,0,1,.273.171l.047-.053a.691.691,0,0,1,.1-.342.371.371,0,0,1,.162-.148.258.258,0,0,1,.122-.119.2.2,0,0,1-.088-.09.259.259,0,0,0-.114-.078.759.759,0,0,1,.13-.145.145.145,0,0,1,.058-.054,1.947,1.947,0,0,0-.273-.129c-.016-.025-.025-.192-.154-.206l.068-.036c-.045-.028-.137-.171-.214-.176-.008-.031.05-.1.109-.114a.439.439,0,0,0-.2-.082l-.035-.01-.034.022a.093.093,0,0,1,.013-.026l-.027-.007.091-.036a.542.542,0,0,0-.3-.016c-.019-.026,0-.114-.1-.186,0,0-.067.012-.067.065-.03.009-.116-.062-.217-.062-.024.014.011.053.05.084-.024.03-.13-.039-.21-.039a.033.033,0,0,1-.014-.01.26.26,0,0,1,.136.009.055.055,0,0,1-.018-.053.306.306,0,0,1,.267.059c-.03-.059.042-.083.08-.086a.21.21,0,0,1,.108.2.154.154,0,0,1,.113-.035.292.292,0,0,1,.212.062l-.042.025a.334.334,0,0,1,.225.122.719.719,0,0,0-.126.1c.105-.027.211.183.214.191l.016.027h-.044c.088.018.118.127.119.187a.678.678,0,0,1,.28.147l-.057.079a1.034,1.034,0,0,1-.125.107.173.173,0,0,1,.113.075.318.318,0,0,0,.1.105.434.434,0,0,0-.141.149.4.4,0,0,0-.156.141.787.787,0,0,0-.1.329Zm-.369-.1a.881.881,0,0,0-.252-.243l.035.057a.784.784,0,0,1-.285-.033.472.472,0,0,1-.153-.127.424.424,0,0,0-.1-.085.3.3,0,0,0,.08.239.23.23,0,0,1,.007.059l-.03-.031a.311.311,0,0,1-.086-.283c.061-.023.093.014.15.076a.511.511,0,0,0,.136.116c.082.022.261.051.261.051l-.028-.054c.053,0,.271.152.271.24.019-.039.083-.085.087-.112l0,0c.013.071-.079.122-.1.132m-2.554,0-.183-.139-.116.119a.716.716,0,0,1-.008-.252l-.062.021-.077-.249c-.035.059-.06.048-.089.023-.125-.094-.236-.2-.236-.2l-.093-.01-.212-.136-.149.09,0-.062.148-.059.223.134.1.012c.01.005.119.107.243.2l.1,0,.058.235.064-.014a1.185,1.185,0,0,1,0,.253l.11-.132.183.139c-.01-.011.1-.106.165-.106a.073.073,0,0,0,.064-.047c-.263-.11-.419-.239-.461-.373a.248.248,0,0,1,.029-.2c.141-.242.441-.174.588-.1l1.465.782.039-.045a.09.09,0,0,1-.039.077l-1.437-.761c-.228-.111-.456-.159-.585.067a.2.2,0,0,0-.024.172c.038.122.191.249.457.374a.1.1,0,0,1-.1.094.416.416,0,0,0-.165.1m-1.555-.611-.077-.026c0-.08.107-.172.151-.207l.039.017c-.042.031-.154.125-.154.19a.272.272,0,0,0,.174-.064l.057-.069-.01.04,0-.021v.009l-.018.068a.226.226,0,0,1-.159.064m0-.226a.22.22,0,0,1,.1-.139l-.131-.019a.239.239,0,0,1,.179-.18c-.039,0-.106-.074-.1-.113a.62.62,0,0,1,.269.015l-.032-.027a.177.177,0,0,1,.206-.05.085.085,0,0,1-.082.03l-.08-.005-.007.028.01.029.024.007-.006.017-.014-.013.01.03a1.38,1.38,0,0,0-.249-.055c-.016.013.024.067.069.112-.011.031-.146.065-.171.163l.121.031c0,.033-.052.061-.079.112l.031.013Zm.505-.532a.093.093,0,0,1,.131-.045l-.032-.016a.18.18,0,0,1,.152-.054.059.059,0,0,1-.033-.046.677.677,0,0,1,.215-.075.186.186,0,0,1,.177-.163.273.273,0,0,0,.017.2c.08-.1.1-.1.105-.1l.025.071.07-.049c-.063-.083.052-.191.056-.194v0c.006.006,0,.017,0,.03a.153.153,0,0,0,.027.068.057.057,0,0,1,0-.01c.121.02.152.065.168.1l-.019.053a.225.225,0,0,0-.1-.124l-.009.038.014.012a.042.042,0,0,1-.016,0l-.007.032a.252.252,0,0,1-.08-.119.143.143,0,0,0-.01.125l-.119.1-.018-.113c0,.023-.052.066-.094.1a.229.229,0,0,1-.064-.182.179.179,0,0,0-.093.142l-.013.035,0,.039-.01-.024-.007.02-.019,0c.019-.049-.068-.044-.151-.016-.016.018.026.045.068.062-.01.034-.052.025-.106.025a.232.232,0,0,0-.112.022l.029.018a.086.086,0,0,1,.026.018l0,0,.006,0-.1,0a.257.257,0,0,0-.081.015m1.642-.188a.146.146,0,0,1-.162-.138c0,.016-.061-.02-.1-.02l0,.014-.059.027c-.019,0-.076.005-.095.028l0,0a.1.1,0,0,1,.1-.067c-.019-.051.185-.008.191-.006a.159.159,0,0,0,.176.137l-.04-.063a.285.285,0,0,1,.171,0c-.012.032-.066.006-.116.007l.014.068a.223.223,0,0,1-.07.01m.214-.114a.6.6,0,0,1,.045-.07c-.039,0-.03-.033,0-.079.067-.09.179-.006.182,0-.033-.083.071-.18.076-.184a.525.525,0,0,1,.186-.252l.013.2.055-.144a.96.96,0,0,1,.073.153.652.652,0,0,0,.148-.124l.059.078c0-.079.108-.14.114-.142a.292.292,0,0,1,.086.271c-.03-.045-.017-.17-.088-.239,0,.012-.088.065-.112.124l-.062-.073c.01.028-.09.144-.143.144a.342.342,0,0,1-.078-.178l-.056.139-.017-.178a1.141,1.141,0,0,0-.15.241c-.006.007-.1.1-.1.175-.029.008-.062-.024-.1-.024l-.084.091c.02.021,0,.052-.047.071" transform="translate(-439.938 -359.869)" fill="#163703"/><path d="M471.214,367.695l-.036-.161a1.782,1.782,0,0,1,.372.044l.067-.154a1.188,1.188,0,0,1,.234.138,1.411,1.411,0,0,1,.447-.05l-.044.163a2.639,2.639,0,0,1,.419.058c.093.038-.045.118-.045.118a1.7,1.7,0,0,1,.513.139c.161.1.161.176.081.2l.2.315s-.315.038-.373.118-.119-.08-.119-.08l-.058.219a1.828,1.828,0,0,1-.277-.177s-.1.119-.037.177a.409.409,0,0,1-.359-.234s-.154-.022-.154.117c0,0-.176-.2-.221-.256l-.2.059a.316.316,0,0,0-.131-.1c-.081-.013-.023.1-.023.1l-.118-.139-.116-.139s-.1.139-.183.139-.073-.1-.058-.16-.234-.074-.257,0a.3.3,0,0,1,.2-.373Z" transform="translate(-439.957 -359.5)" fill="#479513"/><path d="M472.879,368.78l-.02-.011a1.854,1.854,0,0,1-.276-.174c0,.02-.057.105-.018.145a.337.337,0,0,1-.388-.214c-.057.01-.119.027-.119.111-.053,0-.21-.188-.254-.246l-.177.065c-.021-.007-.076-.082-.142-.1-.025.015-.012.054,0,.078l0,0c-.018.009-.036-.013-.045-.036l-.214-.217c.011.019-.086.144-.171.144a.17.17,0,0,1-.075-.183c0-.022-.208-.033-.222.01a.27.27,0,0,1,.175-.4l.278-.073-.048-.14a.848.848,0,0,1,.394.022l.046-.144a.63.63,0,0,1,.263.133,1.255,1.255,0,0,1,.363-.065l.076.01-.031.183a1.1,1.1,0,0,1,.407.037.1.1,0,0,1-.03.144,1.056,1.056,0,0,1,.5.114c.1.058.15.118.142.168v.011l-.064.051.207.287c-.1.038-.329.078-.374.139a.121.121,0,0,1-.15-.085Zm-.709-.28a.467.467,0,0,0,.382.235c-.082-.037.019-.163.024-.169.084.056.227.133.28.161l.051-.2c.049.036.08.089.1.089.081-.1.372-.136.406-.14l-.214-.292.053-.054c0-.026-.027-.075-.125-.132a1.671,1.671,0,0,0-.506-.136c.023-.051.062-.085.062-.1a1.969,1.969,0,0,0-.435-.074l.028-.185a3.206,3.206,0,0,0-.425.073,1.583,1.583,0,0,0-.246-.139l-.042.145a2.772,2.772,0,0,0-.389-.033l.053.139-.29.095a.28.28,0,0,0-.186.344c-.007-.052.088-.056.117-.056.052,0,.115.01.136.04a.278.278,0,0,0,.013.157c.09.017.174-.081.2-.118l.211.216a.058.058,0,0,1,.007-.029.259.259,0,0,1,.2.091l.178-.065c.064.065.24.262.24.262-.032-.073.024-.125.116-.125" transform="translate(-439.953 -359.497)" fill="#163703"/><path d="M470.128,369.336l-.149-.1-.069.01c-.039-.035-.088-.081-.119-.081h-.016l-.009-.089-.076.079c-.059-.019-.188-.09-.188-.147s.007-.12.007-.12l-.14.136a.183.183,0,0,1-.056-.107.1.1,0,1,1-.147-.108l.013.107a.255.255,0,0,1-.235-.175l-.093.127-.094-.034-.124.158-.062-.1-.048.136L468.38,369l-.039.088-.127-.015a.418.418,0,0,1-.144.111.094.094,0,0,1-.04-.083c-.027.047-.076.1-.121.1l-.027-.062a.186.186,0,0,1-.116.106c-.075-.047-.059-.092-.058-.1l-.117.131v-.085l.012.03.111-.085.04.07c.068-.013.1-.1.1-.1l.025.026-.009-.019.018.007-.007.015.027.027c.042,0,.108-.085.139-.137.013.064,0,.116.009.125a.707.707,0,0,0,.148-.108l.125.019.041-.087.145.035.059-.124.063.092.114-.168.1.033.1-.115a.41.41,0,0,0,.217.172l0-.1a.056.056,0,0,1,0-.011h0v0a.671.671,0,0,1,.114.175c.031-.1.04-.1.05-.1a1.426,1.426,0,0,0,.047.143l.142-.126c.028.017.02.091.02.133,0,.024.079.079.151.116l.111-.081.01.1c.042-.027.105.062.113.07l.065-.014.125.079.064-.141a.44.44,0,0,1,.228.112,2.875,2.875,0,0,0-.045-.328.438.438,0,0,1,.134-.137,3.039,3.039,0,0,0-.392-.149,2.406,2.406,0,0,1-.042-.273c-.09.014-.261.059-.263.059a.642.642,0,0,1,.037-.249c-.019,0-.22-.066-.34-.1a1.773,1.773,0,0,1-.007-.253l-.246,0-.188-.211-.22.128-.3-.072-.052.145-.378-.019-.01.154-.243.152c.012-.011.095.08.074.134a.741.741,0,0,0-.24.126v.207a.472.472,0,0,0-.17.223.271.271,0,0,1,.145-.241l0-.2a.38.38,0,0,1,.214-.113c.031-.037-.01-.1-.041-.138l.239-.167.02-.156.379.014.055-.144.306.065.23-.123.2.209.25.015a1.216,1.216,0,0,1,.01.253,1.681,1.681,0,0,1,.345.111c-.014.086-.046.2-.05.234a.561.561,0,0,1,.24-.058c.045.018.067.223.075.275.076.013.371.109.395.179-.009.022-.087.071-.127.133a1.861,1.861,0,0,1,.045.29l-.058.059a.516.516,0,0,0-.19-.114Zm-2.554-.194a.166.166,0,0,1,.053-.177c.008-.026-.028-.066-.053-.087l.04-.07a.639.639,0,0,1-.1,0l0-.009a.208.208,0,0,1,.125-.008l-.042.089c.013-.01.075.039.07.085a.4.4,0,0,0-.1.181" transform="translate(-439.127 -359.54)" fill="#163703"/><path d="M464.494,370.231l.114-.191c-.039.052-.1.119-.141.171a1.206,1.206,0,0,1,.087-.45h-.125l.078-.111c-.133.019-.136,0-.137-.012l.226-.089-.176.09a.537.537,0,0,1,.1.006l-.077.112.129-.008c.013.027-.091.3-.1.442a.571.571,0,0,1,.188-.23l-.093.206a.914.914,0,0,0,.223-.095c.021-.044.044-.082.044-.082l0,.013c.011,0,.013.015.009.029l.028.091c-.007-.046.062-.148.074-.188a.188.188,0,0,1,.142.019c-.04.016-.085-.01-.105-.01a1.11,1.11,0,0,1-.114.191l-.027-.093c-.005.014-.013.03-.021.047a.906.906,0,0,1-.282.125Zm.973-.177-.007-.121-.1.036a.586.586,0,0,1-.227-.025l0-.039s.13.043.173.05l.178-.036,0,.1a.709.709,0,0,0,.075-.1l.089,0,.027-.228.142-.014c.081.039.315.162.325.24,0-.067.03-.168,0-.2l.142.055c-.015-.042,0-.136-.031-.162.018-.139.292-.13.352,0a.259.259,0,0,0,.018-.119c-.014-.071-.082-.135-.2-.19l-.021-.01.027-.074a.147.147,0,0,1,.122-.044c.045.029.031-.038-.013-.063l.191-.03a1.315,1.315,0,0,0-.286-.1c-.088-.014-.108-.027-.115-.045.01-.083.022-.188.025-.222a.571.571,0,0,1-.07,0,.179.179,0,0,0-.085.02c.022-.052-.182-.076-.234-.044a.166.166,0,0,1-.122-.179c-.009.02-.086.027-.126.119a.374.374,0,0,1-.258.128.517.517,0,0,1-.141-.06l-.062.2-.157,0,.06.053c-.021.025-.114,0-.192,0a.155.155,0,0,0-.088.02h0a.248.248,0,0,1,.062.206,1.3,1.3,0,0,0-.211.069l.025.024.018-.006a.045.045,0,0,1-.014.01l.024.024a.674.674,0,0,0-.226.111l.071.033-.085.144.024-.007-.042.014.076-.148-.071-.033a.39.39,0,0,1,.2-.133.043.043,0,0,1-.037-.029.482.482,0,0,1,.232-.1.447.447,0,0,0-.072-.185c.068-.116.292-.03.3-.027l-.065-.054.156-.02.069-.194c.073.019.133.047.149.047a.344.344,0,0,0,.228-.111.186.186,0,0,1,.171-.116.192.192,0,0,0,.105.162c.019-.037.256.005.263.007a.877.877,0,0,1,.154.029c.007.068,0,.156.01.18-.024.054-.013.065.06.076a.7.7,0,0,1,.316.137l-.217.032h0c.066,0,.084.076.085.08l0,.022-.085-.005a.119.119,0,0,0-.093.03c.113.089.188.162.2.245a.2.2,0,0,1-.05.165.2.2,0,0,0-.328-.056c.049.043.015.184.01.2l-.145-.07c.073.04,0,.2-.01.212a1.325,1.325,0,0,0-.332-.219l-.116,0-.042.22c-.082.065-.171.125-.175.128" transform="translate(-438.315 -359.771)" fill="#163703"/><path d="M466.3,372.217l-.007-.011a1.045,1.045,0,0,1-.157-.353l.148-.1-.147-.343-.172.118-.711.287-.608.335c-.022-.027.036-.107.012-.171.058-.057.093-.134.08-.387a.519.519,0,0,1,.25-.136l-.132-.216.37-.12a.287.287,0,0,1,.047-.138.575.575,0,0,1,.309.014.787.787,0,0,0,.157-.168c.017-.051.125-.062.165-.062a.211.211,0,0,0,.231-.109.26.26,0,0,1,.28.1v0l.067-.032s.2-.232.225-.283a.635.635,0,0,1,.2.2,1.45,1.45,0,0,1-.2-.177,1.518,1.518,0,0,1-.2.283s-.017.074-.065.074a.576.576,0,0,0-.255-.168.311.311,0,0,1-.214.163c-.142-.015-.2.007-.2.02-.007.052-.159.168-.189.191a1,1,0,0,0-.292-.019.785.785,0,0,0-.045.131l-.372.11.13.217a.975.975,0,0,0-.24.139.527.527,0,0,1-.047.364.337.337,0,0,1-.068.174l1.275-.686.219-.071.165.375-.147.1a1.239,1.239,0,0,0,.153.308l.367-.113a.1.1,0,0,1,.025.056.711.711,0,0,1,.194-.085c.024.018.036.094.094.094s.148-.111.2-.176l.171.05c-.005-.013.031-.082.031-.135,0-.07.159-.076.209-.076l.142.1.146-.138c.042.032.086.1.133.113a.564.564,0,0,1,.169.08.5.5,0,0,0,.079.042c-.013-.017.05-.145.069-.184l.33.115c-.066-.113-.167-.28-.168-.281a.682.682,0,0,0,.119-.146l-.042.014-.044-.018v0l0,0-.03-.012.088-.176-.141.026.062-.073-.185-.052.094-.231c-.025-.012-.329-.086-.536-.127L468,370.7h0c-.018,0-.066-.057-.1-.057h-.127c-.254,0-.264-.019-.271-.033a.788.788,0,0,0-.127-.134l-.168.14-.111-.025-.157.065h0l.157-.1.107.027.175-.137a.475.475,0,0,1,.159.149s.036.01.237.01h.093a.216.216,0,0,1,.165.1l-.12.133a1.507,1.507,0,0,1,.551.128l-.1.226.2.065-.053.062.1-.03-.061.171a.116.116,0,0,1,.047-.008l.065.044c0,.044-.1.122-.127.147a.856.856,0,0,1,.151.288l-.332-.1c-.015.066-.056.157-.056.173-.039.022-.065.007-.119-.024a.609.609,0,0,0-.157-.075c-.076-.016-.128-.123-.131-.128l-.142.145-.154-.093c-.079,0-.162.022-.162.043a.405.405,0,0,1-.053.162l-.177-.05c.007.013-.117.176-.2.185h0a.121.121,0,0,1-.115-.111c-.065.045-.166.087-.177.1H466.7l-.024-.076-.174.09Z" transform="translate(-438.386 -360.279)" fill="#163703"/><path d="M466.941,375.914v-.258l-.22.063-.137-.207-.282-.049.106-.2-.193-.114.276-.285-.116-.075.273.009c-.045-.012-.091-.044-.093-.076a2.013,2.013,0,0,1,.372-.22l-.085-.042.225-.112-.011-.122.223.063-.081-.076.328-.086v-.08l.24.021-.056-.094.337.058-.066-.077.339.073a.065.065,0,0,1-.019-.076.492.492,0,0,1,.246.105c-.031-.031.01-.087.054-.087a.3.3,0,0,1,.2.138.106.106,0,0,1,.1-.05,1.032,1.032,0,0,1,.318.212.219.219,0,0,1,.138.044,3.466,3.466,0,0,1,.258.234l-.126.068c.073.019-.035.212-.069.271v.159l-.142-.034-.177.174-.03-.227-.047.142-.161-.128-.076.116-.2-.114.028.137-.255-.017-.142.363-.243-.29-.131.234-.122-.077.03.183-.14.019a.646.646,0,0,1,0,.243c-.1.029-.274-.122-.307-.152Zm.015-.276.019.2.326-.258a1.238,1.238,0,0,0,.27.169,1.646,1.646,0,0,0,.016-.25l.142-.018-.018-.179.125.067.134-.232.242.293.13-.37.254.024-.021-.135.2.1.079-.114.16.131.053-.128.033.223.166-.19.137.048-.025-.151c.065-.116.115-.243.088-.265l.119-.066a2.853,2.853,0,0,1-.256-.2.246.246,0,0,0-.13-.042,1.566,1.566,0,0,0-.264-.2.169.169,0,0,0-.132.039c-.031,0-.086-.114-.18-.131a.058.058,0,0,0-.072.06c-.028.007-.1-.057-.193-.092l.019.039-.047.05-.338-.1.067.078-.336-.056.057.094-.239-.013.007.08-.33.074.071.074-.222-.054.025.122-.231.1.086.042a3.756,3.756,0,0,1-.351.212c-.005.018.052.058.113.085h-.01a.1.1,0,0,1-.042,0l-.273-.007.131.07-.277.283.2.111-.112.2.282.03.129.207Z" transform="translate(-438.792 -361.183)" fill="#163703"/><path d="M474.293,374.259l-.033-.044c-.1-.128-.276-.335-.341-.344a.18.18,0,0,0-.059.169l-.309-.218-.008.152-.263-.19-.117.1-.273-.259-.226.035.079-.154-.277.029-.077-.269-.008.212-.2-.105-.2.246c-.03,0-.061-.035-.1-.154-.025-.012-.07.056-.1.139l-.114-.181-.063.183c-.033,0-.11-.134-.185-.174h0c-.05,0-.122.178-.148.323v0c-.006,0-.007-.016-.007-.036l-.063-.3-.072.115.013-.331-.146-.01.045-.329-.108-.039.019-.166.335-.3.5,0,.042-.15a.731.731,0,0,1,.382.053c.072.011.18-.093.216-.133l.005-.006h.081l.094.16a.289.289,0,0,1,.117-.013.452.452,0,0,1,.253.056l-.135.217.244-.007.179.037.173-.058.239-.016.076.1.2-.009-.059.117.278.1-.048.082c.028-.007.161.035.26.035l.076.011c0,.007.063.151-.025.217.014,0,.093.172.246.2.177.038.185.039.211.09a.193.193,0,0,1-.022.157.207.207,0,0,1-.193.1l.018.18a1.268,1.268,0,0,0-.175.2l-.142-.07c0,.014-.077.114-.077.183Zm-.43-.4c.142,0,.33.217.4.3a.515.515,0,0,1,.1-.167l.142.076c-.005-.05.137-.18.152-.2l-.006-.185a.232.232,0,0,0,.18-.1.162.162,0,0,0,.021-.121c-.019-.037-.019-.037-.186-.072a.422.422,0,0,1-.268-.246c.073-.07.022-.2.021-.2a.922.922,0,0,1-.326-.048l.051-.09-.28-.1.067-.116-.206.03-.073-.1-.218.024-.178.059-.441-.059.126-.219a1.284,1.284,0,0,0-.229-.024,1,1,0,0,0-.128.008l-.1-.164c-.059.02-.186.156-.268.156a.829.829,0,0,0-.383-.072l-.042.149-.508,0-.318.289-.022.136.108.039-.049.326.147.009-.03.335.071-.119.059.3c.006-.1.068-.312.153-.312a.55.55,0,0,1,.191.194l.064-.181.113.183c-.012-.054.044-.18.1-.18a.926.926,0,0,0,.105.182l.2-.248.2.114.016-.2.1.255.275-.013-.082.154.226-.059.265.262.116-.1.256.2.007-.152.292.213a.173.173,0,0,1,.019-.161Z" transform="translate(-440.005 -360.712)" fill="#163703"/><path d="M473.139,376.278l-.017-.024c-.065-.094-.175-.226-.22-.226s-.062.128-.062.217a3.183,3.183,0,0,1-.369-.384c-.056-.024-.079.046-.085.108a.68.68,0,0,1-.191-.332c0-.057-.093-.124-.13-.145a1.182,1.182,0,0,1-.4.352c-.019-.065-.015-.2-.057-.239-.06-.021-.174.084-.208.119a.587.587,0,0,1-.03-.57l.013-.113.956-.387.1.145.071-.2.191.2.059-.109.164.1.108,0,.037.162a.4.4,0,0,1,.1,0c.165,0,.177-.027.177-.028.042-.019.062-.018.094.2l.264.021.074.33c0,.007.139.3.094.421-.09.036-.141-.054-.172-.119a.73.73,0,0,1-.027.242,1.063,1.063,0,0,1-.4-.047Zm-.7-.481c.154.146.367.4.4.431-.029-.041-.021-.237.07-.237.069,0,.185.151.232.218l.141-.267a2.737,2.737,0,0,0,.345.065.824.824,0,0,0,.07-.278c.073.087.125.17.145.17a.719.719,0,0,0-.085-.416l-.06-.319-.263-.023c-.027-.1-.047-.2-.058-.209.01.024-.022.052-.192.052-.066,0-.122,0-.122,0l-.038-.169-.1.016-.149-.105-.063.106-.19-.2-.072.194-.112-.138-.153.088-.769.293,0,.1a.716.716,0,0,0,0,.537.275.275,0,0,1,.188-.138.318.318,0,0,1,.086.266,2.6,2.6,0,0,0,.385-.364c.038,0,.171.084.171.172a1.181,1.181,0,0,0,.139.3c-.012-.044.01-.139.065-.139" transform="translate(-440.108 -361.352)" fill="#163703"/><path d="M474.326,370.833l-.079,0c.145-.028.258-.045.26-.065a.634.634,0,0,0-.057-.2l.187-.018c-.043-.006-.093-.089-.07-.117a.925.925,0,0,0,.242-.136,2.087,2.087,0,0,0-.362-.165l.185-.185a.426.426,0,0,0-.193-.056l.02-.114a.767.767,0,0,0-.238,0c.01-.075.031-.188.031-.189l-.2.042L474,369.47l.035-.009.035.142a.462.462,0,0,1,.206-.03.328.328,0,0,1-.031.183.3.3,0,0,1,.244.01l-.026.1a.23.23,0,0,1,.2.078l-.188.177a.721.721,0,0,1,.368.177c-.1.09-.2.164-.246.16.007,0,.024.048.062.095l-.182.021c.027,0,.082.138.075.2s-.122.063-.217.063" transform="translate(-440.8 -360.026)" fill="#1f4e06"/><path d="M475.762,370.557l-.036-.006c.014-.079.036-.3-.024-.349.031-.027.212.129.327.136.054-.044.013-.15-.023-.214.024-.027.206.07.292.091.008-.013-.033-.087-.087-.155l-.016-.021.083-.048a.215.215,0,0,1,.157.034.6.6,0,0,1-.11,0,.147.147,0,0,0-.037,0c0,.07.069.171.046.21a.942.942,0,0,1-.3-.094c.042.033.1.152.061.206a.579.579,0,0,1-.359-.12c.07.082.034.3.03.331" transform="translate(-441.24 -360.161)" fill="#1f4e06"/><path d="M472.271,368.5c-.046,0-.118-.07-.2-.157a.245.245,0,0,1,.006.076l-.036,0a.14.14,0,0,0-.019-.088c-.054-.075-.061-.087-.045-.1s.021-.009.111.082a1.211,1.211,0,0,0,.208.185.031.031,0,0,1-.02.006" transform="translate(-440.275 -359.707)" fill="#1f4e06"/><path d="M473.026,368.632a.356.356,0,0,1-.186-.075l.022-.029a.44.44,0,0,0,.165.085.537.537,0,0,0-.078-.234c.005-.041.009-.04.1,0a1.348,1.348,0,0,0,.211.079.154.154,0,0,0,.083-.13.984.984,0,0,1,.355.067,2.769,2.769,0,0,1-.337-.047c.015.01,0,.1-.047.134a.746.746,0,0,1-.28-.07l-.069-.029a.336.336,0,0,1,.09.244.163.163,0,0,1-.033,0" transform="translate(-440.501 -359.733)" fill="#1f4e06"/><path d="M468.942,369.161l.016-.086c.016-.045.039-.1.021-.132.026-.021.074.017.12.022a.341.341,0,0,0,.01-.148l0-.029.084.033c.024-.018.091-.06.1-.092.015-.059.023-.068.131.051.013-.039.057-.093.057-.112.024-.028.044-.034.133.075,0-.009.079-.03.079-.075.057-.058.142-.008.166.008-.008-.017.03-.079.024-.116.044.053-.013.133-.019.142a.434.434,0,0,0-.135-.039c0,.085-.119.111-.124.111a1.258,1.258,0,0,0-.1-.095c.016.031-.056.1-.078.126-.065-.042-.111-.091-.122-.1.007.088-.1.139-.109.145l-.007,0-.065-.025a.153.153,0,0,1,0,.16.234.234,0,0,1-.116-.03c.021.029,0,.082-.014.125Z" transform="translate(-439.495 -359.793)" fill="#1f4e06"/><path d="M465.82,370.095l.007-.05a.66.66,0,0,0,.008-.234.414.414,0,0,1,.177.021.17.17,0,0,1-.134-.008.752.752,0,0,1-.014.226Z" transform="translate(-438.689 -360.115)" fill="#1f4e06"/><path d="M467.8,375.388l-.149-.279-.062.2-.033-.016.1-.2.149.278.064-.209.046.091.148-.193.218.286-.22-.264-.165.21-.042-.081Z" transform="translate(-439.138 -361.471)" fill="#1f4e06"/><path d="M472.637,373.527l-.032-.016.125-.248.193.08.055-.232.2.1.077-.219.218.041-.007-.145c.031-.012.167.068.208.13-.009-.019-.019-.108-.032-.184l.182.053c0-.008.027-.046.02-.082s-.03-.047-.072-.065c.068-.012.1.019.108.059a.153.153,0,0,1-.045.119l-.181-.07c.061.192.039.2.027.207a1.215,1.215,0,0,0-.2-.15l.012.147-.219-.034-.082.216-.2-.1-.055.232-.194-.078Z" transform="translate(-440.441 -360.871)" fill="#1f4e06"/><path d="M474.538,373.885l-.291-.185-.088.088-.262-.137-.151.1-.157-.3-.116.174-.2-.258.03-.021.176.257.118-.171.161.292.143-.111.26.138.09-.087.286.191.083-.22.256.064.134-.257-.122.283-.256-.065Z" transform="translate(-440.612 -361.03)" fill="#1f4e06"/><path d="M464.874,371.238l.117.242a.607.607,0,0,0-.234.116c.021.4-.081.381-.081.381a.2.2,0,0,1-.037.162l.6-.3.007-.036.689-.323.022.036.2-.108.139.365-.139.08a1.032,1.032,0,0,0,.154.344l.182-.044.2-.072s.007.109.007.072.212-.1.212-.1.015.1.1.1.2-.184.2-.184l.154.059a.4.4,0,0,0,.051-.154c0-.06.191-.06.191-.06l.131.095.169-.138s.052.1.117.117.256.146.256.117a1.242,1.242,0,0,1,.08-.191l.308.125a1.706,1.706,0,0,0-.146-.307s.146-.117.118-.146-.118,0-.118,0l.088-.176h-.117l.037-.044-.191-.082.1-.2a2.894,2.894,0,0,0-.55-.153l.118-.111s-.06-.087-.118-.087a1.467,1.467,0,0,1-.381-.022.844.844,0,0,0-.131-.139l-.191.139-.1-.03-.168.065s0,.1-.022.03a1.211,1.211,0,0,0-.176-.211c-.03.051-.227.286-.227.286s-.03.124-.095.036-.228-.183-.249-.111-.16.155-.19.134-.191-.008-.206.036-.182.183-.182.183a.593.593,0,0,0-.286-.022.44.44,0,0,0-.059.146Z" transform="translate(-438.385 -360.282)" fill="#479513"/><path d="M471.394,375.162l.016-.117.416-.162.352-.131.176-.08.079.138.1-.2.161.2.088-.109.139.1h.118l.021.154s.294.023.315-.035.059.2.059.2l.278.037.059.315s.139.292.095.411-.154-.154-.154-.154a2.021,2.021,0,0,1-.044.277c-.014.059-.374-.059-.374-.059l-.154.293s-.16-.234-.234-.234-.08.234-.08.234-.234-.277-.337-.4-.117.118-.117.118a1.4,1.4,0,0,1-.154-.33c0-.081-.138-.161-.138-.161a1.62,1.62,0,0,1-.418.35s.022-.174-.037-.234-.234.119-.234.119a.719.719,0,0,1,0-.55" transform="translate(-440.114 -361.355)" fill="#479513"/><path d="M468.955,368.744l-.123.117-.074-.037-.145.162-.03-.088-.08.132-.124-.044-.06.1-.109-.023a.72.72,0,0,1-.154.111c-.059.013,0-.133,0-.133s-.088.146-.154.146-.037-.066-.037-.066-.036.1-.109.11-.037-.073-.037-.073l-.116.088v-.073l-.053-.023s.03-.131.083-.161-.053-.116-.053-.116l.053-.059s-.148-.036-.148-.008c0,0,.073-.2.176-.234l.008-.22a.427.427,0,0,1,.2-.1c.1-.014-.029-.168-.029-.168l.235-.139.03-.168.358.029.073-.154.285.074.243-.125.176.2.262.022s-.005.184-.005.234a3.036,3.036,0,0,1,.351.125,1.993,1.993,0,0,0-.059.227,1.131,1.131,0,0,1,.286-.045s.022.2.03.258c0,0,.373.116.4.182a.5.5,0,0,0-.125.117,2.735,2.735,0,0,1,.045.3l-.03.045a.538.538,0,0,0-.2-.118l-.073.161-.132-.088-.081.007s-.066-.08-.117-.08l-.007-.073-.1.065s-.161-.08-.161-.131.008-.118.008-.118l-.169.118a.343.343,0,0,1-.029-.125c.008-.036-.067.088-.067.088a.723.723,0,0,1-.079-.182l-.022.124s-.177-.059-.2-.176" transform="translate(-439.119 -359.545)" fill="#479513"/><path d="M465.815,369.694s.307.154.307.227c0,0,.08-.161.037-.22l.117.08s.037-.145-.008-.191.265-.161.33.038c0,0,.183-.191-.169-.352,0,0-.028-.118.184-.088a.169.169,0,0,0-.067-.1h.206a.684.684,0,0,0-.307-.133c-.177-.029-.066-.051-.074-.088a.66.66,0,0,1,0-.169.247.247,0,0,0-.183.008l.03-.037s-.19-.051-.264-.008a.156.156,0,0,1-.095-.16.17.17,0,0,0-.161.11.365.365,0,0,1-.242.116.564.564,0,0,1-.131-.058l-.088.2-.139-.007.043.079s-.211-.059-.278,0a.357.357,0,0,1,.059.213.805.805,0,0,0-.206.059c-.044.03.059.051.059.051a.71.71,0,0,0-.236.117l.075.059-.088.118.073.013s-.124.038-.191.06.118.036.118.036l-.088.08.138.023a2.176,2.176,0,0,0-.116.431,1.456,1.456,0,0,1,.212-.219l-.132.219a1.171,1.171,0,0,0,.271-.116c.022-.044.045-.082.045-.082l.007.125a1.063,1.063,0,0,0,.109-.183c.007-.052.154.052.154.052v-.074a1.823,1.823,0,0,0,.177.051c.05.008.058-.022.058-.022l.125-.015-.022.1a.337.337,0,0,0,.111-.118c.014-.059.058,0,.058,0l.059-.234Z" transform="translate(-438.321 -359.777)" fill="#479513"/><path d="M468.6,375.105v-.153l.174.117.1-.117.134.132.08-.132v.211l.2-.174.116.05v-.168s.139-.235.08-.279l.119-.037a3.26,3.26,0,0,0-.257-.234.263.263,0,0,0-.139-.044,1.208,1.208,0,0,0-.257-.2.134.134,0,0,0-.154.045.284.284,0,0,0-.162-.141c-.093-.021-.093.081-.093.081a.574.574,0,0,0-.169-.109c-.1-.044-.03.088-.03.088l-.336-.1.044.1-.315-.08.037.116-.22-.036-.014.095-.315.059.059.1-.2-.08v.139l-.22.082.081.072s-.292.139-.35.182.116.118.116.118l-.315-.043.118.1-.278.256.2.139-.117.176.292.058.119.2.242-.045v.22l.35-.279s.257.227.279.162a1.868,1.868,0,0,0,.015-.257h.125v-.2l.1.08.161-.234.212.293.161-.374Z" transform="translate(-438.795 -361.182)" fill="#479513"/><path d="M471.243,373.754l-.036-.336-.1.1.044-.313-.161-.03.059-.307-.118-.059.03-.147.118-.088.212-.206.49.008.059-.161s.292,0,.351.057.243-.131.243-.131h.073l.081.154a.678.678,0,0,1,.373.045l-.139.191.257.022.177.036.182-.057.235-.016.057.1h.221l-.075.088.287.131-.058.059a1,1,0,0,0,.277.059h.059s.059.139-.021.2a.41.41,0,0,0,.255.234c.176.037.176.037.2.08a.193.193,0,0,1-.2.234v.2a1.016,1.016,0,0,0-.174.2l-.118-.08a.427.427,0,0,0-.1.2s-.255-.338-.351-.352-.08.19-.08.19l-.28-.234-.036.162-.234-.2-.139.1-.249-.256-.242.03.1-.123h-.292l-.06-.258-.043.213-.177-.118-.226.249a.39.39,0,0,1-.066-.147c-.038-.116-.139.139-.139.139l-.082-.182-.094.182a.578.578,0,0,0-.161-.182c-.073-.037-.154.22-.176.336" transform="translate(-440.008 -360.718)" fill="#479513"/><path d="M467.1,372.219s.1-.176.065-.257.213.139.213.139a.492.492,0,0,0,.021-.255c-.042-.08.293.234.293.234s.059-.272,0-.33.323.082.323.082.153-.045.095-.125.257.116.257.116.073-.2,0-.272.234.095.234.095l-.119-.212.257.016-.022-.235Z" transform="translate(-439.02 -360.478)" fill="#479513"/><path d="M467.125,372.241l-.081-.047c.036-.063.082-.174.064-.214.034-.088.054-.108.229.036a.305.305,0,0,0,.005-.154c.043-.086.06-.1.3.123a.4.4,0,0,0,0-.2c.009-.1.024-.122.372,0,.008-.012.044-.035.046-.045l-.023-.031.016-.053c.024-.027.045-.047.321.126-.043-.045-.023-.163-.058-.2l-.028-.029.012-.05c.019-.027.032-.042.167.027l-.084-.148.343.02-.072-.184.093-.009.023.235-.229.027.165.295-.144-.079-.138-.073a.513.513,0,0,1-.03.224,1.973,1.973,0,0,1-.3-.105.105.105,0,0,1-.079.142,3.194,3.194,0,0,0-.331-.093c.1,0,.06.218.041.307l-.018.08-.06-.056c-.069-.065-.147-.134-.2-.182a.729.729,0,0,1-.035.184l-.022.066-.053-.045a1.512,1.512,0,0,0-.191-.146c.1.05,0,.22-.016.253" transform="translate(-439.005 -360.477)" fill="#1f4e06"/><path d="M472.341,375.655l.169-.08.147.145.161-.257.2.191.03-.191.211.088.045-.117.234.125.022-.176.117.037.022-.118Z" transform="translate(-440.372 -361.533)" fill="#50b016"/><path d="M473.04,375.749l-.263-.254-.088.248-.22-.137-.116.089-.04-.085.168-.08.2.154.088-.248.2.137.019-.119.276.053-.017-.091.238.079.015-.12h.177l-.037-.082.092.017-.023.117h-.177l.039.138-.008.068-.3-.157.021.093-.273-.062.035.156Z" transform="translate(-440.366 -361.53)" fill="#1f4e06"/><path d="M468.733,392.428a5.219,5.219,0,0,0,3.157-.945c1.253-.842,1.516-.87,1.722-.858.234.023.577.1.593.309.021.315-.49.454-.784.454a7.2,7.2,0,0,1-1.084-.2l-.2.139c.139.066,1.743.6,2.052.093a10.106,10.106,0,0,0,.629-1.339,1.343,1.343,0,0,0-1.136-.631,3.808,3.808,0,0,0-2.073.872,5.109,5.109,0,0,1-5.75,0,3.8,3.8,0,0,0-2.065-.872,1.349,1.349,0,0,0-1.143.631,9.85,9.85,0,0,0,.63,1.339c.308.507,1.913-.027,2.051-.093l-.2-.139a7.377,7.377,0,0,1-1.084.2c-.3,0-.813-.139-.792-.454.016-.206.36-.286.594-.309.2-.013.468.016,1.721.858a5.379,5.379,0,0,0,3.164.945" transform="translate(-437.87 -365.186)" fill="#fff"/><path d="M468.777,392.446h-.053a5.424,5.424,0,0,1-3.178-.95l-.254-.168a3.909,3.909,0,0,1-1.434.329c-.315,0-.522-.076-.614-.229a9.927,9.927,0,0,1-.632-1.344,1.343,1.343,0,0,1,1.166-.665,3.833,3.833,0,0,1,2.081.878,4.108,4.108,0,0,0,2.865.881,4.043,4.043,0,0,0,2.807-.847,3.926,3.926,0,0,1,2.137-.913,1.379,1.379,0,0,1,1.157.644,8.533,8.533,0,0,1-.631,1.364c-.092.152-.3.229-.613.229a4.895,4.895,0,0,1-1.463-.309l-.223.148a5.247,5.247,0,0,1-3.118.95m-3.579-1.24h0c.114.073.238.156.376.248a5.379,5.379,0,0,0,3.149.941l.053.025v-.025a5.2,5.2,0,0,0,3.089-.941c.165-.111.313-.208.446-.293.83-.528,1.073-.572,1.235-.572.2.016.655.079.674.335a.3.3,0,0,1-.088.234,1.108,1.108,0,0,1-.721.247,6.951,6.951,0,0,1-1.079-.2l-.111.07-.085.062a7.617,7.617,0,0,0,1.444.263c.3,0,.487-.069.569-.2a9.972,9.972,0,0,0,.629-1.335,1.376,1.376,0,0,0-1.111-.6,3.8,3.8,0,0,0-2.059.867,5.139,5.139,0,0,1-5.738.031,3.86,3.86,0,0,0-2.093-.9,1.328,1.328,0,0,0-1.12.617,12.166,12.166,0,0,0,.629,1.314c.082.135.274.2.57.2a4.89,4.89,0,0,0,1.412-.292l-.1-.065-.069-.044a6.024,6.024,0,0,1-1.065.2,1.12,1.12,0,0,1-.728-.247.3.3,0,0,1-.088-.233c.019-.257.476-.32.617-.333.234.016.463.042,1.292.57Zm7.187-.03a7.433,7.433,0,0,0,1.027.178,1.05,1.05,0,0,0,.684-.231.257.257,0,0,0,.075-.2c-.013-.171-.3-.26-.57-.286h-.012c-.2,0-.437.049-1.2.534m-8.491-.536c-.32.027-.611.116-.624.289a.254.254,0,0,0,.075.194,1.063,1.063,0,0,0,.691.231,6.644,6.644,0,0,0,1.019-.183c-.744-.466-1-.532-1.161-.532" transform="translate(-437.862 -365.177)"/><path d="M465.331,391.6a7.272,7.272,0,0,1-1.076.2c-.3,0-.813-.139-.792-.454.016-.206.36-.286.594-.309.176-.013.4.008,1.273.565" transform="translate(-438.081 -365.592)" fill="#7493fc"/><path d="M464.248,391.812a1.122,1.122,0,0,1-.729-.247.3.3,0,0,1-.088-.233c.019-.257.477-.32.617-.333.244.007.505.067,1.289.568a3.767,3.767,0,0,1-1.089.245m-.139-.765c-.324.027-.614.116-.628.289a.253.253,0,0,0,.075.194,1.064,1.064,0,0,0,.691.231,7.24,7.24,0,0,0,1.069-.2c-.782-.449-1.042-.517-1.208-.517" transform="translate(-438.073 -365.584)"/><path d="M475.708,391.6a7.2,7.2,0,0,0,1.084.2c.293,0,.806-.139.784-.454-.016-.206-.359-.286-.593-.309-.177-.013-.4.008-1.275.565" transform="translate(-441.242 -365.592)" fill="#7493fc"/><path d="M476.79,391.811a7.207,7.207,0,0,1-1.091-.2c.779-.549,1.048-.617,1.223-.617.2.016.658.079.677.335a.3.3,0,0,1-.088.234,1.108,1.108,0,0,1-.721.247m-1.048-.208c.131,0,.783.157,1.048.157a1.05,1.05,0,0,0,.684-.232.257.257,0,0,0,.075-.2c-.013-.171-.3-.26-.57-.286-.217,0-.482.065-1.251.556h.014" transform="translate(-441.239 -365.584)"/><path d="M467.077,390.63c-.08-.058-.162-.117-.234-.176-.11-.081-.22-.154-.338-.234,0,0,.161-.2.242-.227.125-.043.28.022.307.285a3.522,3.522,0,0,1,.023.352" transform="translate(-438.866 -365.322)" fill="#7493fc"/><path d="M467.1,390.671l-.041-.03c-.08-.058-.163-.117-.235-.177s-.168-.118-.255-.178l-.08-.055a.587.587,0,0,1,.249-.273l.077-.013c.053,0,.231.023.262.32.023.207.023.355.023.355Zm-.285-.674a.633.633,0,0,0-.292.231l.074.017c.088.06.173.118.258.18.06.049.127.1.192.145,0-.059-.006-.165-.022-.3-.018-.172-.1-.276-.211-.276" transform="translate(-438.862 -365.313)"/><path d="M467,390.563a3.427,3.427,0,0,0-.023-.344c-.027-.263-.182-.329-.307-.293a1.061,1.061,0,0,0-.242.226v.008a2.552,2.552,0,0,0-.226-.139,1.476,1.476,0,0,1,.475-.271,5.668,5.668,0,0,1,1.407.688,1.173,1.173,0,0,1,.1.673,3.449,3.449,0,0,1-1.179-.542Z" transform="translate(-438.788 -365.262)" fill="#fff"/><path d="M468.2,391.111a3.135,3.135,0,0,1-1.218-.528,5.464,5.464,0,0,0,1.2.5,1.482,1.482,0,0,0-.12-.63,5.806,5.806,0,0,0-1.389-.682,1.5,1.5,0,0,0-.456.262.491.491,0,0,1,.223.1c-.017-.024.134-.207.218-.238a.239.239,0,0,1,.2.029.371.371,0,0,1,.139.286c.023.207.023.347.023.347h-.05a3.337,3.337,0,0,0-.023-.341.33.33,0,0,0-.118-.249.181.181,0,0,0-.157-.022.99.99,0,0,0-.229.218,1.657,1.657,0,0,1-.259-.125,1.048,1.048,0,0,1,.487-.318,5.631,5.631,0,0,1,1.423.694,1.16,1.16,0,0,1,.1.7" transform="translate(-438.783 -365.254)"/><path d="M466.545,392.228a.948.948,0,0,0-.227.623c-.007.476.337.5.564.491.272-.008.491-.162.484-.666a5.39,5.39,0,0,1-.821-.448" transform="translate(-438.818 -365.902)" fill="#fff"/><path d="M466.818,393.363a.561.561,0,0,1-.41-.132.518.518,0,0,1-.124-.386.971.971,0,0,1,.234-.641,7.194,7.194,0,0,0,.849.442c.022.473-.149.706-.493.716Zm-.294-1.117a1.219,1.219,0,0,0-.19.6.469.469,0,0,0,.11.349.514.514,0,0,0,.374.116v.026l.054-.026c.315-.01.465-.219.459-.641a4.952,4.952,0,0,1-.807-.425" transform="translate(-438.809 -365.895)"/><path d="M466.8,392.378a.857.857,0,0,0-.2.483.3.3,0,0,0,.336.352c.279-.016.387-.4.256-.608Z" transform="translate(-438.889 -365.94)" fill="#fff"/><path d="M466.893,393.233a.332.332,0,0,1-.245-.1.366.366,0,0,1-.088-.28.88.88,0,0,1,.211-.5l.42.223a.474.474,0,0,1,.012.462.332.332,0,0,1-.28.193Zm-.112-.838a1.212,1.212,0,0,0-.17.461.316.316,0,0,0,.074.242.277.277,0,0,0,.208.083v.026l.027-.027a.287.287,0,0,0,.24-.165.428.428,0,0,0,0-.4Z" transform="translate(-438.88 -365.934)"/><path d="M466.556,393.432a.653.653,0,0,0,.387.066c.273-.008.492-.162.484-.667a4.61,4.61,0,0,0,.885.3.618.618,0,0,1,.1.328c.022.184-.1.382-.25.368,0,0-.769-.139-1.238-.22a.646.646,0,0,1-.372-.176" transform="translate(-438.879 -366.057)" fill="#7493fc"/><path d="M468.174,393.854h-.017s-.771-.139-1.24-.22a.669.669,0,0,1-.387-.185l.013,0c.007-.006.019,0,.033,0a2.546,2.546,0,0,0,.264.024l.094,0c.317-.009.467-.218.461-.64.043-.024.378.145.918.275a.556.556,0,0,1,.122.353.415.415,0,0,1-.095.311.225.225,0,0,1-.165.083m-1.459-.337a1.041,1.041,0,0,0,.211.066c.469.08,1.237.22,1.237.22h.01a.177.177,0,0,0,.128-.066.362.362,0,0,0,.082-.273.607.607,0,0,0-.1-.317,4.356,4.356,0,0,1-.878-.294c.043.427-.128.66-.472.67a.988.988,0,0,1-.223-.006" transform="translate(-438.872 -366.057)"/><path d="M468.8,393.822a.585.585,0,0,0,.1-.244.212.212,0,0,0-.085-.151l.03-.041a.264.264,0,0,1,.1.192.315.315,0,0,1-.155.244" transform="translate(-439.458 -366.201)" fill="#fff"/><path d="M468.615,393.547l-.759-.275.02-.047Z" transform="translate(-439.215 -366.159)" fill="#fff"/><path d="M474.414,390.63l.242-.176c.1-.081.212-.154.33-.234,0,0-.161-.2-.242-.227-.125-.043-.271.022-.3.285-.022.206-.03.352-.03.352" transform="translate(-440.908 -365.322)" fill="#7493fc"/><path d="M474.377,390.672l0-.053c0-.009.008-.154.029-.352s.119-.321.256-.321l.079.014c.085.023.236.214.253.235l.017.022-.07.047c-.1.068-.193.131-.281.2Zm.325-.665c-.156,0-.224.1-.243.265-.014.13-.021.236-.025.3l.2-.144c.089-.069.183-.134.284-.2a.442.442,0,0,0-.187-.214H474.7" transform="translate(-440.898 -365.313)"/><path d="M474,390.563s.008-.139.03-.344c.03-.263.176-.329.3-.293a1.061,1.061,0,0,1,.242.226v.008a2.454,2.454,0,0,1,.226-.139,1.529,1.529,0,0,0-.468-.271,5.557,5.557,0,0,0-1.414.688,1.313,1.313,0,0,0-.1.673,3.392,3.392,0,0,0,1.18-.542v-.007Z" transform="translate(-440.493 -365.262)" fill="#fff"/><path d="M472.822,391.129a1.111,1.111,0,0,1,.07-.716,5.445,5.445,0,0,1,1.433-.7,1.491,1.491,0,0,1,.487.279,1.671,1.671,0,0,1-.231.177,1.993,1.993,0,0,0-.265-.232.185.185,0,0,0-.149.022.336.336,0,0,0-.117.251c-.021.2-.03.342-.03.342l-.05,0h0a2.522,2.522,0,0,1-1.148.576m1.5-1.361a5.646,5.646,0,0,0-1.4.683,1.334,1.334,0,0,0-.088.648,3.867,3.867,0,0,0,1.13-.549c0-.025.01-.157.03-.341a.372.372,0,0,1,.139-.288.233.233,0,0,1,.194-.027,1.022,1.022,0,0,1,.254.235.713.713,0,0,1,.194-.137,4.283,4.283,0,0,0-.456-.223" transform="translate(-440.489 -365.254)"/><path d="M474.78,392.228a.948.948,0,0,1,.227.623c.015.476-.335.5-.563.491-.272-.008-.483-.162-.483-.666a5.412,5.412,0,0,0,.819-.448" transform="translate(-440.791 -365.902)" fill="#fff"/><path d="M474.491,393.362h-.057c-.337-.01-.507-.243-.507-.693.019-.025.464-.215.83-.468a.8.8,0,0,1,.266.643.505.505,0,0,1-.118.384.565.565,0,0,1-.415.134m.263-1.122a4.25,4.25,0,0,1-.791.452c.015.4.165.61.473.619l.056.027v-.026a.518.518,0,0,0,.378-.119.458.458,0,0,0,.1-.347.933.933,0,0,0-.22-.605" transform="translate(-440.782 -365.894)"/><path d="M474.665,392.378a.868.868,0,0,1,.206.483.3.3,0,0,1-.338.352c-.278-.016-.381-.4-.257-.608Z" transform="translate(-440.859 -365.94)" fill="#fff"/><path d="M474.555,393.232h-.032a.329.329,0,0,1-.274-.185.492.492,0,0,1,0-.461l.4-.236a.7.7,0,0,1,.245.5.355.355,0,0,1-.081.277.335.335,0,0,1-.252.1m.083-.844-.357.231a.451.451,0,0,0,.013.4.278.278,0,0,0,.233.158l.028.027v-.027a.285.285,0,0,0,.214-.087.3.3,0,0,0,.068-.237.854.854,0,0,0-.2-.468" transform="translate(-440.85 -365.933)"/><path d="M474.487,393.432a.653.653,0,0,1-.387.066c-.272-.008-.483-.162-.483-.667a4.686,4.686,0,0,1-.879.3.586.586,0,0,0-.111.328c-.015.184.111.382.249.368l1.237-.22a.639.639,0,0,0,.373-.176" transform="translate(-440.446 -366.057)" fill="#7493fc"/><path d="M472.853,393.846a.212.212,0,0,1-.154-.076.441.441,0,0,1-.107-.319.618.618,0,0,1,.116-.344,4.965,4.965,0,0,0,.887-.306c.037.445.187.654.495.664l.1,0a.538.538,0,0,0,.277-.067c.028.043-.077.169-.355.223Zm-.118-.7a.7.7,0,0,0-.092.306.387.387,0,0,0,.093.28.166.166,0,0,0,.116.06v.025l.012-.026,1.235-.22a.8.8,0,0,0,.213-.068.747.747,0,0,1-.226.009c-.332-.01-.5-.239-.505-.682a2.648,2.648,0,0,1-.847.315" transform="translate(-440.437 -366.05)"/><path d="M472.871,393.782c-.134-.036-.185-.118-.184-.2a.27.27,0,0,1,.109-.194l.029.042a.22.22,0,0,0-.088.154.268.268,0,0,0,.134.2" transform="translate(-440.462 -366.201)" fill="#fff"/><path d="M472.838,393.593l.72-.368.02.046Z" transform="translate(-440.501 -366.159)" fill="#fff"/><path d="M463.919,390.555a.929.929,0,0,0,.007-.154c0-.022-.007-.124-.007-.154l.022.007c0,.015.006.066.006.081a.2.2,0,0,0,.154.095.133.133,0,0,0,.134-.132c-.008-.073-.074-.109-.14-.147-.095-.05-.168-.095-.176-.2a.164.164,0,0,1,.176-.177.334.334,0,0,1,.132.008.294.294,0,0,0,.008-.08l.021-.008a1.427,1.427,0,0,0,0,.264l-.021-.007a.682.682,0,0,0-.008-.073.131.131,0,0,0-.132-.074c-.08.008-.118.059-.11.1,0,.059.073.088.146.125a.278.278,0,0,1,.176.213.206.206,0,0,1-.219.219.36.36,0,0,1-.133-.007.746.746,0,0,1-.016.1Z" transform="translate(-438.198 -365.247)"/><path d="M464.811,390.125a2.114,2.114,0,0,0,.088-.2.41.41,0,0,0-.065-.044l.008-.016c.02.008.08.038.145.067a.916.916,0,0,0,.125.059l-.015.014c-.022-.006-.059-.021-.087-.029a1.881,1.881,0,0,0-.1.2l-.05.111c-.089.183-.045.277.05.322a.171.171,0,0,0,.138.022c.074-.022.119-.1.169-.2l.036-.074a2.059,2.059,0,0,0,.1-.219c-.016-.007-.066-.043-.088-.053v-.021a1.235,1.235,0,0,0,.139.066c.044.021.088.043.108.05l-.014.016a.205.205,0,0,0-.066-.016,1.123,1.123,0,0,0-.073.141l-.023.035a1.167,1.167,0,0,1-.042.111.346.346,0,0,1-.2.2.265.265,0,0,1-.2-.027.258.258,0,0,1-.139-.381Z" transform="translate(-438.403 -365.293)"/><path d="M466.988,391.429c.044-.074.087-.168.1-.191-.016-.014-.037-.028-.059-.05l.007-.015.132.081c.045.022.1.059.125.066l-.015.014c-.023-.007-.06-.03-.089-.037a1.808,1.808,0,0,0-.11.191l-.066.1c-.1.176-.059.277.03.33a.206.206,0,0,0,.139.029c.073-.015.125-.082.177-.183l.044-.074c.014-.028.1-.174.118-.2-.024-.015-.068-.05-.088-.066l.007-.022c.022.014.081.05.131.08s.088.053.1.059l-.015.007a.282.282,0,0,1-.066-.013,1.03,1.03,0,0,0-.08.131l-.022.036c-.022.037-.044.074-.059.1a.332.332,0,0,1-.214.184.25.25,0,0,1-.2-.045.26.26,0,0,1-.1-.388Z" transform="translate(-438.96 -365.629)"/><path d="M468.34,392.534a.605.605,0,0,1,.1.021c.007-.036.067-.469.074-.534-.045.045-.36.418-.4.461-.007-.065-.03-.571-.03-.608h-.007a5.037,5.037,0,0,0-.235.477c.015.007.059.037.073.044v.013c-.014-.007-.116-.036-.131-.044s-.074-.022-.1-.03l.016-.022a.16.16,0,0,0,.066.015c.037-.052.286-.461.322-.535-.022-.008-.081-.036-.088-.036v-.023a1.144,1.144,0,0,0,.133.044c.037.015.109.037.132.045l-.007.016a.247.247,0,0,0-.073-.008c0,.088.016.418.016.5.042-.044.322-.366.329-.389-.014-.006-.036-.021-.051-.029v-.022a.753.753,0,0,0,.117.045c.029.006.109.036.131.036l-.014.023a.224.224,0,0,0-.08-.016c-.014.109-.067.55-.067.616.015.007.053.03.067.036v.014c-.029-.007-.082-.029-.125-.044s-.139-.043-.169-.05Z" transform="translate(-439.169 -365.774)"/><path d="M472.613,392.263c-.022-.08-.066-.227-.073-.257-.014,0-.073.016-.1.016l-.007-.016a1.565,1.565,0,0,0,.162-.043,2.237,2.237,0,0,0,.284-.088.274.274,0,0,0-.007-.066l.022-.015a1.888,1.888,0,0,0,.045.234l-.024-.007a.221.221,0,0,0-.022-.066.528.528,0,0,0-.234.022c0,.016.044.177.059.243l.007.022c.045-.014.161-.051.191-.066,0-.015-.006-.044-.006-.059l.021-.007a1.561,1.561,0,0,0,.043.2h-.022a.274.274,0,0,0-.028-.072.512.512,0,0,0-.191.03l.007.03.081.255c.038,0,.089-.013.111-.013l.008.013c-.038.007-.111.03-.169.044a1.55,1.55,0,0,0-.154.051v-.023c.008-.006.067-.02.094-.036-.006-.022-.043-.176-.073-.28Z" transform="translate(-440.395 -365.79)"/><path d="M473.4,392c-.021-.05-.08-.182-.094-.211-.022.007-.075.022-.1.03l-.014-.016a.958.958,0,0,0,.154-.067,1.34,1.34,0,0,0,.161-.073v.022c-.023.016-.065.038-.095.059.007.03.059.154.088.22l.014.037c.051.111.125.277.139.293a.391.391,0,0,0,.184-.131c0-.037-.008-.088-.008-.111l.016-.014c.021.081.043.184.08.309H473.9c-.008-.015-.03-.081-.038-.1-.021.008-.212.088-.256.1s-.125.058-.146.073l-.007-.022a.547.547,0,0,0,.086-.051c-.013-.045-.086-.213-.124-.295Z" transform="translate(-440.592 -365.757)"/><path d="M476,390.464c-.038-.074-.11-.2-.125-.229a.738.738,0,0,0-.1.031l-.007-.016c.038-.022.111-.05.148-.073s.226-.119.248-.132c-.008-.014-.008-.03-.016-.044l.016-.016c.007.022.065.154.072.183l-.021.008c0-.008-.022-.045-.03-.066-.027-.015-.161.043-.2.066a2.087,2.087,0,0,0,.109.227l.007.014a1.906,1.906,0,0,0,.169-.1c-.008-.016-.008-.03-.015-.038l.022-.013a1.239,1.239,0,0,0,.059.167h-.022a.6.6,0,0,1-.029-.058.594.594,0,0,0-.177.068l.016.021a2.114,2.114,0,0,0,.139.257.746.746,0,0,0,.185-.131.591.591,0,0,0-.024-.088l.024-.016a1.59,1.59,0,0,0,.072.211H476.5c-.016-.02-.023-.035-.029-.042-.021.007-.213.1-.265.124-.03.014-.1.051-.131.065v-.014a.792.792,0,0,1,.08-.059c-.007-.015-.08-.175-.133-.263Z" transform="translate(-441.259 -365.323)"/><path d="M465.771,390.713c.038-.059.11-.184.125-.221a.514.514,0,0,0-.073-.058l.007-.022c.021.015.183.111.234.14.154.093.139.174.11.219a.138.138,0,0,1-.066.059.315.315,0,0,1-.154.022.217.217,0,0,1,.065.255.191.191,0,0,1-.286.038c-.022-.015-.1-.074-.138-.1-.015-.008-.1-.059-.119-.073l.008-.015c.022.008.073.037.1.045.036-.053.111-.177.153-.243Z" transform="translate(-438.601 -365.433)"/><path d="M465.891,391a1.038,1.038,0,0,0-.1.175.084.084,0,0,0,.045.044.088.088,0,0,0,.138-.022.159.159,0,0,0,0-.169.309.309,0,0,0-.066-.066Z" transform="translate(-438.683 -365.575)" fill="#fff"/><path d="M466,390.822a.125.125,0,0,0,.079.028.143.143,0,0,0,.089-.058.092.092,0,0,0-.03-.139c-.007-.007-.014-.015-.022-.015s-.066.1-.1.146Z" transform="translate(-438.737 -365.491)" fill="#fff"/><path d="M469.323,392.4c.007-.074.022-.221.022-.257-.03-.006-.067-.014-.1-.022V392.1c.029.007.212.022.272.03.182.022.2.1.2.146a.192.192,0,0,1-.037.088.254.254,0,0,1-.139.081v.007a.2.2,0,0,1,.168.2.188.188,0,0,1-.242.146c-.02,0-.123-.021-.161-.028-.021,0-.116-.016-.146-.016l.008-.015h.1c.014-.065.028-.2.043-.285l.007-.059Z" transform="translate(-439.552 -365.869)"/><path d="M469.5,392.658c-.007.058-.015.168-.015.176a.094.094,0,0,0,.059.022.083.083,0,0,0,.11-.073.151.151,0,0,0-.066-.139.179.179,0,0,0-.08-.03Z" transform="translate(-439.636 -366.001)" fill="#fff"/><path d="M469.518,392.441a.118.118,0,0,0,.1-.014.11.11,0,0,0,.05-.08c.007-.067-.022-.111-.08-.119h-.03a1.065,1.065,0,0,0-.029.176l-.007.036Z" transform="translate(-439.644 -365.902)" fill="#fff"/><path d="M470.234,392.491c0-.037.006-.22,0-.234a.43.43,0,0,0-.1-.016l-.007-.021.2.007a.711.711,0,0,1,.264.036.117.117,0,0,1,.081.11.256.256,0,0,1-.14.176,2.508,2.508,0,0,0,.249.381l-.044.008a2.826,2.826,0,0,1-.322-.352h-.088v.028c-.007.059-.007.2-.007.249.015,0,.08.015.1.015v.022c-.023-.007-.117-.007-.162-.015h-.161l.008-.022a.5.5,0,0,0,.095-.007c.007-.029.015-.213.021-.309v-.058Z" transform="translate(-439.796 -365.9)"/><path d="M470.435,392.542a.193.193,0,0,0,.088-.006.122.122,0,0,0,.088-.117c0-.044-.036-.1-.16-.111a1.784,1.784,0,0,0-.016.213Z" transform="translate(-439.881 -365.922)" fill="#fff"/><path d="M475.146,390.968a2.174,2.174,0,0,0-.125-.2,1.013,1.013,0,0,1-.094.045l-.007-.016.175-.11a.708.708,0,0,1,.241-.108.118.118,0,0,1,.125.05.272.272,0,0,1-.021.219,2.746,2.746,0,0,0,.418.191l-.037.022a2.837,2.837,0,0,1-.461-.118.5.5,0,0,1-.073.05l.015.023c.029.051.1.177.131.212a.57.57,0,0,0,.088-.043l.015.013c-.022.015-.1.059-.139.082s-.117.072-.141.088v-.022c.008-.007.061-.044.075-.059a3.075,3.075,0,0,0-.155-.272Z" transform="translate(-441.038 -365.476)"/><path d="M475.339,390.981a.474.474,0,0,0,.08-.058.137.137,0,0,0,.007-.161c-.022-.045-.1-.073-.211,0,.015.028.08.154.108.2Z" transform="translate(-441.114 -365.512)" fill="#fff"/><path d="M471.483,392.852c.028-.008.065-.016.094-.022a2.4,2.4,0,0,0-.125-.264c-.03,0-.182.021-.211.027a1.379,1.379,0,0,0-.045.265.287.287,0,0,0,.081.007v.023c-.027,0-.108.007-.139.007a.52.52,0,0,0-.108.015v-.022c.028-.008.057-.016.079-.023.03-.059.176-.579.191-.615a.329.329,0,0,0-.08-.007v-.024c.027,0,.108-.006.123-.006.037,0,.133-.014.16-.014v.02a.2.2,0,0,0-.072.016c.015.045.08.184.125.28a2.126,2.126,0,0,0,.154.307c.021,0,.05.007.08.007l.007.014c-.016,0-.111.007-.162.014a1.145,1.145,0,0,0-.161.015Z" transform="translate(-440.034 -365.895)"/><path d="M471.43,392.338h-.008c-.015.065-.052.2-.06.22l.154-.008c-.021-.042-.073-.174-.086-.211" transform="translate(-440.12 -365.93)" fill="#fff"/><path d="M474.306,391.89a.3.3,0,0,1-.2-.147.369.369,0,0,1,.154-.519.394.394,0,0,1,.265-.083.321.321,0,0,1,.227.141.386.386,0,0,1-.147.542.373.373,0,0,1-.3.067Z" transform="translate(-440.815 -365.621)"/><path d="M474.677,391.482a.245.245,0,0,0-.336-.1.214.214,0,0,0-.059.3.258.258,0,0,0,.352.08.192.192,0,0,0,.043-.277" transform="translate(-440.864 -365.674)" fill="#fff"/><path d="M476.953,390.382a.279.279,0,0,1-.154-.189.366.366,0,0,1,.286-.461.4.4,0,0,1,.278-.008.266.266,0,0,1,.175.19.371.371,0,0,1-.271.484.39.39,0,0,1-.315-.015" transform="translate(-441.519 -365.25)"/><path d="M477.439,390.069a.252.252,0,0,0-.3-.183.2.2,0,0,0-.132.264.258.258,0,0,0,.315.177.2.2,0,0,0,.117-.257" transform="translate(-441.574 -365.295)" fill="#fff"/><path d="M459.349,374.878l5.332-2.762-.138-.367-4.608,2.206a3.918,3.918,0,0,0-1.37.907c-.243.294-.117.469-.117.469a.411.411,0,0,1,.162-.036s.036.17-.05.235c-.037.028-.007.116.065.132s.131-.029.22-.184a3.913,3.913,0,0,1,.506-.6" transform="translate(-436.778 -360.616)" fill="#69000e"/><path d="M458.636,375.675h-.019a.123.123,0,0,1-.1-.092l0-.011.023-.062c.077-.057.045-.215.044-.217a.733.733,0,0,0-.136.05c-.028-.014-.154-.2.1-.5a3.977,3.977,0,0,1,1.377-.914l4.606-2.2.163.376-5.34,2.784a3.9,3.9,0,0,0-.5.594c-.082.145-.138.193-.218.193m-.032-.4c.019.022.055.2-.04.267,0,.062.022.092.058.1h.014c.057,0,.1-.027.186-.174a3.894,3.894,0,0,1,.509-.606l5.336-2.764-.146-.344-4.583,2.215a3.917,3.917,0,0,0-1.364.9c-.211.256-.137.413-.119.442a.24.24,0,0,1,.15-.039" transform="translate(-436.773 -360.61)"/><path d="M465.452,372.168l.689-.33s.233.176.213.373a1.116,1.116,0,0,0,.614.769,1.938,1.938,0,0,1-1.311.645s.065-.814-.111-1.04c0,0-.176-.264-.095-.417" transform="translate(-438.589 -360.639)" fill="#fff"/><path d="M465.632,373.639v-.021c0-.008.062-.809-.108-1.028-.007-.013-.18-.275-.1-.436l.7-.338c.029.01.261.187.239.392a1.118,1.118,0,0,0,.605.751,1.8,1.8,0,0,1-1.318.68Zm.492-1.792-.67.332c-.066.134.1.388.1.39a2.22,2.22,0,0,1,.116,1.03,1.931,1.931,0,0,0,1.276-.637,1.081,1.081,0,0,1-.618-.755c.021-.188-.2-.359-.206-.361" transform="translate(-438.583 -360.633)"/><path d="M465.725,372.734c-.027-.052.451-.3.6-.361l.022.053c-.145.059-.62.306-.62.307" transform="translate(-438.665 -360.777)" fill="#78497d"/><path d="M466.25,372.971a.332.332,0,0,1-.062-.318l.065-.042-.007.05a.614.614,0,0,0,.005.309" transform="translate(-438.781 -360.839)" fill="#78497d"/><path d="M466.169,372.972a.315.315,0,0,1-.07-.3l.064-.031-.007.043a.5.5,0,0,0,.014.292" transform="translate(-438.758 -360.845)" fill="#78497d"/><path d="M466.9,373.182a1.332,1.332,0,0,1-.385-.458l.054-.021a2.82,2.82,0,0,0,.331.479" transform="translate(-438.87 -360.862)" fill="#78497d"/><path d="M466.818,373.231c-.127-.046-.239-.265-.26-.32l.056-.02a1.367,1.367,0,0,0,.2.34" transform="translate(-438.88 -360.911)" fill="#78497d"/><path d="M466.736,373.329c-.1-.036-.162-.163-.2-.251l.054-.021a1.263,1.263,0,0,0,.142.272" transform="translate(-438.875 -360.954)" fill="#78497d"/></g></g></g></svg>