<svg xmlns="http://www.w3.org/2000/svg" xmlns:xlink="http://www.w3.org/1999/xlink" width="36" height="36" viewBox="0 0 36 36"><defs><clipPath id="a"><circle cx="18" cy="18" r="18" transform="translate(1786 215)" fill="#fff" stroke="#707070" stroke-width="1"/></clipPath><clipPath id="b"><rect width="61.716" height="36" fill="none"/></clipPath></defs><g transform="translate(-1786 -215)" clip-path="url(#a)"><g transform="translate(1649 16)"><g transform="translate(129.872 199.241)" clip-path="url(#b)"><rect width="61.716" height="18" transform="translate(0 -0.001)" fill="#2534a4"/><rect width="61.716" height="18" transform="translate(0 18)" fill="#bc0030"/><path d="M129.872,199.24v36l31.334-18Z" transform="translate(-129.872 -199.241)" fill="#fff"/><path d="M134.31,241.76l-1.393-.813-1.191,1.087.342-1.575-1.4-.8,1.6-.163.324-1.58.649,1.476,1.6-.18-1.2,1.074Z" transform="translate(-130.077 -209.223)" fill="#f3d02f"/><path d="M140.063,218.376l-1.174-2.014-.674-.076,1.606,2.281Zm-.911.921-2.465-1.9-.089-1.1,1-.035,2.039,2.494Zm-.374.435-2.03-1.146-.086-.672,2.3,1.575Z" transform="translate(-131.608 -203.634)" fill="#f3d02f"/><path d="M144.318,217.186l.613-2.249-.419-.535-.5,2.744Zm-1.3,0-.378-3.088.724-.839.725.687-.346,3.2Zm-.572.038-.607-2.25.42-.533.493,2.746Z" transform="translate(-132.962 -202.859)" fill="#f3d02f"/><path d="M147.888,219.811l2.045-1.12.094-.671-2.323,1.545Zm-.9-.934,1.962-2.414,1.105-.059.009,1-2.546,1.972Zm-.423-.386,1.2-2,.675-.068-1.634,2.261Z" transform="translate(-134.181 -203.67)" fill="#f3d02f"/><path d="M148.827,223.935l2.249.613.535-.419-2.744-.5Zm0-1.3,3.088-.375.838.724-.687.723-3.2-.348Zm-.038-.571,2.25-.607.533.42-2.746.491Z" transform="translate(-134.755 -204.975)" fill="#f3d02f"/><path d="M146.532,227.409l1.181,2.008.675.074-1.615-2.274Zm.906-.926,2.475,1.885.093,1.1-1,.039-2.048-2.485Zm.372-.436,2.034,1.136.088.674-2.308-1.565Z" transform="translate(-134.172 -206.159)" fill="#f3d02f"/><path d="M142.426,228.444l-.6,2.254.421.531.48-2.749Zm1.3-.007.4,3.085-.719.844-.729-.681.325-3.206Zm.571-.042.623,2.246-.416.536-.511-2.741Z" transform="translate(-132.958 -206.765)" fill="#f3d02f"/><path d="M138.728,226.08l-2.025,1.152-.082.674,2.3-1.583Zm.913.92-1.922,2.446-1.105.077-.023-1,2.512-2.013Zm.43.378-1.166,2.019-.674.078,1.6-2.287Z" transform="translate(-131.606 -206.168)" fill="#f3d02f"/><path d="M137.567,222.039l-2.252-.6-.531.421,2.747.48Zm.007,1.3-3.085.4-.844-.719.683-.729,3.2.326Zm.042.572-2.246.622-.536-.416,2.741-.511Z" transform="translate(-130.846 -204.971)" fill="#f3d02f"/><path d="M142.569,218.385a3.8,3.8,0,1,1-3.8,3.8,3.8,3.8,0,0,1,3.8-3.8" transform="translate(-132.169 -204.182)" fill="#f3d02f"/><path d="M161.5,224.073l.953-1.3-.956-1.3,1.531.506.94-1.312-.007,1.613,1.537.488-1.537.491.012,1.613-.941-1.309Z" transform="translate(-138.034 -204.771)" fill="#f3d02f"/><path d="M134.31,203.282l-1.393.813-1.191-1.087.342,1.577-1.4.8,1.6.161.324,1.58.649-1.476,1.6.18-1.2-1.074Z" transform="translate(-130.077 -200.213)" fill="#f3d02f"/></g></g></g></svg>