<svg xmlns="http://www.w3.org/2000/svg" xmlns:xlink="http://www.w3.org/1999/xlink" width="36" height="36" viewBox="0 0 36 36"><defs><clipPath id="a"><circle cx="18" cy="18" r="18" transform="translate(1533 209)" fill="#fff" stroke="#707070" stroke-width="1"/></clipPath><clipPath id="b"><rect width="61.716" height="36" fill="none"/></clipPath></defs><g transform="translate(-1533 -209)" clip-path="url(#a)"><g transform="translate(1293.335 88.545)"><g transform="translate(229.665 120.455)" clip-path="url(#b)"><rect width="61.716" height="36" fill="#fff"/><rect width="46.287" height="36" transform="translate(15.428)" fill="#2a680b"/><path d="M276.6,130.16a10.8,10.8,0,1,1-10.779,10.8,10.791,10.791,0,0,1,10.779-10.8" transform="translate(-238.995 -122.96)" fill="#fff"/><path d="M274.056,130.565a9.892,9.892,0,1,1-.82,13.977,9.869,9.869,0,0,1,.82-13.977" transform="translate(-240.266 -122.419)" fill="#2a680b"/><path d="M290.059,135.046l-3.292,1.443.72,1.649Z" transform="translate(-244.402 -124.221)" fill="#fff"/><path d="M290.033,135.046l-1.817,3.106-1.549-.91Z" transform="translate(-244.376 -124.221)" fill="#fff"/><path d="M290.465,139.786l-2.387-2.691-1.343,1.2Z" transform="translate(-244.394 -124.75)" fill="#fff"/><path d="M290.542,139.843l-3.509-.771.384-1.758Z" transform="translate(-244.471 -124.806)" fill="#fff"/><path d="M285.644,133.824l.352,3.583,1.788-.177Z" transform="translate(-244.112 -123.905)" fill="#fff"/><path d="M285.644,133.824l2.387,2.691-1.344,1.2Z" transform="translate(-244.112 -123.905)" fill="#fff"/><path d="M286.548,141.612l1.815-3.106-1.551-.91Z" transform="translate(-244.346 -124.879)" fill="#fff"/><path d="M286.425,141.7l-.354-3.583,1.789-.176Z" transform="translate(-244.222 -124.968)" fill="#fff"/><path d="M282.765,138.4l3.509.771.386-1.758Z" transform="translate(-243.369 -124.832)" fill="#fff"/><path d="M282.765,138.244l3.292-1.443.72,1.649Z" transform="translate(-243.369 -124.674)" fill="#fff"/></g></g></g></svg>