<svg xmlns="http://www.w3.org/2000/svg" xmlns:xlink="http://www.w3.org/1999/xlink" width="36" height="36" viewBox="0 0 36 36"><defs><clipPath id="a"><circle cx="18" cy="18" r="18" transform="translate(1526 329)" fill="#fff" stroke="#707070" stroke-width="1"/></clipPath><clipPath id="b"><rect width="28.918" height="36" fill="none"/></clipPath></defs><g transform="translate(-1526 -329)" clip-path="url(#a)"><g transform="translate(977.853 -106.625)"><g transform="translate(551.146 435.625)" clip-path="url(#b)"><path d="M552.509,438.089l22.509,14.1H557.669l18.076,18.077H552.509Zm-1.363-2.463v36h27.892L560.96,453.549h18.8Z" transform="translate(-551.146 -435.625)" fill="#22368f"/><path d="M552.063,437.286v34.087h25.565l-18.076-18.078h18.076Z" transform="translate(-551.383 -436.054)" fill="#bc0030"/><path d="M558.908,455.566A5.091,5.091,0,0,0,564,450.479a5.493,5.493,0,0,1-2.286,2.692l-.436-.327.858-.642-1.038-.264h0l.547-.92-1.061.152.152-1.06-.92.548h0l-.264-1.039-.642.858-.642-.858L558,450.655l-.921-.548.154,1.06-1.061-.152.547.92h0l-1.039.264.86.642-.438.327a5.483,5.483,0,0,1-2.285-2.692,5.09,5.09,0,0,0,5.092,5.087" transform="translate(-551.835 -439.236)" fill="#fff"/><path d="M562.127,470.042h0l2.118-.9-2.118-.9,1.387-1.837-2.285.282.283-2.285-1.838,1.387h0l-.9-2.12-.9,2.12-1.837-1.387.283,2.285-2.285-.282,1.387,1.837-2.12.9,2.12.9-1.387,1.838,2.285-.283-.283,2.285,1.837-1.387.9,2.12.9-2.12h0l1.838,1.387-.283-2.285,2.285.283Z" transform="translate(-551.703 -442.864)" fill="#fff"/></g></g></g></svg>