<svg xmlns="http://www.w3.org/2000/svg" xmlns:xlink="http://www.w3.org/1999/xlink" width="36" height="36" viewBox="0 0 36 36"><defs><clipPath id="a"><circle cx="18" cy="18" r="18" transform="translate(686 423)" fill="#fff" stroke="#707070" stroke-width="1"/></clipPath><clipPath id="b"><rect width="61.713" height="36" fill="none" stroke="rgba(0,0,0,0)" stroke-width="1"/></clipPath></defs><g transform="translate(-686 -423)" clip-path="url(#a)"><g transform="translate(672.5 423)"><g transform="translate(0 0)" clip-path="url(#b)"><rect width="61.714" height="10.279" transform="translate(0 25.721)" fill="#58b44d" stroke="rgba(0,0,0,0)" stroke-width="1"/><rect width="61.714" height="15.44" transform="translate(0 10.28)" fill="#fff" stroke="rgba(0,0,0,0)" stroke-width="1"/><rect width="61.714" height="10.279" transform="translate(0 0.001)" fill="#ea0042" stroke="rgba(0,0,0,0)" stroke-width="1"/><path d="M269.57,226.175a2.147,2.147,0,0,0,2.319.271,1.627,1.627,0,0,0,2.347.387,3.14,3.14,0,0,1-2.373-1.374,1.646,1.646,0,0,1-1.879-.187l.013-2.919,1.493-1.467a2.127,2.127,0,0,0-3.841,0l1.494,1.467.012,2.919a1.647,1.647,0,0,1-1.88.187,3.134,3.134,0,0,1-2.373,1.374,1.627,1.627,0,0,0,2.347-.387,2.146,2.146,0,0,0,2.318-.271Zm0-4.328a2.237,2.237,0,0,0-1.131-.881,1.337,1.337,0,0,1,2.267,0,2.236,2.236,0,0,0-1.135.881" transform="translate(-238.76 -204.519)" fill="#cfb428" stroke="rgba(0,0,0,0)" stroke-width="1"/><path d="M270.122,230.013a3.517,3.517,0,0,0-2.693.987l-.387-.412c.346-.426.813-.574.933-1.107a.725.725,0,0,0-.146-.667,1.656,1.656,0,0,0,1.347.533,1.267,1.267,0,0,0,.947-.654m0,0a1.267,1.267,0,0,0,.947.654,1.656,1.656,0,0,0,1.347-.533.725.725,0,0,0-.146.667c.119.533.587.681.933,1.107l-.387.412a3.517,3.517,0,0,0-2.693-.987" transform="translate(-239.312 -206.847)" fill="#cfb428" stroke="rgba(0,0,0,0)" stroke-width="1"/><path d="M279.718,224.05l.261.8h.84l-.68.494.26.8-.681-.494-.68.494.26-.8-.68-.494h.84Z" transform="translate(-242.3 -205.649)" fill="#cfb428" stroke="rgba(0,0,0,0)" stroke-width="1"/><path d="M278.533,219.628l.26.8h.84l-.68.494.26.8-.68-.494-.68.494.26-.8-.68-.494h.841Z" transform="translate(-241.994 -204.507)" fill="#cfb428" stroke="rgba(0,0,0,0)" stroke-width="1"/><path d="M275.3,216.39l.26.8h.841l-.681.5.26.8-.68-.5-.68.5.26-.8-.681-.5h.841Z" transform="translate(-241.158 -203.672)" fill="#cfb428" stroke="rgba(0,0,0,0)" stroke-width="1"/><path d="M270.874,215.206l.26.8h.841l-.68.494.26.8-.68-.494-.681.494.26-.8-.68-.494h.841Z" transform="translate(-240.017 -203.366)" fill="#cfb428" stroke="rgba(0,0,0,0)" stroke-width="1"/><path d="M266.451,216.39l.26.8h.84l-.68.5.26.8-.68-.5-.68.5.26-.8-.68-.5h.841Z" transform="translate(-238.875 -203.672)" fill="#cfb428" stroke="rgba(0,0,0,0)" stroke-width="1"/><path d="M263.214,219.628l.26.8h.84l-.68.494.26.8-.68-.494-.68.494.26-.8-.681-.494h.841Z" transform="translate(-238.04 -204.507)" fill="#cfb428" stroke="rgba(0,0,0,0)" stroke-width="1"/><path d="M262.028,224.05l.26.8h.841l-.68.494.26.8-.681-.494-.68.494.26-.8-.68-.494h.841Z" transform="translate(-237.734 -205.649)" fill="#cfb428" stroke="rgba(0,0,0,0)" stroke-width="1"/></g></g></g></svg>