<svg xmlns="http://www.w3.org/2000/svg" xmlns:xlink="http://www.w3.org/1999/xlink" width="36" height="36" viewBox="0 0 36 36"><defs><clipPath id="a"><circle cx="18" cy="18" r="18" transform="translate(1285 757)" fill="#fff" stroke="#707070" stroke-width="1"/></clipPath><clipPath id="b"><rect width="61.713" height="36" fill="none"/></clipPath></defs><g transform="translate(-1285 -757)" clip-path="url(#a)"><g transform="translate(1241.921 558)"><g transform="translate(30.079 199.247)" clip-path="url(#b)"><rect width="61.714" height="35.999" transform="translate(0 0.001)" fill="#fff"/><rect width="61.714" height="12" transform="translate(0 0)" fill="#bc0030"/><path d="M84.937,218.253l.875,2.7h2.833l-2.292,1.666.876,2.694-2.292-1.665-2.292,1.665.875-2.694-2.292-1.666h2.833Z" transform="translate(-43.28 -204.152)" fill="#429e61"/><path d="M55.823,218.253l.876,2.7h2.833l-2.292,1.666.875,2.694-2.292-1.665-2.292,1.665.876-2.694-2.292-1.666h2.833Z" transform="translate(-35.766 -204.152)" fill="#429e61"/><rect width="61.714" height="12" transform="translate(0 24)"/></g></g></g></svg>