<svg xmlns="http://www.w3.org/2000/svg" xmlns:xlink="http://www.w3.org/1999/xlink" width="36" height="36" viewBox="0 0 36 36"><defs><clipPath id="a"><circle cx="18" cy="18" r="18" transform="translate(1320 522)" fill="#fff" stroke="#707070" stroke-width="1"/></clipPath><clipPath id="b"><rect width="61.713" height="36" fill="none"/></clipPath></defs><g transform="translate(-1320 -522)" clip-path="url(#a)"><g transform="translate(686.164 243.96)"><g transform="translate(628.836 278.04)" clip-path="url(#b)"><rect width="61.713" height="36" fill="#d00027"/><path d="M649.967,290.171a9,9,0,1,1-9,9,9,9,0,0,1,9-9" transform="translate(-631.967 -281.171)" fill="#fff"/><path d="M653.625,292.6a7.2,7.2,0,1,1-7.2,7.2,7.2,7.2,0,0,1,7.2-7.2" transform="translate(-633.376 -281.797)" fill="#d00027"/><path d="M663.348,302.042l4.279,1.391.7-2.14Z" transform="translate(-637.743 -284.041)" fill="#fff"/><path d="M663.348,301.819l4.279-1.391.7,2.14Z" transform="translate(-637.743 -283.818)" fill="#fff"/><path d="M667.539,296.534v4.5h2.25Z" transform="translate(-638.825 -282.813)" fill="#fff"/><path d="M667.539,296.534l2.644,3.641-1.82,1.323Z" transform="translate(-638.825 -282.813)" fill="#fff"/><path d="M667.539,306.346l2.644-3.641-1.82-1.321Z" transform="translate(-638.825 -284.065)" fill="#fff"/><path d="M667.539,306.506v-4.5h2.25Z" transform="translate(-638.825 -284.226)" fill="#fff"/><path d="M672.831,298.738l-4.281,1.39.7,2.14Z" transform="translate(-639.086 -283.382)" fill="#fff"/><path d="M672.767,298.738l-2.644,3.64-1.822-1.323Z" transform="translate(-639.022 -283.382)" fill="#fff"/><path d="M672.767,304.6l-2.644-3.64-1.822,1.323Z" transform="translate(-639.022 -283.956)" fill="#fff"/><path d="M672.831,304.639l-4.281-1.39.7-2.14Z" transform="translate(-639.086 -283.994)" fill="#fff"/></g></g></g></svg>