<svg xmlns="http://www.w3.org/2000/svg" xmlns:xlink="http://www.w3.org/1999/xlink" width="36" height="36" viewBox="0 0 36 36"><defs><clipPath id="a"><circle cx="18" cy="18" r="18" transform="translate(3297 468)" fill="#fff" stroke="#707070" stroke-width="1"/></clipPath><clipPath id="b"><rect width="61.716" height="36" fill="none"/></clipPath></defs><g transform="translate(-3297 -468)" clip-path="url(#a)"><g transform="translate(3061.335 -46.419)"><g transform="translate(229.665 514.419)" clip-path="url(#b)"><path d="M312.849,514.419" transform="translate(-251.133 -514.419)" fill="#325d37"/><path d="M233.851,551.049h58.61V516.86Z" transform="translate(-230.745 -515.049)" fill="#325d37"/><path d="M229.665,514.419v34.189l58.61-34.189Z" transform="translate(-229.665 -514.419)" fill="#2d4db6"/><path d="M312.849,514.419" transform="translate(-251.133 -514.419)" fill="#2d4db6"/><path d="M229.665,550.419h3.106l58.61-34.189v-1.811Z" transform="translate(-229.665 -514.419)" fill="#f3d02f"/><path d="M288.275,514.419l-58.61,34.189v1.811l61.716-36Z" transform="translate(-229.665 -514.419)" fill="#f3d02f"/><path d="M243.89,525.225l-.953,2.934,1.468.477Z" transform="translate(-233.09 -517.208)" fill="#fff"/><path d="M244.043,525.225,245,528.16l-1.466.477Z" transform="translate(-233.243 -517.208)" fill="#fff"/><path d="M247.1,528.1h-3.085v1.543Z" transform="translate(-233.369 -517.949)" fill="#fff"/><path d="M246.993,528.1l-2.5,1.814-.907-1.249Z" transform="translate(-233.259 -517.949)" fill="#fff"/><path d="M240.267,528.1l2.5,1.814.907-1.249Z" transform="translate(-232.401 -517.949)" fill="#fff"/><path d="M240.267,528.1h3.085v1.543Z" transform="translate(-232.401 -517.949)" fill="#fff"/><path d="M245.825,531.728l-.953-2.934-1.468.476Z" transform="translate(-233.211 -518.129)" fill="#fff"/><path d="M245.8,531.684l-2.5-1.814.907-1.248Z" transform="translate(-233.184 -518.084)" fill="#fff"/><path d="M241.778,531.684l2.5-1.814-.905-1.248Z" transform="translate(-232.791 -518.084)" fill="#fff"/><path d="M241.778,531.728l.953-2.934,1.467.476Z" transform="translate(-232.791 -518.129)" fill="#fff"/><path d="M251.537,532.872l-.953,2.934,1.467.477Z" transform="translate(-235.064 -519.181)" fill="#fff"/><path d="M251.69,532.872l.953,2.934-1.466.477Z" transform="translate(-235.217 -519.181)" fill="#fff"/><path d="M254.752,535.745h-3.086v1.543Z" transform="translate(-235.343 -519.923)" fill="#fff"/><path d="M254.641,535.745l-2.5,1.814-.907-1.249Z" transform="translate(-235.232 -519.923)" fill="#fff"/><path d="M247.913,535.745l2.5,1.814.907-1.249Z" transform="translate(-234.375 -519.923)" fill="#fff"/><path d="M247.913,535.745H251v1.543Z" transform="translate(-234.375 -519.923)" fill="#fff"/><path d="M253.471,539.375l-.953-2.934-1.468.476Z" transform="translate(-235.184 -520.102)" fill="#fff"/><path d="M253.445,539.33l-2.5-1.814.907-1.248Z" transform="translate(-235.158 -520.058)" fill="#fff"/><path d="M249.425,539.33l2.5-1.814-.907-1.248Z" transform="translate(-234.765 -520.058)" fill="#fff"/><path d="M249.425,539.375l.953-2.934,1.467.476Z" transform="translate(-234.765 -520.102)" fill="#fff"/><path d="M236.244,532.872l-.953,2.934,1.468.477Z" transform="translate(-231.117 -519.181)" fill="#fff"/><path d="M236.4,532.872l.953,2.934-1.466.477Z" transform="translate(-231.27 -519.181)" fill="#fff"/><path d="M239.457,535.745h-3.085v1.543Z" transform="translate(-231.396 -519.923)" fill="#fff"/><path d="M239.347,535.745l-2.5,1.814-.907-1.249Z" transform="translate(-231.286 -519.923)" fill="#fff"/><path d="M232.62,535.745l2.5,1.814.907-1.249Z" transform="translate(-230.428 -519.923)" fill="#fff"/><path d="M232.62,535.745H235.7v1.543Z" transform="translate(-230.428 -519.923)" fill="#fff"/><path d="M238.178,539.375l-.953-2.934-1.468.476Z" transform="translate(-231.237 -520.102)" fill="#fff"/><path d="M238.152,539.33l-2.5-1.814.907-1.248Z" transform="translate(-231.211 -520.058)" fill="#fff"/><path d="M234.132,539.33l2.5-1.814-.907-1.248Z" transform="translate(-230.818 -520.058)" fill="#fff"/><path d="M234.132,539.375l.953-2.934,1.467.476Z" transform="translate(-230.818 -520.102)" fill="#fff"/><path d="M236.244,517.579l-.953,2.934,1.468.477Z" transform="translate(-231.117 -515.234)" fill="#fff"/><path d="M236.4,517.579l.953,2.934-1.466.477Z" transform="translate(-231.27 -515.234)" fill="#fff"/><path d="M239.457,520.452h-3.085V522Z" transform="translate(-231.396 -515.976)" fill="#fff"/><path d="M239.347,520.452l-2.5,1.814-.907-1.249Z" transform="translate(-231.286 -515.976)" fill="#fff"/><path d="M232.62,520.452l2.5,1.814.907-1.249Z" transform="translate(-230.428 -515.976)" fill="#fff"/><path d="M232.62,520.452H235.7V522Z" transform="translate(-230.428 -515.976)" fill="#fff"/><path d="M238.178,524.082l-.953-2.934-1.468.476Z" transform="translate(-231.237 -516.155)" fill="#fff"/><path d="M238.152,524.037l-2.5-1.814.907-1.248Z" transform="translate(-231.211 -516.111)" fill="#fff"/><path d="M234.132,524.037l2.5-1.814-.907-1.248Z" transform="translate(-230.818 -516.111)" fill="#fff"/><path d="M234.132,524.082l.953-2.934,1.467.476Z" transform="translate(-230.818 -516.155)" fill="#fff"/><path d="M251.537,517.579l-.953,2.934,1.467.477Z" transform="translate(-235.064 -515.234)" fill="#fff"/><path d="M251.69,517.579l.953,2.934-1.466.477Z" transform="translate(-235.217 -515.234)" fill="#fff"/><path d="M254.752,520.452h-3.086V522Z" transform="translate(-235.343 -515.976)" fill="#fff"/><path d="M254.641,520.452l-2.5,1.814-.907-1.249Z" transform="translate(-235.232 -515.976)" fill="#fff"/><path d="M247.913,520.452l2.5,1.814.907-1.249Z" transform="translate(-234.375 -515.976)" fill="#fff"/><path d="M247.913,520.452H251V522Z" transform="translate(-234.375 -515.976)" fill="#fff"/><path d="M253.471,524.082l-.953-2.934-1.468.476Z" transform="translate(-235.184 -516.155)" fill="#fff"/><path d="M253.445,524.037l-2.5-1.814.907-1.248Z" transform="translate(-235.158 -516.111)" fill="#fff"/><path d="M249.425,524.037l2.5-1.814-.907-1.248Z" transform="translate(-234.765 -516.111)" fill="#fff"/><path d="M249.425,524.082l.953-2.934,1.467.476Z" transform="translate(-234.765 -516.155)" fill="#fff"/></g></g></g></svg>