<svg xmlns="http://www.w3.org/2000/svg" xmlns:xlink="http://www.w3.org/1999/xlink" width="36" height="36" viewBox="0 0 36 36"><defs><clipPath id="a"><circle cx="18" cy="18" r="18" transform="translate(2663 731)" fill="#fff" stroke="#707070" stroke-width="1"/></clipPath><clipPath id="b"><rect width="61.714" height="36" fill="none"/></clipPath></defs><g transform="translate(-2663 -731)" clip-path="url(#a)"><g transform="translate(2229.751 452.96)"><g transform="translate(429.249 278.04)" clip-path="url(#b)"><rect width="61.714" height="36" fill="#2f3c85"/><path d="M429.249,307.009h0Zm0-14.435h0Z" transform="translate(-429.249 -281.791)" fill="#292c2f"/><path d="M429.249,309.353h61.714v-7.189H429.249Zm0-14.436h61.714V287.73H429.249Z" transform="translate(-429.249 -280.541)" fill="#fff"/><path d="M429.249,278.04v36l31.122-17.971Z" transform="translate(-429.249 -278.04)" fill="#d80031"/><path d="M442.612,294.215l-1.859,5.681,2.846.927Z" transform="translate(-432.218 -282.215)" fill="#fff" fill-rule="evenodd"/><path d="M442.9,294.215l1.8,5.681-2.844.927Z" transform="translate(-432.501 -282.215)" fill="#fff" fill-rule="evenodd"/><path d="M448.848,299.842h-5.982V302.8Z" transform="translate(-432.763 -283.667)" fill="#fff" fill-rule="evenodd"/><path d="M448.626,299.842l-4.877,3.477-1.742-2.376Z" transform="translate(-432.542 -283.667)" fill="#fff" fill-rule="evenodd"/><path d="M435.511,299.842l4.877,3.477,1.742-2.376Z" transform="translate(-430.865 -283.667)" fill="#fff" fill-rule="evenodd"/><path d="M435.511,299.842h6.038V302.8Z" transform="translate(-430.865 -283.667)" fill="#fff" fill-rule="evenodd"/><path d="M446.318,306.85l-1.858-5.68-2.846.927Z" transform="translate(-432.44 -284.01)" fill="#fff" fill-rule="evenodd"/><path d="M446.277,306.769l-4.819-3.536,1.742-2.376Z" transform="translate(-432.4 -283.929)" fill="#fff" fill-rule="evenodd"/><path d="M438.485,306.769l4.818-3.536-1.742-2.376Z" transform="translate(-431.633 -283.929)" fill="#fff" fill-rule="evenodd"/><path d="M438.485,306.85l1.858-5.68,2.844.927Z" transform="translate(-431.633 -284.01)" fill="#fff" fill-rule="evenodd"/></g></g></g></svg>