<svg xmlns="http://www.w3.org/2000/svg" xmlns:xlink="http://www.w3.org/1999/xlink" width="36" height="36" viewBox="0 0 36 36"><defs><clipPath id="a"><circle cx="18" cy="18" r="18" transform="translate(598 284)" fill="#fff" stroke="#707070" stroke-width="1"/></clipPath><clipPath id="b"><rect width="61.715" height="36" fill="none"/></clipPath></defs><g transform="translate(-598 -284)" clip-path="url(#a)"><g transform="translate(155.749 6.187)"><g transform="translate(429.251 277.813)" clip-path="url(#b)"><rect width="61.716" height="35.999" transform="translate(0 0.001)" fill="#438fc3"/><rect width="61.716" height="12.001" transform="translate(0 11.999)" fill="#d6003f"/><rect width="61.716" height="12" transform="translate(0 24)" fill="#48ae68"/><path d="M470.272,304.522a4.2,4.2,0,1,1,2.279-7.729,5.041,5.041,0,1,0,0,7.056,4.173,4.173,0,0,1-2.279.674" transform="translate(-438.196 -282.321)" fill="#fff"/><path d="M478.547,303.047l-1.376-.628-.533,1.416-.531-1.416-1.377.622.625-1.377-1.416-.53,1.416-.532-.622-1.377,1.377.624.533-1.413.53,1.416,1.377-.625-.625,1.376,1.414.535-1.414.532Z" transform="translate(-440.783 -283.135)" fill="#fff"/></g></g></g></svg>