<svg xmlns="http://www.w3.org/2000/svg" xmlns:xlink="http://www.w3.org/1999/xlink" width="36" height="36" viewBox="0 0 36 36"><defs><clipPath id="a"><circle cx="18" cy="18" r="18" transform="translate(2449 414)" fill="#fff" stroke="#707070" stroke-width="1"/></clipPath><clipPath id="b"><rect width="61.716" height="36" fill="none"/></clipPath></defs><g transform="translate(-2449 -414)" clip-path="url(#a)"><g transform="translate(2006.751 -100.419)"><g transform="translate(429.249 514.419)" clip-path="url(#b)"><path d="M487.835,514.419H435.716l26.06,15.2Z" transform="translate(-430.918 -514.419)" fill="#bc0030"/><path d="M435.716,557.654h52.12l-26.06-15.2Z" transform="translate(-430.918 -521.654)" fill="#bc0030"/><path d="M503.367,548.594v-30.4l-26.06,15.2Z" transform="translate(-441.652 -515.392)" fill="#50b63f"/><path d="M429.249,548.594l26.06-15.2-26.06-15.2Z" transform="translate(-429.249 -515.392)" fill="#50b63f"/><path d="M490.965,514.419h-4.8l-18.587,10.842a10.7,10.7,0,0,0-14.944,0l-18.588-10.842h-4.8v2.8l20.842,12.158a9.978,9.978,0,0,0,0,6.087L429.249,547.62v2.8h4.8l18.588-10.842a10.7,10.7,0,0,0,14.944,0l18.588,10.842h4.8v-2.8l-20.842-12.158a9.978,9.978,0,0,0,0-6.087l20.842-12.158Z" transform="translate(-429.249 -514.419)" fill="#fff"/><path d="M470.81,529.529l-.693-1.2-.692,1.2h-1.386l.692,1.2-.692,1.2h1.386l.692,1.2.693-1.2H472.2l-.693-1.2.693-1.2Z" transform="translate(-439.26 -518.009)" fill="#50b63f"/><path d="M477.667,541.4l.693-1.2h-1.387l-.692-1.2-.693,1.2H474.2l.694,1.2-.694,1.2h1.386l.693,1.2.692-1.2h1.387Z" transform="translate(-440.851 -520.764)" fill="#50b63f"/><path d="M464.647,540.2l-.694-1.2-.692,1.2h-1.385l.692,1.2-.692,1.2h1.385l.692,1.2.694-1.2h1.385l-.692-1.2.692-1.2Z" transform="translate(-437.67 -520.764)" fill="#50b63f"/><path d="M470.816,529.895l-.568-.984-.568.984h-1.137l.568.984-.568.984h1.137l.568.984.568-.984h1.136l-.568-.984.568-.984Z" transform="translate(-439.39 -518.159)" fill="#bc0030"/><path d="M477.547,541.555l.568-.984h-1.137l-.568-.984-.568.984h-1.136l.568.984-.568.984h1.136l.568.984.568-.984h1.137Z" transform="translate(-440.981 -520.914)" fill="#bc0030"/><path d="M464.653,540.571l-.569-.984-.568.984H462.38l.568.984-.568.984h1.136l.568.984.569-.984h1.136l-.568-.984.568-.984Z" transform="translate(-437.8 -520.914)" fill="#bc0030"/></g></g></g></svg>