<svg xmlns="http://www.w3.org/2000/svg" xmlns:xlink="http://www.w3.org/1999/xlink" width="36" height="36" viewBox="0 0 36 36"><defs><clipPath id="a"><circle cx="18" cy="18" r="18" transform="translate(3103 375)" fill="#fff" stroke="#707070" stroke-width="1"/></clipPath><clipPath id="b"><rect width="61.717" height="36" fill="none"/></clipPath></defs><g transform="translate(-3103 -375)" clip-path="url(#a)"><g transform="translate(2461.168 176.529)"><g transform="translate(628.831 198.471)" clip-path="url(#b)"><rect width="61.717" height="36" transform="translate(0 -0.001)" fill="#fff"/><rect width="61.717" height="7.826" transform="translate(0 14.085)" fill="#386fc2"/><rect width="61.717" height="14.085"/><path d="M690.548,198.47l-30.858,36-30.859-36v36h61.717Z" transform="translate(-628.831 -198.471)" fill="#bc0030"/><path d="M672.211,212.205l4.975-3.324-5.869,1.166,3.324-4.977-4.976,3.326,1.169-5.871-3.328,4.977-1.168-5.869-1.166,5.869-3.327-4.977,1.168,5.871-4.976-3.326,3.324,4.977-5.868-1.166,4.975,3.324-5.869,1.166h23.477Z" transform="translate(-635.482 -199.287)" fill="#f3d02f"/></g></g></g></svg>