<svg xmlns="http://www.w3.org/2000/svg" xmlns:xlink="http://www.w3.org/1999/xlink" width="36" height="36" viewBox="0 0 36 36"><defs><clipPath id="a"><circle cx="18" cy="18" r="18" transform="translate(2055 309)" fill="#fff" stroke="#707070" stroke-width="1"/></clipPath><clipPath id="b"><rect width="61.714" height="36" fill="none"/></clipPath></defs><g transform="translate(-2055 -309)" clip-path="url(#a)"><g transform="translate(1313.372 -47.834)"><g transform="translate(728.628 356.834)" clip-path="url(#b)"><rect width="61.714" height="36" fill="#b01f35"/><path d="M764.145,377.209l-7.945.007,9.045,6.9,1.357-1.036-5.484-4.189,2.507-.007Z" transform="translate(-735.744 -362.092)" fill="#296437"/><path d="M771.477,374.45l-2.462-7.943-3.452,11.178,1.356,1.036,2.1-6.777.78,2.5Z" transform="translate(-738.16 -359.33)" fill="#296437"/><path d="M773.745,382.127l6.423-4.917-11.178,0-.519,1.676h6.777l-2.022,1.554Z" transform="translate(-738.911 -362.093)" fill="#296437"/><path d="M770.218,385.747l6.431,4.9-3.456-11.175h-1.677l2.094,6.777-2.031-1.542Z" transform="translate(-739.362 -362.677)" fill="#296437"/><path d="M764.007,383.609l-2.448,7.947,9.041-6.911-.518-1.676-5.483,4.188.768-2.508Z" transform="translate(-737.127 -363.579)" fill="#296437"/></g></g></g></svg>