<svg xmlns="http://www.w3.org/2000/svg" xmlns:xlink="http://www.w3.org/1999/xlink" width="36" height="36" viewBox="0 0 36 36"><defs><clipPath id="a"><circle cx="18" cy="18" r="18" transform="translate(1260 657)" fill="#fff" stroke="#707070" stroke-width="1"/></clipPath><clipPath id="b"><rect width="61.713" height="36" fill="none"/></clipPath></defs><g transform="translate(-1260 -657)" clip-path="url(#a)"><g transform="translate(618.164 378.96)"><g transform="translate(628.836 278.04)" clip-path="url(#b)"><rect width="61.713" height="36" fill="#fff"/><rect width="61.713" height="12.027" fill="#49a044"/><rect width="61.713" height="12.027" transform="translate(0 23.973)" fill="#c7001b"/><path d="M670.2,296.457l-.654.532.123,8.51.531.613.533-.613.122-8.51Z" transform="translate(-639.343 -282.793)" fill="#c7001b"/><path d="M671.271,295.244a.9.9,0,0,1-1.239.294c-.023-.015-.048-.031-.07-.048a.9.9,0,0,1-1.262-.175c-.016-.023-.033-.047-.047-.07a1.31,1.31,0,1,0,2.618,0" transform="translate(-639.106 -282.48)" fill="#c7001b"/><path d="M670.925,296.843a5.319,5.319,0,0,1-4.909,8.428,4.93,4.93,0,0,0,4.909-8.428" transform="translate(-638.432 -282.893)" fill="#c7001b"/><path d="M667.577,296.843a5.319,5.319,0,0,0,4.909,8.428,4.93,4.93,0,0,1-4.909-8.428" transform="translate(-638.357 -282.893)" fill="#c7001b"/><path d="M673.459,296.622a5.318,5.318,0,0,1,1.172,7.429c-.085.119-.177.234-.272.344a4.214,4.214,0,0,0-.9-7.773" transform="translate(-640.353 -282.836)" fill="#c7001b"/><path d="M666.312,296.622a5.318,5.318,0,0,0-1.172,7.429c.085.119.177.234.272.344a4.214,4.214,0,0,1,.9-7.773" transform="translate(-637.706 -282.836)" fill="#c7001b"/><path d="M629.023,292.982h.281v-.572h.842v.572h1.4v-.859h-.841v.287h.56v.286h-.841v-.573h-1.4Zm.562,0h.28V292.7h-.28Zm-.562-1.146h3.648v-.286h-3.648Zm3.648,1.146h-.842v-.859h1.122v-.573h.28V292.7h.281V291.55h.28V292.7h.282V291.55h.28v1.432h-1.4v-.572h-.842v.286h.562Z" transform="translate(-628.884 -281.527)" fill="#fff"/><path d="M636.586,292.982h.281v-.572h.841v.572h1.4v-.859h-.84v.287h.56v.286h-.841v-.573h-1.4Zm.561,0h.281V292.7h-.281Zm-.561-1.146h3.647v-.286h-3.647Zm3.647,1.146h-.842v-.859h1.122v-.573h.281V292.7h.281V291.55h.28V292.7h.281V291.55h.28v1.432h-1.4v-.572h-.841v.286h.561Z" transform="translate(-630.836 -281.527)" fill="#fff"/><path d="M644.148,292.982h.281v-.572h.841v.572h1.4v-.859h-.84v.287h.56v.286h-.841v-.573h-1.4Zm.561,0h.282V292.7h-.282Zm-.561-1.146H647.8v-.286h-3.648Zm3.648,1.146h-.842v-.859h1.121v-.573h.281V292.7h.28V291.55h.28V292.7h.282V291.55h.279v1.432h-1.4v-.572h-.842v.286h.563Z" transform="translate(-632.788 -281.527)" fill="#fff"/><path d="M651.711,292.982h.28v-.572h.842v.572h1.4v-.859h-.841v.287h.562v.286h-.841v-.573h-1.4Zm.561,0h.281V292.7h-.281Zm-.561-1.146h3.646v-.286h-3.646Zm3.646,1.146h-.841v-.859h1.122v-.573h.281V292.7h.28V291.55h.281V292.7h.28V291.55h.281v1.432h-1.4v-.572H654.8v.286h.561Z" transform="translate(-634.74 -281.527)" fill="#fff"/><path d="M659.273,292.982h.28v-.572h.842v.572h1.4v-.859h-.841v.287h.56v.286h-.84v-.573h-1.4Zm.561,0h.28V292.7h-.28Zm-.561-1.146h3.646v-.286h-3.646Zm3.646,1.146h-.843v-.859H663.2v-.573h.28V292.7h.281V291.55h.281V292.7h.28V291.55h.281v1.432h-1.4v-.572h-.842v.286h.562Z" transform="translate(-636.692 -281.527)" fill="#fff"/><path d="M666.834,292.982h.281v-.572h.842v.572h1.4v-.859h-.841v.287h.56v.286h-.841v-.573h-1.4Zm.562,0h.28V292.7h-.28Zm-.562-1.146h3.647v-.286h-3.647Zm3.647,1.146h-.842v-.859h1.123v-.573h.28V292.7h.281V291.55h.28V292.7h.281V291.55h.281v1.432h-1.4v-.572h-.842v.286h.561Z" transform="translate(-638.643 -281.527)" fill="#fff"/><path d="M674.4,292.982h.281v-.572h.842v.572h1.4v-.859h-.84v.287h.56v.286H675.8v-.573h-1.4Zm.561,0h.281V292.7h-.281Zm-.561-1.146h3.648v-.286H674.4Zm3.648,1.146H677.2v-.859h1.122v-.573h.281V292.7h.281V291.55h.28V292.7h.281V291.55h.28v1.432h-1.4v-.572h-.841v.286h.562Z" transform="translate(-640.595 -281.527)" fill="#fff"/><path d="M681.959,292.982h.281v-.572h.841v.572h1.4v-.859h-.84v.287h.56v.286h-.841v-.573h-1.4Zm.561,0h.281V292.7h-.281Zm-.561-1.146h3.647v-.286h-3.647Zm3.647,1.146h-.842v-.859h1.122v-.573h.281V292.7h.28V291.55h.281V292.7h.281V291.55h.28v1.432h-1.4v-.572h-.842v.286h.562Z" transform="translate(-642.547 -281.527)" fill="#fff"/><path d="M689.521,292.982h.28v-.572h.842v.572h1.4v-.859H691.2v.287h.562v.286h-.841v-.573h-1.4Zm.561,0h.281V292.7h-.281Zm-.561-1.146h3.646v-.286h-3.646Zm3.646,1.146h-.841v-.859h1.122v-.573h.281V292.7h.28V291.55h.281V292.7h.28V291.55h.281v1.432h-1.4v-.572h-.842v.286h.561Z" transform="translate(-644.499 -281.527)" fill="#fff"/><path d="M697.084,292.982h.28v-.572h.842v.572h1.4v-.859h-.841v.287h.56v.286h-.84v-.573h-1.4Zm.561,0h.28V292.7h-.28Zm-.561-1.146h3.646v-.286h-3.646Zm3.646,1.146h-.842v-.859h1.123v-.573h.28V292.7h.281V291.55h.281V292.7h.28V291.55h.281v1.432h-1.4v-.572h-.842v.286h.561Z" transform="translate(-646.451 -281.527)" fill="#fff"/><path d="M704.644,292.982h.281v-.572h.842v.572h1.4v-.859h-.841v.287h.56v.286h-.841v-.573h-1.4Zm.562,0h.28V292.7h-.28Zm-.562-1.146h3.647v-.286h-3.647Zm3.647,1.146h-.842v-.859h1.123v-.573h.28V292.7h.281V291.55h.28V292.7h.281V291.55h.281v1.432h-1.4v-.572h-.842v.286h.561Z" transform="translate(-648.402 -281.527)" fill="#fff"/><path d="M629.023,294.439h2.525v-.573h-2.525Zm2.806,0h2.525v-.573h-2.525Z" transform="translate(-628.884 -282.125)" fill="#fff"/><path d="M636.586,294.439h2.525v-.573h-2.525Zm2.805,0h2.524v-.573h-2.524Z" transform="translate(-630.836 -282.125)" fill="#fff"/><path d="M644.148,294.439h2.524v-.573h-2.524Zm2.806,0h2.524v-.573h-2.524Z" transform="translate(-632.788 -282.125)" fill="#fff"/><path d="M651.711,294.439h2.524v-.573h-2.524Zm2.805,0h2.524v-.573h-2.524Z" transform="translate(-634.74 -282.125)" fill="#fff"/><path d="M659.273,294.439H661.8v-.573h-2.524Zm2.8,0H664.6v-.573h-2.525Z" transform="translate(-636.692 -282.125)" fill="#fff"/><path d="M666.834,294.439h2.525v-.573h-2.525Zm2.805,0h2.525v-.573h-2.525Z" transform="translate(-638.643 -282.125)" fill="#fff"/><path d="M674.4,294.439h2.524v-.573H674.4Zm2.806,0h2.524v-.573H677.2Z" transform="translate(-640.595 -282.125)" fill="#fff"/><path d="M681.959,294.439h2.524v-.573h-2.524Zm2.805,0h2.524v-.573h-2.524Z" transform="translate(-642.547 -282.125)" fill="#fff"/><path d="M689.521,294.439h2.524v-.573h-2.524Zm2.806,0h2.524v-.573h-2.524Z" transform="translate(-644.499 -282.125)" fill="#fff"/><path d="M697.084,294.439h2.524v-.573h-2.524Zm2.8,0h2.526v-.573h-2.526Z" transform="translate(-646.451 -282.125)" fill="#fff"/><path d="M704.645,294.439h2.525v-.573h-2.525Zm2.805,0h2.525v-.573H707.45Z" transform="translate(-648.402 -282.125)" fill="#fff"/><path d="M629.023,312.557h.281v-.573h.842v.573h1.4V311.7h-.841v.286h.56v.286h-.841V311.7h-1.4Zm.562,0h.28v-.286h-.28Zm-.562-1.146h3.648v-.287h-3.648Zm3.648,1.146h-.842V311.7h1.122v-.573h.28v1.146h.281v-1.146h.28v1.146h.282v-1.146h.28v1.433h-1.4v-.573h-.842v.286h.562Z" transform="translate(-628.884 -286.579)" fill="#fff"/><path d="M636.586,312.557h.281v-.573h.841v.573h1.4V311.7h-.84v.286h.56v.286h-.841V311.7h-1.4Zm.561,0h.281v-.286h-.281Zm-.561-1.146h3.647v-.287h-3.647Zm3.647,1.146h-.842V311.7h1.122v-.573h.281v1.146h.281v-1.146h.28v1.146h.281v-1.146h.28v1.433h-1.4v-.573h-.841v.286h.561Z" transform="translate(-630.836 -286.579)" fill="#fff"/><path d="M644.148,312.557h.281v-.573h.841v.573h1.4V311.7h-.84v.286h.56v.286h-.841V311.7h-1.4Zm.561,0h.282v-.286h-.282Zm-.561-1.146H647.8v-.287h-3.648Zm3.648,1.146h-.842V311.7h1.121v-.573h.281v1.146h.28v-1.146h.28v1.146h.282v-1.146h.279v1.433h-1.4v-.573h-.842v.286h.563Z" transform="translate(-632.788 -286.579)" fill="#fff"/><path d="M651.711,312.557h.28v-.573h.842v.573h1.4V311.7h-.841v.286h.562v.286h-.841V311.7h-1.4Zm.561,0h.281v-.286h-.281Zm-.561-1.146h3.646v-.287h-3.646Zm3.646,1.146h-.841V311.7h1.122v-.573h.281v1.146h.28v-1.146h.281v1.146h.28v-1.146h.281v1.433h-1.4v-.573H654.8v.286h.561Z" transform="translate(-634.74 -286.579)" fill="#fff"/><path d="M659.273,312.557h.28v-.573h.842v.573h1.4V311.7h-.841v.286h.56v.286h-.84V311.7h-1.4Zm.561,0h.28v-.286h-.28Zm-.561-1.146h3.646v-.287h-3.646Zm3.646,1.146h-.843V311.7H663.2v-.573h.28v1.146h.281v-1.146h.281v1.146h.28v-1.146h.281v1.433h-1.4v-.573h-.842v.286h.562Z" transform="translate(-636.692 -286.579)" fill="#fff"/><path d="M666.834,312.557h.281v-.573h.842v.573h1.4V311.7h-.841v.286h.56v.286h-.841V311.7h-1.4Zm.562,0h.28v-.286h-.28Zm-.562-1.146h3.647v-.287h-3.647Zm3.647,1.146h-.842V311.7h1.123v-.573h.28v1.146h.281v-1.146h.28v1.146h.281v-1.146h.281v1.433h-1.4v-.573h-.842v.286h.561Z" transform="translate(-638.643 -286.579)" fill="#fff"/><path d="M674.4,312.557h.281v-.573h.842v.573h1.4V311.7h-.84v.286h.56v.286H675.8V311.7h-1.4Zm.561,0h.281v-.286h-.281Zm-.561-1.146h3.648v-.287H674.4Zm3.648,1.146H677.2V311.7h1.122v-.573h.281v1.146h.281v-1.146h.28v1.146h.281v-1.146h.28v1.433h-1.4v-.573h-.841v.286h.562Z" transform="translate(-640.595 -286.579)" fill="#fff"/><path d="M681.959,312.557h.281v-.573h.841v.573h1.4V311.7h-.84v.286h.56v.286h-.841V311.7h-1.4Zm.561,0h.281v-.286h-.281Zm-.561-1.146h3.647v-.287h-3.647Zm3.647,1.146h-.842V311.7h1.122v-.573h.281v1.146h.28v-1.146h.281v1.146h.281v-1.146h.28v1.433h-1.4v-.573h-.842v.286h.562Z" transform="translate(-642.547 -286.579)" fill="#fff"/><path d="M689.521,312.557h.28v-.573h.842v.573h1.4V311.7H691.2v.286h.562v.286h-.841V311.7h-1.4Zm.561,0h.281v-.286h-.281Zm-.561-1.146h3.646v-.287h-3.646Zm3.646,1.146h-.841V311.7h1.122v-.573h.281v1.146h.28v-1.146h.281v1.146h.28v-1.146h.281v1.433h-1.4v-.573h-.842v.286h.561Z" transform="translate(-644.499 -286.579)" fill="#fff"/><path d="M697.084,312.557h.28v-.573h.842v.573h1.4V311.7h-.841v.286h.56v.286h-.84V311.7h-1.4Zm.561,0h.28v-.286h-.28Zm-.561-1.146h3.646v-.287h-3.646Zm3.646,1.146h-.842V311.7h1.123v-.573h.28v1.146h.281v-1.146h.281v1.146h.28v-1.146h.281v1.433h-1.4v-.573h-.842v.286h.561Z" transform="translate(-646.451 -286.579)" fill="#fff"/><path d="M704.644,312.557h.281v-.573h.842v.573h1.4V311.7h-.841v.286h.56v.286h-.841V311.7h-1.4Zm.562,0h.28v-.286h-.28Zm-.562-1.146h3.647v-.287h-3.647Zm3.647,1.146h-.842V311.7h1.123v-.573h.28v1.146h.281v-1.146h.28v1.146h.281v-1.146h.281v1.433h-1.4v-.573h-.842v.286h.561Z" transform="translate(-648.402 -286.579)" fill="#fff"/><path d="M629.023,310.539h2.525v-.572h-2.525Zm2.806,0h2.525v-.572h-2.525Z" transform="translate(-628.884 -286.28)" fill="#fff"/><path d="M636.586,310.539h2.525v-.572h-2.525Zm2.805,0h2.524v-.572h-2.524Z" transform="translate(-630.836 -286.28)" fill="#fff"/><path d="M644.148,310.539h2.524v-.572h-2.524Zm2.806,0h2.524v-.572h-2.524Z" transform="translate(-632.788 -286.28)" fill="#fff"/><path d="M651.711,310.539h2.524v-.572h-2.524Zm2.805,0h2.524v-.572h-2.524Z" transform="translate(-634.74 -286.28)" fill="#fff"/><path d="M659.273,310.539H661.8v-.572h-2.524Zm2.8,0H664.6v-.572h-2.525Z" transform="translate(-636.692 -286.28)" fill="#fff"/><path d="M666.834,310.539h2.525v-.572h-2.525Zm2.805,0h2.525v-.572h-2.525Z" transform="translate(-638.643 -286.28)" fill="#fff"/><path d="M674.4,310.539h2.524v-.572H674.4Zm2.806,0h2.524v-.572H677.2Z" transform="translate(-640.595 -286.28)" fill="#fff"/><path d="M681.959,310.539h2.524v-.572h-2.524Zm2.805,0h2.524v-.572h-2.524Z" transform="translate(-642.547 -286.28)" fill="#fff"/><path d="M689.521,310.539h2.524v-.572h-2.524Zm2.806,0h2.524v-.572h-2.524Z" transform="translate(-644.499 -286.28)" fill="#fff"/><path d="M697.084,310.539h2.524v-.572h-2.524Zm2.8,0h2.526v-.572h-2.526Z" transform="translate(-646.451 -286.28)" fill="#fff"/><path d="M704.645,310.539h2.525v-.572h-2.525Zm2.805,0h2.525v-.572H707.45Z" transform="translate(-648.402 -286.28)" fill="#fff"/></g></g></g></svg>