<svg xmlns="http://www.w3.org/2000/svg" xmlns:xlink="http://www.w3.org/1999/xlink" width="36" height="36" viewBox="0 0 36 36"><defs><clipPath id="a"><circle cx="18" cy="18" r="18" transform="translate(2773 394)" fill="#fff" stroke="#707070" stroke-width="1"/></clipPath><clipPath id="b"><rect width="61.715" height="36" fill="none"/></clipPath></defs><g transform="translate(-2773 -394)" clip-path="url(#a)"><g transform="translate(2437.543 -41.625)"><g transform="translate(329.457 435.625)" clip-path="url(#b)"><path d="M329.457,435.626v36l61.715-36Z" transform="translate(-329.457 -435.625)" fill="#1f357e"/><path d="M391.172,435.626l-61.715,36h61.715Z" transform="translate(-329.457 -435.625)" fill="#3d9546"/><rect width="71.447" height="12.829" transform="translate(-3.232 30.46) rotate(-30.257)" fill="#fff"/><rect width="71.447" height="9.621" transform="matrix(0.864, -0.504, 0.504, 0.864, -2.424, 31.845)" fill="#c0003b"/><path d="M350.121,449.883l-2.65-.455.455,2.65-2.069-1.718-.932,2.522-.932-2.522-2.068,1.718.455-2.65-2.652.455,1.72-2.069-2.523-.932,2.523-.932-1.72-2.068,2.652.455-.455-2.652,2.068,1.72.932-2.523.932,2.523,2.069-1.72-.455,2.652,2.65-.455-1.718,2.068,2.522.932-2.522.932Z" transform="translate(-331.901 -436.982)" fill="#f5cd28"/><path d="M349.36,447.717a3.6,3.6,0,1,1-3.6-3.6,3.6,3.6,0,0,1,3.6,3.6" transform="translate(-332.736 -437.817)" fill="#1f357e"/><path d="M348.969,447.925a3,3,0,1,1-3-3,3,3,0,0,1,3,3" transform="translate(-332.944 -438.026)" fill="#f5cd28"/></g></g></g></svg>