<svg xmlns="http://www.w3.org/2000/svg" xmlns:xlink="http://www.w3.org/1999/xlink" width="36" height="36" viewBox="0 0 36 36"><defs><clipPath id="a"><circle cx="18" cy="18" r="18" transform="translate(2946 568)" fill="#fff" stroke="#707070" stroke-width="1"/></clipPath><clipPath id="b"><rect width="61.714" height="36" fill="none"/></clipPath></defs><g transform="translate(-2946 -568)" clip-path="url(#a)"><g transform="translate(2703.335 211.166)"><g transform="translate(229.665 356.834)" clip-path="url(#b)"><rect width="61.715" height="36" fill="#2d6c41"/><rect width="61.715" height="3" transform="translate(0 19.5)" fill="#fff"/><rect width="61.715" height="3" transform="translate(0 16.5)"/><rect width="61.715" height="3" transform="translate(0 13.5)" fill="#f3d02f"/><rect width="3" height="36" transform="translate(26.357)" fill="#f3d02f"/><rect width="3" height="36" transform="translate(29.357)"/><rect width="3" height="36" transform="translate(32.357)" fill="#fff"/><path d="M277.126,377.964a9,9,0,1,1-9-9,9,9,0,0,1,9,9" transform="translate(-237.268 -359.965)" fill="#c20038"/><path d="M270.57,371.233c0-.013.289-.823.289-.823l.263.809s.879.027.879.013-.7.532-.7.532.329.929.315.9-.761-.558-.761-.558-.761.53-.748.53.289-.875.289-.875l-.683-.518Z" transform="translate(-240.002 -360.338)" fill="#2d6c41"/><path d="M271.609,372.723l-.02-.043c-.041-.039-.481-.356-.755-.55-.16.137-.674.5-.709.527a4.588,4.588,0,0,1,.238-.906l-.671-.484.858-.067c0-.027.05-.179.273-.8l.319.809c.012-.017.536,0,.757,0h.081l.013,0-.008,0-.009.017v.011h0c0,.021-.016.028-.035.031a7.609,7.609,0,0,1-.623.524c.23.608.3.8.319.861l0,.005h0c.006.023,0,.026,0,.03Zm-.778-2.286a7.708,7.708,0,0,1-.237.8l-.882.039.7.464c-.016.108-.217.754-.27.89a5.716,5.716,0,0,1,.692-.545c.425.288.624.428.72.5-.08-.23-.285-.808-.285-.808.061-.069.448-.376.624-.508-.231,0-.78-.016-.78-.016Z" transform="translate(-239.996 -360.334)"/><path d="M271.148,390.2c0,.014-.289.823-.289.823l-.263-.809s-.879-.027-.879-.014.7-.531.7-.531-.329-.929-.315-.9.762.558.762.558.761-.53.746-.53-.289.875-.289.875l.683.518Z" transform="translate(-240.002 -365.075)" fill="#2d6c41"/><path d="M270.861,391.11l-.289-.891c-.015.017-.549,0-.763,0-.041,0-.069,0-.079,0a.068.068,0,0,1,.009-.019.036.036,0,0,1,.033-.042,7.259,7.259,0,0,1,.626-.523c-.23-.608-.3-.8-.319-.86l0-.006h0c-.007-.025,0-.027,0-.033.077.032.527.355.8.551.156-.133.646-.477.7-.523l.026-.014-.02.013.019.019-.02-.019a.1.1,0,0,1,0,.024l-.009,0,.009,0a6.288,6.288,0,0,1-.24.878l.671.484-.858.066a8.233,8.233,0,0,1-.273.8Zm-1.039-.95c.231,0,.779.017.779.017l.262.749c.071-.2.251-.706.258-.738l.882-.038-.7-.464c.014-.108.216-.753.268-.89a5.6,5.6,0,0,1-.691.545c-.573-.389-.737-.508-.785-.548a7.717,7.717,0,0,1,.35.858c-.061.069-.448.375-.623.508" transform="translate(-240.005 -365.069)"/><path d="M276.4,373.76c0,.013-.29.823-.29.823l-.262-.809s-.879-.027-.879-.013.7-.531.7-.531-.329-.93-.315-.9.76.558.76.558.762-.53.748-.53-.289.875-.289.875l.683.518Z" transform="translate(-241.356 -360.832)" fill="#2d6c41"/><path d="M276.109,374.671l-.289-.893c-.014.019-.542,0-.759,0-.044,0-.073,0-.083,0a.043.043,0,0,1,.009-.019.037.037,0,0,1,.033-.042,7.328,7.328,0,0,1,.627-.523c-.229-.607-.3-.8-.319-.859l0-.007h0c-.007-.025,0-.027,0-.033.079.032.527.355.8.551.155-.133.646-.477.7-.524l.025-.013-.019.013.018.019-.019-.019a.08.08,0,0,1,0,.024l-.008,0,.008,0a6.257,6.257,0,0,1-.24.878l.671.484-.857.066c0,.027-.051.179-.275.8Zm-1.039-.951c.231,0,.778.016.778.016l.262.75c.072-.2.252-.706.259-.738l.882-.038-.7-.464c.016-.108.217-.753.269-.89a5.606,5.606,0,0,1-.691.545c-.572-.387-.735-.507-.785-.548a7.775,7.775,0,0,1,.35.858c-.061.069-.448.375-.623.507" transform="translate(-241.36 -360.826)"/><path d="M279.8,383.711c0,.014-.289.823-.289.823l-.262-.809s-.88-.027-.88-.014.7-.531.7-.531-.329-.929-.315-.9.761.558.761.558.761-.53.748-.53-.289.875-.289.875l.683.518Z" transform="translate(-242.235 -363.4)" fill="#2d6c41"/><path d="M279.514,384.622l-.289-.892c-.014.017-.55,0-.764,0-.041,0-.07,0-.079,0a.069.069,0,0,1,.009-.018.036.036,0,0,1,.033-.042,7.264,7.264,0,0,1,.626-.523c-.23-.608-.3-.8-.319-.86l0-.006h0c-.007-.024,0-.027,0-.033.077.032.527.355.8.551.157-.133.647-.478.7-.524l.026-.013-.02.013.019.019h0l-.018-.02h0a.107.107,0,0,1,0,.024l-.009,0,.009,0a6.439,6.439,0,0,1-.241.878l.671.484-.858.066a8.239,8.239,0,0,1-.273.8Zm-1.039-.951c.231,0,.78.017.78.017l.261.749c.071-.2.251-.706.258-.738l.882-.038-.7-.464c.014-.108.216-.753.269-.89a5.591,5.591,0,0,1-.692.545c-.573-.389-.737-.508-.785-.548a7.716,7.716,0,0,1,.35.858c-.061.069-.448.375-.623.508" transform="translate(-242.238 -363.394)"/><path d="M262.492,383.995c0,.014-.289.824-.289.824l-.263-.809s-.879-.027-.879-.014.7-.53.7-.53-.329-.93-.315-.9.761.558.761.558.761-.53.748-.53-.289.876-.289.876l.683.517Z" transform="translate(-237.768 -363.474)" fill="#2d6c41"/><path d="M262.206,384.907l-.289-.893c-.014.016-.549,0-.763,0-.041,0-.069,0-.079,0a.069.069,0,0,1,.009-.019.036.036,0,0,1,.033-.042,7.4,7.4,0,0,1,.626-.522c-.23-.608-.3-.8-.319-.861l0-.006h0c-.007-.024,0-.027,0-.033.077.032.528.355.8.551.157-.133.647-.478.7-.524l.026-.013-.02.013.019.019h0l-.018-.02h0a.105.105,0,0,1,0,.024l-.009,0,.009,0a6.448,6.448,0,0,1-.241.878l.671.484-.858.066a8.242,8.242,0,0,1-.273.8Zm-1.039-.952c.231,0,.779.017.779.017l.262.75c.071-.2.251-.706.258-.739l.882-.038-.7-.463c.014-.108.216-.754.269-.89a5.591,5.591,0,0,1-.692.545c-.574-.389-.737-.508-.785-.548a7.72,7.72,0,0,1,.35.859c-.061.069-.447.375-.623.507" transform="translate(-237.771 -363.468)"/><path d="M265.635,373.876c0,.013-.289.823-.289.823l-.262-.809s-.879-.027-.879-.013.7-.531.7-.531-.329-.93-.315-.9.76.558.76.558.762-.53.748-.53-.289.875-.289.875l.683.518Z" transform="translate(-238.579 -360.862)" fill="#2d6c41"/><path d="M265.347,374.787l-.289-.893c-.014.019-.542,0-.76,0-.043,0-.073,0-.083,0a.056.056,0,0,1,.01-.019.036.036,0,0,1,.033-.042,7.317,7.317,0,0,1,.627-.523c-.229-.607-.3-.8-.319-.859l-.005-.007h0c-.007-.025,0-.027,0-.033.078.032.527.355.8.551.156-.133.647-.477.7-.524l.026-.013-.019.013.018.019-.019-.019a.08.08,0,0,1,0,.025l-.008,0,.008,0a6.255,6.255,0,0,1-.24.878l.671.484-.858.066a8.251,8.251,0,0,1-.274.8Zm-1.039-.951c.231,0,.779.016.779.016l.262.75c.071-.2.252-.706.259-.738l.882-.038-.7-.464c.015-.108.217-.753.269-.89a5.657,5.657,0,0,1-.692.545c-.572-.387-.735-.507-.784-.548a7.746,7.746,0,0,1,.349.858c-.061.069-.448.375-.623.507" transform="translate(-238.582 -360.856)"/><path d="M261.847,377.725c0-.013.289-.823.289-.823l.262.809s.879.027.879.013-.7.531-.7.531.328.93.315.9-.76-.558-.76-.558-.761.53-.748.53.289-.875.289-.875l-.682-.518Z" transform="translate(-237.751 -362.013)" fill="#2d6c41"/><path d="M262.885,379.215l-.021-.042c-.04-.039-.481-.357-.753-.551-.16.137-.674.5-.709.527a4.607,4.607,0,0,1,.237-.905l-.671-.485.858-.066a8.323,8.323,0,0,1,.273-.8l.318.809c.012-.018.542,0,.76,0,.038,0,.065,0,.078,0l.013,0-.008,0,.005.03h-.015c0,.02-.014.027-.032.031a7.164,7.164,0,0,1-.626.523c.229.607.3.8.318.86l0,.006h0c.006.023,0,.027,0,.03Zm-.778-2.285a7.354,7.354,0,0,1-.237.8l-.882.038.7.464c-.015.108-.217.754-.269.89a5.665,5.665,0,0,1,.692-.545c.424.288.623.428.718.5-.079-.231-.283-.808-.283-.808.061-.069.448-.375.623-.507-.231,0-.779-.016-.779-.016Z" transform="translate(-237.744 -362.01)"/><path d="M265.228,387.658c0-.013.289-.823.289-.823l.262.809s.879.027.879.013-.7.531-.7.531.329.93.315.9-.76-.557-.76-.557-.761.53-.748.53.289-.876.289-.876l-.683-.517Z" transform="translate(-238.623 -364.577)" fill="#2d6c41"/><path d="M266.268,389.148l-.021-.042c-.039-.039-.48-.356-.753-.55-.16.137-.674.5-.709.527a4.569,4.569,0,0,1,.237-.906l-.671-.484.858-.067a8.264,8.264,0,0,1,.274-.8l.318.809c.012-.016.536,0,.756,0h.082l.013,0-.009,0a.078.078,0,0,1-.009.017v.011h0c0,.021-.016.028-.035.031a7.6,7.6,0,0,1-.624.523c.229.607.3.8.319.86l0,.005h0c.006.023,0,.027,0,.03Zm-.778-2.285a7.509,7.509,0,0,1-.238.8l-.882.039.7.463c-.015.108-.217.755-.269.89a5.658,5.658,0,0,1,.692-.545c.424.288.623.428.718.5-.079-.231-.284-.809-.284-.809.061-.069.447-.375.623-.507-.231,0-.779-.016-.779-.016Z" transform="translate(-238.617 -364.573)"/><path d="M279.162,377.46c0-.013.289-.823.289-.823l.262.809s.879.027.879.013-.7.531-.7.531.329.93.315.9-.76-.558-.76-.558-.762.53-.748.53.289-.876.289-.876l-.683-.517Z" transform="translate(-242.219 -361.945)" fill="#2d6c41"/><path d="M280.2,378.95l-.021-.044c-.04-.039-.481-.356-.753-.55-.16.137-.674.5-.709.527a4.611,4.611,0,0,1,.237-.906l-.671-.484.858-.067a8.256,8.256,0,0,1,.274-.8l.318.809c.012-.016.536,0,.756,0h.082l.013,0-.009,0a.075.075,0,0,1-.009.017v.011h0c0,.021-.016.028-.035.031a7.612,7.612,0,0,1-.624.523c.23.609.3.8.319.861l0,.005h0c.006.023,0,.026,0,.03Zm-.778-2.287a7.5,7.5,0,0,1-.238.8l-.882.039.7.463c-.015.108-.217.755-.269.89a5.6,5.6,0,0,1,.692-.545c.424.288.623.428.718.5-.079-.231-.284-.809-.284-.809.061-.069.447-.375.623-.508-.231,0-.779-.016-.779-.016Z" transform="translate(-242.213 -361.941)"/><path d="M276.01,387.565c0-.014.289-.823.289-.823l.262.809s.879.027.879.014-.7.531-.7.531.329.929.315.9-.76-.558-.76-.558-.762.531-.748.531.289-.875.289-.875l-.683-.518Z" transform="translate(-241.406 -364.553)" fill="#2d6c41"/><path d="M277.049,389.055l-.021-.043c-.04-.039-.481-.356-.753-.55-.16.137-.674.5-.709.527a4.6,4.6,0,0,1,.237-.905l-.671-.485.858-.066a8.161,8.161,0,0,1,.274-.8l.318.808c.011-.017.549,0,.763,0,.036,0,.062,0,.074,0l.013,0-.008,0,.005.03h-.015c0,.021-.015.028-.033.031a7.123,7.123,0,0,1-.626.523c.23.608.3.8.319.861l0,.005h0c.006.023,0,.026,0,.03Zm-.778-2.285a7.617,7.617,0,0,1-.238.8l-.882.038.7.464c-.015.108-.217.754-.269.89a5.6,5.6,0,0,1,.692-.545c.424.288.623.428.718.5-.079-.23-.284-.808-.284-.808.061-.069.448-.375.623-.507-.231,0-.779-.017-.779-.017Z" transform="translate(-241.4 -364.549)"/><path d="M263.1,378.453h0Z" transform="translate(-238.293 -362.414)" fill="#3d9546"/><path d="M273.537,385.8h0Z" transform="translate(-240.988 -364.311)" fill="#3d9546"/><path d="M270.493,397.472h0Z" transform="translate(-240.202 -367.322)" fill="#3d9546"/><path d="M255.894,397.472h0Z" transform="translate(-236.434 -367.322)" fill="#3d9546"/><path d="M253.227,385.5h0Z" transform="translate(-235.746 -364.233)" fill="#3d9546"/><path d="M285.2,363.8h0Z" transform="translate(-243.986 -358.631)" fill="#3d9546"/><path d="M289.389,375.2h0Z" transform="translate(-245.068 -361.574)" fill="#3d9546"/><path d="M278.993,383.542h0Z" transform="translate(-242.385 -363.727)" fill="#3d9546"/><path d="M269.226,375.2h0Z" transform="translate(-239.864 -361.574)" fill="#3d9546"/><path d="M272.831,363.965h0Z" transform="translate(-240.794 -358.674)" fill="#3d9546"/><path d="M272.532,380.739c.3-.031.62,1.128.725,2.589s-.051,2.67-.346,2.7-.62-1.129-.725-2.589.051-2.671.346-2.7" transform="translate(-240.631 -363.003)" fill="#2d6c41"/><path d="M272.89,386.05c-.361,0-.653-1.35-.743-2.618-.093-1.315.021-2.7.373-2.734.376,0,.667,1.349.758,2.617.094,1.315-.019,2.7-.372,2.734Zm-.355-5.292c-.252.025-.438,1.1-.328,2.669.11,1.532.441,2.562.683,2.562v.03l.008-.031c.244-.025.431-1.1.319-2.669-.109-1.532-.441-2.562-.683-2.562" transform="translate(-240.621 -362.993)"/><path d="M273.233,380.731c.312-.033.651,1.125.756,2.586s-.063,2.672-.376,2.7-.651-1.125-.756-2.586.063-2.672.376-2.7" transform="translate(-240.804 -363.001)" fill="#2d6c41"/><path d="M273.591,386.042c-.38,0-.682-1.348-.773-2.616-.094-1.314.03-2.7.4-2.736h0c.4,0,.7,1.347.789,2.615.094,1.315-.031,2.7-.4,2.737Zm-.354-5.292c-.269.027-.471,1.107-.359,2.672.111,1.531.458,2.559.713,2.559v.03l.01-.031c.259-.027.461-1.106.349-2.672-.109-1.531-.456-2.559-.712-2.559" transform="translate(-240.794 -362.991)"/><path d="M272.918,380.546c.249-.026.543,1.261.656,2.876s0,2.946-.249,2.973-.545-1.261-.657-2.876,0-2.946.25-2.973" transform="translate(-240.752 -362.954)" fill="#2d6c41"/><path d="M273.307,386.415c-.309,0-.581-1.5-.679-2.9-.1-1.432-.036-2.971.276-3h0c.32,0,.591,1.5.689,2.9.1,1.432.036,2.971-.276,3Zm-.392-5.85c-.2.022-.345,1.235-.227,2.941s.416,2.849.619,2.849v.03l0-.031c.2-.022.341-1.234.223-2.94s-.416-2.849-.619-2.849" transform="translate(-240.742 -362.943)"/><path d="M267.681,386c.459-.019.26-.264.492-.4a.536.536,0,0,1,.661.119c.1.163.019.323.147.326a34.227,34.227,0,0,1,3.721-.006.393.393,0,0,1,.016.512,33.619,33.619,0,0,1-4.665.044,1.908,1.908,0,0,1-.372-.6" transform="translate(-239.476 -364.242)" fill="#904a15"/><path d="M269.7,386.679a10.4,10.4,0,0,1-1.673-.068,1.767,1.767,0,0,1-.384-.625c.288-.04.317-.119.354-.22a.326.326,0,0,1,.152-.2.59.59,0,0,1,.7.13.51.51,0,0,1,.063.212c.011.081.017.1.059.1h0c.033,0,.155,0,.338-.01.552-.019,1.655-.055,2.451-.055.89,0,.933.046.953.068a.473.473,0,0,1,.11.342.29.29,0,0,1-.1.214,25.569,25.569,0,0,1-3.029.114m-1.279-1.121a.5.5,0,0,0-.242.059.272.272,0,0,0-.125.17c-.039.107-.079.218-.38.23.037.008.251.444.389.545a10.484,10.484,0,0,0,1.637.057,27.038,27.038,0,0,0,2.991-.1.242.242,0,0,0,.075-.171.411.411,0,0,0-.1-.3,3.246,3.246,0,0,0-.908-.048c-.8,0-1.9.036-2.449.055l-.337.01c-.1,0-.111-.079-.121-.153a.435.435,0,0,0-.056-.188.45.45,0,0,0-.378-.169" transform="translate(-239.466 -364.233)"/><path d="M270.859,386.382c-.009.346.5.248.511.538-.016.306-.86.019-.867-.543.034-.561.861-.838.871-.517.007.266-.507.175-.515.522" transform="translate(-240.205 -364.29)" fill="#f3d02f"/><path d="M271.189,387.07a.786.786,0,0,1-.727-.7c.037-.6.922-.846.932-.519,0,.145-.124.2-.247.249s-.264.11-.269.275.12.214.251.269.257.109.261.266c0,.1-.08.156-.2.156m0-1.32a.631.631,0,1,0,0,1.259c.062,0,.137-.016.141-.1,0-.116-.106-.159-.224-.21-.137-.059-.292-.125-.288-.326s.171-.273.306-.329.212-.093.21-.191-.081-.106-.146-.106" transform="translate(-240.194 -364.286)"/><path d="M271.267,386.387c-.008.346.5.249.511.538-.016.307-.859.019-.867-.542.035-.561.861-.838.871-.518.008.266-.506.176-.515.522" transform="translate(-240.31 -364.291)" fill="#f3d02f"/><path d="M271.6,387.075a.787.787,0,0,1-.727-.7c.038-.6.921-.848.932-.519,0,.146-.123.2-.247.251s-.264.109-.268.273.12.214.251.27.257.109.26.266c0,.1-.08.156-.2.156m0-1.32a.631.631,0,1,0,0,1.26c.062,0,.137-.016.141-.1,0-.116-.105-.159-.224-.21-.137-.058-.292-.125-.288-.326s.165-.27.306-.328.213-.094.21-.193-.081-.106-.145-.106" transform="translate(-240.299 -364.287)"/><path d="M271.7,386.37c-.009.347.5.249.511.539-.016.306-.86.018-.867-.543.035-.561.861-.838.871-.517.007.266-.507.175-.515.522" transform="translate(-240.423 -364.287)" fill="#f3d02f"/><path d="M272.035,387.06a.788.788,0,0,1-.728-.7c.038-.6.921-.847.932-.519,0,.145-.123.2-.247.249s-.264.11-.268.274.12.214.251.27.257.109.26.266c0,.1-.079.156-.2.156m0-1.32a.631.631,0,1,0,0,1.259c.062,0,.137-.016.14-.1,0-.116-.105-.159-.224-.21-.137-.059-.292-.125-.287-.327s.164-.27.3-.329.213-.093.21-.191-.081-.106-.145-.106" transform="translate(-240.412 -364.283)"/><path d="M272.111,386.376c-.008.346.5.249.511.538-.015.306-.859.019-.867-.543.034-.56.861-.838.871-.517.007.266-.507.175-.516.522" transform="translate(-240.528 -364.289)" fill="#f3d02f"/><path d="M272.442,387.065a.786.786,0,0,1-.727-.7c.037-.6.921-.847.932-.519,0,.145-.124.2-.247.25s-.265.109-.269.274.12.214.251.27.257.109.26.266c0,.1-.079.156-.2.156m0-1.32a.631.631,0,1,0,0,1.259c.062,0,.137-.016.14-.1,0-.116-.105-.159-.224-.21-.137-.058-.292-.125-.288-.326s.172-.273.306-.329.212-.093.21-.191-.082-.106-.146-.106" transform="translate(-240.517 -364.285)"/><path d="M274.085,386.145a.3.3,0,0,1,.287.3.3.3,0,0,1-.3.293.293.293,0,0,1-.286-.3.3.3,0,0,1,.3-.293" transform="translate(-241.052 -364.399)" fill="#904a15"/><path d="M274.066,386.759h0a.317.317,0,0,1-.224-.1.323.323,0,0,1-.091-.234.329.329,0,0,1,.324-.323.321.321,0,0,1,.229.1.33.33,0,0,1-.234.558m.008-.594a.269.269,0,0,0-.268.263.265.265,0,0,0,.074.191.255.255,0,0,0,.182.079l0,.03v-.03a.268.268,0,0,0,.19-.455.256.256,0,0,0-.182-.079" transform="translate(-241.042 -364.388)"/><path d="M271.657,384.433c.142-.021.286.217.321.534s-.056.59-.2.611-.286-.217-.321-.534.056-.59.2-.611" transform="translate(-240.449 -363.956)" fill="#2d6c41"/><path d="M271.751,385.6c-.155,0-.3-.242-.332-.563s.062-.619.223-.644h0c.177,0,.319.241.353.561.036.336-.062.62-.223.644Zm-.087-1.148c-.125.018-.22.254-.185.579s.168.508.272.508v.03l.013-.031c.111-.018.208-.254.172-.579s-.168-.508-.272-.508" transform="translate(-240.439 -363.947)"/><path d="M271.063,384.386c.142-.021.286.217.32.534s-.056.59-.2.611-.287-.217-.32-.534.055-.59.2-.611" transform="translate(-240.296 -363.944)" fill="#2d6c41"/><path d="M271.157,385.554c-.156,0-.3-.242-.332-.563-.036-.337.062-.619.223-.644h0c.177,0,.319.241.353.561.036.337-.062.619-.223.644Zm-.087-1.148c-.125.018-.22.254-.185.579s.167.508.272.508v.03l.013-.031c.111-.018.207-.254.172-.579s-.168-.508-.272-.508" transform="translate(-240.286 -363.935)"/><path d="M270.636,383.626c.143-.022.287.217.321.533s-.055.59-.2.611-.286-.217-.321-.533.056-.591.2-.611" transform="translate(-240.186 -363.748)" fill="#2d6c41"/><path d="M270.729,384.792c-.154,0-.3-.242-.332-.562-.035-.338.063-.621.224-.644h0c.177,0,.319.24.353.56.036.337-.062.619-.224.644Zm-.086-1.148c-.125.017-.22.254-.185.579s.167.507.272.507v.03l.013-.031c.112-.018.208-.254.173-.579s-.167-.508-.272-.508" transform="translate(-240.175 -363.738)"/><path d="M271.237,383.512c.138-.022.279.243.316.592s-.045.649-.182.671-.279-.243-.316-.592.044-.649.182-.671" transform="translate(-240.345 -363.719)" fill="#2d6c41"/><path d="M271.344,384.8c-.151,0-.293-.266-.33-.62-.039-.37.052-.679.207-.7h0c.171,0,.312.266.349.619.039.37-.052.679-.207.7Zm-.1-1.265c-.116.017-.206.283-.168.639.036.338.168.566.27.566v.03l.011-.031c.106-.016.194-.277.157-.638-.036-.338-.168-.566-.27-.566" transform="translate(-240.334 -363.709)"/><path d="M272.073,383.573c.138-.021.277.227.312.553s-.049.609-.185.631-.277-.227-.312-.553.047-.611.185-.631" transform="translate(-240.56 -363.735)" fill="#3d9546"/><path d="M272.173,384.779c-.151,0-.291-.25-.326-.582-.037-.348.056-.64.211-.663h0c.171,0,.31.249.345.58.037.348-.056.639-.211.664Zm-.094-1.187c-.118.017-.208.262-.171.6s.165.528.266.528v.03l.012-.031c.106-.017.2-.262.16-.6s-.165-.527-.266-.527" transform="translate(-240.549 -363.725)"/><path d="M271.616,383.3c.138-.021.277.227.312.553s-.049.609-.185.631-.277-.227-.313-.553.048-.61.186-.631" transform="translate(-240.442 -363.664)" fill="#3d9546"/><path d="M271.716,384.5c-.151,0-.291-.25-.326-.582-.036-.348.056-.64.211-.664h0c.171,0,.31.249.345.58.037.348-.056.639-.211.664Zm-.094-1.187c-.117.017-.208.263-.172.6s.165.528.266.528v.03l.012-.031c.106-.017.2-.262.16-.6s-.165-.528-.266-.528" transform="translate(-240.431 -363.654)"/><path d="M271.038,382.9c.137-.021.277.227.312.553s-.048.609-.185.631-.277-.227-.312-.554.048-.61.186-.631" transform="translate(-240.293 -363.561)" fill="#3d9546"/><path d="M271.138,384.106c-.151,0-.291-.25-.326-.583s.055-.639.211-.663h0c.171,0,.309.249.344.58.037.348-.056.639-.211.664Zm-.093-1.187c-.116.016-.208.266-.172.6s.165.529.266.529v.03l.012-.031c.106-.017.2-.262.16-.6s-.165-.527-.265-.527" transform="translate(-240.282 -363.551)"/><path d="M270.5,382.66c.138-.022.278.226.312.553s-.048.609-.185.631-.277-.227-.312-.553.047-.61.185-.631" transform="translate(-240.155 -363.499)" fill="#2d6c41"/><path d="M270.6,383.865c-.151,0-.291-.25-.326-.582s.056-.64.211-.663h0c.172,0,.311.249.345.58.038.348-.054.639-.211.663Zm-.094-1.186c-.119.017-.208.261-.172.6s.165.527.266.527v.03l.012-.031c.1-.016.2-.266.16-.6s-.164-.528-.265-.528" transform="translate(-240.145 -363.489)"/><path d="M269.791,376.835a3.525,3.525,0,0,0-.78,2.829,3.925,3.925,0,0,0,1.943,3.054,3.675,3.675,0,0,0,.413-2.258,6.448,6.448,0,0,0-1-3.518Z" transform="translate(-239.817 -361.996)" fill="#8d5bc5"/><path d="M270.95,382.747l-.021-.011a3.986,3.986,0,0,1-1.959-3.08,3.6,3.6,0,0,1,.79-2.853l.605.1a6.391,6.391,0,0,1,1.021,3.547,3.666,3.666,0,0,1-.42,2.278Zm-1.176-5.891a3.683,3.683,0,0,0-.745,2.8,3.909,3.909,0,0,0,1.9,3.015,3.918,3.918,0,0,0,.392-2.218,6.5,6.5,0,0,0-.99-3.5Z" transform="translate(-239.807 -361.988)"/><path d="M272.683,384.521c.145,0,.243.264.22.582s-.159.571-.3.567-.243-.266-.22-.582.159-.571.3-.567" transform="translate(-240.688 -363.98)" fill="#2d6c41"/><path d="M272.593,385.689h0a.175.175,0,0,1-.126-.065.78.78,0,0,1-.123-.549c.024-.333.169-.6.33-.6a.178.178,0,0,1,.131.065.783.783,0,0,1,.123.549c-.024.333-.169.6-.33.6m.079-1.148c-.114,0-.249.216-.272.539a.734.734,0,0,0,.108.5.12.12,0,0,0,.084.045l0,.03v-.03c.111,0,.246-.216.27-.539a.743.743,0,0,0-.108-.5.117.117,0,0,0-.084-.044" transform="translate(-240.678 -363.969)"/><path d="M272.106,384.369c.145,0,.243.265.22.582s-.159.571-.3.567-.243-.265-.22-.582.16-.571.3-.567" transform="translate(-240.539 -363.94)" fill="#2d6c41"/><path d="M272.015,385.537h0a.178.178,0,0,1-.127-.065.783.783,0,0,1-.122-.549c.024-.333.169-.6.33-.6a.178.178,0,0,1,.131.065.783.783,0,0,1,.123.549c-.024.333-.169.6-.33.6m.079-1.148c-.114,0-.249.216-.272.539a.738.738,0,0,0,.108.5.12.12,0,0,0,.084.044l0,.03v-.03c.111,0,.246-.216.27-.539a.742.742,0,0,0-.108-.5.117.117,0,0,0-.084-.044" transform="translate(-240.529 -363.93)"/><path d="M271.823,383.544c.144,0,.243.264.22.582s-.159.571-.3.567-.243-.266-.22-.582.159-.571.3-.567" transform="translate(-240.466 -363.727)" fill="#2d6c41"/><path d="M271.732,384.712h0a.175.175,0,0,1-.126-.065.779.779,0,0,1-.123-.549c.024-.333.169-.6.33-.6a.181.181,0,0,1,.131.065.79.79,0,0,1,.123.55c-.024.333-.169.6-.33.6m.079-1.148c-.114,0-.249.216-.272.539a.734.734,0,0,0,.108.5.12.12,0,0,0,.084.044l0,.03v-.03c.111,0,.246-.216.27-.539a.738.738,0,0,0-.108-.5.116.116,0,0,0-.083-.044" transform="translate(-240.455 -363.717)"/><path d="M272.43,383.539c.139,0,.231.289.206.639s-.16.631-.3.628-.232-.289-.206-.639.16-.631.3-.628" transform="translate(-240.624 -363.726)" fill="#2d6c41"/><path d="M272.329,384.829h0a.154.154,0,0,1-.111-.056.911.911,0,0,1-.124-.615c.034-.47.287-.766.441-.6a.91.91,0,0,1,.124.615c-.027.367-.17.656-.326.656m.09-1.266c-.107,0-.242.246-.268.6a.868.868,0,0,0,.109.57.091.091,0,0,0,.068.036v0c.108,0,.24-.24.266-.6a.869.869,0,0,0-.108-.57.094.094,0,0,0-.068-.036" transform="translate(-240.613 -363.719)"/><path d="M273.245,383.748c.139,0,.232.272.208.6s-.157.591-.3.588-.233-.273-.208-.6.157-.591.3-.588" transform="translate(-240.835 -363.78)" fill="#2d6c41"/><path d="M273.151,384.956h0a.167.167,0,0,1-.116-.059.841.841,0,0,1-.122-.574c.025-.346.167-.616.323-.616a.165.165,0,0,1,.12.059.84.84,0,0,1,.122.574c-.025.345-.167.616-.323.616m.083-1.188c-.109,0-.24.225-.265.559a.8.8,0,0,0,.106.528.106.106,0,0,0,.073.039l0,.03v-.03c.107,0,.237-.225.263-.559a.8.8,0,0,0-.106-.528.107.107,0,0,0-.073-.039" transform="translate(-240.825 -363.77)"/><path d="M272.844,383.395c.139,0,.232.272.208.6s-.156.59-.295.587-.233-.273-.208-.6.156-.591.3-.588" transform="translate(-240.732 -363.689)" fill="#2d6c41"/><path d="M272.75,384.6h0a.167.167,0,0,1-.116-.059.841.841,0,0,1-.122-.573c.025-.351.165-.616.323-.616a.165.165,0,0,1,.12.059.837.837,0,0,1,.121.574c-.025.345-.167.616-.322.616m.083-1.188c-.109,0-.24.225-.265.559a.8.8,0,0,0,.106.528.106.106,0,0,0,.073.039l0,.03v-.03c.107,0,.237-.225.262-.559a.8.8,0,0,0-.105-.529.107.107,0,0,0-.073-.039" transform="translate(-240.721 -363.678)"/><path d="M272.347,382.9c.139,0,.232.272.208.6s-.157.59-.3.587-.233-.273-.208-.6.157-.591.3-.588" transform="translate(-240.603 -363.562)" fill="#2d6c41"/><path d="M272.253,384.109h0a.16.16,0,0,1-.116-.059.835.835,0,0,1-.122-.574c.025-.346.167-.616.323-.616a.165.165,0,0,1,.12.059.84.84,0,0,1,.122.574c-.025.345-.167.616-.323.616m.083-1.188c-.109,0-.24.225-.265.559a.792.792,0,0,0,.107.529.1.1,0,0,0,.073.039l0,.03v-.03c.107,0,.237-.225.263-.559a.8.8,0,0,0-.106-.529.107.107,0,0,0-.073-.039" transform="translate(-240.593 -363.551)"/><path d="M271.865,382.569c.139,0,.232.272.208.6s-.156.591-.295.588-.233-.273-.208-.6.156-.591.3-.588" transform="translate(-240.479 -363.476)" fill="#2d6c41"/><path d="M271.771,383.777h0a.167.167,0,0,1-.116-.059.842.842,0,0,1-.122-.574c.025-.351.165-.616.323-.616a.165.165,0,0,1,.12.059.838.838,0,0,1,.121.574c-.025.345-.167.616-.322.616m.083-1.188c-.109,0-.24.225-.265.559a.8.8,0,0,0,.106.528.106.106,0,0,0,.073.039l0,.03v-.03c.107,0,.237-.225.262-.559a.793.793,0,0,0-.105-.528.107.107,0,0,0-.073-.039" transform="translate(-240.468 -363.465)"/><path d="M271.286,378.791c.382-.148,1.094.669,1.59,1.826s.588,2.213.206,2.362-1.094-.671-1.59-1.827-.588-2.214-.205-2.361" transform="translate(-240.346 -362.496)" fill="#c20038"/><path d="M272.976,383.014c-.419,0-1.059-.782-1.522-1.861a3.512,3.512,0,0,1-.376-2.2.347.347,0,0,1,.188-.2c.4-.154,1.125.666,1.629,1.843a3.51,3.51,0,0,1,.376,2.2.343.343,0,0,1-.188.2.3.3,0,0,1-.106.019m-1.6-4.221a.231.231,0,0,0-.085.016.288.288,0,0,0-.154.168,3.466,3.466,0,0,0,.377,2.152c.481,1.121,1.189,1.95,1.551,1.81a.285.285,0,0,0,.154-.169,3.47,3.47,0,0,0-.376-2.152c-.446-1.039-1.077-1.824-1.466-1.824" transform="translate(-240.335 -362.486)"/><path d="M271.7,378.348a.288.288,0,1,1-.328.28.308.308,0,0,1,.328-.28" transform="translate(-240.429 -362.386)" fill="#3d9546"/><path d="M271.687,378.94h-.006a.359.359,0,1,1,.006,0m0-.572a.279.279,0,0,0-.3.251.276.276,0,0,0,.288.26l.006.03v-.03a.257.257,0,1,0,0-.51" transform="translate(-240.419 -362.376)"/><path d="M272.042,377.8a.286.286,0,1,1-.295.28.288.288,0,0,1,.295-.28" transform="translate(-240.526 -362.246)" fill="#3d9546"/><path d="M272.026,378.4h-.007a.323.323,0,0,1-.224-.1.313.313,0,0,1-.09-.226.319.319,0,0,1,.32-.31.323.323,0,0,1,.23.1.306.306,0,0,1,.09.226.318.318,0,0,1-.319.31m0-.571a.259.259,0,0,0-.264.251.253.253,0,0,0,.073.182.259.259,0,0,0,.182.077l.005.031v-.031a.257.257,0,0,0,.259-.25.252.252,0,0,0-.073-.183.261.261,0,0,0-.182-.077" transform="translate(-240.515 -362.235)"/><path d="M271.514,377.795a.286.286,0,1,1-.295.28.288.288,0,0,1,.295-.28" transform="translate(-240.389 -362.244)" fill="#3d9546"/><path d="M271.5,378.387h-.006a.316.316,0,1,1,.005-.633.324.324,0,0,1,.231.1.3.3,0,0,1,.09.226.319.319,0,0,1-.32.31m0-.572a.255.255,0,1,0-.009.51l.005.03v-.03a.258.258,0,0,0,.26-.25.252.252,0,0,0-.073-.182A.26.26,0,0,0,271.5,377.815Z" transform="translate(-240.379 -362.233)"/><path d="M271.625,377.42a.27.27,0,1,1-.308.263.287.287,0,0,1,.308-.263" transform="translate(-240.415 -362.147)" fill="#2d6c41"/><path d="M271.611,377.976H271.6a.357.357,0,0,1-.248-.1.281.281,0,0,1-.081-.2.318.318,0,0,1,.332-.292.359.359,0,0,1,.254.1.279.279,0,0,1,.081.2.318.318,0,0,1-.332.293m0-.536a.26.26,0,0,0-.277.232.222.222,0,0,0,.065.157.291.291,0,0,0,.2.086l.006.03v-.03a.258.258,0,0,0,.272-.234.223.223,0,0,0-.065-.157A.292.292,0,0,0,271.614,377.44Z" transform="translate(-240.404 -362.136)"/><path d="M271.579,376.963a.27.27,0,1,1-.309.263.287.287,0,0,1,.309-.263" transform="translate(-240.403 -362.029)" fill="#2d6c41"/><path d="M271.564,377.519h-.007a.319.319,0,0,1-.329-.3.316.316,0,0,1,.333-.292.321.321,0,0,1,.335.3.315.315,0,0,1-.332.292m0-.536a.24.24,0,1,0-.009.476l.006.03v-.03a.24.24,0,1,0,0-.476Z" transform="translate(-240.392 -362.018)"/><path d="M271.011,377.487a.286.286,0,1,1-.295.28.288.288,0,0,1,.295-.28" transform="translate(-240.26 -362.164)" fill="#2d6c41"/><path d="M271,378.079h-.007a.32.32,0,0,1-.224-.1.313.313,0,0,1-.09-.226.319.319,0,0,1,.32-.31.324.324,0,0,1,.23.1.307.307,0,0,1,.09.226.32.32,0,0,1-.319.311m0-.572a.259.259,0,0,0-.264.251.252.252,0,0,0,.073.182.26.26,0,0,0,.182.078l.005.03v-.03a.258.258,0,0,0,.259-.251.252.252,0,0,0-.073-.182.258.258,0,0,0-.182-.078" transform="translate(-240.249 -362.154)"/><path d="M271.128,377a.28.28,0,1,1-.3.275.286.286,0,0,1,.3-.275" transform="translate(-240.29 -362.039)" fill="#2d6c41"/><path d="M271.112,377.582h0a.311.311,0,1,1,.325-.3.317.317,0,0,1-.325.3m.005-.56a.25.25,0,1,0-.009.5l0,.03v-.03a.25.25,0,1,0,.005-.5" transform="translate(-240.279 -362.029)"/><path d="M270.472,377.006a.288.288,0,1,1-.329.28.307.307,0,0,1,.329-.28" transform="translate(-240.112 -362.04)" fill="#2d6c41"/><path d="M270.457,377.6h-.007a.376.376,0,0,1-.262-.111.3.3,0,0,1-.086-.212.356.356,0,1,1,.355.323m0-.572a.28.28,0,0,0-.3.251.238.238,0,0,0,.069.168.31.31,0,0,0,.22.091l.006.03v-.03a.257.257,0,1,0,0-.51" transform="translate(-240.101 -362.03)"/><path d="M271.281,376.391a.27.27,0,1,1-.309.263.287.287,0,0,1,.309-.263" transform="translate(-240.326 -361.881)" fill="#2d6c41"/><path d="M271.268,376.947h-.009a.355.355,0,0,1-.247-.1.281.281,0,0,1-.081-.2.316.316,0,0,1,.333-.292.3.3,0,1,1,0,.6m0-.536a.258.258,0,0,0-.278.233.22.22,0,0,0,.065.157.291.291,0,0,0,.2.086l.007.03v-.03a.24.24,0,1,0,0-.476Z" transform="translate(-240.315 -361.871)"/><path d="M270.739,376.445a.28.28,0,1,1-.295.275.286.286,0,0,1,.295-.275" transform="translate(-240.189 -361.895)" fill="#2d6c41"/><path d="M270.723,377.024h-.007a.325.325,0,0,1-.224-.095.3.3,0,0,1-.09-.221.313.313,0,0,1,.32-.3.31.31,0,1,1,0,.62m0-.559a.254.254,0,0,0-.264.245.242.242,0,0,0,.073.177.258.258,0,0,0,.182.077l.005.03v-.03a.249.249,0,1,0,0-.5" transform="translate(-240.179 -361.885)"/><path d="M269.911,377.027a.286.286,0,1,1-.295.28.288.288,0,0,1,.295-.28" transform="translate(-239.976 -362.045)" fill="#2d6c41"/><path d="M269.9,377.619h-.007a.32.32,0,0,1-.224-.1.313.313,0,0,1-.09-.226.32.32,0,0,1,.55-.213.306.306,0,0,1,.09.226.319.319,0,0,1-.319.31m0-.572a.259.259,0,0,0-.264.251.253.253,0,0,0,.073.182.26.26,0,0,0,.183.078l.005.03v-.03a.258.258,0,0,0,.259-.25.252.252,0,0,0-.073-.182.258.258,0,0,0-.183-.078" transform="translate(-239.965 -362.035)"/><path d="M270.046,376.748a.28.28,0,1,1-.295.275.285.285,0,0,1,.295-.275" transform="translate(-240.01 -361.974)" fill="#2d6c41"/><path d="M270.029,377.328h0a.325.325,0,0,1-.225-.095.306.306,0,0,1-.09-.222.317.317,0,0,1,.32-.3.326.326,0,0,1,.23.095.3.3,0,0,1,.09.221.318.318,0,0,1-.32.3m.005-.56a.256.256,0,0,0-.264.245.244.244,0,0,0,.073.177.259.259,0,0,0,.183.077l0,.03v-.03a.254.254,0,0,0,.26-.246.241.241,0,0,0-.072-.177.26.26,0,0,0-.183-.077" transform="translate(-240 -361.963)"/><path d="M270.213,376.43a.28.28,0,1,1-.295.274.285.285,0,0,1,.295-.274" transform="translate(-240.054 -361.891)" fill="#2d6c41"/><path d="M270.2,377.01h-.007a.325.325,0,0,1-.224-.095.3.3,0,0,1-.09-.222.316.316,0,0,1,.32-.3.325.325,0,0,1,.23.095.3.3,0,0,1,.09.221.316.316,0,0,1-.318.3m0-.56a.256.256,0,0,0-.265.245.242.242,0,0,0,.073.177.258.258,0,0,0,.182.077l.006.03v-.03a.257.257,0,0,0,.259-.246.245.245,0,0,0-.073-.177.258.258,0,0,0-.183-.077" transform="translate(-240.043 -361.881)"/><path d="M271.314,377.773c.49-.173,1.367.8,1.959,2.18s.674,2.632.184,2.806-1.367-.8-1.959-2.18-.674-2.633-.184-2.806" transform="translate(-240.331 -362.233)" fill="#2d6c41"/><path d="M273.326,382.8c-.52,0-1.323-.953-1.867-2.218a4,4,0,0,1-.415-2.59.437.437,0,0,1,.249-.256c.5-.18,1.406.821,2,2.2a4,4,0,0,1,.415,2.59.435.435,0,0,1-.249.256.377.377,0,0,1-.131.022m-1.9-5.025a.352.352,0,0,0-.11.018.384.384,0,0,0-.214.223,3.951,3.951,0,0,0,.416,2.543c.576,1.341,1.452,2.321,1.921,2.163a.383.383,0,0,0,.214-.223,3.949,3.949,0,0,0-.415-2.543c-.535-1.243-1.313-2.18-1.811-2.18" transform="translate(-240.321 -362.223)"/><path d="M273.582,381.025c.09-.043.268.154.4.441s.158.553.068.6-.268-.154-.4-.44-.158-.554-.068-.6" transform="translate(-240.986 -363.076)" fill="#2d6c41"/><path d="M274.007,382.092c-.13,0-.3-.24-.4-.464-.121-.272-.177-.577-.053-.637.176.005.337.232.437.456.118.263.177.576.053.637Zm-.41-1.05c-.071.03-.068.256.068.561.119.264.27.428.342.428v.03l.014-.033c.057-.027.054-.253-.082-.557-.118-.265-.269-.429-.341-.429" transform="translate(-240.975 -363.068)"/><path d="M273.444,381.1a2.182,2.182,0,0,1,.591,2.033,5.889,5.889,0,0,0-1.142-1.881,1.833,1.833,0,0,1-.332-1.939,3.981,3.981,0,0,0,.883,1.787" transform="translate(-240.699 -362.637)" fill="#2d6c41"/><path d="M274.038,383.243l-.076-.178a5.808,5.808,0,0,0-1.1-1.79,1.736,1.736,0,0,1-.386-1.765,1.974,1.974,0,0,0,.047-.2.333.333,0,0,1,.125.224,3.589,3.589,0,0,0,.811,1.548,2.216,2.216,0,0,1,.6,2.054Zm-1.485-3.821a.537.537,0,0,1-.021.1,1.663,1.663,0,0,0,.374,1.711,5.864,5.864,0,0,1,1.105,1.789,2.132,2.132,0,0,0-.6-1.9,3.628,3.628,0,0,1-.822-1.571c-.013-.047-.023-.09-.035-.13" transform="translate(-240.689 -362.635)"/><path d="M273.538,382.124a2.184,2.184,0,0,1,.592,2.034,5.89,5.89,0,0,0-1.143-1.882,1.832,1.832,0,0,1-.332-1.939,3.964,3.964,0,0,0,.882,1.787" transform="translate(-240.723 -362.9)" fill="#2d6c41"/><path d="M274.133,384.259l-.078-.18a5.786,5.786,0,0,0-1.1-1.787,1.738,1.738,0,0,1-.385-1.767,1.956,1.956,0,0,0,.047-.2.337.337,0,0,1,.125.223,3.574,3.574,0,0,0,.81,1.549,2.219,2.219,0,0,1,.6,2.051Zm-1.485-3.819a.515.515,0,0,1-.021.1,1.664,1.664,0,0,0,.373,1.712,5.832,5.832,0,0,1,1.105,1.789,2.127,2.127,0,0,0-.6-1.9,3.648,3.648,0,0,1-.823-1.573c-.011-.046-.022-.088-.033-.128" transform="translate(-240.713 -362.898)"/><path d="M273.561,382.951a2.182,2.182,0,0,1,.633,2.02,5.891,5.891,0,0,0-1.18-1.856,1.831,1.831,0,0,1-.371-1.932,3.956,3.956,0,0,0,.918,1.768" transform="translate(-240.724 -363.118)" fill="#2d6c41"/><path d="M274.2,385.075l-.082-.18a5.8,5.8,0,0,0-1.137-1.762,1.735,1.735,0,0,1-.421-1.758c.019-.074.035-.14.043-.2a.332.332,0,0,1,.129.219,3.589,3.589,0,0,0,.841,1.533,2.221,2.221,0,0,1,.641,2.038Zm-1.562-3.787a.513.513,0,0,1-.019.1,1.665,1.665,0,0,0,.408,1.7,5.845,5.845,0,0,1,1.141,1.765,2.129,2.129,0,0,0-.64-1.89,3.629,3.629,0,0,1-.854-1.555c-.013-.046-.025-.088-.036-.127" transform="translate(-240.714 -363.117)"/><path d="M272.6,379.291c.18-.046.509.33.734.841s.263.962.084,1.007-.51-.33-.735-.841-.263-.961-.082-1.007" transform="translate(-240.716 -362.629)" fill="#2d6c41"/><path d="M273.374,381.164c-.2,0-.514-.371-.731-.863a1.428,1.428,0,0,1-.165-.959.152.152,0,0,1,.1-.089h0c.237,0,.548.369.764.858a1.428,1.428,0,0,1,.165.959.154.154,0,0,1-.1.089Zm-.755-1.856a.105.105,0,0,0-.087.061,1.409,1.409,0,0,0,.165.908c.229.518.523.827.676.827v.03l.024-.033a.1.1,0,0,0,.062-.057,1.416,1.416,0,0,0-.165-.909c-.226-.51-.526-.827-.675-.827" transform="translate(-240.706 -362.62)"/><path d="M272.31,380.206c.162-.028.436.292.611.714s.187.788.024.816-.435-.292-.611-.714-.186-.789-.024-.816" transform="translate(-240.642 -362.866)" fill="#2d6c41"/><path d="M272.914,381.758c-.179,0-.444-.315-.618-.735a1.087,1.087,0,0,1-.1-.78.143.143,0,0,1,.1-.076h0c.2,0,.469.315.642.732a1.088,1.088,0,0,1,.1.78.14.14,0,0,1-.1.076Zm-.594-1.534a.088.088,0,0,0-.074.047,1.076,1.076,0,0,0,.106.729c.179.431.431.7.562.7v.03l.016-.031a.081.081,0,0,0,.059-.046,1.077,1.077,0,0,0-.106-.729c-.179-.431-.431-.7-.562-.7" transform="translate(-240.631 -362.856)"/><path d="M271.838,380.674c.162-.024.43.3.6.727s.169.792.007.817-.43-.3-.6-.727-.171-.792-.008-.817" transform="translate(-240.518 -362.986)" fill="#2d6c41"/><path d="M272.413,382.24c-.18,0-.44-.322-.606-.749a1.09,1.09,0,0,1-.088-.783.146.146,0,0,1,.1-.074h0c.2,0,.461.321.627.746a1.092,1.092,0,0,1,.088.782.146.146,0,0,1-.1.075Zm-.568-1.547a.087.087,0,0,0-.073.046,1.081,1.081,0,0,0,.092.731c.171.438.418.709.55.709v.03l.013-.031a.083.083,0,0,0,.06-.046,1.078,1.078,0,0,0-.091-.73c-.171-.438-.419-.709-.55-.709" transform="translate(-240.508 -362.976)"/><path d="M272.294,379.22c.131-.024.359.212.51.527s.167.591.036.614-.359-.212-.51-.528-.167-.59-.036-.614" transform="translate(-240.644 -362.611)" fill="#2d6c41"/><path d="M272.812,380.385c-.147,0-.37-.234-.519-.546a.794.794,0,0,1-.1-.588.122.122,0,0,1,.088-.068h0c.171,0,.392.234.541.543a.8.8,0,0,1,.1.589.12.12,0,0,1-.088.068Zm-.509-1.145c-.1.112-.08.312.045.572.151.316.358.513.464.513v.03l.013-.031c.082-.111.067-.31-.059-.572-.151-.315-.358-.511-.464-.511" transform="translate(-240.634 -362.602)"/><path d="M271.923,379.522c.132-.016.345.232.476.553s.129.6,0,.615-.346-.231-.477-.554-.13-.6,0-.614" transform="translate(-240.545 -362.689)" fill="#2d6c41"/><path d="M272.373,380.711c-.148,0-.359-.247-.492-.574a.8.8,0,0,1-.065-.592.121.121,0,0,1,.093-.064h0c.164,0,.374.246.507.571a.8.8,0,0,1,.066.593.121.121,0,0,1-.093.064Zm-.448-1.17c-.1.109-.1.3.013.573.134.332.331.536.436.536v.03l.01-.03a.611.611,0,0,0-.022-.574c-.135-.332-.331-.536-.436-.536" transform="translate(-240.535 -362.679)"/><path d="M271.809,379.82c.228.556.32,1.055.206,1.115s-.391-.342-.619-.9Z" transform="translate(-240.435 -362.766)" fill="#2d6c41"/><path d="M272.007,380.965l-.065,0a1.986,1.986,0,0,1-.584-.915,2.525,2.525,0,0,0,.6.858c.105-.039.058-.468-.191-1.075l.056-.023c.21.513.344,1.074.192,1.153Z" transform="translate(-240.425 -362.762)"/><path d="M271.872,378.642c.132-.016.346.231.477.554s.128.6,0,.615-.346-.231-.476-.554-.13-.6,0-.615" transform="translate(-240.532 -362.462)" fill="#2d6c41"/><path d="M272.323,379.832c-.148,0-.358-.247-.491-.574a.793.793,0,0,1-.065-.592.12.12,0,0,1,.092-.065h0c.164,0,.375.246.507.572a.8.8,0,0,1,.065.593.123.123,0,0,1-.092.064Zm-.448-1.171a.58.58,0,0,0,.013.573c.129.321.329.536.435.536v.03l.01-.03c.091-.11.087-.306-.021-.574-.135-.332-.331-.536-.436-.536" transform="translate(-240.522 -362.452)"/><path d="M271.376,378.884c.133-.015.341.237.464.563s.116.6-.016.614-.341-.237-.464-.563-.117-.6.016-.614" transform="translate(-240.403 -362.525)" fill="#2d6c41"/><path d="M271.8,380.082c-.148,0-.355-.251-.481-.583a.8.8,0,0,1-.053-.594.126.126,0,0,1,.094-.062h0c.163,0,.369.251.495.582a.793.793,0,0,1,.053.594.126.126,0,0,1-.093.062Zm-.425-1.179a.581.581,0,0,0,0,.573c.123.326.319.545.424.545v.03l.008-.03a.608.608,0,0,0-.009-.574c-.123-.325-.319-.544-.424-.544" transform="translate(-240.392 -362.514)"/><path d="M271.327,378.8c.221.375.34.726.265.782s-.313-.2-.533-.578Z" transform="translate(-240.348 -362.504)" fill="#2d6c41"/><path d="M271.6,379.6c-.191-.013-.414-.306-.578-.586a1.992,1.992,0,0,0,.529.539c.052-.031-.007-.312-.26-.743l.052-.03c.167.281.372.734.257.821" transform="translate(-240.339 -362.499)"/><path d="M271.533,378.469c.221.375.34.726.265.783s-.313-.2-.533-.578Z" transform="translate(-240.401 -362.418)" fill="#2d6c41"/><path d="M271.807,379.269c-.191-.013-.414-.306-.578-.586a1.993,1.993,0,0,0,.529.539c.052-.031-.007-.313-.26-.744l.052-.03c.166.282.372.734.257.821" transform="translate(-240.392 -362.412)"/><path d="M272.421,378.54c.307.512.473.991.369,1.068s-.437-.276-.745-.788Z" transform="translate(-240.603 -362.436)" fill="#2d6c41"/><path d="M272.722,379.642c-.151-.03-.444-.364-.712-.811a2.493,2.493,0,0,0,.724.752c.1-.055-.012-.472-.349-1.033l.053-.03c.283.473.5,1.005.361,1.108Z" transform="translate(-240.594 -362.431)"/><path d="M271.846,378.177c.221.415.341.8.266.863s-.314-.223-.536-.637Z" transform="translate(-240.482 -362.342)" fill="#2d6c41"/><path d="M272.123,379.059c-.19-.011-.416-.335-.582-.646a2.158,2.158,0,0,0,.533.6c.05-.033-.008-.347-.264-.826l.053-.029c.166.311.372.807.26.9" transform="translate(-240.473 -362.337)"/><path d="M271.891,377.348c-.148.148,0,.427.133.527.151.137,1,1.037,1.606.28-.483-.009-1.382-1.14-1.739-.808" transform="translate(-240.547 -362.113)" fill="#8d5bc5"/><path d="M273.057,378.476h0a1.721,1.721,0,0,1-1.027-.553.611.611,0,0,1-.24-.4.253.253,0,0,1,.07-.206c.2-.192.591.07.993.37a1.825,1.825,0,0,0,.767.428.616.616,0,0,1-.563.36m-1.014-1.168a.183.183,0,0,0-.193.211.5.5,0,0,0,.182.323,1.746,1.746,0,0,0,1.025.574.677.677,0,0,0,.539-.289c-.2.047-.48-.167-.78-.391a1.789,1.789,0,0,0-.774-.428" transform="translate(-240.536 -362.104)"/><path d="M271.75,376.749c-.148.148,0,.427.133.528.151.137,1,1.036,1.605.28-.482-.009-1.383-1.14-1.738-.809" transform="translate(-240.51 -361.958)" fill="#8d5bc5"/><path d="M272.915,377.878h0a1.722,1.722,0,0,1-1.027-.553.614.614,0,0,1-.24-.4.257.257,0,0,1,.07-.206c.2-.193.591.07.993.371a1.825,1.825,0,0,0,.767.428.616.616,0,0,1-.563.36m-1.014-1.168a.2.2,0,0,0-.14.053.193.193,0,0,0-.052.159.5.5,0,0,0,.182.323,1.741,1.741,0,0,0,1.025.573.676.676,0,0,0,.539-.288c-.194.05-.479-.166-.78-.391a1.792,1.792,0,0,0-.774-.429" transform="translate(-240.5 -361.949)"/><path d="M271.568,376.176c-.148.148,0,.427.133.527.151.138,1,1.037,1.605.28-.482-.009-1.382-1.14-1.738-.808" transform="translate(-240.464 -361.81)" fill="#8d5bc5"/><path d="M272.733,377.3h0a1.722,1.722,0,0,1-1.028-.554.613.613,0,0,1-.239-.4.258.258,0,0,1,.07-.207c.2-.193.592.07.993.371a1.826,1.826,0,0,0,.767.427.616.616,0,0,1-.563.36m-1.014-1.168a.183.183,0,0,0-.192.211.5.5,0,0,0,.181.322,1.743,1.743,0,0,0,1.025.574.678.678,0,0,0,.539-.289c-.2.05-.479-.166-.78-.391a1.789,1.789,0,0,0-.774-.428" transform="translate(-240.453 -361.801)"/><path d="M271.172,375.52c-.148.149,0,.427.133.528.152.137,1,1.036,1.606.28-.482-.009-1.382-1.14-1.739-.809" transform="translate(-240.361 -361.641)" fill="#8d5bc5"/><path d="M272.338,376.649h0a1.727,1.727,0,0,1-1.026-.552.617.617,0,0,1-.241-.4.254.254,0,0,1,.07-.206c.2-.193.592.07.994.371a1.825,1.825,0,0,0,.767.428.617.617,0,0,1-.564.36m-1.014-1.169a.2.2,0,0,0-.141.053.193.193,0,0,0-.052.159.507.507,0,0,0,.182.323,1.752,1.752,0,0,0,1.025.573.676.676,0,0,0,.539-.288c-.194.047-.479-.166-.779-.391a1.794,1.794,0,0,0-.775-.429" transform="translate(-240.351 -361.632)"/><path d="M269.687,374.841a1.325,1.325,0,0,1,1.3-.071c.363.179.969.905,1.424,1.076a1.059,1.059,0,0,1-.72-.089,1.666,1.666,0,0,1-.96.395,1.178,1.178,0,0,1-1.215-.366.774.774,0,0,1,.171-.944" transform="translate(-239.926 -361.428)" fill="#8d5bc5"/><path d="M270.416,376.195a1.034,1.034,0,0,1-.937-.4.8.8,0,0,1,.179-.983,1.391,1.391,0,0,1,1.334-.074,3.281,3.281,0,0,1,.594.465,3.3,3.3,0,0,0,.826.61.4.4,0,0,1-.264.083,1.047,1.047,0,0,1-.479-.116,1.551,1.551,0,0,1-.943.4,2.148,2.148,0,0,1-.309.023m-.033-1.54a1.183,1.183,0,0,0-.688.2.739.739,0,0,0-.163.905,1.158,1.158,0,0,0,1.186.352,1.629,1.629,0,0,0,.947-.39,1.135,1.135,0,0,0,.732.085,2.065,2.065,0,0,1-.851-.563,3.247,3.247,0,0,0-.581-.456,1.282,1.282,0,0,0-.581-.134" transform="translate(-239.916 -361.419)"/><path d="M270.561,375.317c.145,0,.262.073.26.157s-.121.15-.266.148-.261-.073-.26-.157.12-.15.265-.148" transform="translate(-240.151 -361.604)" fill="#c20038"/><path d="M270.552,375.642h-.007c-.165,0-.292-.086-.29-.188s.128-.177.289-.177.3.086.3.188-.128.177-.289.177m0-.3c-.129,0-.233.053-.234.118s.1.124.231.126l.006.03v-.03c.122,0,.227-.053.229-.118s-.1-.124-.231-.126" transform="translate(-240.141 -361.594)"/><path d="M269.371,376.059c.19-.07.378-.033.421.082s-.076.266-.266.337-.378.034-.42-.082.076-.266.265-.337" transform="translate(-239.842 -361.786)" fill="#f3d02f"/><path d="M269.325,376.533a.254.254,0,0,1-.259-.137c-.049-.133.075-.3.283-.375s.413-.028.46.1-.075.3-.283.375a.572.572,0,0,1-.2.038m.224-.49a.531.531,0,0,0-.179.033c-.171.064-.284.2-.248.3s.215.128.381.065.285-.2.249-.3c-.022-.061-.1-.1-.2-.1" transform="translate(-239.831 -361.777)"/><path d="M270.6,375.4a.082.082,0,1,1-.1.079.09.09,0,0,1,.1-.079" transform="translate(-240.205 -361.625)"/><path d="M269.587,375.732a.314.314,0,0,1-.251.331.776.776,0,0,0-.421.553c-.292-.671-.107-.955.2-1.024.267-.085.427-.074.469.139" transform="translate(-239.757 -361.663)" fill="#f3d02f"/><path d="M268.911,376.7l-.033-.077a1.023,1.023,0,0,1-.094-.836.449.449,0,0,1,.318-.231c.323-.1.462-.05.5.164a.342.342,0,0,1-.272.366.756.756,0,0,0-.4.533Zm.447-1.133a.847.847,0,0,0-.241.047.39.39,0,0,0-.28.2.9.9,0,0,0,.065.709.766.766,0,0,1,.413-.493.288.288,0,0,0,.232-.3.172.172,0,0,0-.188-.165" transform="translate(-239.747 -361.652)"/><path d="M269.465,375.774a.068.068,0,1,1-.063.072.068.068,0,0,1,.063-.072" transform="translate(-239.92 -361.722)"/></g></g></g></svg>