<svg xmlns="http://www.w3.org/2000/svg" xmlns:xlink="http://www.w3.org/1999/xlink" width="36" height="36" viewBox="0 0 36 36"><defs><clipPath id="a"><circle cx="18" cy="18" r="18" transform="translate(396 912)" fill="none" stroke="#707070" stroke-width="1"/></clipPath><clipPath id="b"><rect width="61.717" height="36" fill="none"/></clipPath></defs><g transform="translate(-396 -912)" clip-path="url(#a)"><g transform="translate(166.335 555.258)"><g transform="translate(229.665 356.742)" clip-path="url(#b)"><rect width="61.719" height="24" fill="#ba0019"/><rect width="61.719" height="12.001" transform="translate(0 23.999)" fill="#3e9a13"/><rect width="7.921" height="36" fill="#fff"/><path d="M230.958,392.081h.354v-1h-.354Zm2.825,0h.354v-1h-.354Zm2.822,0h.354v-1H236.6Zm-4.234-2.656h.352V388.6h-.352Zm2.823,0h.354V388.6h-.354Zm-4.236-2.155h.354v-.995h-.354Zm2.825,0h.352v-.995h-.352Zm2.822,0h.354v-.995H236.6Zm-4.94,1.327h.352v-.829h.353v-.831h.352v.831h.353v.829h.352v.829h-.352v.83h-.353v.829h-.352v-.829h-.353v-.83h-.352Zm2.823,0h.353v-.829h.352v-.831h.354v.831h.352v.829h.354v.829H235.9v.83h-.352v.829h-.354v-.829h-.352v-.83h-.353Zm.706-3.317v.827h-.354v.829h-.352v.831h-.354v.829h-.352v-.829h-.354v-.831h-.352v-.829h-.353v-.827h-.352v.827h-.353v.829h-.352v.831h-.353v.829h-.354v.829h.354v.83h.353v.829h.352v.831h.353v.827h.354v-.827h.352v-.831h.352v-.829h.354v-.83h.353v.83h.352v.829h.353v.831h.352v.827h.354v-.827h.352v-.831h.354v-.829h.353v-.83h.352V388.6H236.6v-.829h-.352v-.831H235.9v-.829h-.352v-.827Zm.878-.829h.177v-.33h.177v.33h.176v.332h-.176v.332h-.177v-.332h-.177Zm0-1.159v.5H235.9v.5h-.177v.663h.177v.5h.176v.5h.53v-.5h.176v-.5h.177v-.663h-.177v-.5H236.6v-.5Zm-4.76,1.156h.177v-.332h.176v.332h.176v.332h-.176v.333h-.176v-.333h-.177Zm0-1.161v.5h-.177v.5h-.177v.665h.177v.5h.177v.5h.529v-.5h.177v-.5h.176v-.665h-.176v-.5h-.177v-.5Zm1.941,1.161h.176v-.332h.177v.332h.177v.332h-.177v.333h-.177v-.333h-.176Zm.881,0h.178v-.332h.176v.332h.176v.332h-.176v.333h-.176v-.333h-.178Zm0-1.161v.5h-.353v-.5h-.53v.5h-.177v.5H232.9v.665h.177v.5h.177v.5h.53v-.5h.352v.5h.53v-.5h.177v-.5h.177v-.665h-.177v-.5h-.177v-.5Zm-3.178-.332h.354v-.995h-.354Zm2.825,0h.354v-.995h-.354Zm2.822,0h.354v-.995H236.6Zm-5.647-4.148h.354v-.665h-.354Zm5.647,0h.354v-.665H236.6Zm-2.822-2.322h.354v-.83h-.354Zm-2.823-2.24v.995h.352v-.995Zm1.941,0v.995h.352v-.995Zm1.764,0v.995h.354v-.995Zm1.941,0v.995h.354v-.995Zm-2.293-.58V374h-.177v.25h-.353V374h-.177v-.33h-.353v.5h.176v.25h.177v.663h-.177v.248h-.176v.5h.353v-.333h.177v-.248h.353v.248h.177v.333h.352v-.5h-.176v-.248h-.176v-.663h.176v-.25h.176v-.5Zm-.53.163h.354V373h-.354Zm-2.825-2.487h.354v-.663h-.354Zm5.647,0h.354v-.663H236.6Zm-5.647-3.816h.354v-.995h-.354Zm2.825,0h.354v-.995h-.354Zm2.822,0h.354v-.995H236.6Zm-4.234,7.226v-.34h.352v-.581h.353v-.664h.53v-.782h.177v-.379h.353v.372h.177v.789h.529v.664h.352v.581h.354v.663h-.354v.581h-.352v.665h-.529v.785h-.177v.375h-.353V377.1h-.177v-.779h-.53v-.665h-.353v-.581h-.352Zm2.823-9.218v.832h-.354v.828h-.352v.831h-.354v.828h-.352v-.828h-.354v-.831h-.352v-.828h-.353v-.832h-.352v.832h-.353v.828h-.354v.831h-.352v.828h-.354v.829h.354v.832h.352v.829h.354v.83h.353v-.83h.352v-.829h.353v-.832h-.353v-.994h.353v.665h.352v1.327h.177l0,.821-.533.007v.665h-.353v.5h-.352v.831h-.353v-.831h-.354v-.5h-.352v-.5h-.354v1.494h.354v.664h.352v.581h.354v.663h-.354v.581h-.352v.665h-.354v1.492h.354v-.5h.352v-.5h.354v-.83h.353v.83h.352v.5h.353v.664l.533.007,0,.821h-.177v1.327h-.352v.666h-.353v-1h.353v-.828h-.353v-.831h-.352v-.828h-.353v.828h-.354v.831h-.352v.828h-.354v.832h.354v.828h.353v.832h.352v.828h.353v.829h.352v-.829h.353v-.83h.352v-.83h.354v-.828h.353v.828h.352v.83h.353v.83h.352v.829h.354v-.829h.352v-.83h.354v-.83h.352v-.828h.354V379.8H236.6v-.828h-.352v-.831H235.9v-.828h-.352v.828h-.354v.831h-.354v.828h.354v.995h-.354v-.663h-.352v-1.327h-.176v-.83h.529v-.662h.352v-.5h.354v-.83h.352v.83h.354v.5h.353v.5h.352V376.32h-.352v-.665h-.353v-.581H235.9v-.663h.354v-.581h.353v-.664h.352v-1.494h-.352v.5h-.353v.5H235.9v.831h-.352v-.831h-.354v-.5h-.352v-.665h-.529v-.828h.176v-1.327h.352v-.665h.354v1h-.354v.829h.354v.829h.354v.83h.352v-.83h.354v-.829h.352v-.829h.354v-.832H236.6v-.828h-.352v-.831H235.9v-.828h-.352v-.832Zm-3.882-.828h.176v-.333h.177v.333h.176v.332h-.176v.332h-.177v-.332h-.176Zm0-.663h-.177v.5h-.177v.666h.177v.5h.177v.5h.529v-.5h.177v-.5h.176v-.666h-.176v-.5h-.177v-.5h-.529Zm1.941.663h.176v-.333h.177v.333h.177v.332h-.177v.332h-.177v-.332h-.176Zm.881,0h.178v-.333h.176v.333h.176v.332h-.176v.332h-.176v-.332h-.178Zm-.881-.663h-.177v.5H232.9v.666h.177v.5h.177v.5h.53v-.5h.353v.5h.528v-.5h.177v-.5h.177v-.666h-.177v-.5h-.177v-.5h-.528v.5h-.353v-.5h-.53Zm2.819.66h.177v-.332h.177v.332h.176v.33h-.176v.332h-.177v-.332h-.177Zm0-1.163v.5H235.9v.5h-.177v.662h.177v.5h.176v.5h.53v-.5h.176v-.5h.177v-.662h-.177v-.5H236.6v-.5Zm-5.114-.327h.354v-.995h-.354Zm2.825,0h.354v-.995h-.354Zm2.822,0h.354v-.995H236.6Zm-4.234-2.322h.352v-.831h-.352Zm2.823,0h.354v-.831h-.354Zm-4.236-2.488h.354v-1h-.354Zm2.825,0h.354v-1h-.354Zm2.822,0h.354v-1H236.6Zm-4.94,1.658h.352v-.829h.353V358.4h.352v.829h.353v.829h.352v.831h-.352v.828h-.353v.831h-.352v-.831h-.353v-.828h-.352Zm2.823,0h.353v-.829h.352V358.4h.354v.829h.352v.829h.354v.831H235.9v.828h-.352v.831h-.354v-.831h-.352v-.828h-.353Zm.706-3.317v.829h-.352v.831h-.353v.829h-.352v.829h-.353v-.829h-.354V358.4h-.352v-.831h-.352v-.829h-.354v.829h-.353v.831h-.352v.829h-.353v.829h-.354v.831h.354v.828h.353v.831h.352v.828h.353v.829h.352v-.829h.353v-.828h.352v-.831h.354v-.828h.352v.828h.354v.831h.352v.828h.354v.829h.354v-.829h.352v-.828h.354v-.831h.352v-.828h.354v-.831h-.352v-.829h-.353V358.4H235.9v-.828h-.352v-.829Z" transform="translate(-229.999 -356.742)" fill="#ba0019"/></g></g></g></svg>