<svg xmlns="http://www.w3.org/2000/svg" xmlns:xlink="http://www.w3.org/1999/xlink" width="36" height="36" viewBox="0 0 36 36"><defs><clipPath id="a"><circle cx="18" cy="18" r="18" transform="translate(561 588)" fill="none" stroke="#707070" stroke-width="1"/></clipPath></defs><g transform="translate(-561 -588)" clip-path="url(#a)"><g transform="translate(532.635 231.167)"><rect width="61.714" height="35.999" transform="translate(16.079 356.834)" fill="#307359"/><rect width="9.72" height="35.999" transform="translate(32.945 356.834)" fill="#bf0236"/><path d="M38.813,368.568v-.278l.418-.7-.1-.14.244-.383-.07-.139-.174.278-.07-.139.558-.973.1.139-.1.139.174.278.418-.7-.418-.66-.174.243.1.139-.1.14-.558-.975.07-.138.174.277.07-.139-.244-.382.1-.139-.418-.7v-.278l.557.973-.07.139.244.382-.174.279.174.278.243-.418.558.974-.558.974-.243-.418-.174.278.174.278-.244.383.07.14Z" transform="translate(-5.868 -1.682)" fill="#e0852a" fill-rule="evenodd"/><path d="M38.813,365.741l.1.279v.417h.243l.139.139-.139.139h-.243v.418l-.1.278Z" transform="translate(-5.868 -2.299)" fill="#e0852a" fill-rule="evenodd"/><path d="M38.813,377.476V377.2l.418-.7-.1-.139.244-.418-.07-.139-.174.279-.07-.139.558-.939.1.139-.1.139.174.278.418-.7-.418-.66-.174.243.1.139-.1.139-.558-.975.07-.139.174.278.07-.139-.244-.417.1-.139-.418-.66v-.278l.557.938-.07.139.244.417-.174.279.174.278.243-.418.558.974-.558.939-.243-.383-.174.278.174.244-.244.418.07.139Z" transform="translate(-5.868 -3.981)" fill="#e0852a" fill-rule="evenodd"/><path d="M38.813,374.649l.1.278v.417h.243l.139.139-.139.139h-.243v.418l-.1.278Z" transform="translate(-5.868 -4.598)" fill="#e0852a" fill-rule="evenodd"/><path d="M38.813,386.371v-.278l.418-.7-.1-.139.244-.418-.07-.139-.174.279-.07-.139.558-.939.1.1-.1.139.174.278.418-.661-.418-.7-.174.278.1.139-.1.14-.558-.974.07-.139.174.278.07-.139-.244-.417.1-.139-.418-.7v-.278l.557.973-.07.139.244.417-.174.278.174.278.243-.417.558.973-.558.939-.243-.417-.174.278.174.278-.244.418.07.139Z" transform="translate(-5.868 -6.268)" fill="#e0852a" fill-rule="evenodd"/><path d="M38.813,383.556l.1.278v.417h.243l.139.14-.139.139h-.243v.383l-.1.278Z" transform="translate(-5.868 -6.897)" fill="#e0852a" fill-rule="evenodd"/><path d="M38.813,394.716v-.278l.418-.7-.1-.14.244-.418-.07-.139-.174.278-.07-.139.558-.973.1.139-.1.14.174.278.418-.7-.418-.66-.174.278.1.139-.1.14-.558-.974.07-.139.174.278.07-.139-.244-.417.1-.139-.418-.7v-.278l.557.973-.07.139.244.417-.174.278.174.278.243-.417.558.973-.558.939-.243-.418-.174.278.174.278-.244.418.07.14Z" transform="translate(-5.868 -8.422)" fill="#e0852a" fill-rule="evenodd"/><path d="M38.813,391.9l.1.278v.417h.243l.139.1-.139.14h-.243v.417l-.1.278Z" transform="translate(-5.868 -9.051)" fill="#e0852a" fill-rule="evenodd"/><path d="M51.382,368.568v-.278l-.418-.7.1-.14-.245-.383.07-.139.175.278.069-.139-.557-.973-.1.139.1.139-.174.278-.384-.7.384-.66.174.243-.1.139.1.14.557-.975-.069-.138-.175.277-.07-.139.245-.382-.1-.139.418-.7v-.278l-.558.973.07.139-.243.382.174.279-.174.278-.244-.418-.557.974.557.974.244-.418.174.278-.174.278.243.383-.07.14Z" transform="translate(-8.716 -1.682)" fill="#e0852a" fill-rule="evenodd"/><path d="M51.745,365.741l-.07.279v.417h-.243l-.175.139.175.139h.243v.418l.07.278Z" transform="translate(-9.079 -2.299)" fill="#e0852a" fill-rule="evenodd"/><path d="M51.382,377.476V377.2l-.418-.7.1-.139-.245-.418.07-.139.175.279.069-.139-.557-.939-.1.139.1.139-.174.278-.384-.7.384-.66.174.243-.1.139.1.139.557-.975-.069-.139-.175.278-.07-.139.245-.417-.1-.139.418-.66v-.278l-.558.938.07.139-.243.417.174.279-.174.278-.244-.418-.557.974.557.939.244-.383.174.278-.174.244.243.418-.07.139Z" transform="translate(-8.716 -3.981)" fill="#e0852a" fill-rule="evenodd"/><path d="M51.745,374.649l-.07.278v.417h-.243l-.175.139.175.139h.243v.418l.07.278Z" transform="translate(-9.079 -4.598)" fill="#e0852a" fill-rule="evenodd"/><path d="M51.382,386.371v-.278l-.418-.7.1-.139-.245-.418.07-.139.175.279.069-.139-.557-.939-.1.1.1.139-.174.278-.384-.661.384-.7.174.278-.1.139.1.14.557-.974-.069-.139-.175.278-.07-.139.245-.417-.1-.139.418-.7v-.278l-.558.973.07.139-.243.417.174.278-.174.278-.244-.417-.557.973.557.939.244-.417.174.278-.174.278.243.418-.07.139Z" transform="translate(-8.716 -6.268)" fill="#e0852a" fill-rule="evenodd"/><path d="M51.745,383.556l-.07.278v.417h-.243l-.175.14.175.139h.243v.383l.07.278Z" transform="translate(-9.079 -6.897)" fill="#e0852a" fill-rule="evenodd"/><path d="M51.382,394.716v-.278l-.418-.7.1-.14-.245-.418.07-.139.175.278.069-.139-.557-.973-.1.139.1.14-.174.278-.384-.7.384-.66.174.278-.1.139.1.14.557-.974-.069-.139-.175.278-.07-.139.245-.417-.1-.139.418-.7v-.278l-.558.973.07.139-.243.417.174.278-.174.278-.244-.417-.557.973.557.939.244-.418.174.278-.174.278.243.418-.07.14Z" transform="translate(-8.716 -8.422)" fill="#e0852a" fill-rule="evenodd"/><path d="M51.745,391.9l-.07.278v.417h-.243l-.175.1.175.14h.243v.417l.07.278Z" transform="translate(-9.079 -9.051)" fill="#e0852a" fill-rule="evenodd"/><path d="M38.813,359.477V359.2l.418-.7-.1-.139.244-.418-.07-.139-.174.278-.07-.139.558-.973.1.139-.1.139.174.278.418-.7h.139l-.558.974-.243-.418-.174.278.174.278-.244.418.07.139Z" transform="translate(-5.868 0)" fill="#e0852a" fill-rule="evenodd"/><path d="M38.813,356.834H39.3l-.139.139h-.243v.418l-.1.278Z" transform="translate(-5.868 0)" fill="#e0852a" fill-rule="evenodd"/><path d="M51.382,359.477V359.2l-.418-.7.1-.139-.245-.418.07-.139.175.278.069-.139-.557-.973-.1.139.1.139-.174.278-.384-.7h-.174l.557.974.244-.418.174.278-.174.278.243.418-.07.139Z" transform="translate(-8.716 0)" fill="#e0852a" fill-rule="evenodd"/><path d="M51.745,356.834h-.488l.175.139h.243v.418l.07.278Z" transform="translate(-9.079 0)" fill="#e0852a" fill-rule="evenodd"/><path d="M44.261,404.685a1.965,1.965,0,0,1,1.255-.7c.87-.139,1.01.382,1.532.382a4.08,4.08,0,0,0,1.289-.382,2.668,2.668,0,0,1-1.429.66c-.591,0-.8-.348-1.427-.278a5.167,5.167,0,0,0-1.22.313" transform="translate(-7.274 -12.165)" fill="#e0852a" fill-rule="evenodd"/><path d="M45.156,404.685a1.95,1.95,0,0,0-1.22-.7c-.87-.139-1.045.382-1.533.382a3.772,3.772,0,0,1-1.289-.382,2.516,2.516,0,0,0,1.394.66c.626,0,.835-.348,1.463-.278a4.647,4.647,0,0,1,1.185.313" transform="translate(-6.461 -12.165)" fill="#e0852a" fill-rule="evenodd"/><path d="M42.42,403.472c-.1-.139-.279-.765-.174-.835.139-.035.558.591.523,1.148-.279.1-1.185-.07-1.185-.208.07-.243.592-.174.836-.1" transform="translate(-6.583 -11.822)" fill="#e0852a" fill-rule="evenodd"/><path d="M41.679,402.758c-.07-.174-.139-.835-.035-.87.174,0,.453.7.314,1.252-.279.034-1.15-.348-1.08-.522.105-.209.593,0,.8.139" transform="translate(-6.399 -11.628)" fill="#e0852a" fill-rule="evenodd"/><path d="M41.069,401.926c-.035-.139-.035-.8.07-.835.174,0,.384.766.174,1.252-.279.035-1.115-.487-1.045-.625.139-.208.593.07.8.208" transform="translate(-6.242 -11.423)" fill="#e0852a" fill-rule="evenodd"/><path d="M40.612,401.082c-.036-.173.07-.835.174-.835.174.035.279.835,0,1.287-.279-.035-1.01-.661-.94-.8.139-.174.592.175.766.348" transform="translate(-6.133 -11.205)" fill="#e0852a" fill-rule="evenodd"/><path d="M40.295,400.2c0-.174.139-.8.279-.8.139.07.174.835-.14,1.287-.313-.1-.94-.87-.87-.974.174-.139.557.278.732.487" transform="translate(-6.06 -10.987)" fill="#e0852a" fill-rule="evenodd"/><path d="M40.461,399.171c-.036.661-.174.661-.418.174-.139-.174-.139-.974-.034-.974.139-.035.453.522.453.8" transform="translate(-6.157 -10.72)" fill="#e0852a" fill-rule="evenodd"/><path d="M47.977,403.566c.07-.139.243-.765.139-.835-.139-.035-.556.591-.522,1.148.278.1,1.185-.07,1.185-.208-.07-.243-.593-.174-.8-.1" transform="translate(-8.133 -11.846)" fill="#e0852a" fill-rule="evenodd"/><path d="M48.7,402.852c.07-.174.139-.835.035-.869-.174,0-.453.7-.314,1.252.279.034,1.15-.348,1.115-.522-.1-.209-.593,0-.836.139" transform="translate(-8.339 -11.653)" fill="#e0852a" fill-rule="evenodd"/><path d="M49.313,402.019c.035-.139.07-.8-.07-.835-.139,0-.383.766-.174,1.252.279.035,1.115-.487,1.045-.625-.139-.208-.592.07-.8.208" transform="translate(-8.494 -11.447)" fill="#e0852a" fill-rule="evenodd"/><path d="M49.779,401.176c.034-.174-.036-.835-.174-.835-.14.035-.279.835,0,1.287.278-.035,1.01-.661.94-.8-.139-.174-.558.175-.766.349" transform="translate(-8.611 -11.229)" fill="#e0852a" fill-rule="evenodd"/><path d="M50.093,400.3c0-.174-.139-.8-.278-.8-.139.07-.174.835.174,1.287.279-.07.906-.87.836-.974-.174-.139-.557.278-.732.487" transform="translate(-8.681 -11.011)" fill="#e0852a" fill-rule="evenodd"/><path d="M50.177,399.265c0,.661.139.661.384.174.139-.174.139-.973.034-.973-.139-.036-.418.522-.418.8" transform="translate(-8.801 -10.745)" fill="#e0852a" fill-rule="evenodd"/><path d="M47.569,388.968h-.487v.417h-.453v.418H44.746l-.314.417.175.209h.766l.174-.209h-.8l.174-.208H46l-.453.626H44.432l-.313-.208-.313.208h-1.08l-.453-.626h1.08l.139.208h-.766l.174.209h.766l.14-.209-.314-.417H41.785v-.418h-.453v-.417h-.453v-1.913h.453v-.418h.453v-.417h1.707l.314-.418-.14-.208H42.9l-.174.208h.766l-.139.21h-1.08l.453-.627h1.08l.313.208.313-.208h1.115l.453.627h-1.08l-.174-.21h.8l-.174-.208h-.766l-.175.208.314.418h1.881v.417h.453v.418h.487Z" transform="translate(-6.401 -7.369)" fill="#c03f2a" fill-rule="evenodd"/><path d="M47.569,388.968h-.487v.417h-.453v.418H44.746l-.314.417.175.209h.766l.174-.209h-.8l.174-.208H46l-.453.626H44.432l-.313-.208-.313.208h-1.08l-.453-.626h1.08l.139.208h-.766l.174.209h.766l.14-.209-.314-.417H41.785v-.418h-.453v-.417h-.453v-1.913h.453v-.418h.453v-.417h1.707l.314-.418-.14-.208H42.9l-.174.208h.766l-.139.21h-1.08l.453-.627h1.08l.313.208.313-.208h1.115l.453.627h-1.08l-.174-.21h.8l-.174-.208h-.766l-.175.208.314.418h1.881v.417h.453v.418h.487Z" transform="translate(-6.401 -7.369)" fill="none" stroke="#292c2f" stroke-linecap="square" stroke-miterlimit="10" stroke-width="1"/><path d="M41.067,387.443V388.9h.453v.417h.488v.418h1.533l.627.625.627-.625H46.5v-.418h.487V388.9h.454v-1.5h-.454v-.417l-.487.035v-.453H44.795l-.627-.626-.627.626H42.008v.453H41.52v.417Z" transform="translate(-6.449 -7.514)" fill="#307359" fill-rule="evenodd"/><path d="M41.135,388.856h-.208v-1.462h.208Zm-.1.1h-.1v-.1h.1Zm0-.208h.453v.208h-.453Zm.453,0h.1v.1h-.1Zm.1.522h-.208v-.417h.208Zm-.1.1h-.105v-.1h.105Zm0-.208h.487v.208h-.487Zm.487,0h.1v.1h-.1Zm.1.522h-.208v-.417h.208Zm-.1.1h-.1v-.1h.1Zm0-.208H43.5v.208H41.971Zm1.533,0h.1l-.1.1Zm.1,0,.593.625-.14.174-.626-.626Zm.593.8-.07.07-.07-.07.07-.07Zm-.14-.174.628-.625.139.174-.627.626Zm.628-.625h.07v.1Zm.07,0h1.707v.208H44.759Zm1.812.208h-.105v-.1h.105Zm-.209-.522h.209v.417h-.209Zm0-.1h.1v.1h-.1Zm.1,0h.487v.208h-.487Zm.592.208h-.105v-.1h.105Zm-.209-.522h.209v.417h-.209Zm0-.1h.1v.1h-.1Zm.1,0h.453v.208h-.453Zm.558.208h-.1v-.1h.1Zm-.209-1.6h.209v1.5H47.3Zm.1-.1h.1v.1h-.1Zm0,.208h-.453v-.208h.453Zm-.453,0h-.1v-.1h.1Zm-.1-.522h.209v.417h-.209Zm.1-.1h.105v.1h-.105Zm0,.208-.487.035v-.209l.487-.034Zm-.487.035h-.1v-.1h.1Zm-.1-.557h.209v.453h-.209Zm.1-.1h.105v.1h-.105Zm0,.208H44.759v-.208h1.707Zm-1.707,0h-.07l.07-.1Zm-.07,0L44.061,386l.14-.174.627.627Zm-.628-.8.07-.07.07.07-.07.07Zm.14.174-.593.626-.174-.174.626-.627Zm-.593.626h-.1v-.1Zm-.1,0H41.971v-.208H43.5Zm-1.637-.208h.1v.1h-.1Zm.209.556h-.208v-.453h.208Zm0,.1h-.1v-.1h.1Zm-.1,0h-.487v-.208h.487Zm-.593-.209h.105v.1h-.105Zm.209.522h-.208v-.417h.208Zm0,.1h-.1v-.1h.1Zm-.1,0h-.453v-.209h.453Zm-.557-.209h.1v.1h-.1Z" transform="translate(-6.413 -7.466)" fill="#e0852a"/><path d="M43.7,387.073l-.941,1.043v-1.043Z" transform="translate(-6.886 -7.805)" fill="#c03f2a" fill-rule="evenodd"/><path d="M46.515,387.073l.941,1.043v-1.043Z" transform="translate(-7.855 -7.805)" fill="#c03f2a" fill-rule="evenodd"/><path d="M43.7,390.414l-.941-1.044v1.044Z" transform="translate(-6.886 -8.398)" fill="#c03f2a" fill-rule="evenodd"/><path d="M46.515,390.414l.941-1.044v1.044Z" transform="translate(-7.855 -8.398)" fill="#c03f2a" fill-rule="evenodd"/><path d="M46.828,387.917l-.313.417h.627Z" transform="translate(-7.855 -8.023)" fill="#c03f2a" fill-rule="evenodd"/><path d="M43.494,387.917l-.313.417h.627Z" transform="translate(-6.995 -8.023)" fill="#c03f2a" fill-rule="evenodd"/><path d="M43.494,389.788l-.313-.418h.627Z" transform="translate(-6.995 -8.398)" fill="#c03f2a" fill-rule="evenodd"/><path d="M46.828,389.788l-.313-.418h.627Z" transform="translate(-7.855 -8.398)" fill="#c03f2a" fill-rule="evenodd"/><path d="M45.137,391.195l-.313-.417h.627Z" transform="translate(-7.419 -8.761)" fill="#e0852a" fill-rule="evenodd"/><path d="M45.137,388.334l-.313-.417h.627Z" transform="translate(-7.419 -8.023)" fill="#e0852a" fill-rule="evenodd"/><path d="M45.137,386.511l-.313.417h.627Z" transform="translate(-7.419 -7.66)" fill="#e0852a" fill-rule="evenodd"/><path d="M45.137,389.37l-.313.418h.627Z" transform="translate(-7.419 -8.398)" fill="#e0852a" fill-rule="evenodd"/><rect width="0.627" height="0.209" transform="translate(38.66 380.311)" fill="#e0852a"/><rect width="0.627" height="0.209" stroke-width="1" fill="none" stroke="#292c2f" stroke-linecap="square" stroke-miterlimit="10" transform="translate(38.66 380.311)"/><rect width="0.314" height="0.243" transform="translate(36.325 380.521)" fill="#cf3b1d"/><rect width="0.314" height="0.243" stroke-width="1" fill="none" stroke="#292c2f" stroke-linecap="square" stroke-miterlimit="10" transform="translate(36.325 380.521)"/><rect width="0.314" height="0.243" transform="translate(38.833 380.521)" fill="#cf3b1d"/><rect width="0.314" height="0.243" stroke-width="1" fill="none" stroke="#292c2f" stroke-linecap="square" stroke-miterlimit="10" transform="translate(38.833 380.521)"/><rect width="0.627" height="0.208" transform="translate(37.405 379.268)" fill="#ad3b2b"/><rect width="0.627" height="0.208" stroke-width="1" fill="none" stroke="#292c2f" stroke-linecap="square" stroke-miterlimit="10" transform="translate(37.405 379.268)"/><rect width="0.627" height="0.208" transform="translate(37.405 379.686)" fill="#ad3b2b"/><rect width="0.627" height="0.208" stroke-width="1" fill="none" stroke="#292c2f" stroke-linecap="square" stroke-miterlimit="10" transform="translate(37.405 379.686)"/><rect width="0.941" height="0.208" transform="translate(37.266 379.477)" fill="#ad3b2b"/><rect width="0.941" height="0.208" stroke-width="1" fill="none" stroke="#292c2f" stroke-linecap="square" stroke-miterlimit="10" transform="translate(37.266 379.477)"/><rect width="0.627" height="0.208" transform="translate(37.405 381.391)" fill="#ad3b2b"/><rect width="0.627" height="0.208" stroke-width="1" fill="none" stroke="#292c2f" stroke-linecap="square" stroke-miterlimit="10" transform="translate(37.405 381.391)"/><rect width="0.627" height="0.208" transform="translate(37.405 381.808)" fill="#ad3b2b"/><rect width="0.627" height="0.208" stroke-width="1" fill="none" stroke="#292c2f" stroke-linecap="square" stroke-miterlimit="10" transform="translate(37.405 381.808)"/><rect width="0.941" height="0.208" transform="translate(37.266 381.599)" fill="#ad3b2b"/><rect width="0.941" height="0.208" stroke-width="1" fill="none" stroke="#292c2f" stroke-linecap="square" stroke-miterlimit="10" transform="translate(37.266 381.599)"/><rect width="0.627" height="0.208" transform="translate(38.66 380.765)" fill="#e0852a"/><rect width="0.627" height="0.208" stroke-width="1" fill="none" stroke="#292c2f" stroke-linecap="square" stroke-miterlimit="10" transform="translate(38.66 380.765)"/><rect width="0.627" height="0.209" transform="translate(36.186 380.311)" fill="#e0852a"/><rect width="0.627" height="0.209" stroke-width="1" fill="none" stroke="#292c2f" stroke-linecap="square" stroke-miterlimit="10" transform="translate(36.186 380.311)"/><rect width="0.627" height="0.208" transform="translate(36.186 380.765)" fill="#e0852a"/><rect width="0.627" height="0.208" stroke-width="1" fill="none" stroke="#292c2f" stroke-linecap="square" stroke-miterlimit="10" transform="translate(36.186 380.765)"/><rect width="0.314" height="0.243" transform="translate(36.011 380.521)" fill="#e0852a"/><rect width="0.314" height="0.243" stroke-width="1" fill="none" stroke="#292c2f" stroke-linecap="square" stroke-miterlimit="10" transform="translate(36.011 380.521)"/><rect width="0.314" height="0.243" transform="translate(36.639 380.521)" fill="#e0852a"/><rect width="0.314" height="0.243" stroke-width="1" fill="none" stroke="#292c2f" stroke-linecap="square" stroke-miterlimit="10" transform="translate(36.639 380.521)"/><rect width="0.314" height="0.243" transform="translate(38.519 380.521)" fill="#e0852a"/><rect width="0.314" height="0.243" stroke-width="1" fill="none" stroke="#292c2f" stroke-linecap="square" stroke-miterlimit="10" transform="translate(38.519 380.521)"/><rect width="0.279" height="0.243" transform="translate(39.147 380.521)" fill="#e0852a"/><rect width="0.279" height="0.243" stroke-width="1" fill="none" stroke="#292c2f" stroke-linecap="square" stroke-miterlimit="10" transform="translate(39.147 380.521)"/><path d="M44.752,390.331a.034.034,0,0,1-.036.035l-.035-.035a.122.122,0,0,1,.035-.07c.036,0,.036.035.036.07" transform="translate(-7.382 -8.628)" fill="#fff" fill-rule="evenodd"/><path d="M45.3,390.331a.122.122,0,0,1-.07.035l-.035-.035a.122.122,0,0,1,.035-.07.075.075,0,0,1,.07.07" transform="translate(-7.516 -8.628)" fill="#fff" fill-rule="evenodd"/><path d="M45.82,390.3a.122.122,0,0,1-.035.07.075.075,0,0,1-.07-.07.122.122,0,0,1,.07-.035Z" transform="translate(-7.649 -8.628)" fill="#fff" fill-rule="evenodd"/><path d="M44.988,390.05l-.035.035a.034.034,0,0,1-.035-.035c0-.035,0-.07.035-.07a.122.122,0,0,1,.035.07" transform="translate(-7.443 -8.555)" fill="#fff" fill-rule="evenodd"/><path d="M45.6,390.015c0,.035,0,.07-.035.07s-.035-.035-.035-.07a.035.035,0,0,1,.07,0" transform="translate(-7.601 -8.555)" fill="#fff" fill-rule="evenodd"/><path d="M44.988,390.578a.122.122,0,0,1-.035.07c-.035,0-.035-.035-.035-.07a.034.034,0,0,1,.035-.035Z" transform="translate(-7.443 -8.7)" fill="#fff" fill-rule="evenodd"/><path d="M45.6,390.612c0,.035,0,.035-.035.035s-.035,0-.035-.035,0-.07.035-.07.035.035.035.07" transform="translate(-7.601 -8.7)" fill="#fff" fill-rule="evenodd"/><path d="M46.444,388.889a.122.122,0,0,1-.035.07c-.035,0-.035-.035-.035-.07s0-.035.035-.035a.034.034,0,0,1,.035.035" transform="translate(-7.819 -8.264)" fill="#fff" fill-rule="evenodd"/><path d="M46.959,388.889c0,.035,0,.07-.036.07s-.035-.035-.035-.07,0-.035.035-.035.036,0,.036.035" transform="translate(-7.952 -8.264)" fill="#fff" fill-rule="evenodd"/><path d="M47.476,388.889c0,.035,0,.07-.035.07s-.036-.035-.036-.07,0-.035.036-.035.035,0,.035.035" transform="translate(-8.085 -8.264)" fill="#fff" fill-rule="evenodd"/><path d="M46.631,388.608c0,.035,0,.07-.035.07a.122.122,0,0,1-.035-.07.034.034,0,0,1,.035-.035c.035,0,.035,0,.035.035" transform="translate(-7.867 -8.192)" fill="#fff" fill-rule="evenodd"/><path d="M47.276,388.608a.121.121,0,0,1-.036.07.075.075,0,0,1-.07-.07c0-.035.035-.035.07-.035a.035.035,0,0,1,.036.035" transform="translate(-8.025 -8.192)" fill="#fff" fill-rule="evenodd"/><path d="M46.631,389.171c0,.034,0,.07-.035.07a.125.125,0,0,1-.035-.07.034.034,0,0,1,.035-.036c.035,0,.035,0,.035.036" transform="translate(-7.867 -8.337)" fill="#fff" fill-rule="evenodd"/><path d="M47.276,389.171a.124.124,0,0,1-.036.07.076.076,0,0,1-.07-.07.121.121,0,0,1,.07-.036Z" transform="translate(-8.025 -8.337)" fill="#fff" fill-rule="evenodd"/><path d="M44.752,387.483c0,.035,0,.07-.036.07a.122.122,0,0,1-.035-.07l.035-.035a.034.034,0,0,1,.036.035" transform="translate(-7.382 -7.902)" fill="#fff" fill-rule="evenodd"/><path d="M45.269,387.483c0,.035,0,.07-.036.07a.122.122,0,0,1-.035-.07l.035-.035a.034.034,0,0,1,.036.035" transform="translate(-7.516 -7.902)" fill="#fff" fill-rule="evenodd"/><path d="M45.82,387.483a.075.075,0,0,1-.07.07.122.122,0,0,1-.035-.07.034.034,0,0,1,.035-.035c.035,0,.07,0,.07.035" transform="translate(-7.649 -7.902)" fill="#fff" fill-rule="evenodd"/><path d="M44.988,387.2a.122.122,0,0,1-.035.07c-.035,0-.035-.035-.035-.07a.034.034,0,0,1,.035-.035Z" transform="translate(-7.443 -7.829)" fill="#fff" fill-rule="evenodd"/><path d="M45.6,387.2c0,.035,0,.07-.035.07s-.035-.035-.035-.07,0-.035.035-.035.035,0,.035.035" transform="translate(-7.601 -7.829)" fill="#fff" fill-rule="evenodd"/><path d="M44.976,387.764a.122.122,0,0,1-.035.07.075.075,0,0,1-.07-.07c0-.035.035-.035.07-.035a.034.034,0,0,1,.035.035" transform="translate(-7.431 -7.974)" fill="#fff" fill-rule="evenodd"/><path d="M45.6,387.8a.035.035,0,1,1-.07,0c0-.035,0-.07.035-.07s.035.035.035.07" transform="translate(-7.601 -7.974)" fill="#fff" fill-rule="evenodd"/><path d="M43.1,388.924a.034.034,0,0,1-.035.035c-.036,0-.07,0-.07-.035a.074.074,0,0,1,.07-.07.122.122,0,0,1,.035.07" transform="translate(-6.946 -8.264)" fill="#fff" fill-rule="evenodd"/><path d="M43.625,388.924a.034.034,0,0,1-.035.035c-.035,0-.035,0-.035-.035s0-.07.035-.07a.122.122,0,0,1,.035.07" transform="translate(-7.091 -8.264)" fill="#fff" fill-rule="evenodd"/><path d="M44.142,388.924l-.035.035a.034.034,0,0,1-.035-.035c0-.035,0-.07.035-.07a.122.122,0,0,1,.035.07" transform="translate(-7.225 -8.264)" fill="#fff" fill-rule="evenodd"/><path d="M43.3,388.643c0,.035,0,.035-.035.035s-.035,0-.035-.035,0-.07.035-.07.035.035.035.07" transform="translate(-7.007 -8.192)" fill="#fff" fill-rule="evenodd"/><path d="M43.908,388.643a.034.034,0,0,1-.035.035l-.035-.035a.122.122,0,0,1,.035-.07c.035,0,.035.035.035.07" transform="translate(-7.164 -8.192)" fill="#fff" fill-rule="evenodd"/><path d="M43.3,389.2a.035.035,0,1,1-.07,0c0-.034,0-.07.035-.07s.035.036.035.07" transform="translate(-7.007 -8.337)" fill="#fff" fill-rule="evenodd"/><path d="M43.908,389.2c0,.036,0,.036-.035.036a.034.034,0,0,1-.035-.036.125.125,0,0,1,.035-.07c.035,0,.035.036.035.07" transform="translate(-7.164 -8.337)" fill="#fff" fill-rule="evenodd"/><path d="M46.092,382.711l.279-.139.243.139Z" transform="translate(-7.746 -6.643)" fill="#fff" fill-rule="evenodd"/><path d="M45.012,382.711l.279-.139.243.139Z" transform="translate(-7.467 -6.643)" fill="#fff" fill-rule="evenodd"/><path d="M43.932,382.711l.279-.139.243.139Z" transform="translate(-7.189 -6.643)" fill="#fff" fill-rule="evenodd"/><path d="M46.092,377.838l.279.139.243-.139Z" transform="translate(-7.746 -5.421)" fill="#fff" fill-rule="evenodd"/><path d="M45.012,377.838l.279.139.243-.139Z" transform="translate(-7.467 -5.421)" fill="#fff" fill-rule="evenodd"/><path d="M43.932,377.838l.279.139.243-.139Z" transform="translate(-7.189 -5.421)" fill="#fff" fill-rule="evenodd"/><path d="M45.373,382.666l-.313.278-.314-.278-.314.278-.313-.278v.139l.209.139-.1.1v.139h.1l.1-.139.1.139h.105v-.139l-.105-.1.209-.139.209.139-.1.1v.139h.1l.1-.139.1.139h.1v-.139l-.1-.1.208-.139.209.139-.1.1v.139h.1l.07-.139.1.139h.1v-.139l-.1-.1.209-.139v-.139l-.314.278Z" transform="translate(-7.237 -6.667)" fill="#307359" fill-rule="evenodd"/><path d="M45.373,377.621l-.313-.243-.314.243-.314-.243-.313.243v-.105l.209-.138-.1-.1v-.139h.1l.1.139.1-.139h.105v.139l-.105.1.209.138.209-.138-.1-.1v-.139h.1l.1.139.1-.139h.1v.139l-.1.1.208.138.209-.138-.1-.1v-.139h.1l.07.139.1-.139h.1v.139l-.1.1.209.138v.105l-.314-.243Z" transform="translate(-7.237 -5.239)" fill="#307359" fill-rule="evenodd"/><path d="M48.956,380.228l.349-.278-.349-.243.349-.278-.349-.278h.174l.174.174.174-.069h.174v.069l-.174.1.174.07v.1h-.174l-.174-.1-.174.208.174.174.174-.1h.174v.1l-.174.07.174.1v.1h-.174l-.174-.1-.174.174.174.174.174-.069h.174v.069l-.174.1.174.1v.069h-.174l-.174-.069-.174.174h-.174l.349-.278Z" transform="translate(-8.485 -5.76)" fill="#307359" fill-rule="evenodd"/><path d="M41.541,380.228l-.349-.278.349-.243-.349-.278.349-.278h-.174l-.175.174-.174-.069h-.139v.069l.139.1-.139.07v.1h.139l.174-.1.175.208-.175.174-.174-.1h-.139v.1l.139.07-.139.1v.1h.139l.174-.1.175.174-.175.174-.174-.069h-.139v.069l.139.1-.139.1v.069h.139l.174-.069.175.174h.174l-.349-.278Z" transform="translate(-6.401 -5.76)" fill="#307359" fill-rule="evenodd"/><rect width="0.139" height="0.139" transform="translate(40.61 375.373)" fill="#307359"/><rect width="0.139" height="0.139" stroke-width="1" fill="none" stroke="#292c2f" stroke-linecap="square" stroke-miterlimit="10" transform="translate(40.61 375.373)"/><rect width="0.139" height="0.139" transform="translate(40.471 375.512)" fill="#307359"/><rect width="0.139" height="0.139" stroke-width="1" fill="none" stroke="#292c2f" stroke-linecap="square" stroke-miterlimit="10" transform="translate(40.471 375.512)"/><rect width="0.139" height="0.139" transform="translate(39.808 376.138)" fill="#307359"/><rect width="0.139" height="0.139" stroke-width="1" fill="none" stroke="#292c2f" stroke-linecap="square" stroke-miterlimit="10" transform="translate(39.808 376.138)"/><rect width="0.139" height="0.139" transform="translate(39.948 375.999)" fill="#307359"/><rect width="0.139" height="0.139" stroke-width="1" fill="none" stroke="#292c2f" stroke-linecap="square" stroke-miterlimit="10" transform="translate(39.948 375.999)"/><rect width="0.139" height="0.139" transform="translate(35.524 375.999)" fill="#307359"/><rect width="0.139" height="0.139" stroke-width="1" fill="none" stroke="#292c2f" stroke-linecap="square" stroke-miterlimit="10" transform="translate(35.524 375.999)"/><rect width="0.139" height="0.139" transform="translate(34.862 375.373)" fill="#307359"/><rect width="0.139" height="0.139" stroke-width="1" fill="none" stroke="#292c2f" stroke-linecap="square" stroke-miterlimit="10" transform="translate(34.862 375.373)"/><rect width="0.139" height="0.139" transform="translate(35.001 375.512)" fill="#307359"/><rect width="0.139" height="0.139" stroke-width="1" fill="none" stroke="#292c2f" stroke-linecap="square" stroke-miterlimit="10" transform="translate(35.001 375.512)"/><rect width="0.139" height="0.139" transform="translate(35.001 372.765)" fill="#307359"/><rect width="0.139" height="0.139" stroke-width="1" fill="none" stroke="#292c2f" stroke-linecap="square" stroke-miterlimit="10" transform="translate(35.001 372.765)"/><rect width="0.139" height="0.105" transform="translate(34.862 372.903)" fill="#307359"/><rect width="0.139" height="0.105" stroke-width="1" fill="none" stroke="#292c2f" stroke-linecap="square" stroke-miterlimit="10" transform="translate(34.862 372.903)"/><rect width="0.139" height="0.139" transform="translate(35.663 372.138)" fill="#307359"/><rect width="0.139" height="0.139" stroke-width="1" fill="none" stroke="#292c2f" stroke-linecap="square" stroke-miterlimit="10" transform="translate(35.663 372.138)"/><rect width="0.139" height="0.105" transform="translate(35.524 372.277)" fill="#307359"/><rect width="0.139" height="0.105" stroke-width="1" fill="none" stroke="#292c2f" stroke-linecap="square" stroke-miterlimit="10" transform="translate(35.524 372.277)"/><rect width="0.139" height="0.139" transform="translate(39.808 372.138)" fill="#307359"/><rect width="0.139" height="0.139" stroke-width="1" fill="none" stroke="#292c2f" stroke-linecap="square" stroke-miterlimit="10" transform="translate(39.808 372.138)"/><rect width="0.139" height="0.105" transform="translate(39.948 372.277)" fill="#307359"/><rect width="0.139" height="0.105" stroke-width="1" fill="none" stroke="#292c2f" stroke-linecap="square" stroke-miterlimit="10" transform="translate(39.948 372.277)"/><rect width="0.139" height="0.139" transform="translate(40.471 372.765)" fill="#307359"/><rect width="0.139" height="0.139" stroke-width="1" fill="none" stroke="#292c2f" stroke-linecap="square" stroke-miterlimit="10" transform="translate(40.471 372.765)"/><rect width="0.139" height="0.105" transform="translate(40.61 372.903)" fill="#307359"/><rect width="0.139" height="0.105" stroke-width="1" fill="none" stroke="#292c2f" stroke-linecap="square" stroke-miterlimit="10" transform="translate(40.61 372.903)"/><rect width="0.139" height="0.139" transform="translate(35.663 376.138)" fill="#307359"/><rect width="0.139" height="0.139" stroke-width="1" fill="none" stroke="#292c2f" stroke-linecap="square" stroke-miterlimit="10" transform="translate(35.663 376.138)"/><path d="M44.691,380h-.384v-.243h.244v-.208h.278v-.209h.245v.244a.394.394,0,0,0-.384.417" transform="translate(-7.286 -5.808)" fill="#fff" fill-rule="evenodd"/><path d="M45.723,380h.418v-.243h-.279v-.208h-.244v-.209H45.34v.244a.394.394,0,0,1,.383.417" transform="translate(-7.552 -5.808)" fill="#e0852a" fill-rule="evenodd"/><path d="M45.723,380.228h.418v.243h-.279v.243h-.244v.208H45.34v-.243a.427.427,0,0,0,.383-.452" transform="translate(-7.552 -6.038)" fill="#fff" fill-rule="evenodd"/><path d="M44.691,380.228h-.384v.243h.244v.243h.278v.208h.245v-.243a.427.427,0,0,1-.384-.452" transform="translate(-7.286 -6.038)" fill="#e0852a" fill-rule="evenodd"/><path d="M45.723,380.083H45.34v-.417a.417.417,0,0,1,.383.417" transform="translate(-7.552 -5.893)" fill="#307359" fill-rule="evenodd"/><path d="M45.723,380.228H45.34v.452a.427.427,0,0,0,.383-.452" transform="translate(-7.552 -6.038)" fill="#c03f2a" fill-rule="evenodd"/><path d="M44.824,380.228h.384v.452a.427.427,0,0,1-.384-.452" transform="translate(-7.419 -6.038)" fill="#307359" fill-rule="evenodd"/><path d="M44.824,380.083h.384v-.417a.417.417,0,0,0-.384.417" transform="translate(-7.419 -5.893)" fill="#c03f2a" fill-rule="evenodd"/><path d="M45.347,382.168l-.384-.243-.418.243-.384-.243-.418.243v-.1l.278-.139-.139-.139v-.1h.139l.139.1.1-.1h.139v.1l-.139.139.279.139.278-.139-.139-.139v-.1h.139l.139.1.1-.1h.139v.1l-.139.139.279.139.278-.139-.139-.139v-.1h.139l.139.1.1-.1h.139v.1l-.139.139.278.139v.1l-.383-.243Z" transform="translate(-7.14 -6.413)" fill="#307359" fill-rule="evenodd"/><path d="M45.347,378.166l-.384.243-.418-.243-.384.243-.418-.243v.1l.278.139-.139.1v.139h.139l.139-.139.1.139h.139v-.139l-.139-.1.279-.139.278.139-.139.1v.139h.139l.139-.139.1.139h.139v-.139l-.139-.1.279-.139.278.139-.139.1v.139h.139l.139-.139.1.139h.139v-.139l-.139-.1.278-.139v-.1l-.383.243Z" transform="translate(-7.14 -5.506)" fill="#307359" fill-rule="evenodd"/><path d="M47.743,380.227l-.174-.313.174-.313-.174-.313.174-.278h-.1l-.069.209-.1-.1h-.105v.1l.105.069-.105.1v.1h.105l.1-.1.069.208-.069.209-.1-.1h-.105v.1l.105.1-.105.1v.1h.105l.1-.1.069.208-.069.208-.1-.1h-.105v.1l.105.1-.105.1v.1h.105l.1-.1.069.209h.1l-.174-.313Z" transform="translate(-8.073 -5.724)" fill="#307359" fill-rule="evenodd"/><path d="M43.235,378.174l-.523.522v1.843l.523.522h2.4l.522-.522V378.7l-.522-.522Zm-.139-.383-1.324,1.252v1.148l1.324,1.217h2.683L47.1,380.19v-1.148l-1.324-1.252Z" transform="translate(-6.631 -5.409)" fill="#307359" fill-rule="evenodd"/><path d="M43.235,378.174l-.523.522v1.843l.523.522h2.4l.522-.522V378.7l-.522-.522Zm-.139-.383-1.324,1.252v1.148l1.324,1.217h2.683L47.1,380.19v-1.148l-1.324-1.252Z" transform="translate(-6.631 -5.409)" fill="none" stroke="#292c2f" stroke-linecap="square" stroke-miterlimit="10" stroke-width="1"/><path d="M44.5,382.338l.209.243.208-.243Z" transform="translate(-7.334 -6.583)" fill="#e0852a" fill-rule="evenodd"/><path d="M44.5,382.338l.209.243.208-.243Z" transform="translate(-7.334 -6.583)" fill="none" stroke="#292c2f" stroke-linecap="square" stroke-miterlimit="10" stroke-width="1"/><path d="M44.5,378.069l.209-.278.208.278Z" transform="translate(-7.334 -5.409)" fill="#e0852a" fill-rule="evenodd"/><path d="M44.5,378.069l.209-.278.208.278Z" transform="translate(-7.334 -5.409)" fill="none" stroke="#292c2f" stroke-linecap="square" stroke-miterlimit="10" stroke-width="1"/><path d="M45.669,378.069l.21-.278.208.278Z" transform="translate(-7.637 -5.409)" fill="#e0852a" fill-rule="evenodd"/><path d="M45.669,378.069l.21-.278.208.278Z" transform="translate(-7.637 -5.409)" fill="none" stroke="#292c2f" stroke-linecap="square" stroke-miterlimit="10" stroke-width="1"/><path d="M45.669,382.338l.21.243.208-.243Z" transform="translate(-7.637 -6.583)" fill="#e0852a" fill-rule="evenodd"/><path d="M45.669,382.338l.21.243.208-.243Z" transform="translate(-7.637 -6.583)" fill="none" stroke="#292c2f" stroke-linecap="square" stroke-miterlimit="10" stroke-width="1"/><path d="M43.932,378.069l.209-.278.208.278Z" transform="translate(-7.189 -5.409)" fill="#c03f2a" fill-rule="evenodd"/><path d="M43.932,378.069l.209-.278.208.278Z" transform="translate(-7.189 -5.409)" fill="none" stroke="#292c2f" stroke-linecap="square" stroke-miterlimit="10" stroke-width="1"/><path d="M45.059,378.069l.244-.278.208.278Z" transform="translate(-7.479 -5.409)" fill="#c03f2a" fill-rule="evenodd"/><path d="M45.059,378.069l.244-.278.208.278Z" transform="translate(-7.479 -5.409)" fill="none" stroke="#292c2f" stroke-linecap="square" stroke-miterlimit="10" stroke-width="1"/><path d="M46.232,378.069l.209-.278.208.278Z" transform="translate(-7.782 -5.409)" fill="#c03f2a" fill-rule="evenodd"/><path d="M46.232,378.069l.209-.278.208.278Z" transform="translate(-7.782 -5.409)" fill="none" stroke="#292c2f" stroke-linecap="square" stroke-miterlimit="10" stroke-width="1"/><path d="M43.228,381.822l.384.383h-.384Z" transform="translate(-7.007 -6.45)" fill="#c03f2a" fill-rule="evenodd"/><path d="M43.228,381.822l.384.383h-.384Z" transform="translate(-7.007 -6.45)" fill="none" stroke="#292c2f" stroke-linecap="square" stroke-miterlimit="10" stroke-width="1"/><path d="M42.852,380.227l.209-.313-.209-.313.209-.313-.209-.278h.105l.1.209.07-.1h.1v.1l-.1.069.1.1v.1h-.1l-.07-.1-.1.208.1.209.07-.1h.1v.1l-.1.1.1.1v.1h-.1l-.07-.1-.1.208.1.208.07-.1h.1v.1l-.1.1.1.1v.1h-.1l-.07-.1-.1.209h-.105l.209-.313Z" transform="translate(-6.91 -5.724)" fill="#307359" fill-rule="evenodd"/><path d="M48.063,379.806h.558l.1.1-.1.1h-.558Z" transform="translate(-8.255 -5.929)" fill="#c03f2a" fill-rule="evenodd"/><path d="M48.063,379.806h.558l.1.1-.1.1h-.558Z" transform="translate(-8.255 -5.929)" fill="none" stroke="#292c2f" stroke-linecap="square" stroke-miterlimit="10" stroke-width="1"/><path d="M43.082,378.635l-.279.278v1.843l.279.244h-.418v-2.365Z" transform="translate(-6.862 -5.627)" fill="#c03f2a" fill-rule="evenodd"/><path d="M43.082,378.635l-.279.278v1.843l.279.244h-.418v-2.365Z" transform="translate(-6.862 -5.627)" fill="none" stroke="#292c2f" stroke-linecap="square" stroke-miterlimit="10" stroke-width="1"/><path d="M43.932,382.338l.209.243.208-.243Z" transform="translate(-7.189 -6.583)" fill="#c03f2a" fill-rule="evenodd"/><path d="M43.932,382.338l.209.243.208-.243Z" transform="translate(-7.189 -6.583)" fill="none" stroke="#292c2f" stroke-linecap="square" stroke-miterlimit="10" stroke-width="1"/><path d="M45.059,382.338l.244.243.208-.243Z" transform="translate(-7.479 -6.583)" fill="#c03f2a" fill-rule="evenodd"/><path d="M45.059,382.338l.244.243.208-.243Z" transform="translate(-7.479 -6.583)" fill="none" stroke="#292c2f" stroke-linecap="square" stroke-miterlimit="10" stroke-width="1"/><path d="M46.232,382.338l.209.243.208-.243Z" transform="translate(-7.782 -6.583)" fill="#c03f2a" fill-rule="evenodd"/><path d="M46.232,382.338l.209.243.208-.243Z" transform="translate(-7.782 -6.583)" fill="none" stroke="#292c2f" stroke-linecap="square" stroke-miterlimit="10" stroke-width="1"/><path d="M47.548,378.635l.243.278v1.843l-.243.244h.383v-2.365Z" transform="translate(-8.122 -5.627)" fill="#c03f2a" fill-rule="evenodd"/><path d="M47.548,378.635l.243.278v1.843l-.243.244h.383v-2.365Z" transform="translate(-8.122 -5.627)" fill="none" stroke="#292c2f" stroke-linecap="square" stroke-miterlimit="10" stroke-width="1"/><path d="M47.4,381.822l-.418.383H47.4Z" transform="translate(-7.976 -6.45)" fill="#c03f2a" fill-rule="evenodd"/><path d="M47.4,381.822l-.418.383H47.4Z" transform="translate(-7.976 -6.45)" fill="none" stroke="#292c2f" stroke-linecap="square" stroke-miterlimit="10" stroke-width="1"/><path d="M47.4,378.513l-.418-.348H47.4Z" transform="translate(-7.976 -5.506)" fill="#c03f2a" fill-rule="evenodd"/><path d="M47.4,378.513l-.418-.348H47.4Z" transform="translate(-7.976 -5.506)" fill="none" stroke="#292c2f" stroke-linecap="square" stroke-miterlimit="10" stroke-width="1"/><path d="M43.228,378.513l.384-.348h-.384Z" transform="translate(-7.007 -5.506)" fill="#c03f2a" fill-rule="evenodd"/><path d="M43.228,378.513l.384-.348h-.384Z" transform="translate(-7.007 -5.506)" fill="none" stroke="#292c2f" stroke-linecap="square" stroke-miterlimit="10" stroke-width="1"/><path d="M43.514,378.271l-.523.522v1.843l.523.522h2.4l.522-.522v-1.843l-.522-.522Zm0-.1-.663.626v1.843l.663.626h2.4l.662-.626v-1.843l-.662-.626Z" transform="translate(-6.91 -5.506)" fill="#307359" fill-rule="evenodd"/><path d="M43.514,378.271l-.523.522v1.843l.523.522h2.4l.522-.522v-1.843l-.522-.522Zm0-.1-.663.626v1.843l.663.626h2.4l.662-.626v-1.843l-.662-.626Z" transform="translate(-6.91 -5.506)" fill="none" stroke="#292c2f" stroke-linecap="square" stroke-miterlimit="10" stroke-width="1"/><path d="M48.063,380.088h.558l.1.1-.1.139h-.558Z" transform="translate(-8.255 -6.002)" fill="#e0852a" fill-rule="evenodd"/><path d="M48.063,380.088h.558l.1.1-.1.139h-.558Z" transform="translate(-8.255 -6.002)" fill="none" stroke="#292c2f" stroke-linecap="square" stroke-miterlimit="10" stroke-width="1"/><path d="M48.063,380.416h.558l.1.1-.1.1h-.558Z" transform="translate(-8.255 -6.087)" fill="#c03f2a" fill-rule="evenodd"/><path d="M48.063,380.416h.558l.1.1-.1.1h-.558Z" transform="translate(-8.255 -6.087)" fill="none" stroke="#292c2f" stroke-linecap="square" stroke-miterlimit="10" stroke-width="1"/><path d="M48.063,380.7h.558l.1.1-.1.139h-.558Z" transform="translate(-8.255 -6.159)" fill="#e0852a" fill-rule="evenodd"/><path d="M48.063,380.7h.558l.1.1-.1.139h-.558Z" transform="translate(-8.255 -6.159)" fill="none" stroke="#292c2f" stroke-linecap="square" stroke-miterlimit="10" stroke-width="1"/><path d="M48.063,379.478h.558l.1.139-.1.1h-.558Z" transform="translate(-8.255 -5.845)" fill="#e0852a" fill-rule="evenodd"/><path d="M48.063,379.478h.558l.1.139-.1.1h-.558Z" transform="translate(-8.255 -5.845)" fill="none" stroke="#292c2f" stroke-linecap="square" stroke-miterlimit="10" stroke-width="1"/><path d="M42.434,379.806h-.523l-.139.1.139.1h.523Z" transform="translate(-6.631 -5.929)" fill="#c03f2a" fill-rule="evenodd"/><path d="M42.434,379.806h-.523l-.139.1.139.1h.523Z" transform="translate(-6.631 -5.929)" fill="none" stroke="#292c2f" stroke-linecap="square" stroke-miterlimit="10" stroke-width="1"/><path d="M42.434,380.088h-.523l-.139.1.139.139h.523Z" transform="translate(-6.631 -6.002)" fill="#e0852a" fill-rule="evenodd"/><path d="M42.434,380.088h-.523l-.139.1.139.139h.523Z" transform="translate(-6.631 -6.002)" fill="none" stroke="#292c2f" stroke-linecap="square" stroke-miterlimit="10" stroke-width="1"/><path d="M42.434,380.416h-.523l-.139.1.139.1h.523Z" transform="translate(-6.631 -6.087)" fill="#c03f2a" fill-rule="evenodd"/><path d="M42.434,380.416h-.523l-.139.1.139.1h.523Z" transform="translate(-6.631 -6.087)" fill="none" stroke="#292c2f" stroke-linecap="square" stroke-miterlimit="10" stroke-width="1"/><path d="M42.434,380.7h-.523l-.139.1.139.139h.523Z" transform="translate(-6.631 -6.159)" fill="#e0852a" fill-rule="evenodd"/><path d="M42.434,380.7h-.523l-.139.1.139.139h.523Z" transform="translate(-6.631 -6.159)" fill="none" stroke="#292c2f" stroke-linecap="square" stroke-miterlimit="10" stroke-width="1"/><path d="M42.434,379.478h-.523l-.139.139.139.1h.523Z" transform="translate(-6.631 -5.845)" fill="#e0852a" fill-rule="evenodd"/><path d="M42.434,379.478h-.523l-.139.139.139.1h.523Z" transform="translate(-6.631 -5.845)" fill="none" stroke="#292c2f" stroke-linecap="square" stroke-miterlimit="10" stroke-width="1"/><path d="M41.584,378.276v2.609h.661v.626H46.53v-.626h.662v-2.609H46.53v-.626H42.245v.626Zm.139.1v2.365h.663v.625h4.006v-.625h.663v-2.365h-.663v-.626H42.385v.626Z" transform="translate(-6.583 -5.373)" fill="#ab3b2c" fill-rule="evenodd"/><path d="M41.584,378.276v2.609h.661v.626H46.53v-.626h.662v-2.609H46.53v-.626H42.245v.626Zm.139.1v2.365h.663v.625h4.006v-.625h.663v-2.365h-.663v-.626H42.385v.626Z" transform="translate(-6.583 -5.373)" fill="none" stroke="#292c2f" stroke-linecap="square" stroke-miterlimit="10" stroke-width="1"/><path d="M47.569,360.538l-.418-.626v-.452l-.384-.487h-.836l-.663-.453H43.144l-.662.453h-.8l-.418.487v.452l-.383.626v1.218l.383.625v.453l.418.452h.8l.662.453h2.125l.663-.453h.836l.384-.452v-.453l.418-.625Z" transform="translate(-6.401 -0.436)" fill="#c03f2a" fill-rule="evenodd"/><path d="M47.569,360.538l-.418-.626v-.452l-.384-.487h-.836l-.663-.453H43.144l-.662.453h-.8l-.418.487v.452l-.383.626v1.218l.383.625v.453l.418.452h.8l.662.453h2.125l.663-.453h.836l.384-.452v-.453l.418-.625Z" transform="translate(-6.401 -0.436)" fill="none" stroke="#292c2f" stroke-linecap="square" stroke-miterlimit="10" stroke-width="1"/><path d="M41.021,362.037v.453l.418.626v.452l.384.487h.836l.662.452h.941v-2.47Z" transform="translate(-6.437 -1.343)" fill="#e0852a" fill-rule="evenodd"/><path d="M43.535,363.491l-.487.383h-.279l.1.139-.208.278.1.139.279-.139.1.139.035-.348.557-.418Z" transform="translate(-6.861 -1.718)" fill="#c03f2a" fill-rule="evenodd"/><path d="M42.831,363.069l-.488.417H42.03l.1.1-.174.278.07.139.313-.139.105.139.034-.348.522-.418Z" transform="translate(-6.68 -1.609)" fill="#c03f2a" fill-rule="evenodd"/><path d="M42.455,362.271l-.487.384h-.279l.1.139-.208.243.1.139.279-.139.1.139.035-.348.557-.418Z" transform="translate(-6.583 -1.404)" fill="#c03f2a" fill-rule="evenodd"/><path d="M48.593,361.178v-.452l-.418-.626v-.453l-.383-.452h-.8l-.7-.487h-.905v2.469Z" transform="translate(-7.565 -0.484)" fill="#e0852a" fill-rule="evenodd"/><path d="M44.951,365.039h-.279l-.279-.313h-.453l-.244-.139.139-.174.244.174h.243l.244-.487.384.174v.313h-.384Z" transform="translate(-7.128 -1.876)" fill="#c03f2a" fill-rule="evenodd"/><path d="M41.021,361.178v-.452l.418-.626v-.453l.384-.452h.836l.662-.487h.941v2.469Z" transform="translate(-6.437 -0.484)" fill="#fff" fill-rule="evenodd"/><path d="M44.951,358.709h-.279l-.279.313h-.453l-.244.174.139.139.244-.139h.243l.244.453.384-.139V359.2h-.384Z" transform="translate(-7.128 -0.484)" fill="#c03f2a" fill-rule="evenodd"/><path d="M45.388,358.709h.243l.279.313h.453l.245.174-.105.139-.278-.139H45.98l-.244.453-.348-.139V359.2h.348Z" transform="translate(-7.564 -0.484)" fill="#c03f2a" fill-rule="evenodd"/><path d="M48.593,362.037v.453l-.418.626v.452l-.383.487h-.8l-.7.452h-.905v-2.47Z" transform="translate(-7.565 -1.343)" fill="#fff" fill-rule="evenodd"/><path d="M45.388,365.039h.243l.279-.313h.453l.245-.139-.105-.174-.278.174H45.98l-.244-.487-.348.174v.313h.348Z" transform="translate(-7.564 -1.876)" fill="#c03f2a" fill-rule="evenodd"/><path d="M42.831,360.691l-.488-.383H42.03l.1-.139-.174-.278.07-.1.313.1.105-.1.034.348.522.418Z" transform="translate(-6.68 -0.762)" fill="#c03f2a" fill-rule="evenodd"/><path d="M46.817,360.269l.488-.383h.278l-.07-.139.174-.243-.1-.139-.278.139-.1-.139-.035.348-.557.418Z" transform="translate(-7.88 -0.653)" fill="#c03f2a" fill-rule="evenodd"/><path d="M43.535,360.269l-.487-.383h-.279l.1-.139-.208-.243.1-.139.279.139.1-.139.035.348.557.418Z" transform="translate(-6.861 -0.653)" fill="#c03f2a" fill-rule="evenodd"/><path d="M42.455,361.523l-.487-.417h-.279l.1-.1-.208-.278.1-.139.279.139.1-.139.035.348.557.418Z" transform="translate(-6.583 -0.968)" fill="#c03f2a" fill-rule="evenodd"/><path d="M41.349,362.037h.139l.1.174.139-.174h2.613v2.157h-.139l.139.139v.174l-.384-.452v-.174h.1v.174h.139v-.174l-1.01-.66h-.836v-.661l-.383-.349h-.244l-.139.139.139.139h-.139Z" transform="translate(-6.522 -1.343)" fill="#fff" fill-rule="evenodd"/><path d="M41.349,361.178h.139l.1-.139.139.139h2.613v-2.156h-.139l.139-.139v-.174l-.384.487v.14h.1v-.14h.139v.14l-1.01.7h-.836v.661l-.383.348h-.244l-.139-.174.139-.139h-.139Z" transform="translate(-6.522 -0.484)" fill="#e0852a" fill-rule="evenodd"/><path d="M42.1,362.037h2.439v1.844l-1.08-.765h-.8v-.626Z" transform="translate(-6.716 -1.343)" fill="#307359" fill-rule="evenodd"/><path d="M47.534,360.691l.487-.383h.314l-.105-.139.21-.278-.1-.1-.314.1-.07-.1-.07.348-.522.418Z" transform="translate(-8.073 -0.762)" fill="#c03f2a" fill-rule="evenodd"/><path d="M47.9,361.523l.488-.417h.278l-.07-.1.174-.278-.1-.139-.278.139-.1-.139-.035.348-.557.418Z" transform="translate(-8.158 -0.968)" fill="#c03f2a" fill-rule="evenodd"/><path d="M48.349,361.178H48.21l-.105-.139-.139.139H45.388v-2.156h.1l-.1-.139v-.174l.348.487v.14h-.1v-.14h-.139v.14l1.01.7h.836v.661l.383.348h.244l.139-.174-.139-.139H48.1Z" transform="translate(-7.565 -0.484)" fill="#fff" fill-rule="evenodd"/><path d="M47.792,361.4h-2.4v-1.843l1.045.765h.8v.626Z" transform="translate(-7.565 -0.702)" fill="#307359" fill-rule="evenodd"/><path d="M46.817,363.491l.488.383h.278l-.07.139.174.278-.1.139-.278-.139-.1.139-.035-.348-.557-.418Z" transform="translate(-7.88 -1.718)" fill="#c03f2a" fill-rule="evenodd"/><path d="M47.534,363.069l.487.417h.314l-.105.1.21.278-.1.139-.314-.139-.07.139-.07-.348-.522-.418Z" transform="translate(-8.073 -1.609)" fill="#c03f2a" fill-rule="evenodd"/><path d="M47.9,362.271l.488.384h.278l-.07.139.174.243-.1.139-.278-.139-.1.139-.035-.348-.557-.418Z" transform="translate(-8.158 -1.404)" fill="#c03f2a" fill-rule="evenodd"/><path d="M48.349,362.037H48.21l-.105.174-.139-.174H45.388v2.157h.1l-.1.139v.174l.348-.452v-.174h-.1v.174h-.139v-.174l1.01-.66h.836v-.661l.383-.349h.244l.139.139-.139.139H48.1Z" transform="translate(-7.565 -1.343)" fill="#e0852a" fill-rule="evenodd"/><path d="M47.792,362.037h-2.4v1.844l1.045-.765h.8v-.626Z" transform="translate(-7.565 -1.343)" fill="#c03f2a" fill-rule="evenodd"/><path d="M42.1,361.4h2.439v-1.843l-1.08.765h-.8v.626Z" transform="translate(-6.716 -0.702)" fill="#c03f2a" fill-rule="evenodd"/><path d="M45.631,361.662l.663-.452h.418l-.139-.139.279-.313-.139-.174-.418.174-.1-.174-.07.417-.731.487Z" transform="translate(-7.564 -0.968)" fill="#c03f2a" fill-rule="evenodd"/><path d="M44.587,362.037l-.663.453h-.418l.139.174-.279.313.139.139.418-.139.14.139.035-.417.766-.488Z" transform="translate(-7.043 -1.343)" fill="#c03f2a" fill-rule="evenodd"/><path d="M44.587,361.662l-.663-.452h-.418l.139-.139-.279-.313.139-.174.418.174.14-.174L44.1,361l.766.487Z" transform="translate(-7.043 -0.968)" fill="#307359" fill-rule="evenodd"/><path d="M45.631,362.037l.663.453h.418l-.139.174.279.313-.139.139-.418-.139-.1.139-.07-.417-.731-.488Z" transform="translate(-7.564 -1.343)" fill="#307359" fill-rule="evenodd"/><path d="M44.308,361.771l.8-.765.8.765-.8.766Z" transform="translate(-7.286 -1.077)" fill="#fff" fill-rule="evenodd"/><path d="M41.7,362.35l.105.139-.105.174h-.139l-.349-.627h.1l.245.453H41.7l-.139-.139.139-.139h.244v.139Z" transform="translate(-6.486 -1.343)" fill="#c03f2a" fill-rule="evenodd"/><path d="M41.7,361.518l.105-.139-.105-.139h-.139l-.349.591h.1l.245-.452H41.7l-.139.139.139.174h.244v-.174Z" transform="translate(-6.486 -1.137)" fill="#c03f2a" fill-rule="evenodd"/><path d="M48.777,362.35l-.1.139.1.174h.139l.349-.627h-.1l-.245.453h-.139l.139-.139-.139-.139h-.244v.139Z" transform="translate(-8.376 -1.343)" fill="#c03f2a" fill-rule="evenodd"/><path d="M48.777,361.518l-.1-.139.1-.139h.139l.349.591h-.1l-.245-.452h-.139l.139.139-.139.174h-.244v-.174Z" transform="translate(-8.376 -1.137)" fill="#c03f2a" fill-rule="evenodd"/><rect width="0.244" height="1.218" transform="translate(37.683 360.103)" fill="#c03f2a"/><rect width="1.01" height="0.626" transform="translate(37.3 360.381)" fill="#c03f2a"/><path d="M43.109,394.48l-2.229,1.286v2.192l2.229,1.287h2.229l2.23-1.287v-2.192l-2.23-1.286Z" transform="translate(-6.401 -9.717)" fill="#307359" fill-rule="evenodd"/><path d="M43.109,394.48l-2.229,1.286v2.192l2.229,1.287h2.229l2.23-1.287v-2.192l-2.23-1.286Z" transform="translate(-6.401 -9.717)" fill="none" stroke="#292c2f" stroke-linecap="square" stroke-miterlimit="10" stroke-width="1"/><path d="M41.959,396.757H42.1v-.313h.278v.313h.14v-.73h-.14v.313H42.1v-.313h-.139Z" transform="translate(-6.68 -10.116)" fill="#cf3b1d" fill-rule="evenodd"/><path d="M46.561,400.087H46.7v-.313h.279v.313h.139v-.73h-.139v.313H46.7v-.313h-.139Z" transform="translate(-7.867 -10.975)" fill="#cf3b1d" fill-rule="evenodd"/><path d="M48.017,396.757h.139v-.313h.279v.313h.139v-.73h-.139v.313h-.279v-.313h-.139Z" transform="translate(-8.243 -10.116)" fill="#cf3b1d" fill-rule="evenodd"/><path d="M48.017,398.434h.139v-.313h.279v.313h.139v-.766h-.139v.348h-.279v-.348h-.139Z" transform="translate(-8.243 -10.539)" fill="#cf3b1d" fill-rule="evenodd"/><path d="M45.388,399.964v-2.3h3.205v1.045l-2.126,1.252Z" transform="translate(-7.564 -10.539)" fill="#e0852a" fill-rule="evenodd"/><path d="M44.261,394.621v2.261h-3.24v-1.009l2.16-1.252Z" transform="translate(-6.437 -9.753)" fill="#e0852a" fill-rule="evenodd"/><path d="M45.388,394.621v2.261h3.205v-1.009l-2.126-1.252Z" transform="translate(-7.564 -9.753)" fill="#fff" fill-rule="evenodd"/><path d="M44.261,399.964v-2.3h-3.24v1.045l2.16,1.252Z" transform="translate(-6.437 -10.539)" fill="#fff" fill-rule="evenodd"/><path d="M47.094,395.977h1.289l-1.289-.626Zm1.5-.1v1.008H46.571v-.8H46.12l-.523-.313v-.73l.314-.313h-.418v1.043h-.1v-1.147h1.079Z" transform="translate(-7.565 -9.753)" fill="#e0852a" fill-rule="evenodd"/><path d="M47.094,395.977h1.289l-1.289-.626Zm1.5-.1v1.008H46.571v-.8H46.12l-.523-.313v-.73l.314-.313h-.418v1.043h-.1v-1.147h1.079Z" transform="translate(-7.565 -9.753)" fill="none" stroke="#292c2f" stroke-linecap="square" stroke-miterlimit="10" stroke-width="1"/><path d="M43.932,396.585v1.427h.314l.766.417.732-.417h.348v-1.427h-.348l-.732-.417-.766.417Z" transform="translate(-7.189 -10.152)" fill="#c03f2a" fill-rule="evenodd"/><path d="M42.518,398.607H41.229l1.289.626Zm-1.5.1v-1.044h2.056v.835h.417l.522.313v.73l-.314.313h.418v-1.043h.139v1.147H43.18Z" transform="translate(-6.437 -10.539)" fill="#e0852a" fill-rule="evenodd"/><path d="M42.518,398.607H41.229l1.289.626Zm-1.5.1v-1.044h2.056v.835h.417l.522.313v.73l-.314.313h.418v-1.043h.139v1.147H43.18Z" transform="translate(-6.437 -10.539)" fill="none" stroke="#292c2f" stroke-linecap="square" stroke-miterlimit="10" stroke-width="1"/><path d="M42.518,395.977H41.229l1.289-.626Zm-1.5-.1v1.008h2.056v-.8h.417l.522-.313v-.73l-.314-.313h.418v1.043h.139v-1.147H43.18Z" transform="translate(-6.437 -9.753)" fill="#fff" fill-rule="evenodd"/><path d="M42.518,395.977H41.229l1.289-.626Zm-1.5-.1v1.008h2.056v-.8h.417l.522-.313v-.73l-.314-.313h.418v1.043h.139v-1.147H43.18Z" transform="translate(-6.437 -9.753)" fill="none" stroke="#292c2f" stroke-linecap="square" stroke-miterlimit="10" stroke-width="1"/><path d="M47.094,398.607h1.289l-1.289.626Zm1.5.1v-1.044H46.571v.835H46.12l-.523.313v.73l.314.313h-.418v-1.043h-.1v1.147h1.079Z" transform="translate(-7.565 -10.539)" fill="#fff" fill-rule="evenodd"/><path d="M47.094,398.607h1.289l-1.289.626Zm1.5.1v-1.044H46.571v.835H46.12l-.523.313v.73l.314.313h-.418v-1.043h-.1v1.147h1.079Z" transform="translate(-7.565 -10.539)" fill="none" stroke="#292c2f" stroke-linecap="square" stroke-miterlimit="10" stroke-width="1"/><path d="M41.865,398.54H42v-.313h.278v.313h.141v-.731h-.141v.313H42v-.313h-.139Z" transform="translate(-6.655 -10.576)" fill="#c03f2a" fill-rule="evenodd"/><path d="M43.6,399.946h.139v-.313h.278v.313h.14v-.73h-.14v.313h-.278v-.313H43.6Z" transform="translate(-7.104 -10.939)" fill="#c03f2a" fill-rule="evenodd"/><path d="M41.865,396.59H42v.313h.278v-.313h.141v.73h-.141v-.313H42v.313h-.139Z" transform="translate(-6.655 -10.261)" fill="#c03f2a" fill-rule="evenodd"/><path d="M43.6,395.183h.139v.313h.278v-.313h.14v.73h-.14V395.6h-.278v.313H43.6Z" transform="translate(-7.104 -9.898)" fill="#c03f2a" fill-rule="evenodd"/><path d="M48.111,397.32h.139v-.313h.279v.313h.139v-.73h-.139v.313H48.25v-.313h-.139Z" transform="translate(-8.267 -10.261)" fill="#c03f2a" fill-rule="evenodd"/><path d="M46.374,399.946h.139v-.313h.279v.313h.139v-.73h-.139v.313h-.279v-.313h-.139Z" transform="translate(-7.819 -10.939)" fill="#c03f2a" fill-rule="evenodd"/><path d="M48.111,398.54h.139v-.313h.279v.313h.139v-.731h-.139v.313H48.25v-.313h-.139Z" transform="translate(-8.267 -10.576)" fill="#c03f2a" fill-rule="evenodd"/><path d="M46.374,395.914h.139V395.6h.279v.313h.139v-.73h-.139v.313h-.279v-.313h-.139Z" transform="translate(-7.819 -9.898)" fill="#c03f2a" fill-rule="evenodd"/><path d="M45.189,397.414l.418-.348h.21v.174h-.21v.1h.314v-.382h-.314v-.278h-.418v.278h.1v-.209h.21v.209l-.419.382-.453-.382v-.209h.208v.209h.1v-.278h-.418v.278h-.312v.382h.312v-.1h-.208v-.174h.208l.418.348-.418.384h-.208v-.175h.208v-.1h-.312v.382h.312v.279h.418V397.9h-.1v.209h-.208V397.9l.453-.382.419.382v.209h-.21V397.9h-.1v.279h.418V397.9h.314v-.382h-.314v.1h.21v.175h-.21Z" transform="translate(-7.262 -10.285)" fill="#307359" fill-rule="evenodd"/><path d="M41.3,371.234l.209-.278h1.255l.94-1.183H44.96l.941,1.183H47.12l.209.278-.209.278H45.9l-.941,1.217H43.706l-.94-1.217H41.511Z" transform="translate(-6.51 -3.34)" fill="#c03f2a" fill-rule="evenodd"/><path d="M41.442,370.885l.105-.1h1.289l.975-1.147h1.08l.976,1.147h1.289l.1.1-.1.1H45.867L45,372H43.707l-.871-1.008H41.548Z" transform="translate(-6.546 -3.304)" fill="#c03f2a" fill-rule="evenodd"/><path d="M41.442,370.885l.105-.1h1.289l.975-1.147h1.08l.976,1.147h1.289l.1.1-.1.1H45.867L45,372H43.707l-.871-1.008H41.548Z" transform="translate(-6.546 -3.304)" fill="none" stroke="#292c2f" stroke-linecap="square" stroke-miterlimit="10" stroke-width="1"/><path d="M45.547,371l.418.452-.209.243-.1-.1h-.1v.1l.1.139h.209l.208-.243v-.244l-.418-.487.418-.487v-.208l-.208-.243h-.209l-.1.1v.139h.1l.1-.139.209.243-.418.487-.418-.487.418-.487v-.1h-.1l-.418.487-.418-.487H44.5v.1l.418.487-.418.487-.418-.487.21-.243.1.139h.1v-.139l-.1-.1h-.208l-.209.243v.208l.418.487-.418.487v.244l.209.243H44.4l.1-.139v-.1h-.1l-.1.1-.21-.243L44.5,371l.418.452-.418.487v.139h.105l.418-.487.418.487h.1v-.139l-.418-.487Zm-.522-.626-.418.487.418.487.418-.487Z" transform="translate(-7.201 -3.316)" fill="#e0852a" fill-rule="evenodd"/><path d="M45.547,371l.418.452-.209.243-.1-.1h-.1v.1l.1.139h.209l.208-.243v-.244l-.418-.487.418-.487v-.208l-.208-.243h-.209l-.1.1v.139h.1l.1-.139.209.243-.418.487-.418-.487.418-.487v-.1h-.1l-.418.487-.418-.487H44.5v.1l.418.487-.418.487-.418-.487.21-.243.1.139h.1v-.139l-.1-.1h-.208l-.209.243v.208l.418.487-.418.487v.244l.209.243H44.4l.1-.139v-.1h-.1l-.1.1-.21-.243L44.5,371l.418.452-.418.487v.139h.105l.418-.487.418.487h.1v-.139l-.418-.487Zm-.522-.626-.418.487.418.487.418-.487Z" transform="translate(-7.201 -3.316)" fill="none" stroke="#292c2f" stroke-linecap="square" stroke-miterlimit="10" stroke-width="1"/><path d="M44.542,373.054v.939l.1-.1.1.1.1-.1.1.1.105-.1.1.1.1-.1.1.1.1-.1.105.1.1-.1.1.1v-.939Z" transform="translate(-7.346 -4.187)" fill="#e0852a" fill-rule="evenodd"/><path d="M45.8,369.165v-.939l-.1.1-.1-.1-.106.1-.1-.1-.1.1-.1-.1-.1.1-.1-.1-.1.1-.1-.1-.105.1-.1-.1v.939Z" transform="translate(-7.346 -2.94)" fill="#e0852a" fill-rule="evenodd"/><path d="M48.3,370.618v-.939l-.105.1-.1-.1-.1.1-.1-.1-.07.1-.1-.1-.1.1-.1-.1v.939Z" transform="translate(-8.11 -3.315)" fill="#e0852a" fill-rule="evenodd"/><path d="M42.984,370.618v-.939l-.1.1-.1-.1-.105.1-.1-.1-.1.1-.105-.1-.1.1-.1-.1v.939Z" transform="translate(-6.728 -3.315)" fill="#e0852a" fill-rule="evenodd"/><path d="M48.3,371.6v.973l-.105-.139-.1.139-.1-.139-.1.139-.07-.139-.1.139-.1-.139-.1.139V371.6Z" transform="translate(-8.11 -3.812)" fill="#e0852a" fill-rule="evenodd"/><path d="M42.984,371.6v.973l-.1-.139-.1.139-.105-.139-.1.139-.1-.139-.105.139-.1-.139-.1.139V371.6Z" transform="translate(-6.728 -3.812)" fill="#e0852a" fill-rule="evenodd"/><path d="M46.232,372.679v.591l.105-.1.1.1.1-.1.1.1.1-.1.105.1.1-.1.1.1.105-.1V371.6Z" transform="translate(-7.782 -3.812)" fill="#307359" fill-rule="evenodd"/><path d="M44.215,372.679v.591l-.1-.1-.1.1-.105-.1-.1.1-.1-.1-.105.1-.1-.1-.1.1-.1-.1V371.6Z" transform="translate(-7.019 -3.812)" fill="#307359" fill-rule="evenodd"/><path d="M44.215,369.286v-.591l-.1.139-.1-.139-.105.139-.1-.139-.1.139-.105-.139-.1.139-.1-.139-.1.139v1.53Z" transform="translate(-7.019 -3.061)" fill="#307359" fill-rule="evenodd"/><path d="M46.232,369.286v-.591l.105.139.1-.139.1.139.1-.139.1.139.105-.139.1.139.1-.139.105.139v1.53Z" transform="translate(-7.782 -3.061)" fill="#307359" fill-rule="evenodd"/><path d="M41.857,371.92l-.1-.139-.1.139-.1-.139-.1.139-.105-.139-.1.139-.1-.139-.1.139v-1.913l.1.1.1-.1.1.1.105-.1.1.1.1-.1.1.1.1-.1v.7h-.418l-.21.244.21.243h.418Z" transform="translate(-6.437 -3.4)" fill="#307359" fill-rule="evenodd"/><path d="M48.581,371.92l.1-.139.1.139.1-.139.1.139.105-.139.1.139.1-.139.105.139v-1.913l-.105.1-.1-.1-.1.1-.105-.1-.1.1-.1-.1-.1.1-.1-.1v.7H49l.21.244-.21.243h-.417Z" transform="translate(-8.389 -3.4)" fill="#307359" fill-rule="evenodd"/><path d="M43.765,373.051s-.105.1-.105.139a.274.274,0,0,0,.14.139.149.149,0,0,0,.139-.139c0-.034-.1-.139-.1-.139v-.174s.209.312.209.174c0-.1-.209-.278-.209-.278h-.07s-.209.208-.209.278c0,.139.209-.174.209-.174Z" transform="translate(-7.092 -4.114)" fill="#fff" fill-rule="evenodd"/><path d="M45.232,373.519s-.105.1-.105.174.105.21.175.21c.035,0,.139-.14.139-.21s-.1-.174-.1-.174v-.278s.174.417.174.243a.983.983,0,0,0-.174-.382h-.1s-.209.312-.174.382c0,.174.174-.243.174-.243Z" transform="translate(-7.478 -4.199)" fill="#c03f2a" fill-rule="evenodd"/><path d="M43.974,371.237c0,.07-.1.139-.208.139-.14,0-.209-.069-.209-.139s.069-.1.209-.1c.1,0,.208.035.208.1" transform="translate(-7.092 -3.69)" fill="#307359" fill-rule="evenodd"/><path d="M45.524,371.237c0,.07-.1.139-.208.139-.14,0-.209-.069-.209-.139s.069-.1.209-.1c.1,0,.208.035.208.1" transform="translate(-7.492 -3.69)" fill="#307359" fill-rule="evenodd"/><path d="M47.074,371.237c0,.07-.1.139-.209.139-.139,0-.208-.069-.208-.139s.069-.1.208-.1c.1,0,.209.035.209.1" transform="translate(-7.892 -3.69)" fill="#307359" fill-rule="evenodd"/><path d="M43.73,369.336a.429.429,0,0,1-.07-.174c0-.035.07-.139.1-.139.07,0,.139.1.139.139a.432.432,0,0,1-.069.174v.174s.174-.312.174-.174c0,.1-.174.278-.174.278h-.1s-.174-.208-.174-.278c0-.139.174.174.174.174Z" transform="translate(-7.092 -3.146)" fill="#fff" fill-rule="evenodd"/><path d="M45.184,368.8a.563.563,0,0,1-.1-.208.422.422,0,0,1,.175-.174c.069,0,.139.1.139.174a.565.565,0,0,1-.1.208v.278s.208-.452.208-.243c0,.139-.208.348-.208.348h-.105s-.208-.278-.174-.348c0-.208.174.243.174.243Z" transform="translate(-7.466 -2.989)" fill="#c03f2a" fill-rule="evenodd"/><path d="M46.77,373.051s-.1.1-.1.139a.272.272,0,0,0,.139.139c.035,0,.139-.07.139-.139,0-.034-.1-.139-.1-.139v-.174s.209.312.209.174c0-.1-.209-.278-.209-.278h-.07s-.208.208-.208.278c0,.139.208-.174.208-.174Z" transform="translate(-7.868 -4.114)" fill="#fff" fill-rule="evenodd"/><path d="M46.736,369.336a.429.429,0,0,1-.07-.174c-.035-.035.07-.139.1-.139.07,0,.139.1.139.139a.432.432,0,0,1-.069.174v.174s.174-.312.174-.174c0,.1-.174.278-.174.278h-.105s-.174-.208-.174-.278c0-.139.174.174.174.174Z" transform="translate(-7.868 -3.146)" fill="#fff" fill-rule="evenodd"/><path d="M42.544,372.161s-.14.1-.14.139.14.139.174.139a.244.244,0,0,0,.174-.139c0-.034-.1-.139-.1-.139v-.174s.208.278.208.139c0-.07-.208-.243-.208-.243h-.1s-.245.208-.21.243c0,.139.21-.139.21-.139Z" transform="translate(-6.775 -3.884)" fill="#c03f2a" fill-rule="evenodd"/><path d="M42.5,370.332s-.105-.07-.105-.139a.179.179,0,0,1,.349,0c0,.069-.139.139-.139.139v.174s.209-.278.209-.139c0,.07-.209.243-.209.243h-.1s-.244-.208-.209-.243c0-.139.209.139.209.139Z" transform="translate(-6.763 -3.412)" fill="#c03f2a" fill-rule="evenodd"/><path d="M47.943,372.126s-.1.1-.1.139c-.034.035.1.139.175.139.035,0,.174-.1.174-.139s-.139-.139-.139-.139v-.174s.208.278.208.174-.208-.243-.208-.243h-.105s-.243.174-.208.243c0,.1.208-.174.208-.174Z" transform="translate(-8.169 -3.884)" fill="#c03f2a" fill-rule="evenodd"/><path d="M47.9,370.3s-.1-.07-.1-.139c0-.035.1-.1.174-.1s.174.07.174.1c0,.069-.139.139-.139.139v.174s.208-.278.208-.139c0,.07-.208.243-.208.243H47.9s-.243-.208-.208-.243c0-.139.208.139.208.139Z" transform="translate(-8.157 -3.413)" fill="#c03f2a" fill-rule="evenodd"/><path d="M41.437,372.149a.27.27,0,0,1,0-.174c-.035-.035.105-.139.139-.139s.1.1.1.139v.174l-.07-.139c-.069.208-.069.208-.1,0Z" transform="translate(-6.541 -3.872)" fill="#fff" fill-rule="evenodd"/><path d="M41.437,370.377c-.035.07,0,.139,0,.174a.275.275,0,0,0,.139.139c.035,0,.1-.1.1-.174v-.139l-.07.139c-.069-.208-.069-.208-.1,0Z" transform="translate(-6.541 -3.491)" fill="#fff" fill-rule="evenodd"/><path d="M49.038,372.114a.313.313,0,0,1-.035-.174c0-.035.1-.1.14-.1a.15.15,0,0,1,.139.139.466.466,0,0,1-.035.174l-.035-.139c-.069.174-.069.174-.1-.034Z" transform="translate(-8.498 -3.872)" fill="#fff" fill-rule="evenodd"/><path d="M49.038,370.365A.263.263,0,0,0,49,370.5c0,.07.1.139.14.139.069,0,.139-.1.139-.139v-.174l-.07.139c-.069-.209-.069-.209-.1,0Z" transform="translate(-8.498 -3.479)" fill="#fff" fill-rule="evenodd"/><path d="M43.562,372.746V372.4h-.976v-.661h-.871v-.243h-.732v-2.052h.732v-.209h.871v-.7h.976v-.313H44.85v.313h.976v.7H46.7v.209h.732v2.052H46.7v.243h-.871v.661H44.85v.347Zm-.1.105v-.314h-.976v-.7h-.871V371.6h-.732v-2.261h.732v-.209h.871v-.7h.976v-.348h1.5v.348h.975v.7H46.8v.209h.766V371.6H46.8v.243h-.871v.7h-.975v.314Z" transform="translate(-6.401 -2.904)" fill="#c03f2a" fill-rule="evenodd"/><path d="M43.562,372.746V372.4h-.976v-.661h-.871v-.243h-.732v-2.052h.732v-.209h.871v-.7h.976v-.313H44.85v.313h.976v.7H46.7v.209h.732v2.052H46.7v.243h-.871v.661H44.85v.347Zm-.1.105v-.314h-.976v-.7h-.871V371.6h-.732v-2.261h.732v-.209h.871v-.7h.976v-.348h1.5v.348h.975v.7H46.8v.209h.766V371.6H46.8v.243h-.871v.7h-.975v.314Z" transform="translate(-6.401 -2.904)" fill="none" stroke="#292c2f" stroke-linecap="square" stroke-miterlimit="10" stroke-width="1"/><path d="M66.785,366.15a4.477,4.477,0,1,0-8.954,0,4.477,4.477,0,1,0,8.954,0" transform="translate(-10.776 -1.246)" fill="#fff" fill-rule="evenodd"/><path d="M65.178,365.236a4.425,4.425,0,1,0-4.425,4.451,4.428,4.428,0,0,0,4.425-4.451" transform="translate(-10.388 -1.029)" fill="#307359" fill-rule="evenodd"/><path d="M64.071,364h-.628l-.174.627L63.061,364h-.627l.487-.383-.208-.591.522.347.522-.347-.174.591Z" transform="translate(-11.964 -1.598)" fill="#fbfcfc" fill-rule="evenodd"/><path d="M61.018,362.449l-.627.035-.174.591-.208-.591-.628-.035.488-.384-.209-.591.522.347.487-.347-.139.591Z" transform="translate(-11.176 -1.198)" fill="#fbfcfc" fill-rule="evenodd"/><path d="M61.018,365.532h-.627l-.174.591-.208-.591h-.628l.488-.384-.209-.625.522.382.487-.382-.139.625Z" transform="translate(-11.176 -1.985)" fill="#fbfcfc" fill-rule="evenodd"/><path d="M61.018,368.626h-.627l-.174.591-.208-.591h-.628l.488-.383-.209-.625.522.382.487-.382-.139.625Z" transform="translate(-11.176 -2.783)" fill="#fbfcfc" fill-rule="evenodd"/><path d="M57.966,367.044h-.628l-.174.626-.209-.626h-.627l.487-.383-.209-.591.523.347.522-.347-.174.591Z" transform="translate(-10.388 -2.384)" fill="#fbfcfc" fill-rule="evenodd"/><path d="M46.374,399.946h.139v-.313h.279v.313h.139v-.73h-.139v.313h-.279v-.313h-.139Z" transform="translate(-7.819 -10.939)" fill="#c03f2a" fill-rule="evenodd"/></g></g></svg>