<svg xmlns="http://www.w3.org/2000/svg" xmlns:xlink="http://www.w3.org/1999/xlink" width="36" height="36" viewBox="0 0 36 36"><defs><clipPath id="a"><circle cx="18" cy="18" r="18" transform="translate(1080 619)" fill="none" stroke="#707070" stroke-width="1"/></clipPath></defs><g transform="translate(-1080 -619)" clip-path="url(#a)"><g transform="translate(42 -14.04)"><rect width="18" height="36" transform="translate(1056 633.04)" fill="#bd0034"/><rect width="18" height="36" transform="translate(1038 633.04)" fill="#fff"/></g><g transform="translate(79 -10)"><path d="M239.169,285.384c0,.055-.062.1-.138.1s-.138-.044-.138-.1.062-.1.138-.1.138.045.138.1" transform="translate(771.283 353.419)" fill="#efecec"/><path d="M233.132,283.325v2.508h2.507a.9.9,0,0,0,.837.837v2.508h2.508V286.67a.9.9,0,0,0,.835-.837h2.509v-2.508h-2.509a.9.9,0,0,0-.835-.835v-2.509h-2.508v2.509a.9.9,0,0,0-.837.835Z" transform="translate(773 355)" fill="#d30038"/><path d="M233.25,283.445v2.341h2.508a.9.9,0,0,0,.837.836v2.509h2.341v-2.509a.9.9,0,0,0,.835-.836h2.508v-2.341h-2.508a.9.9,0,0,0-.835-.836V280.1h-2.341v2.508a.9.9,0,0,0-.837.836Z" transform="translate(772.965 354.964)" fill="#bd0034"/><path d="M233.369,283.564v2.174h2.508a.9.9,0,0,0,.837.836v2.508h2.173v-2.508a.9.9,0,0,0,.836-.836h2.508v-2.174h-2.508a.9.9,0,0,0-.836-.836V280.22h-2.173v2.508a.9.9,0,0,0-.837.836Z" transform="translate(772.929 354.929)" fill="#91857c"/><path d="M233.489,283.683v2.006H236a.9.9,0,0,0,.837.837v2.508h2.006v-2.508a.9.9,0,0,0,.836-.837h2.508v-2.006h-2.508a.9.9,0,0,0-.836-.836v-2.508h-2.006v2.508a.9.9,0,0,0-.837.836Z" transform="translate(772.894 354.893)" fill="#cacaca"/><path d="M237.8,283.589c.147.147.027.5-.266.8s-.651.413-.8.266-.028-.5.266-.8.651-.413.8-.266" transform="translate(771.944 353.943)" fill="#cecece"/><path d="M237.69,283.831a.523.523,0,1,1-.621.088.452.452,0,0,1,.621-.088" transform="translate(771.879 353.879)" fill="#91857c"/><path d="M236.977,284.4l.06-.059.236.118-.118-.237.059-.059.237.472Z" transform="translate(771.854 353.753)" fill="#cecece"/><rect width="0.084" height="0.502" transform="matrix(0.707, -0.707, 0.707, 0.707, 1009.186, 637.799)" fill="#cecece"/><path d="M242.119,284.654c-.147.147-.5.028-.8-.266s-.413-.651-.267-.8.5-.027.8.266.413.651.266.8" transform="translate(770.657 353.943)" fill="#cecece"/><path d="M242.006,284.541a.523.523,0,1,1-.088-.621.453.453,0,0,1,.088.621" transform="translate(770.593 353.879)" fill="#91857c"/><path d="M241.612,283.827l.06.059-.119.237.237-.119.059.06-.473.237Z" transform="translate(770.543 353.854)" fill="#cecece"/><rect width="0.502" height="0.084" transform="matrix(0.711, -0.703, 0.703, 0.711, 1012.154, 638.389)" fill="#cecece"/><path d="M241.055,288.969c-.147-.147-.028-.5.266-.8s.651-.413.8-.266.028.5-.266.8-.651.413-.8.266" transform="translate(770.657 352.657)" fill="#cecece"/><path d="M241.3,288.857a.523.523,0,1,1,.621-.089.454.454,0,0,1-.621.089" transform="translate(770.593 352.592)" fill="#91857c"/><path d="M242.186,288.463l-.059.059-.237-.118.118.236-.059.06-.237-.473Z" transform="translate(770.442 352.542)" fill="#cecece"/><rect width="0.084" height="0.502" transform="matrix(0.703, -0.711, 0.711, 0.703, 1011.859, 641.066)" fill="#cecece"/><path d="M236.74,287.905c.147-.147.5-.028.8.266s.413.651.266.8-.5.027-.8-.267-.413-.651-.266-.8" transform="translate(771.943 352.657)" fill="#cecece"/><path d="M236.981,288.147a.523.523,0,1,1,.089.621.454.454,0,0,1-.089-.621" transform="translate(771.879 352.592)" fill="#91857c"/><path d="M237.55,289.037l-.059-.059.119-.237-.237.119-.059-.059.473-.237Z" transform="translate(771.754 352.442)" fill="#cecece"/><rect width="0.501" height="0.083" transform="translate(1008.89 641.065) rotate(-45.01)" fill="#cecece"/><path d="M238.931,287.552a1.77,1.77,0,1,1,1.252-.519,1.772,1.772,0,0,1-1.252.519m0-3.513a1.741,1.741,0,1,0,1.232.51,1.744,1.744,0,0,0-1.232-.51" transform="translate(771.799 353.799)" fill="#91857c"/><path d="M239.108,287.311a1.352,1.352,0,1,1,1.352-1.353,1.353,1.353,0,0,1-1.352,1.353m0-2.676a1.324,1.324,0,1,0,1.324,1.324,1.325,1.325,0,0,0-1.324-1.324" transform="translate(771.621 353.621)" fill="#91857c"/><path d="M238.778,288.522a.084.084,0,1,1-.126-.073.088.088,0,0,1,.084,0,.086.086,0,0,1,.042.073" transform="translate(771.367 352.479)"/><path d="M240.683,288.522a.083.083,0,0,1-.042.073.084.084,0,0,1-.084-.146.088.088,0,0,1,.084,0,.084.084,0,0,1,.042.073" transform="translate(770.799 352.479)"/><path d="M239.519,288.529v.087h-.112c-.111,0-.111.088,0,.088h.112v.086c0,.091.1.1.1.008l.008-.094h.111c.112,0,.112-.088,0-.088h-.111v-.087a.056.056,0,1,0-.112,0" transform="translate(771.154 352.472)"/><path d="M241.041,286.894a.288.288,0,0,1,.078,0s0,.02-.008.027a.217.217,0,0,0,.065.006s-.02.015-.03.02a.091.091,0,0,1,.041.026.133.133,0,0,1-.061,0,.089.089,0,0,1,.011.043.162.162,0,0,1-.093-.062Z" transform="translate(770.643 352.94)" fill="#91857c"/><path d="M240.819,286.827c-.016.041-.138-.036-.138-.036a.217.217,0,0,0,.134.095Z" transform="translate(770.75 352.97)" fill="#91857c"/><path d="M238.632,287.809h1.428l.11-.088-.183-.1-.283-.1-.113-.062-.21.011-.175.093-.239.029-.056.065-.178.014-.281-.006.467.073-.385-.019Z" transform="translate(771.415 352.77)" fill="#91857c"/><path d="M240.062,287.812h-1.431l-.1-.086.39.006-.468-.059.459-.022.051-.063.245-.031.173-.093.213-.012.117.064.466.194Zm-1.53-.084.1.072h1.421l.108-.086-.578-.246-.206.013-.173.092-.242.029-.052.063-.182.016-.281-.006.468.059Z" transform="translate(771.415 352.773)"/><path d="M239.674,287.139c-.179-.1-.231.14-.307.2.1.018.182-.08.271-.127.067.183.173.062.173.062s.112.176.259.1a.078.078,0,0,0,.085,0s.054.011.065-.013c.028.009.06-.026.06-.026s.062,0,.074-.032c.091.017.212-.186.212-.186l.036-.071.053-.011s0-.035-.025-.034c0-.021-.018-.032-.045-.028,0-.013-.014-.022-.014-.022-.051.012-.054.141-.054.141s-.089.067-.121.084c0-.074-.124-.173-.1-.22s.1.073.175.051a.2.2,0,0,0,.107-.184,1.272,1.272,0,0,0-.068-.128l-.045,0-.04-.1s-.083.054-.081.1.088.087.088.087a.135.135,0,0,1-.1.018c0,.048.057.039.08.039a.1.1,0,0,0,.045.053s.021.054-.034.048-.12-.132-.2-.074.036.175.036.175a.288.288,0,0,0-.116.136c-.176-.149-.279-.08-.475-.04" transform="translate(771.142 353.029)" fill="#91857c"/><path d="M240,287.394a.253.253,0,0,1-.185-.117c0,.02-.126.069-.176-.067a.453.453,0,0,1-.068.056.314.314,0,0,1-.171.079v-.007a.408.408,0,0,0,.164-.084.787.787,0,0,1,.08-.053c.069.14.171.065.171.064s.135.162.261.095l0,0,.086,0,.074-.013c.051-.027.106-.027.116-.054.1,0,.211-.185.212-.187l.037-.07-.012,0-.006-.074c-.04-.008-.053.086-.054.121a.92.92,0,0,1-.126.091.415.415,0,0,0-.065-.117c-.03-.043-.058-.084-.043-.112l.079.012a.171.171,0,0,0,.084.038.184.184,0,0,0,.118-.18,1.188,1.188,0,0,0-.062-.116.334.334,0,0,1,.076.113.206.206,0,0,1-.112.194.2.2,0,0,1-.112-.037c-.069,0-.044.041-.016.081a.255.255,0,0,1,.057.119c.022-.022.109-.09.109-.09s0-.129.058-.142l.058.055-.057.121c0,.008-.114.191-.207.191-.017.029-.077.031-.084.031l-.1.041-.109-.012,0,.006a.167.167,0,0,1-.081.022m-.6-.071a.2.2,0,0,1,.034-.074c.055-.088.133-.183.253-.118l.094-.024a.369.369,0,0,1,.382.065.244.244,0,0,1,.107-.135.153.153,0,0,1-.068-.119l.079-.073a.162.162,0,0,1,.095.051.147.147,0,0,0,.061.038c.027-.034,0-.053-.017-.086l.057.043-.041.058a.15.15,0,0,1-.069-.041.15.15,0,0,0-.086-.048l-.065.06c0,.055.062.118.063.119a.478.478,0,0,0-.114.144.39.39,0,0,0-.38-.059l-.1.023c-.131-.062-.187.029-.239.112a.609.609,0,0,1-.046.067m.99-.516.044-.022c-.019-.009-.086-.047-.087-.091s.081-.106.086-.108l.014.029-.017-.02c-.012.018-.069.063-.068.1s.06.07.084.081a.012.012,0,0,1,0,.008l0,0h0a.1.1,0,0,1-.047.02" transform="translate(771.132 353.031)"/><path d="M239.423,286.94c.072.069.021.185.05.206s.074-.011.074-.011a.518.518,0,0,0,.215-.022c.06.034.036-.016.074-.014.033.083.14.067.14.067a.855.855,0,0,0-.16-.13.508.508,0,0,1-.209.029c-.027-.006-.011-.038-.024-.057.051-.05.011-.172-.017-.218-.112-.074-.246.053-.143.15" transform="translate(771.136 352.977)" fill="#91857c"/><path d="M239.954,287.172a.129.129,0,0,1-.128-.074.916.916,0,0,1-.233.047l-.1.014-.041-.074a.174.174,0,0,0-.039-.143.1.1,0,0,1-.032-.114.126.126,0,0,1,.185-.046c.033.053.071.177.018.229a.262.262,0,0,0,.223.017.713.713,0,0,1,.17.131Zm-.124-.084a.131.131,0,0,0,.124.069v.007l.017-.007c-.015,0-.105-.091-.161-.117a.429.429,0,0,1-.178.031l-.055-.071c.048-.046.007-.167-.018-.209a.117.117,0,0,0-.161.043.087.087,0,0,0,.029.1.186.186,0,0,1,.044.153l.027.067.044-.025a1.039,1.039,0,0,0,.218-.024Z" transform="translate(771.139 352.98)"/><path d="M238.558,286.685c-.093.025-.253-.12-.328-.065s-.04.192.01.26-.072.091-.1.131.01.08.01.08l.034.022-.006.051.018.06s.016.014.022,0c.015.015,0,.06.039.066a.25.25,0,0,1,.011-.108s.067,0,.084-.024-.016-.092-.016-.092h.02a.115.115,0,0,1-.029-.062s.093-.03.092-.1-.151-.145-.1-.183.167.105.258.039.032,0,.032,0,.041-.093-.05-.068" transform="translate(771.512 353.025)" fill="#91857c"/><path d="M238.263,287.294l-.018,0-.08-.126,0-.013,0,.011h.007l.062.1a.341.341,0,0,1,.015-.09c.052,0,.077-.013.085-.026s-.008-.068-.017-.084l-.006-.072s.088-.029.087-.093c0-.029-.032-.062-.06-.091s-.05-.052-.048-.074a.233.233,0,0,1,.043-.015c-.029.033-.006.057.015.079s.063.066.064.1c0,.074-.093.106-.1.107.018.058.048.119.03.15s-.056.028-.08.028a.161.161,0,0,0-.014.1Zm-.11-.19-.014-.006a.069.069,0,0,1-.011-.091c.079-.052.108-.069.113-.091a.478.478,0,0,1-.063-.168.135.135,0,0,1,.046-.132.284.284,0,0,1,.178.026.353.353,0,0,0,.13.039l.081.006-.018.036-.064-.027a.385.385,0,0,1-.136-.041.37.37,0,0,0-.125-.039.119.119,0,0,0-.079.13.286.286,0,0,0,.051.131.092.092,0,0,1-.056.106c-.074.065-.039.1-.038.1Z" transform="translate(771.515 353.024)"/><path d="M239.018,285.254c-.124-.051-.376-.055-.517-.124a.1.1,0,0,0-.093.072c-.065,0-.108.1-.1.119-.118-.048-.173.138-.134.177-.1,0-.088.132-.1.168-.032.078.007.1.071.077.009.034,0,.053-.032.059.174.2.272-.123.425-.121a.546.546,0,0,0,.266-.15l.075.01Z" transform="translate(771.529 353.465)" fill="#91857c"/><path d="M238.226,285.871a.163.163,0,0,1-.118-.068l-.044-.063a.086.086,0,0,1,0-.08c.008-.081.017-.168.1-.172-.023-.007-.023-.056,0-.1s.058-.088.105-.083c.022,0,.034-.032.048-.055a.1.1,0,0,1,.081-.055.1.1,0,0,1,.095-.072,1.154,1.154,0,0,0,.295.074,1.088,1.088,0,0,1,.225.051l-.132.3-.082-.006a.5.5,0,0,1-.263.15.259.259,0,0,0-.158.093.26.26,0,0,1-.157.093m-.142-.142.069.009-.038.067c.1.076.175.039.258-.038a.267.267,0,0,1,.164-.1.554.554,0,0,0,.262-.147l.081.007.128-.281c-.051-.013-.133-.027-.218-.041a1.13,1.13,0,0,1-.3-.074.091.091,0,0,0-.082.067.113.113,0,0,0-.079.055l.008.017-.038.052a.1.1,0,0,0-.123.067c-.016.039-.018.084,0,.1-.079.015-.086.092-.091.143l-.01.1Z" transform="translate(771.532 353.468)"/><path d="M239.754,285.026a.182.182,0,1,1-.182-.182.182.182,0,0,1,.182.182" transform="translate(771.135 353.551)" fill="#91857c"/><path d="M239.569,285.219a.19.19,0,0,1-.19-.19c0-.209.379-.209.379,0a.19.19,0,0,1-.19.19m0-.365a.176.176,0,0,0-.175.175c0,.193.351.193.351,0a.176.176,0,0,0-.175-.175" transform="translate(771.138 353.548)"/><path d="M239.056,286.528a.415.415,0,0,1-.319-.291c.105-.413.649-.2.7-.508a.937.937,0,0,1,.138-.581.247.247,0,0,1,.121-.084.107.107,0,0,1-.006.074,1.869,1.869,0,0,1,.3.045.129.129,0,0,1,.018.1c-.006.031-.04.022-.04.022a.107.107,0,0,1-.107.032.348.348,0,0,1-.14.042s.2.207.164.272a.414.414,0,0,1,.1.109.617.617,0,0,0,.178-.135c.078,0,.2.081.269.091l.156.127s-.093.06-.133-.02c-.049,0-.154-.112-.3-.076a.325.325,0,0,1-.147.22.4.4,0,0,1,.206.025c.075.064.186.15.186.15l.1.169s-.091.016-.125-.1c-.034.095-.035-.059-.169-.131a.1.1,0,0,1-.1-.019.885.885,0,0,1-.347.067,3.023,3.023,0,0,0-.266.155c-.1.045-.127.023-.127.023l-.079,0c-.011.048,0,.12-.048.133.027.03-.02.157-.068.178.022.081.089.106.159.147a.1.1,0,0,1,.1.008.494.494,0,0,1,.081.141.373.373,0,0,1-.11-.006c-.026-.012-.029-.039-.059-.031-.192-.171-.293-.1-.311-.141s.045-.144.025-.21" transform="translate(771.329 353.485)" fill="#91857c"/><path d="M239.461,286.921l-.065-.008a.566.566,0,0,0-.323-.156.138.138,0,0,1-.029-.024.5.5,0,0,1,.3.137l.117.044.045-.008c-.008,0-.035-.067-.065-.107a.369.369,0,0,1,.074.112Zm-.042-.143-.1-.009c-.088-.049-.142-.079-.161-.151a.223.223,0,0,0,.072-.126l0,0a.165.165,0,0,1-.065.135.239.239,0,0,0,.127.117l.078.007a.259.259,0,0,1,.045.032Zm-.387-.06a.089.089,0,0,1,0-.072.229.229,0,0,0,.014-.118.41.41,0,0,1-.319-.293c.058-.227.242-.27.406-.307.144-.034.269-.062.29-.2a.931.931,0,0,1,.14-.583.251.251,0,0,1,.126-.088.072.072,0,0,1,.013.049l-.011-.042,0,.007a.24.24,0,0,0-.118.081.925.925,0,0,0-.136.576c-.023.151-.159.183-.3.215-.159.036-.34.079-.395.294a.408.408,0,0,0,.314.282.2.2,0,0,1-.009.131.323.323,0,0,0-.014.069m.357-.4h-.06l.033-.018a.194.194,0,0,0,.124-.022.687.687,0,0,0,.12-.074.573.573,0,0,1,.147-.082.733.733,0,0,0,.276-.045l.074-.022.1.02a.3.3,0,0,1,.109.1.692.692,0,0,0-.117-.092l-.093-.025,0,.007-.071.022a.734.734,0,0,1-.232.048.372.372,0,0,0-.187.078.72.72,0,0,1-.122.074.272.272,0,0,1-.1.029m1.082-.007a.1.1,0,0,1-.087-.05.155.155,0,0,0,.1.044l-.094-.159s-.111-.085-.185-.148a.289.289,0,0,0-.136-.027l-.013,0a.257.257,0,0,1,.157.02c.077.065.187.151.187.151l.1.171a.131.131,0,0,1-.029,0m-.417-.375a.422.422,0,0,0,.087-.19.367.367,0,0,1,.241.044l.063.033,0-.007.064.041-.091-.137a.451.451,0,0,1-.107-.038.471.471,0,0,0-.158-.051.569.569,0,0,1-.175.135c-.01,0-.07-.092-.108-.109.022-.059-.112-.217-.166-.273.006-.012.1-.021.14-.053.069.006.088-.013.106-.031.043-.048.045-.065.021-.113a.36.36,0,0,1-.113-.018.715.715,0,0,0-.152-.025v0a.426.426,0,0,1,.157.015.684.684,0,0,0,.117.021.13.13,0,0,1,.024.107c-.062.046-.084.063-.124.063a.644.644,0,0,1-.168.039c.025.01.2.2.169.267.038.009.1.094.1.1a.882.882,0,0,0,.167-.135.583.583,0,0,1,.169.048.48.48,0,0,0,.107.039l.159.129c0,.022-.112.054-.144-.011-.013,0-.036-.008-.066-.023a.346.346,0,0,0-.171-.056.518.518,0,0,1-.151.19" transform="translate(771.332 353.488)"/><path d="M238.536,286.067c.011-.013.08.015.08.015l.128.08.26.168.092.133-.165-.054-.231-.2-.124-.08s-.051-.051-.04-.065" transform="translate(771.39 353.187)" fill="#91857c"/><path d="M239.11,286.475l-.185-.06-.356-.279c-.022-.022-.054-.059-.041-.074a.2.2,0,0,1,.088.012l.388.248Zm-.566-.413-.006.008.394.331.143.046-.079-.116Z" transform="translate(771.393 353.188)"/><path d="M240.595,286.674c-.09-.023-.311.246-.311.246l.166.18a.688.688,0,0,1,.145-.426" transform="translate(770.868 353.005)" fill="#91857c"/><path d="M240.455,287.115l-.178-.194c.008-.02.206-.259.3-.259l0,.006c-.1.027-.286.251-.288.253l.154.159a.771.771,0,0,1,.1-.362.969.969,0,0,0-.086.379Z" transform="translate(770.87 353.009)"/><path d="M239,285.428a.192.192,0,0,0,.011.241c0,.076.07.232.121.246a1.348,1.348,0,0,0,.369.054.384.384,0,0,0,.2.331.062.062,0,0,0,.011.044c.011.015.066.018.068.009a.181.181,0,0,0,.149.034c.008-.014-.171-.14-.211-.178a1.106,1.106,0,0,1-.114-.317.335.335,0,0,0-.239-.1l0-.2.008-.232-.082-.043a.108.108,0,0,0,.026-.017c.02.008.057-.032.062-.043.019.007.036.007.04,0s.006-.048.013-.069c.062-.055-.009-.171-.1-.172s-.115.112-.113.12c.008.036.006.054,0,.063a.225.225,0,0,1-.04.028.157.157,0,0,0-.116,0c-.063.025-.135.058-.138.1a.127.127,0,0,0-.085.073c-.026,0-.058.016-.113.1-.1.043-.1.251-.1.251a.182.182,0,0,0-.028.059c0,.02.01.039.022.036,0,.013.018.025.027.02a.031.031,0,0,0,.034.02c0,.009.039.006.042,0s0-.055,0-.058.035.02.044.014,0-.027-.006-.035-.032-.015-.037-.048a.153.153,0,0,1,.017-.079s.105-.083.118-.154c.08.008.122-.062.145-.089" transform="translate(771.373 353.503)" fill="#91857c"/><path d="M239.907,286.4a.2.2,0,0,1-.13-.042h0a.4.4,0,0,0,.13.029v.007l.019-.01a1.5,1.5,0,0,0-.124-.1c-.036-.028-.071-.055-.086-.069a1.12,1.12,0,0,1-.116-.321.331.331,0,0,0-.231-.1l0-.212.008-.232-.079-.036,0-.006.137-.138a.067.067,0,0,0,.015-.077.128.128,0,0,0-.114-.082.093.093,0,0,0-.071.03.151.151,0,0,0-.035.081l0,0-.046.1-.113-.006,0,.006c-.056.022-.131.055-.134.093a.146.146,0,0,0-.085.075c-.039,0-.072.037-.114.106-.1.044-.1.246-.1.248l-.008.035v-.035h-.007c0-.008.007-.213.108-.258.042-.072.077-.105.108-.105a.143.143,0,0,1,.091-.073c0-.039.073-.074.137-.1l.119.007,0-.006.036-.083a.15.15,0,0,1,.034-.087.1.1,0,0,1,.084-.041.144.144,0,0,1,.129.091.081.081,0,0,1-.019.093l-.034.079c-.022,0-.055.039-.079.039l.053.045-.009.444a.285.285,0,0,1,.238.1,1.12,1.12,0,0,0,.114.318c.013.012.047.038.084.066.114.088.134.107.127.119Zm-.453-.43a1.374,1.374,0,0,1-.318-.047c-.055-.015-.121-.173-.127-.253a.185.185,0,0,1-.032-.2.126.126,0,0,1-.1.06.422.422,0,0,1-.125.152.158.158,0,0,0-.015.072l.041.091-.073.053-.076-.055.055.035.046-.06a.257.257,0,0,1,.011-.144s.105-.085.117-.153a.174.174,0,0,0,.136-.079l0,.008a.151.151,0,0,1,.015-.022c-.006.012-.012.023-.018.034a.214.214,0,0,0,.038.205c.009.086.075.232.12.245a1.64,1.64,0,0,0,.329.055v.006Z" transform="translate(771.364 353.506)"/><path d="M238.9,285.128c.025-.059.112-.053.112-.053s.032-.082.15-.033c.045-.034.161.014.161.014a.126.126,0,0,1,.1-.051.123.123,0,0,1,.117.126c-.058.015-.158-.046-.235-.029a.51.51,0,0,0-.144.088c-.071.008-.147-.065-.261-.062" transform="translate(771.279 353.503)" fill="#91857c"/><path d="M239.159,285.195a.278.278,0,0,1-.1-.026.373.373,0,0,0-.147-.036v0a.265.265,0,0,1,.152.027.261.261,0,0,0,.091.025v.007l.01-.008a.276.276,0,0,1,.1-.066l.074-.025a.414.414,0,0,1,.1.019.329.329,0,0,0,.081.015c-.015-.078-.043-.107-.1-.114a.134.134,0,0,0-.095.048,1.1,1.1,0,0,0-.121-.024l-.115,0a.078.078,0,0,0-.074.044c-.029,0-.086.008-.109.047.015-.053.077-.056.1-.056a.13.13,0,0,1,.158-.032.308.308,0,0,1,.161.014.108.108,0,0,1,.089-.053.143.143,0,0,1,.117.067l.015.069a.235.235,0,0,1-.112-.009.4.4,0,0,0-.1-.019l-.068.024a.3.3,0,0,0-.1.065Z" transform="translate(771.276 353.506)"/><path d="M239.22,285.311c.027-.016.092-.045.135-.011a.736.736,0,0,0,.117.1l.081.034.036.022-.025.369c-.074-.077-.144-.089-.2-.18-.029-.039-.007-.131-.057-.192s-.1-.1-.092-.14" transform="translate(771.186 353.419)" fill="#91857c"/><path d="M239.57,285.836l-.011-.011a.557.557,0,0,0-.086-.07.338.338,0,0,1-.113-.111.166.166,0,0,1-.02-.076.209.209,0,0,0-.037-.115c-.074-.084-.1-.115-.093-.147a.17.17,0,0,1,.092-.032l.042.027a.159.159,0,0,0-.124.013c0,.019.022.048.055.084a.27.27,0,0,1,.078.168.151.151,0,0,0,.018.069.321.321,0,0,0,.109.108.6.6,0,0,1,.076.06l.008-.115,0,.131Z" transform="translate(771.189 353.422)"/><path d="M239.5,285.472s.042-.008.053,0,.029.01.034.022.027.013.027.025c.015,0,.02.032.02.032l-.013.021a.066.066,0,0,1-.018-.031c-.01,0-.032-.01-.037-.025a.032.032,0,0,1-.032-.026c-.017,0-.033-.019-.033-.019" transform="translate(771.103 353.364)" fill="#91857c"/><path d="M239.907,285.124c-.024-.027-.067-.008-.067-.008l-.112.2-.05.041,0,.152.041.143-.015.11a.279.279,0,0,0,.064-.084.449.449,0,0,0-.021-.122.2.2,0,0,1,.006-.164c.041-.107.135-.2.157-.265" transform="translate(771.05 353.471)" fill="#91857c"/><path d="M239.688,285.78l.017-.131-.041-.14,0-.157.053-.044.114-.193.075.006a.376.376,0,0,1-.064.116.743.743,0,0,0-.093.156.2.2,0,0,0-.007.159.407.407,0,0,1,.022.127.279.279,0,0,1-.065.087Zm.209-.656-.166.194-.053.19.041.141-.012.092a.191.191,0,0,0,.048-.065.461.461,0,0,0-.021-.118.207.207,0,0,1,.006-.169.769.769,0,0,1,.094-.159.444.444,0,0,0,.063-.105" transform="translate(771.053 353.47)"/><path d="M240.171,285.377a.989.989,0,0,1-.465.342c-.079.02-.051-.186-.051-.186l-.02,0s-.044.2.062.205a.988.988,0,0,0,.509-.364Z" transform="translate(771.064 353.392)" fill="#91857c"/><path d="M239.7,285.748l-.055-.027c-.044-.055-.016-.181-.015-.187a.09.09,0,0,1,.012.023.227.227,0,0,0,.014.155l.043.027v-.006a.886.886,0,0,0,.443-.286.774.774,0,0,1-.44.3Zm.01-.024a.129.129,0,0,1-.025-.023.94.94,0,0,0,.482-.33c.009,0,.007.018,0,.039a1.082,1.082,0,0,1-.453.314" transform="translate(771.067 353.393)"/><path d="M240.323,287.286a.059.059,0,0,1-.062,0,.083.083,0,0,0-.068-.045s-.031-.091-.081-.065c-.008-.047-.062-.022-.062-.022s0-.069-.065-.06c.021-.079-.088-.074-.088-.074s0-.088-.164-.071c.345-.154.619.243.619.243Z" transform="translate(771.033 352.933)" fill="#91857c"/><path d="M240.257,287.292a.084.084,0,0,0-.065-.044c-.007-.006-.025-.057-.053-.068l-.011,0-.088-.031h-.011l-.054-.063c-.027-.068-.081-.066-.081-.064a.159.159,0,0,0-.164-.072c.343-.169.622.227.624.232a.687.687,0,0,0-.464-.267.381.381,0,0,0-.158.034.139.139,0,0,1,.141.015c.022.043.081.04.106.072l.117.1a.179.179,0,0,1,.1.093.076.076,0,0,1,.068.046l.06.009Z" transform="translate(771.033 352.933)"/><path d="M240.787,287.492s.08.09.122.091.045-.088.045-.088.013.038.034.028a.034.034,0,0,0,.025.034s-.072.167-.277.008Z" transform="translate(770.734 352.761)" fill="#91857c"/><path d="M240.892,287.64a.276.276,0,0,1-.163-.07.272.272,0,0,0,.193.052.128.128,0,0,0,.081-.069l-.046-.052c0,.022-.011.088-.051.088h0c-.044,0-.119-.084-.128-.093l.011-.009c.022.024.1.074.117.088s.036-.058.037-.081l.012.006,0,0h.008v.007l.059.058a.143.143,0,0,1-.091.077.14.14,0,0,1-.034,0" transform="translate(770.736 352.763)"/><path d="M239.894,287.532l-.029.117s-.036.032-.025.039.068-.011.068-.011a.291.291,0,0,0,.116-.037.076.076,0,0,0,.06.046.064.064,0,0,0,0-.028.073.073,0,0,0,.036,0s.012-.033-.013-.046c0-.024.015-.045-.028-.042-.032.034-.11.072-.131.059s.078-.056.051-.112Z" transform="translate(771.001 352.755)" fill="#91857c"/><path d="M239.835,287.7l.051-.163.014,0-.029.117a.187.187,0,0,0,.146-.015l.055.043.021-.064.025.048a.087.087,0,0,1-.042.019l.006,0-.012,0h0a.053.053,0,0,1-.055-.039c-.017.03-.1.041-.108.041Z" transform="translate(771.002 352.748)"/><path d="M237.323,286.248l.115-.027-.012-.053a.043.043,0,0,0-.015-.025.054.054,0,0,0-.034,0l0-.008.1-.023v.008a.064.064,0,0,0-.024.01.035.035,0,0,0-.009.015.043.043,0,0,0,0,.022l.013.053.092-.022a.106.106,0,0,0,.029-.01.021.021,0,0,0,.007-.011.036.036,0,0,0,0-.021v-.011l.007,0,.03.125-.008,0,0-.01a.03.03,0,0,0-.018-.023.06.06,0,0,0-.034,0l-.189.045a.088.088,0,0,0-.029.01.016.016,0,0,0-.007.011.04.04,0,0,0,0,.02l0,.011-.008,0-.052-.218.064-.018,0,.008a.081.081,0,0,0-.027.02.039.039,0,0,0-.01.021.1.1,0,0,0,0,.035Zm-.074-.519a.14.14,0,0,1,.051-.1.152.152,0,0,1,.113-.036.159.159,0,0,1,.112.05.139.139,0,0,1,.039.107.142.142,0,0,1-.049.1.161.161,0,0,1-.117.035.153.153,0,0,1-.114-.055.147.147,0,0,1-.034-.1m.016.006a.076.076,0,0,0,.027.065.164.164,0,0,0,.107.037.177.177,0,0,0,.115-.025.077.077,0,0,0,.034-.062.084.084,0,0,0-.029-.072.165.165,0,0,0-.1-.034.182.182,0,0,0-.117.024.083.083,0,0,0-.034.066m.436-.55-.029.075-.168.045-.006.018,0,.006,0,.006.081.031c.018.007.029.01.035.007a.034.034,0,0,0,.018-.02l0-.011.008,0-.046.121-.008,0,0-.011a.03.03,0,0,0,0-.03.081.081,0,0,0-.029-.015l-.181-.069a.069.069,0,0,0-.035-.007.035.035,0,0,0-.019.022l0,.01-.007,0,.039-.1a.313.313,0,0,1,.032-.064.091.091,0,0,1,.038-.027.073.073,0,0,1,.086.035.1.1,0,0,1,.008.063l.1-.027a.143.143,0,0,0,.05-.021.088.088,0,0,0,.026-.033Zm-.22.145,0-.006v0a.1.1,0,0,0,.006-.067.064.064,0,0,0-.037-.038.068.068,0,0,0-.048,0,.066.066,0,0,0-.034.037.245.245,0,0,0-.008.034Zm.639-1,.058.077-.007,0a.115.115,0,0,0-.054-.028.092.092,0,0,0-.072.015.1.1,0,0,0-.049.086.165.165,0,0,0,.028.09.191.191,0,0,0,.057.057.118.118,0,0,0,.065.02.109.109,0,0,0,.055-.016.183.183,0,0,0,.025-.021l.018-.027-.048-.073a.1.1,0,0,0-.019-.023.023.023,0,0,0-.015,0,.067.067,0,0,0-.024.011l0-.007.1-.064,0,.008,0,0a.025.025,0,0,0-.013.022.086.086,0,0,0,.014.029l.05.077a.236.236,0,0,1-.031.044.228.228,0,0,1-.044.036.16.16,0,0,1-.141.025.146.146,0,0,1-.081-.062.143.143,0,0,1-.025-.074.155.155,0,0,1,.015-.089.15.15,0,0,1,.055-.058.174.174,0,0,1,.027-.015l.039-.011.016,0a.01.01,0,0,0,0-.008.044.044,0,0,0-.006-.015Zm.489.034-.112.03-.007.051a.069.069,0,0,0,0,.027.013.013,0,0,0,.008.009.05.05,0,0,0,.029,0l0,.008-.092.024,0-.008a.049.049,0,0,0,.022-.014.139.139,0,0,0,.013-.048l.039-.266.008,0,.165.214a.1.1,0,0,0,.032.032.043.043,0,0,0,.03,0l0,.008-.114.03,0-.008a.053.053,0,0,0,.022-.012.015.015,0,0,0,0-.014.085.085,0,0,0-.017-.027Zm-.01-.014-.08-.1-.02.131Zm.531,0,.007,0-.029.08-.232-.009v-.008h.012a.031.031,0,0,0,.027-.012.067.067,0,0,0,.006-.033l.008-.193c0-.02,0-.031,0-.036a.033.033,0,0,0-.025-.011h-.012v-.008l.135,0v.008a.084.084,0,0,0-.034,0,.027.027,0,0,0-.013.011.093.093,0,0,0,0,.034l-.008.188a.048.048,0,0,0,0,.025.015.015,0,0,0,.008.007.141.141,0,0,0,.035,0h.022a.147.147,0,0,0,.048,0,.059.059,0,0,0,.026-.017.141.141,0,0,0,.025-.04m.4.107.006,0-.051.069-.22-.074,0-.008.011,0a.029.029,0,0,0,.03,0,.068.068,0,0,0,.014-.029l.061-.184a.062.062,0,0,0,.006-.035.029.029,0,0,0-.022-.017l-.011,0,0-.008.128.043,0,.007a.076.076,0,0,0-.033-.006.026.026,0,0,0-.017.007.088.088,0,0,0-.013.031l-.06.18a.054.054,0,0,0,0,.025.013.013,0,0,0,.006.009.093.093,0,0,0,.032.013l.021.007a.175.175,0,0,0,.048.01.068.068,0,0,0,.029-.009.141.141,0,0,0,.035-.032m.323.171-.1-.067-.044.027a.067.067,0,0,0-.022.017.015.015,0,0,0,0,.013.062.062,0,0,0,.02.022l0,.007-.076-.055,0-.007a.056.056,0,0,0,.025.008.125.125,0,0,0,.045-.022l.23-.14.006,0-.059.265a.111.111,0,0,0,0,.045.048.048,0,0,0,.018.025l0,.007-.1-.068,0-.007a.039.039,0,0,0,.023.009.017.017,0,0,0,.013-.006.167.167,0,0,0,.01-.03Zm0-.016.029-.129-.113.069Zm.357.066.048.065-.072.283.14-.1c.015-.011.022-.019.024-.025a.032.032,0,0,0-.008-.027l-.007-.008.007,0,.062.084-.007,0-.006-.008a.03.03,0,0,0-.025-.015.076.076,0,0,0-.029.016l-.2.151,0-.006.077-.3-.148.11c-.015.011-.023.02-.025.026a.038.038,0,0,0,.008.027l.006.008-.007,0-.062-.084.006,0,.006.009a.032.032,0,0,0,.025.015.06.06,0,0,0,.029-.015l.168-.124a.154.154,0,0,0,0-.029.052.052,0,0,0,0-.02.051.051,0,0,0-.009-.017Zm.38.7-.066.027,0-.008a.064.064,0,0,0,.022-.015.044.044,0,0,0,.013-.024.067.067,0,0,0,0-.029l-.014-.041-.216.077a.06.06,0,0,0-.031.018.031.031,0,0,0,0,.027l0,.009-.008,0-.043-.121.008,0,0,.01a.031.031,0,0,0,.02.022.069.069,0,0,0,.032-.006l.217-.077-.012-.034a.148.148,0,0,0-.013-.027.054.054,0,0,0-.022-.013.06.06,0,0,0-.033,0l0-.008.067-.02Zm-.239.533,0-.081.135-.109v-.032l-.087,0c-.019,0-.031,0-.035.008a.033.033,0,0,0-.008.025v.011h-.009l-.006-.128h.008v.011a.032.032,0,0,0,.014.027.078.078,0,0,0,.032,0l.2-.009a.065.065,0,0,0,.034-.008.037.037,0,0,0,.008-.026V285.6h.008l.006.11a.256.256,0,0,1,0,.071.082.082,0,0,1-.024.04.068.068,0,0,1-.044.018.069.069,0,0,1-.049-.015.1.1,0,0,1-.032-.054l-.083.066a.157.157,0,0,0-.038.039.1.1,0,0,0-.011.041Zm.143-.222v.013a.1.1,0,0,0,.022.065.063.063,0,0,0,.048.019.066.066,0,0,0,.045-.02.064.064,0,0,0,.015-.048.2.2,0,0,0,0-.034Zm.083.618-.027.1h-.008V286.4a.041.041,0,0,0,0-.018.064.064,0,0,0-.009-.023.169.169,0,0,0-.024-.029l-.093-.1-.072-.02a.065.065,0,0,0-.035,0,.034.034,0,0,0-.015.024l0,.009-.008,0,.032-.124.008,0,0,.011a.028.028,0,0,0,0,.029s.013.009.03.013l.068.018.142-.047.032-.013a.093.093,0,0,0,.019-.018l0-.012.008,0-.033.124H240.6v-.007a.046.046,0,0,0,0-.02.014.014,0,0,0-.012-.012.064.064,0,0,0-.032.006l-.109.036.074.081a.06.06,0,0,0,.026.02.018.018,0,0,0,.012,0,.02.02,0,0,0,.01-.007.051.051,0,0,0,.007-.016Z" transform="translate(771.773 353.765)"/></g></g></svg>