<svg xmlns="http://www.w3.org/2000/svg" xmlns:xlink="http://www.w3.org/1999/xlink" width="36" height="36" viewBox="0 0 36 36"><defs><clipPath id="a"><circle cx="18" cy="18" r="18" transform="translate(2394 358)" fill="#fff" stroke="#707070" stroke-width="1"/></clipPath><clipPath id="b"><rect width="61.716" height="36" fill="none"/></clipPath></defs><g transform="translate(-2394 -358)" clip-path="url(#a)"><g transform="translate(2138.335 79.973)"><g transform="translate(229.665 278.027)" clip-path="url(#b)"><rect width="61.716" height="18" transform="translate(0 -0.001)" fill="#3e81c5"/><rect width="61.716" height="9" transform="translate(0 18)" fill="#f1d62f"/><rect width="61.716" height="9" transform="translate(0 27)" fill="#347d59"/><path d="M303.772,291.545,300.98,289.4l1.347,3.252-2.143-2.792.458,3.49-1.347-3.251-.461,3.488-.459-3.488-1.348,3.251.458-3.49-2.143,2.792,1.344-3.252-2.792,2.141,2.141-2.793-3.252,1.346,2.791-2.143-3.489.459,3.252-1.348-3.489-.46,3.489-.46-3.252-1.348,3.489.458-2.791-2.143,3.252,1.346-2.141-2.793,2.792,2.141-1.344-3.252,2.143,2.791-.458-3.488,1.348,3.25.459-3.488.461,3.488,1.347-3.25-.458,3.488,2.143-2.791-1.347,3.252,2.793-2.141-2.142,2.793,3.252-1.346-2.791,2.143,3.49-.458-3.25,1.348,3.488.46-3.488.46,3.25,1.348-3.49-.459,2.791,2.143-3.252-1.346Z" transform="translate(-245.713 -278.438)" fill="#dfad29"/><path d="M302.921,288.151a2.543,2.543,0,1,1-2.543-2.543,2.543,2.543,0,0,1,2.543,2.543" transform="translate(-247.259 -279.984)" fill="#dfad29"/><path d="M300.335,290.775A2.669,2.669,0,1,1,303,288.107a2.672,2.672,0,0,1-2.669,2.669m0-5.085a2.416,2.416,0,1,0,2.417,2.416,2.419,2.419,0,0,0-2.417-2.416" transform="translate(-247.215 -279.94)" fill="#3e81c5"/></g></g></g></svg>