<svg xmlns="http://www.w3.org/2000/svg" xmlns:xlink="http://www.w3.org/1999/xlink" width="36" height="36" viewBox="0 0 36 36"><defs><clipPath id="a"><circle cx="18" cy="18" r="18" transform="translate(1364 854)" fill="#fff" stroke="#707070" stroke-width="1"/></clipPath></defs><g transform="translate(-1364 -854)" clip-path="url(#a)"><g transform="translate(34.611 14)"><rect width="50.493" height="36" transform="translate(1322 840)" fill="#fff"/><rect width="1.227" height="3.375" transform="matrix(0.832, -0.555, 0.555, 0.832, 1354.394, 848.809)"/><rect width="1.227" height="3.375" transform="matrix(0.832, -0.555, 0.555, 0.832, 1356.607, 852.128)"/><rect width="1.227" height="7.364" transform="translate(1355.926 847.788) rotate(-33.689)"/><rect width="1.227" height="3.375" transform="translate(1357.458 846.767) rotate(-33.69)"/><rect width="1.227" height="3.375" transform="translate(1359.67 850.086) rotate(-33.69)"/><rect width="1.227" height="7.364" transform="translate(1334.992 861.744) rotate(-33.689)"/><rect width="1.227" height="3.375" transform="matrix(0.832, -0.555, 0.555, 0.832, 1333.46, 862.765)"/><rect width="1.227" height="3.375" transform="matrix(0.832, -0.555, 0.555, 0.832, 1335.673, 866.084)"/><rect width="1.227" height="7.364" transform="translate(1331.928 863.787) rotate(-33.689)"/><rect width="7.364" height="1.227" transform="matrix(0.555, -0.832, 0.832, 0.555, 1334.992, 854.256)"/><rect width="7.364" height="1.227" transform="matrix(0.555, -0.832, 0.832, 0.555, 1333.461, 853.235)"/><rect width="7.364" height="1.227" transform="matrix(0.555, -0.832, 0.832, 0.555, 1331.929, 852.214)"/><rect width="3.375" height="1.227" transform="matrix(0.555, -0.832, 0.832, 0.555, 1354.395, 867.191)"/><rect width="3.375" height="1.227" transform="matrix(0.555, -0.832, 0.832, 0.555, 1356.607, 863.872)"/><rect width="3.375" height="1.227" transform="matrix(0.555, -0.832, 0.832, 0.555, 1355.926, 868.212)"/><rect width="3.375" height="1.227" transform="matrix(0.555, -0.832, 0.832, 0.555, 1358.139, 864.893)"/><rect width="3.375" height="1.227" transform="matrix(0.555, -0.832, 0.832, 0.555, 1357.458, 869.233)"/><rect width="3.375" height="1.227" transform="matrix(0.555, -0.832, 0.832, 0.555, 1359.67, 865.914)"/><path d="M460.7,531.952c-.027.039-.053.08-.078.12.026-.04.051-.08.078-.12" transform="translate(880.42 321.964)" fill="#b50037"/><path d="M470.56,527.786a7.364,7.364,0,0,0-10.211,2.043,3.682,3.682,0,1,0,6.127,4.085A3.681,3.681,0,1,1,472.6,538a7.364,7.364,0,0,0-2.041-10.212" transform="translate(880.771 324.087)" fill="#b50037"/><path d="M459.949,531.952a3.682,3.682,0,0,0,6.127,4.085,3.681,3.681,0,1,1,6.126,4.085,7.363,7.363,0,1,1-12.253-8.169" transform="translate(881.171 321.964)" fill="#1e3476"/><rect width="50.493" height="29.455" transform="translate(1322 843.273)" fill="none"/></g></g></svg>