<svg xmlns="http://www.w3.org/2000/svg" xmlns:xlink="http://www.w3.org/1999/xlink" width="36" height="36" viewBox="0 0 36 36"><defs><clipPath id="a"><circle cx="18" cy="18" r="18" transform="translate(1353 755)" fill="#fff" stroke="#707070" stroke-width="1"/></clipPath><clipPath id="b"><rect width="61.713" height="36" fill="none"/></clipPath></defs><g transform="translate(-1353 -755)" clip-path="url(#a)"><g transform="translate(1318.921 319.375)"><g transform="translate(30.079 435.625)" clip-path="url(#b)"><rect width="61.714" height="35.999" transform="translate(0 0.001)"/><rect width="61.714" height="12" transform="translate(0 12)" fill="#fff"/><rect width="61.714" height="11.999" transform="translate(0 24)" fill="#337b40"/><path d="M30.079,435.626v36l36-18Z" transform="translate(-30.079 -435.625)" fill="#bc0030"/><path d="M44.2,456.422l-.558,1.413-1.453-.444.757,1.317-1.254.858,1.5.229-.111,1.516,1.115-1.031,1.116,1.031-.111-1.516,1.5-.229-1.254-.858.757-1.317-1.453.444Z" transform="translate(-33.077 -440.993)" fill="#fff"/></g></g></g></svg>