<svg xmlns="http://www.w3.org/2000/svg" xmlns:xlink="http://www.w3.org/1999/xlink" width="36" height="36" viewBox="0 0 36 36"><defs><clipPath id="a"><circle cx="18" cy="18" r="18" transform="translate(1614 911)" fill="#fff" stroke="#707070" stroke-width="1"/></clipPath><clipPath id="b"><rect width="61.716" height="36" fill="none"/></clipPath></defs><g transform="translate(-1614 -911)" clip-path="url(#a)"><g transform="translate(1273.542 396.581)"><g transform="translate(329.458 514.419)" clip-path="url(#b)"><rect width="61.716" height="6.001" fill="#2a4b9e"/><rect width="61.716" height="6" transform="translate(0 30)" fill="#2a4b9e"/><rect width="61.716" height="22" transform="translate(0 7.001)" fill="#d90031"/><rect width="61.716" height="1" transform="translate(0 6)" fill="#fff"/><rect width="61.716" height="1" transform="translate(0 29)" fill="#fff"/><path d="M359.025,527.9a8,8,0,1,1-8,8,8,8,0,0,1,8-8" transform="translate(-335.024 -517.897)" fill="#fff"/><path d="M359.243,528.235l1.741,5.355h5.63l-4.555,3.31,1.739,5.354-4.555-3.309-4.556,3.309,1.741-5.354-4.556-3.31H357.5Z" transform="translate(-335.243 -517.985)" fill="#d90031"/></g></g></g></svg>