<svg xmlns="http://www.w3.org/2000/svg" xmlns:xlink="http://www.w3.org/1999/xlink" width="36" height="36" viewBox="0 0 36 36"><defs><clipPath id="a"><circle cx="18" cy="18" r="18" transform="translate(2652 371)" fill="#fff" stroke="#707070" stroke-width="1"/></clipPath><clipPath id="b"><rect width="61.713" height="36" fill="none"/></clipPath></defs><g transform="translate(-2652 -371)" clip-path="url(#a)"><g transform="translate(2010.164 -64.625)"><g transform="translate(628.836 435.625)" clip-path="url(#b)"><rect width="61.713" height="11.999" transform="translate(0 0.001)" fill="#eed12f"/><rect width="61.713" height="12.001" transform="translate(0 11.999)" fill="#242ea7"/><rect width="61.713" height="11.999" transform="translate(0 24)" fill="#bd0034"/><path d="M666.458,456.371l.479-3.416L668.559,456l-3.1-1.513,3.4-.6Z" transform="translate(-638.288 -440.098)" fill="#fff"/><path d="M671.112,456l1.62-3.047.481,3.416-2.4-2.482,3.4.6Z" transform="translate(-639.671 -440.098)" fill="#fff"/><path d="M662.283,458.363l-.717-3.376,2.564,2.31-3.431-.361,2.988-1.726Z" transform="translate(-637.06 -440.622)" fill="#fff"/><path d="M675.529,457.3l2.565-2.31-.719,3.376-1.4-3.153,2.988,1.726Z" transform="translate(-640.888 -440.622)" fill="#fff"/><path d="M659.09,461.555l-1.827-2.925,3.2,1.292-3.349.835,2.218-2.643Z" transform="translate(-636.134 -441.429)" fill="#fff"/><path d="M679.227,459.922l3.2-1.292-1.827,2.925-.242-3.442,2.219,2.643Z" transform="translate(-641.842 -441.429)" fill="#fff"/><path d="M657.06,465.667l-2.718-2.124,3.448.12-2.862,1.93,1.181-3.243Z" transform="translate(-635.419 -442.523)" fill="#fff"/><path d="M681.863,463.663l3.448-.12-2.718,2.124.951-3.317,1.18,3.244Z" transform="translate(-642.522 -442.523)" fill="#fff"/></g></g></g></svg>