<svg xmlns="http://www.w3.org/2000/svg" xmlns:xlink="http://www.w3.org/1999/xlink" width="36" height="36" viewBox="0 0 36 36"><defs><clipPath id="a"><circle cx="18" cy="18" r="18" transform="translate(1560 518)" fill="#fff" stroke="#707070" stroke-width="1"/></clipPath><clipPath id="b"><rect width="61.714" height="36" fill="none"/></clipPath></defs><g transform="translate(-1560 -518)" clip-path="url(#a)"><g transform="translate(1317.335 161.166)"><g transform="translate(229.665 356.834)" clip-path="url(#b)"><rect width="61.715" height="36" fill="#fff"/><rect width="61.715" height="5.791" transform="translate(0 2.845)" fill="#313883"/><rect width="61.715" height="5.791" transform="translate(0 27.363)" fill="#313883"/><path d="M273.476,378.261l2.384-4.054h-4.73l-2.329-4.094-2.33,4.094H261.74l2.385,4.054-2.385,4.054h4.731l2.33,4.1,2.329-4.1h4.73Zm-5.521-4.054.846-1.473.846,1.473Zm4.768,5.355.812,1.413H271.9Zm-.818-4.016h1.631l-.812,1.414Zm-2.258,6.768-.846,1.473-.846-1.473Zm-2.461-1.339-1.56-2.715,1.56-2.715h3.231l1.56,2.715-1.56,2.715Zm-1.489,0h-1.63l.812-1.413Zm-1.63-5.429h1.63l-.818,1.414Z" transform="translate(-237.943 -360.261)" fill="#313883"/></g></g></g></svg>