<svg xmlns="http://www.w3.org/2000/svg" xmlns:xlink="http://www.w3.org/1999/xlink" width="36" height="36" viewBox="0 0 36 36"><defs><clipPath id="a"><circle cx="18" cy="18" r="18" transform="translate(3148 375)" fill="#fff" stroke="#707070" stroke-width="1"/></clipPath><clipPath id="b"><rect width="61.716" height="36" fill="none"/></clipPath></defs><g transform="translate(-3148 -375)" clip-path="url(#a)"><g transform="translate(2406.375 176.529)"><g transform="translate(728.625 198.471)" clip-path="url(#b)"><rect width="61.716" height="12" transform="translate(0 11.998)" fill="#fff"/><rect width="61.716" height="11.999" transform="translate(0 -0.001)" fill="#80a7d8"/><rect width="61.716" height="12" transform="translate(0 23.999)" fill="#80a7d8"/><path d="M769.886,222.729l.186,4.909s0,.091.062.091.059-.091.059-.091l.186-4.909Z" transform="translate(-739.274 -204.732)" fill="#f1bd51"/><path d="M770.129,227.745c-.062,0-.077-.07-.077-.107l-.185-4.909h.03l.185,4.909s0,.077.047.077.045-.076.045-.076l.186-4.91-.156,4.911c0,.036-.016.106-.075.106" transform="translate(-739.269 -204.731)" fill="#7a361d"/><path d="M770.052,222.729l.125,3.37.121-3.37Z" transform="translate(-739.317 -204.732)" fill="#7a361d"/><path d="M769.377,224.868c-.283.618-.043,1.123-.323,1.661a2.164,2.164,0,0,0-.125,1.229c-.018.249-.221.317-.169.376s.263-.058.345-.387-.114-.518.223-1.178.069-.96.409-1.551Z" transform="translate(-738.981 -205.284)" fill="#f1bd51"/><path d="M768.808,228.159l-.066-.017c-.03-.035,0-.07.037-.112a.445.445,0,0,0,.128-.275,1.344,1.344,0,0,0-.014-.237,1.589,1.589,0,0,1,.142-1,1.774,1.774,0,0,0,.159-.8,2.116,2.116,0,0,1,.163-.866l.027.013a2.1,2.1,0,0,0-.161.855,1.779,1.779,0,0,1-.162.807,1.569,1.569,0,0,0-.139.98,1.349,1.349,0,0,1,.015.243.469.469,0,0,1-.137.293c-.037.042-.048.059-.036.072.121-.013.257-.132.319-.38a1.025,1.025,0,0,0,.019-.306,1.51,1.51,0,0,1,.206-.876,1.819,1.819,0,0,0,.2-.793,1.577,1.577,0,0,1,.208-.759,1.948,1.948,0,0,0-.177.761,1.862,1.862,0,0,1-.206.8,1.485,1.485,0,0,0-.2.861,1.04,1.04,0,0,1-.019.315.532.532,0,0,1-.3.407Z" transform="translate(-738.975 -205.281)" fill="#7a361d"/><path d="M769.6,225.078c-.218.617.012,1.025-.283,1.545.327-.372.112-.855.4-1.488Z" transform="translate(-739.127 -205.338)" fill="#7a361d"/><path d="M770.379,220.99l-.186-4.907s0-.091-.059-.091-.062.091-.062.091l-.186,4.907Z" transform="translate(-739.274 -202.993)" fill="#f1bd51"/><path d="M770.369,220.986l-.186-4.907s0-.077-.044-.077-.047.076-.047.076l-.185,4.908.155-4.909c0-.036.016-.106.077-.106s.075.07.075.107l.186,4.906Z" transform="translate(-739.279 -202.987)" fill="#7a361d"/><path d="M770.3,221.558l-.121-3.368-.125,3.368Z" transform="translate(-739.317 -203.56)" fill="#7a361d"/><path d="M770.719,219.452c.28-.617.039-1.123.32-1.661a2.177,2.177,0,0,0,.127-1.231c.017-.247.22-.317.168-.372s-.262.056-.345.384.115.518-.223,1.179-.069.959-.409,1.549Z" transform="translate(-739.395 -203.04)" fill="#f1bd51"/><path d="M770.737,219.453l-.027-.013a2.119,2.119,0,0,0,.159-.852,1.748,1.748,0,0,1,.161-.809,1.567,1.567,0,0,0,.139-.979,1.533,1.533,0,0,1-.014-.247.475.475,0,0,1,.137-.293c.039-.043.047-.056.036-.068-.12.01-.257.127-.32.378a1,1,0,0,0-.018.306,1.509,1.509,0,0,1-.206.877,1.827,1.827,0,0,0-.2.792,1.564,1.564,0,0,1-.207.757,1.937,1.937,0,0,0,.177-.76,1.859,1.859,0,0,1,.206-.8,1.476,1.476,0,0,0,.2-.861,1.039,1.039,0,0,1,.019-.315.529.529,0,0,1,.3-.407l.008,0,.065.019c.03.033,0,.068-.036.108a.441.441,0,0,0-.128.275,1.3,1.3,0,0,0,.013.241,1.6,1.6,0,0,1-.142,1,1.747,1.747,0,0,0-.158.8,2.121,2.121,0,0,1-.161.864" transform="translate(-739.4 -203.034)" fill="#7a361d"/><path d="M770.7,219.844c.221-.615-.013-1.023.283-1.545-.328.375-.112.857-.4,1.491Z" transform="translate(-739.454 -203.588)" fill="#7a361d"/><path d="M768.48,222.4l-4.908.185s-.093,0-.093.061.093.062.093.062l4.908.185Z" transform="translate(-737.62 -204.646)" fill="#f1bd51"/><path d="M768.476,222.871l-4.91-.154c-.036,0-.108-.016-.108-.078s.071-.076.108-.076l4.908-.184v.03l-4.909.184s-.079,0-.079.046.077.047.078.047Z" transform="translate(-737.615 -204.641)" fill="#7a361d"/><path d="M769.047,222.565l-3.371.122,3.371.124Z" transform="translate(-738.187 -204.689)" fill="#7a361d"/><path d="M766.94,221.887c-.618-.283-1.122-.039-1.659-.322a2.185,2.185,0,0,0-1.233-.124c-.246-.02-.315-.221-.373-.171s.057.263.384.346.519-.113,1.178.225.96.07,1.551.408Z" transform="translate(-737.667 -204.353)" fill="#f1bd51"/><path d="M766.791,222.231a1.936,1.936,0,0,0-.76-.176,1.865,1.865,0,0,1-.8-.206,1.481,1.481,0,0,0-.862-.2,1.032,1.032,0,0,1-.313-.019.534.534,0,0,1-.407-.3l0-.009.017-.067c.035-.033.07,0,.111.037a.45.45,0,0,0,.274.13,1.234,1.234,0,0,0,.239-.014,1.607,1.607,0,0,1,1,.14,1.717,1.717,0,0,0,.795.159,2.108,2.108,0,0,1,.864.162l-.013.027a2.081,2.081,0,0,0-.852-.159,1.755,1.755,0,0,1-.808-.163,1.588,1.588,0,0,0-.982-.137,1.688,1.688,0,0,1-.245.015.472.472,0,0,1-.291-.138c-.041-.036-.059-.048-.07-.037.012.122.13.257.378.32a1,1,0,0,0,.306.018,1.51,1.51,0,0,1,.876.208,1.837,1.837,0,0,0,.793.2,1.566,1.566,0,0,1,.758.206" transform="translate(-737.663 -204.347)" fill="#7a361d"/><path d="M767.332,222.113c-.616-.22-1.022.01-1.542-.283.372.327.855.111,1.488.4Z" transform="translate(-738.217 -204.5)" fill="#7a361d"/><path d="M770.22,222.892l4.906-.185s.091,0,.091-.062-.091-.062-.091-.062l-4.906-.184Z" transform="translate(-739.36 -204.646)" fill="#f1bd51"/><path d="M770.22,222.912v-.03l4.906-.185s.077,0,.077-.047-.076-.046-.076-.046l-4.907-.184,4.908.154c.036,0,.106.016.106.076s-.07.078-.107.078Z" transform="translate(-739.36 -204.652)" fill="#7a361d"/><path d="M770.22,222.811l3.368-.124-3.368-.122Z" transform="translate(-739.36 -204.689)" fill="#7a361d"/><path d="M772.356,223.23c.617.283,1.121.041,1.662.323a2.162,2.162,0,0,0,1.229.125c.246.019.315.22.372.169s-.056-.263-.384-.345-.518.115-1.178-.224-.96-.069-1.55-.41Z" transform="translate(-739.911 -204.768)" fill="#f1bd51"/><path d="M775.6,223.876c-.025,0-.051-.023-.08-.048a.441.441,0,0,0-.274-.129,1.383,1.383,0,0,0-.24.014,1.591,1.591,0,0,1-.995-.142,1.734,1.734,0,0,0-.8-.16,2.119,2.119,0,0,1-.864-.163l.013-.027a2.1,2.1,0,0,0,.851.16,1.775,1.775,0,0,1,.812.163,1.564,1.564,0,0,0,.976.138,1.442,1.442,0,0,1,.247-.014.469.469,0,0,1,.292.137c.044.039.058.044.069.036-.011-.12-.128-.256-.378-.32a1.072,1.072,0,0,0-.306-.019,1.473,1.473,0,0,1-.876-.206,1.845,1.845,0,0,0-.792-.2,1.563,1.563,0,0,1-.758-.208,1.941,1.941,0,0,0,.76.177,1.877,1.877,0,0,1,.8.206,1.472,1.472,0,0,0,.86.2,1,1,0,0,1,.315.019.534.534,0,0,1,.407.3v.009l-.018.065a.042.042,0,0,1-.029.013" transform="translate(-739.909 -204.772)" fill="#7a361d"/><path d="M772.566,223.211c.615.22,1.022-.01,1.545.283-.375-.326-.858-.112-1.491-.4Z" transform="translate(-739.965 -204.827)" fill="#7a361d"/><path d="M768.808,222.5l-3.339,3.6s-.065.066-.022.108.109-.022.109-.022l3.6-3.338Z" transform="translate(-738.124 -204.672)" fill="#f1bd51"/><path d="M765.482,226.232c-.09-.062-.052-.123-.026-.149l3.339-3.6.021.021-3.339,3.6s-.053.056-.022.087.088-.021.088-.021l3.6-3.339-3.581,3.36a.135.135,0,0,1-.082.041" transform="translate(-738.123 -204.668)" fill="#7a361d"/><path d="M769.3,222.613l-2.295,2.469,2.471-2.295Z" transform="translate(-738.53 -204.702)" fill="#7a361d"/><path d="M767.309,223.8c-.634.237-.821.766-1.4.947a2.166,2.166,0,0,0-.96.782c-.186.161-.38.068-.384.144s.225.145.518-.029.285-.447.992-.675.726-.628,1.384-.8Z" transform="translate(-737.9 -205.008)" fill="#f1bd51"/><path d="M764.728,225.763a.283.283,0,0,1-.141-.031l-.044-.065c0-.045.049-.048.1-.052a.444.444,0,0,0,.285-.1,1.346,1.346,0,0,0,.157-.177,1.612,1.612,0,0,1,.809-.608,1.746,1.746,0,0,0,.677-.451,2.106,2.106,0,0,1,.724-.5l.01.028a2.1,2.1,0,0,0-.714.489,1.761,1.761,0,0,1-.689.458,1.576,1.576,0,0,0-.794.6,1.541,1.541,0,0,1-.16.181.474.474,0,0,1-.3.11c-.055,0-.075.007-.076.023a.44.44,0,0,0,.495-.042,1.023,1.023,0,0,0,.231-.2,1.491,1.491,0,0,1,.765-.475,1.818,1.818,0,0,0,.7-.415,1.566,1.566,0,0,1,.683-.389,1.933,1.933,0,0,0-.663.412,1.85,1.85,0,0,1-.714.421,1.471,1.471,0,0,0-.751.466,1.034,1.034,0,0,1-.237.208.714.714,0,0,1-.356.111" transform="translate(-737.895 -205.003)" fill="#7a361d"/><path d="M767.74,224.024c-.591.279-.717.732-1.292.893.5-.034.685-.527,1.335-.772Z" transform="translate(-738.387 -205.066)" fill="#7a361d"/><path d="M770.332,221.671l3.338-3.6s.065-.064.023-.108-.109.02-.109.02l-3.6,3.342Z" transform="translate(-739.299 -203.497)" fill="#f1bd51"/><path d="M770.347,221.676l-.021-.02,3.338-3.6s.053-.056.023-.088-.088.02-.088.021l-3.6,3.342,3.581-3.363c.025-.025.086-.065.13-.02s0,.1-.023.13Z" transform="translate(-739.302 -203.492)" fill="#7a361d"/><path d="M770.275,221.989l2.295-2.471-2.471,2.3Z" transform="translate(-739.329 -203.903)" fill="#7a361d"/><path d="M772.121,220.982c.634-.237.82-.766,1.4-.947a2.175,2.175,0,0,0,.96-.783c.188-.16.378-.065.384-.143s-.226-.146-.518.029-.286.447-.993.675-.726.628-1.384.806Z" transform="translate(-739.812 -203.777)" fill="#f1bd51"/><path d="M772.128,220.99l-.01-.028a2.091,2.091,0,0,0,.713-.489,1.768,1.768,0,0,1,.689-.458,1.578,1.578,0,0,0,.79-.6,1.474,1.474,0,0,1,.164-.183.47.47,0,0,1,.3-.109c.056,0,.076-.007.076-.024a.443.443,0,0,0-.495.043.99.99,0,0,0-.23.2,1.507,1.507,0,0,1-.766.474,1.822,1.822,0,0,0-.7.416,1.561,1.561,0,0,1-.682.389,1.933,1.933,0,0,0,.662-.413,1.857,1.857,0,0,1,.714-.422,1.481,1.481,0,0,0,.753-.466,1.056,1.056,0,0,1,.236-.208.536.536,0,0,1,.5-.079l.044.065c0,.046-.05.049-.105.053a.441.441,0,0,0-.284.1,1.4,1.4,0,0,0-.16.18,1.6,1.6,0,0,1-.806.606,1.727,1.727,0,0,0-.677.451,2.121,2.121,0,0,1-.724.495" transform="translate(-739.813 -203.771)" fill="#7a361d"/><path d="M772.23,221.128c.591-.279.717-.732,1.292-.891-.5.033-.685.525-1.335.771Z" transform="translate(-739.868 -204.088)" fill="#7a361d"/><path d="M769.158,221.322l-3.6-3.341s-.065-.065-.11-.021.022.108.022.108l3.339,3.6Z" transform="translate(-738.124 -203.497)" fill="#f1bd51"/><path d="M768.814,221.655l-3.361-3.582c-.026-.025-.064-.085-.022-.128s.105-.006.131.019l3.6,3.341-.021.023-3.6-3.342s-.056-.054-.088-.021.021.087.022.087Z" transform="translate(-738.119 -203.492)" fill="#7a361d"/><path d="M769.476,221.814l-2.471-2.3,2.295,2.471Z" transform="translate(-738.53 -203.903)" fill="#7a361d"/><path d="M768.469,219.823c-.237-.638-.766-.823-.947-1.4a2.163,2.163,0,0,0-.781-.959c-.161-.188-.067-.379-.144-.384s-.147.227.027.516.447.284.675.993.63.728.806,1.385Z" transform="translate(-738.404 -203.273)" fill="#f1bd51"/><path d="M768.114,219.96a1.933,1.933,0,0,0-.412-.664,1.87,1.87,0,0,1-.422-.712,1.465,1.465,0,0,0-.465-.753,1.031,1.031,0,0,1-.208-.237.535.535,0,0,1-.078-.5l.064-.042c.046,0,.049.05.053.1a.444.444,0,0,0,.1.285,1.35,1.35,0,0,0,.18.16,1.594,1.594,0,0,1,.6.8,1.737,1.737,0,0,0,.45.675,2.125,2.125,0,0,1,.5.727l-.029.011a2.089,2.089,0,0,0-.49-.717,1.758,1.758,0,0,1-.457-.688,1.565,1.565,0,0,0-.594-.789,1.418,1.418,0,0,1-.184-.164.473.473,0,0,1-.11-.3c0-.055-.007-.076-.024-.076-.078.094-.091.274.041.494a1.013,1.013,0,0,0,.2.229,1.489,1.489,0,0,1,.474.766,1.825,1.825,0,0,0,.417.7,1.558,1.558,0,0,1,.389.683" transform="translate(-738.399 -203.267)" fill="#7a361d"/><path d="M768.615,220.253c-.281-.591-.732-.716-.893-1.292.032.495.528.685.774,1.335Z" transform="translate(-738.715 -203.759)" fill="#7a361d"/><path d="M769.982,222.846l3.6,3.338s.065.065.11.022-.023-.108-.023-.108l-3.338-3.6Z" transform="translate(-739.299 -204.672)" fill="#f1bd51"/><path d="M773.653,226.224a.116.116,0,0,1-.084-.027l-3.6-3.336.021-.022,3.6,3.337s.054.058.088.022-.022-.086-.023-.087l-3.338-3.6,3.359,3.58c.027.028.064.088.023.129a.225.225,0,0,1-.047.005" transform="translate(-739.295 -204.675)" fill="#7a361d"/><path d="M770.1,222.788l2.471,2.294-2.295-2.468Z" transform="translate(-739.329 -204.702)" fill="#7a361d"/><path d="M771.286,224.633c.237.635.766.82.947,1.4a2.149,2.149,0,0,0,.782.957c.162.189.067.381.143.384s.148-.224-.027-.515-.446-.286-.674-.992-.63-.729-.807-1.386Z" transform="translate(-739.635 -205.185)" fill="#f1bd51"/><path d="M773.153,227.394c-.046,0-.048-.049-.052-.1A.444.444,0,0,0,773,227a1.4,1.4,0,0,0-.177-.157,1.589,1.589,0,0,1-.608-.806,1.735,1.735,0,0,0-.452-.679,2.123,2.123,0,0,1-.495-.723l.029-.011a2.086,2.086,0,0,0,.488.713,1.758,1.758,0,0,1,.458.691,1.564,1.564,0,0,0,.6.791,1.384,1.384,0,0,1,.181.16.478.478,0,0,1,.11.3c0,.059.007.074.023.075.078-.093.091-.272-.041-.492a1.024,1.024,0,0,0-.2-.231,1.5,1.5,0,0,1-.473-.764,1.83,1.83,0,0,0-.417-.7,1.553,1.553,0,0,1-.39-.683,1.911,1.911,0,0,0,.413.663,1.876,1.876,0,0,1,.423.714,1.484,1.484,0,0,0,.464.752,1.015,1.015,0,0,1,.208.237.529.529,0,0,1,.079.5Z" transform="translate(-739.63 -205.186)" fill="#7a361d"/><path d="M771.511,224.745c.28.589.731.714.892,1.292-.032-.494-.528-.684-.774-1.332Z" transform="translate(-739.693 -205.241)" fill="#7a361d"/><path d="M769.314,222.6l-1.709,4.6s-.035.086.023.11.091-.062.091-.062l2.048-4.464Z" transform="translate(-738.682 -204.699)" fill="#f1bd51"/><path d="M767.666,227.33c-.106-.024-.094-.095-.079-.13l1.708-4.6.029.011-1.709,4.6s-.029.073.013.09l.072-.055,2.049-4.463-2.022,4.476a.142.142,0,0,1-.062.07" transform="translate(-738.678 -204.697)" fill="#7a361d"/><path d="M769.656,222.666l-1.176,3.161,1.4-3.067Z" transform="translate(-738.911 -204.715)" fill="#7a361d"/><path d="M768.188,224.467c-.5.462-.467,1.021-.933,1.41a2.177,2.177,0,0,0-.588,1.091c-.111.22-.325.206-.3.28s.265.047.466-.224.1-.522.66-1,.433-.858.97-1.275Z" transform="translate(-738.365 -205.18)" fill="#f1bd51"/><path d="M766.439,227.293h-.024l-.067-.044c-.015-.043.027-.064.076-.088a.442.442,0,0,0,.224-.2,1.438,1.438,0,0,0,.081-.229,1.586,1.586,0,0,1,.511-.866,1.735,1.735,0,0,0,.452-.675,2.136,2.136,0,0,1,.481-.735l.02.023a2.1,2.1,0,0,0-.473.725,1.764,1.764,0,0,1-.461.686,1.565,1.565,0,0,0-.5.852,1.41,1.41,0,0,1-.082.234.471.471,0,0,1-.238.217c-.048.024-.067.034-.061.05.119.035.289-.023.439-.227a.979.979,0,0,0,.136-.277,1.525,1.525,0,0,1,.526-.73,1.859,1.859,0,0,0,.492-.655,1.566,1.566,0,0,1,.479-.621,1.963,1.963,0,0,0-.452.634,1.87,1.87,0,0,1-.5.665,1.493,1.493,0,0,0-.519.717,1.01,1.01,0,0,1-.139.284.572.572,0,0,1-.4.265" transform="translate(-738.36 -205.176)" fill="#7a361d"/><path d="M768.542,224.7c-.439.484-.382.95-.853,1.318.446-.219.432-.749.937-1.223Z" transform="translate(-738.707 -205.241)" fill="#7a361d"/><path d="M770.365,221.216l1.709-4.606s.035-.083-.022-.107-.093.061-.093.061l-2.048,4.464Z" transform="translate(-739.281 -203.124)" fill="#f1bd51"/><path d="M770.385,221.219l-.029-.011,1.709-4.606s.029-.069-.013-.087l-.073.053-2.048,4.464,2.02-4.476a.14.14,0,0,1,.061-.069l.088.036a.138.138,0,0,1-.006.091Z" transform="translate(-739.285 -203.121)" fill="#7a361d"/><path d="M770.291,221.694l1.176-3.16-1.4,3.066Z" transform="translate(-739.32 -203.649)" fill="#7a361d"/><path d="M771.517,220.015c.5-.462.467-1.021.933-1.41a2.166,2.166,0,0,0,.588-1.091c.111-.222.324-.206.3-.28s-.265-.049-.466.224-.094.523-.66,1-.433.86-.97,1.274Z" transform="translate(-739.624 -203.305)" fill="#f1bd51"/><path d="M771.531,220.021l-.02-.022a2.1,2.1,0,0,0,.473-.726,1.771,1.771,0,0,1,.461-.686,1.557,1.557,0,0,0,.5-.852,1.414,1.414,0,0,1,.082-.234.461.461,0,0,1,.239-.217c.048-.024.066-.034.06-.05-.119-.035-.289.024-.439.228a.967.967,0,0,0-.136.277,1.512,1.512,0,0,1-.526.73,1.838,1.838,0,0,0-.49.654,1.568,1.568,0,0,1-.481.62,1.941,1.941,0,0,0,.453-.634,1.868,1.868,0,0,1,.5-.664,1.481,1.481,0,0,0,.518-.717,1.035,1.035,0,0,1,.14-.285.524.524,0,0,1,.426-.263l.067.044c.014.044-.027.064-.076.088a.443.443,0,0,0-.224.2,1.305,1.305,0,0,0-.08.229,1.579,1.579,0,0,1-.512.867,1.75,1.75,0,0,0-.453.675,2.117,2.117,0,0,1-.48.735" transform="translate(-739.627 -203.299)" fill="#7a361d"/><path d="M771.569,220.3c.438-.484.382-.95.852-1.319-.447.22-.432.75-.937,1.224Z" transform="translate(-739.686 -203.765)" fill="#7a361d"/><path d="M768.7,221.826l-4.6-1.707s-.085-.036-.11.021.062.093.062.093l4.465,2.048Z" transform="translate(-737.751 -204.055)" fill="#f1bd51"/><path d="M768.518,222.262l-4.477-2.022c-.033-.014-.092-.056-.069-.112s.1-.044.129-.029l4.6,1.706-.01.028-4.6-1.706s-.072-.03-.091.013.053.073.053.073Z" transform="translate(-737.746 -204.05)" fill="#7a361d"/><path d="M769.181,222.17l-3.158-1.177,3.066,1.4Z" transform="translate(-738.277 -204.284)" fill="#7a361d"/><path d="M767.5,220.7c-.464-.5-1.022-.467-1.414-.933a2.123,2.123,0,0,0-1.089-.585c-.221-.112-.206-.326-.28-.3s-.047.264.226.467.52.093,1,.659.861.43,1.275.97Z" transform="translate(-737.932 -203.738)" fill="#f1bd51"/><path d="M767.231,220.963a1.937,1.937,0,0,0-.635-.455,1.85,1.85,0,0,1-.664-.5,1.479,1.479,0,0,0-.717-.518,1.01,1.01,0,0,1-.281-.139.534.534,0,0,1-.266-.43l.044-.063c.041-.017.063.027.088.077a.44.44,0,0,0,.2.225,1.442,1.442,0,0,0,.222.076,1.589,1.589,0,0,1,.873.514,1.751,1.751,0,0,0,.675.45,2.122,2.122,0,0,1,.738.482l-.022.02a2.122,2.122,0,0,0-.73-.475,1.785,1.785,0,0,1-.686-.459,1.56,1.56,0,0,0-.857-.5,1.443,1.443,0,0,1-.226-.078.465.465,0,0,1-.217-.238c-.024-.048-.031-.07-.052-.062-.034.116.023.286.231.44a1,1,0,0,0,.274.135,1.507,1.507,0,0,1,.73.526,1.831,1.831,0,0,0,.654.489,1.568,1.568,0,0,1,.622.482" transform="translate(-737.926 -203.733)" fill="#7a361d"/><path d="M767.789,221.055c-.484-.437-.95-.381-1.318-.852.219.445.746.43,1.223.936Z" transform="translate(-738.393 -204.08)" fill="#7a361d"/><path d="M770.092,222.88l4.6,1.706s.085.036.11-.022-.062-.092-.062-.092l-4.466-2.048Z" transform="translate(-739.327 -204.653)" fill="#f1bd51"/><path d="M774.746,224.617a.159.159,0,0,1-.058-.012l-4.6-1.706.01-.028,4.605,1.706s.07.028.091-.013-.054-.071-.055-.072l-4.466-2.049,4.478,2.022c.036.015.091.056.07.111a.071.071,0,0,1-.071.042" transform="translate(-739.325 -204.658)" fill="#7a361d"/><path d="M770.156,222.806l3.158,1.175-3.066-1.4Z" transform="translate(-739.344 -204.693)" fill="#7a361d"/><path d="M771.951,224.03c.464.5,1.022.466,1.413.933a2.148,2.148,0,0,0,1.089.585c.221.114.206.327.281.3s.047-.264-.226-.465-.521-.091-1-.657-.86-.432-1.275-.972Z" transform="translate(-739.807 -204.996)" fill="#f1bd51"/><path d="M774.718,225.869c-.032,0-.05-.037-.071-.079a.452.452,0,0,0-.2-.225,1.425,1.425,0,0,0-.225-.077,1.593,1.593,0,0,1-.869-.512,1.734,1.734,0,0,0-.676-.452,2.124,2.124,0,0,1-.737-.481l.021-.021a2.1,2.1,0,0,0,.728.474,1.763,1.763,0,0,1,.687.46,1.558,1.558,0,0,0,.853.5,1.364,1.364,0,0,1,.23.079.472.472,0,0,1,.217.238c.027.053.036.066.053.061.036-.115-.022-.286-.229-.439a.977.977,0,0,0-.275-.134,1.5,1.5,0,0,1-.731-.526,1.84,1.84,0,0,0-.654-.491,1.564,1.564,0,0,1-.621-.481,1.942,1.942,0,0,0,.634.455,1.842,1.842,0,0,1,.664.5,1.474,1.474,0,0,0,.718.516.986.986,0,0,1,.282.139.531.531,0,0,1,.264.43l-.043.062a.05.05,0,0,1-.018,0" transform="translate(-739.803 -204.999)" fill="#7a361d"/><path d="M772.188,224.081c.484.437.95.38,1.317.852-.218-.444-.746-.43-1.222-.936Z" transform="translate(-739.868 -205.059)" fill="#7a361d"/><path d="M768.516,222.424l-4.465,2.049s-.085.036-.062.091.11.022.11.022l4.6-1.707Z" transform="translate(-737.751 -204.653)" fill="#f1bd51"/><path d="M764.041,224.607a.072.072,0,0,1-.071-.042c-.023-.055.036-.1.07-.111L768.5,222.4l.013.027-4.464,2.049s-.071.03-.055.071.089.014.09.014l4.6-1.706L764.1,224.6a.155.155,0,0,1-.057.012" transform="translate(-737.746 -204.648)" fill="#7a361d"/><path d="M769.089,222.579l-3.066,1.4,3.158-1.175Z" transform="translate(-738.277 -204.693)" fill="#7a361d"/><path d="M766.87,222.971c-.677-.025-1.052.391-1.657.337a2.169,2.169,0,0,0-1.186.356c-.236.078-.377-.083-.41-.014s.151.222.49.171.433-.3,1.172-.244.913-.3,1.591-.215Z" transform="translate(-737.655 -204.794)" fill="#f1bd51"/><path d="M763.974,223.841a.458.458,0,0,1-.361-.128l-.013-.075c.019-.039.063-.026.115-.008a.448.448,0,0,0,.3.014,1.387,1.387,0,0,0,.216-.1,1.605,1.605,0,0,1,.976-.252,1.7,1.7,0,0,0,.8-.157,2.084,2.084,0,0,1,.86-.18l0,.03a2.14,2.14,0,0,0-.848.178,1.808,1.808,0,0,1-.809.159,1.6,1.6,0,0,0-.959.248,1.391,1.391,0,0,1-.221.107.469.469,0,0,1-.322-.014c-.056-.019-.073-.022-.079-.007.056.108.217.187.474.15a1.016,1.016,0,0,0,.289-.1,1.487,1.487,0,0,1,.887-.145,1.805,1.805,0,0,0,.809-.116,1.568,1.568,0,0,1,.781-.1,1.808,1.808,0,0,0-.772.127,1.885,1.885,0,0,1-.821.118,1.463,1.463,0,0,0-.871.142,1.019,1.019,0,0,1-.3.1.849.849,0,0,1-.132.01" transform="translate(-737.651 -204.788)" fill="#7a361d"/><path d="M767.316,223.147c-.653.033-.941.4-1.536.33.471.161.833-.223,1.528-.2Z" transform="translate(-738.214 -204.839)" fill="#7a361d"/><path d="M770.278,222.282l4.466-2.049s.084-.036.062-.093-.11-.021-.11-.021l-4.6,1.707Z" transform="translate(-739.327 -204.055)" fill="#f1bd51"/><path d="M770.287,222.29l-.013-.027,4.466-2.049s.071-.03.054-.073-.088-.013-.089-.013l-4.605,1.707,4.594-1.735c.034-.014.1-.026.128.029s-.036.1-.07.113Z" transform="translate(-739.329 -204.05)" fill="#7a361d"/><path d="M770.248,222.4l3.066-1.4-3.158,1.177Z" transform="translate(-739.344 -204.283)" fill="#7a361d"/><path d="M772.433,222.19c.677.025,1.051-.393,1.657-.337a2.153,2.153,0,0,0,1.186-.358c.235-.076.377.085.409.015s-.151-.221-.488-.172-.434.3-1.174.246-.913.3-1.59.213Z" transform="translate(-739.931 -204.37)" fill="#f1bd51"/><path d="M772.492,222.2h-.06v-.03a2.143,2.143,0,0,0,.847-.178,1.8,1.8,0,0,1,.811-.16,1.568,1.568,0,0,0,.961-.249,1.468,1.468,0,0,1,.219-.108.473.473,0,0,1,.323.016c.053.019.07.023.077.007-.056-.108-.214-.187-.473-.151a1.006,1.006,0,0,0-.289.1,1.5,1.5,0,0,1-.888.145,1.863,1.863,0,0,0-.808.115,1.565,1.565,0,0,1-.783.1,1.912,1.912,0,0,0,.773-.126,1.9,1.9,0,0,1,.82-.117,1.491,1.491,0,0,0,.872-.142,1.018,1.018,0,0,1,.3-.1.524.524,0,0,1,.49.119l.013.076c-.02.04-.064.026-.114.008a.443.443,0,0,0-.3-.016,1.3,1.3,0,0,0-.214.1,1.6,1.6,0,0,1-.979.253,1.718,1.718,0,0,0-.8.157,2.189,2.189,0,0,1-.8.181" transform="translate(-739.93 -204.365)" fill="#7a361d"/><path d="M772.587,222.184c.652-.032.94-.4,1.534-.33-.47-.157-.833.227-1.527.2Z" transform="translate(-739.971 -204.496)" fill="#7a361d"/><path d="M769.767,221.029l-2.049-4.463s-.035-.085-.091-.061-.022.106-.022.106l1.709,4.606Z" transform="translate(-738.682 -203.124)" fill="#f1bd51"/><path d="M769.323,221.208l-1.738-4.595a.146.146,0,0,1-.005-.09l.087-.036a.144.144,0,0,1,.061.07l2.048,4.463-.027.012-2.088-4.531-.033.014-.014.088Z" transform="translate(-738.677 -203.12)" fill="#7a361d"/><path d="M769.882,221.6l-1.4-3.065,1.176,3.159Z" transform="translate(-738.911 -203.649)" fill="#7a361d"/><path d="M769.679,219.385c.024-.679-.395-1.053-.341-1.66a2.155,2.155,0,0,0-.355-1.183c-.076-.235.085-.378.015-.412s-.221.153-.171.488.3.435.243,1.177.3.913.216,1.587Z" transform="translate(-738.998 -203.028)" fill="#f1bd51"/><path d="M769.69,219.381h-.031a2.1,2.1,0,0,0-.18-.85,1.755,1.755,0,0,1-.161-.811,1.56,1.56,0,0,0-.248-.958,1.43,1.43,0,0,1-.107-.22.48.48,0,0,1,.016-.323c.017-.052.022-.072.007-.08-.108.059-.187.22-.149.472a1,1,0,0,0,.1.292,1.517,1.517,0,0,1,.144.889,1.838,1.838,0,0,0,.116.809,1.566,1.566,0,0,1,.1.779,1.961,1.961,0,0,0-.128-.77,1.868,1.868,0,0,1-.118-.82,1.486,1.486,0,0,0-.141-.874,1.048,1.048,0,0,1-.1-.3.532.532,0,0,1,.116-.488l.076-.016c.042.021.026.065.008.117a.449.449,0,0,0-.015.3,1.315,1.315,0,0,0,.1.214,1.59,1.59,0,0,1,.251.976,1.732,1.732,0,0,0,.159.8,2.131,2.131,0,0,1,.182.861" transform="translate(-738.993 -203.024)" fill="#7a361d"/><path d="M769.671,219.827c-.033-.652-.4-.94-.327-1.534-.162.47.222.835.2,1.529Z" transform="translate(-739.124 -203.587)" fill="#7a361d"/><path d="M769.912,222.792l2.048,4.464s.035.086.093.062.021-.11.021-.11l-1.709-4.6Z" transform="translate(-739.281 -204.699)" fill="#f1bd51"/><path d="M772.054,227.334c-.091-.016-.111-.068-.112-.07l-2.048-4.463.027-.013,2.048,4.464s.035.074.073.054.014-.089.014-.09l-1.71-4.605,1.738,4.594c.014.034.025.106-.03.129" transform="translate(-739.276 -204.701)" fill="#7a361d"/><path d="M770.065,222.76l1.4,3.066-1.176-3.161Z" transform="translate(-739.32 -204.715)" fill="#7a361d"/><path d="M770.457,224.944c-.025.679.394,1.053.34,1.657a2.175,2.175,0,0,0,.355,1.187c.077.235-.085.374-.016.41s.221-.154.172-.489-.3-.433-.244-1.174-.3-.913-.215-1.588Z" transform="translate(-739.421 -205.303)" fill="#f1bd51"/><path d="M771.123,228.211c-.042-.021-.026-.065-.008-.116a.439.439,0,0,0,.016-.3,1.343,1.343,0,0,0-.1-.217,1.61,1.61,0,0,1-.251-.976,1.735,1.735,0,0,0-.158-.8,2.115,2.115,0,0,1-.182-.862h.03a2.1,2.1,0,0,0,.18.85,1.754,1.754,0,0,1,.16.809,1.583,1.583,0,0,0,.247.959,1.332,1.332,0,0,1,.107.221.461.461,0,0,1-.016.321c-.018.053-.022.071-.007.079.108-.057.188-.218.151-.473a1.008,1.008,0,0,0-.1-.288,1.5,1.5,0,0,1-.145-.889,1.832,1.832,0,0,0-.116-.809,1.572,1.572,0,0,1-.1-.78,1.96,1.96,0,0,0,.128.77,1.87,1.87,0,0,1,.118.821,1.479,1.479,0,0,0,.142.874,1.032,1.032,0,0,1,.1.3.538.538,0,0,1-.118.491Z" transform="translate(-739.415 -205.303)" fill="#7a361d"/><path d="M770.638,225.1c.032.652.4.941.33,1.536.158-.47-.226-.835-.2-1.527Z" transform="translate(-739.468 -205.343)" fill="#7a361d"/><path d="M769.523,220.036a2,2,0,1,1-2,2,2,2,0,0,1,2-2" transform="translate(-738.663 -204.037)" fill="#f1bd51"/><path d="M769.518,224.046a2.015,2.015,0,1,1,2.014-2.017,2.02,2.02,0,0,1-2.014,2.017m0-4a1.985,1.985,0,1,0,1.984,1.982,1.987,1.987,0,0,0-1.984-1.982" transform="translate(-738.658 -204.031)" fill="#7a361d"/><path d="M771.5,222.026a.8.8,0,0,0-1.046-.122.648.648,0,0,0,.046.815.12.12,0,0,0-.062.03,1.056,1.056,0,0,1-.077-.878.738.738,0,0,1,1.139.154" transform="translate(-739.38 -204.459)" fill="#7a361d"/><path d="M771,222.024a.417.417,0,0,0-.341.124c-.091.077-.137.061-.153.077s0,.062.032.046a.968.968,0,0,0,.184-.123.386.386,0,0,1,.277-.076c.275,0,.428.231.461.215s-.154-.263-.461-.263" transform="translate(-739.432 -204.55)" fill="#7a361d"/><path d="M771.4,222.321a.464.464,0,0,0-.723.016h.062a.354.354,0,0,1,.554-.031v.031Z" transform="translate(-739.477 -204.584)" fill="#7a361d"/><path d="M771.081,222.17a.139.139,0,1,1-.137.139.139.139,0,0,1,.137-.139" transform="translate(-739.547 -204.587)" fill="#7a361d"/><path d="M770.674,222.388a.621.621,0,0,0,.723-.016l-.107-.015a.406.406,0,0,1-.554.03v-.03Z" transform="translate(-739.477 -204.636)" fill="#7a361d"/><path d="M771.386,222.471a.6.6,0,0,1-.677.093c-.153-.093-.153-.122-.123-.122s.062.029.186.091a.755.755,0,0,0,.614-.062" transform="translate(-739.45 -204.658)" fill="#7a361d"/><path d="M770.531,223.1a.092.092,0,0,1,.054.119.092.092,0,0,1-.178-.026.225.225,0,0,1-.2.122h-.032l.032.046a.325.325,0,0,0,.184-.046.14.14,0,0,0,.193.036.144.144,0,0,0,.035-.2.15.15,0,0,0-.089-.056" transform="translate(-739.349 -204.828)" fill="#7a361d"/><path d="M770.714,223.893c-.139-.091-.2-.231-.352-.231a.4.4,0,0,0-.154.047h-.032l.032.046c.059,0,.154-.076.26-.017a2.179,2.179,0,0,0,.246.154" transform="translate(-739.349 -204.972)" fill="#7a361d"/><path d="M770.67,223.956a.819.819,0,0,0-.461-.029h-.032l.032.061c.121,0,.184-.093.461-.032" transform="translate(-739.349 -205.035)" fill="#7a361d"/><path d="M770.714,223.972c-.337-.029-.231.171-.506.171h-.032l.032.046c.337,0,.184-.185.506-.217" transform="translate(-739.349 -205.052)" fill="#7a361d"/><path d="M770.4,224.541a.276.276,0,0,0-.553,0,.284.284,0,0,1,.553,0" transform="translate(-739.264 -205.128)" fill="#7a361d"/><path d="M768.518,222.026a.8.8,0,0,1,1.047-.122.649.649,0,0,1-.047.815.114.114,0,0,1,.062.03,1.055,1.055,0,0,0,.076-.878.738.738,0,0,0-1.138.154" transform="translate(-738.921 -204.459)" fill="#7a361d"/><path d="M769.1,222.024a.411.411,0,0,1,.339.124.406.406,0,0,0,.154.077c.015.016,0,.062-.032.046a.922.922,0,0,1-.184-.123.388.388,0,0,0-.277-.076c-.275,0-.43.231-.461.215s.154-.263.461-.263" transform="translate(-738.952 -204.55)" fill="#7a361d"/><path d="M768.789,222.321a.461.461,0,0,1,.721.016h-.062a.352.352,0,0,0-.553-.031v.031Z" transform="translate(-738.991 -204.584)" fill="#7a361d"/><path d="M769.259,222.17a.139.139,0,1,0,.136.139.139.139,0,0,0-.136-.139" transform="translate(-739.076 -204.587)" fill="#7a361d"/><path d="M769.51,222.388a.619.619,0,0,1-.721-.016l.107-.015a.4.4,0,0,0,.553.03v-.03Z" transform="translate(-738.991 -204.636)" fill="#7a361d"/><path d="M768.765,222.471a.6.6,0,0,0,.677.093c.154-.093.154-.122.125-.122s-.063.029-.186.091a.758.758,0,0,1-.616-.062" transform="translate(-738.984 -204.658)" fill="#7a361d"/><path d="M769.742,223.1a.093.093,0,0,0-.055.119.092.092,0,0,0,.179-.026.226.226,0,0,0,.2.122h.03l-.03.046a.329.329,0,0,1-.186-.046.141.141,0,0,1-.194.036.143.143,0,0,1-.034-.2.152.152,0,0,1,.089-.056" transform="translate(-739.207 -204.828)" fill="#7a361d"/><path d="M769.534,223.893c.139-.091.2-.231.352-.231a.43.43,0,0,1,.156.047h.03l-.03.046c-.062,0-.156-.076-.263-.017a2.116,2.116,0,0,1-.246.154" transform="translate(-739.183 -204.972)" fill="#7a361d"/><path d="M769.595,223.956a.829.829,0,0,1,.464-.029h.03l-.03.061c-.125,0-.186-.093-.464-.032" transform="translate(-739.199 -205.035)" fill="#7a361d"/><path d="M769.534,223.972c.338-.029.232.171.509.171h.03l-.03.046c-.341,0-.186-.185-.509-.217" transform="translate(-739.183 -205.052)" fill="#7a361d"/><path d="M769.846,224.541a.276.276,0,0,1,.553,0,.284.284,0,0,0-.553,0" transform="translate(-739.264 -205.128)" fill="#7a361d"/></g></g></g></svg>