<svg xmlns="http://www.w3.org/2000/svg" xmlns:xlink="http://www.w3.org/1999/xlink" width="36" height="36" viewBox="0 0 36 36"><defs><clipPath id="a"><circle cx="18" cy="18" r="18" transform="translate(2446 271)" fill="#fff" stroke="#707070" stroke-width="1"/></clipPath><clipPath id="b"><rect width="61.714" height="36" fill="none"/></clipPath></defs><g transform="translate(-2446 -271)" clip-path="url(#a)"><g transform="translate(2102.547 72.529)"><g transform="translate(329.453 198.471)" clip-path="url(#b)"><rect width="61.715" height="36" transform="translate(0 -0.001)" fill="#bc0030"/><rect width="61.715" height="18.002" transform="translate(0 17.997)"/><path d="M366.927,219.857l1.9-1.383,1.9,1.383-.727-2.238,1.905-1.385h-2.354L368.831,214l-.729,2.238h-2.354l1.9,1.385Z" transform="translate(-338.82 -202.478)" fill="#f1d62f"/><path d="M382.364,235.925a5.278,5.278,0,0,0-1.071-1.186c-.451-.4-1.071-.838-1.53-1.284l-.876,1.026c-.038.044-.024.142.022.151a2.858,2.858,0,0,1,1.682.85c.526.533.744,1.179,1.086,1.418.637.441,1.1-.312.687-.976m-2.3-1.631a.12.12,0,1,1,.122-.12.121.121,0,0,1-.122.12m.89.775a.12.12,0,0,1,0-.24.12.12,0,1,1,0,.24m.784.8a.12.12,0,1,1,0-.24.12.12,0,0,1,0,.24" transform="translate(-342.205 -207.5)" fill="#f1d62f"/><path d="M370.291,231.253a6.929,6.929,0,0,1-6.715-1.238l-1.025,1.251a8.939,8.939,0,0,0,1.394.941l-.352.657a9.4,9.4,0,0,0,1.694.7l.211-.7a8.451,8.451,0,0,0,1.659.342l-.069.714a9.452,9.452,0,0,0,1.833,0l-.069-.714a8.474,8.474,0,0,0,1.662-.329l.208.684q.435-.132.855-.3l-.38-1.473Z" transform="translate(-337.995 -206.612)" fill="#f1d62f"/><path d="M377.177,219.619a7.014,7.014,0,0,1-2.485,5.358l1.973,1.366a9.424,9.424,0,0,0,.729-.79l-.556-.456a8.594,8.594,0,0,0,.94-1.409l.633.338a9.2,9.2,0,0,0,.7-1.695l-.686-.208a8.574,8.574,0,0,0,.327-1.661l.717.069a9.482,9.482,0,0,0,0-1.835l-.717.071a8.591,8.591,0,0,0-.332-1.661l.691-.208a9.205,9.205,0,0,0-.7-1.7l-.642.344a8.739,8.739,0,0,0-.948-1.4l.573-.471a9.453,9.453,0,0,0-1.3-1.3l-.476.582a8.64,8.64,0,0,0-1.407-.931l.357-.671a9.409,9.409,0,0,0-1.694-.7l-.221.732a8.768,8.768,0,0,0-1.6-.321l-.168,1.6a7,7,0,0,1,6.29,6.95" transform="translate(-340.146 -201.616)" fill="#f1d62f"/><path d="M372.922,228.609a49.118,49.118,0,0,1-5.38-4.174.039.039,0,0,1,0-.053.04.04,0,0,1,.054,0,48.566,48.566,0,0,0,5.373,4.166c.913.645,1.861,1.31,2.753,1.986L376,230.2c-3.086-2.2-10.384-7.272-10.473-9.118a3.62,3.62,0,0,0,1.562,5.163c2.994,1.7,4.98,2.824,8.1,4.9l.476-.559c-.893-.674-1.838-1.339-2.751-1.981" transform="translate(-338.627 -204.307)" fill="#f1d62f"/></g></g></g></svg>