<svg xmlns="http://www.w3.org/2000/svg" xmlns:xlink="http://www.w3.org/1999/xlink" width="36" height="36" viewBox="0 0 36 36"><defs><clipPath id="a"><circle cx="18" cy="18" r="18" transform="translate(2792 447)" fill="#fff" stroke="#707070" stroke-width="1"/></clipPath><clipPath id="b"><rect width="61.713" height="36" fill="none"/></clipPath></defs><g transform="translate(-2792 -447)" clip-path="url(#a)"><g transform="translate(2249.956 168.96)"><g transform="translate(529.044 278.04)" clip-path="url(#b)"><rect width="61.713" height="36" fill="#3d9635"/><path d="M566.592,280.568a11.625,11.625,0,1,1-11.626,11.625,11.625,11.625,0,0,1,11.626-11.625" transform="translate(-535.734 -278.693)" fill="#f4c327"/><path d="M555.472,289.062a11.249,11.249,0,1,0,22.5,0v-9h-22.5" transform="translate(-535.865 -278.562)" fill="#3d9635"/><path d="M570.152,286.128l-1.391,4.28,2.14.694Z" transform="translate(-539.295 -280.128)" fill="#f4c327"/><path d="M570.374,286.128l1.39,4.28-2.14.694Z" transform="translate(-539.518 -280.128)" fill="#f4c327"/><path d="M574.838,290.319h-4.5v2.25Z" transform="translate(-539.702 -281.209)" fill="#f4c327"/><path d="M574.677,290.319l-3.64,2.645-1.323-1.82Z" transform="translate(-539.541 -281.209)" fill="#f4c327"/><path d="M564.866,290.319l3.64,2.645,1.323-1.82Z" transform="translate(-538.29 -281.209)" fill="#f4c327"/><path d="M564.866,290.319h4.5v2.25Z" transform="translate(-538.29 -281.209)" fill="#f4c327"/><path d="M572.972,295.612l-1.391-4.281-2.14.7Z" transform="translate(-539.47 -281.47)" fill="#f4c327"/><path d="M572.934,295.547l-3.64-2.646,1.321-1.821Z" transform="translate(-539.433 -281.406)" fill="#f4c327"/><path d="M567.069,295.547l3.641-2.646-1.323-1.821Z" transform="translate(-538.858 -281.406)" fill="#f4c327"/><path d="M567.069,295.612l1.391-4.281,2.14.7Z" transform="translate(-538.858 -281.47)" fill="#f4c327"/></g></g></g></svg>