<svg xmlns="http://www.w3.org/2000/svg" xmlns:xlink="http://www.w3.org/1999/xlink" width="36" height="36" viewBox="0 0 36 36"><defs><clipPath id="a"><circle cx="18" cy="18" r="18" transform="translate(1082 338)" fill="#fff" stroke="#707070" stroke-width="1"/></clipPath><clipPath id="b"><rect width="64.363" height="37.545" fill="none"/></clipPath></defs><g transform="translate(-1082 -338)" clip-path="url(#a)"><g transform="translate(538.958 216.545)"><rect width="64.363" height="37.545" transform="translate(529.042 120.455)" fill="#bc0030"/><g transform="translate(529.042 120.455)"><g clip-path="url(#b)"><path d="M577.871,146.409a.688.688,0,0,0-.344-.1,1.112,1.112,0,0,1-.386-.091.567.567,0,0,0-.637.1c-.129.106-.212.124-.708.163-.7.056-.921.056-.921.009a2.093,2.093,0,0,1,.4-.287c.3-.195.422-.248.518-.229a.794.794,0,0,0,.667-.263c.186-.19.231-.2.659-.185a.45.45,0,0,0,.179-.013.632.632,0,0,0-.742-.4.672.672,0,0,1-.391.019.655.655,0,0,0-.755.4q-.086.23-.823.678l-.357.226-.693-.267a7.864,7.864,0,0,1-1.428-.641,1.318,1.318,0,0,1,.214-.278,1.555,1.555,0,0,0,.215-.267,1.241,1.241,0,0,0-.3-.178,4.25,4.25,0,0,1-2.161-2.169c-.231-.6-.115-.741.169-.2a1.827,1.827,0,0,0,.7.829c.328.21.515.254.638.138.149-.134.115-.3-.1-.535-.473-.539-.608-1.355-.22-1.355.147,0,.168.026.468.72a3.949,3.949,0,0,0,1.191,1.79c.287.148.754.03.829-.214.063-.2-.015-.32-.344-.53a2.318,2.318,0,0,1-.983-1.582c-.044-.228-.039-.286.031-.392.116-.176.2-.113.535.387a10.487,10.487,0,0,0,2.218,2.436,1.742,1.742,0,0,0,2.118-.05.446.446,0,0,0,.175-.337c0-.234-.173-.333-.55-.314-.854.039-.939.029-1.267-.125a4.194,4.194,0,0,1-1.741-2.034c-.46-.946-.347-.994.431-.2,1.052,1.069,1.9,1.465,2.679,1.236.378-.11.735-.449.735-.7,0-.272-.132-.353-.545-.328-.187.014-.532.022-.768.022a1.21,1.21,0,0,1-.749-.152,3.42,3.42,0,0,1-.655-.47,6.46,6.46,0,0,1-1.342-1.84c0-.224.2-.136.716.318a8.776,8.776,0,0,0,1.507,1.035,1.528,1.528,0,0,0,.693.11,1.166,1.166,0,0,0,.685-.12.682.682,0,0,0,.45-.644c.036-.467-.194-.584-.874-.412-.959.24-1.462.063-2.347-.83-.429-.439-.582-.675-.525-.812s.238-.07,1.055.34a3.181,3.181,0,0,0,1.573.545,1.143,1.143,0,0,0,.84-.277c.35-.3.436-.632.215-.846-.17-.178-.511-.163-.892.028a1.7,1.7,0,0,1-.57.174,2.788,2.788,0,0,1-1.929-.724c-.3-.3-.439-.572-.357-.677s.217-.08.549.059a3.2,3.2,0,0,0,1.452.353,2.412,2.412,0,0,0,1.358-.353c.368-.2.608-.46.608-.641a.654.654,0,0,0-.1-.286c-.137-.225-.388-.215-.858.042a2.2,2.2,0,0,1-2.217.25,2.771,2.771,0,0,1-.865-.821c-.072-.149-.072-.169-.005-.236.086-.086.148-.077.865.186a2.52,2.52,0,0,0,.937.178,2.49,2.49,0,0,0,1.269-.207,1.73,1.73,0,0,0,.973-1.171.558.558,0,0,0-.218-.449c-.21-.081-.326-.03-.648.31a2.253,2.253,0,0,1-1.809.713c-.849-.005-1.2-.135-1.2-.456,0-.219.168-.352.515-.406a6.232,6.232,0,0,0,2.933-1.332c.388-.358.536-.612.531-.916a.619.619,0,0,0-.43-.661c-.238-.067-.413.043-.659.423a3.558,3.558,0,0,1-1.622,1.4,4.616,4.616,0,0,1-1.342.453c-.044-.009-.111-.094-.148-.205-.116-.323-.135-.328-.614-.127-.238.1-.727.291-1.089.419-.727.258-.97.417-1.144.757a1.535,1.535,0,0,0-.1.793c-.005.545-.019.609-.115.753a.571.571,0,0,1-.573.262c-.445,0-.689-.262-.717-.774a2.28,2.28,0,0,1,.253-1.19,2.188,2.188,0,0,1,.877-.974,2.883,2.883,0,0,1,1.421-.461,1.626,1.626,0,0,0,1.2-.515,1.31,1.31,0,0,1-1.041-.1c.047-.028,1.015-.024,1.141-.039a1.339,1.339,0,0,0,.787-.32c.258-.186.432-.357.364-.478s-.258-.106-.39.043c-.067.077-.192.213-.28.314-.152.173-.186.186-.644.258a1.279,1.279,0,0,1-.613,0c-.068-.047-.124-.105-.124-.128,0-.068.191-.177.369-.214a2.153,2.153,0,0,1,.649.14,2.1,2.1,0,0,0-.135-.3c-.113-.224-.317-.306-.83-.321-.357-.014-.476-.039-.551-.106a1.246,1.246,0,0,0-.193-.143.588.588,0,0,0-.259-.053,3.415,3.415,0,0,0-1.315.326,1.331,1.331,0,0,1-.665.148,2.486,2.486,0,0,1-.535-.053c-.38-.1-.453-.1-.453-.026s.326.387.57.51c.134.067.186.12.16.168a1.483,1.483,0,0,1-.627.424c-.227.081-.221.172.027.292a.461.461,0,0,1,.2.148c0,.139-.474.45-.689.45-.267,0-.166.21.125.272.163.034.163.052.021.209a.466.466,0,0,1-.459.212c-.179-.038-.212.029-.111.216.083.142.083.152-.005.214a.349.349,0,0,1-.142.062v0a.261.261,0,0,1-.033.008l-.041,0-.042,0a.271.271,0,0,1-.034-.008v0a.364.364,0,0,1-.142-.062c-.087-.062-.087-.071,0-.214.1-.186.065-.254-.111-.216a.464.464,0,0,1-.457-.212c-.143-.157-.143-.175.019-.209.291-.062.392-.272.125-.272-.217,0-.693-.312-.687-.45,0-.029.093-.1.2-.148.248-.12.253-.21.026-.292a1.46,1.46,0,0,1-.626-.424c-.026-.048.026-.1.16-.168.243-.123.57-.42.57-.51s-.073-.073-.453.026a2.488,2.488,0,0,1-.535.053,1.325,1.325,0,0,1-.665-.148,3.406,3.406,0,0,0-1.315-.326.587.587,0,0,0-.258.053,1.249,1.249,0,0,0-.193.143c-.077.067-.194.092-.551.106-.513.015-.717.1-.831.321a2,2,0,0,0-.135.3,2.143,2.143,0,0,1,.649-.14c.179.036.371.145.371.214,0,.023-.06.081-.125.128a1.279,1.279,0,0,1-.613,0c-.457-.072-.492-.086-.646-.258-.087-.1-.21-.238-.278-.314-.132-.149-.323-.17-.391-.043s.106.292.365.478a1.336,1.336,0,0,0,.787.32c.126.015,1.094.011,1.141.039a1.308,1.308,0,0,1-1.041.1,1.627,1.627,0,0,0,1.2.515,2.887,2.887,0,0,1,1.421.461,2.19,2.19,0,0,1,.877.974,2.266,2.266,0,0,1,.253,1.19c-.028.511-.272.774-.717.774a.572.572,0,0,1-.573-.262c-.1-.144-.108-.208-.114-.753a1.526,1.526,0,0,0-.1-.793c-.174-.34-.417-.5-1.144-.757-.364-.128-.85-.314-1.089-.419-.478-.2-.5-.2-.614.127-.039.111-.1.2-.147.205a4.58,4.58,0,0,1-1.343-.453,3.573,3.573,0,0,1-1.624-1.4c-.245-.381-.419-.491-.658-.423a.618.618,0,0,0-.43.661c0,.3.142.558.531.916a6.241,6.241,0,0,0,2.931,1.332c.35.054.518.187.518.406,0,.321-.349.45-1.2.456a2.25,2.25,0,0,1-1.806-.713c-.326-.34-.44-.392-.649-.31a.56.56,0,0,0-.218.449,1.73,1.73,0,0,0,.973,1.171,3.219,3.219,0,0,0,2.2.029c.719-.264.781-.272.867-.186.067.067.067.087-.005.236a2.769,2.769,0,0,1-.864.821,2.2,2.2,0,0,1-2.218-.25c-.47-.257-.721-.267-.858-.042a.664.664,0,0,0-.1.286c0,.181.241.439.608.641a2.418,2.418,0,0,0,1.359.353,3.2,3.2,0,0,0,1.452-.353c.329-.139.463-.155.549-.059s-.06.381-.358.677a2.787,2.787,0,0,1-1.929.724,1.7,1.7,0,0,1-.57-.174c-.379-.191-.721-.206-.892-.028-.22.214-.135.551.215.846a1.147,1.147,0,0,0,.84.277,3.185,3.185,0,0,0,1.573-.545c.815-.409,1.007-.473,1.055-.34s-.1.373-.525.812c-.884.894-1.387,1.07-2.347.83-.68-.172-.912-.055-.874.412a.684.684,0,0,0,.448.644,1.182,1.182,0,0,0,.688.12,1.538,1.538,0,0,0,.694-.11,8.835,8.835,0,0,0,1.506-1.035c.518-.454.716-.542.716-.318a6.467,6.467,0,0,1-1.342,1.84,3.394,3.394,0,0,1-.655.47,1.21,1.21,0,0,1-.75.152c-.236,0-.582-.009-.768-.022-.412-.025-.544.056-.544.328,0,.253.357.592.733.7.781.228,1.629-.167,2.68-1.236.779-.793.891-.744.431.2a4.182,4.182,0,0,1-1.741,2.034c-.328.153-.413.164-1.269.125-.376-.019-.549.08-.549.314a.448.448,0,0,0,.175.337,1.739,1.739,0,0,0,2.116.05,10.419,10.419,0,0,0,2.22-2.436c.333-.5.419-.563.533-.387.073.105.078.163.033.392a2.323,2.323,0,0,1-.983,1.582c-.329.21-.406.334-.344.53.075.244.544.361.83.214a3.961,3.961,0,0,0,1.191-1.79c.3-.693.32-.72.467-.72.388,0,.253.816-.22,1.355-.209.239-.245.4-.1.535.124.116.31.072.638-.138a1.828,1.828,0,0,0,.7-.829c.282-.539.4-.4.168.2a4.249,4.249,0,0,1-2.16,2.169,1.241,1.241,0,0,0-.3.178,1.575,1.575,0,0,0,.214.267,1.347,1.347,0,0,1,.214.278,7.834,7.834,0,0,1-1.428.641l-.7.267-.355-.226c-.494-.3-.765-.525-.822-.678a.655.655,0,0,0-.756-.4.669.669,0,0,1-.39-.019.632.632,0,0,0-.743.4.451.451,0,0,0,.179.013c.429-.019.473-.005.659.185a.794.794,0,0,0,.668.263c.1-.019.22.034.518.229a2.092,2.092,0,0,1,.4.287c0,.047-.225.047-.921-.009-.5-.039-.58-.056-.708-.163a.567.567,0,0,0-.637-.1,1.117,1.117,0,0,1-.387.091.687.687,0,0,0-.343.1.611.611,0,0,0-.295.369,1.693,1.693,0,0,0,.359-.029c.32-.048.354-.044.456.048a1.491,1.491,0,0,0,.214.154.873.873,0,0,0,.632-.022,2.694,2.694,0,0,1,.846-.069c.392,0,.734,0,.757,0a1.454,1.454,0,0,1-.341.234.954.954,0,0,1-.72.227c-.419-.005-.657.12-.724.387-.024.1-.068.269-.1.374-.067.253-.093.292.094.729.2-.48.134-.333.2-.423.1-.149.14-.173.378-.191a.62.62,0,0,0,.607-.392c.083-.182.172-.258.611-.529.6-.373.563-.373,1.243-.058.334.159.459.238.515.348a.44.44,0,0,0,.553.206c.225-.065.323-.03.479.186.061.093.067.075.163.161a1.088,1.088,0,0,0,.028-.286c0-.2-.023-.234-.277-.492-.3-.3-.478-.378-.693-.3-.1.039-.183.026-.44-.094-.287-.128-.4-.234-.248-.234.028,0,.491-.172,1.021-.378l.965-.374.142.115a1.977,1.977,0,0,0,.862.4c.168,0,.186-.013.24-.185a12.426,12.426,0,0,1,.939-1.807c.5-.775.778-.977,1-.729.07.082.091.174.087.47a4.239,4.239,0,0,1-1.161,2.661,2.01,2.01,0,0,1-1.18.6c-.355.048-.592.138-.592.228a.942.942,0,0,0,.382.45.969.969,0,0,0,.525.07,1.08,1.08,0,0,0,.707-.224c.312-.186.358-.2.421-.139s.067.106.019.279c-.1.373-.368.542-.988.62s-.851.273-.64.57a.818.818,0,0,0,.706.29,1.6,1.6,0,0,0,1.118-.565c.183-.167.349-.29.377-.273.068.039.063.422-.007.655a1.321,1.321,0,0,1-.552.65,4,4,0,0,1-.4.124c-.52.144-.6.346-.228.59a1.014,1.014,0,0,0,.928.032,3.164,3.164,0,0,0,.816-.755c.088-.158.178-.041.15.193a1.793,1.793,0,0,1-.393.779c-.209.287-.137.673.221,1.2a2.243,2.243,0,0,0,.566.645,2.292,2.292,0,0,0,.566-.645c.356-.526.429-.912.22-1.2a1.784,1.784,0,0,1-.393-.779c-.029-.234.062-.351.147-.193a3.212,3.212,0,0,0,.818.755,1.009,1.009,0,0,0,.925-.032c.37-.244.295-.446-.227-.59-.147-.037-.33-.1-.4-.124a1.333,1.333,0,0,1-.549-.65c-.072-.233-.074-.617-.007-.655.029-.017.193.106.378.273a1.6,1.6,0,0,0,1.118.565.817.817,0,0,0,.706-.29c.212-.3-.005-.49-.639-.57s-.888-.247-.988-.62c-.05-.173-.044-.217.019-.279s.108-.046.419.139a1.086,1.086,0,0,0,.706.224.979.979,0,0,0,.528-.07.949.949,0,0,0,.383-.45c0-.091-.238-.18-.593-.228a2,2,0,0,1-1.179-.6,4.227,4.227,0,0,1-1.161-2.661c-.005-.3.012-.388.085-.47.225-.248.5-.046,1,.729a12.512,12.512,0,0,1,.939,1.807c.053.172.072.185.24.185a1.971,1.971,0,0,0,.861-.4l.143-.115.965.374c.531.206.993.378,1.021.378.15,0,.039.106-.248.234-.258.12-.341.133-.44.094-.215-.082-.4,0-.693.3-.253.258-.277.3-.277.492a1.088,1.088,0,0,0,.029.286c.1-.086.1-.068.163-.161.152-.217.253-.251.478-.186a.44.44,0,0,0,.554-.206c.057-.11.18-.19.515-.348.679-.315.642-.315,1.244.058.44.271.528.347.61.529a.621.621,0,0,0,.608.392c.238.018.277.042.378.191.062.09-.008-.057.2.423.186-.436.16-.476.094-.729-.029-.105-.073-.279-.1-.374-.068-.267-.306-.392-.726-.387a.949.949,0,0,1-.718-.227,1.408,1.408,0,0,1-.342-.234c.022,0,.364,0,.758,0a2.7,2.7,0,0,1,.846.069.871.871,0,0,0,.631.022,1.5,1.5,0,0,0,.214-.154c.1-.092.135-.1.456-.048a1.7,1.7,0,0,0,.36.029.614.614,0,0,0-.295-.369m-6.879-15.7c.1-.065-.087-.259.123-.25a1.027,1.027,0,0,1,.217.042c.152.028.231.2.135.293a1,1,0,0,1-.724.056c-.178-.479.127-.06.25-.142m-6.691.142a1,1,0,0,1-.724-.056c-.1-.1-.019-.265.134-.293a1.029,1.029,0,0,1,.218-.042c.209-.009.018.185.119.25.124.081.431-.337.253.142" transform="translate(-535.339 -122.56)"/></g></g></g></g></svg>