<svg xmlns="http://www.w3.org/2000/svg" xmlns:xlink="http://www.w3.org/1999/xlink" width="36" height="36" viewBox="0 0 36 36"><defs><clipPath id="a"><circle cx="18" cy="18" r="18" transform="translate(733 239)" fill="#fff" stroke="#707070" stroke-width="1"/></clipPath><clipPath id="b"><rect width="62.864" height="36.67" fill="none"/></clipPath></defs><g transform="translate(-733 -239)" clip-path="url(#a)"><g transform="translate(597.128 -275.419)"><g transform="translate(129.872 514.419)" clip-path="url(#b)"><rect width="62.864" height="36.67" fill="#fff"/><rect width="62.864" height="12.223" transform="translate(0 24.447)" fill="#ea0020"/><rect width="62.864" height="12.225" transform="translate(0 12.222)" fill="#3555e2"/><path d="M148.156,523.747c-.113.048-.226.1-.336.155l.35,5.545a6.241,6.241,0,0,0,4.435,5.586,6.241,6.241,0,0,0,4.435-5.586l.35-5.545c-.111-.054-.223-.107-.337-.155l-.358,5.677a5.9,5.9,0,0,1-4.09,5.247,5.9,5.9,0,0,1-4.09-5.247l-.359-5.677" transform="translate(-134.256 -516.698)" fill="#ea0020"/><path d="M157.162,523.444a11.032,11.032,0,0,0-8.9,0l.36,5.677a5.9,5.9,0,0,0,4.09,5.247,5.9,5.9,0,0,0,4.09-5.247" transform="translate(-134.364 -516.395)" fill="#3555e2"/><path d="M154.269,525.846l.2-.27-.333.036-.134-.305-.135.305-.333-.036.2.27-.2.268.333-.035.135.305.134-.305.333.035" transform="translate(-135.652 -517.079)" fill="#f8e72a"/><path d="M152.607,523.629l.2-.268-.333.035-.134-.305-.135.305-.333-.035.2.268-.2.268.333-.035.135.305.134-.305.333.035" transform="translate(-135.246 -516.537)" fill="#f8e72a"/><path d="M155.931,523.629l.2-.268-.333.035-.134-.305-.135.305-.333-.035.2.268-.2.268.333-.035.135.305.134-.305.333.035" transform="translate(-136.058 -516.537)" fill="#f8e72a"/><path d="M156.58,531.192l-1.795-2.393-.719.957-1.076-2.154-1.078,2.154-.717-.957-1.795,2.393a1.2,1.2,0,0,0,1.795,1.036h0a1.249,1.249,0,0,1,.289-.119,1.2,1.2,0,0,1,.908.119,1.191,1.191,0,0,0,1.2,0,1.2,1.2,0,0,1,.908-.119,1.249,1.249,0,0,1,.289.119h0a1.2,1.2,0,0,0,1.8-1.036" transform="translate(-134.642 -517.639)" fill="#fff"/><path d="M149.964,534.046q.124.246.271.478a1.2,1.2,0,0,0,.811.07,1.187,1.187,0,0,0,.287-.12h0a1.2,1.2,0,0,1,1.2,0,1.193,1.193,0,0,0,.908.12,1.179,1.179,0,0,0,.288-.12h0a1.193,1.193,0,0,1,.6-.16h0a1.194,1.194,0,0,1,.6.16,1.192,1.192,0,0,0,.908.12,1.214,1.214,0,0,0,.19-.07q.147-.232.271-.478a1.222,1.222,0,0,0-.174.082h0a1.192,1.192,0,0,1-1.2,0,1.2,1.2,0,0,0-.6-.161h0a1.21,1.21,0,0,0-.6.161h0a1.192,1.192,0,0,1-1.2,0,1.193,1.193,0,0,0-1.2,0h0a1.22,1.22,0,0,1-.289.12,1.193,1.193,0,0,1-.908-.12,1.222,1.222,0,0,0-.174-.082" transform="translate(-134.78 -519.194)" fill="#fff"/><path d="M155.9,535.187a5.572,5.572,0,0,1-2.583,1.841,5.552,5.552,0,0,1-2.131-1.329,5.785,5.785,0,0,1-.452-.512,1.205,1.205,0,0,0,.5-.025,1.237,1.237,0,0,0,.288-.119h0a1.193,1.193,0,0,1,1.2,0,1.19,1.19,0,0,0,.908.119,1.211,1.211,0,0,0,.288-.119h0a1.2,1.2,0,0,1,.6-.161h0a1.19,1.19,0,0,1,.6.161,1.189,1.189,0,0,0,.788.144" transform="translate(-134.968 -519.418)" fill="#fff"/></g></g></g></svg>