<svg xmlns="http://www.w3.org/2000/svg" xmlns:xlink="http://www.w3.org/1999/xlink" width="36" height="36" viewBox="0 0 36 36"><defs><clipPath id="a"><circle cx="18" cy="18" r="18" transform="translate(1260 713)" fill="#fff" stroke="#707070" stroke-width="1"/></clipPath><clipPath id="b"><rect width="61.713" height="36" fill="none"/></clipPath></defs><g transform="translate(-1260 -713)" clip-path="url(#a)"><g transform="translate(518.372 434.96)"><g transform="translate(728.628 278.04)" clip-path="url(#b)"><rect width="61.713" height="12" fill="#bd1032"/><rect width="61.713" height="12" transform="translate(0 12)" fill="#fff"/><rect width="61.713" height="12" transform="translate(0 24)" fill="#050505"/><path d="M777.326,299.106a.62.62,0,0,1-.185-.138c-.041-.058-.016-.059.154-.013a.68.68,0,0,0,.7-.116l.172-.145.2.1a.654.654,0,0,0,.265.085.58.58,0,0,0,.261-.336c-.005-.1.079-.076.119.033a.393.393,0,0,1-.246.516.565.565,0,0,1-.349-.037c-.189-.065-.22-.065-.317.007a.711.711,0,0,1-.773.039" transform="translate(-741.145 -283.317)" fill="#439b4c"/><path d="M778.362,298.18a1.07,1.07,0,0,1-.135-.536c.027-.076.053-.091.12-.07.121.038.15.121.131.4-.014.228-.048.289-.116.2" transform="translate(-741.428 -283.079)" fill="#439b4c"/><path d="M763.7,298.051c-.024.172.306.6.455.678-.1.045-.227.024-.32.076-.519.519-2.413,2.364-2.759,2.807,1.025.02,2.16-.015,3.121-.058,0-.7.66-.732,1.1-.985.228.358.8.33.87.869,0,.645,0,1.617,0,2.318h-8.754a1.276,1.276,0,0,1-1.622.986c.265-.277.71-.371.87-.754a2.586,2.586,0,0,0-.529-1.827,3.128,3.128,0,0,0,.935-.491c-.308.936.8.833,1.623.812.027-.318.012-.693-.232-.739a2.244,2.244,0,0,0,.869-.58v1.261c1.956,0,4.066-.015,6.063-.015,0-.394.1-1.028-.208-1.028-.3,0-.013.81-.245.81h-4.682c0-.174,0-.539,0-.8.2-.2.175-.181,1.53-1.537.137-.135,1.087-.994,1.919-1.8" transform="translate(-735.64 -283.205)" fill="#439b4c"/><path d="M782.226,298.006a4.239,4.239,0,0,0,.987.522c-.048.165-.194.231-.233.406v3.536c.447.1.542-.155.753-.29.058.565.419,1.12.406,1.565h-1.913Z" transform="translate(-742.462 -283.193)" fill="#439b4c"/><path d="M777.907,299.97s.7-.588.7-.61v3.085h.5c0-1.177-.015-2.369-.015-3.462a4.382,4.382,0,0,0,.7-.7v5.525l-4.4,0c-.064-1.146-.076-2.335,1.262-2.08v-.468c-.042-.079-.114.021-.132-.084.213-.213.284-.266.86-.769,0,.605.01,2.037.01,2.037h.507s0-2.4,0-2.473m-1.649,2.443c.094.142.415.139.4-.1-.055-.2-.476-.122-.4.1" transform="translate(-740.693 -283.264)" fill="#439b4c"/><path d="M759.328,306.256a.269.269,0,1,1-.268.269.268.268,0,0,1,.268-.269" transform="translate(-736.482 -285.323)" fill="#439b4c"/><path d="M770.581,298.013a4.26,4.26,0,0,0,.985.522c-.046.165-.193.231-.231.406v3.536c.447.1.54-.155.753-.29.058.565.419,1.12.406,1.565h-1.913Z" transform="translate(-739.456 -283.195)" fill="#439b4c"/></g></g></g></svg>