<svg xmlns="http://www.w3.org/2000/svg" xmlns:xlink="http://www.w3.org/1999/xlink" width="36" height="36" viewBox="0 0 36 36"><defs><clipPath id="a"><circle cx="18" cy="18" r="18" transform="translate(2652 671)" fill="#fff" stroke="#707070" stroke-width="1"/></clipPath><clipPath id="b"><rect width="61.713" height="36" fill="none"/></clipPath></defs><g transform="translate(-2652 -671)" clip-path="url(#a)"><g transform="translate(2109.956 471.753)"><g transform="translate(529.044 199.247)" clip-path="url(#b)"><rect width="61.713" height="35.999" transform="translate(0 0.001)" fill="#1f189b"/><rect width="61.713" height="18" transform="translate(0 18)" fill="#c0003b"/><rect width="11.681" height="9.299" transform="translate(25.016 13.345)" fill="#fff"/><path d="M570.954,226.3l-2.384.07-2.373.027s-1.22.451-1.718.552-.433.264-.817.35a2.842,2.842,0,0,1-.525.1.879.879,0,0,0-.375.184v1.29h11.68v-1.227a2.262,2.262,0,0,0-.371-.158,3.969,3.969,0,0,0-.594-.191c-.385-.086-.32-.249-.817-.35a12.884,12.884,0,0,1-1.707-.648" transform="translate(-537.747 -206.229)" fill="#2c6c1e" fill-rule="evenodd"/><path d="M574.451,228.88H562.759l-.011-1.3a.853.853,0,0,1,.386-.2,1.461,1.461,0,0,0,.312-.053l.211-.05a.839.839,0,0,0,.341-.153,1.094,1.094,0,0,1,.476-.2c.49-.1,1.7-.548,1.716-.552l2.377-.027,2.384-.07a13.066,13.066,0,0,0,1.709.649,1.081,1.081,0,0,1,.474.2.842.842,0,0,0,.343.153,2.964,2.964,0,0,1,.457.141l.139.051a2.224,2.224,0,0,1,.372.159Zm-3.5-2.576-2.379.07-2.373.027c-.009,0-1.223.453-1.715.552a1.084,1.084,0,0,0-.468.194.873.873,0,0,1-.349.157l-.21.049a1.4,1.4,0,0,1-.316.053.863.863,0,0,0-.37.183l0,1.281,11.659-.011v-1.215a2.948,2.948,0,0,0-.364-.148l-.139-.051a2.926,2.926,0,0,0-.454-.139.869.869,0,0,1-.35-.157,1.082,1.082,0,0,0-.467-.193,13.006,13.006,0,0,1-1.709-.649" transform="translate(-537.743 -206.225)" fill="#2c6c1e"/><path d="M570.308,219.282l-.058,1.12h.358l-.052-1.11.372-.053-.041-.441-.927.036.006.4Z" transform="translate(-539.604 -204.293)" fill="#2c6c1e" fill-rule="evenodd"/><path d="M570.615,220.409h-.37l.047-1.131-.332-.036-.016-.413.938-.047.052.453-.382.064Zm.257-1.614-.915.046.016.389.332.037-.048,1.131.335-.012-.051-1.1.381-.063Z" transform="translate(-539.601 -204.289)" fill="#2c6c1e"/><path d="M569.18,223.357l-.312-.669.135-.028.568,1.111Z" transform="translate(-539.323 -205.29)" fill="#e6b32d" fill-rule="evenodd"/><path d="M569.612,223.831l-.444-.47-.314-.672.143-.044Zm-.623-1.17-.122.034.32.654.336.355Z" transform="translate(-539.319 -205.286)"/><path d="M568.319,221.642l.345.942h.177Z" transform="translate(-539.181 -205.027)" fill="#fff" fill-rule="evenodd"/><path d="M568.856,222.6h-.2l-.355-.949Zm-.55-.947.364.933.148-.006Z" transform="translate(-539.177 -205.028)"/><path d="M569.726,222.428l.171,0,.316,1.327-.067.418Z" transform="translate(-539.544 -205.229)" fill="#e6b32d" fill-rule="evenodd"/><path d="M570.144,224.221l-.435-1.794.183-.019.326,1.335Zm-.263-1.8-.162.013.42,1.674.058-.365Z" transform="translate(-539.54 -205.225)"/><path d="M569.738,223.773l-.531-1.424.2-.012.617,1.74Z" transform="translate(-539.41 -205.206)" fill="#e6b32d" fill-rule="evenodd"/><path d="M570.049,224.12l-.322-.343-.533-1.428.208-.027Zm-.656-1.783-.188.019.54,1.41.247.263Z" transform="translate(-539.407 -205.203)"/><path d="M568.874,221.259l.219.99h.177Z" transform="translate(-539.324 -204.928)" fill="#fff" fill-rule="evenodd"/><path d="M569.282,222.261h-.193l-.23-1Zm-.422-1,.24.984.15-.007Z" transform="translate(-539.32 -204.929)"/><path d="M569.481,221.238l.117,1.022.126-.008Z" transform="translate(-539.481 -204.923)" fill="#fff" fill-rule="evenodd"/><path d="M569.585,222.272v-.01l-.117-1.022.265,1.01Zm-.118-1.031.138,1.008.116-.007Z" transform="translate(-539.477 -204.923)"/><path d="M568.727,223.2l-1.411-1.54a1.177,1.177,0,0,0-.36.99l1.6,1.255Z" transform="translate(-538.828 -205.032)" fill="#233189" fill-rule="evenodd"/><path d="M568.559,223.92l-1.612-1.266a1.178,1.178,0,0,1,.359-1.007l1.426,1.542Zm-1.255-2.256a1.2,1.2,0,0,0-.341.981l1.582,1.237.166-.687Z" transform="translate(-538.825 -205.029)"/><path d="M570,224.51l-1.046-1.061c-.444.016-.091.676-.07.76l1.116.954Z" transform="translate(-539.288 -205.494)" fill="#c00024" fill-rule="evenodd"/><path d="M570.01,225.184l-1.164-1.043c-.062-.148-.191-.456-.09-.613a.224.224,0,0,1,.2-.093l1.055,1.064Zm-1.065-1.73a.21.21,0,0,0-.17.086c-.094.147.031.447.092.592.013.033.024.059.027.07l1.094.933v-.629Z" transform="translate(-539.284 -205.49)"/><path d="M569.543,223.827l-2.165-2.318-.084.059,2.291,2.545Z" transform="translate(-538.916 -204.993)" fill="#e6b32d" fill-rule="evenodd"/><path d="M569.6,224.145l-.024-.027-2.291-2.545.085-.076,2.179,2.319Zm-2.231-2.632-.07.061,2.269,2.5-.037-.251Z" transform="translate(-538.913 -204.99)"/><path d="M567.069,221.153l-.048-.055,0-.111-.446-.283.2.449.151.027.047.055Z" transform="translate(-538.732 -204.785)" fill="#e6b32d" fill-rule="evenodd"/><path d="M566.973,221.253l-.056-.064-.145-.024-.208-.456.462.27v.068l-.017-.059-.441-.274.216.436.146.022.043.049.083-.075,0-.01.018.026Z" transform="translate(-538.728 -204.787)"/><path d="M566.931,221.437a1.073,1.073,0,0,1,.327-.27l.125.179-.266.225Z" transform="translate(-538.823 -204.905)" fill="#e6b32d" fill-rule="evenodd"/><path d="M567.114,221.581l-.192-.139a.879.879,0,0,1,.329-.289l.139.182Zm.132-.412a1.245,1.245,0,0,0-.309.272l.176.112.26-.219Z" transform="translate(-538.82 -204.901)"/><path d="M567.846,223.8l-1.774-1.408c-.3.309-.05,1.263-.05,1.263l1.733.939Z" transform="translate(-538.562 -205.22)" fill="#233189" fill-rule="evenodd"/><path d="M567.759,224.6l-1.747-.946c-.016-.046-.257-.97.047-1.281l1.789,1.407Zm-1.7-2.21c-.282.3-.036,1.242-.033,1.252l1.713.924.09-.777Z" transform="translate(-538.558 -205.217)"/><path d="M569.9,225.417l-1.458-1.169c-.5.07-.107.8-.076.884l1.54.835Z" transform="translate(-539.148 -205.7)" fill="#c00024" fill-rule="evenodd"/><path d="M569.914,225.984l-1.557-.844c-.087-.187-.256-.559-.142-.769a.281.281,0,0,1,.223-.136l1.465,1.171Zm-1.482-1.729a.267.267,0,0,0-.2.128c-.109.2.063.578.121.7l1.536.862-.005-.532Z" transform="translate(-539.144 -205.696)"/><path d="M569.295,224.683l-3.153-2.367-.073.072,3.313,2.587Z" transform="translate(-538.6 -205.201)" fill="#e6b32d" fill-rule="evenodd"/><path d="M569.4,225l-.027-.022-3.313-2.586.071-.089,3.168,2.366Zm-3.267-2.68-.058.072,3.284,2.548-.078-.259Z" transform="translate(-538.598 -205.198)"/><path d="M565.768,222.021l-.056-.046-.015-.109-.491-.2.277.409h.155l.056.047Z" transform="translate(-538.377 -205.032)" fill="#e6b32d" fill-rule="evenodd"/><path d="M565.693,222.136l-.066-.053h-.148l-.286-.414.505.188.011.066-.027-.054-.484-.2.291.393.15,0,.05.042.068-.088-.005-.009.022.023Z" transform="translate(-538.374 -205.034)"/><path d="M565.7,222.3a1.012,1.012,0,0,1,.274-.322l.154.155-.222.267Z" transform="translate(-538.505 -205.115)" fill="#e6b32d" fill-rule="evenodd"/><path d="M565.909,222.416l-.214-.1a.842.842,0,0,1,.272-.341l.168.155Zm.057-.427a1.175,1.175,0,0,0-.257.319l.193.082.217-.261Z" transform="translate(-538.504 -205.112)"/><path d="M567.522,225c-.023-.006-2.285-1.289-2.285-1.289a.754.754,0,0,0,.056.744,1.131,1.131,0,0,0,.087.671,1.059,1.059,0,0,0,.333.62c.206.792,1.015.845,1.326.2Z" transform="translate(-538.366 -205.561)" fill="#233189" fill-rule="evenodd"/><path d="M566.4,226.4h0a.758.758,0,0,1-.7-.651,1.049,1.049,0,0,1-.333-.621.923.923,0,0,1-.095-.544,1.2,1.2,0,0,0,.007-.13.751.751,0,0,1-.055-.75c.789.435,2.263,1.269,2.3,1.284l-.476.963a.726.726,0,0,1-.641.449m-1.177-2.68a.777.777,0,0,0,.07.726.656.656,0,0,1,0,.14.917.917,0,0,0,.093.535,1.042,1.042,0,0,0,.33.616.744.744,0,0,0,.687.641h0a.7.7,0,0,0,.621-.436l.482-.948c-.033,0-1.9-1.06-2.281-1.274" transform="translate(-538.362 -205.559)"/><path d="M569.745,226.273l-1.549-.908c-.5.07.012.994.041,1.076l1.495.53Z" transform="translate(-539.093 -205.988)" fill="#c00024" fill-rule="evenodd"/><path d="M569.74,226.983l-1.514-.537-.03-.066c-.088-.184-.321-.674-.2-.908a.24.24,0,0,1,.191-.121l1.557.909Zm-1.553-1.612a.224.224,0,0,0-.167.111c-.12.224.109.707.2.889l1.5.581.013-.683Z" transform="translate(-539.089 -205.984)"/><path d="M568.771,225.5l-3.5-1.863-.061.084,3.692,2.054Z" transform="translate(-538.379 -205.541)" fill="#e6b32d" fill-rule="evenodd"/><path d="M568.928,225.8l-3.723-2.072.057-.1,3.512,1.859Zm-3.662-2.155-.047.08,3.658,2.022-.118-.244Z" transform="translate(-538.377 -205.539)"/><path d="M564.852,223.4l-.062-.038-.033-.1-.519-.129.341.362.154-.021.064.037Z" transform="translate(-538.127 -205.412)" fill="#e6b32d" fill-rule="evenodd"/><path d="M564.8,223.529l-.074-.043-.146.023-.35-.366.53.111.024.067-.038-.053-.511-.121.352.344.148-.025.057.033.051-.095-.007-.011.027.021Z" transform="translate(-538.124 -205.415)"/><path d="M564.851,223.681a.994.994,0,0,1,.219-.358l.177.129-.175.3Z" transform="translate(-538.286 -205.461)" fill="#e6b32d" fill-rule="evenodd"/><path d="M565.076,223.76l-.229-.07a.824.824,0,0,1,.214-.376l.191.128Zm-.013-.43a1.119,1.119,0,0,0-.2.354l.2.05.171-.289Z" transform="translate(-538.285 -205.458)"/><path d="M566.61,221.878l.073.127c.045-.017.5-.427.5-.427l.324-.01.093-.1a.292.292,0,0,0-.462.036Z" transform="translate(-538.74 -204.954)" fill="#233189" fill-rule="evenodd"/><path d="M566.674,222.021l-.076-.135.528-.391c0-.007.276-.249.477-.035l-.093.117-.332.014c-.039.039-.45.41-.495.427Zm.713-.648a.363.363,0,0,0-.246.137l-.528.379.07.1c.055-.035.316-.265.487-.421l.332-.013.085-.1a.32.32,0,0,0-.2-.087" transform="translate(-538.737 -204.957)" fill="#233189"/><path d="M566.894,222.125a1.147,1.147,0,0,1,.263-.407c.16.048.309.141.473-.227-.142.18-.429,0-.429,0l-.125.1,0,.05-.377.349Z" transform="translate(-538.764 -204.987)" fill="#c00024" fill-rule="evenodd"/><path d="M566.9,222.141l-.2-.143.145-.142-.131.14.175.108a1.162,1.162,0,0,1,.266-.4.736.736,0,0,0,.2.046c.068,0,.159-.028.261-.247-.085.151-.408,0-.415-.01l-.055.05.053-.068c.023,0,.318.144.427.005-.1.3-.262.312-.424.259-.087-.01-.276.268-.293.384Z" transform="translate(-538.762 -204.984)" fill="#c00024"/><path d="M565.464,222.746l.02.131c.042-.023.439-.46.439-.46l.321-.059.064-.1c-.222-.261-.458.086-.458.086Z" transform="translate(-538.444 -205.16)" fill="#233189" fill-rule="evenodd"/><path d="M565.471,222.9l-.022-.147.388-.414c.006-.009.285-.308.475-.086l-.063.116-.327.065c-.035.041-.394.435-.436.458Zm.652-.726c-.145,0-.268.177-.269.179l-.387.406.02.1c.06-.053.279-.289.424-.448l.326-.063.056-.1a.251.251,0,0,0-.17-.08" transform="translate(-538.44 -205.163)" fill="#233189"/><path d="M565.725,223.007a1.159,1.159,0,0,1,.179-.491c.19.056.357.142.427-.255-.111.2-.427.045-.427.045l-.105.12.014.066-.321.415Z" transform="translate(-538.451 -205.187)" fill="#c00024" fill-rule="evenodd"/><path d="M565.736,223.023l-.251-.107.083-.114-.07.111.212.076a1.177,1.177,0,0,1,.187-.485.911.911,0,0,0,.214.047c.076,0,.161-.035.207-.295-.044.176-.413.061-.421.056l-.031.041.028-.058a.641.641,0,0,0,.241.053.2.2,0,0,0,.185-.1c-.026.323-.183.345-.379.284-.063.006-.223.35-.208.466Z" transform="translate(-538.449 -205.185)" fill="#c00024"/><path d="M564.661,224.121l.074.144c.037-.029.371-.565.371-.565l.307-.1.058-.125c-.246-.229-.432.166-.432.166Z" transform="translate(-538.237 -205.481)" fill="#233189" fill-rule="evenodd"/><path d="M564.728,224.282l-.08-.156.379-.494c0-.01.231-.369.448-.167l-.055.138-.314.108c-.028.05-.33.534-.368.563Zm.585-.869c-.157,0-.266.229-.266.231l-.38.484.068.119c.048-.06.236-.355.359-.553l.313-.106.051-.119a.26.26,0,0,0-.145-.056" transform="translate(-538.233 -205.482)" fill="#233189"/><path d="M565.019,224.348a1.435,1.435,0,0,1,.087-.536c.193.057.354.073.4-.323-.111.188-.41.117-.41.117l-.089.134.019.047-.254.487Z" transform="translate(-538.265 -205.504)" fill="#c00024" fill-rule="evenodd"/><path d="M565.033,224.361l-.266-.079.1-.2-.087.2.226.054a1.371,1.371,0,0,1,.094-.531c.166.038.339.163.392-.315-.082.208-.4.13-.4.129l-.038.064.031-.081c.015,0,.068.008.137.008a.3.3,0,0,0,.274-.125c-.01.354-.191.4-.39.34a1.839,1.839,0,0,0-.073.524Z" transform="translate(-538.264 -205.502)" fill="#c00024"/><path d="M569.072,226.958l-.872-.27-.379-.648-1.345-.066.047.486,1.145.219.109.2,1.317.366Z" transform="translate(-538.705 -206.145)" fill="#e6b32d" fill-rule="evenodd"/><path d="M569.1,227.255l-1.332-.371-.115-.2-1.138-.213-.056-.5,1.356.054.389.654.867.266Zm-2.632-1.271.059.474,1.136.208.116.2,1.3.358-.021-.267-.865-.26-.385-.654Z" transform="translate(-538.701 -206.145)"/><path d="M568.247,226.84l-1.376-2.025-.068.052,1.367,2.032Z" transform="translate(-538.789 -205.846)" fill="#4d3509" fill-rule="evenodd"/><path d="M568.162,226.912l-1.373-2.042.071-.066,1.393,2.027Zm-1.305-2.094-.052.054,1.363,2.008.068-.053Z" transform="translate(-538.786 -205.843)"/><path d="M566.952,224.822l-.146-.246a.087.087,0,0,0-.131-.028.1.1,0,0,0-.03.138l.137.229Z" transform="translate(-538.745 -205.773)" fill="#fff" fill-rule="evenodd"/><path d="M566.774,224.931l-.142-.238a.108.108,0,0,1,.035-.154c.1-.019.125,0,.145.033l.147.246Zm-.042-.4-.055.027a.084.084,0,0,0-.025.123l.131.22.161-.089Z" transform="translate(-538.741 -205.773)"/><path d="M567.979,225.761l-2.776-.283-.067.4,2.764.277Z" transform="translate(-538.359 -206.017)" fill="#e6b32d" fill-rule="evenodd"/><path d="M567.907,226.171l-2.773-.278.057-.417,2.789.274Zm-2.706-.683-.054.4,2.744.263.077-.389Z" transform="translate(-538.359 -206.017)"/><path d="M565.134,225.339l-.073.56h.118l.081-.513Z" transform="translate(-538.34 -205.981)" fill="#e6b32d" fill-rule="evenodd"/><path d="M565.188,225.91h-.127l.062-.573.141.039Zm-.058-.561-.058.551.1-.011.079-.5Z" transform="translate(-538.34 -205.981)"/><path d="M565.773,225.462l-.032.5.073.007.058-.447Z" transform="translate(-538.516 -206.013)" fill="#e6b32d" fill-rule="evenodd"/><path d="M565.822,225.986l-.083-.009.022-.516.115.056Zm-.056-.514-.016.495.062.007h-.01l.058-.447Z" transform="translate(-538.515 -206.013)"/><path d="M568.3,225.754l-.067.473.135,0,.053-.469Z" transform="translate(-539.158 -206.088)" fill="#e6b32d" fill-rule="evenodd"/><path d="M568.212,226.235l.069-.486.132-.01-.042.481Z" transform="translate(-539.153 -206.085)"/><path d="M568.844,225.772l-.1.547.154.023.044-.288a.132.132,0,0,0,.26-.026.129.129,0,0,0-.131-.126.122.122,0,0,0-.116.084l.029-.2Z" transform="translate(-539.291 -206.093)" fill="#e6b32d" fill-rule="evenodd"/><path d="M568.91,226.354l-.165-.024.088-.559h.154l-.017.2c.023-.124.246-.063.246.062,0,.142-.255.165-.283.028Zm.065-.575-.132,0-.085.538.133.009.042-.277c.071.115.262.095.261-.024a.12.12,0,0,0-.227-.038Z" transform="translate(-539.291 -206.092)"/><path d="M567.394,225.892l-.381.43.044.052.49-.335Z" transform="translate(-538.844 -206.124)" fill="#e6b32d" fill-rule="evenodd"/><path d="M567.051,226.386l-.05-.06.382-.444.168.147Zm.332-.489-.365.429.036.045-.007-.01.49-.335Z" transform="translate(-538.841 -206.121)"/><path d="M566.276,227.168l.383-.43-.045-.052-.49.335Z" transform="translate(-538.614 -206.329)" fill="#e6b32d" fill-rule="evenodd"/><path d="M566.274,227.178l-.161-.155.5-.358.051.06Zm.374-.453-.52.3.144.122Z" transform="translate(-538.611 -206.324)"/><path d="M567.5,227.066l-.465-.359-.047.034.367.464Z" transform="translate(-538.837 -206.334)" fill="#e6b32d" fill-rule="evenodd"/><path d="M567.348,227.217l-.374-.473.063-.049.465.359Zm-.324-.505.326.472.138-.129Z" transform="translate(-538.834 -206.331)"/><path d="M566.132,226.018l.471.347.058-.043-.369-.464Z" transform="translate(-538.616 -206.115)" fill="#e6b32d" fill-rule="evenodd"/><path d="M566.6,226.376l-.478-.352.158-.177.393.474Zm-.32-.513-.142.16.463.326.051-.038Z" transform="translate(-538.614 -206.113)"/><path d="M566.823,225.688l.045.565.063,0,.15-.549Z" transform="translate(-538.795 -206.071)" fill="#e6b32d" fill-rule="evenodd"/><path d="M566.854,226.264l-.046-.576h.27l-.142.571Zm.212-.567h-.248l.056.542.053,0Z" transform="translate(-538.791 -206.071)"/><path d="M566.961,227.335l-.045-.565-.069-.007-.086.571Z" transform="translate(-538.779 -206.349)" fill="#e6b32d" fill-rule="evenodd"/><path d="M566.973,227.342h-.212l.076-.594.08.007Zm-.068-.575-.133.565.178-.012Z" transform="translate(-538.779 -206.345)"/><path d="M567.665,226.508l-.593.063-.009.056.6.079Z" transform="translate(-538.857 -206.283)" fill="#e6b32d" fill-rule="evenodd"/><path d="M567.672,226.715l-.611-.08.009-.079.593-.063Zm-.019-.211-.58.074.577.111Z" transform="translate(-538.856 -206.279)"/><path d="M565.973,226.7l.578-.091.012-.045-.6-.066Z" transform="translate(-538.573 -206.281)" fill="#e6b32d" fill-rule="evenodd"/><path d="M565.958,226.714l-.007-.216.61.056-.113.03-.487-.075.018.179.194-.03Z" transform="translate(-538.57 -206.281)"/><path d="M567.027,226.542a.157.157,0,1,1-.158-.151.155.155,0,0,1,.158.151" transform="translate(-538.766 -206.253)" fill="#e6b32d" fill-rule="evenodd"/><path d="M566.865,226.709a.165.165,0,0,1-.168-.162c0-.18.338-.178.337,0a.166.166,0,0,1-.169.162m0-.3a.143.143,0,0,0-.145.14c0,.156.292.154.292,0a.144.144,0,0,0-.147-.14" transform="translate(-538.762 -206.257)"/><path d="M567.467,226.316a.833.833,0,1,1-.833-.8.818.818,0,0,1,.833.8m-.167,0a.666.666,0,1,1-.666-.642.654.654,0,0,1,.666.642" transform="translate(-538.531 -206.026)" fill="#e6b32d" fill-rule="evenodd"/><path d="M566.63,227.126a.815.815,0,1,1,.844-.815.83.83,0,0,1-.844.815m0-1.606a.793.793,0,1,0,.822.792.807.807,0,0,0-.822-.792m0,1.445a.654.654,0,1,1,.677-.654.665.665,0,0,1-.677.654m0-1.285a.632.632,0,1,0,.656.631.644.644,0,0,0-.656-.631" transform="translate(-538.527 -206.022)"/><path d="M569.967,225.526l.143.726-.116.062-.126-.777Z" transform="translate(-539.581 -206.03)" fill="#e6b32d" fill-rule="evenodd"/><path d="M569.981,226.328l-.128-.793.108-.024.156.736Zm-.03-.8-.086.019.132.75.1-.055Z" transform="translate(-539.577 -206.026)"/><path d="M569.763,225.344c-.067-.027-.152.019-.293-.16-.231.213-.013.245.022.455.065.027.105-.162.284-.183l.283-.025-.066-.089s-.182,0-.231,0" transform="translate(-539.451 -205.942)" fill="#fff" fill-rule="evenodd"/><path d="M569.5,225.651l-.017,0a.486.486,0,0,0-.081-.174c-.057-.086-.1-.154.056-.3a.34.34,0,0,0,.245.145l.111.013.174,0,.075.094-.291.043a.294.294,0,0,0-.2.125c-.028.033-.05.06-.078.06m-.043-.462c-.128.134-.092.189-.036.273a.428.428,0,0,1,.078.174v-.007c.017,0,.037-.024.062-.053a.312.312,0,0,1,.208-.133l.285-.025-.075-.072-.166.007-.114-.013a.317.317,0,0,1-.244-.152" transform="translate(-539.447 -205.939)"/><path d="M569.976,225.5l-.026-.217c-.029-.077-.123-.011-.123.034l.024.2Z" transform="translate(-539.57 -205.959)" fill="#fff" fill-rule="evenodd"/><path d="M569.839,225.529l-.026-.211a.1.1,0,0,1,.089-.082l.013.042c-.05-.01-.081.019-.081.039l.023.188.114-.016-.012-.068.024.078Z" transform="translate(-539.566 -205.955)"/><path d="M567.788,227.979a.088.088,0,0,1-.046.077.1.1,0,0,1-.092,0,.088.088,0,0,1,0-.154.1.1,0,0,1,.092,0,.088.088,0,0,1,.046.076" transform="translate(-538.997 -206.64)" fill="#e6b32d" fill-rule="evenodd"/><path d="M567.473,227.756a.086.086,0,0,1-.045.077.1.1,0,0,1-.091,0,.087.087,0,0,1,0-.154.1.1,0,0,1,.091,0,.086.086,0,0,1,.045.076" transform="translate(-538.915 -206.583)" fill="#e6b32d" fill-rule="evenodd"/><path d="M567.049,227.9a.089.089,0,0,1-.045.076.1.1,0,0,1-.091,0,.087.087,0,0,1,0-.154.1.1,0,0,1,.091,0,.089.089,0,0,1,.045.077" transform="translate(-538.806 -206.62)" fill="#e6b32d" fill-rule="evenodd"/><path d="M566.395,228.044a.087.087,0,0,1-.046.076.1.1,0,0,1-.092,0,.089.089,0,0,1-.045-.076.09.09,0,0,1,.045-.077.1.1,0,0,1,.092,0,.088.088,0,0,1,.046.077" transform="translate(-538.637 -206.657)" fill="#e6b32d" fill-rule="evenodd"/><path d="M566.117,228.077a.087.087,0,0,1-.046.076.1.1,0,0,1-.092,0,.088.088,0,0,1,0-.153.1.1,0,0,1,.092,0,.087.087,0,0,1,.046.076" transform="translate(-538.566 -206.665)" fill="#e6b32d" fill-rule="evenodd"/><path d="M565.844,228.077a.088.088,0,0,1-.045.076.1.1,0,0,1-.091,0,.086.086,0,0,1,0-.153.1.1,0,0,1,.091,0,.088.088,0,0,1,.045.076" transform="translate(-538.495 -206.665)" fill="#e6b32d" fill-rule="evenodd"/><path d="M565.566,228.069a.089.089,0,0,1-.045.076.1.1,0,0,1-.091,0,.087.087,0,0,1,0-.154.1.1,0,0,1,.091,0,.089.089,0,0,1,.045.077" transform="translate(-538.423 -206.663)" fill="#e6b32d" fill-rule="evenodd"/><path d="M565.7,227.858a.088.088,0,0,1-.045.076.1.1,0,0,1-.091,0,.086.086,0,0,1,0-.153.1.1,0,0,1,.091,0,.087.087,0,0,1,.045.076" transform="translate(-538.458 -206.609)" fill="#e6b32d" fill-rule="evenodd"/><path d="M565.971,227.87a.088.088,0,0,1-.046.077.1.1,0,0,1-.092,0,.089.089,0,0,1,0-.154.1.1,0,0,1,.092,0,.088.088,0,0,1,.046.076" transform="translate(-538.528 -206.612)" fill="#e6b32d" fill-rule="evenodd"/><path d="M566.227,227.837a.088.088,0,0,1-.046.077.1.1,0,0,1-.092,0,.088.088,0,0,1,0-.154.1.1,0,0,1,.092,0,.088.088,0,0,1,.046.076" transform="translate(-538.594 -206.603)" fill="#e6b32d" fill-rule="evenodd"/><path d="M566.1,227.631a.089.089,0,0,1-.045.076.1.1,0,0,1-.091,0,.087.087,0,0,1,0-.154.1.1,0,0,1,.091,0,.089.089,0,0,1,.045.077" transform="translate(-538.56 -206.55)" fill="#e6b32d" fill-rule="evenodd"/><path d="M565.844,227.626a.089.089,0,0,1-.045.077.1.1,0,0,1-.091,0,.087.087,0,0,1,0-.154.1.1,0,0,1,.091,0,.089.089,0,0,1,.045.076" transform="translate(-538.495 -206.549)" fill="#e6b32d" fill-rule="evenodd"/><path d="M567.958,227.223c-.078-.032-.078.145-.078.145H568c.054.024.1.1.062.143s-.268-.055-.283-.005a.33.33,0,0,0,.473.227c.113-.1.142-.375-.223-.447Z" transform="translate(-539.042 -206.467)" fill="#fff" fill-rule="evenodd"/><path d="M567.31,227.647a.37.37,0,0,1-.117-.02.342.342,0,0,1-.237-.259c.01-.041.083-.029.167-.014.041.007.111.02.119.01,0-.076-.027-.111-.058-.125h-.12c-.011-.024-.01-.134.035-.163h0l.048,0,.076.064a.339.339,0,0,1,.293.216.256.256,0,0,1-.07.249.205.205,0,0,1-.139.045m-.3-.286c-.016,0-.027,0-.028.008a.323.323,0,0,0,.223.237.243.243,0,0,0,.233-.021.232.232,0,0,0,.064-.226.324.324,0,0,0-.274-.2l-.028.062a.147.147,0,0,1,.077.1c-.03.081-.073.073-.153.059a.86.86,0,0,0-.113-.014m-2.261-.187-.121-.5h0l.772.311-.009.02-.763-.331.14.494Zm.145-.027-.182-.389.2.38Zm.32-.1-.412-.221.422.2Z" transform="translate(-538.227 -206.326)"/><path d="M563.717,226.1a2.023,2.023,0,0,0-.329.016c-.019.007.07.1.052.137-.07.134-.543.115-.579.086-.064-.05.44-.093.443-.128s-.075-.141-.062-.2c.016-.081.22-.111.22-.111Z" transform="translate(-537.771 -206.126)" fill="#c00024" fill-rule="evenodd"/><path d="M563.046,226.369a.532.532,0,0,1-.194-.023c0-.05.077-.067.254-.1a.982.982,0,0,0,.188-.042c-.048-.111-.072-.162-.064-.2.017-.086.208-.116.23-.12l.263.207c-.14.013-.229.019-.281.025a.518.518,0,0,1,.209-.028l-.2-.184c-.046.01-.191.045-.2.1a.239.239,0,0,0,.036.122.194.194,0,0,1,.027.082c0,.021-.042.03-.2.059a.959.959,0,0,0-.245.06c.027.017.5.038.565-.084.007-.015-.018-.056-.033-.079a.075.075,0,0,1,.009-.021c.037.053.056.088.044.111-.055.1-.323.113-.4.113" transform="translate(-537.77 -206.122)" fill="#c00024"/><path d="M564.279,226.326l-.631-.521s-.027-.03-.05,0,.009.053.009.053l.649.536Z" transform="translate(-537.96 -206.098)" fill="#4d3509" fill-rule="evenodd"/><path d="M564.264,226.405l-.662-.546,0,0,.016-.08.673.543Zm-.62-.595.609.557.019-.048Z" transform="translate(-537.963 -206.094)"/><path d="M565.083,227.006l-.513-.446-.033-.126s-.077.053-.106.079a.654.654,0,0,0-.073.1l.141.006.444.407Z" transform="translate(-538.158 -206.264)" fill="#e6b32d" fill-rule="evenodd"/><path d="M564.939,227.037l-.447-.41-.134,0c-.007-.019.035-.092.065-.12s.108-.081.108-.081l.05.133s.5.43.51.441Zm-.439-.43.447.406.134-.021c-.027,0-.518-.427-.518-.427l-.035-.126a.688.688,0,0,1-.09.079.768.768,0,0,0-.07.1Z" transform="translate(-538.158 -206.261)"/><path d="M569.03,226.4v.2c-.065.024-.055.073-.053.145l0,.588c-.023.039-.1.041-.131.071s-.03.09.126.13l.12,0c.184-.041.222-.1.129-.136a.377.377,0,0,1-.137-.068l0-.141.119,0c.032,0,.093-.08.1-.146v-.3c0-.174-.134-.193-.17-.191l0-.16Zm.2.337c0-.049-.07-.093-.1-.095a.133.133,0,0,0-.093.108v.123c0,.045.041.2.113.21.033.005.079-.05.079-.095Z" transform="translate(-539.313 -206.255)" fill="#e6b32d" fill-rule="evenodd"/><path d="M569.094,227.547l-.122,0c-.115-.029-.146-.068-.153-.094l.083-.086a.118.118,0,0,0,.065-.038l0-.582c0-.085,0-.133.061-.156l-.008-.191.119-.012.01.171c.058-.013.165.031.169.19v.3c0,.067-.065.157-.106.157l-.12,0,.007.13a.511.511,0,0,0,.119.054c.059.022.068.045.067.06,0,.039-.068.074-.186.1Zm.03-1.152-.1.012.013.19c-.057.028-.056.062-.054.121l0,.613a.126.126,0,0,1-.079.053l-.069.06c0,.014.024.049.135.077l.116,0c.121-.027.166-.06.168-.08a.937.937,0,0,1-.184-.106l0-.148.13-.007c.022,0,.082-.073.085-.136v-.3c0-.175-.139-.18-.154-.18Zm.031.694h0c-.091-.014-.125-.187-.128-.22v-.124a.143.143,0,0,1,.1-.119c.033,0,.111.049.109.106v.251c0,.045-.039.106-.085.106m-.024-.452v.011a.127.127,0,0,0-.081.1v.123c0,.052.043.189.1.2h0c.038,0,.065-.049.065-.084l0-.251c0-.041-.062-.082-.087-.084Z" transform="translate(-539.31 -206.251)"/><path d="M569.946,218.629c-.958-.959-1.713-.491-1.893-.358.119.023.225-.051.28-.059-.033.044-.105.152-.105.152a1.689,1.689,0,0,1,.329-.127.536.536,0,0,0-.09.115c.021.009.188-.131.222-.133a.431.431,0,0,0-.067.188l.145-.068c.038.027-.011.079.022.076a.958.958,0,0,1,.623.292Z" transform="translate(-539.112 -204.097)" fill="#2c6c1e" fill-rule="evenodd"/><path d="M569.42,218.7a1.085,1.085,0,0,0-.631-.276l-.007-.028.005.009a.938.938,0,0,1,.634.3m.518-.065c-.93-.931-1.672-.509-1.878-.358a.682.682,0,0,0,.206-.057l.035,0a.37.37,0,0,1-.249.063c.2-.174.961-.6,1.9.34Zm-1.312-.22a.273.273,0,0,1,.038-.183.727.727,0,0,1-.08.061c-.08.056-.1.073-.122.067a.288.288,0,0,1,.087-.134c-.018.013-.176.079-.316.145-.013-.015.045-.105.082-.155h.027c-.033.045-.1.152-.1.152a.826.826,0,0,1,.323-.143c-.03.041-.066.1-.079.122a.5.5,0,0,1,.089-.07.4.4,0,0,1,.117-.069.689.689,0,0,0-.055.2l.13-.079,0,.022Z" transform="translate(-539.112 -204.095)"/><path d="M569.487,218.958c-.1-.229-1.924-.617-2.291.03.143.036.281-.121.281-.121l-.013.145.244-.187-.088.193.194-.157-.007.157.238-.259-.03.151.211-.091-.024.126Z" transform="translate(-538.891 -204.25)" fill="#2c6c1e" fill-rule="evenodd"/><path d="M567.627,219.022l.07-.206-.227.2,0-.148a.271.271,0,0,1-.273.126c.193-.369.79-.392,1.128-.375a2.039,2.039,0,0,1,1.176.329l-.021.009a2.04,2.04,0,0,0-1.157-.315c-.334-.018-.922.005-1.114.347.126.016.262-.133.263-.134l.006.154.226-.2-.07.206.177-.17.011.165.219-.267-.012.161.2-.1-.01.139,0-.131-.2.1.016-.162-.219.269-.012-.165Z" transform="translate(-538.89 -204.246)"/><path d="M569.493,219.059a1.649,1.649,0,0,0-1.192-.1c-.462.259-.708.212-.767.693a1.043,1.043,0,0,0,.168-.169l.093.187.032-.265.075.2.112-.338.026.229.174-.229.082.066.075-.174.068.114s.119-.073.187-.03l.132-.151.03.108.113-.131.044.1.113-.1-.007.072.387.007Z" transform="translate(-538.978 -204.316)" fill="#2c6c1e" fill-rule="evenodd"/><path d="M567.807,219.667l-.114-.183a.489.489,0,0,1-.154.174c.03-.375.186-.444.445-.56.09-.04.194-.086.312-.152a1.662,1.662,0,0,1,1.2.1l-.011.018a1.655,1.655,0,0,0-1.184-.1,3.24,3.24,0,0,1-.31.152c-.261.116-.405.18-.449.532.019-.026.115-.137.149-.177l.111.188.011-.261.1.2.091-.338.047.231.154-.234.1.064.058-.17.087.112a.179.179,0,0,1,.184-.033l.118-.148.05.112.094-.136.062.1.117-.126-.01.1.376-.006-.387.016h-.013l.009-.085-.1.112-.061-.1-.094.134-.05-.113-.114.155c-.075-.036-.188.032-.189.032l-.083-.118-.056.174-.1-.062-.158.226-.045-.234-.091.341-.1-.2Z" transform="translate(-538.98 -204.313)"/><path d="M569.509,219.193a2.534,2.534,0,0,0-1.5.717,1.668,1.668,0,0,1,.157-.079l.046.149.059-.149.012.115c.036-.089.076-.1.143-.007l.026-.138.036.132.064-.144s.039.157.062.15c0,0,.1-.27.149-.283l.013.169.062-.169.055.126.013-.18.062.138s.033-.136.081-.162l.094.084.415-.3Z" transform="translate(-539.1 -204.395)" fill="#2c6c1e" fill-rule="evenodd"/><path d="M568.22,219.98l-.065-.145a1.122,1.122,0,0,1-.142.081,2.4,2.4,0,0,1,1.49-.737h.008v.022H569.5a2.549,2.549,0,0,0-1.486.712.58.58,0,0,1,.142-.094l.062.155.039-.149.033.117c0-.053.021-.078.047-.081s.057.017.094.069l.007-.134.058.131.043-.145c.036.065.062.137.073.144.007-.039.1-.269.146-.283l.027.18.041-.172.076.125-.008-.177.08.129a.214.214,0,0,1,.069-.162l.107.086.4-.3-.4.318-.108-.085a.5.5,0,0,0-.063.157l-.083-.137.008.177-.076-.122-.042.168-.034-.172a2.571,2.571,0,0,0-.128.286c-.047-.01-.075-.118-.083-.151l-.043.146-.057-.134,0,.137a.343.343,0,0,0-.093-.056c-.017,0-.034.024-.05.065l-.033-.118Z" transform="translate(-539.102 -204.391)"/><path d="M569.84,219.3a1.378,1.378,0,0,0-.792,1.016c.192-.24.151-.206.237.069a1,1,0,0,1,.065-.27l.056.179.021-.234.058,0-.016-.146.087.066c-.02-.083-.042-.111.048-.183,0,0-.114.014-.025-.19l.085.08s-.015-.089.014-.123l.307-.106Z" transform="translate(-539.368 -204.422)" fill="#2c6c1e" fill-rule="evenodd"/><path d="M569.308,220.379l-.056-.114c-.016-.058-.028-.1-.04-.105h0c-.017,0-.056.05-.116.124l0-.009c.071-.112.1-.139.125-.137s.035.042.058.12l.032.109a.515.515,0,0,1,.049-.268l.075.184v-.231l.042-.142.026.014-.022-.007.033.137-.079.234-.079-.177c0,.024-.031.177-.043.268m-.216-.234a1.394,1.394,0,0,1,.756-.863l.007.022a1.487,1.487,0,0,0-.763.841m.483-.388c-.033-.037-.023-.09.007-.16l.092.069a.12.12,0,0,1,.008-.115l.312-.11-.3.128a.216.216,0,0,0-.007.111l-.1-.07a.234.234,0,0,0-.01.148" transform="translate(-539.38 -204.418)"/><path d="M570.04,219.357l-.164.313.085.024-.19.142.161-.016a.438.438,0,0,0-.275.329l.248-.109a1.125,1.125,0,0,0-.239.345l.143-.126a.526.526,0,0,0-.119.378l.106-.119a.594.594,0,0,0,.108.513,1.193,1.193,0,0,1,0-.366l.278.288-.155-.41s.173.26.277.235l-.219-.333.214.174-.243-.365.228.069s-.165-.208-.152-.337l.157.17a.814.814,0,0,1-.042-.252l.08.016-.157-.178.105-.022-.013-.117.076-.024,0-.13Z" transform="translate(-539.526 -204.437)" fill="#2c6c1e" fill-rule="evenodd"/><path d="M569.917,221.027a.531.531,0,0,1-.129-.512l-.088.126a.49.49,0,0,1,.1-.39l0,0a.843.843,0,0,0-.1.386l.087-.124a.67.67,0,0,0,.126.513.706.706,0,0,1-.012-.368l.294.289-.174-.4c.066.06.2.246.284.22l-.225-.316.231.16-.26-.35.234.05a.5.5,0,0,1-.16-.326l.167.156a.463.463,0,0,1-.053-.239l.093.008-.166-.16.112-.039-.023-.105.085-.036-.011-.119.025.129-.084.036.02.106-.114.033.162.16-.089,0a1.374,1.374,0,0,0,.054.237l-.176-.159a.869.869,0,0,0,.17.322l-.24-.051.255.349-.23-.16.235.319c-.125.044-.288-.213-.3-.223l.174.4-.3-.277a2.376,2.376,0,0,0,.013.357m.008-.355a1.964,1.964,0,0,0,.077-.5,1.4,1.4,0,0,1,.2-.735l.018.013a1.378,1.378,0,0,0-.191.723,1.246,1.246,0,0,1-.1.494m-.251-.282a.871.871,0,0,1,.224-.361l-.234.127a.42.42,0,0,1,.265-.349h0c0,.022-.234.111-.261.341l.232-.121c.01.02-.2.232-.224.358l.119-.13Zm.1-.545.182-.162-.081,0,.157-.329.021.01-.164.313.077.008-.187.162.147-.035Z" transform="translate(-539.528 -204.436)"/><path d="M568.35,228.126c0-.039-.095-.022-.095-.068s.145-.013.165.031c.082-.073.117-.019.167,0a.144.144,0,0,1,.245-.024.158.158,0,0,1,.216.024.134.134,0,0,1,.213,0c.021-.043.056-.033.079,0,.044-.076.154-.053.2,0,.041-.045.082-.009.138.024.036-.035.095-.029.095.005s-.076.024-.076.059.056.016.056.056-.084.042-.1-.007a.084.084,0,0,1-.142-.017.1.1,0,0,1-.154-.007c-.035.029-.077.033-.1,0a.128.128,0,0,1-.208-.022h-.036a.112.112,0,0,1-.187,0,.159.159,0,0,1-.228,0c-.067.082-.169.076-.194,0-.045.033-.141.041-.141,0s.081-.023.081-.057m.2.018c0,.019-.024.032-.053.032s-.054-.013-.054-.032.024-.032.054-.032.053.015.053.032m.225-.027c0,.021-.029.039-.065.039s-.064-.017-.064-.039.029-.039.064-.039.065.018.065.039m.44.024c0,.022-.026.039-.058.039s-.058-.017-.058-.039.026-.039.058-.039.058.017.058.039m-.234-.01a.053.053,0,0,1-.056.049.054.054,0,0,1-.058-.049.055.055,0,0,1,.058-.05.053.053,0,0,1,.056.05m.5,0a.048.048,0,0,1-.051.044.044.044,0,1,1,0-.088.048.048,0,0,1,.051.044m-.154.01a.031.031,0,0,1-.033.029.03.03,0,0,1-.032-.029.031.031,0,0,1,.032-.028.032.032,0,0,1,.033.028m.3.012a.04.04,0,0,1-.038.042.041.041,0,0,1,0-.082.04.04,0,0,1,.038.041" transform="translate(-539.164 -206.671)" fill="#e6b32d" fill-rule="evenodd"/><path d="M569.16,228.252a.132.132,0,0,1-.113-.061c.1.049.155.05.2,0l.009-.007.105.005a.084.084,0,0,0,.07.037l.015-.019.071-.007c0,.022.035.039.068.04-.055.012-.085-.007-.091-.036,0,.06-.11.056-.151,0l-.088,0,.008.008a.146.146,0,0,1-.108.048m-.671,0a.1.1,0,0,1-.094-.068c-.007.024-.047.036-.082.036l0-.031a.125.125,0,0,0,.089-.016.112.112,0,0,0,.192,0c.108.06.146.055.229-.005.044.04.109.106.185,0l.03.016c-.134.123-.194.039-.217-.005a.159.159,0,0,1-.225.007.114.114,0,0,1-.1.062m-.182-.091,0-.019c-.032-.044-.065-.053-.065-.085.1-.035.171-.007.186.027a.069.069,0,0,1,.066-.045l.091.051-.01-.007a.156.156,0,0,1,.262-.026c.013-.053.172-.039.218.026.042-.079.139-.076.211,0,.157-.069.211-.069.271-.015-.091-.017-.145-.054-.19.024l-.006.014-.091-.009a.123.123,0,0,0-.2,0c-.066-.056-.174-.07-.216-.025-.118-.074-.18-.07-.243.023l-.1-.035a.107.107,0,0,0-.069.035.226.226,0,0,0-.132-.053l.066.082Z" transform="translate(-539.16 -206.667)"/><path d="M571.822,223.357l.312-.669L572,222.66l-.568,1.111Z" transform="translate(-539.984 -205.29)" fill="#e6b32d" fill-rule="evenodd"/><path d="M571.37,223.833l.6-1.18.147.022-.3.685Zm.611-1.164-.522,1.038.34-.358.309-.667Z" transform="translate(-539.968 -205.288)"/><path d="M572.745,221.642l-.345.942h-.177Z" transform="translate(-540.189 -205.027)" fill="#fff" fill-rule="evenodd"/><path d="M572.409,222.593h-.185l.512-.959Zm.326-.957-.5.951.159-.016Z" transform="translate(-540.189 -205.025)"/><path d="M571.351,222.428l-.172,0-.315,1.327.067.418Z" transform="translate(-539.838 -205.229)" fill="#e6b32d" fill-rule="evenodd"/><path d="M570.925,224.223l-.075-.473.315-1.331.183,0Zm.412-1.8-.162.01-.3,1.318.058.359Z" transform="translate(-539.834 -205.227)"/><path d="M571.223,223.773l.529-1.424-.2-.012-.619,1.74Z" transform="translate(-539.856 -205.206)" fill="#e6b32d" fill-rule="evenodd"/><path d="M570.9,224.121l.637-1.789.208,0-.52,1.44Zm.835-1.778-.188,0-.59,1.684.252-.266Z" transform="translate(-539.846 -205.205)"/><path d="M572.234,221.259l-.219.99h-.177Z" transform="translate(-540.089 -204.928)" fill="#fff" fill-rule="evenodd"/><path d="M572.023,222.26h-.185l.386-1.006Zm.2-1-.375,1,.157-.014Z" transform="translate(-540.089 -204.927)"/><path d="M571.68,221.238l-.117,1.022-.126-.008Z" transform="translate(-539.985 -204.923)" fill="#fff" fill-rule="evenodd"/><path d="M571.573,222.27l-.137-.009.233-1.028Zm.1-1.035-.222,1.018.105-.005Z" transform="translate(-539.985 -204.922)"/><path d="M571.9,223.2l1.411-1.54a1.174,1.174,0,0,1,.358.99l-1.6,1.255Z" transform="translate(-540.105 -205.032)" fill="#233189" fill-rule="evenodd"/><path d="M572.062,223.921l-.175-.721,1.414-1.551a1.172,1.172,0,0,1,.377,1Zm1.24-2.255-1.4,1.539.17.677,1.585-1.244a1.187,1.187,0,0,0-.358-.973" transform="translate(-540.102 -205.029)"/><path d="M570.8,224.51l1.048-1.061c.444.016.091.676.07.76l-1.117.954Z" transform="translate(-539.821 -205.494)" fill="#c00024" fill-rule="evenodd"/><path d="M570.785,225.185v-.677l1.051-1.068h0a.222.222,0,0,1,.2.089c.1.157-.027.464-.09.613l-.03.073Zm1.058-1.726-1.039,1.057,0,.621,1.1-.939a.452.452,0,0,1,.024-.065c.06-.145.186-.445.092-.592a.208.208,0,0,0-.179-.082" transform="translate(-539.817 -205.491)"/><path d="M570.906,223.827l2.165-2.318.084.059-2.291,2.545Z" transform="translate(-539.838 -204.993)" fill="#e6b32d" fill-rule="evenodd"/><path d="M570.843,224.145l.047-.323,2.168-2.324.1.058Zm2.216-2.63-2.15,2.316-.034.245,2.266-2.518Z" transform="translate(-539.832 -204.99)"/><path d="M574.007,221.153l.047-.055,0-.111.446-.283-.2.449-.152.027-.047.055Z" transform="translate(-540.649 -204.785)" fill="#e6b32d" fill-rule="evenodd"/><path d="M574.085,221.241l-.1-.09.054-.064-.007-.1.452-.294-.184.463Zm.4-.545-.43.3.01.1-.051.059.082.06.039-.047.159-.031Z" transform="translate(-540.643 -204.782)"/><path d="M574.158,221.437a1.064,1.064,0,0,0-.329-.27l-.123.179.266.225Z" transform="translate(-540.571 -204.905)" fill="#e6b32d" fill-rule="evenodd"/><path d="M573.969,221.582l-.273-.231.121-.193a.969.969,0,0,1,.347.269Zm-.148-.408-.108.175.257.2.179-.128a1.348,1.348,0,0,0-.327-.251" transform="translate(-540.569 -204.902)"/><path d="M572.731,223.8l1.774-1.408c.3.309.05,1.263.05,1.263l-1.733.939Z" transform="translate(-540.32 -205.22)" fill="#233189" fill-rule="evenodd"/><path d="M572.809,224.6l-.093-.809,1.778-1.419c.32.311.079,1.235.069,1.275Zm1.684-2.212-1.758,1.41.093.767,1.719-.931s.243-.944-.053-1.246" transform="translate(-540.316 -205.217)"/><path d="M570.747,225.417l1.459-1.169c.5.07.107.8.076.884l-1.54.835Z" transform="translate(-539.806 -205.7)" fill="#c00024" fill-rule="evenodd"/><path d="M570.729,225.984l0-.57,1.463-1.177a.275.275,0,0,1,.231.134c.115.209-.055.582-.119.723l-.029.016c.073-.166.235-.533.128-.728a.261.261,0,0,0-.206-.125l-1.451,1.166v.524l1.162-.631Z" transform="translate(-539.803 -205.697)"/><path d="M570.8,224.683l3.155-2.367.073.072-3.313,2.587Z" transform="translate(-539.798 -205.201)" fill="#e6b32d" fill-rule="evenodd"/><path d="M570.684,225l.095-.326,3.159-2.372.087.073Zm3.253-2.681-3.14,2.367-.072.254,3.286-2.565Z" transform="translate(-539.791 -205.198)"/><path d="M575.28,222.021l.058-.046.015-.109.491-.2-.277.409h-.155l-.056.047Z" transform="translate(-540.978 -205.032)" fill="#e6b32d" fill-rule="evenodd"/><path d="M575.341,222.121l-.082-.106.067-.053.01-.1.5-.214-.263.425Zm.487-.47-.478.221-.008.105-.062.048.069.073.049-.04.162,0Z" transform="translate(-540.972 -205.028)"/><path d="M575.4,222.3a1.012,1.012,0,0,0-.274-.322l-.154.155.222.267Z" transform="translate(-540.897 -205.115)" fill="#e6b32d" fill-rule="evenodd"/><path d="M575.184,222.416l-.228-.273.154-.17a.91.91,0,0,1,.292.324Zm-.072-.427-.139.154.216.245.2-.1a1.332,1.332,0,0,0-.275-.3" transform="translate(-540.894 -205.113)"/><path d="M572.9,225c.023-.006,2.285-1.289,2.285-1.289a.754.754,0,0,1-.056.744,1.132,1.132,0,0,1-.087.671,1.06,1.06,0,0,1-.333.62c-.206.792-1.015.845-1.327.2Z" transform="translate(-540.364 -205.561)" fill="#233189" fill-rule="evenodd"/><path d="M574.015,226.4a.727.727,0,0,1-.643-.449L572.89,225c.042-.03,1.516-.864,2.289-1.3a.735.735,0,0,1-.044.762c0,.039.007.08.012.122a.94.94,0,0,1-.1.546,1.059,1.059,0,0,1-.336.625.752.752,0,0,1-.7.645m1.161-2.684c-.363.218-2.249,1.288-2.272,1.294l.49.932a.7.7,0,0,0,.622.436.736.736,0,0,0,.683-.635,1.056,1.056,0,0,0,.334-.619.927.927,0,0,0,.094-.537.931.931,0,0,1-.007-.132.756.756,0,0,0,.058-.738" transform="translate(-540.361 -205.558)"/><path d="M570.886,226.273l1.549-.908c.5.07-.012.994-.041,1.076l-1.495.53Z" transform="translate(-539.843 -205.988)" fill="#c00024" fill-rule="evenodd"/><path d="M570.884,226.984l-.013-.714,1.554-.917a.235.235,0,0,1,.2.119c.126.234-.107.724-.194.909l-.034.067Zm1.545-1.611-1.542.907.018.673,1.481-.526c.108-.237.337-.72.216-.944a.217.217,0,0,0-.173-.11" transform="translate(-539.839 -205.985)"/><path d="M571.189,225.5l3.5-1.863.061.084-3.692,2.054Z" transform="translate(-539.888 -205.541)" fill="#e6b32d" fill-rule="evenodd"/><path d="M571.023,225.8l.147-.306,3.5-1.868.074.087Zm3.648-2.158-3.485,1.866-.113.239,3.663-2.038Z" transform="translate(-539.879 -205.538)"/><path d="M576.181,223.4l.062-.038.033-.1.519-.129-.341.362-.154-.021-.064.037Z" transform="translate(-541.21 -205.412)" fill="#e6b32d" fill-rule="evenodd"/><path d="M576.222,223.512l-.061-.115.071-.043.028-.1.527-.137-.329.381-.163-.019Zm.56-.39-.508.148-.027.1-.066.04.055.082.054-.032.161.021Z" transform="translate(-541.205 -205.408)"/><path d="M576.258,223.681a1.008,1.008,0,0,0-.22-.358l-.177.129.175.3Z" transform="translate(-541.128 -205.461)" fill="#e6b32d" fill-rule="evenodd"/><path d="M576.029,223.759l-.18-.3.18-.144a.886.886,0,0,1,.235.364Zm0-.432-.163.131.174.274.212-.065a1.305,1.305,0,0,0-.224-.341" transform="translate(-541.125 -205.458)"/><path d="M574.292,221.878l-.073.127c-.045-.017-.5-.427-.5-.427l-.324-.01-.093-.1a.292.292,0,0,1,.462.036Z" transform="translate(-540.467 -204.954)" fill="#233189" fill-rule="evenodd"/><path d="M574.222,222.019l-.009,0c-.045-.017-.456-.387-.5-.429l-.317-.007-.1-.107c.2-.255.473.013.479.022l.525.374Zm-.713-.648a.275.275,0,0,0-.2.1l.093.088.317.006c.178.158.438.387.494.423l.068-.117-.523-.362a.367.367,0,0,0-.248-.139" transform="translate(-540.465 -204.955)" fill="#233189"/><path d="M574.03,222.125a1.148,1.148,0,0,0-.263-.407c-.16.048-.311.141-.473-.227.142.18.429,0,.429,0l.125.1,0,.05.377.349Z" transform="translate(-540.465 -204.987)" fill="#c00024" fill-rule="evenodd"/><path d="M574.018,222.14l0-.017a1.135,1.135,0,0,0-.223-.366.911.911,0,0,1,.242.346l.176-.124-.5-.485c0,.012-.315.149-.431,0,.207.379.309.265.434.223a.139.139,0,0,1,.036.01c-.275.095-.349.041-.471-.237.162.108.432-.016.433-.017l.137.1.372.4Z" transform="translate(-540.461 -204.984)" fill="#c00024"/><path d="M575.487,222.746l-.019.131c-.042-.023-.439-.46-.439-.46l-.32-.059-.065-.1c.222-.261.459.086.459.086Z" transform="translate(-540.813 -205.16)" fill="#233189" fill-rule="evenodd"/><path d="M575.474,222.895l-.014-.008c-.042-.023-.4-.418-.441-.462l-.315-.056-.073-.108c.192-.265.47.063.479.074l.382.4Zm-.653-.726a.224.224,0,0,0-.171.093l.065.089.313.054c.15.162.367.4.429.451l.016-.113-.381-.395s-.125-.18-.271-.18" transform="translate(-540.81 -205.16)" fill="#233189"/><path d="M575.229,223.007a1.159,1.159,0,0,0-.18-.491c-.191.056-.357.142-.427-.255.111.2.427.045.427.045l.105.12-.014.066.321.415Z" transform="translate(-540.808 -205.187)" fill="#c00024" fill-rule="evenodd"/><path d="M575.212,223.026l0-.019a1.114,1.114,0,0,0-.14-.426.924.924,0,0,1,.162.41l.217-.092-.329-.4.015-.071-.1-.11c0,.013-.341.11-.429-.047.11.417.241.3.39.252a.05.05,0,0,1,.028.011c-.294.1-.365.041-.419-.267.129.129.432.034.433.033l.123.126-.016.072.32.407Z" transform="translate(-540.804 -205.188)" fill="#c00024"/><path d="M576.3,224.121l-.073.144c-.037-.029-.371-.565-.371-.565l-.307-.1-.058-.125c.246-.229.432.166.432.166Z" transform="translate(-541.032 -205.481)" fill="#233189" fill-rule="evenodd"/><path d="M576.229,224.279l-.01-.008c-.038-.029-.34-.513-.373-.568l-.3-.1-.065-.131c.229-.253.446.143.453.157l.375.48Zm-.585-.869a.221.221,0,0,0-.148.068l.061.113.3.1c.128.2.315.5.364.556l.065-.131-.375-.47s-.111-.233-.268-.233" transform="translate(-541.029 -205.478)" fill="#233189"/><path d="M575.972,224.348a1.436,1.436,0,0,0-.087-.536c-.193.057-.354.073-.4-.323.111.188.409.117.409.117l.088.134-.018.047.254.487Z" transform="translate(-541.031 -205.504)" fill="#c00024" fill-rule="evenodd"/><path d="M575.954,224.364l0-.018a1.529,1.529,0,0,0-.082-.525.433.433,0,0,1-.154.033c-.143,0-.22-.113-.247-.364a.458.458,0,0,0,.418.105l.1.139.237.536Zm-.076-.562a1.237,1.237,0,0,1,.1.531l.232-.069-.329-.65a.378.378,0,0,1-.411-.12c.084.468.26.349.4.308" transform="translate(-541.027 -205.504)" fill="#c00024"/><path d="M571.263,226.958l.871-.27.381-.648,1.344-.066-.046.486-1.145.219-.109.2-1.317.366Z" transform="translate(-539.935 -206.145)" fill="#e6b32d" fill-rule="evenodd"/><path d="M571.225,227.25l.023-.3.878-.28.375-.643,1.352-.072-.035.5-1.154.229-.1.191Zm2.618-1.283-1.332.078-.372.643-.877.275-.013.257,1.3-.362.1-.191,1.152-.224Z" transform="translate(-539.931 -206.141)"/><path d="M572.5,226.84l1.376-2.025.067.052-1.365,2.032Z" transform="translate(-540.259 -205.846)" fill="#4d3509" fill-rule="evenodd"/><path d="M572.577,226.913l-.088-.066,1.373-2.039.082.049Zm1.289-2.091-1.361,2.022.065.039,1.359-2.024Z" transform="translate(-540.257 -205.844)"/><path d="M574.179,224.822l.148-.246a.087.087,0,0,1,.131-.028.094.094,0,0,1,.029.138l-.135.229Z" transform="translate(-540.693 -205.773)" fill="#fff" fill-rule="evenodd"/><path d="M574.354,224.926l-.182-.1.144-.261a.093.093,0,0,1,.08-.051c.09.033.106.052.113.076a.13.13,0,0,1-.015.1Zm.042-.389-.209.286.159.073.129-.22a.106.106,0,0,0,.013-.079Z" transform="translate(-540.691 -205.769)"/><path d="M572.276,225.761l2.778-.283.067.4-2.764.277Z" transform="translate(-540.202 -206.017)" fill="#e6b32d" fill-rule="evenodd"/><path d="M572.345,226.169l-.083-.41,2.787-.3.079.413Zm2.695-.692-2.766.292.089.376,2.753-.276Z" transform="translate(-540.199 -206.014)"/><path d="M576.043,225.339l.071.56H576l-.081-.513Z" transform="translate(-541.142 -205.981)" fill="#e6b32d" fill-rule="evenodd"/><path d="M576.123,225.907h-.128l-.092-.522.134-.06Z" transform="translate(-541.138 -205.978)"/><path d="M575.428,225.462l.032.5-.073.007-.058-.447Z" transform="translate(-540.99 -206.013)" fill="#e6b32d" fill-rule="evenodd"/><path d="M575.374,225.983l-.059-.458.1-.076.049.523Z" transform="translate(-540.986 -206.01)"/><path d="M572.884,225.754l.067.473-.135,0-.053-.469Z" transform="translate(-540.328 -206.088)" fill="#e6b32d" fill-rule="evenodd"/><path d="M572.96,226.235l-.148,0-.065-.479.133-.012Z" transform="translate(-540.324 -206.085)"/><path d="M572.243,225.772l.1.547-.154.023-.044-.288a.132.132,0,0,1-.129.1.127.127,0,1,1,0-.254.122.122,0,0,1,.116.084l-.029-.2Z" transform="translate(-540.1 -206.093)" fill="#e6b32d" fill-rule="evenodd"/><path d="M572.173,226.35l-.045-.3c.016.141-.261.113-.261-.028a.143.143,0,0,1,.269-.046l-.05-.2.152-.021.109.556Zm-.045-.3.063.278.143-.022-.106-.534-.131.018.039.193c-.094-.1-.248-.066-.248.043s.211.142.239.024" transform="translate(-540.097 -206.089)"/><path d="M573.666,225.892l.381.43-.044.052-.491-.335Z" transform="translate(-540.521 -206.124)" fill="#e6b32d" fill-rule="evenodd"/><path d="M574,226.386l-.5-.341.152-.165.4.438Zm-.348-.49-.138.148.482.312.037-.045Z" transform="translate(-540.519 -206.121)"/><path d="M574.784,227.168l-.383-.43.045-.052.49.335Z" transform="translate(-540.751 -206.329)" fill="#e6b32d" fill-rule="evenodd"/><path d="M574.777,227.181l-.395-.446.05-.059.505.333Zm-.342-.489.344.456.144-.139Z" transform="translate(-540.746 -206.326)"/><path d="M573.569,227.066l.465-.359.047.034-.367.464Z" transform="translate(-540.536 -206.334)" fill="#e6b32d" fill-rule="evenodd"/><path d="M573.715,227.217l-.155-.147.465-.375.063.05Zm.356-.487-.5.341.139.114Z" transform="translate(-540.534 -206.331)"/><path d="M574.929,226.018l-.471.347-.056-.043.37-.464Z" transform="translate(-540.751 -206.115)" fill="#e6b32d" fill-rule="evenodd"/><path d="M574.456,226.376l-.063-.048.367-.479.174.159Zm.3-.512-.353.463.048.036-.007-.009.471-.347Z" transform="translate(-540.749 -206.113)"/><path d="M574.333,225.688l-.045.565-.063,0-.15-.549Z" transform="translate(-540.666 -206.071)" fill="#e6b32d" fill-rule="evenodd"/><path d="M574.294,226.26l-.075,0-.159-.558.269-.026Zm.024-.576-.246.024.16.535.042,0Z" transform="translate(-540.663 -206.068)"/><path d="M574.214,227.335l.045-.565.069-.007.086.571Z" transform="translate(-540.702 -206.349)" fill="#e6b32d" fill-rule="evenodd"/><path d="M574.426,227.342h-.212l.034-.585.079-.007Zm-.108-.58-.093.57.176-.011Z" transform="translate(-540.702 -206.345)"/><path d="M573.372,226.508l.593.063.009.056-.6.079Z" transform="translate(-540.485 -206.283)" fill="#e6b32d" fill-rule="evenodd"/><path d="M573.36,226.719l0-.211.607.064.007.067Zm.007-.2.015.174.587-.076Z" transform="translate(-540.481 -206.283)"/><path d="M575.065,226.7l-.578-.091-.012-.045.6-.066Z" transform="translate(-540.77 -206.281)" fill="#e6b32d" fill-rule="evenodd"/><path d="M575.08,226.71l-.591-.093.1-.023.467.09.007-.19-.089.013.1-.023Z" transform="translate(-540.773 -206.277)"/><path d="M574.11,226.542a.157.157,0,1,0,.158-.151.155.155,0,0,0-.158.151" transform="translate(-540.675 -206.253)" fill="#e6b32d" fill-rule="evenodd"/><path d="M574.264,226.709a.166.166,0,0,1-.169-.162c0-.178.337-.18.337,0a.165.165,0,0,1-.168.162m0-.3a.143.143,0,0,0-.147.14c0,.154.292.156.292,0a.143.143,0,0,0-.145-.14" transform="translate(-540.672 -206.257)"/><path d="M573.2,226.316a.833.833,0,1,0,.833-.8.818.818,0,0,0-.833.8m.167,0a.666.666,0,1,0,.666-.642.654.654,0,0,0-.666.642" transform="translate(-540.441 -206.026)" fill="#e6b32d" fill-rule="evenodd"/><path d="M574.029,227.126a.815.815,0,1,1,.843-.815.83.83,0,0,1-.843.815m0-1.606a.792.792,0,1,0,.821.792.808.808,0,0,0-.821-.792m0,1.445a.654.654,0,1,1,.676-.654.666.666,0,0,1-.676.654m0-1.285a.632.632,0,1,0,.654.631.645.645,0,0,0-.654-.631" transform="translate(-540.437 -206.022)"/><path d="M571.2,225.526l-.143.726.116.062.126-.777Z" transform="translate(-539.886 -206.03)" fill="#e6b32d" fill-rule="evenodd"/><path d="M571.174,226.33l-.129-.069.137-.738.111,0Zm.107-.8h-.089l-.131.718.1.044Z" transform="translate(-539.884 -206.029)"/><path d="M571.242,225.344c.067-.027.152.019.293-.16.232.213.013.245-.022.455-.065.027-.105-.162-.284-.183l-.283-.025.065-.089s.182,0,.231,0" transform="translate(-539.859 -205.942)" fill="#fff" fill-rule="evenodd"/><path d="M571.5,225.652c-.027,0-.05-.027-.078-.06a.294.294,0,0,0-.2-.125l-.283-.025.057-.107.3-.014a.3.3,0,0,0,.229-.144c.175.145.13.212.073.3a.4.4,0,0,0-.075.165Zm-.49-.3-.056.085.277.008a.309.309,0,0,1,.208.133c.024.027.045.052.062.052v.011l.008-.013a.357.357,0,0,1,.071-.165c.056-.083.092-.139-.053-.272a.275.275,0,0,1-.228.151l-.115.013Z" transform="translate(-539.858 -205.939)"/><path d="M571.216,225.5l.027-.217c.027-.077.123-.011.123.034l-.024.2Z" transform="translate(-539.928 -205.959)" fill="#fff" fill-rule="evenodd"/><path d="M571.35,225.538l-.137-.018.019-.229a.177.177,0,0,1,.053-.017l-.059.237.106,0,.023-.19c0-.017-.024-.043-.05-.053h0c.047,0,.07.029.07.054Z" transform="translate(-539.928 -205.964)"/><path d="M573.394,227.979a.088.088,0,0,0,.046.077.1.1,0,0,0,.092,0,.088.088,0,0,0,0-.154.1.1,0,0,0-.092,0,.088.088,0,0,0-.046.076" transform="translate(-540.491 -206.64)" fill="#e6b32d" fill-rule="evenodd"/><path d="M573.708,227.756a.088.088,0,0,0,.046.077.1.1,0,0,0,.092,0,.088.088,0,0,0,0-.154.1.1,0,0,0-.092,0,.088.088,0,0,0-.046.076" transform="translate(-540.572 -206.583)" fill="#e6b32d" fill-rule="evenodd"/><path d="M574.134,227.9a.086.086,0,0,0,.045.076.1.1,0,0,0,.091,0,.087.087,0,0,0,0-.154.1.1,0,0,0-.091,0,.086.086,0,0,0-.045.077" transform="translate(-540.682 -206.62)" fill="#e6b32d" fill-rule="evenodd"/><path d="M574.788,228.044a.088.088,0,0,0,.045.076.1.1,0,0,0,.093,0,.089.089,0,0,0,.044-.076.09.09,0,0,0-.044-.077.1.1,0,0,0-.093,0,.089.089,0,0,0-.045.077" transform="translate(-540.85 -206.657)" fill="#e6b32d" fill-rule="evenodd"/><path d="M575.065,228.077a.088.088,0,0,0,.045.076.1.1,0,0,0,.091,0,.087.087,0,0,0,0-.153.1.1,0,0,0-.091,0,.088.088,0,0,0-.045.076" transform="translate(-540.922 -206.665)" fill="#e6b32d" fill-rule="evenodd"/><path d="M575.339,228.077a.088.088,0,0,0,.045.076.1.1,0,0,0,.091,0,.086.086,0,0,0,0-.153.1.1,0,0,0-.091,0,.088.088,0,0,0-.045.076" transform="translate(-540.993 -206.665)" fill="#e6b32d" fill-rule="evenodd"/><path d="M575.616,228.069a.089.089,0,0,0,.045.076.1.1,0,0,0,.091,0,.087.087,0,0,0,0-.154.1.1,0,0,0-.091,0,.089.089,0,0,0-.045.077" transform="translate(-541.064 -206.663)" fill="#e6b32d" fill-rule="evenodd"/><path d="M575.481,227.858a.088.088,0,0,0,.045.076.1.1,0,0,0,.091,0,.087.087,0,0,0,0-.153.1.1,0,0,0-.091,0,.087.087,0,0,0-.045.076" transform="translate(-541.029 -206.609)" fill="#e6b32d" fill-rule="evenodd"/><path d="M575.212,227.87a.088.088,0,0,0,.046.077.1.1,0,0,0,.092,0,.089.089,0,0,0,0-.154.1.1,0,0,0-.092,0,.088.088,0,0,0-.046.076" transform="translate(-540.96 -206.612)" fill="#e6b32d" fill-rule="evenodd"/><path d="M574.956,227.837a.089.089,0,0,0,.045.077.1.1,0,0,0,.093,0,.088.088,0,0,0,0-.154.1.1,0,0,0-.093,0,.088.088,0,0,0-.045.076" transform="translate(-540.894 -206.603)" fill="#e6b32d" fill-rule="evenodd"/><path d="M575.087,227.631a.089.089,0,0,0,.045.076.1.1,0,0,0,.091,0,.087.087,0,0,0,0-.154.1.1,0,0,0-.091,0,.089.089,0,0,0-.045.077" transform="translate(-540.928 -206.55)" fill="#e6b32d" fill-rule="evenodd"/><path d="M575.339,227.626a.089.089,0,0,0,.045.077.1.1,0,0,0,.091,0,.087.087,0,0,0,0-.154.1.1,0,0,0-.091,0,.089.089,0,0,0-.045.076" transform="translate(-540.993 -206.549)" fill="#e6b32d" fill-rule="evenodd"/><path d="M573.1,227.223c.078-.032.077.145.077.145h-.123c-.054.024-.1.1-.064.143s.269-.055.285-.005a.332.332,0,0,1-.475.227c-.112-.1-.141-.375.224-.447Z" transform="translate(-540.317 -206.467)" fill="#fff" fill-rule="evenodd"/><path d="M572.925,227.639a.207.207,0,0,1-.139-.045.255.255,0,0,1-.07-.249.349.349,0,0,1,.3-.217l.079-.065.042.005c.044.03.044.139.044.152l-.134.013a.134.134,0,0,0-.062.082c.017.052.085.04.128.033.083-.015.155-.027.168.009a.34.34,0,0,1-.237.263.353.353,0,0,1-.118.021m.088-.49a.329.329,0,0,0-.275.2.234.234,0,0,0,.062.226.247.247,0,0,0,.236.02.319.319,0,0,0,.221-.241c0-.013-.093,0-.142.012-.078.013-.122.022-.14,0,0-.1.029-.143.066-.16h.021Zm1.833-.151-.009-.02.764-.332Z" transform="translate(-540.314 -206.319)"/><path d="M577.229,226.1a2,2,0,0,1,.327.016c.021.007-.069.1-.05.137.07.134.542.115.579.086.064-.05-.44-.093-.443-.128s.073-.141.062-.2c-.016-.081-.22-.111-.22-.111Z" transform="translate(-541.481 -206.126)" fill="#c00024" fill-rule="evenodd"/><path d="M577.921,226.37c-.08,0-.347-.008-.4-.113-.013-.026.012-.065.033-.1,0-.041-.095-.047-.235-.047l.007-.009a.857.857,0,0,1,.26,0c-.029.09-.053.128-.045.142.063.122.537.1.563.083a.969.969,0,0,0-.243-.059c-.162-.028-.2-.038-.2-.059a.188.188,0,0,1,.027-.082.253.253,0,0,0,.036-.121c-.012-.06-.157-.094-.211-.1l-.065.053.06-.073c.03,0,.221.032.238.118a.255.255,0,0,1-.037.135.219.219,0,0,0-.025.07,1.355,1.355,0,0,0,.186.039c.177.031.255.047.262.076-.03.039-.125.045-.2.045" transform="translate(-541.503 -206.123)" fill="#c00024"/><path d="M576.727,226.326l.631-.521s.027-.03.05,0-.009.053-.009.053l-.649.536Z" transform="translate(-541.351 -206.098)" fill="#4d3509" fill-rule="evenodd"/><path d="M576.742,226.411l-.028-.079.633-.533.078.025Zm.647-.563-.658.489.013.045Z" transform="translate(-541.348 -206.1)"/><path d="M575.911,227.006c.01-.011.513-.446.513-.446l.033-.126s.077.053.106.079a.775.775,0,0,1,.073.1l-.141.006-.444.407Z" transform="translate(-541.14 -206.264)" fill="#e6b32d" fill-rule="evenodd"/><path d="M576.055,227.038l-.145-.022c0-.03.507-.465.507-.465l.03-.121c.023-.006.095.047.124.074a.8.8,0,0,1,.075.1l-.149.024Zm.4-.6-.016.121c0,.005-.5.436-.516.45l.128,0,.441-.4.138-.008c-.016-.01-.049-.062-.07-.083a1.235,1.235,0,0,0-.1-.079" transform="translate(-541.14 -206.263)"/><path d="M572.051,226.4l0,.2c.066.024.056.073.055.145l0,.588c.023.039.1.041.131.071s.029.09-.126.13l-.12,0c-.184-.041-.222-.1-.129-.136a.389.389,0,0,0,.137-.068l0-.141-.119,0c-.032,0-.093-.08-.1-.146v-.3c0-.174.134-.193.17-.191l0-.16Zm-.2.337c0-.049.068-.093.1-.095a.133.133,0,0,1,.093.108v.123c0,.045-.041.2-.113.21-.035.005-.079-.05-.079-.095Z" transform="translate(-540.073 -206.255)" fill="#e6b32d" fill-rule="evenodd"/><path d="M571.98,227.547h0c-.118-.026-.184-.062-.186-.1v-.008l.056-.047a.381.381,0,0,0,.133-.066l-.007-.133-.107.015c-.043,0-.1-.091-.108-.157v-.3a.181.181,0,0,1,.175-.2l-.007-.148.119-.01.007.213c.059.013.059.061.056.122l0,.611a.145.145,0,0,0,.064.032l.082.087c-.007.027-.038.065-.149.093Zm0-.367.016.151a.28.28,0,0,1-.128.073c-.057.06-.012.093.109.12l.119,0c.108-.027.128-.063.132-.076l-.068-.06a.142.142,0,0,1-.077-.047v-.594c0-.084,0-.116-.047-.134l0-.212-.1.01.013.148a.182.182,0,0,0-.17.191v.3c0,.063.062.135.085.135Zm-.06-.09a.108.108,0,0,1-.091-.106l0-.251c0-.056.075-.1.107-.106h0a.143.143,0,0,1,.1.118v.124c0,.034-.037.208-.122.221m.02-.441c-.025,0-.088.042-.088.084v.251c0,.04.038.084.063.084.063-.01.1-.147.106-.2v-.122a.129.129,0,0,0-.08-.1" transform="translate(-540.069 -206.251)"/><path d="M570.642,218.629c.958-.959,1.713-.491,1.893-.358-.119.023-.225-.051-.281-.059.035.044.107.152.107.152a1.691,1.691,0,0,0-.329-.127.537.537,0,0,1,.09.115c-.021.009-.188-.131-.222-.133a.431.431,0,0,1,.067.188l-.145-.068c-.038.027.01.079-.022.076a.954.954,0,0,0-.623.292Z" transform="translate(-539.78 -204.097)" fill="#2c6c1e" fill-rule="evenodd"/><path d="M571.183,218.711a.846.846,0,0,1,.614-.309l0,0,0,.024a.943.943,0,0,0-.613.288m-.536-.077-.016-.016c.943-.944,1.7-.513,1.907-.36a.29.29,0,0,1-.227-.019c-.017.006.056.114.056.114l-.008,0-.007,0a2.446,2.446,0,0,0-.319-.105c.047.016.094.1.1.1-.019.021-.044.006-.127-.05a.632.632,0,0,0-.1-.066c.062.041.077.171.078.176l-.157-.054.006-.022.138.065a.728.728,0,0,0-.072-.168c.025-.016.064.009.125.051a1.026,1.026,0,0,0,.088.058,1.008,1.008,0,0,0-.08-.09c.036-.031.231.056.318.1-.028-.027-.073-.093-.1-.125l-.025-.033.1.037a.383.383,0,0,0,.21.037,1.4,1.4,0,0,0-1.882.378" transform="translate(-539.778 -204.094)"/><path d="M570.962,218.958c.1-.229,1.923-.617,2.291.03-.143.036-.281-.121-.281-.121l.012.145-.244-.187.089.193-.194-.157.006.157-.237-.259.03.151-.211-.091.024.126Z" transform="translate(-539.863 -204.25)" fill="#2c6c1e" fill-rule="evenodd"/><path d="M572.647,219.013l-.255-.251.05.141-.227-.078.04.114-.047-.122.227.078-.046-.138.255.249-.024-.148.212.148-.106-.18.26.174-.029-.136a.438.438,0,0,0,.248.115.16.16,0,0,0,.042-.005c-.2-.326-.792-.347-1.125-.331a2.044,2.044,0,0,0-1.154.315l-.02-.008a2.02,2.02,0,0,1,1.172-.329c.342-.017.939.005,1.138.358-.151.054-.293-.1-.3-.108l.03.137-.261-.178.105.18-.211-.143Z" transform="translate(-539.859 -204.246)"/><path d="M571.071,219.059a1.645,1.645,0,0,1,1.191-.1c.463.259.709.212.769.693a1.043,1.043,0,0,1-.168-.169l-.094.187-.03-.265-.075.2-.112-.338-.026.229-.174-.229-.082.066-.075-.174-.068.114s-.119-.073-.188-.03l-.131-.151-.032.108-.111-.131-.044.1-.113-.1.007.072-.387.007Z" transform="translate(-539.891 -204.316)" fill="#2c6c1e" fill-rule="evenodd"/><path d="M572.776,219.67l-.051-.269-.055.208-.132-.338,0,.226-.194-.223-.065.068-.093-.18-.048.116a.5.5,0,0,0-.145-.039.088.088,0,0,0-.047.013l-.145-.154-.013.1-.131-.128-.024.094-.025-.02.022.007.026-.093.13.129.013-.1.15.147c.059-.049.18.024.185.027l.053-.111.095.176.064-.07.19.231.007-.223.133.335.055-.206.051.269.073-.191c.053.04.149.15.182.164-.059-.34-.2-.4-.464-.52a3.357,3.357,0,0,1-.313-.153,1.647,1.647,0,0,0-1.18.1l-.012-.018a1.664,1.664,0,0,1,1.2-.1c.12.067.223.113.313.153.26.115.418.185.462.549-.06-.007-.174-.145-.187-.161Z" transform="translate(-539.889 -204.313)"/><path d="M571.2,219.193a2.534,2.534,0,0,1,1.5.717c-.1-.053-.156-.079-.156-.079l-.048.149-.058-.149-.013.115c-.035-.089-.075-.1-.143-.007l-.024-.138-.038.132-.062-.144s-.039.157-.062.15c0,0-.1-.27-.149-.283l-.013.169-.062-.169-.056.126-.012-.18-.062.138s-.033-.136-.081-.162l-.094.084-.417-.3Z" transform="translate(-539.911 -204.395)" fill="#2c6c1e" fill-rule="evenodd"/><path d="M572.505,219.979l-.079-.148.007.111c-.038-.038-.053-.059-.07-.062a.171.171,0,0,0-.076.061l-.044-.142-.016.133-.083-.142a.22.22,0,0,1-.041.154,1.256,1.256,0,0,0-.164-.28v.159l-.083-.166-.036.127-.033-.184-.042.142c-.03-.039-.06-.138-.095-.157l-.083.082-.431-.3.431.281.081-.084c.062.027.095.154.1.168l.041-.141.033.185.036-.13.082.169-.007-.165c.063,0,.154.234.17.28,0-.014.025-.086.042-.149l.083.142.016-.131.047.139c.016-.056.045-.082.076-.073s.047.028.066.078l-.007-.111.079.145.027-.148c.019-.009.077.019.172.072a2.7,2.7,0,0,0-1.5-.7h-.007v-.022h.007a2.528,2.528,0,0,1,1.505.722c-.111-.038-.168-.062-.17-.062Z" transform="translate(-539.908 -204.391)"/><path d="M571.079,219.3a1.381,1.381,0,0,1,.792,1.016c-.192-.24-.151-.206-.237.069a1.057,1.057,0,0,0-.065-.27l-.056.179-.021-.234-.058,0,.014-.146-.085.066c.02-.083.042-.111-.048-.183,0,0,.114.014.025-.19l-.085.08s.015-.089-.014-.123l-.307-.106Z" transform="translate(-539.856 -204.422)" fill="#2c6c1e" fill-rule="evenodd"/><path d="M571.643,220.381c-.035-.093-.062-.246-.083-.266l-.039.174,0-.013,0,.008.035-.181c.051.025.081.231.087.272l.013-.118c.022-.079.033-.115.058-.12.047-.005.061.033.139.132a1.372,1.372,0,0,0-.779-.967l.007-.021a1.385,1.385,0,0,1,.8,1.028c-.1-.1-.145-.151-.161-.151h0c-.013,0-.025.047-.041.1Zm-.277-.4c.007-.1.013-.124-.062-.183.056-.049.067-.09.022-.194l-.066.084c-.015-.033-.01-.1-.031-.123l-.3-.1.315.086a.19.19,0,0,1,.021.135l.065-.09c.056.091.063.152.039.185a.193.193,0,0,1,.01.171l.062-.05v.023l0-.016Z" transform="translate(-539.854 -204.418)"/><path d="M570.966,219.357l.165.313-.085.024.188.142-.16-.016a.441.441,0,0,1,.274.329l-.249-.109a1.121,1.121,0,0,1,.24.345l-.144-.126a.526.526,0,0,1,.119.378l-.106-.119a.594.594,0,0,1-.11.513,1.19,1.19,0,0,0,0-.366l-.278.288.155-.41s-.173.26-.277.235l.219-.333-.216.174.245-.365-.228.069s.164-.208.152-.337l-.157.17a.815.815,0,0,0,.042-.252l-.08.016.155-.178-.1-.022.013-.117-.076-.024,0-.13Z" transform="translate(-539.786 -204.437)" fill="#2c6c1e" fill-rule="evenodd"/><path d="M571.108,221.034a1.794,1.794,0,0,0-.021-.364l-.262.288.126-.389c-.039.074-.162.236-.259.217l.212-.35-.2.19.228-.381-.215.086c-.01-.02.15-.223.139-.346l-.138.177a2.369,2.369,0,0,0,.024-.256l-.067.024.144-.2-.1,0,0-.13-.07-.013,0-.141.018.131.07.014-.006.128.1.01-.148.2.068-.034a.577.577,0,0,1-.029.266l.138-.181c.031.139-.129.343-.136.352l.216-.086-.232.381.2-.189-.2.348h0c.073,0,.211-.177.257-.248v0a.054.054,0,0,1-.009.03l-.125.388.26-.3c.056.042.028.32.022.375a.679.679,0,0,0,.088-.512l.125.11a.581.581,0,0,0-.135-.364h0c.01,0,.02.007.036.025l.122.084a1.623,1.623,0,0,0-.256-.329l.007,0h0l.251.088a.472.472,0,0,0-.282-.308h0s.007,0,.018,0l.144,0-.2-.123.088-.044-.172-.3.02-.01.165.313-.091.039.191.124-.145,0a.4.4,0,0,1,.264.317l-.25-.092a.793.793,0,0,1,.241.326l-.123-.088a.476.476,0,0,1,.1.344l-.125-.112a.534.534,0,0,1-.093.51m-.007-.372a.918.918,0,0,1-.118-.483,1.383,1.383,0,0,0-.191-.723l.017-.013a1.393,1.393,0,0,1,.2.735,1.247,1.247,0,0,0,.1.484" transform="translate(-539.784 -204.436)"/><path d="M572.368,228.126c0-.039.094-.022.094-.068s-.145-.013-.163.031c-.083-.073-.117-.019-.167,0a.144.144,0,0,0-.245-.024.159.159,0,0,0-.217.024.133.133,0,0,0-.211,0c-.023-.043-.056-.033-.079,0a.129.129,0,0,0-.2,0c-.041-.045-.082-.009-.138.024-.036-.035-.095-.029-.095.005s.076.024.076.059-.056.016-.056.056.084.042.1-.007a.084.084,0,0,0,.142-.017.1.1,0,0,0,.154-.007c.035.029.077.033.1,0a.128.128,0,0,0,.208-.022h.036a.112.112,0,0,0,.187,0,.159.159,0,0,0,.228,0c.067.082.169.076.194,0,.045.033.139.041.139,0s-.079-.023-.079-.057m-.2.018c0,.019.023.032.053.032s.054-.013.054-.032-.025-.032-.054-.032-.053.015-.053.032m-.225-.027c0,.021.029.039.064.039s.065-.017.065-.039-.029-.039-.065-.039-.064.018-.064.039m-.441.024c0,.022.026.039.059.039s.058-.017.058-.039-.026-.039-.058-.039-.059.017-.059.039m.234-.01a.054.054,0,0,0,.058.049.053.053,0,0,0,.056-.049.053.053,0,0,0-.056-.05.055.055,0,0,0-.058.05m-.5,0a.051.051,0,1,0,.051-.044.047.047,0,0,0-.051.044m.154.01a.033.033,0,0,0,.065,0,.033.033,0,0,0-.065,0m-.3.012a.04.04,0,0,0,.038.042.041.041,0,0,0,0-.082.04.04,0,0,0-.038.041" transform="translate(-539.859 -206.671)" fill="#e6b32d" fill-rule="evenodd"/><path d="M571.007,228.262H571l-.045-.039.057-.056-.077-.059.057-.007.042.065-.056.056.035.027.042-.045.071.033c.033,0,.065-.018.069-.04l.086.026a.085.085,0,0,0,.07-.038l.007-.011.107.014a.12.12,0,0,0,.191-.019l.035.016a.167.167,0,0,1-.242.018l-.089-.011.009.007a.11.11,0,0,1-.171.007c.012.033-.033.053-.071.053h-.007l-.065-.039c.013.024-.01.041-.042.041m1.214-.014a.158.158,0,0,1-.119-.063c-.021.044-.119.075-.226,0,0,.038-.095.119-.185,0,.168.07.165.015.183-.018.113.053.154.062.229,0,.086.072.17.071.191.005a.472.472,0,0,0,.1.02l-.044-.072.06-.045,0,.024.044.078c-.091.036-.131.024-.157.007,0,.036-.033.061-.077.061m-.763-.109h-.087l.049-.039-.055-.012c-.053-.089-.142-.044-.182,0a.121.121,0,0,0-.121.014l-.033,0,.016,0a.139.139,0,0,1,.088-.048c.124-.011.211-.04.251.03.2-.073.215-.072.29,0,.016-.061.168-.08.217-.023.063-.09.176-.079.246.024l.08-.045a.13.13,0,0,1,.085.041c0-.031.068-.059.116-.059l0,.032c-.056,0-.1.019-.111.039a.242.242,0,0,0-.088-.031l-.1.035a.134.134,0,0,0-.229-.022.167.167,0,0,0-.216.022c-.1-.063-.147-.066-.212,0l-.01.013-.026-.006Z" transform="translate(-539.855 -206.667)"/><path d="M570.642,225.184s.146-1.227.146-1.755c0-.416-.1-1.338-.1-1.338h-.421s-.065.916-.055,1.332c.012.528.146,1.761.146,1.761Z" transform="translate(-539.669 -205.143)" fill="#e6b32d" fill-rule="evenodd"/><path d="M570.648,225.191h-.295c-.013-.022-.145-1.25-.157-1.772-.01-.411.054-1.324.055-1.332l.432-.01a12.958,12.958,0,0,1,.111,1.349c0,.522-.145,1.744-.146,1.757Zm-.386-3.093c.01,0-.054.911-.044,1.32.012.522.145,1.749.147,1.761l.263-.01c.014-.115.145-1.247.145-1.744,0-.411-.1-1.327-.1-1.337Z" transform="translate(-539.665 -205.139)"/><path d="M570.247,222.056h.49l-.058-.329h-.354Z" transform="translate(-539.678 -205.049)" fill="#e6b32d" fill-rule="evenodd"/><path d="M570.749,222.063h-.5l.067-.343.365-.009Zm-.081-.338-.344.01-.068.32.466-.013Z" transform="translate(-539.678 -205.045)"/><path d="M570.29,221.7h.436l-.082-.329h-.269Z" transform="translate(-539.69 -204.957)" fill="#e6b32d" fill-rule="evenodd"/><path d="M570.741,221.708h-.451l.075-.343.279-.009Zm-.108-.338-.257.009-.074.32.411-.013Z" transform="translate(-539.69 -204.953)"/><path d="M570.327,221.341h.365l-.062-.329H570.4Z" transform="translate(-539.699 -204.865)" fill="#e6b32d" fill-rule="evenodd"/><path d="M570.705,221.349h-.378l.061-.343.243-.009Zm-.086-.338-.221.009-.06.32.341-.013Z" transform="translate(-539.699 -204.861)"/><path d="M570.655,220.959H570.4l-.026.119h.3Z" transform="translate(-539.711 -204.851)" fill="#e6b32d" fill-rule="evenodd"/><path d="M570.727,224.546h-.459l.459-.022Zm.024-.266h-.482l.482-.023Zm0-.266h-.505l.505-.022Zm.021-.243h-.55l.55-.022Zm0-.221H570.2l.574-.022Zm0-.266H570.2l.574-.022Zm-.019-.264H570.2l.555-.022Zm-.026-.268h-.5l.5-.022Zm-.025-.242h-.452l.452-.022Z" transform="translate(-539.666 -205.246)"/><path d="M570.412,226.124c-.31,0-.562.116-.562.26a.134.134,0,0,0,.021.07.836.836,0,0,0,.543.135.924.924,0,0,0,.527-.119.145.145,0,0,0,.032-.085c0-.143-.252-.26-.561-.26" transform="translate(-539.576 -206.184)" fill="#233189" fill-rule="evenodd"/><path d="M570.409,226.6a.848.848,0,0,1-.554-.14l-.023-.079c0-.151.258-.274.576-.274s.574.122.574.274a.155.155,0,0,1-.033.093.925.925,0,0,1-.539.125m0-.464c-.3,0-.548.112-.548.246.161.266.9.218,1.068.075a.123.123,0,0,0,.027-.075c0-.134-.251-.246-.547-.246" transform="translate(-539.571 -206.179)" fill="#233189"/><path d="M570.979,226.5v.872c0,.1-.254.185-.565.185s-.563-.083-.563-.185V226.5c0,.1.252.185.563.185s.565-.083.565-.185" transform="translate(-539.576 -206.281)" fill="#e6b32d" fill-rule="evenodd"/><path d="M570.41,227.568c-.322,0-.575-.086-.575-.2V226.5c.023.084.245.174.575.174s.553-.091.553-.174a.052.052,0,0,1,0,.024l.023.848c0,.11-.254.2-.577.2m-.575-1.064.023.868c0,.084.222.174.552.174s.553-.09.553-.174v-.844c-.02.1-.257.169-.553.169-.318,0-.569-.085-.575-.193" transform="translate(-539.572 -206.281)"/><path d="M569.851,226.5v.134l.274.844.219-.65.239.675.177-.637.22.427v-.237l-.2-.415c-.023.007-.047.012-.074.017l-.127.471-.179-.445-.088,0-.178.448-.206-.539c-.047-.027-.073-.058-.073-.09" transform="translate(-539.576 -206.281)" fill="#c00024" fill-rule="evenodd"/><path d="M570.58,227.54l-.251-.708-.2.65-.3-.845V226.5a.262.262,0,0,0,.089.081l.21.545.158-.447.1,0,.191.452.107-.47.082-.024.217.421v.242l-.241-.422Zm-.74-1.016.018.109.274.842.2-.651.248.643.168-.6.241.425-.021-.231-.2-.41-.062.022-.119.463-.2-.444-.079,0-.168.441-.226-.539a.133.133,0,0,1-.07-.07" transform="translate(-539.572 -206.281)" fill="#c00024"/><path d="M570.979,227.455v.163c0,.1-.254.185-.565.185s-.563-.083-.563-.185v-.163c0,.1.252.185.563.185s.565-.083.565-.185" transform="translate(-539.576 -206.527)" fill="#233189" fill-rule="evenodd"/><path d="M570.41,227.814c-.322,0-.575-.086-.575-.2v-.163c.023.084.245.174.575.174s.554-.091.554-.174v.009l.022.154c0,.11-.254.2-.577.2m-.572-.339.02.143c0,.084.222.174.552.174s.554-.09.554-.174v-.136c-.021.1-.257.169-.554.169s-.544-.076-.572-.177" transform="translate(-539.572 -206.527)" fill="#233189"/><path d="M570.873,227.683c-.045.007-.094.012-.145.015v.162a1.417,1.417,0,0,0,.146-.014Z" transform="translate(-539.803 -206.586)" fill="#e6b32d" fill-rule="evenodd"/><path d="M570.113,227.644l0,.163a1.18,1.18,0,0,0,.146.03v-.162a.983.983,0,0,1-.145-.03" transform="translate(-539.644 -206.576)" fill="#e6b32d" fill-rule="evenodd"/><path d="M569.851,227.456v.162c0,.03.022.059.062.084l0-.161c-.042-.026-.065-.054-.065-.085" transform="translate(-539.576 -206.528)" fill="#e6b32d" fill-rule="evenodd"/><path d="M571.335,227.48h0a.179.179,0,0,1-.1.09v.162c.067-.03.106-.067.106-.107Z" transform="translate(-539.932 -206.534)" fill="#e6b32d" fill-rule="evenodd"/><path d="M570.41,227.566c-.323,0-.575-.086-.575-.2V226.5l.023.866c0,.084.222.174.552.174a1.126,1.126,0,0,0,.461-.08l-.013-.148c.062-.036.094-.065.1-.093h0V226.5c0-.013.023-.013.023,0v.866h0a.1.1,0,0,1-.044.075.942.942,0,0,1-.532.119" transform="translate(-539.572 -206.28)"/><path d="M570.894,226.385c0,.062-.194.112-.436.112s-.436-.05-.436-.112.2-.112.436-.112.436.05.436.112" transform="translate(-539.62 -206.222)" fill="#fff" fill-rule="evenodd"/><path d="M570.455,226.505c-.219,0-.446-.045-.446-.122,0-.151.892-.159.892,0,0,.079-.23.122-.446.122m0-.225c-.251,0-.427.054-.427.1s.175.1.427.1.427-.054.427-.1-.175-.1-.427-.1" transform="translate(-539.617 -206.221)" fill="#fff"/><path d="M570.419,226.535l.018.154c.038,0,.077,0,.118.005l.029-.16Z" transform="translate(-539.723 -206.29)" fill="#e6b32d" fill-rule="evenodd"/><path d="M571.062,226.485l-.113.031.007.145a.9.9,0,0,0,.108-.023Z" transform="translate(-539.86 -206.277)" fill="#e6b32d" fill-rule="evenodd"/><path d="M570.171,226.167a.7.7,0,0,0-.09.033l.016.116.073-.022Z" transform="translate(-539.636 -206.195)" fill="#e6b32d" fill-rule="evenodd"/><path d="M570.592,226.106h-.045l.025.145h.073l.029-.142c-.026,0-.055,0-.082,0" transform="translate(-539.756 -206.179)" fill="#e6b32d" fill-rule="evenodd"/><path d="M571.047,226.175l-.015.128.086.03.008-.125a.565.565,0,0,0-.079-.033" transform="translate(-539.881 -206.197)" fill="#e6b32d" fill-rule="evenodd"/><path d="M569.935,226.56l.023-.159-.116-.063,0,.181Z" transform="translate(-539.574 -206.239)" fill="#e6b32d" fill-rule="evenodd"/><path d="M571.33,226.536l0-.16-.108.033Z" transform="translate(-539.931 -206.249)" fill="#e6b32d" fill-rule="evenodd"/><path d="M568.551,225.147a.341.341,0,0,0-.493,0,.1.1,0,0,1-.012-.045c0-.082.115-.15.258-.15s.258.068.258.15a.1.1,0,0,1-.012.045" transform="translate(-539.111 -205.882)" fill="#2c6c1e" fill-rule="evenodd"/><path d="M568.546,225.153c-.064-.116-.408-.114-.467,0a.2.2,0,0,1-.008-.056c.054-.057.392-.095.487.021l0-.016c0-.137-.428-.158-.483-.029.038-.2.512-.136.512.029l-.019.03,0,.007-.012.007v-.006l0,0-.009,0,.009,0Z" transform="translate(-539.117 -205.88)" fill="#fff"/><path d="M568.542,225.409a.232.232,0,1,1-.449,0v-.157h.449Z" transform="translate(-539.122 -205.959)" fill="#2c6c1e" fill-rule="evenodd"/><path d="M568.312,225.712a.282.282,0,0,1-.243-.309v-.157l.467-.018.019.175a.282.282,0,0,1-.243.309m.206-.466-.431.018.018.139a.215.215,0,1,0,.413,0Z" transform="translate(-539.116 -205.953)" fill="#fff"/><path d="M568.541,225.146c0,.061-.1.111-.223.111s-.223-.05-.223-.111.1-.111.223-.111.223.049.223.111" transform="translate(-539.123 -205.903)" fill="#fff" fill-rule="evenodd"/><path d="M568.313,225.21l-.039-.407h.171l-.027.407Z" transform="translate(-539.169 -205.843)" fill="#2c6c1e" fill-rule="evenodd"/><path d="M568.424,225.217h-.114l-.05-.417.182-.013Z" transform="translate(-539.165 -205.839)" fill="#e6b32d"/><path d="M568.551,225.193a.341.341,0,0,1-.493,0,.1.1,0,0,0-.012.045c0,.082.115.149.258.149s.258-.067.258-.149a.1.1,0,0,0-.012-.045" transform="translate(-539.111 -205.944)" fill="#2c6c1e" fill-rule="evenodd"/><path d="M568.3,225.4c-.154,0-.272-.072-.272-.164l.023,0c.066.17.443.145.487.022-.015.092-.117.138-.238.138m0-.088a.355.355,0,0,1-.22-.066c.144.032.4.04.452-.06a.18.18,0,0,1,.008.054.38.38,0,0,1-.24.072" transform="translate(-539.106 -205.941)" fill="#fff"/><path d="M568.158,226.185l.45.046.071-.4-.53-.053Z" transform="translate(-539.137 -206.094)" fill="#e6b32d" fill-rule="evenodd"/><path d="M568.619,226.236l-.463-.036,0-.022.45.046.059-.392-.521-.041.533.032Z" transform="translate(-539.136 -206.098)"/><path d="M568.3,225.754l-.067.473.135,0,.053-.469Z" transform="translate(-539.158 -206.088)" fill="#e6b32d" fill-rule="evenodd"/><path d="M568.212,226.235l.069-.486.132-.01-.042.481Z" transform="translate(-539.153 -206.085)"/><path d="M572.839,225.178c.1-.015.255.126.263.3.007.139-.208.131-.208.131-.01.056-.13.109-.227.113s.026-.177.026-.177a.53.53,0,0,1,.019-.339Z" transform="translate(-540.294 -205.939)" fill="#e6b32d" fill-rule="evenodd"/><path d="M572.672,225.73a.091.091,0,0,1-.021-.03c.139.012.227-.049.236-.1.013-.009.131-.006.184-.059a.325.325,0,0,0-.1-.31.186.186,0,0,0-.128-.049l-.126.028a.589.589,0,0,0-.017.31l.311,0-.151.026-.078-.013-.081.012a.394.394,0,0,0-.056.142.215.215,0,0,1,.041-.151.5.5,0,0,1,.018-.337l.136-.035a.192.192,0,0,1,.145.053.368.368,0,0,1,.131.257.109.109,0,0,1-.031.086.283.283,0,0,1-.189.057c0,.053-.125.108-.225.113" transform="translate(-540.297 -205.936)"/><path d="M572.866,225.252c.084-.061.01-.182-.047-.184l-.135,0c-.064,0-.173.071-.158.131a.081.081,0,0,0,.1.066c.024,0,.076-.069.1-.07s.108.072.135.053" transform="translate(-540.266 -205.911)" fill="#c00024" fill-rule="evenodd"/><path d="M572.6,225.279a.089.089,0,0,1-.091-.077c.05-.108.119-.143.168-.145l.135,0a.116.116,0,0,1,.091.087.1.1,0,0,1-.037.117.127.127,0,0,1-.088-.025Zm.212-.2-.135,0a.2.2,0,0,0-.132.071c0,.087.018.106.055.106v.011l.125-.084.123.057a.08.08,0,0,0,.034-.094c-.013-.038-.044-.071-.07-.071" transform="translate(-540.263 -205.908)" fill="#e6b32d"/><path d="M570.54,218.123c-.085-.041-.278-.162-.22-.235l.088-.15c.125-.28,0-.172-.016-.26s.476-.019.484.172a.863.863,0,0,0-.03.323l-.094.18a.429.429,0,0,1-.211-.03" transform="translate(-539.694 -203.943)" fill="#233189" fill-rule="evenodd"/><path d="M570.7,218.157a.419.419,0,0,1-.171-.032c-.055-.027-.216-.119-.234-.2l.1-.2c.078-.177.053-.188.026-.2l-.036-.076c.086-.1.492.013.5.2a.906.906,0,0,0-.03.322l-.095.185Zm-.223-.712c-.047,0-.071.009-.077.016.072.062.094.089.013.273l-.089.151c.008.1.149.188.216.22a.381.381,0,0,0,.16.031v.011l.045-.013.085-.174a.727.727,0,0,1,.023-.286c0-.161-.246-.229-.376-.229" transform="translate(-539.691 -203.934)" fill="#233189"/><path d="M570.658,219l-.122-.1.033-.877.119.035Z" transform="translate(-539.753 -204.092)" fill="#e6b32d" fill-rule="evenodd"/><path d="M570.665,219.021l-.139-.116.03-.887.133.025Zm-.1-.992-.019.867.1.079.03-.923Z" transform="translate(-539.75 -204.092)"/><path d="M570.756,218.246a.212.212,0,0,0,.079-.257c-.125-.16-.206-.094-.417-.165-.041.044-.129.131-.111.194.277.131.17.02.261.036.049.009.081.068.187.192" transform="translate(-539.694 -204.042)" fill="#c00024" fill-rule="evenodd"/><path d="M570.752,218.262l-.076-.093c-.053-.064-.078-.1-.111-.1l-.077.029a.557.557,0,0,1-.186-.065c-.024-.07.046-.147.094-.2.1.007.157.015.206.022a.3.3,0,0,1,.242.128.184.184,0,0,1,.013.137.233.233,0,0,1-.1.137Zm-.182-.217c.04.007.068.042.123.11l.064.079a.208.208,0,0,0,.077-.119.157.157,0,0,0-.009-.118.286.286,0,0,0-.227-.119.894.894,0,0,1-.185-.041c-.043.056-.11.131-.1.181a.6.6,0,0,0,.171.057Z" transform="translate(-539.691 -204.044)" fill="#c00024"/><path d="M564.274,227.644c-.077.01-.091.1-.062.178-.332.093-.628.214-.921.3-.011-.059.145-.228.145-.228.042.019.072.114.072.114a.481.481,0,0,1,.2-.324,1.058,1.058,0,0,0-.5.174.539.539,0,0,1,.155,0,1.764,1.764,0,0,0-.277.37c.042.093.5.162.5.162-.006.024-.134.115-.134.115a.766.766,0,0,0,.536-.166.786.786,0,0,1-.38-.153s.035.084.015.124a1.087,1.087,0,0,1-.287-.118s.613-.162.909-.247c.01.053.07.153.141.13.046-.016.032-.107.014-.171a.094.094,0,0,0,.062.022.092.092,0,0,0,.094-.09.093.093,0,0,0-.094-.091.1.1,0,0,0-.09.062c-.011-.056-.042-.167-.1-.16m.233.189a.045.045,0,0,1-.045.043.043.043,0,0,1-.043-.043.043.043,0,0,1,.043-.043.044.044,0,0,1,.045.043" transform="translate(-537.83 -206.576)" fill="#e6b32d" fill-rule="evenodd"/><path d="M563.521,228.518a.356.356,0,0,1-.076-.007c.055-.062.12-.116.125-.128-.042,0-.453-.06-.5-.154a.968.968,0,0,1,.19-.282,1.967,1.967,0,0,0-.168.279c.032.065.363.13.487.148,0,.039-.089.108-.128.136l.068-.013a.813.813,0,0,0,.451-.168.561.561,0,0,1-.356-.125.126.126,0,0,1,.012.106.837.837,0,0,1-.306-.116c0-.017,0-.017.275-.09.2-.054.473-.126.642-.174.021.051.067.133.122.133s.048-.072.024-.161c.126.009.157-.026.157-.071,0-.079-.135-.1-.163-.025-.041-.1-.072-.153-.1-.153-.074.064-.074.114-.057.164l-.5.172c-.147.05-.289.1-.431.139-.026-.07.117-.228.134-.246.058.019.088.108.091.119a.405.405,0,0,1,.172-.32c-.019.042-.163.16-.172.324-.03-.022-.057-.091-.088-.1-.047.061-.138.177-.13.215.128-.048.269-.1.416-.148s.318-.11.49-.158a.13.13,0,0,1,0-.135l.068-.043h0c.063,0,.094.091.11.168-.015-.1.184-.07.184.031a.1.1,0,0,1-.105.1l-.069-.025c.038.063.05.156,0,.174h-.006a.167.167,0,0,1-.149-.139c-.155.057-.425.129-.628.183-.147.039-.257.068-.266.072.022.013.186.068.285.1a.374.374,0,0,0-.028-.109l.007,0,.008.005a.951.951,0,0,0,.375.128.693.693,0,0,1-.463.2m-.315-.654a.859.859,0,0,1,.481-.2l0,.005a1.64,1.64,0,0,0-.456.171.345.345,0,0,1,.077-.007l0,.016-.1.013" transform="translate(-537.827 -206.573)"/><path d="M577.4,227.91a.943.943,0,0,0-.02-.273c-.047.005-.109.084-.109.084a.856.856,0,0,0-.107-.5,1.661,1.661,0,0,1,.507.452.952.952,0,0,0-.19-.052c.027.186.157.272.2.369,0,0-.213.047-.191.225l-.14,0c-.047-.059.019-.157.019-.157l-.955-.4c-.062-.026-.2-.088-.18-.163s.248.031.3.05Z" transform="translate(-541.223 -206.467)" fill="#e6b32d" fill-rule="evenodd"/><path d="M577.341,228.231l0,0c-.052-.065.016-.165.019-.17l-.95-.384c-.052-.022-.211-.089-.186-.177a.4.4,0,0,1,.061-.012c-.052.064.006.114.134.168l.955.4c0,.017-.053.1-.017.157l.133,0c-.033-.174.187-.224.189-.224a.412.412,0,0,1-.073-.079.553.553,0,0,1-.14-.278.63.63,0,0,1,.2.039,2.176,2.176,0,0,0-.511-.43.715.715,0,0,1,.126.459.146.146,0,0,1,.089-.067.675.675,0,0,1,.032.289l-.871-.358a.95.95,0,0,0-.247-.074.452.452,0,0,1,.215.039l.9.378a2.13,2.13,0,0,0-.036-.26.554.554,0,0,0-.089.088v-.005a.024.024,0,0,1,0-.018,1.076,1.076,0,0,0-.129-.477,1.383,1.383,0,0,1,.528.443c-.054,0-.164-.038-.194-.038a.6.6,0,0,0,.14.255.689.689,0,0,1,.069.1c-.016.018-.211.062-.191.229Z" transform="translate(-541.219 -206.469)"/><path d="M576.518,227.827l.111-.206c.041-.055-.042-.114-.1-.045l-.126.188c-.055.1.062.132.116.062" transform="translate(-541.263 -206.551)" fill="#e6b32d" fill-rule="evenodd"/><path d="M576.441,227.872l-.059-.03a.083.083,0,0,1,.007-.087l.129-.194.066-.032.05.093-.111.206a.1.1,0,0,1-.083.044" transform="translate(-541.26 -206.547)"/><path d="M567.431,228.482l-.007-.226-.272.016-.016.246Z" transform="translate(-538.876 -206.734)" fill="#fff" fill-rule="evenodd"/><path d="M567.12,228.527l.017-.259.283-.025.019.236Zm.289-.273-.261.026,0,.222.282-.033Z" transform="translate(-538.871 -206.731)"/><path d="M564.722,228.772l-.364-.2a3.85,3.85,0,0,0,2.172-.414c.223-.018.257.247-.176.121l.112.277a3.329,3.329,0,0,1-2.114.352Z" transform="translate(-538.157 -206.708)" fill="#fff" fill-rule="evenodd"/><path d="M564.886,228.971a2.348,2.348,0,0,1-.538-.06l.369-.153-.365-.184c.178-.007.338,0,.482,0a2.665,2.665,0,0,0,1.353-.312.946.946,0,0,1,.342-.125h0c.115,0,.17.049.17.1s-.12.114-.351.047l.125.262a3.427,3.427,0,0,1-1.589.427m-.53-.4.369.184-.371.152a4.777,4.777,0,0,0,.531.038,3.634,3.634,0,0,0,1.574-.41l-.116-.263c.241.02.335,0,.335-.04s-.049-.075-.128-.075a.912.912,0,0,0-.355.124,2.96,2.96,0,0,1-1.84.291" transform="translate(-538.156 -206.704)"/><path d="M573.671,228.482l.007-.226.333.008.016.246Z" transform="translate(-540.562 -206.734)" fill="#fff" fill-rule="evenodd"/><path d="M574.038,228.522l-.369-.029,0-.237.344,0Zm-.039-.257-.323,0,0,.214.335.016Z" transform="translate(-540.561 -206.733)"/><path d="M575.733,228.716l.342-.187c-1.72.051-1.329-.283-2.189-.376-.222-.024-.39.262.174.121l-.111.277h.271a2.579,2.579,0,0,0,1.9.3Z" transform="translate(-540.564 -206.707)" fill="#fff" fill-rule="evenodd"/><path d="M575.533,228.919h0a2.426,2.426,0,0,1-1.324-.363l-.265,0,.1-.292a.607.607,0,0,1-.245.053c-.05,0-.137-.016-.137-.068s.085-.116.191-.116a1.719,1.719,0,0,1,.651.177,2.864,2.864,0,0,0,1.566.2l-.337.208.385.111a1.763,1.763,0,0,1-.586.086m-1.318-.383a2.641,2.641,0,0,0,1.9.3l-.388-.11.341-.207a1.568,1.568,0,0,1-.329.026,2.43,2.43,0,0,1-1.241-.208,1.638,1.638,0,0,0-.615-.173c-.114.016-.2.056-.2.092s.074.046.115.046a1.083,1.083,0,0,0,.252-.039l-.1.292Z" transform="translate(-540.56 -206.704)"/><path d="M567.044,228.319v.389a10.123,10.123,0,0,0,5.312,0v-.389a10.778,10.778,0,0,1-5.312,0" transform="translate(-538.852 -206.75)" fill="#fff" fill-rule="evenodd"/><path d="M569.7,229.07a8.417,8.417,0,0,1-2.66-.355l-.007-.4a7.654,7.654,0,0,0,2.666.321,7.25,7.25,0,0,0,2.652-.332l.015.4a7.927,7.927,0,0,1-2.667.366m-2.644-.366a8.914,8.914,0,0,0,2.644.343,8.363,8.363,0,0,0,2.653-.353l-.007-.378a6.659,6.659,0,0,1-2.646.343,7.27,7.27,0,0,1-2.66-.334l.015.379Z" transform="translate(-538.848 -206.747)"/><path d="M567.236,228.747l.085-.285.038.011-.074.251.146.039-.01.033Zm.277-.125,0-.056.013-.048.042.01-.013.047-.023.052Zm.41-.019.041.007-.036.168a.2.2,0,0,1-.024.068.091.091,0,0,1-.047.035.15.15,0,0,1-.073,0,.14.14,0,0,1-.065-.028.083.083,0,0,1-.03-.047.2.2,0,0,1,0-.076l.035-.168.04.008-.036.167a.219.219,0,0,0,0,.058.049.049,0,0,0,.02.032.087.087,0,0,0,.041.019.09.09,0,0,0,.067-.007.113.113,0,0,0,.034-.07Zm.045.309.049-.292.042.007.12.254.039-.23.038.007-.05.292-.041-.006-.12-.255-.039.23Zm.315.047.042-.293.039,0-.042.294Zm.114-.13a.159.159,0,0,1,.055-.11.145.145,0,0,1,.11-.03.147.147,0,0,1,.073.028.117.117,0,0,1,.045.06.162.162,0,0,1,.009.081.172.172,0,0,1-.028.079.129.129,0,0,1-.059.047.159.159,0,0,1-.076.01.156.156,0,0,1-.076-.028.131.131,0,0,1-.043-.061.147.147,0,0,1-.01-.076m.042.005a.117.117,0,0,0,.02.088.107.107,0,0,0,.149.016.13.13,0,0,0,.039-.085.15.15,0,0,0,0-.064.094.094,0,0,0-.032-.045.1.1,0,0,0-.053-.021.108.108,0,0,0-.077.02.126.126,0,0,0-.042.091m.285.174.025-.295.042,0,.141.245.02-.232.039,0-.026.3-.041,0-.142-.245-.019.232Zm.43.03.013-.3.207.009v.035l-.166-.007,0,.091.145.007v.035l-.145-.007-.006.134Zm.226.01.125-.294h.044l.12.3h-.047l-.035-.09-.128,0-.035.089Zm.091-.12.1,0-.03-.082a.6.6,0,0,1-.021-.062.236.236,0,0,1-.019.056Zm.237-.171h.041v.3h-.041Zm.189.295,0-.261h-.1v-.035l.245,0v.035h-.1l0,.262Zm.3-.007-.015-.3h.041l.013.26.152-.007,0,.036Zm.207-.009.1-.3.043,0,.148.287-.047,0-.042-.088-.129.009-.026.092Zm.079-.128.1-.007-.039-.08c-.011-.024-.02-.043-.026-.059a.429.429,0,0,1-.012.059Zm.361.093-.035-.295.207-.022,0,.035-.165.018.01.091.143-.015,0,.035-.143.015.016.134Zm.224-.169a.157.157,0,0,1,.025-.12.141.141,0,0,1,.1-.056.148.148,0,0,1,.079.01.123.123,0,0,1,.059.047.159.159,0,0,1,.03.076.169.169,0,0,1-.007.082.134.134,0,0,1-.044.061.168.168,0,0,1-.071.027.142.142,0,0,1-.079-.009.126.126,0,0,1-.059-.047.158.158,0,0,1-.03-.071m.042-.005a.116.116,0,0,0,.042.079.1.1,0,0,0,.078.021.1.1,0,0,0,.071-.042.124.124,0,0,0,.016-.091.163.163,0,0,0-.022-.061.1.1,0,0,0-.1-.043.1.1,0,0,0-.069.038.12.12,0,0,0-.016.1m.323.1-.056-.292.134-.024a.219.219,0,0,1,.064,0,.064.064,0,0,1,.038.023.078.078,0,0,1,.021.041.075.075,0,0,1-.011.056.1.1,0,0,1-.06.039.132.132,0,0,1,.028.011.193.193,0,0,1,.04.033l.067.07-.049.008-.053-.053-.036-.036a.066.066,0,0,0-.025-.015.054.054,0,0,0-.019-.005l-.023,0-.047.007.024.13Zm.008-.169.086-.016a.135.135,0,0,0,.042-.013.035.035,0,0,0,.021-.022.039.039,0,0,0,0-.027.044.044,0,0,0-.021-.031.075.075,0,0,0-.052-.005l-.1.018Zm.486-.033h.042a.122.122,0,0,1-.029.081.126.126,0,0,1-.072.042.16.16,0,0,1-.085,0,.126.126,0,0,1-.058-.045.2.2,0,0,1-.035-.074.171.171,0,0,1,0-.082.117.117,0,0,1,.039-.062.163.163,0,0,1,.068-.033.129.129,0,0,1,.081.006.124.124,0,0,1,.056.053l-.036.018a.092.092,0,0,0-.042-.039.076.076,0,0,0-.052,0,.11.11,0,0,0-.056.028.084.084,0,0,0-.021.05.154.154,0,0,0,0,.058.2.2,0,0,0,.026.062.087.087,0,0,0,.045.033.109.109,0,0,0,.053,0,.094.094,0,0,0,.052-.031.092.092,0,0,0,.019-.062m.113.08-.082-.286.213-.057.01.033-.175.047.026.088.164-.045.01.033-.164.045.027.1.181-.048.01.033Z" transform="translate(-538.901 -206.787)"/></g></g></g></svg>