<svg xmlns="http://www.w3.org/2000/svg" xmlns:xlink="http://www.w3.org/1999/xlink" width="36" height="36" viewBox="0 0 36 36"><defs><clipPath id="a"><circle cx="18" cy="18" r="18" transform="translate(1702 789)" fill="#fff" stroke="#707070" stroke-width="1"/></clipPath><clipPath id="b"><rect width="61.713" height="36" fill="none"/></clipPath></defs><g transform="translate(-1702 -789)" clip-path="url(#a)"><g transform="translate(1671.921 589.753)"><g transform="translate(30.079 199.247)" clip-path="url(#b)"><rect width="61.714" height="35.999" transform="translate(0 0.001)" fill="#cb1d23"/><path d="M37.426,213.535l1.16-3.593-3.048-2.227,3.775-.007,1.177-3.587,1.173,3.588,3.776.01-3.051,2.224,1.157,3.594-3.058-2.213Z" transform="translate(-31.488 -200.505)" fill="#f7de29"/><path d="M52.215,219.24l1.274.511.885-1.049-.093,1.37,1.272.518-1.331.335-.1,1.368-.729-1.163-1.332.329.881-1.054Z" transform="translate(-35.752 -204.268)" fill="#f7de29"/><path d="M60.33,209.222l-1.352-.235L58.33,210.2l-.194-1.358-1.351-.243,1.232-.6-.188-1.36.956.985,1.236-.6-.642,1.214Z" transform="translate(-36.972 -201.153)" fill="#f7de29"/><path d="M57.453,217.222l.421-1.306-1.108-.81,1.373,0,.427-1.3.427,1.3,1.373,0-1.109.809.421,1.307-1.112-.8Z" transform="translate(-36.967 -203.003)" fill="#f7de29"/><path d="M52.265,202.184l1.246.578.939-1-.164,1.363,1.242.584-1.347.264-.171,1.362-.668-1.2-1.348.259.934-1.006Z" transform="translate(-35.735 -199.896)" fill="#f7de29"/></g></g></g></svg>