<svg xmlns="http://www.w3.org/2000/svg" xmlns:xlink="http://www.w3.org/1999/xlink" width="36" height="36" viewBox="0 0 36 36"><defs><clipPath id="a"><circle cx="18" cy="18" r="18" transform="translate(1777 568)" fill="#fff" stroke="#707070" stroke-width="1"/></clipPath><clipPath id="b"><rect width="61.714" height="36" fill="none"/></clipPath></defs><g transform="translate(-1777 -568)" clip-path="url(#a)"><g transform="translate(1048.372 132.367)"><g transform="translate(728.628 435.633)" clip-path="url(#b)"><rect width="61.714" height="18" transform="translate(0 -0.001)" fill="#da1841"/><rect width="61.714" height="18" transform="translate(0 18)" fill="#fff"/><path d="M748.882,445.409a6.768,6.768,0,1,1-6.768-6.768,6.769,6.769,0,0,1,6.768,6.768" transform="translate(-730.362 -436.409)" fill="#fff"/><path d="M752.008,445.538a6.4,6.4,0,1,1-6.4-6.4,6.4,6.4,0,0,1,6.4,6.4" transform="translate(-731.36 -436.539)" fill="#da1841"/><path d="M744.759,446.949l-.919-.706-.921.706.354-1.137-.921-.7,1.137,0,.349-1.139.35,1.139,1.138,0-.922.7Z" transform="translate(-732.17 -437.786)" fill="#fff"/><path d="M754.484,446.949l-.919-.706-.921.706.354-1.137-.921-.7,1.137,0,.349-1.139.35,1.139,1.138,0-.922.7Z" transform="translate(-734.68 -437.786)" fill="#fff"/><path d="M749.627,443.34l-.919-.706-.921.706.354-1.137-.921-.7,1.137,0,.349-1.139.35,1.139,1.138,0-.922.7Z" transform="translate(-733.426 -436.854)" fill="#fff"/><path d="M746.579,452.725l-.92-.706-.919.706.354-1.137-.923-.7,1.139,0,.349-1.139.349,1.139,1.14,0-.924.7Z" transform="translate(-732.639 -439.276)" fill="#fff"/><path d="M752.664,452.725l-.919-.706-.919.706.354-1.137-.923-.7,1.139,0,.349-1.139.349,1.139,1.138,0-.922.7Z" transform="translate(-734.21 -439.276)" fill="#fff"/></g></g></g></svg>