<?xml version="1.0" encoding="UTF-8"?>
<!DOCTYPE svg PUBLIC "-//W3C//DTD SVG 1.1//EN" "http://www.w3.org/Graphics/SVG/1.1/DTD/svg11.dtd">
<!-- Creator: CorelDRAW 2018 (64-Bit) -->
<svg xmlns="http://www.w3.org/2000/svg" xml:space="preserve" width="40px" height="40px" version="1.1" style="shape-rendering:geometricPrecision; text-rendering:geometricPrecision; image-rendering:optimizeQuality; fill-rule:evenodd; clip-rule:evenodd"
viewBox="0 0 1.456 1.456"
 xmlns:xlink="http://www.w3.org/1999/xlink">
 <defs>
  <style type="text/css">
   <![CDATA[
    .fil0 {fill:none}
    .fil3 {fill:#00F4FF}
    .fil1 {fill:white}
    .fil2 {fill:gray;fill-rule:nonzero}
   ]]>
  </style>
 </defs>
 <g id="Layer_x0020_1">
  <metadata id="CorelCorpID_0Corel-Layer"/>
  <g id="_1576240157312">
   <rect class="fil0" width="1.456" height="1.456"/>
   <g>
    <path class="fil1" d="M0.737 0.146c0.063,0 0.114,0.051 0.114,0.114 0,0.063 -0.051,0.114 -0.114,0.114 -0.063,0 -0.115,-0.051 -0.115,-0.114 0,-0.063 0.052,-0.114 0.115,-0.114z"/>
    <path class="fil2" d="M0.737 0.127c0.036,0 0.069,0.015 0.093,0.039 0.024,0.024 0.039,0.057 0.039,0.094 0,0.036 -0.015,0.069 -0.039,0.093 -0.024,0.024 -0.057,0.039 -0.093,0.039 -0.037,0 -0.07,-0.015 -0.094,-0.039 -0.024,-0.024 -0.039,-0.057 -0.039,-0.093 0,-0.037 0.015,-0.07 0.039,-0.094 0.024,-0.024 0.057,-0.039 0.094,-0.039zm0.068 0.065c-0.018,-0.017 -0.042,-0.028 -0.068,-0.028 -0.027,0 -0.051,0.011 -0.068,0.028 -0.018,0.017 -0.028,0.041 -0.028,0.068 0,0.026 0.01,0.05 0.028,0.068 0.017,0.017 0.041,0.028 0.068,0.028 0.026,0 0.05,-0.011 0.068,-0.028 0.017,-0.018 0.028,-0.042 0.028,-0.068 0,-0.027 -0.011,-0.051 -0.028,-0.068z"/>
    <path class="fil1" d="M0.986 0.936l0 0 -0.329 0c-0.042,0 -0.073,-0.019 -0.073,-0.062l0 0c0,-0.042 0.035,-0.077 0.077,-0.077l0.355 0c0.042,0 0.078,0.014 0.088,0.06l0.091 0.4 -0.065 0.014c-0.036,0.009 -0.072,-0.014 -0.08,-0.049l-0.064 -0.286z"/>
    <path class="fil2" d="M0.972 0.954l-0.315 0c-0.026,0 -0.049,-0.007 -0.066,-0.02 -0.016,-0.014 -0.025,-0.034 -0.025,-0.06 0,-0.026 0.011,-0.05 0.028,-0.067 0.017,-0.017 0.041,-0.028 0.067,-0.028l0.355 0c0.024,0 0.046,0.004 0.065,0.015l0.001 0.001c0.019,0.012 0.034,0.03 0.04,0.058l0.09 0.4c0.002,0.009 -0.004,0.019 -0.013,0.021 -0.022,0.005 -0.046,0.012 -0.067,0.016 -0.022,0.004 -0.044,-0.001 -0.062,-0.012 -0.018,-0.011 -0.032,-0.029 -0.037,-0.052l-0.061 -0.272zm-0.315 -0.036l0.329 0c0.009,0 0.016,0.006 0.018,0.014l0.064 0.286c0.003,0.013 0.011,0.023 0.021,0.03 0.011,0.006 0.023,0.009 0.035,0.006 0.016,-0.004 0.033,-0.007 0.049,-0.011l-0.086 -0.382c-0.004,-0.017 -0.013,-0.028 -0.024,-0.035l0 0c-0.013,-0.008 -0.029,-0.01 -0.047,-0.01l-0.355 0c-0.016,0 -0.031,0.006 -0.041,0.017 -0.011,0.011 -0.018,0.025 -0.018,0.041 0,0.015 0.005,0.025 0.013,0.032 0.009,0.008 0.024,0.012 0.042,0.012z"/>
    <path class="fil1" d="M0.522 0.546l0.177 -0.089c0.04,-0.02 0.074,0.007 0.074,0.056l0 0.261c0,0.053 -0.106,0.077 -0.151,0.097 -0.001,0.042 -0.035,0.075 -0.076,0.075l0 0c-0.043,0 -0.056,-0.035 -0.056,-0.077l0 -0.018 0 -0.227 0 -0.025c0,-0.021 0.015,-0.044 0.032,-0.053z"/>
    <path class="fil2" d="M0.514 0.53l0.177 -0.089c0.012,-0.006 0.024,-0.009 0.034,-0.009 0.013,0 0.024,0.003 0.034,0.01 0.009,0.006 0.017,0.015 0.023,0.027 0.006,0.012 0.01,0.027 0.01,0.044l0 0.261c0,0.055 -0.073,0.081 -0.128,0.101 -0.009,0.003 -0.017,0.006 -0.025,0.009 -0.003,0.021 -0.013,0.039 -0.027,0.053 -0.017,0.017 -0.041,0.027 -0.066,0.027 -0.026,0 -0.045,-0.01 -0.057,-0.027 -0.013,-0.017 -0.018,-0.042 -0.018,-0.068l0 -0.27c0,-0.014 0.005,-0.028 0.012,-0.04 0.008,-0.013 0.019,-0.023 0.031,-0.029zm0.194 -0.057l-0.178 0.089c-0.006,0.003 -0.011,0.009 -0.016,0.016 -0.004,0.006 -0.006,0.014 -0.006,0.021l0 0.27c0,0.019 0.003,0.036 0.011,0.047 0.005,0.007 0.014,0.012 0.027,0.012 0.015,0 0.03,-0.007 0.04,-0.017 0.011,-0.01 0.018,-0.024 0.018,-0.04l0.001 -0.012 0.01 -0.004c0.01,-0.005 0.023,-0.009 0.036,-0.014 0.045,-0.016 0.104,-0.038 0.104,-0.067l0 -0.261c0,-0.012 -0.002,-0.021 -0.005,-0.028 -0.003,-0.006 -0.007,-0.01 -0.011,-0.013 -0.004,-0.002 -0.008,-0.004 -0.014,-0.004 -0.005,0 -0.011,0.002 -0.017,0.005z"/>
    <path class="fil1" d="M0.574 0.686c0.172,0 0.312,0.139 0.312,0.312 0,0.172 -0.14,0.312 -0.312,0.312 -0.173,0 -0.313,-0.14 -0.313,-0.312 0,-0.173 0.14,-0.312 0.313,-0.312z"/>
    <path class="fil2" d="M0.574 0.667c0.091,0 0.174,0.037 0.233,0.097 0.06,0.06 0.097,0.143 0.097,0.234 0,0.091 -0.037,0.174 -0.097,0.234 -0.059,0.059 -0.142,0.096 -0.233,0.096 -0.092,0 -0.174,-0.037 -0.234,-0.096 -0.06,-0.06 -0.097,-0.143 -0.097,-0.234 0,-0.091 0.037,-0.174 0.097,-0.234 0.06,-0.06 0.142,-0.097 0.234,-0.097zm0.208 0.123c-0.054,-0.053 -0.127,-0.086 -0.208,-0.086 -0.082,0 -0.155,0.033 -0.208,0.086 -0.054,0.053 -0.087,0.127 -0.087,0.208 0,0.081 0.033,0.155 0.087,0.208 0.053,0.053 0.126,0.086 0.208,0.086 0.081,0 0.154,-0.033 0.208,-0.086 0.053,-0.053 0.086,-0.127 0.086,-0.208 0,-0.081 -0.033,-0.155 -0.086,-0.208z"/>
    <path class="fil3" d="M0.574 0.865c0.073,0 0.133,0.059 0.133,0.133 0,0.073 -0.06,0.133 -0.133,0.133 -0.074,0 -0.133,-0.06 -0.133,-0.133 0,-0.074 0.059,-0.133 0.133,-0.133z"/>
    <path class="fil2" d="M0.574 0.847c0.041,0 0.079,0.017 0.106,0.044 0.028,0.027 0.045,0.065 0.045,0.107 0,0.042 -0.017,0.079 -0.045,0.107 -0.027,0.027 -0.065,0.044 -0.106,0.044 -0.042,0 -0.08,-0.017 -0.107,-0.044 -0.028,-0.028 -0.045,-0.065 -0.045,-0.107 0,-0.042 0.017,-0.08 0.045,-0.107 0.027,-0.027 0.065,-0.044 0.107,-0.044zm0.081 0.07c-0.021,-0.021 -0.05,-0.034 -0.081,-0.034 -0.032,0 -0.061,0.013 -0.082,0.034 -0.02,0.02 -0.033,0.049 -0.033,0.081 0,0.032 0.013,0.06 0.033,0.081 0.021,0.021 0.05,0.034 0.082,0.034 0.031,0 0.06,-0.013 0.081,-0.034 0.021,-0.021 0.033,-0.049 0.033,-0.081 0,-0.032 -0.012,-0.06 -0.033,-0.081z"/>
    <polygon class="fil2" points="0.546,0.964 0.546,0.928 "/>
    <polygon class="fil2" points="0.546,0.529 0.546,0.566 "/>
    <path class="fil1" d="M0.49 0.639l0.117 0 0 0.307 -0.058 0c-0.033,0 -0.059,-0.027 -0.059,-0.059l0 -0.248z"/>
    <path class="fil2" d="M0.589 0.639c0,-0.01 0.008,-0.018 0.018,-0.018 0.01,0 0.019,0.008 0.019,0.018l0 0.307c0,0.01 -0.009,0.018 -0.019,0.018l-0.058 0c-0.022,0 -0.041,-0.009 -0.055,-0.023 -0.014,-0.014 -0.023,-0.033 -0.023,-0.054l0 -0.248c0,-0.01 0.009,-0.018 0.019,-0.018 0.01,0 0.018,0.008 0.018,0.018l0 0.248c0,0.011 0.004,0.021 0.012,0.029 0.007,0.007 0.017,0.012 0.029,0.012l0.04 0 0 -0.289z"/>
   </g>
  </g>
 </g>
</svg>
