<?xml version="1.0" encoding="UTF-8"?>
<!DOCTYPE svg PUBLIC "-//W3C//DTD SVG 1.1//EN" "http://www.w3.org/Graphics/SVG/1.1/DTD/svg11.dtd">
<!-- Creator: CorelDRAW 2018 (64-Bit) -->
<svg xmlns="http://www.w3.org/2000/svg" xml:space="preserve" width="40px" height="40px" version="1.1" style="shape-rendering:geometricPrecision; text-rendering:geometricPrecision; image-rendering:optimizeQuality; fill-rule:evenodd; clip-rule:evenodd"
viewBox="0 0 3.096 3.096"
 xmlns:xlink="http://www.w3.org/1999/xlink">
 <defs>
  <style type="text/css">
   <![CDATA[
    .fil0 {fill:none}
    .fil3 {fill:#EAEDF2}
    .fil1 {fill:white}
    .fil5 {fill:#00F4FF;fill-rule:nonzero}
    .fil2 {fill:gray;fill-rule:nonzero}
    .fil4 {fill:gray;fill-rule:nonzero}
   ]]>
  </style>
 </defs>
 <g id="Layer_x0020_1">
  <metadata id="CorelCorpID_0Corel-Layer"/>
  <g id="_1576242110912">
   <rect class="fil0" width="3.096" height="3.096"/>
   <g>
    <path class="fil1" d="M1.548 1.235c0.575,0 1.041,0.036 1.041,0.08 0,0.044 -0.466,0.08 -1.041,0.08 -0.575,0 -1.041,-0.036 -1.041,-0.08 0,-0.044 0.466,-0.08 1.041,-0.08z"/>
    <path class="fil2" d="M0.57 1.317c0,0.022 -0.042,0.037 -0.063,0.037 -0.022,0 -0.039,-0.018 -0.039,-0.039 0,-0.046 0.13,-0.079 0.341,-0.095 0.189,-0.014 0.451,-0.023 0.739,-0.023 0.288,0 0.55,0.009 0.739,0.023 0.211,0.016 0.341,0.049 0.341,0.095 0,0.021 -0.017,0.039 -0.039,0.039 -0.021,0 -0.076,-0.015 -0.076,-0.036 0,-0.002 -0.065,-0.008 -0.231,-0.021 -0.188,-0.014 -0.447,-0.023 -0.734,-0.023 -0.287,0 -0.546,0.009 -0.733,0.023 -0.167,0.013 -0.245,0.018 -0.245,0.02z"/>
    <path class="fil3" d="M2.133 0.963c0.122,0.033 0.211,0.19 0.211,0.276 0,0.086 -0.035,0.121 -0.049,0.156 -0.147,0.055 -0.407,0.05 -0.747,0.05 -0.34,0 -0.63,0.008 -0.773,-0.05l-0.018 -0.074c-0.032,-0.177 0.108,-0.393 0.219,-0.452 0.11,-0.059 0.111,-0.044 0.168,-0.049 -0.025,-0.125 0.033,-0.257 0.152,-0.321 0.144,-0.077 0.324,-0.022 0.402,0.123 0.009,0.017 0.016,0.034 0.021,0.052 0.141,-0.061 0.306,-0.004 0.379,0.133 0.027,0.05 0.038,0.104 0.035,0.156z"/>
    <path class="fil2" d="M2.172 0.935c0.052,0.022 0.097,0.062 0.132,0.108 0.049,0.064 0.079,0.141 0.079,0.196 0,0.075 -0.023,0.117 -0.042,0.149 -0.004,0.008 -0.008,0.016 -0.011,0.022 -0.004,0.01 -0.013,0.018 -0.023,0.021 -0.14,0.053 -0.372,0.053 -0.674,0.052l-0.195 0c-0.296,0.001 -0.544,0.002 -0.677,-0.053 -0.012,-0.004 -0.021,-0.015 -0.023,-0.027l-0.019 -0.073 -0.001 -0.005c-0.015,-0.089 0.008,-0.185 0.049,-0.269 0.048,-0.1 0.124,-0.185 0.191,-0.221 0.084,-0.045 0.111,-0.051 0.142,-0.052 -0.003,-0.057 0.008,-0.114 0.032,-0.165 0.03,-0.063 0.079,-0.117 0.145,-0.153 0.082,-0.043 0.174,-0.049 0.256,-0.024 0.082,0.025 0.155,0.081 0.199,0.163 0.003,0.007 0.007,0.014 0.01,0.021 0.069,-0.021 0.141,-0.018 0.206,0.005l0.002 0.001c0.075,0.027 0.142,0.082 0.182,0.158 0.015,0.028 0.026,0.056 0.032,0.085 0.004,0.021 0.007,0.041 0.008,0.061zm0.071 0.155c-0.032,-0.042 -0.074,-0.077 -0.12,-0.09 -0.017,-0.004 -0.03,-0.021 -0.029,-0.039 0.002,-0.023 0,-0.047 -0.005,-0.07 -0.005,-0.022 -0.013,-0.044 -0.025,-0.066 -0.031,-0.059 -0.082,-0.1 -0.14,-0.121l-0.002 -0.001c-0.059,-0.021 -0.126,-0.02 -0.188,0.006l-0.003 0.002c-0.021,0.006 -0.042,-0.005 -0.049,-0.026 -0.002,-0.007 -0.005,-0.015 -0.008,-0.023 -0.003,-0.008 -0.007,-0.015 -0.01,-0.022 -0.034,-0.063 -0.09,-0.106 -0.153,-0.126 -0.064,-0.019 -0.134,-0.014 -0.197,0.019 -0.051,0.028 -0.089,0.069 -0.112,0.118 -0.023,0.049 -0.031,0.104 -0.021,0.159 0.001,0.002 0.001,0.005 0.002,0.007 0.001,0.022 -0.015,0.04 -0.036,0.042 -0.011,0.001 -0.022,0.001 -0.031,0.001 -0.027,0 -0.042,0 -0.122,0.043 -0.054,0.029 -0.116,0.101 -0.158,0.187 -0.034,0.071 -0.054,0.15 -0.042,0.222l0.014 0.053c0.125,0.043 0.356,0.042 0.63,0.041l0.11 0 0.085 0c0.284,0.001 0.504,0.001 0.634,-0.042l0.007 -0.013c0.014,-0.025 0.031,-0.057 0.031,-0.112 0,-0.04 -0.023,-0.099 -0.062,-0.149z"/>
    <path class="fil2" d="M0.994 0.903c-0.019,0.01 -0.042,0.003 -0.052,-0.016 -0.01,-0.018 -0.003,-0.042 0.016,-0.052 0.07,-0.037 0.146,-0.055 0.221,-0.054 0.078,0 0.154,0.02 0.222,0.058 0.019,0.01 0.025,0.033 0.015,0.052 -0.01,0.019 -0.034,0.026 -0.052,0.015 -0.057,-0.031 -0.121,-0.048 -0.185,-0.048 -0.063,-0.001 -0.126,0.014 -0.185,0.045z"/>
    <path class="fil2" d="M1.882 1.05c-0.016,0.014 -0.041,0.012 -0.054,-0.005 -0.014,-0.016 -0.012,-0.04 0.005,-0.054 0.03,-0.025 0.064,-0.045 0.1,-0.058 0.037,-0.013 0.076,-0.02 0.115,-0.02 0.092,0 0.176,0.037 0.236,0.098l0.001 0c0.06,0.061 0.098,0.144 0.098,0.237 0,0.021 -0.018,0.038 -0.039,0.038 -0.021,0 -0.039,-0.017 -0.039,-0.038 0,-0.072 -0.028,-0.136 -0.075,-0.183 -0.047,-0.046 -0.111,-0.075 -0.182,-0.075 -0.031,0 -0.061,0.005 -0.088,0.015 -0.028,0.011 -0.055,0.026 -0.078,0.045z"/>
    <path class="fil2" d="M1.217 1.268c-0.017,0.013 -0.041,0.011 -0.055,-0.005 -0.014,-0.017 -0.011,-0.041 0.005,-0.055 0.03,-0.025 0.064,-0.045 0.101,-0.058 0.036,-0.013 0.075,-0.02 0.114,-0.02 0.039,0 0.078,0.007 0.115,0.02 0.036,0.013 0.07,0.033 0.1,0.058 0.017,0.014 0.019,0.038 0.005,0.055 -0.013,0.016 -0.038,0.018 -0.054,0.005 -0.023,-0.02 -0.05,-0.035 -0.078,-0.045 -0.027,-0.01 -0.057,-0.016 -0.088,-0.016 -0.03,0 -0.06,0.006 -0.088,0.016 -0.028,0.01 -0.054,0.025 -0.077,0.045z"/>
    <path class="fil1" d="M2.822 2.318c0,0.088 -0.57,0.159 -1.274,0.159 -0.704,0 -1.274,-0.071 -1.274,-0.159l0.233 -1.003c0,0.044 0.466,0.08 1.041,0.08 0.575,0 1.041,-0.036 1.041,-0.08l0.233 1.003z"/>
    <path class="fil4" d="M2.861 2.318c0,0.066 -0.156,0.119 -0.407,0.151 -0.232,0.029 -0.553,0.047 -0.906,0.047 -0.353,0 -0.674,-0.018 -0.906,-0.047 -0.251,-0.032 -0.407,-0.085 -0.407,-0.151 0,-0.004 0.001,-0.008 0.002,-0.012l0.232 -1c0.005,-0.02 0.026,-0.033 0.046,-0.029 0.018,0.004 0.03,0.02 0.03,0.038 0,0.002 0.103,0.005 0.27,0.018 0.187,0.014 0.446,0.023 0.733,0.023 0.287,0 0.546,-0.009 0.734,-0.023 0.166,-0.013 0.269,-0.016 0.269,-0.018 0,-0.021 0.017,-0.039 0.038,-0.039 0.02,0 0.036,0.014 0.039,0.033l0.232 1c0.001,0.003 0.001,0.006 0.001,0.009zm-0.417 0.074c0.203,-0.025 0.331,-0.051 0.339,-0.072l-0.221 -0.954c-0.059,0.02 -0.153,0.035 -0.275,0.044 -0.189,0.014 -0.451,0.023 -0.739,0.023 -0.288,0 -0.549,-0.009 -0.739,-0.023 -0.121,-0.009 -0.216,-0.024 -0.275,-0.044l-0.221 0.954c0.008,0.021 0.136,0.047 0.339,0.072 0.229,0.029 0.546,0.046 0.896,0.046 0.35,0 0.667,-0.017 0.896,-0.046z"/>
    <path class="fil5" d="M1.682 1.984c0.02,0.046 0.028,0.067 0.04,0.082 0.012,0.015 0.068,0.064 0.072,0.067 0.053,0.047 0.052,0.114 -0.009,0.155 -0.079,0.052 -0.151,0.01 -0.237,0.01 -0.077,0 -0.141,0.036 -0.215,0.002 -0.034,-0.016 -0.058,-0.041 -0.066,-0.072 -0.01,-0.037 0.006,-0.073 0.038,-0.097 0.039,-0.034 0.058,-0.051 0.069,-0.065 0.01,-0.014 0.02,-0.037 0.04,-0.082 0.026,-0.058 0.101,-0.091 0.179,-0.071 0.045,0.012 0.074,0.037 0.089,0.071z"/>
    <path class="fil2" d="M1.718 1.969l0.009 0.022c0.012,0.027 0.019,0.042 0.026,0.051 0.009,0.011 0.06,0.056 0.066,0.062l0.001 0c0.011,0.01 0.02,0.021 0.028,0.032 0.016,0.025 0.024,0.052 0.023,0.079 -0.002,0.027 -0.012,0.054 -0.033,0.077 -0.008,0.01 -0.019,0.019 -0.032,0.028 -0.066,0.044 -0.124,0.035 -0.185,0.024 -0.024,-0.003 -0.048,-0.007 -0.073,-0.007 -0.024,0 -0.047,0.004 -0.07,0.008 -0.052,0.008 -0.102,0.017 -0.161,-0.01 -0.022,-0.01 -0.041,-0.024 -0.056,-0.04 -0.015,-0.016 -0.026,-0.036 -0.032,-0.058 -0.006,-0.026 -0.004,-0.052 0.005,-0.076 0.01,-0.023 0.026,-0.044 0.047,-0.06 0.018,-0.016 0.031,-0.028 0.043,-0.038 0.009,-0.009 0.015,-0.016 0.019,-0.02 0.004,-0.005 0.007,-0.012 0.013,-0.023 0.005,-0.011 0.013,-0.028 0.023,-0.051 0.017,-0.039 0.051,-0.069 0.093,-0.086 0.038,-0.015 0.084,-0.019 0.131,-0.007 0.027,0.007 0.05,0.019 0.069,0.033 0.02,0.017 0.036,0.037 0.046,0.06zm-0.062 0.052l-0.009 -0.021c-0.005,-0.012 -0.013,-0.022 -0.023,-0.03 -0.011,-0.008 -0.024,-0.015 -0.041,-0.019 -0.03,-0.008 -0.059,-0.006 -0.083,0.004 -0.023,0.009 -0.042,0.025 -0.051,0.045 -0.009,0.022 -0.017,0.039 -0.024,0.054 -0.007,0.015 -0.013,0.026 -0.02,0.035 -0.007,0.009 -0.016,0.019 -0.029,0.03 -0.01,0.01 -0.025,0.023 -0.045,0.041l-0.002 0.002c-0.011,0.008 -0.019,0.018 -0.023,0.028 -0.004,0.009 -0.004,0.018 -0.002,0.028 0.002,0.009 0.007,0.018 0.014,0.025 0.008,0.009 0.018,0.016 0.031,0.022 0.037,0.017 0.076,0.01 0.116,0.003 0.027,-0.004 0.054,-0.009 0.083,-0.009 0.03,0 0.058,0.005 0.085,0.009 0.046,0.008 0.09,0.015 0.13,-0.012 0.007,-0.005 0.013,-0.01 0.017,-0.015 0.009,-0.01 0.013,-0.02 0.014,-0.03 0,-0.01 -0.003,-0.021 -0.01,-0.032 -0.004,-0.005 -0.009,-0.011 -0.015,-0.016l-0.001 -0.001c-0.007,-0.006 -0.062,-0.055 -0.076,-0.072 -0.013,-0.016 -0.021,-0.035 -0.036,-0.069z"/>
    <path class="fil5" d="M1.327 1.551c0.058,-0.015 0.119,0.026 0.136,0.092 0.018,0.065 -0.015,0.131 -0.072,0.147 -0.058,0.015 -0.119,-0.026 -0.137,-0.091 -0.017,-0.066 0.015,-0.132 0.073,-0.148z"/>
    <path class="fil2" d="M1.317 1.514c0.04,-0.011 0.081,-0.002 0.114,0.021 0.033,0.021 0.058,0.055 0.07,0.098 0.011,0.042 0.006,0.084 -0.011,0.119 -0.018,0.036 -0.049,0.064 -0.089,0.075 -0.04,0.011 -0.081,0.002 -0.115,-0.02 -0.032,-0.022 -0.058,-0.056 -0.069,-0.098 -0.011,-0.043 -0.006,-0.085 0.011,-0.12 0.018,-0.036 0.049,-0.064 0.089,-0.075zm0.072 0.085c-0.016,-0.011 -0.035,-0.015 -0.052,-0.01 -0.018,0.005 -0.032,0.017 -0.04,0.034 -0.009,0.019 -0.012,0.042 -0.005,0.066 0.006,0.023 0.02,0.042 0.037,0.053 0.016,0.011 0.034,0.015 0.052,0.01 0.017,-0.004 0.031,-0.017 0.04,-0.034 0.009,-0.019 0.011,-0.042 0.005,-0.065 -0.006,-0.024 -0.02,-0.043 -0.037,-0.054z"/>
    <path class="fil5" d="M1.103 1.845c0.047,-0.017 0.101,0.013 0.121,0.066 0.019,0.054 -0.003,0.111 -0.05,0.128 -0.047,0.017 -0.101,-0.012 -0.12,-0.066 -0.02,-0.053 0.002,-0.111 0.049,-0.128z"/>
    <path class="fil2" d="M1.09 1.809c0.035,-0.013 0.071,-0.008 0.103,0.009 0.029,0.016 0.054,0.044 0.067,0.08 0.013,0.036 0.012,0.073 0,0.105 -0.013,0.033 -0.038,0.06 -0.073,0.072 -0.034,0.013 -0.071,0.009 -0.102,-0.008 -0.03,-0.017 -0.054,-0.045 -0.068,-0.081 -0.013,-0.035 -0.012,-0.073 0.001,-0.104 0.013,-0.034 0.038,-0.061 0.072,-0.073zm0.065 0.077c-0.012,-0.007 -0.026,-0.009 -0.038,-0.005 -0.013,0.005 -0.022,0.015 -0.027,0.028 -0.006,0.015 -0.006,0.033 0,0.051 0.006,0.018 0.018,0.031 0.032,0.039 0.012,0.007 0.026,0.009 0.039,0.004 0.012,-0.005 0.022,-0.015 0.027,-0.028 0.006,-0.015 0.006,-0.033 0,-0.051 -0.007,-0.017 -0.019,-0.031 -0.033,-0.038z"/>
    <path class="fil5" d="M1.769 1.551c-0.057,-0.015 -0.118,0.026 -0.136,0.092 -0.018,0.065 0.015,0.131 0.073,0.147 0.057,0.015 0.118,-0.026 0.136,-0.091 0.017,-0.066 -0.015,-0.132 -0.073,-0.148z"/>
    <path class="fil2" d="M1.759 1.589c-0.017,-0.005 -0.036,-0.001 -0.051,0.01 -0.018,0.011 -0.031,0.03 -0.038,0.054 -0.006,0.023 -0.003,0.046 0.006,0.065 0.008,0.017 0.022,0.03 0.039,0.034 0.018,0.005 0.037,0.001 0.052,-0.01 0.017,-0.011 0.031,-0.03 0.037,-0.053 0.007,-0.024 0.004,-0.047 -0.005,-0.066 -0.008,-0.017 -0.022,-0.029 -0.04,-0.034zm-0.094 -0.054c0.033,-0.023 0.074,-0.032 0.114,-0.021 0.04,0.011 0.071,0.039 0.089,0.075 0.017,0.035 0.022,0.077 0.011,0.12 -0.011,0.042 -0.037,0.076 -0.069,0.098 -0.034,0.022 -0.075,0.031 -0.114,0.02 -0.041,-0.011 -0.072,-0.039 -0.09,-0.075 -0.017,-0.035 -0.022,-0.077 -0.01,-0.119 0.011,-0.043 0.037,-0.077 0.069,-0.098z"/>
    <path class="fil5" d="M1.993 1.845c-0.047,-0.017 -0.101,0.013 -0.121,0.066 -0.019,0.054 0.003,0.111 0.05,0.128 0.047,0.017 0.101,-0.012 0.12,-0.066 0.02,-0.053 -0.002,-0.111 -0.049,-0.128z"/>
    <path class="fil2" d="M1.98 1.881c-0.013,-0.004 -0.027,-0.002 -0.039,0.005 -0.014,0.007 -0.026,0.021 -0.032,0.038 -0.007,0.018 -0.007,0.036 -0.001,0.051 0.005,0.013 0.015,0.023 0.027,0.028 0.013,0.005 0.027,0.003 0.039,-0.004 0.014,-0.008 0.026,-0.021 0.032,-0.039 0.007,-0.018 0.006,-0.036 0.001,-0.051 -0.006,-0.013 -0.015,-0.023 -0.027,-0.028zm-0.076 -0.063c0.031,-0.017 0.067,-0.022 0.102,-0.009 0.034,0.012 0.06,0.039 0.072,0.073 0.013,0.031 0.014,0.068 0.001,0.104 -0.013,0.036 -0.038,0.064 -0.068,0.081 -0.031,0.017 -0.068,0.021 -0.102,0.008 -0.035,-0.012 -0.06,-0.039 -0.073,-0.072 -0.012,-0.032 -0.013,-0.069 0,-0.105 0.013,-0.036 0.038,-0.064 0.068,-0.08z"/>
   </g>
  </g>
 </g>
</svg>
