<?xml version="1.0" encoding="UTF-8"?>
<!DOCTYPE svg PUBLIC "-//W3C//DTD SVG 1.1//EN" "http://www.w3.org/Graphics/SVG/1.1/DTD/svg11.dtd">
<!-- Creator: CorelDRAW 2018 (64-Bit) -->
<svg xmlns="http://www.w3.org/2000/svg" xml:space="preserve" width="40px" height="40px" version="1.1" style="shape-rendering:geometricPrecision; text-rendering:geometricPrecision; image-rendering:optimizeQuality; fill-rule:evenodd; clip-rule:evenodd"
viewBox="0 0 3.096 3.096"
 xmlns:xlink="http://www.w3.org/1999/xlink">
 <defs>
  <style type="text/css">
   <![CDATA[
    .fil0 {fill:none}
    .fil3 {fill:#00F4FF;fill-rule:nonzero}
    .fil2 {fill:gray;fill-rule:nonzero}
    .fil1 {fill:white;fill-rule:nonzero}
   ]]>
  </style>
 </defs>
 <g id="Layer_x0020_1">
  <metadata id="CorelCorpID_0Corel-Layer"/>
  <g id="_1576229015536">
   <rect class="fil0" width="3.096" height="3.096"/>
   <g>
    <path class="fil1" d="M2.425 1.709c0,0.24 -0.131,0.454 -0.337,0.596l0.066 0.332c0.006,0.03 -0.017,0.054 -0.05,0.054l-0.291 -0.002c-0.033,0 -0.063,-0.025 -0.07,-0.054l-0.036 -0.17c-0.073,0.014 -0.172,0.022 -0.251,0.022 -0.078,0 -0.178,-0.008 -0.25,-0.022l-0.037 0.17c-0.006,0.029 -0.037,0.054 -0.07,0.054l-0.29 0.002c-0.033,0 -0.056,-0.024 -0.05,-0.054l0.066 -0.308c-0.131,-0.041 -0.232,-0.14 -0.288,-0.276l-0.142 0c-0.04,0 -0.088,0 -0.088,-0.059l0 -0.33c0,-0.058 0.033,-0.094 0.086,-0.094l0.11 0c0.026,-0.115 0.082,-0.221 0.162,-0.313 -0.012,-0.155 -0.085,-0.228 -0.155,-0.359 0.245,-0.029 0.413,0.024 0.52,0.11 0.13,-0.051 0.274,-0.079 0.426,-0.079 0.535,0 0.969,0.348 0.969,0.78z"/>
    <path class="fil2" d="M2.464 1.709c0,0.125 -0.034,0.243 -0.093,0.348 -0.058,0.102 -0.14,0.192 -0.241,0.265l0.062 0.307 0 0.005c0.001,0.004 0.001,0.009 0.001,0.013l0 0.005c-0.001,0.018 -0.008,0.035 -0.02,0.048 -0.012,0.014 -0.029,0.024 -0.049,0.028 -0.006,0.001 -0.013,0.001 -0.02,0.001l-0.291 -0.001c-0.025,0 -0.049,-0.01 -0.068,-0.024 -0.02,-0.015 -0.034,-0.037 -0.039,-0.061l-0.029 -0.134c-0.027,0.004 -0.056,0.008 -0.085,0.01l-0.001 0c-0.047,0.005 -0.094,0.007 -0.135,0.007 -0.04,0 -0.088,-0.002 -0.135,-0.007 -0.03,-0.002 -0.058,-0.006 -0.085,-0.01l-0.029 0.134c-0.005,0.024 -0.02,0.046 -0.039,0.061l-0.002 0.001c-0.018,0.014 -0.042,0.023 -0.066,0.023l-0.291 0.001c-0.008,0 -0.015,0 -0.022,-0.002 -0.019,-0.004 -0.036,-0.014 -0.048,-0.027 -0.012,-0.014 -0.02,-0.033 -0.02,-0.053 0,-0.006 0.001,-0.012 0.002,-0.018l0.059 -0.275c-0.057,-0.023 -0.109,-0.056 -0.153,-0.099 -0.047,-0.045 -0.086,-0.1 -0.115,-0.164l-0.117 0c-0.024,0 -0.05,0 -0.074,-0.01l-0.003 -0.001c-0.029,-0.014 -0.05,-0.039 -0.05,-0.086l0 -0.33c0,-0.039 0.012,-0.071 0.034,-0.094 0.022,-0.025 0.053,-0.038 0.091,-0.038l0.08 0c0.013,-0.05 0.032,-0.098 0.056,-0.143 0.026,-0.051 0.059,-0.099 0.096,-0.144 -0.01,-0.097 -0.049,-0.16 -0.093,-0.233 -0.018,-0.03 -0.038,-0.062 -0.056,-0.096 -0.01,-0.019 -0.002,-0.043 0.016,-0.052 0.005,-0.003 0.009,-0.004 0.014,-0.005 0.119,-0.014 0.221,-0.009 0.308,0.01 0.09,0.019 0.163,0.053 0.222,0.095 0.062,-0.023 0.127,-0.041 0.194,-0.053 0.073,-0.014 0.149,-0.021 0.226,-0.021 0.276,0 0.527,0.09 0.709,0.237 0.185,0.148 0.299,0.354 0.299,0.582zm-0.161 0.31c0.054,-0.094 0.083,-0.199 0.083,-0.31 0,-0.203 -0.103,-0.388 -0.269,-0.522 -0.169,-0.136 -0.403,-0.22 -0.661,-0.22 -0.074,0 -0.144,0.007 -0.212,0.019 -0.069,0.013 -0.136,0.033 -0.2,0.058 -0.013,0.005 -0.027,0.003 -0.039,-0.006 -0.052,-0.042 -0.12,-0.075 -0.207,-0.094 -0.065,-0.014 -0.139,-0.019 -0.225,-0.013l0.025 0.041c0.052,0.086 0.096,0.159 0.106,0.282 0.001,0.01 -0.002,0.021 -0.01,0.029 -0.038,0.044 -0.071,0.091 -0.097,0.141 -0.025,0.048 -0.044,0.099 -0.055,0.151 -0.003,0.019 -0.019,0.034 -0.039,0.034l-0.11 0c-0.015,0 -0.027,0.004 -0.034,0.013 -0.009,0.009 -0.013,0.023 -0.013,0.042l0 0.33c0,0.009 0.002,0.014 0.005,0.016l0 0c0.01,0.004 0.028,0.004 0.044,0.004l0.142 0c0.015,0 0.03,0.009 0.036,0.024 0.026,0.064 0.062,0.118 0.108,0.162 0.043,0.042 0.095,0.073 0.154,0.091 0.02,0.006 0.032,0.026 0.028,0.046l-0.067 0.31c0,0 0.001,0.001 0.001,0.002 0.001,0.001 0.004,0.002 0.006,0.003l0.006 0 0.29 -0.001c0.007,0 0.015,-0.003 0.021,-0.008l0.001 0c0.005,-0.005 0.009,-0.01 0.011,-0.016l0.036 -0.17c0.004,-0.021 0.024,-0.034 0.045,-0.03 0.034,0.007 0.074,0.012 0.115,0.016 0.043,0.003 0.088,0.006 0.128,0.006 0.041,0 0.085,-0.002 0.128,-0.006l0.001 0c0.04,-0.004 0.079,-0.009 0.112,-0.016l0.002 0c0.021,-0.005 0.042,0.009 0.046,0.03l0.036 0.17c0.001,0.006 0.005,0.011 0.011,0.016 0.006,0.005 0.014,0.008 0.021,0.008l0.291 0.001 0.005 0c0.003,-0.001 0.005,-0.002 0.006,-0.003l0.001 -0.002c0,-0.051 -0.053,-0.267 -0.066,-0.334 -0.003,-0.015 0.003,-0.03 0.016,-0.039 0.1,-0.07 0.182,-0.157 0.237,-0.255z"/>
    <path class="fil2" d="M0.798 1.47c0.015,-0.015 0.04,-0.015 0.055,0 0.015,0.015 0.015,0.039 0,0.055 -0.011,0.011 -0.021,0.022 -0.03,0.034 -0.008,0.011 -0.016,0.023 -0.023,0.035 -0.01,0.018 -0.034,0.025 -0.052,0.015 -0.019,-0.011 -0.026,-0.034 -0.015,-0.053 0.008,-0.015 0.018,-0.03 0.029,-0.044 0.011,-0.014 0.023,-0.028 0.036,-0.042z"/>
    <path class="fil2" d="M2.929 1.48c0.02,-0.008 0.042,0.001 0.05,0.021 0.009,0.019 -0.001,0.042 -0.02,0.05 -0.061,0.025 -0.126,0.024 -0.187,0.005 -0.004,0.007 -0.01,0.015 -0.016,0.025 -0.022,0.03 -0.06,0.068 -0.112,0.088 -0.053,0.02 -0.12,0.022 -0.198,-0.023 -0.014,-0.007 -0.027,-0.016 -0.041,-0.026 -0.018,-0.013 -0.021,-0.037 -0.009,-0.054 0.013,-0.017 0.037,-0.021 0.054,-0.008 0.012,0.008 0.023,0.015 0.033,0.021 0.056,0.031 0.1,0.031 0.134,0.018 0.035,-0.013 0.061,-0.04 0.076,-0.062l0.008 -0.01c-0.027,-0.015 -0.051,-0.033 -0.073,-0.053 -0.037,-0.034 -0.067,-0.074 -0.085,-0.115 -0.019,-0.046 -0.023,-0.094 -0.007,-0.139 0.017,-0.045 0.042,-0.075 0.071,-0.092 0.02,-0.012 0.041,-0.017 0.062,-0.019 0.02,-0.001 0.041,0.003 0.06,0.01l0.002 0.001c0.036,0.013 0.068,0.04 0.088,0.074 0.037,0.063 0.042,0.126 0.027,0.19 -0.007,0.035 -0.021,0.07 -0.037,0.104 0.04,0.01 0.082,0.01 0.12,-0.006zm-0.249 -0.065c0.017,0.016 0.037,0.03 0.057,0.042 0.015,-0.031 0.028,-0.062 0.034,-0.092 0.01,-0.045 0.008,-0.09 -0.018,-0.134 -0.011,-0.019 -0.029,-0.034 -0.049,-0.041l-0.002 -0.001c-0.009,-0.003 -0.02,-0.005 -0.029,-0.005 -0.009,0.001 -0.018,0.004 -0.026,0.008 -0.015,0.009 -0.029,0.026 -0.038,0.053 -0.009,0.025 -0.006,0.053 0.006,0.082 0.013,0.031 0.036,0.061 0.065,0.088z"/>
    <path class="fil3" d="M1.789 0.405c0.168,0 0.305,0.137 0.305,0.305 0,0.168 -0.137,0.304 -0.305,0.304 -0.168,0 -0.304,-0.136 -0.304,-0.304 0,-0.168 0.136,-0.305 0.304,-0.305z"/>
    <path class="fil2" d="M1.789 0.367c0.095,0 0.181,0.038 0.243,0.1 0.062,0.062 0.1,0.148 0.1,0.243 0,0.094 -0.038,0.18 -0.1,0.242 -0.062,0.062 -0.148,0.101 -0.243,0.101 -0.094,0 -0.18,-0.039 -0.242,-0.101 -0.062,-0.062 -0.101,-0.148 -0.101,-0.242 0,-0.095 0.039,-0.181 0.101,-0.243 0.062,-0.062 0.148,-0.1 0.242,-0.1zm0.188 0.155c-0.048,-0.048 -0.114,-0.078 -0.188,-0.078 -0.073,0 -0.14,0.03 -0.188,0.078 -0.048,0.048 -0.077,0.114 -0.077,0.188 0,0.073 0.029,0.14 0.077,0.188 0.048,0.048 0.115,0.077 0.188,0.077 0.074,0 0.14,-0.029 0.188,-0.077 0.048,-0.048 0.078,-0.115 0.078,-0.188 0,-0.074 -0.03,-0.14 -0.078,-0.188z"/>
    <path class="fil2" d="M1.216 1.191c-0.02,0.005 -0.042,-0.006 -0.048,-0.027 -0.006,-0.02 0.006,-0.042 0.027,-0.048 0.042,-0.012 0.085,-0.021 0.129,-0.027 0.044,-0.007 0.089,-0.01 0.133,-0.01 0.067,0 0.133,0.007 0.198,0.021 0.065,0.014 0.127,0.035 0.185,0.062 0.02,0.009 0.028,0.032 0.019,0.051 -0.009,0.02 -0.032,0.028 -0.051,0.019 -0.053,-0.025 -0.11,-0.043 -0.169,-0.056 -0.059,-0.013 -0.12,-0.019 -0.182,-0.019 -0.042,0 -0.083,0.003 -0.123,0.008 -0.04,0.006 -0.079,0.014 -0.118,0.026z"/>
   </g>
  </g>
 </g>
</svg>
