<?xml version="1.0" encoding="UTF-8"?>
<!DOCTYPE svg PUBLIC "-//W3C//DTD SVG 1.1//EN" "http://www.w3.org/Graphics/SVG/1.1/DTD/svg11.dtd">
<!-- Creator: CorelDRAW 2018 (64-Bit) -->
<svg xmlns="http://www.w3.org/2000/svg" xml:space="preserve" width="33px" height="23px" version="1.1" style="shape-rendering:geometricPrecision; text-rendering:geometricPrecision; image-rendering:optimizeQuality; fill-rule:evenodd; clip-rule:evenodd"
viewBox="0 0 0.78 0.548"
 xmlns:xlink="http://www.w3.org/1999/xlink">
 <defs>
  <style type="text/css">
   <![CDATA[
    .fil0 {fill:#00F4FF}
    .fil1 {fill:gray;fill-rule:nonzero}
   ]]>
  </style>
 </defs>
 <g id="Layer_x0020_1">
  <metadata id="CorelCorpID_0Corel-Layer"/>
  <g id="_2714429605712">
   <path class="fil0" d="M0.248 0.339c0.015,-0.004 0.044,0.007 0.064,0.011 0.049,0.012 0.109,0.012 0.158,0 0.019,-0.004 0.049,-0.015 0.064,-0.011 0.014,0.003 0.048,0.028 0.052,0.066l0.01 0.114c0.001,0.01 -0.008,0.018 -0.018,0.018l-0.374 0c-0.01,0 -0.019,-0.008 -0.018,-0.018l0.01 -0.114c0.003,-0.038 0.037,-0.063 0.052,-0.066z"/>
   <path class="fil1" d="M0.245 0.327c0.014,-0.004 0.036,0.002 0.054,0.008 0.006,0.001 0.012,0.003 0.015,0.004 0.024,0.005 0.05,0.008 0.077,0.008 0.026,0 0.053,-0.003 0.076,-0.008 0.004,-0.001 0.009,-0.003 0.015,-0.004 0.019,-0.006 0.04,-0.012 0.054,-0.008 0.011,0.003 0.029,0.014 0.043,0.031 0.009,0.012 0.017,0.028 0.019,0.046 0.003,0.038 0.008,0.078 0.01,0.116 0,0.008 -0.004,0.015 -0.009,0.02 -0.005,0.004 -0.011,0.008 -0.018,0.008l-0.003 0 -0.374 0 -0.003 0c-0.007,0 -0.014,-0.004 -0.019,-0.008 -0.005,-0.005 -0.008,-0.012 -0.008,-0.02l0.01 -0.116c0.002,-0.018 0.009,-0.034 0.019,-0.046 0.013,-0.017 0.031,-0.028 0.042,-0.031zm0.048 0.03c-0.016,-0.004 -0.034,-0.009 -0.042,-0.007 -0.007,0.002 -0.02,0.01 -0.03,0.023 -0.007,0.009 -0.012,0.02 -0.014,0.033l-0.009 0.114c0,0 0,0 0,0 0,0.001 0,0.002 0.001,0.003 0.001,0.001 0.002,0.002 0.004,0.002 0.095,0.003 0.287,0.009 0.375,0 0.002,0 0.004,-0.001 0.005,-0.002 0,-0.001 0.001,-0.002 0.001,-0.003 0.001,-0.026 -0.007,-0.085 -0.01,-0.114 -0.001,-0.013 -0.007,-0.024 -0.014,-0.033 -0.01,-0.013 -0.022,-0.021 -0.029,-0.023 -0.009,-0.002 -0.027,0.003 -0.042,0.007 -0.006,0.002 -0.011,0.003 -0.016,0.005 -0.026,0.006 -0.054,0.009 -0.082,0.009 -0.028,0 -0.056,-0.003 -0.082,-0.009 -0.006,-0.002 -0.011,-0.003 -0.016,-0.005z"/>
   <path class="fil0" d="M0.39 0.025c0.076,0 0.138,0.061 0.138,0.137 0,0.076 -0.062,0.138 -0.138,0.138 -0.076,0 -0.137,-0.062 -0.137,-0.138 0,-0.076 0.061,-0.137 0.137,-0.137z"/>
   <path class="fil1" d="M0.39 0.013c0.041,0 0.079,0.017 0.106,0.044 0.027,0.027 0.043,0.064 0.043,0.105 0,0.041 -0.016,0.079 -0.043,0.106l-0.001 0c-0.027,0.027 -0.064,0.043 -0.105,0.043 -0.041,0 -0.078,-0.016 -0.105,-0.043 -0.027,-0.027 -0.044,-0.065 -0.044,-0.106 0,-0.041 0.017,-0.078 0.044,-0.105 0.027,-0.027 0.064,-0.044 0.105,-0.044zm0.089 0.06c-0.023,-0.022 -0.054,-0.036 -0.089,-0.036 -0.035,0 -0.066,0.014 -0.089,0.036 -0.022,0.023 -0.037,0.054 -0.037,0.089 0,0.035 0.015,0.066 0.037,0.089 0.023,0.023 0.054,0.037 0.089,0.037 0.035,0 0.066,-0.014 0.088,-0.036l0.001 -0.001c0.023,-0.023 0.037,-0.054 0.037,-0.089 0,-0.035 -0.014,-0.066 -0.037,-0.089z"/>
   <path class="fil1" d="M0.138 0.443c0.006,0 0.011,0.005 0.011,0.012 0,0.006 -0.005,0.012 -0.011,0.012l-0.111 0 -0.002 0c-0.007,-0.001 -0.013,-0.004 -0.017,-0.008 -0.005,-0.005 -0.008,-0.011 -0.008,-0.018 0.002,-0.033 0.005,-0.069 0.009,-0.101 0.001,-0.016 0.008,-0.03 0.016,-0.041 0.012,-0.015 0.028,-0.024 0.038,-0.027 0.013,-0.003 0.031,0.002 0.047,0.007 0.006,0.001 0.01,0.003 0.014,0.003 0.012,0.003 0.025,0.005 0.039,0.006 0.014,0.002 0.028,0.002 0.042,0.001 0.006,0 0.012,0.005 0.012,0.011 0,0.007 -0.005,0.012 -0.011,0.013 -0.015,0 -0.031,0 -0.045,-0.001 -0.015,-0.001 -0.029,-0.004 -0.043,-0.007 -0.005,-0.001 -0.009,-0.002 -0.014,-0.004 -0.013,-0.003 -0.029,-0.008 -0.035,-0.006 -0.006,0.001 -0.017,0.008 -0.025,0.019 -0.006,0.007 -0.011,0.017 -0.012,0.028 -0.002,0.03 -0.008,0.07 -0.008,0.099 0,0 0,0.001 0,0.001 0.001,0.001 0.002,0.001 0.003,0.001 0,0 0,0 0,0l0.111 0z"/>
   <path class="fil1" d="M0.216 0.235c0.006,-0.002 0.013,0.002 0.015,0.008 0.001,0.006 -0.003,0.013 -0.009,0.014 -0.005,0.002 -0.011,0.003 -0.016,0.004 -0.006,0 -0.012,0.001 -0.017,0.001 -0.036,0 -0.069,-0.015 -0.093,-0.039l0 0c-0.024,-0.024 -0.038,-0.056 -0.038,-0.092 0,-0.036 0.015,-0.069 0.038,-0.093 0.024,-0.023 0.057,-0.038 0.093,-0.038 0.012,0 0.025,0.002 0.036,0.005 0.012,0.004 0.024,0.009 0.034,0.016 0.005,0.003 0.007,0.01 0.004,0.016 -0.004,0.005 -0.011,0.007 -0.017,0.003 -0.008,-0.005 -0.017,-0.009 -0.027,-0.012 -0.01,-0.003 -0.02,-0.004 -0.03,-0.004 -0.03,0 -0.057,0.012 -0.076,0.031 -0.02,0.019 -0.031,0.046 -0.031,0.076 0,0.029 0.011,0.056 0.03,0.075l0.001 0.001c0.019,0.019 0.046,0.031 0.076,0.031 0.005,0 0.009,0 0.014,-0.001 0.004,0 0.009,-0.001 0.013,-0.002z"/>
   <path class="fil1" d="M0.643 0.467c-0.007,0 -0.012,-0.006 -0.012,-0.012 0,-0.007 0.005,-0.012 0.012,-0.012l0.11 0c0,0 0,0 0,0 0.001,0 0.002,0 0.003,-0.001 0,0 0.001,-0.001 0.001,-0.001 0,-0.028 -0.006,-0.07 -0.009,-0.099 -0.001,-0.011 -0.006,-0.021 -0.012,-0.028 -0.008,-0.011 -0.019,-0.018 -0.024,-0.019 -0.007,-0.002 -0.022,0.003 -0.036,0.006 -0.004,0.002 -0.009,0.003 -0.014,0.004 -0.014,0.003 -0.028,0.006 -0.043,0.007 -0.014,0.001 -0.029,0.001 -0.045,0.001 -0.006,-0.001 -0.011,-0.006 -0.011,-0.013 0,-0.006 0.006,-0.011 0.012,-0.011 0.014,0.001 0.028,0.001 0.042,-0.001 0.014,-0.001 0.027,-0.003 0.04,-0.006 0.003,0 0.008,-0.002 0.013,-0.003 0.016,-0.005 0.035,-0.01 0.048,-0.007 0.009,0.003 0.025,0.012 0.037,0.027 0.008,0.011 0.015,0.025 0.017,0.041 0.003,0.032 0.006,0.068 0.008,0.101 0,0.007 -0.003,0.013 -0.008,0.018 -0.004,0.004 -0.01,0.007 -0.017,0.008l-0.002 0 -0.11 0z"/>
   <path class="fil1" d="M0.558 0.257c-0.006,-0.001 -0.01,-0.008 -0.008,-0.014 0.001,-0.006 0.008,-0.01 0.014,-0.008 0.005,0.001 0.009,0.002 0.014,0.002 0.004,0.001 0.009,0.001 0.013,0.001 0.03,0 0.057,-0.012 0.076,-0.031l0.001 -0.001c0.019,-0.019 0.031,-0.046 0.031,-0.075 0,-0.03 -0.012,-0.057 -0.032,-0.076 -0.019,-0.019 -0.046,-0.031 -0.076,-0.031 -0.01,0 -0.02,0.001 -0.03,0.004 -0.009,0.003 -0.019,0.007 -0.027,0.012 -0.006,0.004 -0.013,0.002 -0.016,-0.003 -0.004,-0.006 -0.002,-0.013 0.003,-0.016 0.011,-0.007 0.022,-0.012 0.034,-0.016 0.012,-0.003 0.024,-0.005 0.036,-0.005 0.037,0 0.069,0.015 0.093,0.038 0.024,0.024 0.038,0.057 0.038,0.093 0,0.036 -0.014,0.068 -0.037,0.092l-0.001 0c-0.024,0.024 -0.056,0.039 -0.093,0.039 -0.005,0 -0.011,-0.001 -0.016,-0.001 -0.006,-0.001 -0.012,-0.002 -0.017,-0.004z"/>
  </g>
 </g>
</svg>
