<?xml version="1.0" encoding="UTF-8"?>
<!DOCTYPE svg PUBLIC "-//W3C//DTD SVG 1.1//EN" "http://www.w3.org/Graphics/SVG/1.1/DTD/svg11.dtd">
<!-- Creator: CorelDRAW 2018 (64-Bit) -->
<svg xmlns="http://www.w3.org/2000/svg" xml:space="preserve" width="25px" height="31px" version="1.1" style="shape-rendering:geometricPrecision; text-rendering:geometricPrecision; image-rendering:optimizeQuality; fill-rule:evenodd; clip-rule:evenodd"
viewBox="0 0 0.341 0.417"
 xmlns:xlink="http://www.w3.org/1999/xlink">
 <defs>
  <style type="text/css">
   <![CDATA[
    .fil0 {fill:gray;fill-rule:nonzero}
   ]]>
  </style>
 </defs>
 <g id="Layer_x0020_1">
  <metadata id="CorelCorpID_0Corel-Layer"/>
  <g id="_2349169760128">
   <path class="fil0" d="M0.248 0.239c-0.012,-0.023 -0.026,-0.042 -0.039,-0.061l0 0c-0.023,-0.032 -0.043,-0.06 -0.043,-0.09 0,-0.025 0.01,-0.047 0.026,-0.062 0.016,-0.016 0.037,-0.026 0.062,-0.026 0.024,0 0.046,0.01 0.062,0.026l0 0c0.015,0.016 0.025,0.037 0.025,0.062 0,0.03 -0.02,0.058 -0.043,0.09 -0.013,0.019 -0.027,0.038 -0.038,0.061 -0.002,0.003 -0.006,0.004 -0.01,0.002 -0.001,0 -0.002,-0.001 -0.002,-0.002zm-0.028 -0.068c0.011,0.015 0.023,0.032 0.034,0.051 0.01,-0.019 0.022,-0.036 0.033,-0.051 0.022,-0.031 0.041,-0.057 0.041,-0.083 0,-0.021 -0.009,-0.039 -0.022,-0.053 -0.013,-0.013 -0.032,-0.022 -0.052,-0.022 -0.021,0 -0.039,0.009 -0.053,0.022 -0.013,0.014 -0.022,0.032 -0.022,0.053 0,0.026 0.019,0.052 0.041,0.082l0 0.001zm0.034 -0.139c0.015,0 0.029,0.006 0.039,0.016l0 0c0.01,0.01 0.016,0.024 0.016,0.04 0,0.015 -0.006,0.029 -0.016,0.039 -0.01,0.01 -0.024,0.016 -0.039,0.016 -0.016,0 -0.03,-0.006 -0.04,-0.016 -0.01,-0.01 -0.016,-0.024 -0.016,-0.039 0,-0.016 0.006,-0.03 0.016,-0.04l0.001 0c0.01,-0.01 0.023,-0.016 0.039,-0.016zm0.029 0.026c-0.007,-0.008 -0.018,-0.013 -0.029,-0.013 -0.012,0 -0.022,0.005 -0.03,0.012l0 0.001c-0.008,0.007 -0.012,0.018 -0.012,0.03 0,0.011 0.004,0.022 0.012,0.029 0.007,0.008 0.018,0.013 0.03,0.013 0.011,0 0.022,-0.005 0.029,-0.013 0.008,-0.007 0.013,-0.018 0.013,-0.029 0,-0.012 -0.005,-0.023 -0.013,-0.03z"/>
   <path class="fil0" d="M0.064 0.213c-0.002,-0.003 0,-0.007 0.003,-0.009 0.003,-0.002 0.007,0 0.009,0.003l0.002 0.003c0.005,-0.006 0.013,-0.013 0.023,-0.02 0.011,-0.007 0.026,-0.01 0.035,-0.011l-0.008 -0.026c-0.001,-0.002 0,-0.004 0.001,-0.006l0.011 -0.016 -0.004 -0.003c-0.012,0.006 -0.049,0.025 -0.065,0.048 -0.01,0.015 -0.017,0.027 -0.019,0.04l0 0c-0.002,0.013 0.001,0.026 0.01,0.042 0.001,-0.002 0.001,-0.003 0.003,-0.005l0.014 -0.01c0.002,-0.002 0.006,-0.002 0.008,0l0.075 0.055c0.003,0.002 0.003,0.007 0.001,0.009l-0.01 0.013 -0.003 0.016c-0.001,0.003 -0.002,0.004 -0.004,0.005 0,0 -0.009,0.004 -0.017,0.011 -0.006,0.005 -0.003,0.016 -0.003,0.016 0,0.001 0,0.003 0,0.004 -0.001,0.003 -0.005,0.005 -0.008,0.004 0,0 -0.015,-0.003 -0.025,-0.011 -0.005,-0.004 -0.01,-0.011 -0.013,-0.018 -0.004,-0.007 -0.007,-0.015 -0.009,-0.021 -0.005,-0.011 -0.025,-0.039 -0.025,-0.039 -0.001,-0.001 -0.002,-0.003 -0.001,-0.005l0.004 -0.02c-0.01,-0.017 -0.012,-0.033 -0.01,-0.048l0 0c0.002,-0.015 0.01,-0.029 0.021,-0.045 0.02,-0.031 0.071,-0.053 0.075,-0.055 0.002,-0.001 0.005,0 0.007,0.001l0.011 0.01c0.003,0.002 0.003,0.006 0.001,0.009l-0.012 0.018 0.009 0.03c0,0.001 0,0.001 0,0.002 0,0.004 -0.002,0.007 -0.006,0.007 0,0 -0.022,0.001 -0.037,0.011 -0.015,0.009 -0.026,0.023 -0.026,0.024 -0.001,0.001 -0.002,0.001 -0.003,0.002 -0.003,0.002 -0.007,0 -0.009,-0.003l-0.006 -0.012zm-0.001 0.049l-0.004 0.02c0.005,0.007 0.02,0.029 0.024,0.039 0.002,0.006 0.005,0.013 0.009,0.02 0.003,0.006 0.006,0.011 0.009,0.014 0.003,0.002 0.008,0.004 0.011,0.006 0.001,-0.006 0.002,-0.014 0.008,-0.019 0.006,-0.005 0.013,-0.009 0.017,-0.012l0.004 -0.014c0,-0.001 0.001,-0.002 0.001,-0.003l0.006 -0.008 -0.065 -0.049 -0.01 0.008c-0.003,0.002 -0.007,0.002 -0.009,-0.001l-0.001 -0.001z"/>
   <path class="fil0" d="M0.191 0.213c0.002,-0.004 0.006,-0.005 0.009,-0.003 0.003,0.002 0.005,0.006 0.003,0.009l-0.005 0.01 0 0.021 0.02 0.018 0.022 -0.007c0.003,-0.001 0.006,0 0.007,0.003l0.012 0.022c0.001,0.002 0.002,0.003 0.001,0.005l-0.006 0.019 0 0.02c0.011,-0.012 0.027,-0.032 0.032,-0.046 0.002,-0.008 0.005,-0.018 0.006,-0.027 0.001,-0.009 0.002,-0.017 0.001,-0.024 0,-0.003 0.002,-0.007 0.006,-0.007 0.004,0 0.007,0.002 0.007,0.006 0.001,0.008 0.001,0.017 0,0.026 -0.002,0.011 -0.005,0.022 -0.008,0.03 -0.008,0.026 -0.046,0.063 -0.046,0.063 -0.001,0.001 -0.003,0.002 -0.004,0.002 -0.004,0 -0.007,-0.003 -0.007,-0.006l0 -0.038c-0.001,-0.001 0,-0.002 0,-0.002l0.005 -0.017 -0.008 -0.015 -0.02 0.006c-0.002,0.001 -0.005,0.001 -0.007,-0.001l-0.024 -0.022c-0.002,-0.001 -0.003,-0.003 -0.003,-0.005l0 -0.026c0,-0.001 0,-0.002 0.001,-0.003l0.006 -0.011z"/>
   <path class="fil0" d="M0.318 0.204c-0.001,-0.004 0.001,-0.007 0.005,-0.008 0.004,-0.001 0.007,0.001 0.008,0.004 0.003,0.008 0.004,0.016 0.005,0.024 0.001,0.007 0.002,0.015 0.002,0.024 0,0.046 -0.019,0.089 -0.049,0.119 -0.031,0.031 -0.073,0.05 -0.12,0.05 -0.047,0 -0.089,-0.019 -0.119,-0.05 -0.031,-0.03 -0.05,-0.073 -0.05,-0.119 0,-0.041 0.014,-0.078 0.038,-0.107 0.024,-0.03 0.058,-0.051 0.097,-0.059 0.003,-0.001 0.007,0.002 0.008,0.005 0,0.004 -0.002,0.007 -0.006,0.008 -0.035,0.007 -0.066,0.027 -0.089,0.054 -0.021,0.027 -0.035,0.061 -0.035,0.099 0,0.043 0.018,0.081 0.046,0.11 0.028,0.028 0.067,0.045 0.11,0.045 0.043,0 0.082,-0.017 0.11,-0.045 0.028,-0.029 0.046,-0.067 0.046,-0.11 0,-0.008 -0.001,-0.015 -0.002,-0.023 -0.001,-0.007 -0.003,-0.014 -0.005,-0.021z"/>
  </g>
 </g>
</svg>
