<?xml version="1.0" encoding="UTF-8"?>
<!DOCTYPE svg PUBLIC "-//W3C//DTD SVG 1.1//EN" "http://www.w3.org/Graphics/SVG/1.1/DTD/svg11.dtd">
<!-- Creator: CorelDRAW 2018 (64-Bit) -->
<svg xmlns="http://www.w3.org/2000/svg" xml:space="preserve" width="24px" height="24px" version="1.1" style="shape-rendering:geometricPrecision; text-rendering:geometricPrecision; image-rendering:optimizeQuality; fill-rule:evenodd; clip-rule:evenodd"
viewBox="0 0 1.569 1.57"
 xmlns:xlink="http://www.w3.org/1999/xlink">
 <defs>
  <style type="text/css">
   <![CDATA[
    .fil0 {fill:gray;fill-rule:nonzero}
   ]]>
  </style>
 </defs>
 <g id="Layer_x0020_1">
  <metadata id="CorelCorpID_0Corel-Layer"/>
  <g id="_2418398763808">
   <path class="fil0" d="M0.901 0.065c-0.018,-0.001 -0.032,-0.016 -0.031,-0.034 0,-0.018 0.015,-0.032 0.033,-0.031 0.086,0.003 0.171,0.023 0.251,0.058 0.077,0.034 0.149,0.082 0.212,0.145 0.063,0.063 0.111,0.135 0.145,0.212 0.035,0.08 0.055,0.165 0.058,0.251 0.001,0.018 -0.013,0.033 -0.031,0.033 -0.018,0.001 -0.033,-0.013 -0.034,-0.031 -0.003,-0.077 -0.021,-0.155 -0.052,-0.227 -0.031,-0.07 -0.075,-0.135 -0.132,-0.192 -0.057,-0.057 -0.122,-0.101 -0.192,-0.132 -0.072,-0.031 -0.15,-0.049 -0.227,-0.052z"/>
   <path class="fil0" d="M1.281 0.659c0.002,0.018 -0.012,0.034 -0.03,0.035 -0.018,0.002 -0.034,-0.011 -0.035,-0.029 -0.003,-0.04 -0.014,-0.079 -0.031,-0.116 -0.016,-0.035 -0.039,-0.068 -0.068,-0.097 -0.029,-0.029 -0.062,-0.052 -0.097,-0.068 -0.037,-0.017 -0.076,-0.028 -0.116,-0.031 -0.018,-0.001 -0.031,-0.017 -0.029,-0.035 0.001,-0.018 0.017,-0.032 0.035,-0.03 0.047,0.004 0.093,0.016 0.137,0.036 0.042,0.02 0.082,0.047 0.116,0.082 0.035,0.034 0.062,0.074 0.082,0.116 0.02,0.044 0.032,0.09 0.036,0.137z"/>
   <path class="fil0" d="M0.611 0.958c-0.039,-0.039 -0.069,-0.073 -0.093,-0.105 -0.024,-0.033 -0.043,-0.064 -0.06,-0.1 -0.012,-0.025 -0.016,-0.05 -0.015,-0.073 0,-0.029 0.009,-0.055 0.021,-0.072 0.006,-0.01 0.014,-0.018 0.022,-0.025 0.008,-0.008 0.015,-0.013 0.023,-0.019 0.007,-0.006 0.015,-0.012 0.022,-0.018 0.008,-0.006 0.016,-0.014 0.023,-0.022 0.014,-0.015 0.02,-0.033 0.022,-0.05 0.003,-0.025 -0.002,-0.048 -0.008,-0.058 -0.016,-0.028 -0.037,-0.062 -0.062,-0.1 -0.026,-0.04 -0.054,-0.082 -0.083,-0.125l-0.033 -0.049c-0.009,-0.014 -0.02,-0.024 -0.031,-0.03 -0.012,-0.006 -0.025,-0.01 -0.039,-0.01 -0.009,0 -0.018,0.002 -0.025,0.003 -0.011,0.003 -0.02,0.006 -0.027,0.009 -0.014,0.006 -0.055,0.035 -0.099,0.082 -0.029,0.031 -0.058,0.069 -0.081,0.113 -0.032,0.06 -0.041,0.182 0.035,0.354 0.056,0.127 0.158,0.28 0.331,0.452 0.139,0.139 0.262,0.23 0.366,0.288 0.159,0.088 0.272,0.102 0.326,0.102 0.023,0 0.044,-0.002 0.064,-0.006 0.019,-0.005 0.036,-0.01 0.05,-0.018 0.043,-0.023 0.082,-0.052 0.113,-0.081 0.047,-0.044 0.076,-0.085 0.082,-0.099 0.007,-0.015 0.016,-0.044 0.009,-0.073 -0.004,-0.016 -0.015,-0.034 -0.037,-0.049l-0.05 -0.033c-0.043,-0.029 -0.085,-0.057 -0.124,-0.083 -0.038,-0.025 -0.072,-0.046 -0.1,-0.062 -0.004,-0.002 -0.011,-0.005 -0.019,-0.006 -0.007,-0.002 -0.016,-0.003 -0.025,-0.003 -0.01,0 -0.023,0.001 -0.036,0.006 -0.009,0.003 -0.018,0.008 -0.028,0.017 -0.017,0.015 -0.029,0.031 -0.04,0.045 -0.006,0.008 -0.011,0.015 -0.019,0.023 -0.007,0.009 -0.015,0.016 -0.025,0.022l0 0c-0.004,0.003 -0.014,0.008 -0.027,0.013 -0.012,0.005 -0.029,0.009 -0.049,0.009 -0.012,0 -0.024,-0.002 -0.035,-0.005 -0.012,-0.002 -0.023,-0.006 -0.034,-0.011 -0.036,-0.017 -0.067,-0.036 -0.1,-0.06 -0.032,-0.024 -0.066,-0.054 -0.105,-0.092l0 -0.001zm-0.04 -0.144c0.021,0.03 0.049,0.061 0.086,0.098 0.037,0.037 0.068,0.064 0.098,0.086 0.029,0.022 0.057,0.038 0.088,0.054 0.007,0.003 0.014,0.005 0.021,0.007 0.007,0.001 0.014,0.002 0.021,0.002 0.011,0 0.021,-0.002 0.028,-0.004 0.006,-0.003 0.01,-0.005 0.012,-0.006 0.005,-0.004 0.009,-0.007 0.013,-0.012 0.004,-0.004 0.009,-0.011 0.015,-0.018 0.012,-0.016 0.026,-0.035 0.049,-0.055 0.016,-0.014 0.033,-0.023 0.049,-0.029 0.022,-0.008 0.042,-0.01 0.058,-0.01 0.014,0 0.027,0.001 0.039,0.004 0.015,0.003 0.028,0.008 0.036,0.013 0.03,0.017 0.066,0.039 0.105,0.065 0.038,0.024 0.081,0.053 0.125,0.083l0.05 0.033c0.037,0.025 0.056,0.057 0.064,0.088 0.011,0.047 -0.003,0.091 -0.013,0.114 -0.008,0.019 -0.044,0.07 -0.098,0.121 -0.034,0.032 -0.077,0.065 -0.127,0.091 -0.02,0.01 -0.042,0.018 -0.067,0.023 -0.024,0.005 -0.05,0.008 -0.077,0.008 -0.061,0 -0.186,-0.015 -0.358,-0.11 -0.109,-0.061 -0.237,-0.155 -0.381,-0.298 -0.179,-0.179 -0.285,-0.339 -0.344,-0.473 -0.085,-0.193 -0.071,-0.336 -0.033,-0.41 0.026,-0.05 0.059,-0.093 0.091,-0.127 0.051,-0.054 0.102,-0.09 0.121,-0.098 0.01,-0.004 0.023,-0.009 0.039,-0.012 0.012,-0.003 0.025,-0.005 0.039,-0.005 0.025,0 0.049,0.006 0.07,0.018 0.021,0.011 0.039,0.028 0.054,0.05l0.033 0.05c0.03,0.044 0.058,0.087 0.083,0.125 0.026,0.039 0.048,0.075 0.065,0.105 0.01,0.018 0.021,0.057 0.016,0.097 -0.003,0.028 -0.014,0.058 -0.038,0.085 -0.01,0.012 -0.02,0.021 -0.029,0.029 -0.01,0.008 -0.018,0.014 -0.026,0.02 -0.007,0.006 -0.014,0.011 -0.018,0.015 -0.005,0.004 -0.009,0.008 -0.012,0.012 -0.005,0.009 -0.01,0.023 -0.01,0.038 -0.001,0.014 0.002,0.029 0.009,0.045 0.015,0.031 0.032,0.059 0.054,0.088z"/>
  </g>
 </g>
</svg>
