<?xml version="1.0" encoding="UTF-8"?>
<!DOCTYPE svg PUBLIC "-//W3C//DTD SVG 1.1//EN" "http://www.w3.org/Graphics/SVG/1.1/DTD/svg11.dtd">
<!-- Creator: CorelDRAW 2018 (64-Bit) -->
<svg xmlns="http://www.w3.org/2000/svg" xml:space="preserve" width="17px" height="17px" version="1.1" style="shape-rendering:geometricPrecision; text-rendering:geometricPrecision; image-rendering:optimizeQuality; fill-rule:evenodd; clip-rule:evenodd"
viewBox="0 0 0.863 0.863"
 xmlns:xlink="http://www.w3.org/1999/xlink">
 <defs>
  <style type="text/css">
   <![CDATA[
    .fil0 {fill:gray;fill-rule:nonzero}
   ]]>
  </style>
 </defs>
 <g id="Layer_x0020_1">
  <metadata id="CorelCorpID_0Corel-Layer"/>
  <path class="fil0" d="M0.35 0c0.096,0 0.184,0.039 0.247,0.102l0.002 0.002c0.062,0.063 0.101,0.15 0.101,0.246 0,0.096 -0.04,0.184 -0.103,0.247 -0.063,0.063 -0.151,0.103 -0.247,0.103 -0.097,0 -0.184,-0.04 -0.247,-0.103 -0.064,-0.063 -0.103,-0.151 -0.103,-0.247 0,-0.097 0.039,-0.184 0.102,-0.248l0.002 -0.001c0.063,-0.062 0.15,-0.101 0.246,-0.101zm0.211 0.138c-0.054,-0.054 -0.129,-0.087 -0.211,-0.087 -0.082,0 -0.156,0.033 -0.21,0.086l-0.002 0.001c-0.054,0.054 -0.087,0.129 -0.087,0.212 0,0.082 0.033,0.157 0.087,0.211 0.054,0.054 0.129,0.088 0.212,0.088 0.082,0 0.157,-0.034 0.211,-0.088 0.054,-0.054 0.088,-0.129 0.088,-0.211 0,-0.082 -0.033,-0.157 -0.086,-0.21l-0.002 -0.002z"/>
  <path class="fil0" d="M0.561 0.597c-0.01,-0.01 -0.01,-0.026 0,-0.036 0.01,-0.01 0.026,-0.01 0.036,0l0.258 0.258c0.01,0.01 0.01,0.026 0,0.036 -0.01,0.01 -0.026,0.01 -0.036,0l-0.258 -0.258z"/>
 </g>
</svg>
