<?xml version="1.0" encoding="UTF-8"?>
<!DOCTYPE svg PUBLIC "-//W3C//DTD SVG 1.1//EN" "http://www.w3.org/Graphics/SVG/1.1/DTD/svg11.dtd">
<!-- Creator: CorelDRAW 2018 (64-Bit) -->
<svg xmlns="http://www.w3.org/2000/svg" xml:space="preserve" width="40px" height="40px" version="1.1" style="shape-rendering:geometricPrecision; text-rendering:geometricPrecision; image-rendering:optimizeQuality; fill-rule:evenodd; clip-rule:evenodd"
viewBox="0 0 9.608 9.608"
 xmlns:xlink="http://www.w3.org/1999/xlink">
 <defs>
  <style type="text/css">
   <![CDATA[
    .str0 {stroke:gray;stroke-width:0.24;stroke-linecap:round;stroke-linejoin:round;stroke-miterlimit:2.61313}
    .fil1 {fill:none}
    .fil0 {fill:white}
   ]]>
  </style>
   <clipPath id="id0">
    <path d="M4.804 0c2.653,0 4.804,2.151 4.804,4.804 0,2.653 -2.151,4.804 -4.804,4.804 -2.653,0 -4.804,-2.151 -4.804,-4.804 0,-2.653 2.151,-4.804 4.804,-4.804z"/>
   </clipPath>
 </defs>
 <g id="Layer_x0020_1">
  <metadata id="CorelCorpID_0Corel-Layer"/>
  <path class="fil0" d="M4.804 0c2.653,0 4.804,2.151 4.804,4.804 0,2.653 -2.151,4.804 -4.804,4.804 -2.653,0 -4.804,-2.151 -4.804,-4.804 0,-2.653 2.151,-4.804 4.804,-4.804z"/>
  <g style="clip-path:url(#id0)">
   <g id="_2657291499728">
    <g>
     <path id="1" class="fil1 str0" d="M5.775 1.818c-0.788,0.836 -1.965,0.867 -2.581,1.15l0 1.069c0,0.584 0.622,1.37 1.61,1.659 0.988,-0.289 1.61,-1.075 1.61,-1.659l0 -1.069c-0.257,-0.239 -0.492,-0.23 -0.639,-1.15z"/>
     <path class="fil1 str0" d="M6.414 3.901c0.202,0 0.365,-0.167 0.365,-0.374 0,-0.206 -0.163,-0.373 -0.365,-0.373"/>
     <path class="fil1 str0" d="M3.194 3.901c-0.202,0 -0.365,-0.167 -0.365,-0.374 0,-0.206 0.163,-0.373 0.365,-0.373"/>
     <path class="fil1 str0" d="M3.733 6.504c-0.561,-0.662 -1.154,-1.664 -1.183,-2.944 -0.03,-1.281 0.939,-2.838 2.304,-2.784 1.364,0.055 2.483,1.014 2.5,2.937 0.011,1.318 -0.589,2.562 -1.196,3.458 -0.409,0.602 -0.639,1.133 0.063,1.662 -0.379,-0.025 -1.333,-0.169 -1.285,-1.228 0.04,-0.913 0.483,-0.868 0.629,-1.583 0.037,-0.181 0.056,-0.41 0.044,-0.716"/>
     <path class="fil1 str0" d="M3.973 5.329c0.404,1.199 -0.613,1.478 -1.608,1.603 -0.798,0.099 -0.938,0.005 -1.538,0.713"/>
     <path class="fil1 str0" d="M6.429 6.769c0.251,0.077 0.533,0.124 0.814,0.16 0.797,0.099 0.938,0.005 1.538,0.713"/>
     <path class="fil1 str0" d="M5.607 5.415c-0.069,0.24 -0.079,0.441 -0.041,0.609"/>
     <path class="fil1 str0" d="M5.802 7.943c0.815,-0.154 1.523,-0.492 2.029,-0.947"/>
     <path class="fil1 str0" d="M1.777 6.999c0.703,0.631 1.797,1.037 3.025,1.037 0.055,0 0.11,-0.001 0.164,-0.002"/>
    </g>
   </g>
  </g>
  <path class="fil1" d="M4.804 0c2.653,0 4.804,2.151 4.804,4.804 0,2.653 -2.151,4.804 -4.804,4.804 -2.653,0 -4.804,-2.151 -4.804,-4.804 0,-2.653 2.151,-4.804 4.804,-4.804z"/>
 </g>
</svg>
