<?xml version="1.0" encoding="UTF-8"?>
<!DOCTYPE svg PUBLIC "-//W3C//DTD SVG 1.1//EN" "http://www.w3.org/Graphics/SVG/1.1/DTD/svg11.dtd">
<!-- Creator: CorelDRAW 2018 (64-Bit) -->
<svg xmlns="http://www.w3.org/2000/svg" xml:space="preserve" width="20px" height="21px" version="1.1" style="shape-rendering:geometricPrecision; text-rendering:geometricPrecision; image-rendering:optimizeQuality; fill-rule:evenodd; clip-rule:evenodd"
viewBox="0 0 11.587 12.431"
 xmlns:xlink="http://www.w3.org/1999/xlink">
 <defs>
  <style type="text/css">
   <![CDATA[
    .str0 {stroke:gray;stroke-width:0.592;stroke-linecap:round;stroke-linejoin:round;stroke-miterlimit:2.61313}
    .fil0 {fill:none}
   ]]>
  </style>
 </defs>
 <g id="Layer_x0020_1">
  <metadata id="CorelCorpID_0Corel-Layer"/>
  <g id="_2657293065488">
   <path class="fil0 str0" d="M2.06 5.653l7.467 0c0.971,0 1.764,0.794 1.764,1.764l0 4.718 -10.995 0 0 -4.718c0,-0.97 0.794,-1.764 1.764,-1.764z"/>
   <path class="fil0 str0" d="M0.301 8.506c0.599,-0.252 0.693,-1.031 1.542,-1.027 1.021,-0.004 0.951,1.119 1.975,1.105 1.026,0.014 0.955,-1.109 1.976,-1.105 1.02,-0.004 0.95,1.119 1.975,1.105 1.025,0.014 0.955,-1.109 1.975,-1.105 0.833,-0.003 0.939,0.745 1.508,1.012"/>
   <g>
    <path class="fil0 str0" d="M3.013 0.776c-0.212,0.396 -0.52,0.664 -0.52,0.951 0,0.288 0.233,0.521 0.52,0.521 0.288,0 0.521,-0.233 0.521,-0.521 0,-0.287 -0.309,-0.555 -0.521,-0.951z"/>
    <rect class="fil0 str0" x="2.564" y="2.988" width="0.899" height="2.635"/>
    <g>
     <path class="fil0 str0" d="M5.794 0.296c-0.212,0.396 -0.52,0.664 -0.52,0.951 0,0.288 0.233,0.52 0.52,0.52 0.287,0 0.52,-0.232 0.52,-0.52 0,-0.287 -0.308,-0.555 -0.52,-0.951z"/>
     <rect class="fil0 str0" x="5.344" y="2.507" width="0.899" height="3.145"/>
    </g>
    <path class="fil0 str0" d="M8.574 0.776c-0.212,0.396 -0.52,0.664 -0.52,0.951 0,0.288 0.233,0.521 0.52,0.521 0.287,0 0.52,-0.233 0.52,-0.521 0,-0.287 -0.308,-0.555 -0.52,-0.951z"/>
    <rect class="fil0 str0" x="8.125" y="2.988" width="0.899" height="2.665"/>
   </g>
  </g>
 </g>
</svg>
