<?xml version="1.0" encoding="UTF-8"?>
<!DOCTYPE svg PUBLIC "-//W3C//DTD SVG 1.1//EN" "http://www.w3.org/Graphics/SVG/1.1/DTD/svg11.dtd">
<!-- Creator: CorelDRAW 2018 (64-Bit) -->
<svg xmlns="http://www.w3.org/2000/svg" xml:space="preserve" width="70px" height="70px" version="1.1" style="shape-rendering:geometricPrecision; text-rendering:geometricPrecision; image-rendering:optimizeQuality; fill-rule:evenodd; clip-rule:evenodd"
viewBox="0 0 5.833 5.833"
 xmlns:xlink="http://www.w3.org/1999/xlink">
 <defs>
  <style type="text/css">
   <![CDATA[
    .fil0 {fill:#DCE1E6}
    .fil1 {fill:white}
   ]]>
  </style>
 </defs>
 <g id="Layer_x0020_1">
  <metadata id="CorelCorpID_0Corel-Layer"/>
  <g id="_2375422698672">
   <rect class="fil0" width="5.833" height="5.833"/>
   <path class="fil1" d="M1.208 2.482l0 1.965 1.637 0 0 -2.129 -1.637 0.164zm0.274 0.895l1.089 -0.046c0.018,-0.001 0.032,0.013 0.033,0.03l0 0.239c0,0.017 -0.014,0.032 -0.031,0.032l-1.091 0.032c-0.017,0.001 -0.032,-0.013 -0.032,-0.03l-0.001 -0.225c0,-0.018 0.015,-0.032 0.032,-0.032l0.001 0zm0.001 0.59l1.089 -0.014c0.018,0 0.032,0.014 0.032,0.031l0 0.238c0,0.018 -0.014,0.032 -0.031,0.032l-1.092 0c-0.017,0 -0.032,-0.014 -0.032,-0.032l0 -0.224c0,-0.017 0.015,-0.031 0.032,-0.031l0.002 0zm-0.003 -1.179l1.09 -0.079c0.018,-0.002 0.033,0.011 0.034,0.029l0 0.24c0,0.017 -0.014,0.032 -0.031,0.032l-1.09 0.065c-0.018,0.001 -0.032,-0.012 -0.033,-0.03l-0.001 -0.225c0,-0.018 0.014,-0.032 0.031,-0.032z"/>
   <polygon class="fil1" points="3.608,2.557 3.021,2.346 3.021,4.447 3.608,4.447 "/>
   <path class="fil1" d="M2.744 1.513l0.005 0.64 0.175 -0.018c0.013,-0.001 0.026,0 0.038,0.005l0.756 0.271c0.038,0.01 0.066,0.044 0.066,0.085l0 1.951 0.232 0 0 -3.06 -1.272 0.126z"/>
   <polygon class="fil1" points="4.625,1.57 4.191,1.414 4.191,4.447 4.625,4.447 "/>
  </g>
 </g>
</svg>
